<svg xmlns="http://www.w3.org/2000/svg" xmlns:xlink="http://www.w3.org/1999/xlink" width="600" height="400" viewBox="0 0 2400 1600">
<defs>
  <clipPath id="clip790">
    <rect x="0" y="0" width="2400" height="1600"></rect>
  </clipPath>
</defs>
<path clip-path="url(#clip790)" d="M0 1600 L2400 1600 L2400 8.88178e-14 L0 8.88178e-14  Z" fill="#ffffff" fill-rule="evenodd" fill-opacity="1"></path>
<defs>
  <clipPath id="clip791">
    <rect x="480" y="0" width="1681" height="1600"></rect>
  </clipPath>
</defs>
<path clip-path="url(#clip790)" d="M279.704 1366.15 L2352.76 1366.15 L2352.76 123.472 L279.704 123.472  Z" fill="#ffffff" fill-rule="evenodd" fill-opacity="1"></path>
<defs>
  <clipPath id="clip792">
    <rect x="279" y="123" width="2074" height="1244"></rect>
  </clipPath>
</defs>
<polyline clip-path="url(#clip792)" style="stroke:#000000; stroke-linecap:round; stroke-linejoin:round; stroke-width:2; stroke-opacity:0.1; fill:none" points="338.375,1366.15 338.375,123.472 "></polyline>
<polyline clip-path="url(#clip792)" style="stroke:#000000; stroke-linecap:round; stroke-linejoin:round; stroke-width:2; stroke-opacity:0.1; fill:none" points="417.394,1366.15 417.394,123.472 "></polyline>
<polyline clip-path="url(#clip792)" style="stroke:#000000; stroke-linecap:round; stroke-linejoin:round; stroke-width:2; stroke-opacity:0.1; fill:none" points="516.167,1366.15 516.167,123.472 "></polyline>
<polyline clip-path="url(#clip792)" style="stroke:#000000; stroke-linecap:round; stroke-linejoin:round; stroke-width:2; stroke-opacity:0.1; fill:none" points="614.94,1366.15 614.94,123.472 "></polyline>
<polyline clip-path="url(#clip792)" style="stroke:#000000; stroke-linecap:round; stroke-linejoin:round; stroke-width:2; stroke-opacity:0.1; fill:none" points="713.713,1366.15 713.713,123.472 "></polyline>
<polyline clip-path="url(#clip792)" style="stroke:#000000; stroke-linecap:round; stroke-linejoin:round; stroke-width:2; stroke-opacity:0.1; fill:none" points="1306.35,1366.15 1306.35,123.472 "></polyline>
<polyline clip-path="url(#clip792)" style="stroke:#000000; stroke-linecap:round; stroke-linejoin:round; stroke-width:2; stroke-opacity:0.1; fill:none" points="2294.08,1366.15 2294.08,123.472 "></polyline>
<polyline clip-path="url(#clip792)" style="stroke:#000000; stroke-linecap:round; stroke-linejoin:round; stroke-width:2; stroke-opacity:0.1; fill:none" points="279.704,1205.46 2352.76,1205.46 "></polyline>
<polyline clip-path="url(#clip792)" style="stroke:#000000; stroke-linecap:round; stroke-linejoin:round; stroke-width:2; stroke-opacity:0.1; fill:none" points="279.704,1003.04 2352.76,1003.04 "></polyline>
<polyline clip-path="url(#clip792)" style="stroke:#000000; stroke-linecap:round; stroke-linejoin:round; stroke-width:2; stroke-opacity:0.1; fill:none" points="279.704,800.618 2352.76,800.618 "></polyline>
<polyline clip-path="url(#clip792)" style="stroke:#000000; stroke-linecap:round; stroke-linejoin:round; stroke-width:2; stroke-opacity:0.1; fill:none" points="279.704,598.196 2352.76,598.196 "></polyline>
<polyline clip-path="url(#clip792)" style="stroke:#000000; stroke-linecap:round; stroke-linejoin:round; stroke-width:2; stroke-opacity:0.1; fill:none" points="279.704,395.775 2352.76,395.775 "></polyline>
<polyline clip-path="url(#clip792)" style="stroke:#000000; stroke-linecap:round; stroke-linejoin:round; stroke-width:2; stroke-opacity:0.1; fill:none" points="279.704,193.353 2352.76,193.353 "></polyline>
<polyline clip-path="url(#clip790)" style="stroke:#000000; stroke-linecap:round; stroke-linejoin:round; stroke-width:4; stroke-opacity:1; fill:none" points="279.704,1366.15 2352.76,1366.15 "></polyline>
<polyline clip-path="url(#clip790)" style="stroke:#000000; stroke-linecap:round; stroke-linejoin:round; stroke-width:4; stroke-opacity:1; fill:none" points="338.375,1366.15 338.375,1347.25 "></polyline>
<polyline clip-path="url(#clip790)" style="stroke:#000000; stroke-linecap:round; stroke-linejoin:round; stroke-width:4; stroke-opacity:1; fill:none" points="417.394,1366.15 417.394,1347.25 "></polyline>
<polyline clip-path="url(#clip790)" style="stroke:#000000; stroke-linecap:round; stroke-linejoin:round; stroke-width:4; stroke-opacity:1; fill:none" points="516.167,1366.15 516.167,1347.25 "></polyline>
<polyline clip-path="url(#clip790)" style="stroke:#000000; stroke-linecap:round; stroke-linejoin:round; stroke-width:4; stroke-opacity:1; fill:none" points="614.94,1366.15 614.94,1347.25 "></polyline>
<polyline clip-path="url(#clip790)" style="stroke:#000000; stroke-linecap:round; stroke-linejoin:round; stroke-width:4; stroke-opacity:1; fill:none" points="713.713,1366.15 713.713,1347.25 "></polyline>
<polyline clip-path="url(#clip790)" style="stroke:#000000; stroke-linecap:round; stroke-linejoin:round; stroke-width:4; stroke-opacity:1; fill:none" points="1306.35,1366.15 1306.35,1347.25 "></polyline>
<polyline clip-path="url(#clip790)" style="stroke:#000000; stroke-linecap:round; stroke-linejoin:round; stroke-width:4; stroke-opacity:1; fill:none" points="2294.08,1366.15 2294.08,1347.25 "></polyline>
<path clip-path="url(#clip790)" d="M290.212 1470.71 L295.613 1465.31 L276.97 1446.67 L272.273 1453.72 L269.261 1450.71 L273.926 1443.69 L277.232 1440.38 L298.887 1462.04 L304.289 1456.64 L307.071 1459.42 L292.995 1473.5 L290.212 1470.71 Z" fill="#000000" fill-rule="nonzero" fill-opacity="1"></path><path clip-path="url(#clip790)" d="M298.56 1423.41 Q296.006 1425.96 297.234 1429.78 Q298.462 1433.56 303.503 1438.6 Q308.528 1443.62 312.325 1444.87 Q316.123 1446.08 318.676 1443.53 Q321.246 1440.96 320.018 1437.17 Q318.791 1433.36 313.766 1428.34 Q308.724 1423.29 304.927 1422.08 Q301.13 1420.84 298.56 1423.41 M295.941 1420.79 Q300.049 1416.68 305.467 1417.78 Q310.885 1418.84 317.072 1425.03 Q323.243 1431.2 324.323 1436.63 Q325.403 1442.04 321.295 1446.14 Q317.187 1450.25 311.769 1449.19 Q306.351 1448.09 300.18 1441.92 Q293.993 1435.73 292.913 1430.33 Q291.832 1424.9 295.941 1420.79 Z" fill="#000000" fill-rule="nonzero" fill-opacity="1"></path><path clip-path="url(#clip790)" d="M319.887 1402.08 Q317.334 1404.64 318.562 1408.45 Q319.789 1412.23 324.831 1417.27 Q329.856 1422.3 333.653 1423.54 Q337.45 1424.75 340.004 1422.2 Q342.574 1419.63 341.346 1415.85 Q340.118 1412.03 335.093 1407.01 Q330.052 1401.97 326.255 1400.76 Q322.457 1399.51 319.887 1402.08 M317.268 1399.46 Q321.377 1395.35 326.795 1396.45 Q332.213 1397.51 338.4 1403.7 Q344.571 1409.87 345.651 1415.31 Q346.731 1420.71 342.623 1424.82 Q338.514 1428.93 333.096 1427.86 Q327.679 1426.76 321.508 1420.59 Q315.321 1414.41 314.24 1409.01 Q313.16 1403.57 317.268 1399.46 Z" fill="#000000" fill-rule="nonzero" fill-opacity="1"></path><path clip-path="url(#clip790)" d="M347.035 1449.6 L360.015 1436.62 L362.798 1439.4 L352.846 1449.35 L358.837 1455.34 Q359.311 1454.38 359.917 1453.54 Q360.506 1452.69 361.227 1451.97 Q365.319 1447.88 369.951 1447.73 Q374.583 1447.58 378.413 1451.42 Q382.358 1455.36 382.096 1460.01 Q381.818 1464.64 377.349 1469.11 Q375.811 1470.65 373.945 1471.99 Q372.095 1473.32 369.869 1474.49 L366.546 1471.17 Q368.821 1470.5 370.786 1469.32 Q372.75 1468.14 374.501 1466.39 Q377.333 1463.56 377.496 1460.42 Q377.66 1457.27 375.107 1454.72 Q372.553 1452.17 369.411 1452.33 Q366.268 1452.5 363.436 1455.33 Q362.11 1456.65 361.079 1458.27 Q360.064 1459.88 359.311 1461.87 L347.035 1449.6 Z" fill="#000000" fill-rule="nonzero" fill-opacity="1"></path><path clip-path="url(#clip790)" d="M377.578 1423.41 Q375.025 1425.96 376.252 1429.78 Q377.48 1433.56 382.521 1438.6 Q387.546 1443.62 391.344 1444.87 Q395.141 1446.08 397.695 1443.53 Q400.265 1440.96 399.037 1437.17 Q397.809 1433.36 392.784 1428.34 Q387.743 1423.29 383.945 1422.08 Q380.148 1420.84 377.578 1423.41 M374.959 1420.79 Q379.068 1416.68 384.486 1417.78 Q389.903 1418.84 396.091 1425.03 Q402.261 1431.2 403.342 1436.63 Q404.422 1442.04 400.314 1446.14 Q396.205 1450.25 390.787 1449.19 Q385.37 1448.09 379.199 1441.92 Q373.012 1435.73 371.931 1430.33 Q370.851 1424.9 374.959 1420.79 Z" fill="#000000" fill-rule="nonzero" fill-opacity="1"></path><path clip-path="url(#clip790)" d="M398.906 1402.08 Q396.353 1404.64 397.58 1408.45 Q398.808 1412.23 403.849 1417.27 Q408.874 1422.3 412.672 1423.54 Q416.469 1424.75 419.022 1422.2 Q421.592 1419.63 420.365 1415.85 Q419.137 1412.03 414.112 1407.01 Q409.071 1401.97 405.273 1400.76 Q401.476 1399.51 398.906 1402.08 M396.287 1399.46 Q400.395 1395.35 405.813 1396.45 Q411.231 1397.51 417.418 1403.7 Q423.589 1409.87 424.669 1415.31 Q425.75 1420.71 421.641 1424.82 Q417.533 1428.93 412.115 1427.86 Q406.697 1426.76 400.526 1420.59 Q394.339 1414.41 393.259 1409.01 Q392.179 1403.57 396.287 1399.46 Z" fill="#000000" fill-rule="nonzero" fill-opacity="1"></path><path clip-path="url(#clip790)" d="M446.676 1492.04 L452.078 1486.64 L433.434 1468 L428.737 1475.05 L425.725 1472.04 L430.39 1465.02 L433.696 1461.71 L455.351 1483.37 L460.753 1477.96 L463.535 1480.75 L449.459 1494.82 L446.676 1492.04 Z" fill="#000000" fill-rule="nonzero" fill-opacity="1"></path><path clip-path="url(#clip790)" d="M455.024 1444.74 Q452.47 1447.29 453.698 1451.1 Q454.926 1454.89 459.967 1459.93 Q464.992 1464.95 468.789 1466.2 Q472.587 1467.41 475.14 1464.85 Q477.71 1462.28 476.482 1458.5 Q475.255 1454.69 470.23 1449.66 Q465.188 1444.62 461.391 1443.41 Q457.594 1442.17 455.024 1444.74 M452.405 1442.12 Q456.513 1438.01 461.931 1439.11 Q467.349 1440.17 473.536 1446.36 Q479.707 1452.53 480.787 1457.96 Q481.868 1463.36 477.759 1467.47 Q473.651 1471.58 468.233 1470.52 Q462.815 1469.42 456.644 1463.25 Q450.457 1457.06 449.377 1451.66 Q448.297 1446.23 452.405 1442.12 Z" fill="#000000" fill-rule="nonzero" fill-opacity="1"></path><path clip-path="url(#clip790)" d="M476.351 1423.41 Q473.798 1425.96 475.026 1429.78 Q476.253 1433.56 481.295 1438.6 Q486.32 1443.62 490.117 1444.87 Q493.914 1446.08 496.468 1443.53 Q499.038 1440.96 497.81 1437.17 Q496.582 1433.36 491.557 1428.34 Q486.516 1423.29 482.719 1422.08 Q478.921 1420.84 476.351 1423.41 M473.733 1420.79 Q477.841 1416.68 483.259 1417.78 Q488.677 1418.84 494.864 1425.03 Q501.035 1431.2 502.115 1436.63 Q503.195 1442.04 499.087 1446.14 Q494.978 1450.25 489.561 1449.19 Q484.143 1448.09 477.972 1441.92 Q471.785 1435.73 470.704 1430.33 Q469.624 1424.9 473.733 1420.79 Z" fill="#000000" fill-rule="nonzero" fill-opacity="1"></path><path clip-path="url(#clip790)" d="M497.679 1402.08 Q495.126 1404.64 496.353 1408.45 Q497.581 1412.23 502.622 1417.27 Q507.647 1422.3 511.445 1423.54 Q515.242 1424.75 517.796 1422.2 Q520.365 1419.63 519.138 1415.85 Q517.91 1412.03 512.885 1407.01 Q507.844 1401.97 504.046 1400.76 Q500.249 1399.51 497.679 1402.08 M495.06 1399.46 Q499.169 1395.35 504.587 1396.45 Q510.004 1397.51 516.192 1403.7 Q522.362 1409.87 523.443 1415.31 Q524.523 1420.71 520.414 1424.82 Q516.306 1428.93 510.888 1427.86 Q505.47 1426.76 499.3 1420.59 Q493.112 1414.41 492.032 1409.01 Q490.952 1403.57 495.06 1399.46 Z" fill="#000000" fill-rule="nonzero" fill-opacity="1"></path><path clip-path="url(#clip790)" d="M545.449 1492.04 L550.851 1486.64 L532.207 1468 L527.51 1475.05 L524.498 1472.04 L529.163 1465.02 L532.469 1461.71 L554.124 1483.37 L559.526 1477.96 L562.308 1480.75 L548.232 1494.82 L545.449 1492.04 Z" fill="#000000" fill-rule="nonzero" fill-opacity="1"></path><path clip-path="url(#clip790)" d="M544.582 1449.6 L557.562 1436.62 L560.344 1439.4 L550.392 1449.35 L556.383 1455.34 Q556.858 1454.38 557.463 1453.54 Q558.053 1452.69 558.773 1451.97 Q562.865 1447.88 567.497 1447.73 Q572.129 1447.58 575.959 1451.42 Q579.904 1455.36 579.642 1460.01 Q579.364 1464.64 574.896 1469.11 Q573.357 1470.65 571.491 1471.99 Q569.641 1473.32 567.415 1474.49 L564.093 1471.17 Q566.368 1470.5 568.332 1469.32 Q570.296 1468.14 572.047 1466.39 Q574.879 1463.56 575.043 1460.42 Q575.207 1457.27 572.653 1454.72 Q570.1 1452.17 566.957 1452.33 Q563.814 1452.5 560.983 1455.33 Q559.657 1456.65 558.626 1458.27 Q557.611 1459.88 556.858 1461.87 L544.582 1449.6 Z" fill="#000000" fill-rule="nonzero" fill-opacity="1"></path><path clip-path="url(#clip790)" d="M575.125 1423.41 Q572.571 1425.96 573.799 1429.78 Q575.026 1433.56 580.068 1438.6 Q585.093 1443.62 588.89 1444.87 Q592.688 1446.08 595.241 1443.53 Q597.811 1440.96 596.583 1437.17 Q595.356 1433.36 590.331 1428.34 Q585.289 1423.29 581.492 1422.08 Q577.694 1420.84 575.125 1423.41 M572.506 1420.79 Q576.614 1416.68 582.032 1417.78 Q587.45 1418.84 593.637 1425.03 Q599.808 1431.2 600.888 1436.63 Q601.968 1442.04 597.86 1446.14 Q593.752 1450.25 588.334 1449.19 Q582.916 1448.09 576.745 1441.92 Q570.558 1435.73 569.478 1430.33 Q568.397 1424.9 572.506 1420.79 Z" fill="#000000" fill-rule="nonzero" fill-opacity="1"></path><path clip-path="url(#clip790)" d="M596.452 1402.08 Q593.899 1404.64 595.127 1408.45 Q596.354 1412.23 601.396 1417.27 Q606.421 1422.3 610.218 1423.54 Q614.015 1424.75 616.569 1422.2 Q619.139 1419.63 617.911 1415.85 Q616.683 1412.03 611.658 1407.01 Q606.617 1401.97 602.82 1400.76 Q599.022 1399.51 596.452 1402.08 M593.833 1399.46 Q597.942 1395.35 603.36 1396.45 Q608.778 1397.51 614.965 1403.7 Q621.135 1409.87 622.216 1415.31 Q623.296 1420.71 619.188 1424.82 Q615.079 1428.93 609.661 1427.86 Q604.244 1426.76 598.073 1420.59 Q591.886 1414.41 590.805 1409.01 Q589.725 1403.57 593.833 1399.46 Z" fill="#000000" fill-rule="nonzero" fill-opacity="1"></path><path clip-path="url(#clip790)" d="M646.498 1489.77 L658.037 1478.23 L660.82 1481.01 L645.303 1496.53 L642.52 1493.74 Q642.455 1489.91 642.422 1483.4 Q642.389 1476.85 642.275 1475.07 Q642.078 1471.7 641.473 1469.85 Q640.867 1467.96 639.672 1466.77 Q637.724 1464.82 635.122 1464.97 Q632.536 1465.1 630.342 1467.29 Q628.787 1468.85 627.592 1471.12 Q626.414 1473.38 625.546 1476.44 L622.207 1473.1 Q623.402 1470.3 624.728 1468.16 Q626.054 1466.02 627.494 1464.58 Q631.292 1460.78 635.449 1460.42 Q639.607 1460.06 642.782 1463.23 Q644.288 1464.74 645.074 1466.67 Q645.859 1468.57 646.203 1471.89 Q646.269 1472.78 646.35 1477.24 Q646.416 1481.7 646.498 1489.77 Z" fill="#000000" fill-rule="nonzero" fill-opacity="1"></path><path clip-path="url(#clip790)" d="M652.57 1444.74 Q650.017 1447.29 651.244 1451.1 Q652.472 1454.89 657.513 1459.93 Q662.538 1464.95 666.336 1466.2 Q670.133 1467.41 672.687 1464.85 Q675.256 1462.28 674.029 1458.5 Q672.801 1454.69 667.776 1449.66 Q662.735 1444.62 658.937 1443.41 Q655.14 1442.17 652.57 1444.74 M649.951 1442.12 Q654.06 1438.01 659.478 1439.11 Q664.895 1440.17 671.083 1446.36 Q677.253 1452.53 678.334 1457.96 Q679.414 1463.36 675.306 1467.47 Q671.197 1471.58 665.779 1470.52 Q660.361 1469.42 654.191 1463.25 Q648.004 1457.06 646.923 1451.66 Q645.843 1446.23 649.951 1442.12 Z" fill="#000000" fill-rule="nonzero" fill-opacity="1"></path><path clip-path="url(#clip790)" d="M673.898 1423.41 Q671.344 1425.96 672.572 1429.78 Q673.8 1433.56 678.841 1438.6 Q683.866 1443.62 687.663 1444.87 Q691.461 1446.08 694.014 1443.53 Q696.584 1440.96 695.357 1437.17 Q694.129 1433.36 689.104 1428.34 Q684.063 1423.29 680.265 1422.08 Q676.468 1420.84 673.898 1423.41 M671.279 1420.79 Q675.387 1416.68 680.805 1417.78 Q686.223 1418.84 692.41 1425.03 Q698.581 1431.2 699.661 1436.63 Q700.742 1442.04 696.633 1446.14 Q692.525 1450.25 687.107 1449.19 Q681.689 1448.09 675.518 1441.92 Q669.331 1435.73 668.251 1430.33 Q667.171 1424.9 671.279 1420.79 Z" fill="#000000" fill-rule="nonzero" fill-opacity="1"></path><path clip-path="url(#clip790)" d="M695.226 1402.08 Q692.672 1404.64 693.9 1408.45 Q695.127 1412.23 700.169 1417.27 Q705.194 1422.3 708.991 1423.54 Q712.789 1424.75 715.342 1422.2 Q717.912 1419.63 716.684 1415.85 Q715.457 1412.03 710.432 1407.01 Q705.39 1401.97 701.593 1400.76 Q697.795 1399.51 695.226 1402.08 M692.607 1399.46 Q696.715 1395.35 702.133 1396.45 Q707.551 1397.51 713.738 1403.7 Q719.909 1409.87 720.989 1415.31 Q722.069 1420.71 717.961 1424.82 Q713.852 1428.93 708.435 1427.86 Q703.017 1426.76 696.846 1420.59 Q690.659 1414.41 689.579 1409.01 Q688.498 1403.57 692.607 1399.46 Z" fill="#000000" fill-rule="nonzero" fill-opacity="1"></path><path clip-path="url(#clip790)" d="M1214.67 1470.93 L1227.65 1457.95 L1230.43 1460.73 L1220.48 1470.68 L1226.47 1476.67 Q1226.94 1475.71 1227.55 1474.87 Q1228.14 1474.02 1228.86 1473.3 Q1232.95 1469.21 1237.58 1469.06 Q1242.21 1468.91 1246.04 1472.74 Q1249.99 1476.69 1249.73 1481.34 Q1249.45 1485.97 1244.98 1490.44 Q1243.44 1491.98 1241.58 1493.32 Q1239.73 1494.64 1237.5 1495.82 L1234.18 1492.5 Q1236.45 1491.83 1238.42 1490.65 Q1240.38 1489.47 1242.13 1487.72 Q1244.96 1484.89 1245.13 1481.75 Q1245.29 1478.6 1242.74 1476.05 Q1240.18 1473.5 1237.04 1473.66 Q1233.9 1473.82 1231.07 1476.65 Q1229.74 1477.98 1228.71 1479.6 Q1227.7 1481.21 1226.94 1483.2 L1214.67 1470.93 Z" fill="#000000" fill-rule="nonzero" fill-opacity="1"></path><path clip-path="url(#clip790)" d="M1245.21 1444.74 Q1242.66 1447.29 1243.88 1451.1 Q1245.11 1454.89 1250.15 1459.93 Q1255.18 1464.95 1258.98 1466.2 Q1262.77 1467.41 1265.33 1464.85 Q1267.9 1462.28 1266.67 1458.5 Q1265.44 1454.69 1260.42 1449.66 Q1255.37 1444.62 1251.58 1443.41 Q1247.78 1442.17 1245.21 1444.74 M1242.59 1442.12 Q1246.7 1438.01 1252.12 1439.11 Q1257.53 1440.17 1263.72 1446.36 Q1269.89 1452.53 1270.97 1457.96 Q1272.05 1463.36 1267.94 1467.47 Q1263.84 1471.58 1258.42 1470.52 Q1253 1469.42 1246.83 1463.25 Q1240.64 1457.06 1239.56 1451.66 Q1238.48 1446.23 1242.59 1442.12 Z" fill="#000000" fill-rule="nonzero" fill-opacity="1"></path><path clip-path="url(#clip790)" d="M1266.54 1423.41 Q1263.98 1425.96 1265.21 1429.78 Q1266.44 1433.56 1271.48 1438.6 Q1276.51 1443.62 1280.3 1444.87 Q1284.1 1446.08 1286.65 1443.53 Q1289.22 1440.96 1288 1437.17 Q1286.77 1433.36 1281.74 1428.34 Q1276.7 1423.29 1272.9 1422.08 Q1269.11 1420.84 1266.54 1423.41 M1263.92 1420.79 Q1268.03 1416.68 1273.44 1417.78 Q1278.86 1418.84 1285.05 1425.03 Q1291.22 1431.2 1292.3 1436.63 Q1293.38 1442.04 1289.27 1446.14 Q1285.16 1450.25 1279.75 1449.19 Q1274.33 1448.09 1268.16 1441.92 Q1261.97 1435.73 1260.89 1430.33 Q1259.81 1424.9 1263.92 1420.79 Z" fill="#000000" fill-rule="nonzero" fill-opacity="1"></path><path clip-path="url(#clip790)" d="M1287.86 1402.08 Q1285.31 1404.64 1286.54 1408.45 Q1287.77 1412.23 1292.81 1417.27 Q1297.83 1422.3 1301.63 1423.54 Q1305.43 1424.75 1307.98 1422.2 Q1310.55 1419.63 1309.32 1415.85 Q1308.1 1412.03 1303.07 1407.01 Q1298.03 1401.97 1294.23 1400.76 Q1290.43 1399.51 1287.86 1402.08 M1285.25 1399.46 Q1289.35 1395.35 1294.77 1396.45 Q1300.19 1397.51 1306.38 1403.7 Q1312.55 1409.87 1313.63 1415.31 Q1314.71 1420.71 1310.6 1424.82 Q1306.49 1428.93 1301.07 1427.86 Q1295.66 1426.76 1289.49 1420.59 Q1283.3 1414.41 1282.22 1409.01 Q1281.14 1403.57 1285.25 1399.46 Z" fill="#000000" fill-rule="nonzero" fill-opacity="1"></path><path clip-path="url(#clip790)" d="M2203.27 1513.37 L2208.67 1507.97 L2190.02 1489.32 L2185.33 1496.38 L2182.31 1493.37 L2186.98 1486.34 L2190.29 1483.04 L2211.94 1504.69 L2217.34 1499.29 L2220.13 1502.07 L2206.05 1516.15 L2203.27 1513.37 Z" fill="#000000" fill-rule="nonzero" fill-opacity="1"></path><path clip-path="url(#clip790)" d="M2211.61 1466.06 Q2209.06 1468.62 2210.29 1472.43 Q2211.52 1476.21 2216.56 1481.25 Q2221.58 1486.28 2225.38 1487.52 Q2229.18 1488.73 2231.73 1486.18 Q2234.3 1483.61 2233.07 1479.83 Q2231.84 1476.02 2226.82 1470.99 Q2221.78 1465.95 2217.98 1464.74 Q2214.18 1463.49 2211.61 1466.06 M2208.99 1463.45 Q2213.1 1459.34 2218.52 1460.43 Q2223.94 1461.5 2230.13 1467.69 Q2236.3 1473.86 2237.38 1479.29 Q2238.46 1484.69 2234.35 1488.8 Q2230.24 1492.91 2224.82 1491.84 Q2219.41 1490.75 2213.23 1484.58 Q2207.05 1478.39 2205.97 1472.99 Q2204.89 1467.55 2208.99 1463.45 Z" fill="#000000" fill-rule="nonzero" fill-opacity="1"></path><path clip-path="url(#clip790)" d="M2232.94 1444.74 Q2230.39 1447.29 2231.62 1451.1 Q2232.84 1454.89 2237.88 1459.93 Q2242.91 1464.95 2246.71 1466.2 Q2250.5 1467.41 2253.06 1464.85 Q2255.63 1462.28 2254.4 1458.5 Q2253.17 1454.69 2248.15 1449.66 Q2243.11 1444.62 2239.31 1443.41 Q2235.51 1442.17 2232.94 1444.74 M2230.32 1442.12 Q2234.43 1438.01 2239.85 1439.11 Q2245.27 1440.17 2251.45 1446.36 Q2257.62 1452.53 2258.7 1457.96 Q2259.79 1463.36 2255.68 1467.47 Q2251.57 1471.58 2246.15 1470.52 Q2240.73 1469.42 2234.56 1463.25 Q2228.37 1457.06 2227.29 1451.66 Q2226.21 1446.23 2230.32 1442.12 Z" fill="#000000" fill-rule="nonzero" fill-opacity="1"></path><path clip-path="url(#clip790)" d="M2254.27 1423.41 Q2251.72 1425.96 2252.94 1429.78 Q2254.17 1433.56 2259.21 1438.6 Q2264.24 1443.62 2268.03 1444.87 Q2271.83 1446.08 2274.39 1443.53 Q2276.96 1440.96 2275.73 1437.17 Q2274.5 1433.36 2269.48 1428.34 Q2264.43 1423.29 2260.64 1422.08 Q2256.84 1420.84 2254.27 1423.41 M2251.65 1420.79 Q2255.76 1416.68 2261.18 1417.78 Q2266.59 1418.84 2272.78 1425.03 Q2278.95 1431.2 2280.03 1436.63 Q2281.11 1442.04 2277 1446.14 Q2272.9 1450.25 2267.48 1449.19 Q2262.06 1448.09 2255.89 1441.92 Q2249.7 1435.73 2248.62 1430.33 Q2247.54 1424.9 2251.65 1420.79 Z" fill="#000000" fill-rule="nonzero" fill-opacity="1"></path><path clip-path="url(#clip790)" d="M2275.6 1402.08 Q2273.04 1404.64 2274.27 1408.45 Q2275.5 1412.23 2280.54 1417.27 Q2285.57 1422.3 2289.36 1423.54 Q2293.16 1424.75 2295.71 1422.2 Q2298.28 1419.63 2297.06 1415.85 Q2295.83 1412.03 2290.8 1407.01 Q2285.76 1401.97 2281.96 1400.76 Q2278.17 1399.51 2275.6 1402.08 M2272.98 1399.46 Q2277.09 1395.35 2282.5 1396.45 Q2287.92 1397.51 2294.11 1403.7 Q2300.28 1409.87 2301.36 1415.31 Q2302.44 1420.71 2298.33 1424.82 Q2294.22 1428.93 2288.81 1427.86 Q2283.39 1426.76 2277.22 1420.59 Q2271.03 1414.41 2269.95 1409.01 Q2268.87 1403.57 2272.98 1399.46 Z" fill="#000000" fill-rule="nonzero" fill-opacity="1"></path><path clip-path="url(#clip790)" d="M1011.09 1549.04 L1019.75 1549.04 L1040.82 1588.79 L1040.82 1549.04 L1047.06 1549.04 L1047.06 1596.56 L1038.4 1596.56 L1017.33 1556.81 L1017.33 1596.56 L1011.09 1596.56 L1011.09 1549.04 Z" fill="#000000" fill-rule="nonzero" fill-opacity="1"></path><path clip-path="url(#clip790)" d="M1058.99 1582.49 L1058.99 1560.91 L1064.85 1560.91 L1064.85 1582.27 Q1064.85 1587.33 1066.82 1589.88 Q1068.79 1592.39 1072.74 1592.39 Q1077.48 1592.39 1080.22 1589.37 Q1082.99 1586.34 1082.99 1581.12 L1082.99 1560.91 L1088.85 1560.91 L1088.85 1596.56 L1082.99 1596.56 L1082.99 1591.08 Q1080.86 1594.33 1078.03 1595.92 Q1075.22 1597.48 1071.5 1597.48 Q1065.36 1597.48 1062.17 1593.66 Q1058.99 1589.84 1058.99 1582.49 M1073.73 1560.05 L1073.73 1560.05 Z" fill="#000000" fill-rule="nonzero" fill-opacity="1"></path><path clip-path="url(#clip790)" d="M1128.66 1567.75 Q1130.86 1563.81 1133.92 1561.93 Q1136.97 1560.05 1141.11 1560.05 Q1146.68 1560.05 1149.7 1563.97 Q1152.73 1567.85 1152.73 1575.04 L1152.73 1596.56 L1146.84 1596.56 L1146.84 1575.23 Q1146.84 1570.11 1145.02 1567.63 Q1143.21 1565.14 1139.49 1565.14 Q1134.93 1565.14 1132.29 1568.17 Q1129.65 1571.19 1129.65 1576.41 L1129.65 1596.56 L1123.76 1596.56 L1123.76 1575.23 Q1123.76 1570.08 1121.95 1567.63 Q1120.13 1565.14 1116.35 1565.14 Q1111.86 1565.14 1109.22 1568.2 Q1106.58 1571.22 1106.58 1576.41 L1106.58 1596.56 L1100.69 1596.56 L1100.69 1560.91 L1106.58 1560.91 L1106.58 1566.45 Q1108.58 1563.17 1111.38 1561.61 Q1114.18 1560.05 1118.03 1560.05 Q1121.92 1560.05 1124.62 1562.03 Q1127.36 1564 1128.66 1567.75 Z" fill="#000000" fill-rule="nonzero" fill-opacity="1"></path><path clip-path="url(#clip790)" d="M1190 1578.77 Q1190 1572.31 1187.32 1568.65 Q1184.68 1564.95 1180.04 1564.95 Q1175.39 1564.95 1172.72 1568.65 Q1170.07 1572.31 1170.07 1578.77 Q1170.07 1585.23 1172.72 1588.92 Q1175.39 1592.58 1180.04 1592.58 Q1184.68 1592.58 1187.32 1588.92 Q1190 1585.23 1190 1578.77 M1170.07 1566.32 Q1171.92 1563.14 1174.72 1561.61 Q1177.55 1560.05 1181.47 1560.05 Q1187.96 1560.05 1192 1565.21 Q1196.08 1570.36 1196.08 1578.77 Q1196.08 1587.17 1192 1592.33 Q1187.96 1597.48 1181.47 1597.48 Q1177.55 1597.48 1174.72 1595.95 Q1171.92 1594.39 1170.07 1591.21 L1170.07 1596.56 L1164.19 1596.56 L1164.19 1547.03 L1170.07 1547.03 L1170.07 1566.32 Z" fill="#000000" fill-rule="nonzero" fill-opacity="1"></path><path clip-path="url(#clip790)" d="M1236.28 1577.27 L1236.28 1580.14 L1209.35 1580.14 Q1209.73 1586.18 1212.98 1589.37 Q1216.26 1592.52 1222.08 1592.52 Q1225.45 1592.52 1228.61 1591.69 Q1231.79 1590.86 1234.91 1589.21 L1234.91 1594.74 Q1231.76 1596.08 1228.45 1596.78 Q1225.14 1597.48 1221.73 1597.48 Q1213.2 1597.48 1208.2 1592.52 Q1203.24 1587.55 1203.24 1579.09 Q1203.24 1570.33 1207.95 1565.21 Q1212.69 1560.05 1220.71 1560.05 Q1227.91 1560.05 1232.08 1564.7 Q1236.28 1569.31 1236.28 1577.27 M1230.42 1575.55 Q1230.36 1570.75 1227.71 1567.88 Q1225.1 1565.02 1220.78 1565.02 Q1215.87 1565.02 1212.91 1567.79 Q1209.99 1570.56 1209.54 1575.58 L1230.42 1575.55 Z" fill="#000000" fill-rule="nonzero" fill-opacity="1"></path><path clip-path="url(#clip790)" d="M1266.55 1566.39 Q1265.56 1565.81 1264.38 1565.56 Q1263.24 1565.27 1261.83 1565.27 Q1256.87 1565.27 1254.2 1568.52 Q1251.55 1571.73 1251.55 1577.78 L1251.55 1596.56 L1245.67 1596.56 L1245.67 1560.91 L1251.55 1560.91 L1251.55 1566.45 Q1253.4 1563.2 1256.36 1561.64 Q1259.32 1560.05 1263.55 1560.05 Q1264.16 1560.05 1264.89 1560.15 Q1265.62 1560.21 1266.51 1560.37 L1266.55 1566.39 Z" fill="#000000" fill-rule="nonzero" fill-opacity="1"></path><path clip-path="url(#clip790)" d="M1307.22 1565.02 Q1302.51 1565.02 1299.77 1568.71 Q1297.04 1572.37 1297.04 1578.77 Q1297.04 1585.16 1299.74 1588.86 Q1302.48 1592.52 1307.22 1592.52 Q1311.9 1592.52 1314.64 1588.82 Q1317.38 1585.13 1317.38 1578.77 Q1317.38 1572.43 1314.64 1568.74 Q1311.9 1565.02 1307.22 1565.02 M1307.22 1560.05 Q1314.86 1560.05 1319.22 1565.02 Q1323.58 1569.98 1323.58 1578.77 Q1323.58 1587.52 1319.22 1592.52 Q1314.86 1597.48 1307.22 1597.48 Q1299.55 1597.48 1295.19 1592.52 Q1290.86 1587.52 1290.86 1578.77 Q1290.86 1569.98 1295.19 1565.02 Q1299.55 1560.05 1307.22 1560.05 Z" fill="#000000" fill-rule="nonzero" fill-opacity="1"></path><path clip-path="url(#clip790)" d="M1351.34 1547.03 L1351.34 1551.9 L1345.73 1551.9 Q1342.58 1551.9 1341.34 1553.18 Q1340.13 1554.45 1340.13 1557.76 L1340.13 1560.91 L1349.78 1560.91 L1349.78 1565.46 L1340.13 1565.46 L1340.13 1596.56 L1334.24 1596.56 L1334.24 1565.46 L1328.64 1565.46 L1328.64 1560.91 L1334.24 1560.91 L1334.24 1558.43 Q1334.24 1552.48 1337.01 1549.77 Q1339.78 1547.03 1345.8 1547.03 L1351.34 1547.03 Z" fill="#000000" fill-rule="nonzero" fill-opacity="1"></path><path clip-path="url(#clip790)" d="M1373.55 1560.91 L1379.41 1560.91 L1386.73 1588.73 L1394.02 1560.91 L1400.93 1560.91 L1408.25 1588.73 L1415.53 1560.91 L1421.39 1560.91 L1412.07 1596.56 L1405.16 1596.56 L1397.49 1567.34 L1389.79 1596.56 L1382.88 1596.56 L1373.55 1560.91 Z" fill="#000000" fill-rule="nonzero" fill-opacity="1"></path><path clip-path="url(#clip790)" d="M1460.76 1577.27 L1460.76 1580.14 L1433.84 1580.14 Q1434.22 1586.18 1437.46 1589.37 Q1440.74 1592.52 1446.57 1592.52 Q1449.94 1592.52 1453.09 1591.69 Q1456.28 1590.86 1459.39 1589.21 L1459.39 1594.74 Q1456.24 1596.08 1452.93 1596.78 Q1449.62 1597.48 1446.22 1597.48 Q1437.69 1597.48 1432.69 1592.52 Q1427.73 1587.55 1427.73 1579.09 Q1427.73 1570.33 1432.44 1565.21 Q1437.18 1560.05 1445.2 1560.05 Q1452.39 1560.05 1456.56 1564.7 Q1460.76 1569.31 1460.76 1577.27 M1454.91 1575.55 Q1454.84 1570.75 1452.2 1567.88 Q1449.59 1565.02 1445.26 1565.02 Q1440.36 1565.02 1437.4 1567.79 Q1434.47 1570.56 1434.03 1575.58 L1454.91 1575.55 Z" fill="#000000" fill-rule="nonzero" fill-opacity="1"></path><path clip-path="url(#clip790)" d="M1470.38 1560.91 L1476.23 1560.91 L1476.23 1596.56 L1470.38 1596.56 L1470.38 1560.91 M1470.38 1547.03 L1476.23 1547.03 L1476.23 1554.45 L1470.38 1554.45 L1470.38 1547.03 Z" fill="#000000" fill-rule="nonzero" fill-opacity="1"></path><path clip-path="url(#clip790)" d="M1511.94 1578.32 Q1511.94 1571.96 1509.3 1568.45 Q1506.69 1564.95 1501.95 1564.95 Q1497.24 1564.95 1494.6 1568.45 Q1491.99 1571.96 1491.99 1578.32 Q1491.99 1584.66 1494.6 1588.16 Q1497.24 1591.66 1501.95 1591.66 Q1506.69 1591.66 1509.3 1588.16 Q1511.94 1584.66 1511.94 1578.32 M1517.8 1592.13 Q1517.8 1601.24 1513.76 1605.66 Q1509.72 1610.12 1501.38 1610.12 Q1498.29 1610.12 1495.55 1609.64 Q1492.81 1609.2 1490.24 1608.24 L1490.24 1602.54 Q1492.81 1603.94 1495.33 1604.61 Q1497.84 1605.28 1500.45 1605.28 Q1506.21 1605.28 1509.08 1602.26 Q1511.94 1599.26 1511.94 1593.19 L1511.94 1590.29 Q1510.13 1593.44 1507.3 1595 Q1504.46 1596.56 1500.52 1596.56 Q1493.96 1596.56 1489.95 1591.56 Q1485.94 1586.56 1485.94 1578.32 Q1485.94 1570.05 1489.95 1565.05 Q1493.96 1560.05 1500.52 1560.05 Q1504.46 1560.05 1507.3 1561.61 Q1510.13 1563.17 1511.94 1566.32 L1511.94 1560.91 L1517.8 1560.91 L1517.8 1592.13 Z" fill="#000000" fill-rule="nonzero" fill-opacity="1"></path><path clip-path="url(#clip790)" d="M1559.5 1575.04 L1559.5 1596.56 L1553.64 1596.56 L1553.64 1575.23 Q1553.64 1570.17 1551.67 1567.66 Q1549.69 1565.14 1545.75 1565.14 Q1541 1565.14 1538.27 1568.17 Q1535.53 1571.19 1535.53 1576.41 L1535.53 1596.56 L1529.64 1596.56 L1529.64 1547.03 L1535.53 1547.03 L1535.53 1566.45 Q1537.63 1563.23 1540.46 1561.64 Q1543.33 1560.05 1547.05 1560.05 Q1553.19 1560.05 1556.34 1563.87 Q1559.5 1567.66 1559.5 1575.04 Z" fill="#000000" fill-rule="nonzero" fill-opacity="1"></path><path clip-path="url(#clip790)" d="M1576.97 1550.79 L1576.97 1560.91 L1589.03 1560.91 L1589.03 1565.46 L1576.97 1565.46 L1576.97 1584.81 Q1576.97 1589.17 1578.15 1590.42 Q1579.36 1591.66 1583.02 1591.66 L1589.03 1591.66 L1589.03 1596.56 L1583.02 1596.56 Q1576.24 1596.56 1573.66 1594.04 Q1571.08 1591.5 1571.08 1584.81 L1571.08 1565.46 L1566.78 1565.46 L1566.78 1560.91 L1571.08 1560.91 L1571.08 1550.79 L1576.97 1550.79 Z" fill="#000000" fill-rule="nonzero" fill-opacity="1"></path><path clip-path="url(#clip790)" d="M1619.46 1561.96 L1619.46 1567.5 Q1616.98 1566.23 1614.3 1565.59 Q1611.63 1564.95 1608.77 1564.95 Q1604.41 1564.95 1602.21 1566.29 Q1600.04 1567.63 1600.04 1570.3 Q1600.04 1572.34 1601.6 1573.52 Q1603.16 1574.66 1607.87 1575.71 L1609.88 1576.16 Q1616.12 1577.49 1618.73 1579.94 Q1621.37 1582.36 1621.37 1586.72 Q1621.37 1591.69 1617.42 1594.59 Q1613.51 1597.48 1606.63 1597.48 Q1603.77 1597.48 1600.65 1596.91 Q1597.56 1596.37 1594.12 1595.25 L1594.12 1589.21 Q1597.37 1590.89 1600.52 1591.75 Q1603.67 1592.58 1606.76 1592.58 Q1610.9 1592.58 1613.13 1591.18 Q1615.35 1589.75 1615.35 1587.17 Q1615.35 1584.78 1613.73 1583.51 Q1612.14 1582.24 1606.7 1581.06 L1604.66 1580.58 Q1599.22 1579.44 1596.8 1577.08 Q1594.38 1574.69 1594.38 1570.56 Q1594.38 1565.53 1597.94 1562.79 Q1601.51 1560.05 1608.07 1560.05 Q1611.31 1560.05 1614.18 1560.53 Q1617.04 1561.01 1619.46 1561.96 Z" fill="#000000" fill-rule="nonzero" fill-opacity="1"></path><polyline clip-path="url(#clip790)" style="stroke:#000000; stroke-linecap:round; stroke-linejoin:round; stroke-width:4; stroke-opacity:1; fill:none" points="279.704,1366.15 279.704,123.472 "></polyline>
<polyline clip-path="url(#clip790)" style="stroke:#000000; stroke-linecap:round; stroke-linejoin:round; stroke-width:4; stroke-opacity:1; fill:none" points="279.704,1205.46 298.602,1205.46 "></polyline>
<polyline clip-path="url(#clip790)" style="stroke:#000000; stroke-linecap:round; stroke-linejoin:round; stroke-width:4; stroke-opacity:1; fill:none" points="279.704,1003.04 298.602,1003.04 "></polyline>
<polyline clip-path="url(#clip790)" style="stroke:#000000; stroke-linecap:round; stroke-linejoin:round; stroke-width:4; stroke-opacity:1; fill:none" points="279.704,800.618 298.602,800.618 "></polyline>
<polyline clip-path="url(#clip790)" style="stroke:#000000; stroke-linecap:round; stroke-linejoin:round; stroke-width:4; stroke-opacity:1; fill:none" points="279.704,598.196 298.602,598.196 "></polyline>
<polyline clip-path="url(#clip790)" style="stroke:#000000; stroke-linecap:round; stroke-linejoin:round; stroke-width:4; stroke-opacity:1; fill:none" points="279.704,395.775 298.602,395.775 "></polyline>
<polyline clip-path="url(#clip790)" style="stroke:#000000; stroke-linecap:round; stroke-linejoin:round; stroke-width:4; stroke-opacity:1; fill:none" points="279.704,193.353 298.602,193.353 "></polyline>
<path clip-path="url(#clip790)" d="M127.2 1191.26 Q123.589 1191.26 121.76 1194.82 Q119.955 1198.37 119.955 1205.5 Q119.955 1212.6 121.76 1216.17 Q123.589 1219.71 127.2 1219.71 Q130.834 1219.71 132.64 1216.17 Q134.468 1212.6 134.468 1205.5 Q134.468 1198.37 132.64 1194.82 Q130.834 1191.26 127.2 1191.26 M127.2 1187.56 Q133.01 1187.56 136.066 1192.16 Q139.144 1196.75 139.144 1205.5 Q139.144 1214.22 136.066 1218.83 Q133.01 1223.41 127.2 1223.41 Q121.39 1223.41 118.311 1218.83 Q115.256 1214.22 115.256 1205.5 Q115.256 1196.75 118.311 1192.16 Q121.39 1187.56 127.2 1187.56 Z" fill="#000000" fill-rule="nonzero" fill-opacity="1"></path><path clip-path="url(#clip790)" d="M147.362 1216.86 L152.246 1216.86 L152.246 1222.74 L147.362 1222.74 L147.362 1216.86 Z" fill="#000000" fill-rule="nonzero" fill-opacity="1"></path><path clip-path="url(#clip790)" d="M172.431 1191.26 Q168.82 1191.26 166.991 1194.82 Q165.186 1198.37 165.186 1205.5 Q165.186 1212.6 166.991 1216.17 Q168.82 1219.71 172.431 1219.71 Q176.065 1219.71 177.871 1216.17 Q179.7 1212.6 179.7 1205.5 Q179.7 1198.37 177.871 1194.82 Q176.065 1191.26 172.431 1191.26 M172.431 1187.56 Q178.241 1187.56 181.297 1192.16 Q184.376 1196.75 184.376 1205.5 Q184.376 1214.22 181.297 1218.83 Q178.241 1223.41 172.431 1223.41 Q166.621 1223.41 163.542 1218.83 Q160.487 1214.22 160.487 1205.5 Q160.487 1196.75 163.542 1192.16 Q166.621 1187.56 172.431 1187.56 Z" fill="#000000" fill-rule="nonzero" fill-opacity="1"></path><path clip-path="url(#clip790)" d="M202.593 1191.26 Q198.982 1191.26 197.153 1194.82 Q195.348 1198.37 195.348 1205.5 Q195.348 1212.6 197.153 1216.17 Q198.982 1219.71 202.593 1219.71 Q206.227 1219.71 208.033 1216.17 Q209.861 1212.6 209.861 1205.5 Q209.861 1198.37 208.033 1194.82 Q206.227 1191.26 202.593 1191.26 M202.593 1187.56 Q208.403 1187.56 211.459 1192.16 Q214.537 1196.75 214.537 1205.5 Q214.537 1214.22 211.459 1218.83 Q208.403 1223.41 202.593 1223.41 Q196.783 1223.41 193.704 1218.83 Q190.649 1214.22 190.649 1205.5 Q190.649 1196.75 193.704 1192.16 Q196.783 1187.56 202.593 1187.56 Z" fill="#000000" fill-rule="nonzero" fill-opacity="1"></path><path clip-path="url(#clip790)" d="M222.801 1188.18 L241.158 1188.18 L241.158 1192.12 L227.084 1192.12 L227.084 1200.59 Q228.102 1200.24 229.121 1200.08 Q230.139 1199.89 231.158 1199.89 Q236.945 1199.89 240.324 1203.07 Q243.704 1206.24 243.704 1211.65 Q243.704 1217.23 240.232 1220.33 Q236.76 1223.41 230.44 1223.41 Q228.264 1223.41 225.996 1223.04 Q223.75 1222.67 221.343 1221.93 L221.343 1217.23 Q223.426 1218.37 225.648 1218.92 Q227.871 1219.48 230.347 1219.48 Q234.352 1219.48 236.69 1217.37 Q239.028 1215.26 239.028 1211.65 Q239.028 1208.04 236.69 1205.94 Q234.352 1203.83 230.347 1203.83 Q228.473 1203.83 226.598 1204.25 Q224.746 1204.66 222.801 1205.54 L222.801 1188.18 Z" fill="#000000" fill-rule="nonzero" fill-opacity="1"></path><path clip-path="url(#clip790)" d="M126.205 988.838 Q122.593 988.838 120.765 992.403 Q118.959 995.945 118.959 1003.07 Q118.959 1010.18 120.765 1013.75 Q122.593 1017.29 126.205 1017.29 Q129.839 1017.29 131.644 1013.75 Q133.473 1010.18 133.473 1003.07 Q133.473 995.945 131.644 992.403 Q129.839 988.838 126.205 988.838 M126.205 985.135 Q132.015 985.135 135.07 989.741 Q138.149 994.324 138.149 1003.07 Q138.149 1011.8 135.07 1016.41 Q132.015 1020.99 126.205 1020.99 Q120.394 1020.99 117.316 1016.41 Q114.26 1011.8 114.26 1003.07 Q114.26 994.324 117.316 989.741 Q120.394 985.135 126.205 985.135 Z" fill="#000000" fill-rule="nonzero" fill-opacity="1"></path><path clip-path="url(#clip790)" d="M146.366 1014.44 L151.251 1014.44 L151.251 1020.32 L146.366 1020.32 L146.366 1014.44 Z" fill="#000000" fill-rule="nonzero" fill-opacity="1"></path><path clip-path="url(#clip790)" d="M171.436 988.838 Q167.825 988.838 165.996 992.403 Q164.19 995.945 164.19 1003.07 Q164.19 1010.18 165.996 1013.75 Q167.825 1017.29 171.436 1017.29 Q175.07 1017.29 176.876 1013.75 Q178.704 1010.18 178.704 1003.07 Q178.704 995.945 176.876 992.403 Q175.07 988.838 171.436 988.838 M171.436 985.135 Q177.246 985.135 180.301 989.741 Q183.38 994.324 183.38 1003.07 Q183.38 1011.8 180.301 1016.41 Q177.246 1020.99 171.436 1020.99 Q165.626 1020.99 162.547 1016.41 Q159.491 1011.8 159.491 1003.07 Q159.491 994.324 162.547 989.741 Q165.626 985.135 171.436 985.135 Z" fill="#000000" fill-rule="nonzero" fill-opacity="1"></path><path clip-path="url(#clip790)" d="M192.408 1016.38 L200.047 1016.38 L200.047 990.019 L191.737 991.685 L191.737 987.426 L200 985.76 L204.676 985.76 L204.676 1016.38 L212.315 1016.38 L212.315 1020.32 L192.408 1020.32 L192.408 1016.38 Z" fill="#000000" fill-rule="nonzero" fill-opacity="1"></path><path clip-path="url(#clip790)" d="M231.76 988.838 Q228.148 988.838 226.32 992.403 Q224.514 995.945 224.514 1003.07 Q224.514 1010.18 226.32 1013.75 Q228.148 1017.29 231.76 1017.29 Q235.394 1017.29 237.199 1013.75 Q239.028 1010.18 239.028 1003.07 Q239.028 995.945 237.199 992.403 Q235.394 988.838 231.76 988.838 M231.76 985.135 Q237.57 985.135 240.625 989.741 Q243.704 994.324 243.704 1003.07 Q243.704 1011.8 240.625 1016.41 Q237.57 1020.99 231.76 1020.99 Q225.949 1020.99 222.871 1016.41 Q219.815 1011.8 219.815 1003.07 Q219.815 994.324 222.871 989.741 Q225.949 985.135 231.76 985.135 Z" fill="#000000" fill-rule="nonzero" fill-opacity="1"></path><path clip-path="url(#clip790)" d="M127.2 786.417 Q123.589 786.417 121.76 789.981 Q119.955 793.523 119.955 800.653 Q119.955 807.759 121.76 811.324 Q123.589 814.865 127.2 814.865 Q130.834 814.865 132.64 811.324 Q134.468 807.759 134.468 800.653 Q134.468 793.523 132.64 789.981 Q130.834 786.417 127.2 786.417 M127.2 782.713 Q133.01 782.713 136.066 787.319 Q139.144 791.903 139.144 800.653 Q139.144 809.379 136.066 813.986 Q133.01 818.569 127.2 818.569 Q121.39 818.569 118.311 813.986 Q115.256 809.379 115.256 800.653 Q115.256 791.903 118.311 787.319 Q121.39 782.713 127.2 782.713 Z" fill="#000000" fill-rule="nonzero" fill-opacity="1"></path><path clip-path="url(#clip790)" d="M147.362 812.018 L152.246 812.018 L152.246 817.898 L147.362 817.898 L147.362 812.018 Z" fill="#000000" fill-rule="nonzero" fill-opacity="1"></path><path clip-path="url(#clip790)" d="M172.431 786.417 Q168.82 786.417 166.991 789.981 Q165.186 793.523 165.186 800.653 Q165.186 807.759 166.991 811.324 Q168.82 814.865 172.431 814.865 Q176.065 814.865 177.871 811.324 Q179.7 807.759 179.7 800.653 Q179.7 793.523 177.871 789.981 Q176.065 786.417 172.431 786.417 M172.431 782.713 Q178.241 782.713 181.297 787.319 Q184.376 791.903 184.376 800.653 Q184.376 809.379 181.297 813.986 Q178.241 818.569 172.431 818.569 Q166.621 818.569 163.542 813.986 Q160.487 809.379 160.487 800.653 Q160.487 791.903 163.542 787.319 Q166.621 782.713 172.431 782.713 Z" fill="#000000" fill-rule="nonzero" fill-opacity="1"></path><path clip-path="url(#clip790)" d="M193.403 813.963 L201.042 813.963 L201.042 787.597 L192.732 789.264 L192.732 785.005 L200.996 783.338 L205.672 783.338 L205.672 813.963 L213.311 813.963 L213.311 817.898 L193.403 817.898 L193.403 813.963 Z" fill="#000000" fill-rule="nonzero" fill-opacity="1"></path><path clip-path="url(#clip790)" d="M222.801 783.338 L241.158 783.338 L241.158 787.273 L227.084 787.273 L227.084 795.745 Q228.102 795.398 229.121 795.236 Q230.139 795.051 231.158 795.051 Q236.945 795.051 240.324 798.222 Q243.704 801.393 243.704 806.81 Q243.704 812.389 240.232 815.49 Q236.76 818.569 230.44 818.569 Q228.264 818.569 225.996 818.199 Q223.75 817.828 221.343 817.088 L221.343 812.389 Q223.426 813.523 225.648 814.078 Q227.871 814.634 230.347 814.634 Q234.352 814.634 236.69 812.528 Q239.028 810.421 239.028 806.81 Q239.028 803.199 236.69 801.092 Q234.352 798.986 230.347 798.986 Q228.473 798.986 226.598 799.403 Q224.746 799.819 222.801 800.699 L222.801 783.338 Z" fill="#000000" fill-rule="nonzero" fill-opacity="1"></path><path clip-path="url(#clip790)" d="M126.205 583.995 Q122.593 583.995 120.765 587.56 Q118.959 591.101 118.959 598.231 Q118.959 605.337 120.765 608.902 Q122.593 612.444 126.205 612.444 Q129.839 612.444 131.644 608.902 Q133.473 605.337 133.473 598.231 Q133.473 591.101 131.644 587.56 Q129.839 583.995 126.205 583.995 M126.205 580.291 Q132.015 580.291 135.07 584.898 Q138.149 589.481 138.149 598.231 Q138.149 606.958 135.07 611.564 Q132.015 616.147 126.205 616.147 Q120.394 616.147 117.316 611.564 Q114.26 606.958 114.26 598.231 Q114.26 589.481 117.316 584.898 Q120.394 580.291 126.205 580.291 Z" fill="#000000" fill-rule="nonzero" fill-opacity="1"></path><path clip-path="url(#clip790)" d="M146.366 609.597 L151.251 609.597 L151.251 615.476 L146.366 615.476 L146.366 609.597 Z" fill="#000000" fill-rule="nonzero" fill-opacity="1"></path><path clip-path="url(#clip790)" d="M171.436 583.995 Q167.825 583.995 165.996 587.56 Q164.19 591.101 164.19 598.231 Q164.19 605.337 165.996 608.902 Q167.825 612.444 171.436 612.444 Q175.07 612.444 176.876 608.902 Q178.704 605.337 178.704 598.231 Q178.704 591.101 176.876 587.56 Q175.07 583.995 171.436 583.995 M171.436 580.291 Q177.246 580.291 180.301 584.898 Q183.38 589.481 183.38 598.231 Q183.38 606.958 180.301 611.564 Q177.246 616.147 171.436 616.147 Q165.626 616.147 162.547 611.564 Q159.491 606.958 159.491 598.231 Q159.491 589.481 162.547 584.898 Q165.626 580.291 171.436 580.291 Z" fill="#000000" fill-rule="nonzero" fill-opacity="1"></path><path clip-path="url(#clip790)" d="M195.625 611.541 L211.945 611.541 L211.945 615.476 L190 615.476 L190 611.541 Q192.663 608.786 197.246 604.157 Q201.852 599.504 203.033 598.161 Q205.278 595.638 206.158 593.902 Q207.061 592.143 207.061 590.453 Q207.061 587.699 205.116 585.962 Q203.195 584.226 200.093 584.226 Q197.894 584.226 195.44 584.99 Q193.01 585.754 190.232 587.305 L190.232 582.583 Q193.056 581.449 195.51 580.87 Q197.963 580.291 200 580.291 Q205.371 580.291 208.565 582.976 Q211.76 585.662 211.76 590.152 Q211.76 592.282 210.949 594.203 Q210.162 596.101 208.056 598.694 Q207.477 599.365 204.375 602.583 Q201.274 605.777 195.625 611.541 Z" fill="#000000" fill-rule="nonzero" fill-opacity="1"></path><path clip-path="url(#clip790)" d="M231.76 583.995 Q228.148 583.995 226.32 587.56 Q224.514 591.101 224.514 598.231 Q224.514 605.337 226.32 608.902 Q228.148 612.444 231.76 612.444 Q235.394 612.444 237.199 608.902 Q239.028 605.337 239.028 598.231 Q239.028 591.101 237.199 587.56 Q235.394 583.995 231.76 583.995 M231.76 580.291 Q237.57 580.291 240.625 584.898 Q243.704 589.481 243.704 598.231 Q243.704 606.958 240.625 611.564 Q237.57 616.147 231.76 616.147 Q225.949 616.147 222.871 611.564 Q219.815 606.958 219.815 598.231 Q219.815 589.481 222.871 584.898 Q225.949 580.291 231.76 580.291 Z" fill="#000000" fill-rule="nonzero" fill-opacity="1"></path><path clip-path="url(#clip790)" d="M127.2 381.573 Q123.589 381.573 121.76 385.138 Q119.955 388.68 119.955 395.809 Q119.955 402.916 121.76 406.48 Q123.589 410.022 127.2 410.022 Q130.834 410.022 132.64 406.48 Q134.468 402.916 134.468 395.809 Q134.468 388.68 132.64 385.138 Q130.834 381.573 127.2 381.573 M127.2 377.87 Q133.01 377.87 136.066 382.476 Q139.144 387.059 139.144 395.809 Q139.144 404.536 136.066 409.142 Q133.01 413.726 127.2 413.726 Q121.39 413.726 118.311 409.142 Q115.256 404.536 115.256 395.809 Q115.256 387.059 118.311 382.476 Q121.39 377.87 127.2 377.87 Z" fill="#000000" fill-rule="nonzero" fill-opacity="1"></path><path clip-path="url(#clip790)" d="M147.362 407.175 L152.246 407.175 L152.246 413.055 L147.362 413.055 L147.362 407.175 Z" fill="#000000" fill-rule="nonzero" fill-opacity="1"></path><path clip-path="url(#clip790)" d="M172.431 381.573 Q168.82 381.573 166.991 385.138 Q165.186 388.68 165.186 395.809 Q165.186 402.916 166.991 406.48 Q168.82 410.022 172.431 410.022 Q176.065 410.022 177.871 406.48 Q179.7 402.916 179.7 395.809 Q179.7 388.68 177.871 385.138 Q176.065 381.573 172.431 381.573 M172.431 377.87 Q178.241 377.87 181.297 382.476 Q184.376 387.059 184.376 395.809 Q184.376 404.536 181.297 409.142 Q178.241 413.726 172.431 413.726 Q166.621 413.726 163.542 409.142 Q160.487 404.536 160.487 395.809 Q160.487 387.059 163.542 382.476 Q166.621 377.87 172.431 377.87 Z" fill="#000000" fill-rule="nonzero" fill-opacity="1"></path><path clip-path="url(#clip790)" d="M196.621 409.119 L212.94 409.119 L212.94 413.055 L190.996 413.055 L190.996 409.119 Q193.658 406.365 198.241 401.735 Q202.848 397.082 204.028 395.74 Q206.274 393.217 207.153 391.481 Q208.056 389.721 208.056 388.031 Q208.056 385.277 206.112 383.541 Q204.19 381.805 201.088 381.805 Q198.889 381.805 196.436 382.569 Q194.005 383.332 191.227 384.883 L191.227 380.161 Q194.051 379.027 196.505 378.448 Q198.959 377.87 200.996 377.87 Q206.366 377.87 209.561 380.555 Q212.755 383.24 212.755 387.731 Q212.755 389.86 211.945 391.781 Q211.158 393.68 209.051 396.272 Q208.473 396.943 205.371 400.161 Q202.269 403.355 196.621 409.119 Z" fill="#000000" fill-rule="nonzero" fill-opacity="1"></path><path clip-path="url(#clip790)" d="M222.801 378.495 L241.158 378.495 L241.158 382.43 L227.084 382.43 L227.084 390.902 Q228.102 390.555 229.121 390.393 Q230.139 390.207 231.158 390.207 Q236.945 390.207 240.324 393.379 Q243.704 396.55 243.704 401.967 Q243.704 407.545 240.232 410.647 Q236.76 413.726 230.44 413.726 Q228.264 413.726 225.996 413.355 Q223.75 412.985 221.343 412.244 L221.343 407.545 Q223.426 408.68 225.648 409.235 Q227.871 409.791 230.347 409.791 Q234.352 409.791 236.69 407.684 Q239.028 405.578 239.028 401.967 Q239.028 398.356 236.69 396.249 Q234.352 394.143 230.347 394.143 Q228.473 394.143 226.598 394.559 Q224.746 394.976 222.801 395.856 L222.801 378.495 Z" fill="#000000" fill-rule="nonzero" fill-opacity="1"></path><path clip-path="url(#clip790)" d="M126.205 179.152 Q122.593 179.152 120.765 182.716 Q118.959 186.258 118.959 193.388 Q118.959 200.494 120.765 204.059 Q122.593 207.6 126.205 207.6 Q129.839 207.6 131.644 204.059 Q133.473 200.494 133.473 193.388 Q133.473 186.258 131.644 182.716 Q129.839 179.152 126.205 179.152 M126.205 175.448 Q132.015 175.448 135.07 180.054 Q138.149 184.638 138.149 193.388 Q138.149 202.114 135.07 206.721 Q132.015 211.304 126.205 211.304 Q120.394 211.304 117.316 206.721 Q114.26 202.114 114.26 193.388 Q114.26 184.638 117.316 180.054 Q120.394 175.448 126.205 175.448 Z" fill="#000000" fill-rule="nonzero" fill-opacity="1"></path><path clip-path="url(#clip790)" d="M146.366 204.753 L151.251 204.753 L151.251 210.633 L146.366 210.633 L146.366 204.753 Z" fill="#000000" fill-rule="nonzero" fill-opacity="1"></path><path clip-path="url(#clip790)" d="M171.436 179.152 Q167.825 179.152 165.996 182.716 Q164.19 186.258 164.19 193.388 Q164.19 200.494 165.996 204.059 Q167.825 207.6 171.436 207.6 Q175.07 207.6 176.876 204.059 Q178.704 200.494 178.704 193.388 Q178.704 186.258 176.876 182.716 Q175.07 179.152 171.436 179.152 M171.436 175.448 Q177.246 175.448 180.301 180.054 Q183.38 184.638 183.38 193.388 Q183.38 202.114 180.301 206.721 Q177.246 211.304 171.436 211.304 Q165.626 211.304 162.547 206.721 Q159.491 202.114 159.491 193.388 Q159.491 184.638 162.547 180.054 Q165.626 175.448 171.436 175.448 Z" fill="#000000" fill-rule="nonzero" fill-opacity="1"></path><path clip-path="url(#clip790)" d="M205.764 191.999 Q209.121 192.716 210.996 194.985 Q212.894 197.253 212.894 200.587 Q212.894 205.702 209.375 208.503 Q205.857 211.304 199.375 211.304 Q197.2 211.304 194.885 210.864 Q192.593 210.448 190.139 209.591 L190.139 205.077 Q192.084 206.212 194.399 206.79 Q196.713 207.369 199.237 207.369 Q203.635 207.369 205.926 205.633 Q208.241 203.897 208.241 200.587 Q208.241 197.531 206.088 195.818 Q203.959 194.082 200.139 194.082 L196.112 194.082 L196.112 190.239 L200.325 190.239 Q203.774 190.239 205.602 188.874 Q207.431 187.485 207.431 184.892 Q207.431 182.23 205.533 180.818 Q203.658 179.383 200.139 179.383 Q198.218 179.383 196.019 179.8 Q193.82 180.216 191.181 181.096 L191.181 176.929 Q193.843 176.189 196.158 175.818 Q198.496 175.448 200.556 175.448 Q205.88 175.448 208.982 177.878 Q212.084 180.286 212.084 184.406 Q212.084 187.276 210.44 189.267 Q208.797 191.235 205.764 191.999 Z" fill="#000000" fill-rule="nonzero" fill-opacity="1"></path><path clip-path="url(#clip790)" d="M231.76 179.152 Q228.148 179.152 226.32 182.716 Q224.514 186.258 224.514 193.388 Q224.514 200.494 226.32 204.059 Q228.148 207.6 231.76 207.6 Q235.394 207.6 237.199 204.059 Q239.028 200.494 239.028 193.388 Q239.028 186.258 237.199 182.716 Q235.394 179.152 231.76 179.152 M231.76 175.448 Q237.57 175.448 240.625 180.054 Q243.704 184.638 243.704 193.388 Q243.704 202.114 240.625 206.721 Q237.57 211.304 231.76 211.304 Q225.949 211.304 222.871 206.721 Q219.815 202.114 219.815 193.388 Q219.815 184.638 222.871 180.054 Q225.949 175.448 231.76 175.448 Z" fill="#000000" fill-rule="nonzero" fill-opacity="1"></path><path clip-path="url(#clip790)" d="M46.0847 1080.41 Q46.0847 1087.51 47.7079 1090.25 Q49.3312 1092.98 53.2461 1092.98 Q56.3653 1092.98 58.2114 1090.95 Q60.0256 1088.88 60.0256 1085.34 Q60.0256 1080.47 56.5881 1077.55 Q53.1188 1074.59 47.3897 1074.59 L46.0847 1074.59 L46.0847 1080.41 M43.6657 1068.73 L64.0042 1068.73 L64.0042 1074.59 L58.5933 1074.59 Q61.8398 1076.59 63.3994 1079.58 Q64.9272 1082.58 64.9272 1086.9 Q64.9272 1092.38 61.8716 1095.62 Q58.7843 1098.84 53.6281 1098.84 Q47.6125 1098.84 44.5569 1094.83 Q41.5014 1090.79 41.5014 1082.8 L41.5014 1074.59 L40.9285 1074.59 Q36.8862 1074.59 34.6901 1077.26 Q32.4621 1079.9 32.4621 1084.71 Q32.4621 1087.76 33.1941 1090.66 Q33.9262 1093.56 35.3903 1096.23 L29.9795 1096.23 Q28.7381 1093.01 28.1334 1089.99 Q27.4968 1086.97 27.4968 1084.1 Q27.4968 1076.37 31.5072 1072.55 Q35.5176 1068.73 43.6657 1068.73 Z" fill="#000000" fill-rule="nonzero" fill-opacity="1"></path><path clip-path="url(#clip790)" d="M28.3562 1060.87 L28.3562 1054.66 L58.275 1043.52 L28.3562 1032.38 L28.3562 1026.17 L64.0042 1039.54 L64.0042 1047.5 L28.3562 1060.87 Z" fill="#000000" fill-rule="nonzero" fill-opacity="1"></path><path clip-path="url(#clip790)" d="M44.7161 987.599 L47.5806 987.599 L47.5806 1014.53 Q53.6281 1014.14 56.8109 1010.9 Q59.9619 1007.62 59.9619 1001.79 Q59.9619 998.42 59.1344 995.269 Q58.3069 992.087 56.6518 988.967 L62.1899 988.967 Q63.5267 992.118 64.227 995.429 Q64.9272 998.739 64.9272 1002.14 Q64.9272 1010.67 59.9619 1015.67 Q54.9967 1020.64 46.5303 1020.64 Q37.7774 1020.64 32.6531 1015.93 Q27.4968 1011.18 27.4968 1003.16 Q27.4968 995.97 32.1438 991.8 Q36.7589 987.599 44.7161 987.599 M42.9973 993.455 Q38.1912 993.519 35.3266 996.161 Q32.4621 998.771 32.4621 1003.1 Q32.4621 1008 35.2312 1010.96 Q38.0002 1013.89 43.0292 1014.33 L42.9973 993.455 Z" fill="#000000" fill-rule="nonzero" fill-opacity="1"></path><path clip-path="url(#clip790)" d="M33.8307 957.33 Q33.2578 958.316 33.0032 959.494 Q32.7167 960.64 32.7167 962.04 Q32.7167 967.006 35.9632 969.679 Q39.1779 972.321 45.2253 972.321 L64.0042 972.321 L64.0042 978.209 L28.3562 978.209 L28.3562 972.321 L33.8944 972.321 Q30.6479 970.475 29.0883 967.515 Q27.4968 964.555 27.4968 960.322 Q27.4968 959.717 27.5923 958.985 Q27.656 958.253 27.8151 957.362 L33.8307 957.33 Z" fill="#000000" fill-rule="nonzero" fill-opacity="1"></path><path clip-path="url(#clip790)" d="M46.0847 934.986 Q46.0847 942.084 47.7079 944.821 Q49.3312 947.558 53.2461 947.558 Q56.3653 947.558 58.2114 945.521 Q60.0256 943.453 60.0256 939.92 Q60.0256 935.05 56.5881 932.122 Q53.1188 929.162 47.3897 929.162 L46.0847 929.162 L46.0847 934.986 M43.6657 923.305 L64.0042 923.305 L64.0042 929.162 L58.5933 929.162 Q61.8398 931.167 63.3994 934.159 Q64.9272 937.151 64.9272 941.479 Q64.9272 946.954 61.8716 950.2 Q58.7843 953.415 53.6281 953.415 Q47.6125 953.415 44.5569 949.405 Q41.5014 945.362 41.5014 937.373 L41.5014 929.162 L40.9285 929.162 Q36.8862 929.162 34.6901 931.835 Q32.4621 934.477 32.4621 939.283 Q32.4621 942.339 33.1941 945.235 Q33.9262 948.131 35.3903 950.805 L29.9795 950.805 Q28.7381 947.59 28.1334 944.567 Q27.4968 941.543 27.4968 938.678 Q27.4968 930.944 31.5072 927.125 Q35.5176 923.305 43.6657 923.305 Z" fill="#000000" fill-rule="nonzero" fill-opacity="1"></path><path clip-path="url(#clip790)" d="M45.7664 887.784 Q39.4007 887.784 35.8996 890.426 Q32.3984 893.036 32.3984 897.779 Q32.3984 902.489 35.8996 905.131 Q39.4007 907.741 45.7664 907.741 Q52.1003 907.741 55.6014 905.131 Q59.1026 902.489 59.1026 897.779 Q59.1026 893.036 55.6014 890.426 Q52.1003 887.784 45.7664 887.784 M59.58 881.928 Q68.683 881.928 73.1071 885.97 Q77.5631 890.012 77.5631 898.352 Q77.5631 901.439 77.0857 904.176 Q76.6401 906.913 75.6852 909.492 L69.9879 909.492 Q71.3884 906.913 72.0568 904.399 Q72.7252 901.885 72.7252 899.275 Q72.7252 893.514 69.7015 890.649 Q66.7096 887.784 60.6303 887.784 L57.7339 887.784 Q60.885 889.599 62.4446 892.431 Q64.0042 895.264 64.0042 899.211 Q64.0042 905.768 59.0071 909.778 Q54.01 913.788 45.7664 913.788 Q37.491 913.788 32.4939 909.778 Q27.4968 905.768 27.4968 899.211 Q27.4968 895.264 29.0564 892.431 Q30.616 889.599 33.7671 887.784 L28.3562 887.784 L28.3562 881.928 L59.58 881.928 Z" fill="#000000" fill-rule="nonzero" fill-opacity="1"></path><path clip-path="url(#clip790)" d="M44.7161 839.373 L47.5806 839.373 L47.5806 866.3 Q53.6281 865.918 56.8109 862.672 Q59.9619 859.393 59.9619 853.569 Q59.9619 850.195 59.1344 847.044 Q58.3069 843.861 56.6518 840.742 L62.1899 840.742 Q63.5267 843.893 64.227 847.203 Q64.9272 850.513 64.9272 853.919 Q64.9272 862.449 59.9619 867.446 Q54.9967 872.411 46.5303 872.411 Q37.7774 872.411 32.6531 867.701 Q27.4968 862.958 27.4968 854.937 Q27.4968 847.744 32.1438 843.575 Q36.7589 839.373 44.7161 839.373 M42.9973 845.23 Q38.1912 845.293 35.3266 847.935 Q32.4621 850.545 32.4621 854.874 Q32.4621 859.775 35.2312 862.735 Q38.0002 865.664 43.0292 866.109 L42.9973 845.23 Z" fill="#000000" fill-rule="nonzero" fill-opacity="1"></path><path clip-path="url(#clip790)" d="M33.8307 788.384 Q33.2578 789.371 33.0032 790.548 Q32.7167 791.694 32.7167 793.095 Q32.7167 798.06 35.9632 800.733 Q39.1779 803.375 45.2253 803.375 L64.0042 803.375 L64.0042 809.263 L28.3562 809.263 L28.3562 803.375 L33.8944 803.375 Q30.6479 801.529 29.0883 798.569 Q27.4968 795.609 27.4968 791.376 Q27.4968 790.771 27.5923 790.039 Q27.656 789.307 27.8151 788.416 L33.8307 788.384 Z" fill="#000000" fill-rule="nonzero" fill-opacity="1"></path><path clip-path="url(#clip790)" d="M44.7161 753.182 L47.5806 753.182 L47.5806 780.109 Q53.6281 779.727 56.8109 776.48 Q59.9619 773.202 59.9619 767.377 Q59.9619 764.003 59.1344 760.852 Q58.3069 757.669 56.6518 754.55 L62.1899 754.55 Q63.5267 757.701 64.227 761.011 Q64.9272 764.322 64.9272 767.727 Q64.9272 776.257 59.9619 781.254 Q54.9967 786.22 46.5303 786.22 Q37.7774 786.22 32.6531 781.509 Q27.4968 776.767 27.4968 768.746 Q27.4968 761.553 32.1438 757.383 Q36.7589 753.182 44.7161 753.182 M42.9973 759.038 Q38.1912 759.102 35.3266 761.743 Q32.4621 764.353 32.4621 768.682 Q32.4621 773.584 35.2312 776.544 Q38.0002 779.472 43.0292 779.918 L42.9973 759.038 Z" fill="#000000" fill-rule="nonzero" fill-opacity="1"></path><path clip-path="url(#clip790)" d="M14.479 743.569 L14.479 737.713 L64.0042 737.713 L64.0042 743.569 L14.479 743.569 Z" fill="#000000" fill-rule="nonzero" fill-opacity="1"></path><path clip-path="url(#clip790)" d="M46.0847 709.258 Q46.0847 716.356 47.7079 719.093 Q49.3312 721.83 53.2461 721.83 Q56.3653 721.83 58.2114 719.793 Q60.0256 717.725 60.0256 714.192 Q60.0256 709.322 56.5881 706.394 Q53.1188 703.434 47.3897 703.434 L46.0847 703.434 L46.0847 709.258 M43.6657 697.577 L64.0042 697.577 L64.0042 703.434 L58.5933 703.434 Q61.8398 705.439 63.3994 708.431 Q64.9272 711.423 64.9272 715.751 Q64.9272 721.226 61.8716 724.472 Q58.7843 727.687 53.6281 727.687 Q47.6125 727.687 44.5569 723.677 Q41.5014 719.634 41.5014 711.645 L41.5014 703.434 L40.9285 703.434 Q36.8862 703.434 34.6901 706.107 Q32.4621 708.749 32.4621 713.555 Q32.4621 716.611 33.1941 719.507 Q33.9262 722.403 35.3903 725.077 L29.9795 725.077 Q28.7381 721.862 28.1334 718.839 Q27.4968 715.815 27.4968 712.95 Q27.4968 705.216 31.5072 701.397 Q35.5176 697.577 43.6657 697.577 Z" fill="#000000" fill-rule="nonzero" fill-opacity="1"></path><path clip-path="url(#clip790)" d="M18.2347 679.721 L28.3562 679.721 L28.3562 667.658 L32.9077 667.658 L32.9077 679.721 L52.2594 679.721 Q56.6199 679.721 57.8613 678.544 Q59.1026 677.334 59.1026 673.674 L59.1026 667.658 L64.0042 667.658 L64.0042 673.674 Q64.0042 680.453 61.4897 683.032 Q58.9434 685.61 52.2594 685.61 L32.9077 685.61 L32.9077 689.906 L28.3562 689.906 L28.3562 685.61 L18.2347 685.61 L18.2347 679.721 Z" fill="#000000" fill-rule="nonzero" fill-opacity="1"></path><path clip-path="url(#clip790)" d="M28.3562 659.956 L28.3562 654.099 L64.0042 654.099 L64.0042 659.956 L28.3562 659.956 M14.479 659.956 L14.479 654.099 L21.895 654.099 L21.895 659.956 L14.479 659.956 Z" fill="#000000" fill-rule="nonzero" fill-opacity="1"></path><path clip-path="url(#clip790)" d="M28.3562 646.047 L28.3562 639.84 L58.275 628.7 L28.3562 617.56 L28.3562 611.354 L64.0042 624.722 L64.0042 632.679 L28.3562 646.047 Z" fill="#000000" fill-rule="nonzero" fill-opacity="1"></path><path clip-path="url(#clip790)" d="M44.7161 572.777 L47.5806 572.777 L47.5806 599.704 Q53.6281 599.322 56.8109 596.076 Q59.9619 592.798 59.9619 586.973 Q59.9619 583.599 59.1344 580.448 Q58.3069 577.265 56.6518 574.146 L62.1899 574.146 Q63.5267 577.297 64.227 580.607 Q64.9272 583.917 64.9272 587.323 Q64.9272 595.853 59.9619 600.85 Q54.9967 605.815 46.5303 605.815 Q37.7774 605.815 32.6531 601.105 Q27.4968 596.362 27.4968 588.342 Q27.4968 581.148 32.1438 576.979 Q36.7589 572.777 44.7161 572.777 M42.9973 578.634 Q38.1912 578.698 35.3266 581.339 Q32.4621 583.949 32.4621 588.278 Q32.4621 593.18 35.2312 596.14 Q38.0002 599.068 43.0292 599.513 L42.9973 578.634 Z" fill="#000000" fill-rule="nonzero" fill-opacity="1"></path><path clip-path="url(#clip790)" d="M44.7161 511.953 L47.5806 511.953 L47.5806 538.88 Q53.6281 538.498 56.8109 535.252 Q59.9619 531.973 59.9619 526.149 Q59.9619 522.775 59.1344 519.624 Q58.3069 516.441 56.6518 513.322 L62.1899 513.322 Q63.5267 516.473 64.227 519.783 Q64.9272 523.093 64.9272 526.499 Q64.9272 535.029 59.9619 540.026 Q54.9967 544.991 46.5303 544.991 Q37.7774 544.991 32.6531 540.281 Q27.4968 535.538 27.4968 527.517 Q27.4968 520.324 32.1438 516.155 Q36.7589 511.953 44.7161 511.953 M42.9973 517.81 Q38.1912 517.873 35.3266 520.515 Q32.4621 523.125 32.4621 527.454 Q32.4621 532.355 35.2312 535.315 Q38.0002 538.244 43.0292 538.689 L42.9973 517.81 Z" fill="#000000" fill-rule="nonzero" fill-opacity="1"></path><path clip-path="url(#clip790)" d="M33.8307 481.684 Q33.2578 482.671 33.0032 483.849 Q32.7167 484.994 32.7167 486.395 Q32.7167 491.36 35.9632 494.034 Q39.1779 496.675 45.2253 496.675 L64.0042 496.675 L64.0042 502.564 L28.3562 502.564 L28.3562 496.675 L33.8944 496.675 Q30.6479 494.829 29.0883 491.869 Q27.4968 488.909 27.4968 484.676 Q27.4968 484.071 27.5923 483.339 Q27.656 482.607 27.8151 481.716 L33.8307 481.684 Z" fill="#000000" fill-rule="nonzero" fill-opacity="1"></path><path clip-path="url(#clip790)" d="M33.8307 456.03 Q33.2578 457.017 33.0032 458.195 Q32.7167 459.341 32.7167 460.741 Q32.7167 465.706 35.9632 468.38 Q39.1779 471.022 45.2253 471.022 L64.0042 471.022 L64.0042 476.91 L28.3562 476.91 L28.3562 471.022 L33.8944 471.022 Q30.6479 469.176 29.0883 466.216 Q27.4968 463.255 27.4968 459.022 Q27.4968 458.418 27.5923 457.686 Q27.656 456.953 27.8151 456.062 L33.8307 456.03 Z" fill="#000000" fill-rule="nonzero" fill-opacity="1"></path><path clip-path="url(#clip790)" d="M32.4621 437.506 Q32.4621 442.217 36.1542 444.954 Q39.8145 447.691 46.212 447.691 Q52.6095 447.691 56.3017 444.986 Q59.9619 442.249 59.9619 437.506 Q59.9619 432.827 56.2698 430.09 Q52.5777 427.353 46.212 427.353 Q39.8781 427.353 36.186 430.09 Q32.4621 432.827 32.4621 437.506 M27.4968 437.506 Q27.4968 429.867 32.4621 425.507 Q37.4273 421.146 46.212 421.146 Q54.9649 421.146 59.9619 425.507 Q64.9272 429.867 64.9272 437.506 Q64.9272 445.177 59.9619 449.537 Q54.9649 453.866 46.212 453.866 Q37.4273 453.866 32.4621 449.537 Q27.4968 445.177 27.4968 437.506 Z" fill="#000000" fill-rule="nonzero" fill-opacity="1"></path><path clip-path="url(#clip790)" d="M33.8307 390.782 Q33.2578 391.769 33.0032 392.946 Q32.7167 394.092 32.7167 395.493 Q32.7167 400.458 35.9632 403.131 Q39.1779 405.773 45.2253 405.773 L64.0042 405.773 L64.0042 411.661 L28.3562 411.661 L28.3562 405.773 L33.8944 405.773 Q30.6479 403.927 29.0883 400.967 Q27.4968 398.007 27.4968 393.774 Q27.4968 393.169 27.5923 392.437 Q27.656 391.705 27.8151 390.814 L33.8307 390.782 Z" fill="#000000" fill-rule="nonzero" fill-opacity="1"></path><path clip-path="url(#clip790)" d="M569.162 71.3202 L569.162 63.8666 Q572.241 65.3249 575.401 66.0946 Q578.56 66.8642 581.598 66.8642 Q589.7 66.8642 593.954 61.436 Q598.248 55.9673 598.855 44.8678 Q596.506 48.3516 592.9 50.215 Q589.295 52.0784 584.92 52.0784 Q575.846 52.0784 570.539 46.6097 Q565.273 41.1005 565.273 31.5808 Q565.273 22.2638 570.783 16.633 Q576.292 11.0023 585.447 11.0023 Q595.939 11.0023 601.448 19.0636 Q606.998 27.0843 606.998 42.3968 Q606.998 56.6965 600.192 65.2439 Q593.427 73.7508 581.963 73.7508 Q578.884 73.7508 575.725 73.1431 Q572.565 72.5355 569.162 71.3202 M585.447 45.678 Q590.956 45.678 594.156 41.9107 Q597.397 38.1433 597.397 31.5808 Q597.397 25.0589 594.156 21.2916 Q590.956 17.4837 585.447 17.4837 Q579.938 17.4837 576.697 21.2916 Q573.497 25.0589 573.497 31.5808 Q573.497 38.1433 576.697 41.9107 Q579.938 45.678 585.447 45.678 Z" fill="#000000" fill-rule="nonzero" fill-opacity="1"></path><path clip-path="url(#clip790)" d="M621.783 12.096 L653.907 12.096 L653.907 18.9825 L629.278 18.9825 L629.278 33.8088 Q631.06 33.2012 632.842 32.9176 Q634.625 32.5936 636.407 32.5936 Q646.534 32.5936 652.449 38.1433 Q658.363 43.6931 658.363 53.1722 Q658.363 62.9348 652.287 68.3631 Q646.21 73.7508 635.151 73.7508 Q631.344 73.7508 627.374 73.1026 Q623.444 72.4545 619.231 71.1582 L619.231 62.9348 Q622.877 64.9198 626.766 65.892 Q630.655 66.8642 634.989 66.8642 Q641.997 66.8642 646.089 63.1779 Q650.18 59.4916 650.18 53.1722 Q650.18 46.8528 646.089 43.1664 Q641.997 39.4801 634.989 39.4801 Q631.708 39.4801 628.427 40.2093 Q625.186 40.9384 621.783 42.4778 L621.783 12.096 Z" fill="#000000" fill-rule="nonzero" fill-opacity="1"></path><path clip-path="url(#clip790)" d="M694.457 27.2059 L702.356 27.2059 L716.534 65.2844 L730.712 27.2059 L738.611 27.2059 L721.598 72.576 L711.47 72.576 L694.457 27.2059 Z" fill="#000000" fill-rule="nonzero" fill-opacity="1"></path><path clip-path="url(#clip790)" d="M769.52 49.7694 Q760.486 49.7694 757.003 51.8354 Q753.519 53.9013 753.519 58.8839 Q753.519 62.8538 756.111 65.2034 Q758.744 67.5124 763.241 67.5124 Q769.439 67.5124 773.166 63.1374 Q776.933 58.7219 776.933 51.4303 L776.933 49.7694 L769.52 49.7694 M784.387 46.6907 L784.387 72.576 L776.933 72.576 L776.933 65.6895 Q774.381 69.8214 770.573 71.8063 Q766.765 73.7508 761.256 73.7508 Q754.288 73.7508 750.157 69.8619 Q746.065 65.9325 746.065 59.3701 Q746.065 51.7138 751.169 47.825 Q756.314 43.9361 766.482 43.9361 L776.933 43.9361 L776.933 43.2069 Q776.933 38.0623 773.53 35.2672 Q770.168 32.4315 764.051 32.4315 Q760.162 32.4315 756.476 33.3632 Q752.79 34.295 749.387 36.1584 L749.387 29.2718 Q753.478 27.692 757.327 26.9223 Q761.175 26.1121 764.821 26.1121 Q774.665 26.1121 779.526 31.2163 Q784.387 36.3204 784.387 46.6907 Z" fill="#000000" fill-rule="nonzero" fill-opacity="1"></path><path clip-path="url(#clip790)" d="M826.03 34.1734 Q824.774 33.4443 823.275 33.1202 Q821.817 32.7556 820.035 32.7556 Q813.715 32.7556 810.312 36.8875 Q806.95 40.9789 806.95 48.6757 L806.95 72.576 L799.456 72.576 L799.456 27.2059 L806.95 27.2059 L806.95 34.2544 Q809.3 30.1225 813.067 28.1376 Q816.834 26.1121 822.222 26.1121 Q822.992 26.1121 823.924 26.2337 Q824.855 26.3147 825.989 26.5172 L826.03 34.1734 Z" fill="#000000" fill-rule="nonzero" fill-opacity="1"></path><path clip-path="url(#clip790)" d="M833.848 27.2059 L841.302 27.2059 L841.302 72.576 L833.848 72.576 L833.848 27.2059 M833.848 9.54393 L841.302 9.54393 L841.302 18.9825 L833.848 18.9825 L833.848 9.54393 Z" fill="#000000" fill-rule="nonzero" fill-opacity="1"></path><path clip-path="url(#clip790)" d="M877.517 49.7694 Q868.483 49.7694 865 51.8354 Q861.516 53.9013 861.516 58.8839 Q861.516 62.8538 864.108 65.2034 Q866.742 67.5124 871.238 67.5124 Q877.436 67.5124 881.163 63.1374 Q884.93 58.7219 884.93 51.4303 L884.93 49.7694 L877.517 49.7694 M892.384 46.6907 L892.384 72.576 L884.93 72.576 L884.93 65.6895 Q882.378 69.8214 878.57 71.8063 Q874.762 73.7508 869.253 73.7508 Q862.286 73.7508 858.154 69.8619 Q854.062 65.9325 854.062 59.3701 Q854.062 51.7138 859.166 47.825 Q864.311 43.9361 874.479 43.9361 L884.93 43.9361 L884.93 43.2069 Q884.93 38.0623 881.527 35.2672 Q878.165 32.4315 872.048 32.4315 Q868.159 32.4315 864.473 33.3632 Q860.787 34.295 857.384 36.1584 L857.384 29.2718 Q861.475 27.692 865.324 26.9223 Q869.172 26.1121 872.818 26.1121 Q882.662 26.1121 887.523 31.2163 Q892.384 36.3204 892.384 46.6907 Z" fill="#000000" fill-rule="nonzero" fill-opacity="1"></path><path clip-path="url(#clip790)" d="M940.306 49.9314 Q940.306 41.7081 936.903 37.0496 Q933.541 32.3505 927.627 32.3505 Q921.712 32.3505 918.31 37.0496 Q914.947 41.7081 914.947 49.9314 Q914.947 58.1548 918.31 62.8538 Q921.712 67.5124 927.627 67.5124 Q933.541 67.5124 936.903 62.8538 Q940.306 58.1548 940.306 49.9314 M914.947 34.0924 Q917.297 30.0415 920.862 28.0971 Q924.467 26.1121 929.45 26.1121 Q937.713 26.1121 942.858 32.6746 Q948.043 39.2371 948.043 49.9314 Q948.043 60.6258 942.858 67.1883 Q937.713 73.7508 929.45 73.7508 Q924.467 73.7508 920.862 71.8063 Q917.297 69.8214 914.947 65.7705 L914.947 72.576 L907.453 72.576 L907.453 9.54393 L914.947 9.54393 L914.947 34.0924 Z" fill="#000000" fill-rule="nonzero" fill-opacity="1"></path><path clip-path="url(#clip790)" d="M960.398 9.54393 L967.852 9.54393 L967.852 72.576 L960.398 72.576 L960.398 9.54393 Z" fill="#000000" fill-rule="nonzero" fill-opacity="1"></path><path clip-path="url(#clip790)" d="M1022.26 48.0275 L1022.26 51.6733 L987.985 51.6733 Q988.471 59.3701 992.603 63.421 Q996.776 67.4314 1004.19 67.4314 Q1008.48 67.4314 1012.49 66.3781 Q1016.54 65.3249 1020.51 63.2184 L1020.51 70.267 Q1016.5 71.9684 1012.29 72.8596 Q1008.08 73.7508 1003.74 73.7508 Q992.887 73.7508 986.527 67.4314 Q980.207 61.1119 980.207 50.3365 Q980.207 39.1965 986.203 32.6746 Q992.239 26.1121 1002.45 26.1121 Q1011.6 26.1121 1016.91 32.0264 Q1022.26 37.9003 1022.26 48.0275 M1014.8 45.84 Q1014.72 39.7232 1011.36 36.0774 Q1008.04 32.4315 1002.53 32.4315 Q996.289 32.4315 992.522 35.9558 Q988.795 39.4801 988.228 45.8805 L1014.8 45.84 Z" fill="#000000" fill-rule="nonzero" fill-opacity="1"></path><path clip-path="url(#clip790)" d="M1063.41 28.5427 L1063.41 35.5912 Q1060.25 33.9709 1056.85 33.1607 Q1053.45 32.3505 1049.8 32.3505 Q1044.25 32.3505 1041.46 34.0519 Q1038.7 35.7533 1038.7 39.156 Q1038.7 41.7486 1040.69 43.2475 Q1042.67 44.7058 1048.67 46.0426 L1051.22 46.6097 Q1059.16 48.3111 1062.48 51.4303 Q1065.84 54.509 1065.84 60.0587 Q1065.84 66.3781 1060.82 70.0644 Q1055.84 73.7508 1047.09 73.7508 Q1043.44 73.7508 1039.47 73.0216 Q1035.54 72.3329 1031.17 70.9151 L1031.17 63.2184 Q1035.3 65.3654 1039.31 66.4591 Q1043.32 67.5124 1047.25 67.5124 Q1052.52 67.5124 1055.35 65.73 Q1058.19 63.9071 1058.19 60.6258 Q1058.19 57.5877 1056.12 55.9673 Q1054.1 54.3469 1047.17 52.8481 L1044.58 52.2405 Q1037.65 50.7821 1034.57 47.7845 Q1031.49 44.7463 1031.49 39.4801 Q1031.49 33.0797 1036.03 29.5959 Q1040.57 26.1121 1048.91 26.1121 Q1053.04 26.1121 1056.69 26.7198 Q1060.33 27.3274 1063.41 28.5427 Z" fill="#000000" fill-rule="nonzero" fill-opacity="1"></path><path clip-path="url(#clip790)" d="M1113.68 9.17935 L1113.68 92.1419 L1106.8 92.1419 L1106.8 9.17935 L1113.68 9.17935 Z" fill="#000000" fill-rule="nonzero" fill-opacity="1"></path><path clip-path="url(#clip790)" d="M1184.25 39.9662 Q1190.13 41.222 1193.41 45.1919 Q1196.73 49.1618 1196.73 54.9951 Q1196.73 63.9476 1190.57 68.8492 Q1184.41 73.7508 1173.07 73.7508 Q1169.26 73.7508 1165.21 72.9811 Q1161.2 72.2519 1156.91 70.7531 L1156.91 62.8538 Q1160.31 64.8388 1164.36 65.8515 Q1168.41 66.8642 1172.83 66.8642 Q1180.52 66.8642 1184.54 63.826 Q1188.59 60.7879 1188.59 54.9951 Q1188.59 49.6479 1184.82 46.6502 Q1181.09 43.612 1174.41 43.612 L1167.36 43.612 L1167.36 36.8875 L1174.73 36.8875 Q1180.77 36.8875 1183.97 34.4975 Q1187.17 32.067 1187.17 27.5299 Q1187.17 22.8714 1183.85 20.4004 Q1180.57 17.8888 1174.41 17.8888 Q1171.05 17.8888 1167.2 18.618 Q1163.35 19.3471 1158.73 20.8865 L1158.73 13.5948 Q1163.39 12.2985 1167.44 11.6504 Q1171.53 11.0023 1175.14 11.0023 Q1184.45 11.0023 1189.88 15.2557 Q1195.31 19.4686 1195.31 26.6793 Q1195.31 31.7024 1192.43 35.1862 Q1189.56 38.6294 1184.25 39.9662 Z" fill="#000000" fill-rule="nonzero" fill-opacity="1"></path><path clip-path="url(#clip790)" d="M1255.14 32.4315 Q1249.15 32.4315 1245.66 37.1306 Q1242.18 41.7891 1242.18 49.9314 Q1242.18 58.0738 1245.62 62.7728 Q1249.11 67.4314 1255.14 67.4314 Q1261.1 67.4314 1264.58 62.7323 Q1268.06 58.0333 1268.06 49.9314 Q1268.06 41.8701 1264.58 37.1711 Q1261.1 32.4315 1255.14 32.4315 M1255.14 26.1121 Q1264.86 26.1121 1270.41 32.4315 Q1275.96 38.7509 1275.96 49.9314 Q1275.96 61.0714 1270.41 67.4314 Q1264.86 73.7508 1255.14 73.7508 Q1245.38 73.7508 1239.83 67.4314 Q1234.32 61.0714 1234.32 49.9314 Q1234.32 38.7509 1239.83 32.4315 Q1245.38 26.1121 1255.14 26.1121 Z" fill="#000000" fill-rule="nonzero" fill-opacity="1"></path><path clip-path="url(#clip790)" d="M1320.89 49.9314 Q1320.89 41.7081 1317.49 37.0496 Q1314.12 32.3505 1308.21 32.3505 Q1302.29 32.3505 1298.89 37.0496 Q1295.53 41.7081 1295.53 49.9314 Q1295.53 58.1548 1298.89 62.8538 Q1302.29 67.5124 1308.21 67.5124 Q1314.12 67.5124 1317.49 62.8538 Q1320.89 58.1548 1320.89 49.9314 M1295.53 34.0924 Q1297.88 30.0415 1301.44 28.0971 Q1305.05 26.1121 1310.03 26.1121 Q1318.3 26.1121 1323.44 32.6746 Q1328.63 39.2371 1328.63 49.9314 Q1328.63 60.6258 1323.44 67.1883 Q1318.3 73.7508 1310.03 73.7508 Q1305.05 73.7508 1301.44 71.8063 Q1297.88 69.8214 1295.53 65.7705 L1295.53 72.576 L1288.04 72.576 L1288.04 9.54393 L1295.53 9.54393 L1295.53 34.0924 Z" fill="#000000" fill-rule="nonzero" fill-opacity="1"></path><path clip-path="url(#clip790)" d="M1340.98 27.2059 L1348.43 27.2059 L1348.43 73.3862 Q1348.43 82.0551 1345.11 85.944 Q1341.83 89.8329 1334.5 89.8329 L1331.66 89.8329 L1331.66 83.5134 L1333.65 83.5134 Q1337.9 83.5134 1339.44 81.5285 Q1340.98 79.5841 1340.98 73.3862 L1340.98 27.2059 M1340.98 9.54393 L1348.43 9.54393 L1348.43 18.9825 L1340.98 18.9825 L1340.98 9.54393 Z" fill="#000000" fill-rule="nonzero" fill-opacity="1"></path><path clip-path="url(#clip790)" d="M1402.84 48.0275 L1402.84 51.6733 L1368.57 51.6733 Q1369.05 59.3701 1373.19 63.421 Q1377.36 67.4314 1384.77 67.4314 Q1389.07 67.4314 1393.08 66.3781 Q1397.13 65.3249 1401.1 63.2184 L1401.1 70.267 Q1397.09 71.9684 1392.87 72.8596 Q1388.66 73.7508 1384.33 73.7508 Q1373.47 73.7508 1367.11 67.4314 Q1360.79 61.1119 1360.79 50.3365 Q1360.79 39.1965 1366.79 32.6746 Q1372.82 26.1121 1383.03 26.1121 Q1392.18 26.1121 1397.49 32.0264 Q1402.84 37.9003 1402.84 48.0275 M1395.38 45.84 Q1395.3 39.7232 1391.94 36.0774 Q1388.62 32.4315 1383.11 32.4315 Q1376.87 32.4315 1373.1 35.9558 Q1369.38 39.4801 1368.81 45.8805 L1395.38 45.84 Z" fill="#000000" fill-rule="nonzero" fill-opacity="1"></path><path clip-path="url(#clip790)" d="M1447.72 28.9478 L1447.72 35.9153 Q1444.56 34.1734 1441.36 33.3227 Q1438.2 32.4315 1434.96 32.4315 Q1427.71 32.4315 1423.7 37.0496 Q1419.69 41.6271 1419.69 49.9314 Q1419.69 58.2358 1423.7 62.8538 Q1427.71 67.4314 1434.96 67.4314 Q1438.2 67.4314 1441.36 66.5807 Q1444.56 65.6895 1447.72 63.9476 L1447.72 70.8341 Q1444.6 72.2924 1441.24 73.0216 Q1437.92 73.7508 1434.15 73.7508 Q1423.9 73.7508 1417.87 67.3098 Q1411.83 60.8689 1411.83 49.9314 Q1411.83 38.832 1417.91 32.472 Q1424.02 26.1121 1434.64 26.1121 Q1438.08 26.1121 1441.36 26.8413 Q1444.64 27.5299 1447.72 28.9478 Z" fill="#000000" fill-rule="nonzero" fill-opacity="1"></path><path clip-path="url(#clip790)" d="M1468.06 14.324 L1468.06 27.2059 L1483.41 27.2059 L1483.41 32.9987 L1468.06 32.9987 L1468.06 57.6282 Q1468.06 63.1779 1469.56 64.7578 Q1471.1 66.3376 1475.75 66.3376 L1483.41 66.3376 L1483.41 72.576 L1475.75 72.576 Q1467.13 72.576 1463.84 69.3758 Q1460.56 66.1351 1460.56 57.6282 L1460.56 32.9987 L1455.09 32.9987 L1455.09 27.2059 L1460.56 27.2059 L1460.56 14.324 L1468.06 14.324 Z" fill="#000000" fill-rule="nonzero" fill-opacity="1"></path><path clip-path="url(#clip790)" d="M1493.21 27.2059 L1500.67 27.2059 L1500.67 72.576 L1493.21 72.576 L1493.21 27.2059 M1493.21 9.54393 L1500.67 9.54393 L1500.67 18.9825 L1493.21 18.9825 L1493.21 9.54393 Z" fill="#000000" fill-rule="nonzero" fill-opacity="1"></path><path clip-path="url(#clip790)" d="M1510.92 27.2059 L1518.82 27.2059 L1532.99 65.2844 L1547.17 27.2059 L1555.07 27.2059 L1538.06 72.576 L1527.93 72.576 L1510.92 27.2059 Z" fill="#000000" fill-rule="nonzero" fill-opacity="1"></path><path clip-path="url(#clip790)" d="M1604.17 48.0275 L1604.17 51.6733 L1569.9 51.6733 Q1570.38 59.3701 1574.52 63.421 Q1578.69 67.4314 1586.1 67.4314 Q1590.4 67.4314 1594.41 66.3781 Q1598.46 65.3249 1602.43 63.2184 L1602.43 70.267 Q1598.42 71.9684 1594.2 72.8596 Q1589.99 73.7508 1585.66 73.7508 Q1574.8 73.7508 1568.44 67.4314 Q1562.12 61.1119 1562.12 50.3365 Q1562.12 39.1965 1568.12 32.6746 Q1574.15 26.1121 1584.36 26.1121 Q1593.51 26.1121 1598.82 32.0264 Q1604.17 37.9003 1604.17 48.0275 M1596.71 45.84 Q1596.63 39.7232 1593.27 36.0774 Q1589.95 32.4315 1584.44 32.4315 Q1578.2 32.4315 1574.43 35.9558 Q1570.71 39.4801 1570.14 45.8805 L1596.71 45.84 Z" fill="#000000" fill-rule="nonzero" fill-opacity="1"></path><path clip-path="url(#clip790)" d="M1645.33 28.5427 L1645.33 35.5912 Q1642.17 33.9709 1638.76 33.1607 Q1635.36 32.3505 1631.71 32.3505 Q1626.16 32.3505 1623.37 34.0519 Q1620.61 35.7533 1620.61 39.156 Q1620.61 41.7486 1622.6 43.2475 Q1624.58 44.7058 1630.58 46.0426 L1633.13 46.6097 Q1641.07 48.3111 1644.39 51.4303 Q1647.76 54.509 1647.76 60.0587 Q1647.76 66.3781 1642.73 70.0644 Q1637.75 73.7508 1629 73.7508 Q1625.35 73.7508 1621.38 73.0216 Q1617.46 72.3329 1613.08 70.9151 L1613.08 63.2184 Q1617.21 65.3654 1621.22 66.4591 Q1625.23 67.5124 1629.16 67.5124 Q1634.43 67.5124 1637.26 65.73 Q1640.1 63.9071 1640.1 60.6258 Q1640.1 57.5877 1638.03 55.9673 Q1636.01 54.3469 1629.08 52.8481 L1626.49 52.2405 Q1619.56 50.7821 1616.48 47.7845 Q1613.4 44.7463 1613.4 39.4801 Q1613.4 33.0797 1617.94 29.5959 Q1622.48 26.1121 1630.82 26.1121 Q1634.96 26.1121 1638.6 26.7198 Q1642.25 27.3274 1645.33 28.5427 Z" fill="#000000" fill-rule="nonzero" fill-opacity="1"></path><path clip-path="url(#clip790)" d="M1695.6 9.17935 L1695.6 92.1419 L1688.71 92.1419 L1688.71 9.17935 L1695.6 9.17935 Z" fill="#000000" fill-rule="nonzero" fill-opacity="1"></path><path clip-path="url(#clip790)" d="M1748.42 65.6895 L1776.98 65.6895 L1776.98 72.576 L1738.58 72.576 L1738.58 65.6895 Q1743.24 60.8689 1751.26 52.7671 Q1759.32 44.6248 1761.38 42.2752 Q1765.31 37.8598 1766.85 34.8216 Q1768.43 31.7429 1768.43 28.7857 Q1768.43 23.9651 1765.03 20.927 Q1761.67 17.8888 1756.24 17.8888 Q1752.39 17.8888 1748.1 19.2256 Q1743.84 20.5624 1738.98 23.2765 L1738.98 15.0127 Q1743.92 13.0277 1748.22 12.015 Q1752.51 11.0023 1756.08 11.0023 Q1765.48 11.0023 1771.07 15.7013 Q1776.66 20.4004 1776.66 28.2591 Q1776.66 31.9859 1775.24 35.3482 Q1773.86 38.6699 1770.17 43.2069 Q1769.16 44.3817 1763.73 50.0125 Q1758.31 55.6027 1748.42 65.6895 Z" fill="#000000" fill-rule="nonzero" fill-opacity="1"></path><path clip-path="url(#clip790)" d="M1811.66 17.4837 Q1805.34 17.4837 1802.14 23.7221 Q1798.98 29.92 1798.98 42.3968 Q1798.98 54.833 1802.14 61.0714 Q1805.34 67.2693 1811.66 67.2693 Q1818.02 67.2693 1821.18 61.0714 Q1824.38 54.833 1824.38 42.3968 Q1824.38 29.92 1821.18 23.7221 Q1818.02 17.4837 1811.66 17.4837 M1811.66 11.0023 Q1821.82 11.0023 1827.17 19.0636 Q1832.56 27.0843 1832.56 42.3968 Q1832.56 57.6687 1827.17 65.73 Q1821.82 73.7508 1811.66 73.7508 Q1801.49 73.7508 1796.1 65.73 Q1790.75 57.6687 1790.75 42.3968 Q1790.75 27.0843 1796.1 19.0636 Q1801.49 11.0023 1811.66 11.0023 Z" fill="#000000" fill-rule="nonzero" fill-opacity="1"></path><path clip-path="url(#clip790)" d="M1879.63 14.324 L1879.63 27.2059 L1894.98 27.2059 L1894.98 32.9987 L1879.63 32.9987 L1879.63 57.6282 Q1879.63 63.1779 1881.13 64.7578 Q1882.67 66.3376 1887.33 66.3376 L1894.98 66.3376 L1894.98 72.576 L1887.33 72.576 Q1878.7 72.576 1875.42 69.3758 Q1872.14 66.1351 1872.14 57.6282 L1872.14 32.9987 L1866.67 32.9987 L1866.67 27.2059 L1872.14 27.2059 L1872.14 14.324 L1879.63 14.324 Z" fill="#000000" fill-rule="nonzero" fill-opacity="1"></path><path clip-path="url(#clip790)" d="M1931.08 34.1734 Q1929.82 33.4443 1928.32 33.1202 Q1926.86 32.7556 1925.08 32.7556 Q1918.76 32.7556 1915.36 36.8875 Q1912 40.9789 1912 48.6757 L1912 72.576 L1904.5 72.576 L1904.5 27.2059 L1912 27.2059 L1912 34.2544 Q1914.35 30.1225 1918.11 28.1376 Q1921.88 26.1121 1927.27 26.1121 Q1928.04 26.1121 1928.97 26.2337 Q1929.9 26.3147 1931.04 26.5172 L1931.08 34.1734 Z" fill="#000000" fill-rule="nonzero" fill-opacity="1"></path><path clip-path="url(#clip790)" d="M1938.89 27.2059 L1946.35 27.2059 L1946.35 72.576 L1938.89 72.576 L1938.89 27.2059 M1938.89 9.54393 L1946.35 9.54393 L1946.35 18.9825 L1938.89 18.9825 L1938.89 9.54393 Z" fill="#000000" fill-rule="nonzero" fill-opacity="1"></path><path clip-path="url(#clip790)" d="M1982.56 49.7694 Q1973.53 49.7694 1970.05 51.8354 Q1966.56 53.9013 1966.56 58.8839 Q1966.56 62.8538 1969.15 65.2034 Q1971.79 67.5124 1976.28 67.5124 Q1982.48 67.5124 1986.21 63.1374 Q1989.98 58.7219 1989.98 51.4303 L1989.98 49.7694 L1982.56 49.7694 M1997.43 46.6907 L1997.43 72.576 L1989.98 72.576 L1989.98 65.6895 Q1987.42 69.8214 1983.62 71.8063 Q1979.81 73.7508 1974.3 73.7508 Q1967.33 73.7508 1963.2 69.8619 Q1959.11 65.9325 1959.11 59.3701 Q1959.11 51.7138 1964.21 47.825 Q1969.36 43.9361 1979.52 43.9361 L1989.98 43.9361 L1989.98 43.2069 Q1989.98 38.0623 1986.57 35.2672 Q1983.21 32.4315 1977.09 32.4315 Q1973.21 32.4315 1969.52 33.3632 Q1965.83 34.295 1962.43 36.1584 L1962.43 29.2718 Q1966.52 27.692 1970.37 26.9223 Q1974.22 26.1121 1977.86 26.1121 Q1987.71 26.1121 1992.57 31.2163 Q1997.43 36.3204 1997.43 46.6907 Z" fill="#000000" fill-rule="nonzero" fill-opacity="1"></path><path clip-path="url(#clip790)" d="M2012.78 9.54393 L2020.24 9.54393 L2020.24 72.576 L2012.78 72.576 L2012.78 9.54393 Z" fill="#000000" fill-rule="nonzero" fill-opacity="1"></path><path clip-path="url(#clip790)" d="M2064.76 28.5427 L2064.76 35.5912 Q2061.6 33.9709 2058.19 33.1607 Q2054.79 32.3505 2051.14 32.3505 Q2045.6 32.3505 2042.8 34.0519 Q2040.05 35.7533 2040.05 39.156 Q2040.05 41.7486 2042.03 43.2475 Q2044.02 44.7058 2050.01 46.0426 L2052.56 46.6097 Q2060.5 48.3111 2063.82 51.4303 Q2067.19 54.509 2067.19 60.0587 Q2067.19 66.3781 2062.16 70.0644 Q2057.18 73.7508 2048.43 73.7508 Q2044.79 73.7508 2040.82 73.0216 Q2036.89 72.3329 2032.51 70.9151 L2032.51 63.2184 Q2036.64 65.3654 2040.65 66.4591 Q2044.66 67.5124 2048.59 67.5124 Q2053.86 67.5124 2056.69 65.73 Q2059.53 63.9071 2059.53 60.6258 Q2059.53 57.5877 2057.46 55.9673 Q2055.44 54.3469 2048.51 52.8481 L2045.92 52.2405 Q2038.99 50.7821 2035.91 47.7845 Q2032.83 44.7463 2032.83 39.4801 Q2032.83 33.0797 2037.37 29.5959 Q2041.91 26.1121 2050.25 26.1121 Q2054.39 26.1121 2058.03 26.7198 Q2061.68 27.3274 2064.76 28.5427 Z" fill="#000000" fill-rule="nonzero" fill-opacity="1"></path><polyline clip-path="url(#clip792)" style="stroke:#009af9; stroke-linecap:round; stroke-linejoin:round; stroke-width:8; stroke-opacity:1; fill:none" points="338.375,158.642 417.394,796.056 516.167,1097.15 614.94,1090.28 713.713,1162.95 1306.35,1251.33 2294.08,1330.98 "></polyline>
<circle clip-path="url(#clip792)" cx="338.375" cy="158.642" r="14.4" fill="#009af9" fill-rule="evenodd" fill-opacity="1" stroke="#000000" stroke-opacity="1" stroke-width="3.2"></circle>
<circle clip-path="url(#clip792)" cx="417.394" cy="796.056" r="14.4" fill="#009af9" fill-rule="evenodd" fill-opacity="1" stroke="#000000" stroke-opacity="1" stroke-width="3.2"></circle>
<circle clip-path="url(#clip792)" cx="516.167" cy="1097.15" r="14.4" fill="#009af9" fill-rule="evenodd" fill-opacity="1" stroke="#000000" stroke-opacity="1" stroke-width="3.2"></circle>
<circle clip-path="url(#clip792)" cx="614.94" cy="1090.28" r="14.4" fill="#009af9" fill-rule="evenodd" fill-opacity="1" stroke="#000000" stroke-opacity="1" stroke-width="3.2"></circle>
<circle clip-path="url(#clip792)" cx="713.713" cy="1162.95" r="14.4" fill="#009af9" fill-rule="evenodd" fill-opacity="1" stroke="#000000" stroke-opacity="1" stroke-width="3.2"></circle>
<circle clip-path="url(#clip792)" cx="1306.35" cy="1251.33" r="14.4" fill="#009af9" fill-rule="evenodd" fill-opacity="1" stroke="#000000" stroke-opacity="1" stroke-width="3.2"></circle>
<circle clip-path="url(#clip792)" cx="2294.08" cy="1330.98" r="14.4" fill="#009af9" fill-rule="evenodd" fill-opacity="1" stroke="#000000" stroke-opacity="1" stroke-width="3.2"></circle>
</svg>