<svg xmlns="http://www.w3.org/2000/svg" xmlns:xlink="http://www.w3.org/1999/xlink" width="600" height="400" viewBox="0 0 2400 1600">
<defs>
  <clipPath id="clip590">
    <rect x="0" y="0" width="2400" height="1600"></rect>
  </clipPath>
</defs>
<path clip-path="url(#clip590)" d="M0 1600 L2400 1600 L2400 8.88178e-14 L0 8.88178e-14  Z" fill="#ffffff" fill-rule="evenodd" fill-opacity="1"></path>
<defs>
  <clipPath id="clip591">
    <rect x="480" y="0" width="1681" height="1600"></rect>
  </clipPath>
</defs>
<path clip-path="url(#clip590)" d="M279.704 1366.15 L2352.76 1366.15 L2352.76 123.472 L279.704 123.472  Z" fill="#ffffff" fill-rule="evenodd" fill-opacity="1"></path>
<defs>
  <clipPath id="clip592">
    <rect x="279" y="123" width="2074" height="1244"></rect>
  </clipPath>
</defs>
<polyline clip-path="url(#clip592)" style="stroke:#000000; stroke-linecap:round; stroke-linejoin:round; stroke-width:2; stroke-opacity:0.1; fill:none" points="338.375,1366.15 338.375,123.472 "></polyline>
<polyline clip-path="url(#clip592)" style="stroke:#000000; stroke-linecap:round; stroke-linejoin:round; stroke-width:2; stroke-opacity:0.1; fill:none" points="417.394,1366.15 417.394,123.472 "></polyline>
<polyline clip-path="url(#clip592)" style="stroke:#000000; stroke-linecap:round; stroke-linejoin:round; stroke-width:2; stroke-opacity:0.1; fill:none" points="516.167,1366.15 516.167,123.472 "></polyline>
<polyline clip-path="url(#clip592)" style="stroke:#000000; stroke-linecap:round; stroke-linejoin:round; stroke-width:2; stroke-opacity:0.1; fill:none" points="614.94,1366.15 614.94,123.472 "></polyline>
<polyline clip-path="url(#clip592)" style="stroke:#000000; stroke-linecap:round; stroke-linejoin:round; stroke-width:2; stroke-opacity:0.1; fill:none" points="713.713,1366.15 713.713,123.472 "></polyline>
<polyline clip-path="url(#clip592)" style="stroke:#000000; stroke-linecap:round; stroke-linejoin:round; stroke-width:2; stroke-opacity:0.1; fill:none" points="1306.35,1366.15 1306.35,123.472 "></polyline>
<polyline clip-path="url(#clip592)" style="stroke:#000000; stroke-linecap:round; stroke-linejoin:round; stroke-width:2; stroke-opacity:0.1; fill:none" points="2294.08,1366.15 2294.08,123.472 "></polyline>
<polyline clip-path="url(#clip592)" style="stroke:#000000; stroke-linecap:round; stroke-linejoin:round; stroke-width:2; stroke-opacity:0.1; fill:none" points="279.704,1210.74 2352.76,1210.74 "></polyline>
<polyline clip-path="url(#clip592)" style="stroke:#000000; stroke-linecap:round; stroke-linejoin:round; stroke-width:2; stroke-opacity:0.1; fill:none" points="279.704,935.002 2352.76,935.002 "></polyline>
<polyline clip-path="url(#clip592)" style="stroke:#000000; stroke-linecap:round; stroke-linejoin:round; stroke-width:2; stroke-opacity:0.1; fill:none" points="279.704,659.267 2352.76,659.267 "></polyline>
<polyline clip-path="url(#clip592)" style="stroke:#000000; stroke-linecap:round; stroke-linejoin:round; stroke-width:2; stroke-opacity:0.1; fill:none" points="279.704,383.533 2352.76,383.533 "></polyline>
<polyline clip-path="url(#clip590)" style="stroke:#000000; stroke-linecap:round; stroke-linejoin:round; stroke-width:4; stroke-opacity:1; fill:none" points="279.704,1366.15 2352.76,1366.15 "></polyline>
<polyline clip-path="url(#clip590)" style="stroke:#000000; stroke-linecap:round; stroke-linejoin:round; stroke-width:4; stroke-opacity:1; fill:none" points="338.375,1366.15 338.375,1347.25 "></polyline>
<polyline clip-path="url(#clip590)" style="stroke:#000000; stroke-linecap:round; stroke-linejoin:round; stroke-width:4; stroke-opacity:1; fill:none" points="417.394,1366.15 417.394,1347.25 "></polyline>
<polyline clip-path="url(#clip590)" style="stroke:#000000; stroke-linecap:round; stroke-linejoin:round; stroke-width:4; stroke-opacity:1; fill:none" points="516.167,1366.15 516.167,1347.25 "></polyline>
<polyline clip-path="url(#clip590)" style="stroke:#000000; stroke-linecap:round; stroke-linejoin:round; stroke-width:4; stroke-opacity:1; fill:none" points="614.94,1366.15 614.94,1347.25 "></polyline>
<polyline clip-path="url(#clip590)" style="stroke:#000000; stroke-linecap:round; stroke-linejoin:round; stroke-width:4; stroke-opacity:1; fill:none" points="713.713,1366.15 713.713,1347.25 "></polyline>
<polyline clip-path="url(#clip590)" style="stroke:#000000; stroke-linecap:round; stroke-linejoin:round; stroke-width:4; stroke-opacity:1; fill:none" points="1306.35,1366.15 1306.35,1347.25 "></polyline>
<polyline clip-path="url(#clip590)" style="stroke:#000000; stroke-linecap:round; stroke-linejoin:round; stroke-width:4; stroke-opacity:1; fill:none" points="2294.08,1366.15 2294.08,1347.25 "></polyline>
<path clip-path="url(#clip590)" d="M290.212 1470.71 L295.613 1465.31 L276.97 1446.67 L272.273 1453.72 L269.261 1450.71 L273.926 1443.69 L277.232 1440.38 L298.887 1462.04 L304.289 1456.64 L307.071 1459.42 L292.995 1473.5 L290.212 1470.71 Z" fill="#000000" fill-rule="nonzero" fill-opacity="1"></path><path clip-path="url(#clip590)" d="M298.56 1423.41 Q296.006 1425.96 297.234 1429.78 Q298.462 1433.56 303.503 1438.6 Q308.528 1443.62 312.325 1444.87 Q316.123 1446.08 318.676 1443.53 Q321.246 1440.96 320.018 1437.17 Q318.791 1433.36 313.766 1428.34 Q308.724 1423.29 304.927 1422.08 Q301.13 1420.84 298.56 1423.41 M295.941 1420.79 Q300.049 1416.68 305.467 1417.78 Q310.885 1418.84 317.072 1425.03 Q323.243 1431.2 324.323 1436.63 Q325.403 1442.04 321.295 1446.14 Q317.187 1450.25 311.769 1449.19 Q306.351 1448.09 300.18 1441.92 Q293.993 1435.73 292.913 1430.33 Q291.832 1424.9 295.941 1420.79 Z" fill="#000000" fill-rule="nonzero" fill-opacity="1"></path><path clip-path="url(#clip590)" d="M319.887 1402.08 Q317.334 1404.64 318.562 1408.45 Q319.789 1412.23 324.831 1417.27 Q329.856 1422.3 333.653 1423.54 Q337.45 1424.75 340.004 1422.2 Q342.574 1419.63 341.346 1415.85 Q340.118 1412.03 335.093 1407.01 Q330.052 1401.97 326.255 1400.76 Q322.457 1399.51 319.887 1402.08 M317.268 1399.46 Q321.377 1395.35 326.795 1396.45 Q332.213 1397.51 338.4 1403.7 Q344.571 1409.87 345.651 1415.31 Q346.731 1420.71 342.623 1424.82 Q338.514 1428.93 333.096 1427.86 Q327.679 1426.76 321.508 1420.59 Q315.321 1414.41 314.24 1409.01 Q313.16 1403.57 317.268 1399.46 Z" fill="#000000" fill-rule="nonzero" fill-opacity="1"></path><path clip-path="url(#clip590)" d="M347.035 1449.6 L360.015 1436.62 L362.798 1439.4 L352.846 1449.35 L358.837 1455.34 Q359.311 1454.38 359.917 1453.54 Q360.506 1452.69 361.227 1451.97 Q365.319 1447.88 369.951 1447.73 Q374.583 1447.58 378.413 1451.42 Q382.358 1455.36 382.096 1460.01 Q381.818 1464.64 377.349 1469.11 Q375.811 1470.65 373.945 1471.99 Q372.095 1473.32 369.869 1474.49 L366.546 1471.17 Q368.821 1470.5 370.786 1469.32 Q372.75 1468.14 374.501 1466.39 Q377.333 1463.56 377.496 1460.42 Q377.66 1457.27 375.107 1454.72 Q372.553 1452.17 369.411 1452.33 Q366.268 1452.5 363.436 1455.33 Q362.11 1456.65 361.079 1458.27 Q360.064 1459.88 359.311 1461.87 L347.035 1449.6 Z" fill="#000000" fill-rule="nonzero" fill-opacity="1"></path><path clip-path="url(#clip590)" d="M377.578 1423.41 Q375.025 1425.96 376.252 1429.78 Q377.48 1433.56 382.521 1438.6 Q387.546 1443.62 391.344 1444.87 Q395.141 1446.08 397.695 1443.53 Q400.265 1440.96 399.037 1437.17 Q397.809 1433.36 392.784 1428.34 Q387.743 1423.29 383.945 1422.08 Q380.148 1420.84 377.578 1423.41 M374.959 1420.79 Q379.068 1416.68 384.486 1417.78 Q389.903 1418.84 396.091 1425.03 Q402.261 1431.2 403.342 1436.63 Q404.422 1442.04 400.314 1446.14 Q396.205 1450.25 390.787 1449.19 Q385.37 1448.09 379.199 1441.92 Q373.012 1435.73 371.931 1430.33 Q370.851 1424.9 374.959 1420.79 Z" fill="#000000" fill-rule="nonzero" fill-opacity="1"></path><path clip-path="url(#clip590)" d="M398.906 1402.08 Q396.353 1404.64 397.58 1408.45 Q398.808 1412.23 403.849 1417.27 Q408.874 1422.3 412.672 1423.54 Q416.469 1424.75 419.022 1422.2 Q421.592 1419.63 420.365 1415.85 Q419.137 1412.03 414.112 1407.01 Q409.071 1401.97 405.273 1400.76 Q401.476 1399.51 398.906 1402.08 M396.287 1399.46 Q400.395 1395.35 405.813 1396.45 Q411.231 1397.51 417.418 1403.7 Q423.589 1409.87 424.669 1415.31 Q425.75 1420.71 421.641 1424.82 Q417.533 1428.93 412.115 1427.86 Q406.697 1426.76 400.526 1420.59 Q394.339 1414.41 393.259 1409.01 Q392.179 1403.57 396.287 1399.46 Z" fill="#000000" fill-rule="nonzero" fill-opacity="1"></path><path clip-path="url(#clip590)" d="M446.676 1492.04 L452.078 1486.64 L433.434 1468 L428.737 1475.05 L425.725 1472.04 L430.39 1465.02 L433.696 1461.71 L455.351 1483.37 L460.753 1477.96 L463.535 1480.75 L449.459 1494.82 L446.676 1492.04 Z" fill="#000000" fill-rule="nonzero" fill-opacity="1"></path><path clip-path="url(#clip590)" d="M455.024 1444.74 Q452.47 1447.29 453.698 1451.1 Q454.926 1454.89 459.967 1459.93 Q464.992 1464.95 468.789 1466.2 Q472.587 1467.41 475.14 1464.85 Q477.71 1462.28 476.482 1458.5 Q475.255 1454.69 470.23 1449.66 Q465.188 1444.62 461.391 1443.41 Q457.594 1442.17 455.024 1444.74 M452.405 1442.12 Q456.513 1438.01 461.931 1439.11 Q467.349 1440.17 473.536 1446.36 Q479.707 1452.53 480.787 1457.96 Q481.868 1463.36 477.759 1467.47 Q473.651 1471.58 468.233 1470.52 Q462.815 1469.42 456.644 1463.25 Q450.457 1457.06 449.377 1451.66 Q448.297 1446.23 452.405 1442.12 Z" fill="#000000" fill-rule="nonzero" fill-opacity="1"></path><path clip-path="url(#clip590)" d="M476.351 1423.41 Q473.798 1425.96 475.026 1429.78 Q476.253 1433.56 481.295 1438.6 Q486.32 1443.62 490.117 1444.87 Q493.914 1446.08 496.468 1443.53 Q499.038 1440.96 497.81 1437.17 Q496.582 1433.36 491.557 1428.34 Q486.516 1423.29 482.719 1422.08 Q478.921 1420.84 476.351 1423.41 M473.733 1420.79 Q477.841 1416.68 483.259 1417.78 Q488.677 1418.84 494.864 1425.03 Q501.035 1431.2 502.115 1436.63 Q503.195 1442.04 499.087 1446.14 Q494.978 1450.25 489.561 1449.19 Q484.143 1448.09 477.972 1441.92 Q471.785 1435.73 470.704 1430.33 Q469.624 1424.9 473.733 1420.79 Z" fill="#000000" fill-rule="nonzero" fill-opacity="1"></path><path clip-path="url(#clip590)" d="M497.679 1402.08 Q495.126 1404.64 496.353 1408.45 Q497.581 1412.23 502.622 1417.27 Q507.647 1422.3 511.445 1423.54 Q515.242 1424.75 517.796 1422.2 Q520.365 1419.63 519.138 1415.85 Q517.91 1412.03 512.885 1407.01 Q507.844 1401.97 504.046 1400.76 Q500.249 1399.51 497.679 1402.08 M495.06 1399.46 Q499.169 1395.35 504.587 1396.45 Q510.004 1397.51 516.192 1403.7 Q522.362 1409.87 523.443 1415.31 Q524.523 1420.71 520.414 1424.82 Q516.306 1428.93 510.888 1427.86 Q505.47 1426.76 499.3 1420.59 Q493.112 1414.41 492.032 1409.01 Q490.952 1403.57 495.06 1399.46 Z" fill="#000000" fill-rule="nonzero" fill-opacity="1"></path><path clip-path="url(#clip590)" d="M545.449 1492.04 L550.851 1486.64 L532.207 1468 L527.51 1475.05 L524.498 1472.04 L529.163 1465.02 L532.469 1461.71 L554.124 1483.37 L559.526 1477.96 L562.308 1480.75 L548.232 1494.82 L545.449 1492.04 Z" fill="#000000" fill-rule="nonzero" fill-opacity="1"></path><path clip-path="url(#clip590)" d="M544.582 1449.6 L557.562 1436.62 L560.344 1439.4 L550.392 1449.35 L556.383 1455.34 Q556.858 1454.38 557.463 1453.54 Q558.053 1452.69 558.773 1451.97 Q562.865 1447.88 567.497 1447.73 Q572.129 1447.58 575.959 1451.42 Q579.904 1455.36 579.642 1460.01 Q579.364 1464.64 574.896 1469.11 Q573.357 1470.65 571.491 1471.99 Q569.641 1473.32 567.415 1474.49 L564.093 1471.17 Q566.368 1470.5 568.332 1469.32 Q570.296 1468.14 572.047 1466.39 Q574.879 1463.56 575.043 1460.42 Q575.207 1457.27 572.653 1454.72 Q570.1 1452.17 566.957 1452.33 Q563.814 1452.5 560.983 1455.33 Q559.657 1456.65 558.626 1458.27 Q557.611 1459.88 556.858 1461.87 L544.582 1449.6 Z" fill="#000000" fill-rule="nonzero" fill-opacity="1"></path><path clip-path="url(#clip590)" d="M575.125 1423.41 Q572.571 1425.96 573.799 1429.78 Q575.026 1433.56 580.068 1438.6 Q585.093 1443.62 588.89 1444.87 Q592.688 1446.08 595.241 1443.53 Q597.811 1440.96 596.583 1437.17 Q595.356 1433.36 590.331 1428.34 Q585.289 1423.29 581.492 1422.08 Q577.694 1420.84 575.125 1423.41 M572.506 1420.79 Q576.614 1416.68 582.032 1417.78 Q587.45 1418.84 593.637 1425.03 Q599.808 1431.2 600.888 1436.63 Q601.968 1442.04 597.86 1446.14 Q593.752 1450.25 588.334 1449.19 Q582.916 1448.09 576.745 1441.92 Q570.558 1435.73 569.478 1430.33 Q568.397 1424.9 572.506 1420.79 Z" fill="#000000" fill-rule="nonzero" fill-opacity="1"></path><path clip-path="url(#clip590)" d="M596.452 1402.08 Q593.899 1404.64 595.127 1408.45 Q596.354 1412.23 601.396 1417.27 Q606.421 1422.3 610.218 1423.54 Q614.015 1424.75 616.569 1422.2 Q619.139 1419.63 617.911 1415.85 Q616.683 1412.03 611.658 1407.01 Q606.617 1401.97 602.82 1400.76 Q599.022 1399.51 596.452 1402.08 M593.833 1399.46 Q597.942 1395.35 603.36 1396.45 Q608.778 1397.51 614.965 1403.7 Q621.135 1409.87 622.216 1415.31 Q623.296 1420.71 619.188 1424.82 Q615.079 1428.93 609.661 1427.86 Q604.244 1426.76 598.073 1420.59 Q591.886 1414.41 590.805 1409.01 Q589.725 1403.57 593.833 1399.46 Z" fill="#000000" fill-rule="nonzero" fill-opacity="1"></path><path clip-path="url(#clip590)" d="M646.498 1489.77 L658.037 1478.23 L660.82 1481.01 L645.303 1496.53 L642.52 1493.74 Q642.455 1489.91 642.422 1483.4 Q642.389 1476.85 642.275 1475.07 Q642.078 1471.7 641.473 1469.85 Q640.867 1467.96 639.672 1466.77 Q637.724 1464.82 635.122 1464.97 Q632.536 1465.1 630.342 1467.29 Q628.787 1468.85 627.592 1471.12 Q626.414 1473.38 625.546 1476.44 L622.207 1473.1 Q623.402 1470.3 624.728 1468.16 Q626.054 1466.02 627.494 1464.58 Q631.292 1460.78 635.449 1460.42 Q639.607 1460.06 642.782 1463.23 Q644.288 1464.74 645.074 1466.67 Q645.859 1468.57 646.203 1471.89 Q646.269 1472.78 646.35 1477.24 Q646.416 1481.7 646.498 1489.77 Z" fill="#000000" fill-rule="nonzero" fill-opacity="1"></path><path clip-path="url(#clip590)" d="M652.57 1444.74 Q650.017 1447.29 651.244 1451.1 Q652.472 1454.89 657.513 1459.93 Q662.538 1464.95 666.336 1466.2 Q670.133 1467.41 672.687 1464.85 Q675.256 1462.28 674.029 1458.5 Q672.801 1454.69 667.776 1449.66 Q662.735 1444.62 658.937 1443.41 Q655.14 1442.17 652.57 1444.74 M649.951 1442.12 Q654.06 1438.01 659.478 1439.11 Q664.895 1440.17 671.083 1446.36 Q677.253 1452.53 678.334 1457.96 Q679.414 1463.36 675.306 1467.47 Q671.197 1471.58 665.779 1470.52 Q660.361 1469.42 654.191 1463.25 Q648.004 1457.06 646.923 1451.66 Q645.843 1446.23 649.951 1442.12 Z" fill="#000000" fill-rule="nonzero" fill-opacity="1"></path><path clip-path="url(#clip590)" d="M673.898 1423.41 Q671.344 1425.96 672.572 1429.78 Q673.8 1433.56 678.841 1438.6 Q683.866 1443.62 687.663 1444.87 Q691.461 1446.08 694.014 1443.53 Q696.584 1440.96 695.357 1437.17 Q694.129 1433.36 689.104 1428.34 Q684.063 1423.29 680.265 1422.08 Q676.468 1420.84 673.898 1423.41 M671.279 1420.79 Q675.387 1416.68 680.805 1417.78 Q686.223 1418.84 692.41 1425.03 Q698.581 1431.2 699.661 1436.63 Q700.742 1442.04 696.633 1446.14 Q692.525 1450.25 687.107 1449.19 Q681.689 1448.09 675.518 1441.92 Q669.331 1435.73 668.251 1430.33 Q667.171 1424.9 671.279 1420.79 Z" fill="#000000" fill-rule="nonzero" fill-opacity="1"></path><path clip-path="url(#clip590)" d="M695.226 1402.08 Q692.672 1404.64 693.9 1408.45 Q695.127 1412.23 700.169 1417.27 Q705.194 1422.3 708.991 1423.54 Q712.789 1424.75 715.342 1422.2 Q717.912 1419.63 716.684 1415.85 Q715.457 1412.03 710.432 1407.01 Q705.39 1401.97 701.593 1400.76 Q697.795 1399.51 695.226 1402.08 M692.607 1399.46 Q696.715 1395.35 702.133 1396.45 Q707.551 1397.51 713.738 1403.7 Q719.909 1409.87 720.989 1415.31 Q722.069 1420.71 717.961 1424.82 Q713.852 1428.93 708.435 1427.86 Q703.017 1426.76 696.846 1420.59 Q690.659 1414.41 689.579 1409.01 Q688.498 1403.57 692.607 1399.46 Z" fill="#000000" fill-rule="nonzero" fill-opacity="1"></path><path clip-path="url(#clip590)" d="M1214.67 1470.93 L1227.65 1457.95 L1230.43 1460.73 L1220.48 1470.68 L1226.47 1476.67 Q1226.94 1475.71 1227.55 1474.87 Q1228.14 1474.02 1228.86 1473.3 Q1232.95 1469.21 1237.58 1469.06 Q1242.21 1468.91 1246.04 1472.74 Q1249.99 1476.69 1249.73 1481.34 Q1249.45 1485.97 1244.98 1490.44 Q1243.44 1491.98 1241.58 1493.32 Q1239.73 1494.64 1237.5 1495.82 L1234.18 1492.5 Q1236.45 1491.83 1238.42 1490.65 Q1240.38 1489.47 1242.13 1487.72 Q1244.96 1484.89 1245.13 1481.75 Q1245.29 1478.6 1242.74 1476.05 Q1240.18 1473.5 1237.04 1473.66 Q1233.9 1473.82 1231.07 1476.65 Q1229.74 1477.98 1228.71 1479.6 Q1227.7 1481.21 1226.94 1483.2 L1214.67 1470.93 Z" fill="#000000" fill-rule="nonzero" fill-opacity="1"></path><path clip-path="url(#clip590)" d="M1245.21 1444.74 Q1242.66 1447.29 1243.88 1451.1 Q1245.11 1454.89 1250.15 1459.93 Q1255.18 1464.95 1258.98 1466.2 Q1262.77 1467.41 1265.33 1464.85 Q1267.9 1462.28 1266.67 1458.5 Q1265.44 1454.69 1260.42 1449.66 Q1255.37 1444.62 1251.58 1443.41 Q1247.78 1442.17 1245.21 1444.74 M1242.59 1442.12 Q1246.7 1438.01 1252.12 1439.11 Q1257.53 1440.17 1263.72 1446.36 Q1269.89 1452.53 1270.97 1457.96 Q1272.05 1463.36 1267.94 1467.47 Q1263.84 1471.58 1258.42 1470.52 Q1253 1469.42 1246.83 1463.25 Q1240.64 1457.06 1239.56 1451.66 Q1238.48 1446.23 1242.59 1442.12 Z" fill="#000000" fill-rule="nonzero" fill-opacity="1"></path><path clip-path="url(#clip590)" d="M1266.54 1423.41 Q1263.98 1425.96 1265.21 1429.78 Q1266.44 1433.56 1271.48 1438.6 Q1276.51 1443.62 1280.3 1444.87 Q1284.1 1446.08 1286.65 1443.53 Q1289.22 1440.96 1288 1437.17 Q1286.77 1433.36 1281.74 1428.34 Q1276.7 1423.29 1272.9 1422.08 Q1269.11 1420.84 1266.54 1423.41 M1263.92 1420.79 Q1268.03 1416.68 1273.44 1417.78 Q1278.86 1418.84 1285.05 1425.03 Q1291.22 1431.2 1292.3 1436.63 Q1293.38 1442.04 1289.27 1446.14 Q1285.16 1450.25 1279.75 1449.19 Q1274.33 1448.09 1268.16 1441.92 Q1261.97 1435.73 1260.89 1430.33 Q1259.81 1424.9 1263.92 1420.79 Z" fill="#000000" fill-rule="nonzero" fill-opacity="1"></path><path clip-path="url(#clip590)" d="M1287.86 1402.08 Q1285.31 1404.64 1286.54 1408.45 Q1287.77 1412.23 1292.81 1417.27 Q1297.83 1422.3 1301.63 1423.54 Q1305.43 1424.75 1307.98 1422.2 Q1310.55 1419.63 1309.32 1415.85 Q1308.1 1412.03 1303.07 1407.01 Q1298.03 1401.97 1294.23 1400.76 Q1290.43 1399.51 1287.86 1402.08 M1285.25 1399.46 Q1289.35 1395.35 1294.77 1396.45 Q1300.19 1397.51 1306.38 1403.7 Q1312.55 1409.87 1313.63 1415.31 Q1314.71 1420.71 1310.6 1424.82 Q1306.49 1428.93 1301.07 1427.86 Q1295.66 1426.76 1289.49 1420.59 Q1283.3 1414.41 1282.22 1409.01 Q1281.14 1403.57 1285.25 1399.46 Z" fill="#000000" fill-rule="nonzero" fill-opacity="1"></path><path clip-path="url(#clip590)" d="M2203.27 1513.37 L2208.67 1507.97 L2190.02 1489.32 L2185.33 1496.38 L2182.31 1493.37 L2186.98 1486.34 L2190.29 1483.04 L2211.94 1504.69 L2217.34 1499.29 L2220.13 1502.07 L2206.05 1516.15 L2203.27 1513.37 Z" fill="#000000" fill-rule="nonzero" fill-opacity="1"></path><path clip-path="url(#clip590)" d="M2211.61 1466.06 Q2209.06 1468.62 2210.29 1472.43 Q2211.52 1476.21 2216.56 1481.25 Q2221.58 1486.28 2225.38 1487.52 Q2229.18 1488.73 2231.73 1486.18 Q2234.3 1483.61 2233.07 1479.83 Q2231.84 1476.02 2226.82 1470.99 Q2221.78 1465.95 2217.98 1464.74 Q2214.18 1463.49 2211.61 1466.06 M2208.99 1463.45 Q2213.1 1459.34 2218.52 1460.43 Q2223.94 1461.5 2230.13 1467.69 Q2236.3 1473.86 2237.38 1479.29 Q2238.46 1484.69 2234.35 1488.8 Q2230.24 1492.91 2224.82 1491.84 Q2219.41 1490.75 2213.23 1484.58 Q2207.05 1478.39 2205.97 1472.99 Q2204.89 1467.55 2208.99 1463.45 Z" fill="#000000" fill-rule="nonzero" fill-opacity="1"></path><path clip-path="url(#clip590)" d="M2232.94 1444.74 Q2230.39 1447.29 2231.62 1451.1 Q2232.84 1454.89 2237.88 1459.93 Q2242.91 1464.95 2246.71 1466.2 Q2250.5 1467.41 2253.06 1464.85 Q2255.63 1462.28 2254.4 1458.5 Q2253.17 1454.69 2248.15 1449.66 Q2243.11 1444.62 2239.31 1443.41 Q2235.51 1442.17 2232.94 1444.74 M2230.32 1442.12 Q2234.43 1438.01 2239.85 1439.11 Q2245.27 1440.17 2251.45 1446.36 Q2257.62 1452.53 2258.7 1457.96 Q2259.79 1463.36 2255.68 1467.47 Q2251.57 1471.58 2246.15 1470.52 Q2240.73 1469.42 2234.56 1463.25 Q2228.37 1457.06 2227.29 1451.66 Q2226.21 1446.23 2230.32 1442.12 Z" fill="#000000" fill-rule="nonzero" fill-opacity="1"></path><path clip-path="url(#clip590)" d="M2254.27 1423.41 Q2251.72 1425.96 2252.94 1429.78 Q2254.17 1433.56 2259.21 1438.6 Q2264.24 1443.62 2268.03 1444.87 Q2271.83 1446.08 2274.39 1443.53 Q2276.96 1440.96 2275.73 1437.17 Q2274.5 1433.36 2269.48 1428.34 Q2264.43 1423.29 2260.64 1422.08 Q2256.84 1420.84 2254.27 1423.41 M2251.65 1420.79 Q2255.76 1416.68 2261.18 1417.78 Q2266.59 1418.84 2272.78 1425.03 Q2278.95 1431.2 2280.03 1436.63 Q2281.11 1442.04 2277 1446.14 Q2272.9 1450.25 2267.48 1449.19 Q2262.06 1448.09 2255.89 1441.92 Q2249.7 1435.73 2248.62 1430.33 Q2247.54 1424.9 2251.65 1420.79 Z" fill="#000000" fill-rule="nonzero" fill-opacity="1"></path><path clip-path="url(#clip590)" d="M2275.6 1402.08 Q2273.04 1404.64 2274.27 1408.45 Q2275.5 1412.23 2280.54 1417.27 Q2285.57 1422.3 2289.36 1423.54 Q2293.16 1424.75 2295.71 1422.2 Q2298.28 1419.63 2297.06 1415.85 Q2295.83 1412.03 2290.8 1407.01 Q2285.76 1401.97 2281.96 1400.76 Q2278.17 1399.51 2275.6 1402.08 M2272.98 1399.46 Q2277.09 1395.35 2282.5 1396.45 Q2287.92 1397.51 2294.11 1403.7 Q2300.28 1409.87 2301.36 1415.31 Q2302.44 1420.71 2298.33 1424.82 Q2294.22 1428.93 2288.81 1427.86 Q2283.39 1426.76 2277.22 1420.59 Q2271.03 1414.41 2269.95 1409.01 Q2268.87 1403.57 2272.98 1399.46 Z" fill="#000000" fill-rule="nonzero" fill-opacity="1"></path><path clip-path="url(#clip590)" d="M1011.09 1549.04 L1019.75 1549.04 L1040.82 1588.79 L1040.82 1549.04 L1047.06 1549.04 L1047.06 1596.56 L1038.4 1596.56 L1017.33 1556.81 L1017.33 1596.56 L1011.09 1596.56 L1011.09 1549.04 Z" fill="#000000" fill-rule="nonzero" fill-opacity="1"></path><path clip-path="url(#clip590)" d="M1058.99 1582.49 L1058.99 1560.91 L1064.85 1560.91 L1064.85 1582.27 Q1064.85 1587.33 1066.82 1589.88 Q1068.79 1592.39 1072.74 1592.39 Q1077.48 1592.39 1080.22 1589.37 Q1082.99 1586.34 1082.99 1581.12 L1082.99 1560.91 L1088.85 1560.91 L1088.85 1596.56 L1082.99 1596.56 L1082.99 1591.08 Q1080.86 1594.33 1078.03 1595.92 Q1075.22 1597.48 1071.5 1597.48 Q1065.36 1597.48 1062.17 1593.66 Q1058.99 1589.84 1058.99 1582.49 M1073.73 1560.05 L1073.73 1560.05 Z" fill="#000000" fill-rule="nonzero" fill-opacity="1"></path><path clip-path="url(#clip590)" d="M1128.66 1567.75 Q1130.86 1563.81 1133.92 1561.93 Q1136.97 1560.05 1141.11 1560.05 Q1146.68 1560.05 1149.7 1563.97 Q1152.73 1567.85 1152.73 1575.04 L1152.73 1596.56 L1146.84 1596.56 L1146.84 1575.23 Q1146.84 1570.11 1145.02 1567.63 Q1143.21 1565.14 1139.49 1565.14 Q1134.93 1565.14 1132.29 1568.17 Q1129.65 1571.19 1129.65 1576.41 L1129.65 1596.56 L1123.76 1596.56 L1123.76 1575.23 Q1123.76 1570.08 1121.95 1567.63 Q1120.13 1565.14 1116.35 1565.14 Q1111.86 1565.14 1109.22 1568.2 Q1106.58 1571.22 1106.58 1576.41 L1106.58 1596.56 L1100.69 1596.56 L1100.69 1560.91 L1106.58 1560.91 L1106.58 1566.45 Q1108.58 1563.17 1111.38 1561.61 Q1114.18 1560.05 1118.03 1560.05 Q1121.92 1560.05 1124.62 1562.03 Q1127.36 1564 1128.66 1567.75 Z" fill="#000000" fill-rule="nonzero" fill-opacity="1"></path><path clip-path="url(#clip590)" d="M1190 1578.77 Q1190 1572.31 1187.32 1568.65 Q1184.68 1564.95 1180.04 1564.95 Q1175.39 1564.95 1172.72 1568.65 Q1170.07 1572.31 1170.07 1578.77 Q1170.07 1585.23 1172.72 1588.92 Q1175.39 1592.58 1180.04 1592.58 Q1184.68 1592.58 1187.32 1588.92 Q1190 1585.23 1190 1578.77 M1170.07 1566.32 Q1171.92 1563.14 1174.72 1561.61 Q1177.55 1560.05 1181.47 1560.05 Q1187.96 1560.05 1192 1565.21 Q1196.08 1570.36 1196.08 1578.77 Q1196.08 1587.17 1192 1592.33 Q1187.96 1597.48 1181.47 1597.48 Q1177.55 1597.48 1174.72 1595.95 Q1171.92 1594.39 1170.07 1591.21 L1170.07 1596.56 L1164.19 1596.56 L1164.19 1547.03 L1170.07 1547.03 L1170.07 1566.32 Z" fill="#000000" fill-rule="nonzero" fill-opacity="1"></path><path clip-path="url(#clip590)" d="M1236.28 1577.27 L1236.28 1580.14 L1209.35 1580.14 Q1209.73 1586.18 1212.98 1589.37 Q1216.26 1592.52 1222.08 1592.52 Q1225.45 1592.52 1228.61 1591.69 Q1231.79 1590.86 1234.91 1589.21 L1234.91 1594.74 Q1231.76 1596.08 1228.45 1596.78 Q1225.14 1597.48 1221.73 1597.48 Q1213.2 1597.48 1208.2 1592.52 Q1203.24 1587.55 1203.24 1579.09 Q1203.24 1570.33 1207.95 1565.21 Q1212.69 1560.05 1220.71 1560.05 Q1227.91 1560.05 1232.08 1564.7 Q1236.28 1569.31 1236.28 1577.27 M1230.42 1575.55 Q1230.36 1570.75 1227.71 1567.88 Q1225.1 1565.02 1220.78 1565.02 Q1215.87 1565.02 1212.91 1567.79 Q1209.99 1570.56 1209.54 1575.58 L1230.42 1575.55 Z" fill="#000000" fill-rule="nonzero" fill-opacity="1"></path><path clip-path="url(#clip590)" d="M1266.55 1566.39 Q1265.56 1565.81 1264.38 1565.56 Q1263.24 1565.27 1261.83 1565.27 Q1256.87 1565.27 1254.2 1568.52 Q1251.55 1571.73 1251.55 1577.78 L1251.55 1596.56 L1245.67 1596.56 L1245.67 1560.91 L1251.55 1560.91 L1251.55 1566.45 Q1253.4 1563.2 1256.36 1561.64 Q1259.32 1560.05 1263.55 1560.05 Q1264.16 1560.05 1264.89 1560.15 Q1265.62 1560.21 1266.51 1560.37 L1266.55 1566.39 Z" fill="#000000" fill-rule="nonzero" fill-opacity="1"></path><path clip-path="url(#clip590)" d="M1307.22 1565.02 Q1302.51 1565.02 1299.77 1568.71 Q1297.04 1572.37 1297.04 1578.77 Q1297.04 1585.16 1299.74 1588.86 Q1302.48 1592.52 1307.22 1592.52 Q1311.9 1592.52 1314.64 1588.82 Q1317.38 1585.13 1317.38 1578.77 Q1317.38 1572.43 1314.64 1568.74 Q1311.9 1565.02 1307.22 1565.02 M1307.22 1560.05 Q1314.86 1560.05 1319.22 1565.02 Q1323.58 1569.98 1323.58 1578.77 Q1323.58 1587.52 1319.22 1592.52 Q1314.86 1597.48 1307.22 1597.48 Q1299.55 1597.48 1295.19 1592.52 Q1290.86 1587.52 1290.86 1578.77 Q1290.86 1569.98 1295.19 1565.02 Q1299.55 1560.05 1307.22 1560.05 Z" fill="#000000" fill-rule="nonzero" fill-opacity="1"></path><path clip-path="url(#clip590)" d="M1351.34 1547.03 L1351.34 1551.9 L1345.73 1551.9 Q1342.58 1551.9 1341.34 1553.18 Q1340.13 1554.45 1340.13 1557.76 L1340.13 1560.91 L1349.78 1560.91 L1349.78 1565.46 L1340.13 1565.46 L1340.13 1596.56 L1334.24 1596.56 L1334.24 1565.46 L1328.64 1565.46 L1328.64 1560.91 L1334.24 1560.91 L1334.24 1558.43 Q1334.24 1552.48 1337.01 1549.77 Q1339.78 1547.03 1345.8 1547.03 L1351.34 1547.03 Z" fill="#000000" fill-rule="nonzero" fill-opacity="1"></path><path clip-path="url(#clip590)" d="M1373.55 1560.91 L1379.41 1560.91 L1386.73 1588.73 L1394.02 1560.91 L1400.93 1560.91 L1408.25 1588.73 L1415.53 1560.91 L1421.39 1560.91 L1412.07 1596.56 L1405.16 1596.56 L1397.49 1567.34 L1389.79 1596.56 L1382.88 1596.56 L1373.55 1560.91 Z" fill="#000000" fill-rule="nonzero" fill-opacity="1"></path><path clip-path="url(#clip590)" d="M1460.76 1577.27 L1460.76 1580.14 L1433.84 1580.14 Q1434.22 1586.18 1437.46 1589.37 Q1440.74 1592.52 1446.57 1592.52 Q1449.94 1592.52 1453.09 1591.69 Q1456.28 1590.86 1459.39 1589.21 L1459.39 1594.74 Q1456.24 1596.08 1452.93 1596.78 Q1449.62 1597.48 1446.22 1597.48 Q1437.69 1597.48 1432.69 1592.52 Q1427.73 1587.55 1427.73 1579.09 Q1427.73 1570.33 1432.44 1565.21 Q1437.18 1560.05 1445.2 1560.05 Q1452.39 1560.05 1456.56 1564.7 Q1460.76 1569.31 1460.76 1577.27 M1454.91 1575.55 Q1454.84 1570.75 1452.2 1567.88 Q1449.59 1565.02 1445.26 1565.02 Q1440.36 1565.02 1437.4 1567.79 Q1434.47 1570.56 1434.03 1575.58 L1454.91 1575.55 Z" fill="#000000" fill-rule="nonzero" fill-opacity="1"></path><path clip-path="url(#clip590)" d="M1470.38 1560.91 L1476.23 1560.91 L1476.23 1596.56 L1470.38 1596.56 L1470.38 1560.91 M1470.38 1547.03 L1476.23 1547.03 L1476.23 1554.45 L1470.38 1554.45 L1470.38 1547.03 Z" fill="#000000" fill-rule="nonzero" fill-opacity="1"></path><path clip-path="url(#clip590)" d="M1511.94 1578.32 Q1511.94 1571.96 1509.3 1568.45 Q1506.69 1564.95 1501.95 1564.95 Q1497.24 1564.95 1494.6 1568.45 Q1491.99 1571.96 1491.99 1578.32 Q1491.99 1584.66 1494.6 1588.16 Q1497.24 1591.66 1501.95 1591.66 Q1506.69 1591.66 1509.3 1588.16 Q1511.94 1584.66 1511.94 1578.32 M1517.8 1592.13 Q1517.8 1601.24 1513.76 1605.66 Q1509.72 1610.12 1501.38 1610.12 Q1498.29 1610.12 1495.55 1609.64 Q1492.81 1609.2 1490.24 1608.24 L1490.24 1602.54 Q1492.81 1603.94 1495.33 1604.61 Q1497.84 1605.28 1500.45 1605.28 Q1506.21 1605.28 1509.08 1602.26 Q1511.94 1599.26 1511.94 1593.19 L1511.94 1590.29 Q1510.13 1593.44 1507.3 1595 Q1504.46 1596.56 1500.52 1596.56 Q1493.96 1596.56 1489.95 1591.56 Q1485.94 1586.56 1485.94 1578.32 Q1485.94 1570.05 1489.95 1565.05 Q1493.96 1560.05 1500.52 1560.05 Q1504.46 1560.05 1507.3 1561.61 Q1510.13 1563.17 1511.94 1566.32 L1511.94 1560.91 L1517.8 1560.91 L1517.8 1592.13 Z" fill="#000000" fill-rule="nonzero" fill-opacity="1"></path><path clip-path="url(#clip590)" d="M1559.5 1575.04 L1559.5 1596.56 L1553.64 1596.56 L1553.64 1575.23 Q1553.64 1570.17 1551.67 1567.66 Q1549.69 1565.14 1545.75 1565.14 Q1541 1565.14 1538.27 1568.17 Q1535.53 1571.19 1535.53 1576.41 L1535.53 1596.56 L1529.64 1596.56 L1529.64 1547.03 L1535.53 1547.03 L1535.53 1566.45 Q1537.63 1563.23 1540.46 1561.64 Q1543.33 1560.05 1547.05 1560.05 Q1553.19 1560.05 1556.34 1563.87 Q1559.5 1567.66 1559.5 1575.04 Z" fill="#000000" fill-rule="nonzero" fill-opacity="1"></path><path clip-path="url(#clip590)" d="M1576.97 1550.79 L1576.97 1560.91 L1589.03 1560.91 L1589.03 1565.46 L1576.97 1565.46 L1576.97 1584.81 Q1576.97 1589.17 1578.15 1590.42 Q1579.36 1591.66 1583.02 1591.66 L1589.03 1591.66 L1589.03 1596.56 L1583.02 1596.56 Q1576.24 1596.56 1573.66 1594.04 Q1571.08 1591.5 1571.08 1584.81 L1571.08 1565.46 L1566.78 1565.46 L1566.78 1560.91 L1571.08 1560.91 L1571.08 1550.79 L1576.97 1550.79 Z" fill="#000000" fill-rule="nonzero" fill-opacity="1"></path><path clip-path="url(#clip590)" d="M1619.46 1561.96 L1619.46 1567.5 Q1616.98 1566.23 1614.3 1565.59 Q1611.63 1564.95 1608.77 1564.95 Q1604.41 1564.95 1602.21 1566.29 Q1600.04 1567.63 1600.04 1570.3 Q1600.04 1572.34 1601.6 1573.52 Q1603.16 1574.66 1607.87 1575.71 L1609.88 1576.16 Q1616.12 1577.49 1618.73 1579.94 Q1621.37 1582.36 1621.37 1586.72 Q1621.37 1591.69 1617.42 1594.59 Q1613.51 1597.48 1606.63 1597.48 Q1603.77 1597.48 1600.65 1596.91 Q1597.56 1596.37 1594.12 1595.25 L1594.12 1589.21 Q1597.37 1590.89 1600.52 1591.75 Q1603.67 1592.58 1606.76 1592.58 Q1610.9 1592.58 1613.13 1591.18 Q1615.35 1589.75 1615.35 1587.17 Q1615.35 1584.78 1613.73 1583.51 Q1612.14 1582.24 1606.7 1581.06 L1604.66 1580.58 Q1599.22 1579.44 1596.8 1577.08 Q1594.38 1574.69 1594.38 1570.56 Q1594.38 1565.53 1597.94 1562.79 Q1601.51 1560.05 1608.07 1560.05 Q1611.31 1560.05 1614.18 1560.53 Q1617.04 1561.01 1619.46 1561.96 Z" fill="#000000" fill-rule="nonzero" fill-opacity="1"></path><polyline clip-path="url(#clip590)" style="stroke:#000000; stroke-linecap:round; stroke-linejoin:round; stroke-width:4; stroke-opacity:1; fill:none" points="279.704,1366.15 279.704,123.472 "></polyline>
<polyline clip-path="url(#clip590)" style="stroke:#000000; stroke-linecap:round; stroke-linejoin:round; stroke-width:4; stroke-opacity:1; fill:none" points="279.704,1210.74 298.602,1210.74 "></polyline>
<polyline clip-path="url(#clip590)" style="stroke:#000000; stroke-linecap:round; stroke-linejoin:round; stroke-width:4; stroke-opacity:1; fill:none" points="279.704,935.002 298.602,935.002 "></polyline>
<polyline clip-path="url(#clip590)" style="stroke:#000000; stroke-linecap:round; stroke-linejoin:round; stroke-width:4; stroke-opacity:1; fill:none" points="279.704,659.267 298.602,659.267 "></polyline>
<polyline clip-path="url(#clip590)" style="stroke:#000000; stroke-linecap:round; stroke-linejoin:round; stroke-width:4; stroke-opacity:1; fill:none" points="279.704,383.533 298.602,383.533 "></polyline>
<path clip-path="url(#clip590)" d="M127.2 1196.53 Q123.589 1196.53 121.76 1200.1 Q119.955 1203.64 119.955 1210.77 Q119.955 1217.88 121.76 1221.44 Q123.589 1224.98 127.2 1224.98 Q130.834 1224.98 132.64 1221.44 Q134.468 1217.88 134.468 1210.77 Q134.468 1203.64 132.64 1200.1 Q130.834 1196.53 127.2 1196.53 M127.2 1192.83 Q133.01 1192.83 136.066 1197.44 Q139.144 1202.02 139.144 1210.77 Q139.144 1219.5 136.066 1224.1 Q133.01 1228.69 127.2 1228.69 Q121.39 1228.69 118.311 1224.1 Q115.256 1219.5 115.256 1210.77 Q115.256 1202.02 118.311 1197.44 Q121.39 1192.83 127.2 1192.83 Z" fill="#000000" fill-rule="nonzero" fill-opacity="1"></path><path clip-path="url(#clip590)" d="M147.362 1222.14 L152.246 1222.14 L152.246 1228.02 L147.362 1228.02 L147.362 1222.14 Z" fill="#000000" fill-rule="nonzero" fill-opacity="1"></path><path clip-path="url(#clip590)" d="M172.431 1196.53 Q168.82 1196.53 166.991 1200.1 Q165.186 1203.64 165.186 1210.77 Q165.186 1217.88 166.991 1221.44 Q168.82 1224.98 172.431 1224.98 Q176.065 1224.98 177.871 1221.44 Q179.7 1217.88 179.7 1210.77 Q179.7 1203.64 177.871 1200.1 Q176.065 1196.53 172.431 1196.53 M172.431 1192.83 Q178.241 1192.83 181.297 1197.44 Q184.376 1202.02 184.376 1210.77 Q184.376 1219.5 181.297 1224.1 Q178.241 1228.69 172.431 1228.69 Q166.621 1228.69 163.542 1224.1 Q160.487 1219.5 160.487 1210.77 Q160.487 1202.02 163.542 1197.44 Q166.621 1192.83 172.431 1192.83 Z" fill="#000000" fill-rule="nonzero" fill-opacity="1"></path><path clip-path="url(#clip590)" d="M202.593 1196.53 Q198.982 1196.53 197.153 1200.1 Q195.348 1203.64 195.348 1210.77 Q195.348 1217.88 197.153 1221.44 Q198.982 1224.98 202.593 1224.98 Q206.227 1224.98 208.033 1221.44 Q209.861 1217.88 209.861 1210.77 Q209.861 1203.64 208.033 1200.1 Q206.227 1196.53 202.593 1196.53 M202.593 1192.83 Q208.403 1192.83 211.459 1197.44 Q214.537 1202.02 214.537 1210.77 Q214.537 1219.5 211.459 1224.1 Q208.403 1228.69 202.593 1228.69 Q196.783 1228.69 193.704 1224.1 Q190.649 1219.5 190.649 1210.77 Q190.649 1202.02 193.704 1197.44 Q196.783 1192.83 202.593 1192.83 Z" fill="#000000" fill-rule="nonzero" fill-opacity="1"></path><path clip-path="url(#clip590)" d="M222.801 1193.46 L241.158 1193.46 L241.158 1197.39 L227.084 1197.39 L227.084 1205.86 Q228.102 1205.52 229.121 1205.35 Q230.139 1205.17 231.158 1205.17 Q236.945 1205.17 240.324 1208.34 Q243.704 1211.51 243.704 1216.93 Q243.704 1222.51 240.232 1225.61 Q236.76 1228.69 230.44 1228.69 Q228.264 1228.69 225.996 1228.32 Q223.75 1227.95 221.343 1227.21 L221.343 1222.51 Q223.426 1223.64 225.648 1224.2 Q227.871 1224.75 230.347 1224.75 Q234.352 1224.75 236.69 1222.65 Q239.028 1220.54 239.028 1216.93 Q239.028 1213.32 236.69 1211.21 Q234.352 1209.1 230.347 1209.1 Q228.473 1209.1 226.598 1209.52 Q224.746 1209.94 222.801 1210.82 L222.801 1193.46 Z" fill="#000000" fill-rule="nonzero" fill-opacity="1"></path><path clip-path="url(#clip590)" d="M126.205 920.8 Q122.593 920.8 120.765 924.365 Q118.959 927.907 118.959 935.036 Q118.959 942.143 120.765 945.708 Q122.593 949.249 126.205 949.249 Q129.839 949.249 131.644 945.708 Q133.473 942.143 133.473 935.036 Q133.473 927.907 131.644 924.365 Q129.839 920.8 126.205 920.8 M126.205 917.097 Q132.015 917.097 135.07 921.703 Q138.149 926.286 138.149 935.036 Q138.149 943.763 135.07 948.37 Q132.015 952.953 126.205 952.953 Q120.394 952.953 117.316 948.37 Q114.26 943.763 114.26 935.036 Q114.26 926.286 117.316 921.703 Q120.394 917.097 126.205 917.097 Z" fill="#000000" fill-rule="nonzero" fill-opacity="1"></path><path clip-path="url(#clip590)" d="M146.366 946.402 L151.251 946.402 L151.251 952.282 L146.366 952.282 L146.366 946.402 Z" fill="#000000" fill-rule="nonzero" fill-opacity="1"></path><path clip-path="url(#clip590)" d="M171.436 920.8 Q167.825 920.8 165.996 924.365 Q164.19 927.907 164.19 935.036 Q164.19 942.143 165.996 945.708 Q167.825 949.249 171.436 949.249 Q175.07 949.249 176.876 945.708 Q178.704 942.143 178.704 935.036 Q178.704 927.907 176.876 924.365 Q175.07 920.8 171.436 920.8 M171.436 917.097 Q177.246 917.097 180.301 921.703 Q183.38 926.286 183.38 935.036 Q183.38 943.763 180.301 948.37 Q177.246 952.953 171.436 952.953 Q165.626 952.953 162.547 948.37 Q159.491 943.763 159.491 935.036 Q159.491 926.286 162.547 921.703 Q165.626 917.097 171.436 917.097 Z" fill="#000000" fill-rule="nonzero" fill-opacity="1"></path><path clip-path="url(#clip590)" d="M192.408 948.346 L200.047 948.346 L200.047 921.981 L191.737 923.648 L191.737 919.388 L200 917.722 L204.676 917.722 L204.676 948.346 L212.315 948.346 L212.315 952.282 L192.408 952.282 L192.408 948.346 Z" fill="#000000" fill-rule="nonzero" fill-opacity="1"></path><path clip-path="url(#clip590)" d="M231.76 920.8 Q228.148 920.8 226.32 924.365 Q224.514 927.907 224.514 935.036 Q224.514 942.143 226.32 945.708 Q228.148 949.249 231.76 949.249 Q235.394 949.249 237.199 945.708 Q239.028 942.143 239.028 935.036 Q239.028 927.907 237.199 924.365 Q235.394 920.8 231.76 920.8 M231.76 917.097 Q237.57 917.097 240.625 921.703 Q243.704 926.286 243.704 935.036 Q243.704 943.763 240.625 948.37 Q237.57 952.953 231.76 952.953 Q225.949 952.953 222.871 948.37 Q219.815 943.763 219.815 935.036 Q219.815 926.286 222.871 921.703 Q225.949 917.097 231.76 917.097 Z" fill="#000000" fill-rule="nonzero" fill-opacity="1"></path><path clip-path="url(#clip590)" d="M127.2 645.066 Q123.589 645.066 121.76 648.631 Q119.955 652.172 119.955 659.302 Q119.955 666.408 121.76 669.973 Q123.589 673.515 127.2 673.515 Q130.834 673.515 132.64 669.973 Q134.468 666.408 134.468 659.302 Q134.468 652.172 132.64 648.631 Q130.834 645.066 127.2 645.066 M127.2 641.362 Q133.01 641.362 136.066 645.969 Q139.144 650.552 139.144 659.302 Q139.144 668.029 136.066 672.635 Q133.01 677.218 127.2 677.218 Q121.39 677.218 118.311 672.635 Q115.256 668.029 115.256 659.302 Q115.256 650.552 118.311 645.969 Q121.39 641.362 127.2 641.362 Z" fill="#000000" fill-rule="nonzero" fill-opacity="1"></path><path clip-path="url(#clip590)" d="M147.362 670.668 L152.246 670.668 L152.246 676.547 L147.362 676.547 L147.362 670.668 Z" fill="#000000" fill-rule="nonzero" fill-opacity="1"></path><path clip-path="url(#clip590)" d="M172.431 645.066 Q168.82 645.066 166.991 648.631 Q165.186 652.172 165.186 659.302 Q165.186 666.408 166.991 669.973 Q168.82 673.515 172.431 673.515 Q176.065 673.515 177.871 669.973 Q179.7 666.408 179.7 659.302 Q179.7 652.172 177.871 648.631 Q176.065 645.066 172.431 645.066 M172.431 641.362 Q178.241 641.362 181.297 645.969 Q184.376 650.552 184.376 659.302 Q184.376 668.029 181.297 672.635 Q178.241 677.218 172.431 677.218 Q166.621 677.218 163.542 672.635 Q160.487 668.029 160.487 659.302 Q160.487 650.552 163.542 645.969 Q166.621 641.362 172.431 641.362 Z" fill="#000000" fill-rule="nonzero" fill-opacity="1"></path><path clip-path="url(#clip590)" d="M193.403 672.612 L201.042 672.612 L201.042 646.246 L192.732 647.913 L192.732 643.654 L200.996 641.987 L205.672 641.987 L205.672 672.612 L213.311 672.612 L213.311 676.547 L193.403 676.547 L193.403 672.612 Z" fill="#000000" fill-rule="nonzero" fill-opacity="1"></path><path clip-path="url(#clip590)" d="M222.801 641.987 L241.158 641.987 L241.158 645.922 L227.084 645.922 L227.084 654.395 Q228.102 654.047 229.121 653.885 Q230.139 653.7 231.158 653.7 Q236.945 653.7 240.324 656.871 Q243.704 660.043 243.704 665.459 Q243.704 671.038 240.232 674.14 Q236.76 677.218 230.44 677.218 Q228.264 677.218 225.996 676.848 Q223.75 676.478 221.343 675.737 L221.343 671.038 Q223.426 672.172 225.648 672.728 Q227.871 673.283 230.347 673.283 Q234.352 673.283 236.69 671.177 Q239.028 669.07 239.028 665.459 Q239.028 661.848 236.69 659.742 Q234.352 657.635 230.347 657.635 Q228.473 657.635 226.598 658.052 Q224.746 658.469 222.801 659.348 L222.801 641.987 Z" fill="#000000" fill-rule="nonzero" fill-opacity="1"></path><path clip-path="url(#clip590)" d="M126.205 369.331 Q122.593 369.331 120.765 372.896 Q118.959 376.438 118.959 383.567 Q118.959 390.674 120.765 394.239 Q122.593 397.78 126.205 397.78 Q129.839 397.78 131.644 394.239 Q133.473 390.674 133.473 383.567 Q133.473 376.438 131.644 372.896 Q129.839 369.331 126.205 369.331 M126.205 365.628 Q132.015 365.628 135.07 370.234 Q138.149 374.817 138.149 383.567 Q138.149 392.294 135.07 396.901 Q132.015 401.484 126.205 401.484 Q120.394 401.484 117.316 396.901 Q114.26 392.294 114.26 383.567 Q114.26 374.817 117.316 370.234 Q120.394 365.628 126.205 365.628 Z" fill="#000000" fill-rule="nonzero" fill-opacity="1"></path><path clip-path="url(#clip590)" d="M146.366 394.933 L151.251 394.933 L151.251 400.813 L146.366 400.813 L146.366 394.933 Z" fill="#000000" fill-rule="nonzero" fill-opacity="1"></path><path clip-path="url(#clip590)" d="M171.436 369.331 Q167.825 369.331 165.996 372.896 Q164.19 376.438 164.19 383.567 Q164.19 390.674 165.996 394.239 Q167.825 397.78 171.436 397.78 Q175.07 397.78 176.876 394.239 Q178.704 390.674 178.704 383.567 Q178.704 376.438 176.876 372.896 Q175.07 369.331 171.436 369.331 M171.436 365.628 Q177.246 365.628 180.301 370.234 Q183.38 374.817 183.38 383.567 Q183.38 392.294 180.301 396.901 Q177.246 401.484 171.436 401.484 Q165.626 401.484 162.547 396.901 Q159.491 392.294 159.491 383.567 Q159.491 374.817 162.547 370.234 Q165.626 365.628 171.436 365.628 Z" fill="#000000" fill-rule="nonzero" fill-opacity="1"></path><path clip-path="url(#clip590)" d="M195.625 396.878 L211.945 396.878 L211.945 400.813 L190 400.813 L190 396.878 Q192.663 394.123 197.246 389.493 Q201.852 384.841 203.033 383.498 Q205.278 380.975 206.158 379.239 Q207.061 377.48 207.061 375.79 Q207.061 373.035 205.116 371.299 Q203.195 369.563 200.093 369.563 Q197.894 369.563 195.44 370.327 Q193.01 371.091 190.232 372.642 L190.232 367.919 Q193.056 366.785 195.51 366.206 Q197.963 365.628 200 365.628 Q205.371 365.628 208.565 368.313 Q211.76 370.998 211.76 375.489 Q211.76 377.618 210.949 379.54 Q210.162 381.438 208.056 384.03 Q207.477 384.702 204.375 387.919 Q201.274 391.114 195.625 396.878 Z" fill="#000000" fill-rule="nonzero" fill-opacity="1"></path><path clip-path="url(#clip590)" d="M231.76 369.331 Q228.148 369.331 226.32 372.896 Q224.514 376.438 224.514 383.567 Q224.514 390.674 226.32 394.239 Q228.148 397.78 231.76 397.78 Q235.394 397.78 237.199 394.239 Q239.028 390.674 239.028 383.567 Q239.028 376.438 237.199 372.896 Q235.394 369.331 231.76 369.331 M231.76 365.628 Q237.57 365.628 240.625 370.234 Q243.704 374.817 243.704 383.567 Q243.704 392.294 240.625 396.901 Q237.57 401.484 231.76 401.484 Q225.949 401.484 222.871 396.901 Q219.815 392.294 219.815 383.567 Q219.815 374.817 222.871 370.234 Q225.949 365.628 231.76 365.628 Z" fill="#000000" fill-rule="nonzero" fill-opacity="1"></path><path clip-path="url(#clip590)" d="M46.0847 1080.41 Q46.0847 1087.51 47.7079 1090.25 Q49.3312 1092.98 53.2461 1092.98 Q56.3653 1092.98 58.2114 1090.95 Q60.0256 1088.88 60.0256 1085.34 Q60.0256 1080.47 56.5881 1077.55 Q53.1188 1074.59 47.3897 1074.59 L46.0847 1074.59 L46.0847 1080.41 M43.6657 1068.73 L64.0042 1068.73 L64.0042 1074.59 L58.5933 1074.59 Q61.8398 1076.59 63.3994 1079.58 Q64.9272 1082.58 64.9272 1086.9 Q64.9272 1092.38 61.8716 1095.62 Q58.7843 1098.84 53.6281 1098.84 Q47.6125 1098.84 44.5569 1094.83 Q41.5014 1090.79 41.5014 1082.8 L41.5014 1074.59 L40.9285 1074.59 Q36.8862 1074.59 34.6901 1077.26 Q32.4621 1079.9 32.4621 1084.71 Q32.4621 1087.76 33.1941 1090.66 Q33.9262 1093.56 35.3903 1096.23 L29.9795 1096.23 Q28.7381 1093.01 28.1334 1089.99 Q27.4968 1086.97 27.4968 1084.1 Q27.4968 1076.37 31.5072 1072.55 Q35.5176 1068.73 43.6657 1068.73 Z" fill="#000000" fill-rule="nonzero" fill-opacity="1"></path><path clip-path="url(#clip590)" d="M28.3562 1060.87 L28.3562 1054.66 L58.275 1043.52 L28.3562 1032.38 L28.3562 1026.17 L64.0042 1039.54 L64.0042 1047.5 L28.3562 1060.87 Z" fill="#000000" fill-rule="nonzero" fill-opacity="1"></path><path clip-path="url(#clip590)" d="M44.7161 987.599 L47.5806 987.599 L47.5806 1014.53 Q53.6281 1014.14 56.8109 1010.9 Q59.9619 1007.62 59.9619 1001.79 Q59.9619 998.42 59.1344 995.269 Q58.3069 992.087 56.6518 988.967 L62.1899 988.967 Q63.5267 992.118 64.227 995.429 Q64.9272 998.739 64.9272 1002.14 Q64.9272 1010.67 59.9619 1015.67 Q54.9967 1020.64 46.5303 1020.64 Q37.7774 1020.64 32.6531 1015.93 Q27.4968 1011.18 27.4968 1003.16 Q27.4968 995.97 32.1438 991.8 Q36.7589 987.599 44.7161 987.599 M42.9973 993.455 Q38.1912 993.519 35.3266 996.161 Q32.4621 998.771 32.4621 1003.1 Q32.4621 1008 35.2312 1010.96 Q38.0002 1013.89 43.0292 1014.33 L42.9973 993.455 Z" fill="#000000" fill-rule="nonzero" fill-opacity="1"></path><path clip-path="url(#clip590)" d="M33.8307 957.33 Q33.2578 958.316 33.0032 959.494 Q32.7167 960.64 32.7167 962.04 Q32.7167 967.006 35.9632 969.679 Q39.1779 972.321 45.2253 972.321 L64.0042 972.321 L64.0042 978.209 L28.3562 978.209 L28.3562 972.321 L33.8944 972.321 Q30.6479 970.475 29.0883 967.515 Q27.4968 964.555 27.4968 960.322 Q27.4968 959.717 27.5923 958.985 Q27.656 958.253 27.8151 957.362 L33.8307 957.33 Z" fill="#000000" fill-rule="nonzero" fill-opacity="1"></path><path clip-path="url(#clip590)" d="M46.0847 934.986 Q46.0847 942.084 47.7079 944.821 Q49.3312 947.558 53.2461 947.558 Q56.3653 947.558 58.2114 945.521 Q60.0256 943.453 60.0256 939.92 Q60.0256 935.05 56.5881 932.122 Q53.1188 929.162 47.3897 929.162 L46.0847 929.162 L46.0847 934.986 M43.6657 923.305 L64.0042 923.305 L64.0042 929.162 L58.5933 929.162 Q61.8398 931.167 63.3994 934.159 Q64.9272 937.151 64.9272 941.479 Q64.9272 946.954 61.8716 950.2 Q58.7843 953.415 53.6281 953.415 Q47.6125 953.415 44.5569 949.405 Q41.5014 945.362 41.5014 937.373 L41.5014 929.162 L40.9285 929.162 Q36.8862 929.162 34.6901 931.835 Q32.4621 934.477 32.4621 939.283 Q32.4621 942.339 33.1941 945.235 Q33.9262 948.131 35.3903 950.805 L29.9795 950.805 Q28.7381 947.59 28.1334 944.567 Q27.4968 941.543 27.4968 938.678 Q27.4968 930.944 31.5072 927.125 Q35.5176 923.305 43.6657 923.305 Z" fill="#000000" fill-rule="nonzero" fill-opacity="1"></path><path clip-path="url(#clip590)" d="M45.7664 887.784 Q39.4007 887.784 35.8996 890.426 Q32.3984 893.036 32.3984 897.779 Q32.3984 902.489 35.8996 905.131 Q39.4007 907.741 45.7664 907.741 Q52.1003 907.741 55.6014 905.131 Q59.1026 902.489 59.1026 897.779 Q59.1026 893.036 55.6014 890.426 Q52.1003 887.784 45.7664 887.784 M59.58 881.928 Q68.683 881.928 73.1071 885.97 Q77.5631 890.012 77.5631 898.352 Q77.5631 901.439 77.0857 904.176 Q76.6401 906.913 75.6852 909.492 L69.9879 909.492 Q71.3884 906.913 72.0568 904.399 Q72.7252 901.885 72.7252 899.275 Q72.7252 893.514 69.7015 890.649 Q66.7096 887.784 60.6303 887.784 L57.7339 887.784 Q60.885 889.599 62.4446 892.431 Q64.0042 895.264 64.0042 899.211 Q64.0042 905.768 59.0071 909.778 Q54.01 913.788 45.7664 913.788 Q37.491 913.788 32.4939 909.778 Q27.4968 905.768 27.4968 899.211 Q27.4968 895.264 29.0564 892.431 Q30.616 889.599 33.7671 887.784 L28.3562 887.784 L28.3562 881.928 L59.58 881.928 Z" fill="#000000" fill-rule="nonzero" fill-opacity="1"></path><path clip-path="url(#clip590)" d="M44.7161 839.373 L47.5806 839.373 L47.5806 866.3 Q53.6281 865.918 56.8109 862.672 Q59.9619 859.393 59.9619 853.569 Q59.9619 850.195 59.1344 847.044 Q58.3069 843.861 56.6518 840.742 L62.1899 840.742 Q63.5267 843.893 64.227 847.203 Q64.9272 850.513 64.9272 853.919 Q64.9272 862.449 59.9619 867.446 Q54.9967 872.411 46.5303 872.411 Q37.7774 872.411 32.6531 867.701 Q27.4968 862.958 27.4968 854.937 Q27.4968 847.744 32.1438 843.575 Q36.7589 839.373 44.7161 839.373 M42.9973 845.23 Q38.1912 845.293 35.3266 847.935 Q32.4621 850.545 32.4621 854.874 Q32.4621 859.775 35.2312 862.735 Q38.0002 865.664 43.0292 866.109 L42.9973 845.23 Z" fill="#000000" fill-rule="nonzero" fill-opacity="1"></path><path clip-path="url(#clip590)" d="M33.8307 788.384 Q33.2578 789.371 33.0032 790.548 Q32.7167 791.694 32.7167 793.095 Q32.7167 798.06 35.9632 800.733 Q39.1779 803.375 45.2253 803.375 L64.0042 803.375 L64.0042 809.263 L28.3562 809.263 L28.3562 803.375 L33.8944 803.375 Q30.6479 801.529 29.0883 798.569 Q27.4968 795.609 27.4968 791.376 Q27.4968 790.771 27.5923 790.039 Q27.656 789.307 27.8151 788.416 L33.8307 788.384 Z" fill="#000000" fill-rule="nonzero" fill-opacity="1"></path><path clip-path="url(#clip590)" d="M44.7161 753.182 L47.5806 753.182 L47.5806 780.109 Q53.6281 779.727 56.8109 776.48 Q59.9619 773.202 59.9619 767.377 Q59.9619 764.003 59.1344 760.852 Q58.3069 757.669 56.6518 754.55 L62.1899 754.55 Q63.5267 757.701 64.227 761.011 Q64.9272 764.322 64.9272 767.727 Q64.9272 776.257 59.9619 781.254 Q54.9967 786.22 46.5303 786.22 Q37.7774 786.22 32.6531 781.509 Q27.4968 776.767 27.4968 768.746 Q27.4968 761.553 32.1438 757.383 Q36.7589 753.182 44.7161 753.182 M42.9973 759.038 Q38.1912 759.102 35.3266 761.743 Q32.4621 764.353 32.4621 768.682 Q32.4621 773.584 35.2312 776.544 Q38.0002 779.472 43.0292 779.918 L42.9973 759.038 Z" fill="#000000" fill-rule="nonzero" fill-opacity="1"></path><path clip-path="url(#clip590)" d="M14.479 743.569 L14.479 737.713 L64.0042 737.713 L64.0042 743.569 L14.479 743.569 Z" fill="#000000" fill-rule="nonzero" fill-opacity="1"></path><path clip-path="url(#clip590)" d="M46.0847 709.258 Q46.0847 716.356 47.7079 719.093 Q49.3312 721.83 53.2461 721.83 Q56.3653 721.83 58.2114 719.793 Q60.0256 717.725 60.0256 714.192 Q60.0256 709.322 56.5881 706.394 Q53.1188 703.434 47.3897 703.434 L46.0847 703.434 L46.0847 709.258 M43.6657 697.577 L64.0042 697.577 L64.0042 703.434 L58.5933 703.434 Q61.8398 705.439 63.3994 708.431 Q64.9272 711.423 64.9272 715.751 Q64.9272 721.226 61.8716 724.472 Q58.7843 727.687 53.6281 727.687 Q47.6125 727.687 44.5569 723.677 Q41.5014 719.634 41.5014 711.645 L41.5014 703.434 L40.9285 703.434 Q36.8862 703.434 34.6901 706.107 Q32.4621 708.749 32.4621 713.555 Q32.4621 716.611 33.1941 719.507 Q33.9262 722.403 35.3903 725.077 L29.9795 725.077 Q28.7381 721.862 28.1334 718.839 Q27.4968 715.815 27.4968 712.95 Q27.4968 705.216 31.5072 701.397 Q35.5176 697.577 43.6657 697.577 Z" fill="#000000" fill-rule="nonzero" fill-opacity="1"></path><path clip-path="url(#clip590)" d="M18.2347 679.721 L28.3562 679.721 L28.3562 667.658 L32.9077 667.658 L32.9077 679.721 L52.2594 679.721 Q56.6199 679.721 57.8613 678.544 Q59.1026 677.334 59.1026 673.674 L59.1026 667.658 L64.0042 667.658 L64.0042 673.674 Q64.0042 680.453 61.4897 683.032 Q58.9434 685.61 52.2594 685.61 L32.9077 685.61 L32.9077 689.906 L28.3562 689.906 L28.3562 685.61 L18.2347 685.61 L18.2347 679.721 Z" fill="#000000" fill-rule="nonzero" fill-opacity="1"></path><path clip-path="url(#clip590)" d="M28.3562 659.956 L28.3562 654.099 L64.0042 654.099 L64.0042 659.956 L28.3562 659.956 M14.479 659.956 L14.479 654.099 L21.895 654.099 L21.895 659.956 L14.479 659.956 Z" fill="#000000" fill-rule="nonzero" fill-opacity="1"></path><path clip-path="url(#clip590)" d="M28.3562 646.047 L28.3562 639.84 L58.275 628.7 L28.3562 617.56 L28.3562 611.354 L64.0042 624.722 L64.0042 632.679 L28.3562 646.047 Z" fill="#000000" fill-rule="nonzero" fill-opacity="1"></path><path clip-path="url(#clip590)" d="M44.7161 572.777 L47.5806 572.777 L47.5806 599.704 Q53.6281 599.322 56.8109 596.076 Q59.9619 592.798 59.9619 586.973 Q59.9619 583.599 59.1344 580.448 Q58.3069 577.265 56.6518 574.146 L62.1899 574.146 Q63.5267 577.297 64.227 580.607 Q64.9272 583.917 64.9272 587.323 Q64.9272 595.853 59.9619 600.85 Q54.9967 605.815 46.5303 605.815 Q37.7774 605.815 32.6531 601.105 Q27.4968 596.362 27.4968 588.342 Q27.4968 581.148 32.1438 576.979 Q36.7589 572.777 44.7161 572.777 M42.9973 578.634 Q38.1912 578.698 35.3266 581.339 Q32.4621 583.949 32.4621 588.278 Q32.4621 593.18 35.2312 596.14 Q38.0002 599.068 43.0292 599.513 L42.9973 578.634 Z" fill="#000000" fill-rule="nonzero" fill-opacity="1"></path><path clip-path="url(#clip590)" d="M44.7161 511.953 L47.5806 511.953 L47.5806 538.88 Q53.6281 538.498 56.8109 535.252 Q59.9619 531.973 59.9619 526.149 Q59.9619 522.775 59.1344 519.624 Q58.3069 516.441 56.6518 513.322 L62.1899 513.322 Q63.5267 516.473 64.227 519.783 Q64.9272 523.093 64.9272 526.499 Q64.9272 535.029 59.9619 540.026 Q54.9967 544.991 46.5303 544.991 Q37.7774 544.991 32.6531 540.281 Q27.4968 535.538 27.4968 527.517 Q27.4968 520.324 32.1438 516.155 Q36.7589 511.953 44.7161 511.953 M42.9973 517.81 Q38.1912 517.873 35.3266 520.515 Q32.4621 523.125 32.4621 527.454 Q32.4621 532.355 35.2312 535.315 Q38.0002 538.244 43.0292 538.689 L42.9973 517.81 Z" fill="#000000" fill-rule="nonzero" fill-opacity="1"></path><path clip-path="url(#clip590)" d="M33.8307 481.684 Q33.2578 482.671 33.0032 483.849 Q32.7167 484.994 32.7167 486.395 Q32.7167 491.36 35.9632 494.034 Q39.1779 496.675 45.2253 496.675 L64.0042 496.675 L64.0042 502.564 L28.3562 502.564 L28.3562 496.675 L33.8944 496.675 Q30.6479 494.829 29.0883 491.869 Q27.4968 488.909 27.4968 484.676 Q27.4968 484.071 27.5923 483.339 Q27.656 482.607 27.8151 481.716 L33.8307 481.684 Z" fill="#000000" fill-rule="nonzero" fill-opacity="1"></path><path clip-path="url(#clip590)" d="M33.8307 456.03 Q33.2578 457.017 33.0032 458.195 Q32.7167 459.341 32.7167 460.741 Q32.7167 465.706 35.9632 468.38 Q39.1779 471.022 45.2253 471.022 L64.0042 471.022 L64.0042 476.91 L28.3562 476.91 L28.3562 471.022 L33.8944 471.022 Q30.6479 469.176 29.0883 466.216 Q27.4968 463.255 27.4968 459.022 Q27.4968 458.418 27.5923 457.686 Q27.656 456.953 27.8151 456.062 L33.8307 456.03 Z" fill="#000000" fill-rule="nonzero" fill-opacity="1"></path><path clip-path="url(#clip590)" d="M32.4621 437.506 Q32.4621 442.217 36.1542 444.954 Q39.8145 447.691 46.212 447.691 Q52.6095 447.691 56.3017 444.986 Q59.9619 442.249 59.9619 437.506 Q59.9619 432.827 56.2698 430.09 Q52.5777 427.353 46.212 427.353 Q39.8781 427.353 36.186 430.09 Q32.4621 432.827 32.4621 437.506 M27.4968 437.506 Q27.4968 429.867 32.4621 425.507 Q37.4273 421.146 46.212 421.146 Q54.9649 421.146 59.9619 425.507 Q64.9272 429.867 64.9272 437.506 Q64.9272 445.177 59.9619 449.537 Q54.9649 453.866 46.212 453.866 Q37.4273 453.866 32.4621 449.537 Q27.4968 445.177 27.4968 437.506 Z" fill="#000000" fill-rule="nonzero" fill-opacity="1"></path><path clip-path="url(#clip590)" d="M33.8307 390.782 Q33.2578 391.769 33.0032 392.946 Q32.7167 394.092 32.7167 395.493 Q32.7167 400.458 35.9632 403.131 Q39.1779 405.773 45.2253 405.773 L64.0042 405.773 L64.0042 411.661 L28.3562 411.661 L28.3562 405.773 L33.8944 405.773 Q30.6479 403.927 29.0883 400.967 Q27.4968 398.007 27.4968 393.774 Q27.4968 393.169 27.5923 392.437 Q27.656 391.705 27.8151 390.814 L33.8307 390.782 Z" fill="#000000" fill-rule="nonzero" fill-opacity="1"></path><path clip-path="url(#clip590)" d="M575.542 65.6895 L604.101 65.6895 L604.101 72.576 L565.699 72.576 L565.699 65.6895 Q570.357 60.8689 578.378 52.7671 Q586.439 44.6248 588.505 42.2752 Q592.435 37.8598 593.974 34.8216 Q595.554 31.7429 595.554 28.7857 Q595.554 23.9651 592.151 20.927 Q588.789 17.8888 583.361 17.8888 Q579.512 17.8888 575.218 19.2256 Q570.965 20.5624 566.104 23.2765 L566.104 15.0127 Q571.046 13.0277 575.34 12.015 Q579.634 11.0023 583.199 11.0023 Q592.597 11.0023 598.187 15.7013 Q603.777 20.4004 603.777 28.2591 Q603.777 31.9859 602.359 35.3482 Q600.982 38.6699 597.296 43.2069 Q596.283 44.3817 590.855 50.0125 Q585.427 55.6027 575.542 65.6895 Z" fill="#000000" fill-rule="nonzero" fill-opacity="1"></path><path clip-path="url(#clip590)" d="M621.358 12.096 L653.482 12.096 L653.482 18.9825 L628.852 18.9825 L628.852 33.8088 Q630.635 33.2012 632.417 32.9176 Q634.199 32.5936 635.982 32.5936 Q646.109 32.5936 652.023 38.1433 Q657.938 43.6931 657.938 53.1722 Q657.938 62.9348 651.861 68.3631 Q645.785 73.7508 634.726 73.7508 Q630.918 73.7508 626.948 73.1026 Q623.019 72.4545 618.806 71.1582 L618.806 62.9348 Q622.452 64.9198 626.341 65.892 Q630.23 66.8642 634.564 66.8642 Q641.572 66.8642 645.663 63.1779 Q649.755 59.4916 649.755 53.1722 Q649.755 46.8528 645.663 43.1664 Q641.572 39.4801 634.564 39.4801 Q631.283 39.4801 628.002 40.2093 Q624.761 40.9384 621.358 42.4778 L621.358 12.096 Z" fill="#000000" fill-rule="nonzero" fill-opacity="1"></path><path clip-path="url(#clip590)" d="M694.031 27.2059 L701.931 27.2059 L716.109 65.2844 L730.287 27.2059 L738.186 27.2059 L721.172 72.576 L711.045 72.576 L694.031 27.2059 Z" fill="#000000" fill-rule="nonzero" fill-opacity="1"></path><path clip-path="url(#clip590)" d="M769.095 49.7694 Q760.061 49.7694 756.577 51.8354 Q753.093 53.9013 753.093 58.8839 Q753.093 62.8538 755.686 65.2034 Q758.319 67.5124 762.816 67.5124 Q769.014 67.5124 772.74 63.1374 Q776.508 58.7219 776.508 51.4303 L776.508 49.7694 L769.095 49.7694 M783.961 46.6907 L783.961 72.576 L776.508 72.576 L776.508 65.6895 Q773.956 69.8214 770.148 71.8063 Q766.34 73.7508 760.831 73.7508 Q753.863 73.7508 749.731 69.8619 Q745.64 65.9325 745.64 59.3701 Q745.64 51.7138 750.744 47.825 Q755.889 43.9361 766.056 43.9361 L776.508 43.9361 L776.508 43.2069 Q776.508 38.0623 773.105 35.2672 Q769.743 32.4315 763.626 32.4315 Q759.737 32.4315 756.051 33.3632 Q752.364 34.295 748.962 36.1584 L748.962 29.2718 Q753.053 27.692 756.901 26.9223 Q760.75 26.1121 764.395 26.1121 Q774.239 26.1121 779.1 31.2163 Q783.961 36.3204 783.961 46.6907 Z" fill="#000000" fill-rule="nonzero" fill-opacity="1"></path><path clip-path="url(#clip590)" d="M825.605 34.1734 Q824.349 33.4443 822.85 33.1202 Q821.392 32.7556 819.609 32.7556 Q813.29 32.7556 809.887 36.8875 Q806.525 40.9789 806.525 48.6757 L806.525 72.576 L799.031 72.576 L799.031 27.2059 L806.525 27.2059 L806.525 34.2544 Q808.874 30.1225 812.642 28.1376 Q816.409 26.1121 821.797 26.1121 Q822.566 26.1121 823.498 26.2337 Q824.43 26.3147 825.564 26.5172 L825.605 34.1734 Z" fill="#000000" fill-rule="nonzero" fill-opacity="1"></path><path clip-path="url(#clip590)" d="M833.423 27.2059 L840.877 27.2059 L840.877 72.576 L833.423 72.576 L833.423 27.2059 M833.423 9.54393 L840.877 9.54393 L840.877 18.9825 L833.423 18.9825 L833.423 9.54393 Z" fill="#000000" fill-rule="nonzero" fill-opacity="1"></path><path clip-path="url(#clip590)" d="M877.092 49.7694 Q868.058 49.7694 864.574 51.8354 Q861.091 53.9013 861.091 58.8839 Q861.091 62.8538 863.683 65.2034 Q866.316 67.5124 870.813 67.5124 Q877.011 67.5124 880.737 63.1374 Q884.505 58.7219 884.505 51.4303 L884.505 49.7694 L877.092 49.7694 M891.958 46.6907 L891.958 72.576 L884.505 72.576 L884.505 65.6895 Q881.953 69.8214 878.145 71.8063 Q874.337 73.7508 868.828 73.7508 Q861.86 73.7508 857.728 69.8619 Q853.637 65.9325 853.637 59.3701 Q853.637 51.7138 858.741 47.825 Q863.886 43.9361 874.053 43.9361 L884.505 43.9361 L884.505 43.2069 Q884.505 38.0623 881.102 35.2672 Q877.74 32.4315 871.623 32.4315 Q867.734 32.4315 864.048 33.3632 Q860.361 34.295 856.959 36.1584 L856.959 29.2718 Q861.05 27.692 864.898 26.9223 Q868.747 26.1121 872.393 26.1121 Q882.236 26.1121 887.097 31.2163 Q891.958 36.3204 891.958 46.6907 Z" fill="#000000" fill-rule="nonzero" fill-opacity="1"></path><path clip-path="url(#clip590)" d="M939.881 49.9314 Q939.881 41.7081 936.478 37.0496 Q933.116 32.3505 927.201 32.3505 Q921.287 32.3505 917.884 37.0496 Q914.522 41.7081 914.522 49.9314 Q914.522 58.1548 917.884 62.8538 Q921.287 67.5124 927.201 67.5124 Q933.116 67.5124 936.478 62.8538 Q939.881 58.1548 939.881 49.9314 M914.522 34.0924 Q916.872 30.0415 920.436 28.0971 Q924.042 26.1121 929.024 26.1121 Q937.288 26.1121 942.433 32.6746 Q947.618 39.2371 947.618 49.9314 Q947.618 60.6258 942.433 67.1883 Q937.288 73.7508 929.024 73.7508 Q924.042 73.7508 920.436 71.8063 Q916.872 69.8214 914.522 65.7705 L914.522 72.576 L907.028 72.576 L907.028 9.54393 L914.522 9.54393 L914.522 34.0924 Z" fill="#000000" fill-rule="nonzero" fill-opacity="1"></path><path clip-path="url(#clip590)" d="M959.973 9.54393 L967.427 9.54393 L967.427 72.576 L959.973 72.576 L959.973 9.54393 Z" fill="#000000" fill-rule="nonzero" fill-opacity="1"></path><path clip-path="url(#clip590)" d="M1021.83 48.0275 L1021.83 51.6733 L987.56 51.6733 Q988.046 59.3701 992.178 63.421 Q996.35 67.4314 1003.76 67.4314 Q1008.06 67.4314 1012.07 66.3781 Q1016.12 65.3249 1020.09 63.2184 L1020.09 70.267 Q1016.08 71.9684 1011.87 72.8596 Q1007.65 73.7508 1003.32 73.7508 Q992.461 73.7508 986.101 67.4314 Q979.782 61.1119 979.782 50.3365 Q979.782 39.1965 985.777 32.6746 Q991.813 26.1121 1002.02 26.1121 Q1011.18 26.1121 1016.48 32.0264 Q1021.83 37.9003 1021.83 48.0275 M1014.38 45.84 Q1014.3 39.7232 1010.93 36.0774 Q1007.61 32.4315 1002.1 32.4315 Q995.864 32.4315 992.097 35.9558 Q988.37 39.4801 987.803 45.8805 L1014.38 45.84 Z" fill="#000000" fill-rule="nonzero" fill-opacity="1"></path><path clip-path="url(#clip590)" d="M1062.99 28.5427 L1062.99 35.5912 Q1059.83 33.9709 1056.43 33.1607 Q1053.02 32.3505 1049.38 32.3505 Q1043.83 32.3505 1041.03 34.0519 Q1038.28 35.7533 1038.28 39.156 Q1038.28 41.7486 1040.26 43.2475 Q1042.25 44.7058 1048.24 46.0426 L1050.79 46.6097 Q1058.73 48.3111 1062.06 51.4303 Q1065.42 54.509 1065.42 60.0587 Q1065.42 66.3781 1060.4 70.0644 Q1055.41 73.7508 1046.66 73.7508 Q1043.02 73.7508 1039.05 73.0216 Q1035.12 72.3329 1030.74 70.9151 L1030.74 63.2184 Q1034.87 65.3654 1038.88 66.4591 Q1042.9 67.5124 1046.82 67.5124 Q1052.09 67.5124 1054.93 65.73 Q1057.76 63.9071 1057.76 60.6258 Q1057.76 57.5877 1055.7 55.9673 Q1053.67 54.3469 1046.74 52.8481 L1044.15 52.2405 Q1037.22 50.7821 1034.15 47.7845 Q1031.07 44.7463 1031.07 39.4801 Q1031.07 33.0797 1035.6 29.5959 Q1040.14 26.1121 1048.49 26.1121 Q1052.62 26.1121 1056.26 26.7198 Q1059.91 27.3274 1062.99 28.5427 Z" fill="#000000" fill-rule="nonzero" fill-opacity="1"></path><path clip-path="url(#clip590)" d="M1113.26 9.17935 L1113.26 92.1419 L1106.37 92.1419 L1106.37 9.17935 L1113.26 9.17935 Z" fill="#000000" fill-rule="nonzero" fill-opacity="1"></path><path clip-path="url(#clip590)" d="M1183.83 39.9662 Q1189.7 41.222 1192.98 45.1919 Q1196.3 49.1618 1196.3 54.9951 Q1196.3 63.9476 1190.15 68.8492 Q1183.99 73.7508 1172.65 73.7508 Q1168.84 73.7508 1164.79 72.9811 Q1160.78 72.2519 1156.48 70.7531 L1156.48 62.8538 Q1159.89 64.8388 1163.94 65.8515 Q1167.99 66.8642 1172.4 66.8642 Q1180.1 66.8642 1184.11 63.826 Q1188.16 60.7879 1188.16 54.9951 Q1188.16 49.6479 1184.39 46.6502 Q1180.67 43.612 1173.98 43.612 L1166.93 43.612 L1166.93 36.8875 L1174.31 36.8875 Q1180.34 36.8875 1183.54 34.4975 Q1186.74 32.067 1186.74 27.5299 Q1186.74 22.8714 1183.42 20.4004 Q1180.14 17.8888 1173.98 17.8888 Q1170.62 17.8888 1166.77 18.618 Q1162.92 19.3471 1158.31 20.8865 L1158.31 13.5948 Q1162.96 12.2985 1167.01 11.6504 Q1171.11 11.0023 1174.71 11.0023 Q1184.03 11.0023 1189.46 15.2557 Q1194.89 19.4686 1194.89 26.6793 Q1194.89 31.7024 1192.01 35.1862 Q1189.13 38.6294 1183.83 39.9662 Z" fill="#000000" fill-rule="nonzero" fill-opacity="1"></path><path clip-path="url(#clip590)" d="M1254.72 32.4315 Q1248.72 32.4315 1245.24 37.1306 Q1241.75 41.7891 1241.75 49.9314 Q1241.75 58.0738 1245.2 62.7728 Q1248.68 67.4314 1254.72 67.4314 Q1260.67 67.4314 1264.16 62.7323 Q1267.64 58.0333 1267.64 49.9314 Q1267.64 41.8701 1264.16 37.1711 Q1260.67 32.4315 1254.72 32.4315 M1254.72 26.1121 Q1264.44 26.1121 1269.99 32.4315 Q1275.54 38.7509 1275.54 49.9314 Q1275.54 61.0714 1269.99 67.4314 Q1264.44 73.7508 1254.72 73.7508 Q1244.95 73.7508 1239.4 67.4314 Q1233.9 61.0714 1233.9 49.9314 Q1233.9 38.7509 1239.4 32.4315 Q1244.95 26.1121 1254.72 26.1121 Z" fill="#000000" fill-rule="nonzero" fill-opacity="1"></path><path clip-path="url(#clip590)" d="M1320.46 49.9314 Q1320.46 41.7081 1317.06 37.0496 Q1313.7 32.3505 1307.78 32.3505 Q1301.87 32.3505 1298.47 37.0496 Q1295.1 41.7081 1295.1 49.9314 Q1295.1 58.1548 1298.47 62.8538 Q1301.87 67.5124 1307.78 67.5124 Q1313.7 67.5124 1317.06 62.8538 Q1320.46 58.1548 1320.46 49.9314 M1295.1 34.0924 Q1297.45 30.0415 1301.02 28.0971 Q1304.62 26.1121 1309.61 26.1121 Q1317.87 26.1121 1323.02 32.6746 Q1328.2 39.2371 1328.2 49.9314 Q1328.2 60.6258 1323.02 67.1883 Q1317.87 73.7508 1309.61 73.7508 Q1304.62 73.7508 1301.02 71.8063 Q1297.45 69.8214 1295.1 65.7705 L1295.1 72.576 L1287.61 72.576 L1287.61 9.54393 L1295.1 9.54393 L1295.1 34.0924 Z" fill="#000000" fill-rule="nonzero" fill-opacity="1"></path><path clip-path="url(#clip590)" d="M1340.56 27.2059 L1348.01 27.2059 L1348.01 73.3862 Q1348.01 82.0551 1344.69 85.944 Q1341.41 89.8329 1334.07 89.8329 L1331.24 89.8329 L1331.24 83.5134 L1333.22 83.5134 Q1337.48 83.5134 1339.02 81.5285 Q1340.56 79.5841 1340.56 73.3862 L1340.56 27.2059 M1340.56 9.54393 L1348.01 9.54393 L1348.01 18.9825 L1340.56 18.9825 L1340.56 9.54393 Z" fill="#000000" fill-rule="nonzero" fill-opacity="1"></path><path clip-path="url(#clip590)" d="M1402.41 48.0275 L1402.41 51.6733 L1368.14 51.6733 Q1368.63 59.3701 1372.76 63.421 Q1376.93 67.4314 1384.35 67.4314 Q1388.64 67.4314 1392.65 66.3781 Q1396.7 65.3249 1400.67 63.2184 L1400.67 70.267 Q1396.66 71.9684 1392.45 72.8596 Q1388.23 73.7508 1383.9 73.7508 Q1373.04 73.7508 1366.68 67.4314 Q1360.36 61.1119 1360.36 50.3365 Q1360.36 39.1965 1366.36 32.6746 Q1372.4 26.1121 1382.6 26.1121 Q1391.76 26.1121 1397.07 32.0264 Q1402.41 37.9003 1402.41 48.0275 M1394.96 45.84 Q1394.88 39.7232 1391.52 36.0774 Q1388.19 32.4315 1382.68 32.4315 Q1376.45 32.4315 1372.68 35.9558 Q1368.95 39.4801 1368.39 45.8805 L1394.96 45.84 Z" fill="#000000" fill-rule="nonzero" fill-opacity="1"></path><path clip-path="url(#clip590)" d="M1447.3 28.9478 L1447.3 35.9153 Q1444.14 34.1734 1440.94 33.3227 Q1437.78 32.4315 1434.54 32.4315 Q1427.29 32.4315 1423.28 37.0496 Q1419.26 41.6271 1419.26 49.9314 Q1419.26 58.2358 1423.28 62.8538 Q1427.29 67.4314 1434.54 67.4314 Q1437.78 67.4314 1440.94 66.5807 Q1444.14 65.6895 1447.3 63.9476 L1447.3 70.8341 Q1444.18 72.2924 1440.82 73.0216 Q1437.49 73.7508 1433.73 73.7508 Q1423.48 73.7508 1417.44 67.3098 Q1411.41 60.8689 1411.41 49.9314 Q1411.41 38.832 1417.48 32.472 Q1423.6 26.1121 1434.21 26.1121 Q1437.66 26.1121 1440.94 26.8413 Q1444.22 27.5299 1447.3 28.9478 Z" fill="#000000" fill-rule="nonzero" fill-opacity="1"></path><path clip-path="url(#clip590)" d="M1467.63 14.324 L1467.63 27.2059 L1482.99 27.2059 L1482.99 32.9987 L1467.63 32.9987 L1467.63 57.6282 Q1467.63 63.1779 1469.13 64.7578 Q1470.67 66.3376 1475.33 66.3376 L1482.99 66.3376 L1482.99 72.576 L1475.33 72.576 Q1466.7 72.576 1463.42 69.3758 Q1460.14 66.1351 1460.14 57.6282 L1460.14 32.9987 L1454.67 32.9987 L1454.67 27.2059 L1460.14 27.2059 L1460.14 14.324 L1467.63 14.324 Z" fill="#000000" fill-rule="nonzero" fill-opacity="1"></path><path clip-path="url(#clip590)" d="M1492.79 27.2059 L1500.24 27.2059 L1500.24 72.576 L1492.79 72.576 L1492.79 27.2059 M1492.79 9.54393 L1500.24 9.54393 L1500.24 18.9825 L1492.79 18.9825 L1492.79 9.54393 Z" fill="#000000" fill-rule="nonzero" fill-opacity="1"></path><path clip-path="url(#clip590)" d="M1510.49 27.2059 L1518.39 27.2059 L1532.57 65.2844 L1546.75 27.2059 L1554.65 27.2059 L1537.63 72.576 L1527.5 72.576 L1510.49 27.2059 Z" fill="#000000" fill-rule="nonzero" fill-opacity="1"></path><path clip-path="url(#clip590)" d="M1603.74 48.0275 L1603.74 51.6733 L1569.47 51.6733 Q1569.96 59.3701 1574.09 63.421 Q1578.26 67.4314 1585.68 67.4314 Q1589.97 67.4314 1593.98 66.3781 Q1598.03 65.3249 1602 63.2184 L1602 70.267 Q1597.99 71.9684 1593.78 72.8596 Q1589.56 73.7508 1585.23 73.7508 Q1574.37 73.7508 1568.01 67.4314 Q1561.69 61.1119 1561.69 50.3365 Q1561.69 39.1965 1567.69 32.6746 Q1573.73 26.1121 1583.93 26.1121 Q1593.09 26.1121 1598.4 32.0264 Q1603.74 37.9003 1603.74 48.0275 M1596.29 45.84 Q1596.21 39.7232 1592.85 36.0774 Q1589.52 32.4315 1584.01 32.4315 Q1577.78 32.4315 1574.01 35.9558 Q1570.28 39.4801 1569.72 45.8805 L1596.29 45.84 Z" fill="#000000" fill-rule="nonzero" fill-opacity="1"></path><path clip-path="url(#clip590)" d="M1644.9 28.5427 L1644.9 35.5912 Q1641.74 33.9709 1638.34 33.1607 Q1634.93 32.3505 1631.29 32.3505 Q1625.74 32.3505 1622.94 34.0519 Q1620.19 35.7533 1620.19 39.156 Q1620.19 41.7486 1622.17 43.2475 Q1624.16 44.7058 1630.15 46.0426 L1632.71 46.6097 Q1640.65 48.3111 1643.97 51.4303 Q1647.33 54.509 1647.33 60.0587 Q1647.33 66.3781 1642.31 70.0644 Q1637.32 73.7508 1628.57 73.7508 Q1624.93 73.7508 1620.96 73.0216 Q1617.03 72.3329 1612.65 70.9151 L1612.65 63.2184 Q1616.79 65.3654 1620.8 66.4591 Q1624.81 67.5124 1628.74 67.5124 Q1634 67.5124 1636.84 65.73 Q1639.67 63.9071 1639.67 60.6258 Q1639.67 57.5877 1637.61 55.9673 Q1635.58 54.3469 1628.66 52.8481 L1626.06 52.2405 Q1619.14 50.7821 1616.06 47.7845 Q1612.98 44.7463 1612.98 39.4801 Q1612.98 33.0797 1617.52 29.5959 Q1622.05 26.1121 1630.4 26.1121 Q1634.53 26.1121 1638.18 26.7198 Q1641.82 27.3274 1644.9 28.5427 Z" fill="#000000" fill-rule="nonzero" fill-opacity="1"></path><path clip-path="url(#clip590)" d="M1695.17 9.17935 L1695.17 92.1419 L1688.29 92.1419 L1688.29 9.17935 L1695.17 9.17935 Z" fill="#000000" fill-rule="nonzero" fill-opacity="1"></path><path clip-path="url(#clip590)" d="M1748 65.6895 L1776.55 65.6895 L1776.55 72.576 L1738.15 72.576 L1738.15 65.6895 Q1742.81 60.8689 1750.83 52.7671 Q1758.89 44.6248 1760.96 42.2752 Q1764.89 37.8598 1766.43 34.8216 Q1768.01 31.7429 1768.01 28.7857 Q1768.01 23.9651 1764.6 20.927 Q1761.24 17.8888 1755.81 17.8888 Q1751.97 17.8888 1747.67 19.2256 Q1743.42 20.5624 1738.56 23.2765 L1738.56 15.0127 Q1743.5 13.0277 1747.79 12.015 Q1752.09 11.0023 1755.65 11.0023 Q1765.05 11.0023 1770.64 15.7013 Q1776.23 20.4004 1776.23 28.2591 Q1776.23 31.9859 1774.81 35.3482 Q1773.44 38.6699 1769.75 43.2069 Q1768.74 44.3817 1763.31 50.0125 Q1757.88 55.6027 1748 65.6895 Z" fill="#000000" fill-rule="nonzero" fill-opacity="1"></path><path clip-path="url(#clip590)" d="M1811.23 17.4837 Q1804.91 17.4837 1801.71 23.7221 Q1798.55 29.92 1798.55 42.3968 Q1798.55 54.833 1801.71 61.0714 Q1804.91 67.2693 1811.23 67.2693 Q1817.59 67.2693 1820.75 61.0714 Q1823.95 54.833 1823.95 42.3968 Q1823.95 29.92 1820.75 23.7221 Q1817.59 17.4837 1811.23 17.4837 M1811.23 11.0023 Q1821.4 11.0023 1826.75 19.0636 Q1832.13 27.0843 1832.13 42.3968 Q1832.13 57.6687 1826.75 65.73 Q1821.4 73.7508 1811.23 73.7508 Q1801.06 73.7508 1795.67 65.73 Q1790.33 57.6687 1790.33 42.3968 Q1790.33 27.0843 1795.67 19.0636 Q1801.06 11.0023 1811.23 11.0023 Z" fill="#000000" fill-rule="nonzero" fill-opacity="1"></path><path clip-path="url(#clip590)" d="M1879.2 14.324 L1879.2 27.2059 L1894.56 27.2059 L1894.56 32.9987 L1879.2 32.9987 L1879.2 57.6282 Q1879.2 63.1779 1880.7 64.7578 Q1882.24 66.3376 1886.9 66.3376 L1894.56 66.3376 L1894.56 72.576 L1886.9 72.576 Q1878.27 72.576 1874.99 69.3758 Q1871.71 66.1351 1871.71 57.6282 L1871.71 32.9987 L1866.24 32.9987 L1866.24 27.2059 L1871.71 27.2059 L1871.71 14.324 L1879.2 14.324 Z" fill="#000000" fill-rule="nonzero" fill-opacity="1"></path><path clip-path="url(#clip590)" d="M1930.65 34.1734 Q1929.4 33.4443 1927.9 33.1202 Q1926.44 32.7556 1924.66 32.7556 Q1918.34 32.7556 1914.93 36.8875 Q1911.57 40.9789 1911.57 48.6757 L1911.57 72.576 L1904.08 72.576 L1904.08 27.2059 L1911.57 27.2059 L1911.57 34.2544 Q1913.92 30.1225 1917.69 28.1376 Q1921.46 26.1121 1926.84 26.1121 Q1927.61 26.1121 1928.54 26.2337 Q1929.48 26.3147 1930.61 26.5172 L1930.65 34.1734 Z" fill="#000000" fill-rule="nonzero" fill-opacity="1"></path><path clip-path="url(#clip590)" d="M1938.47 27.2059 L1945.92 27.2059 L1945.92 72.576 L1938.47 72.576 L1938.47 27.2059 M1938.47 9.54393 L1945.92 9.54393 L1945.92 18.9825 L1938.47 18.9825 L1938.47 9.54393 Z" fill="#000000" fill-rule="nonzero" fill-opacity="1"></path><path clip-path="url(#clip590)" d="M1982.14 49.7694 Q1973.1 49.7694 1969.62 51.8354 Q1966.14 53.9013 1966.14 58.8839 Q1966.14 62.8538 1968.73 65.2034 Q1971.36 67.5124 1975.86 67.5124 Q1982.06 67.5124 1985.78 63.1374 Q1989.55 58.7219 1989.55 51.4303 L1989.55 49.7694 L1982.14 49.7694 M1997 46.6907 L1997 72.576 L1989.55 72.576 L1989.55 65.6895 Q1987 69.8214 1983.19 71.8063 Q1979.38 73.7508 1973.87 73.7508 Q1966.91 73.7508 1962.77 69.8619 Q1958.68 65.9325 1958.68 59.3701 Q1958.68 51.7138 1963.79 47.825 Q1968.93 43.9361 1979.1 43.9361 L1989.55 43.9361 L1989.55 43.2069 Q1989.55 38.0623 1986.15 35.2672 Q1982.79 32.4315 1976.67 32.4315 Q1972.78 32.4315 1969.09 33.3632 Q1965.41 34.295 1962 36.1584 L1962 29.2718 Q1966.1 27.692 1969.94 26.9223 Q1973.79 26.1121 1977.44 26.1121 Q1987.28 26.1121 1992.14 31.2163 Q1997 36.3204 1997 46.6907 Z" fill="#000000" fill-rule="nonzero" fill-opacity="1"></path><path clip-path="url(#clip590)" d="M2012.36 9.54393 L2019.81 9.54393 L2019.81 72.576 L2012.36 72.576 L2012.36 9.54393 Z" fill="#000000" fill-rule="nonzero" fill-opacity="1"></path><path clip-path="url(#clip590)" d="M2064.33 28.5427 L2064.33 35.5912 Q2061.17 33.9709 2057.77 33.1607 Q2054.37 32.3505 2050.72 32.3505 Q2045.17 32.3505 2042.37 34.0519 Q2039.62 35.7533 2039.62 39.156 Q2039.62 41.7486 2041.61 43.2475 Q2043.59 44.7058 2049.59 46.0426 L2052.14 46.6097 Q2060.08 48.3111 2063.4 51.4303 Q2066.76 54.509 2066.76 60.0587 Q2066.76 66.3781 2061.74 70.0644 Q2056.76 73.7508 2048.01 73.7508 Q2044.36 73.7508 2040.39 73.0216 Q2036.46 72.3329 2032.09 70.9151 L2032.09 63.2184 Q2036.22 65.3654 2040.23 66.4591 Q2044.24 67.5124 2048.17 67.5124 Q2053.43 67.5124 2056.27 65.73 Q2059.1 63.9071 2059.1 60.6258 Q2059.1 57.5877 2057.04 55.9673 Q2055.01 54.3469 2048.09 52.8481 L2045.49 52.2405 Q2038.57 50.7821 2035.49 47.7845 Q2032.41 44.7463 2032.41 39.4801 Q2032.41 33.0797 2036.95 29.5959 Q2041.48 26.1121 2049.83 26.1121 Q2053.96 26.1121 2057.61 26.7198 Q2061.25 27.3274 2064.33 28.5427 Z" fill="#000000" fill-rule="nonzero" fill-opacity="1"></path><polyline clip-path="url(#clip592)" style="stroke:#009af9; stroke-linecap:round; stroke-linejoin:round; stroke-width:8; stroke-opacity:1; fill:none" points="338.375,158.642 417.394,825.14 516.167,850.554 614.94,1127.26 713.713,1217.85 1306.35,1330.98 2294.08,1307.04 "></polyline>
<circle clip-path="url(#clip592)" cx="338.375" cy="158.642" r="14.4" fill="#009af9" fill-rule="evenodd" fill-opacity="1" stroke="#000000" stroke-opacity="1" stroke-width="3.2"></circle>
<circle clip-path="url(#clip592)" cx="417.394" cy="825.14" r="14.4" fill="#009af9" fill-rule="evenodd" fill-opacity="1" stroke="#000000" stroke-opacity="1" stroke-width="3.2"></circle>
<circle clip-path="url(#clip592)" cx="516.167" cy="850.554" r="14.4" fill="#009af9" fill-rule="evenodd" fill-opacity="1" stroke="#000000" stroke-opacity="1" stroke-width="3.2"></circle>
<circle clip-path="url(#clip592)" cx="614.94" cy="1127.26" r="14.4" fill="#009af9" fill-rule="evenodd" fill-opacity="1" stroke="#000000" stroke-opacity="1" stroke-width="3.2"></circle>
<circle clip-path="url(#clip592)" cx="713.713" cy="1217.85" r="14.4" fill="#009af9" fill-rule="evenodd" fill-opacity="1" stroke="#000000" stroke-opacity="1" stroke-width="3.2"></circle>
<circle clip-path="url(#clip592)" cx="1306.35" cy="1330.98" r="14.4" fill="#009af9" fill-rule="evenodd" fill-opacity="1" stroke="#000000" stroke-opacity="1" stroke-width="3.2"></circle>
<circle clip-path="url(#clip592)" cx="2294.08" cy="1307.04" r="14.4" fill="#009af9" fill-rule="evenodd" fill-opacity="1" stroke="#000000" stroke-opacity="1" stroke-width="3.2"></circle>
</svg>