<svg xmlns="http://www.w3.org/2000/svg" xmlns:xlink="http://www.w3.org/1999/xlink" width="600" height="400" viewBox="0 0 2400 1600">
<defs>
  <clipPath id="clip390">
    <rect x="0" y="0" width="2400" height="1600"></rect>
  </clipPath>
</defs>
<path clip-path="url(#clip390)" d="M0 1600 L2400 1600 L2400 8.88178e-14 L0 8.88178e-14  Z" fill="#ffffff" fill-rule="evenodd" fill-opacity="1"></path>
<defs>
  <clipPath id="clip391">
    <rect x="480" y="0" width="1681" height="1600"></rect>
  </clipPath>
</defs>
<path clip-path="url(#clip390)" d="M279.704 1366.15 L2352.76 1366.15 L2352.76 123.472 L279.704 123.472  Z" fill="#ffffff" fill-rule="evenodd" fill-opacity="1"></path>
<defs>
  <clipPath id="clip392">
    <rect x="279" y="123" width="2074" height="1244"></rect>
  </clipPath>
</defs>
<polyline clip-path="url(#clip392)" style="stroke:#000000; stroke-linecap:round; stroke-linejoin:round; stroke-width:2; stroke-opacity:0.1; fill:none" points="338.375,1366.15 338.375,123.472 "></polyline>
<polyline clip-path="url(#clip392)" style="stroke:#000000; stroke-linecap:round; stroke-linejoin:round; stroke-width:2; stroke-opacity:0.1; fill:none" points="417.394,1366.15 417.394,123.472 "></polyline>
<polyline clip-path="url(#clip392)" style="stroke:#000000; stroke-linecap:round; stroke-linejoin:round; stroke-width:2; stroke-opacity:0.1; fill:none" points="516.167,1366.15 516.167,123.472 "></polyline>
<polyline clip-path="url(#clip392)" style="stroke:#000000; stroke-linecap:round; stroke-linejoin:round; stroke-width:2; stroke-opacity:0.1; fill:none" points="614.94,1366.15 614.94,123.472 "></polyline>
<polyline clip-path="url(#clip392)" style="stroke:#000000; stroke-linecap:round; stroke-linejoin:round; stroke-width:2; stroke-opacity:0.1; fill:none" points="713.713,1366.15 713.713,123.472 "></polyline>
<polyline clip-path="url(#clip392)" style="stroke:#000000; stroke-linecap:round; stroke-linejoin:round; stroke-width:2; stroke-opacity:0.1; fill:none" points="1306.35,1366.15 1306.35,123.472 "></polyline>
<polyline clip-path="url(#clip392)" style="stroke:#000000; stroke-linecap:round; stroke-linejoin:round; stroke-width:2; stroke-opacity:0.1; fill:none" points="2294.08,1366.15 2294.08,123.472 "></polyline>
<polyline clip-path="url(#clip392)" style="stroke:#000000; stroke-linecap:round; stroke-linejoin:round; stroke-width:2; stroke-opacity:0.1; fill:none" points="279.704,1274.1 2352.76,1274.1 "></polyline>
<polyline clip-path="url(#clip392)" style="stroke:#000000; stroke-linecap:round; stroke-linejoin:round; stroke-width:2; stroke-opacity:0.1; fill:none" points="279.704,1083.4 2352.76,1083.4 "></polyline>
<polyline clip-path="url(#clip392)" style="stroke:#000000; stroke-linecap:round; stroke-linejoin:round; stroke-width:2; stroke-opacity:0.1; fill:none" points="279.704,892.708 2352.76,892.708 "></polyline>
<polyline clip-path="url(#clip392)" style="stroke:#000000; stroke-linecap:round; stroke-linejoin:round; stroke-width:2; stroke-opacity:0.1; fill:none" points="279.704,702.013 2352.76,702.013 "></polyline>
<polyline clip-path="url(#clip392)" style="stroke:#000000; stroke-linecap:round; stroke-linejoin:round; stroke-width:2; stroke-opacity:0.1; fill:none" points="279.704,511.319 2352.76,511.319 "></polyline>
<polyline clip-path="url(#clip392)" style="stroke:#000000; stroke-linecap:round; stroke-linejoin:round; stroke-width:2; stroke-opacity:0.1; fill:none" points="279.704,320.625 2352.76,320.625 "></polyline>
<polyline clip-path="url(#clip392)" style="stroke:#000000; stroke-linecap:round; stroke-linejoin:round; stroke-width:2; stroke-opacity:0.1; fill:none" points="279.704,129.93 2352.76,129.93 "></polyline>
<polyline clip-path="url(#clip390)" style="stroke:#000000; stroke-linecap:round; stroke-linejoin:round; stroke-width:4; stroke-opacity:1; fill:none" points="279.704,1366.15 2352.76,1366.15 "></polyline>
<polyline clip-path="url(#clip390)" style="stroke:#000000; stroke-linecap:round; stroke-linejoin:round; stroke-width:4; stroke-opacity:1; fill:none" points="338.375,1366.15 338.375,1347.25 "></polyline>
<polyline clip-path="url(#clip390)" style="stroke:#000000; stroke-linecap:round; stroke-linejoin:round; stroke-width:4; stroke-opacity:1; fill:none" points="417.394,1366.15 417.394,1347.25 "></polyline>
<polyline clip-path="url(#clip390)" style="stroke:#000000; stroke-linecap:round; stroke-linejoin:round; stroke-width:4; stroke-opacity:1; fill:none" points="516.167,1366.15 516.167,1347.25 "></polyline>
<polyline clip-path="url(#clip390)" style="stroke:#000000; stroke-linecap:round; stroke-linejoin:round; stroke-width:4; stroke-opacity:1; fill:none" points="614.94,1366.15 614.94,1347.25 "></polyline>
<polyline clip-path="url(#clip390)" style="stroke:#000000; stroke-linecap:round; stroke-linejoin:round; stroke-width:4; stroke-opacity:1; fill:none" points="713.713,1366.15 713.713,1347.25 "></polyline>
<polyline clip-path="url(#clip390)" style="stroke:#000000; stroke-linecap:round; stroke-linejoin:round; stroke-width:4; stroke-opacity:1; fill:none" points="1306.35,1366.15 1306.35,1347.25 "></polyline>
<polyline clip-path="url(#clip390)" style="stroke:#000000; stroke-linecap:round; stroke-linejoin:round; stroke-width:4; stroke-opacity:1; fill:none" points="2294.08,1366.15 2294.08,1347.25 "></polyline>
<path clip-path="url(#clip390)" d="M290.212 1470.71 L295.613 1465.31 L276.97 1446.67 L272.273 1453.72 L269.261 1450.71 L273.926 1443.69 L277.232 1440.38 L298.887 1462.04 L304.289 1456.64 L307.071 1459.42 L292.995 1473.5 L290.212 1470.71 Z" fill="#000000" fill-rule="nonzero" fill-opacity="1"></path><path clip-path="url(#clip390)" d="M298.56 1423.41 Q296.006 1425.96 297.234 1429.78 Q298.462 1433.56 303.503 1438.6 Q308.528 1443.62 312.325 1444.87 Q316.123 1446.08 318.676 1443.53 Q321.246 1440.96 320.018 1437.17 Q318.791 1433.36 313.766 1428.34 Q308.724 1423.29 304.927 1422.08 Q301.13 1420.84 298.56 1423.41 M295.941 1420.79 Q300.049 1416.68 305.467 1417.78 Q310.885 1418.84 317.072 1425.03 Q323.243 1431.2 324.323 1436.63 Q325.403 1442.04 321.295 1446.14 Q317.187 1450.25 311.769 1449.19 Q306.351 1448.09 300.18 1441.92 Q293.993 1435.73 292.913 1430.33 Q291.832 1424.9 295.941 1420.79 Z" fill="#000000" fill-rule="nonzero" fill-opacity="1"></path><path clip-path="url(#clip390)" d="M319.887 1402.08 Q317.334 1404.64 318.562 1408.45 Q319.789 1412.23 324.831 1417.27 Q329.856 1422.3 333.653 1423.54 Q337.45 1424.75 340.004 1422.2 Q342.574 1419.63 341.346 1415.85 Q340.118 1412.03 335.093 1407.01 Q330.052 1401.97 326.255 1400.76 Q322.457 1399.51 319.887 1402.08 M317.268 1399.46 Q321.377 1395.35 326.795 1396.45 Q332.213 1397.51 338.4 1403.7 Q344.571 1409.87 345.651 1415.31 Q346.731 1420.71 342.623 1424.82 Q338.514 1428.93 333.096 1427.86 Q327.679 1426.76 321.508 1420.59 Q315.321 1414.41 314.24 1409.01 Q313.16 1403.57 317.268 1399.46 Z" fill="#000000" fill-rule="nonzero" fill-opacity="1"></path><path clip-path="url(#clip390)" d="M347.035 1449.6 L360.015 1436.62 L362.798 1439.4 L352.846 1449.35 L358.837 1455.34 Q359.311 1454.38 359.917 1453.54 Q360.506 1452.69 361.227 1451.97 Q365.319 1447.88 369.951 1447.73 Q374.583 1447.58 378.413 1451.42 Q382.358 1455.36 382.096 1460.01 Q381.818 1464.64 377.349 1469.11 Q375.811 1470.65 373.945 1471.99 Q372.095 1473.32 369.869 1474.49 L366.546 1471.17 Q368.821 1470.5 370.786 1469.32 Q372.75 1468.14 374.501 1466.39 Q377.333 1463.56 377.496 1460.42 Q377.66 1457.27 375.107 1454.72 Q372.553 1452.17 369.411 1452.33 Q366.268 1452.5 363.436 1455.33 Q362.11 1456.65 361.079 1458.27 Q360.064 1459.88 359.311 1461.87 L347.035 1449.6 Z" fill="#000000" fill-rule="nonzero" fill-opacity="1"></path><path clip-path="url(#clip390)" d="M377.578 1423.41 Q375.025 1425.96 376.252 1429.78 Q377.48 1433.56 382.521 1438.6 Q387.546 1443.62 391.344 1444.87 Q395.141 1446.08 397.695 1443.53 Q400.265 1440.96 399.037 1437.17 Q397.809 1433.36 392.784 1428.34 Q387.743 1423.29 383.945 1422.08 Q380.148 1420.84 377.578 1423.41 M374.959 1420.79 Q379.068 1416.68 384.486 1417.78 Q389.903 1418.84 396.091 1425.03 Q402.261 1431.2 403.342 1436.63 Q404.422 1442.04 400.314 1446.14 Q396.205 1450.25 390.787 1449.19 Q385.37 1448.09 379.199 1441.92 Q373.012 1435.73 371.931 1430.33 Q370.851 1424.9 374.959 1420.79 Z" fill="#000000" fill-rule="nonzero" fill-opacity="1"></path><path clip-path="url(#clip390)" d="M398.906 1402.08 Q396.353 1404.64 397.58 1408.45 Q398.808 1412.23 403.849 1417.27 Q408.874 1422.3 412.672 1423.54 Q416.469 1424.75 419.022 1422.2 Q421.592 1419.63 420.365 1415.85 Q419.137 1412.03 414.112 1407.01 Q409.071 1401.97 405.273 1400.76 Q401.476 1399.51 398.906 1402.08 M396.287 1399.46 Q400.395 1395.35 405.813 1396.45 Q411.231 1397.51 417.418 1403.7 Q423.589 1409.87 424.669 1415.31 Q425.75 1420.71 421.641 1424.82 Q417.533 1428.93 412.115 1427.86 Q406.697 1426.76 400.526 1420.59 Q394.339 1414.41 393.259 1409.01 Q392.179 1403.57 396.287 1399.46 Z" fill="#000000" fill-rule="nonzero" fill-opacity="1"></path><path clip-path="url(#clip390)" d="M446.676 1492.04 L452.078 1486.64 L433.434 1468 L428.737 1475.05 L425.725 1472.04 L430.39 1465.02 L433.696 1461.71 L455.351 1483.37 L460.753 1477.96 L463.535 1480.75 L449.459 1494.82 L446.676 1492.04 Z" fill="#000000" fill-rule="nonzero" fill-opacity="1"></path><path clip-path="url(#clip390)" d="M455.024 1444.74 Q452.47 1447.29 453.698 1451.1 Q454.926 1454.89 459.967 1459.93 Q464.992 1464.95 468.789 1466.2 Q472.587 1467.41 475.14 1464.85 Q477.71 1462.28 476.482 1458.5 Q475.255 1454.69 470.23 1449.66 Q465.188 1444.62 461.391 1443.41 Q457.594 1442.17 455.024 1444.74 M452.405 1442.12 Q456.513 1438.01 461.931 1439.11 Q467.349 1440.17 473.536 1446.36 Q479.707 1452.53 480.787 1457.96 Q481.868 1463.36 477.759 1467.47 Q473.651 1471.58 468.233 1470.52 Q462.815 1469.42 456.644 1463.25 Q450.457 1457.06 449.377 1451.66 Q448.297 1446.23 452.405 1442.12 Z" fill="#000000" fill-rule="nonzero" fill-opacity="1"></path><path clip-path="url(#clip390)" d="M476.351 1423.41 Q473.798 1425.96 475.026 1429.78 Q476.253 1433.56 481.295 1438.6 Q486.32 1443.62 490.117 1444.87 Q493.914 1446.08 496.468 1443.53 Q499.038 1440.96 497.81 1437.17 Q496.582 1433.36 491.557 1428.34 Q486.516 1423.29 482.719 1422.08 Q478.921 1420.84 476.351 1423.41 M473.733 1420.79 Q477.841 1416.68 483.259 1417.78 Q488.677 1418.84 494.864 1425.03 Q501.035 1431.2 502.115 1436.63 Q503.195 1442.04 499.087 1446.14 Q494.978 1450.25 489.561 1449.19 Q484.143 1448.09 477.972 1441.92 Q471.785 1435.73 470.704 1430.33 Q469.624 1424.9 473.733 1420.79 Z" fill="#000000" fill-rule="nonzero" fill-opacity="1"></path><path clip-path="url(#clip390)" d="M497.679 1402.08 Q495.126 1404.64 496.353 1408.45 Q497.581 1412.23 502.622 1417.27 Q507.647 1422.3 511.445 1423.54 Q515.242 1424.75 517.796 1422.2 Q520.365 1419.63 519.138 1415.85 Q517.91 1412.03 512.885 1407.01 Q507.844 1401.97 504.046 1400.76 Q500.249 1399.51 497.679 1402.08 M495.06 1399.46 Q499.169 1395.35 504.587 1396.45 Q510.004 1397.51 516.192 1403.7 Q522.362 1409.87 523.443 1415.31 Q524.523 1420.71 520.414 1424.82 Q516.306 1428.93 510.888 1427.86 Q505.47 1426.76 499.3 1420.59 Q493.112 1414.41 492.032 1409.01 Q490.952 1403.57 495.06 1399.46 Z" fill="#000000" fill-rule="nonzero" fill-opacity="1"></path><path clip-path="url(#clip390)" d="M545.449 1492.04 L550.851 1486.64 L532.207 1468 L527.51 1475.05 L524.498 1472.04 L529.163 1465.02 L532.469 1461.71 L554.124 1483.37 L559.526 1477.96 L562.308 1480.75 L548.232 1494.82 L545.449 1492.04 Z" fill="#000000" fill-rule="nonzero" fill-opacity="1"></path><path clip-path="url(#clip390)" d="M544.582 1449.6 L557.562 1436.62 L560.344 1439.4 L550.392 1449.35 L556.383 1455.34 Q556.858 1454.38 557.463 1453.54 Q558.053 1452.69 558.773 1451.97 Q562.865 1447.88 567.497 1447.73 Q572.129 1447.58 575.959 1451.42 Q579.904 1455.36 579.642 1460.01 Q579.364 1464.64 574.896 1469.11 Q573.357 1470.65 571.491 1471.99 Q569.641 1473.32 567.415 1474.49 L564.093 1471.17 Q566.368 1470.5 568.332 1469.32 Q570.296 1468.14 572.047 1466.39 Q574.879 1463.56 575.043 1460.42 Q575.207 1457.27 572.653 1454.72 Q570.1 1452.17 566.957 1452.33 Q563.814 1452.5 560.983 1455.33 Q559.657 1456.65 558.626 1458.27 Q557.611 1459.88 556.858 1461.87 L544.582 1449.6 Z" fill="#000000" fill-rule="nonzero" fill-opacity="1"></path><path clip-path="url(#clip390)" d="M575.125 1423.41 Q572.571 1425.96 573.799 1429.78 Q575.026 1433.56 580.068 1438.6 Q585.093 1443.62 588.89 1444.87 Q592.688 1446.08 595.241 1443.53 Q597.811 1440.96 596.583 1437.17 Q595.356 1433.36 590.331 1428.34 Q585.289 1423.29 581.492 1422.08 Q577.694 1420.84 575.125 1423.41 M572.506 1420.79 Q576.614 1416.68 582.032 1417.78 Q587.45 1418.84 593.637 1425.03 Q599.808 1431.2 600.888 1436.63 Q601.968 1442.04 597.86 1446.14 Q593.752 1450.25 588.334 1449.19 Q582.916 1448.09 576.745 1441.92 Q570.558 1435.73 569.478 1430.33 Q568.397 1424.9 572.506 1420.79 Z" fill="#000000" fill-rule="nonzero" fill-opacity="1"></path><path clip-path="url(#clip390)" d="M596.452 1402.08 Q593.899 1404.64 595.127 1408.45 Q596.354 1412.23 601.396 1417.27 Q606.421 1422.3 610.218 1423.54 Q614.015 1424.75 616.569 1422.2 Q619.139 1419.63 617.911 1415.85 Q616.683 1412.03 611.658 1407.01 Q606.617 1401.97 602.82 1400.76 Q599.022 1399.51 596.452 1402.08 M593.833 1399.46 Q597.942 1395.35 603.36 1396.45 Q608.778 1397.51 614.965 1403.7 Q621.135 1409.87 622.216 1415.31 Q623.296 1420.71 619.188 1424.82 Q615.079 1428.93 609.661 1427.86 Q604.244 1426.76 598.073 1420.59 Q591.886 1414.41 590.805 1409.01 Q589.725 1403.57 593.833 1399.46 Z" fill="#000000" fill-rule="nonzero" fill-opacity="1"></path><path clip-path="url(#clip390)" d="M646.498 1489.77 L658.037 1478.23 L660.82 1481.01 L645.303 1496.53 L642.52 1493.74 Q642.455 1489.91 642.422 1483.4 Q642.389 1476.85 642.275 1475.07 Q642.078 1471.7 641.473 1469.85 Q640.867 1467.96 639.672 1466.77 Q637.724 1464.82 635.122 1464.97 Q632.536 1465.1 630.342 1467.29 Q628.787 1468.85 627.592 1471.12 Q626.414 1473.38 625.546 1476.44 L622.207 1473.1 Q623.402 1470.3 624.728 1468.16 Q626.054 1466.02 627.494 1464.58 Q631.292 1460.78 635.449 1460.42 Q639.607 1460.06 642.782 1463.23 Q644.288 1464.74 645.074 1466.67 Q645.859 1468.57 646.203 1471.89 Q646.269 1472.78 646.35 1477.24 Q646.416 1481.7 646.498 1489.77 Z" fill="#000000" fill-rule="nonzero" fill-opacity="1"></path><path clip-path="url(#clip390)" d="M652.57 1444.74 Q650.017 1447.29 651.244 1451.1 Q652.472 1454.89 657.513 1459.93 Q662.538 1464.95 666.336 1466.2 Q670.133 1467.41 672.687 1464.85 Q675.256 1462.28 674.029 1458.5 Q672.801 1454.69 667.776 1449.66 Q662.735 1444.62 658.937 1443.41 Q655.14 1442.17 652.57 1444.74 M649.951 1442.12 Q654.06 1438.01 659.478 1439.11 Q664.895 1440.17 671.083 1446.36 Q677.253 1452.53 678.334 1457.96 Q679.414 1463.36 675.306 1467.47 Q671.197 1471.58 665.779 1470.52 Q660.361 1469.42 654.191 1463.25 Q648.004 1457.06 646.923 1451.66 Q645.843 1446.23 649.951 1442.12 Z" fill="#000000" fill-rule="nonzero" fill-opacity="1"></path><path clip-path="url(#clip390)" d="M673.898 1423.41 Q671.344 1425.96 672.572 1429.78 Q673.8 1433.56 678.841 1438.6 Q683.866 1443.62 687.663 1444.87 Q691.461 1446.08 694.014 1443.53 Q696.584 1440.96 695.357 1437.17 Q694.129 1433.36 689.104 1428.34 Q684.063 1423.29 680.265 1422.08 Q676.468 1420.84 673.898 1423.41 M671.279 1420.79 Q675.387 1416.68 680.805 1417.78 Q686.223 1418.84 692.41 1425.03 Q698.581 1431.2 699.661 1436.63 Q700.742 1442.04 696.633 1446.14 Q692.525 1450.25 687.107 1449.19 Q681.689 1448.09 675.518 1441.92 Q669.331 1435.73 668.251 1430.33 Q667.171 1424.9 671.279 1420.79 Z" fill="#000000" fill-rule="nonzero" fill-opacity="1"></path><path clip-path="url(#clip390)" d="M695.226 1402.08 Q692.672 1404.64 693.9 1408.45 Q695.127 1412.23 700.169 1417.27 Q705.194 1422.3 708.991 1423.54 Q712.789 1424.75 715.342 1422.2 Q717.912 1419.63 716.684 1415.85 Q715.457 1412.03 710.432 1407.01 Q705.39 1401.97 701.593 1400.76 Q697.795 1399.51 695.226 1402.08 M692.607 1399.46 Q696.715 1395.35 702.133 1396.45 Q707.551 1397.51 713.738 1403.7 Q719.909 1409.87 720.989 1415.31 Q722.069 1420.71 717.961 1424.82 Q713.852 1428.93 708.435 1427.86 Q703.017 1426.76 696.846 1420.59 Q690.659 1414.41 689.579 1409.01 Q688.498 1403.57 692.607 1399.46 Z" fill="#000000" fill-rule="nonzero" fill-opacity="1"></path><path clip-path="url(#clip390)" d="M1214.67 1470.93 L1227.65 1457.95 L1230.43 1460.73 L1220.48 1470.68 L1226.47 1476.67 Q1226.94 1475.71 1227.55 1474.87 Q1228.14 1474.02 1228.86 1473.3 Q1232.95 1469.21 1237.58 1469.06 Q1242.21 1468.91 1246.04 1472.74 Q1249.99 1476.69 1249.73 1481.34 Q1249.45 1485.97 1244.98 1490.44 Q1243.44 1491.98 1241.58 1493.32 Q1239.73 1494.64 1237.5 1495.82 L1234.18 1492.5 Q1236.45 1491.83 1238.42 1490.65 Q1240.38 1489.47 1242.13 1487.72 Q1244.96 1484.89 1245.13 1481.75 Q1245.29 1478.6 1242.74 1476.05 Q1240.18 1473.5 1237.04 1473.66 Q1233.9 1473.82 1231.07 1476.65 Q1229.74 1477.98 1228.71 1479.6 Q1227.7 1481.21 1226.94 1483.2 L1214.67 1470.93 Z" fill="#000000" fill-rule="nonzero" fill-opacity="1"></path><path clip-path="url(#clip390)" d="M1245.21 1444.74 Q1242.66 1447.29 1243.88 1451.1 Q1245.11 1454.89 1250.15 1459.93 Q1255.18 1464.95 1258.98 1466.2 Q1262.77 1467.41 1265.33 1464.85 Q1267.9 1462.28 1266.67 1458.5 Q1265.44 1454.69 1260.42 1449.66 Q1255.37 1444.62 1251.58 1443.41 Q1247.78 1442.17 1245.21 1444.74 M1242.59 1442.12 Q1246.7 1438.01 1252.12 1439.11 Q1257.53 1440.17 1263.72 1446.36 Q1269.89 1452.53 1270.97 1457.96 Q1272.05 1463.36 1267.94 1467.47 Q1263.84 1471.58 1258.42 1470.52 Q1253 1469.42 1246.83 1463.25 Q1240.64 1457.06 1239.56 1451.66 Q1238.48 1446.23 1242.59 1442.12 Z" fill="#000000" fill-rule="nonzero" fill-opacity="1"></path><path clip-path="url(#clip390)" d="M1266.54 1423.41 Q1263.98 1425.96 1265.21 1429.78 Q1266.44 1433.56 1271.48 1438.6 Q1276.51 1443.62 1280.3 1444.87 Q1284.1 1446.08 1286.65 1443.53 Q1289.22 1440.96 1288 1437.17 Q1286.77 1433.36 1281.74 1428.34 Q1276.7 1423.29 1272.9 1422.08 Q1269.11 1420.84 1266.54 1423.41 M1263.92 1420.79 Q1268.03 1416.68 1273.44 1417.78 Q1278.86 1418.84 1285.05 1425.03 Q1291.22 1431.2 1292.3 1436.63 Q1293.38 1442.04 1289.27 1446.14 Q1285.16 1450.25 1279.75 1449.19 Q1274.33 1448.09 1268.16 1441.92 Q1261.97 1435.73 1260.89 1430.33 Q1259.81 1424.9 1263.92 1420.79 Z" fill="#000000" fill-rule="nonzero" fill-opacity="1"></path><path clip-path="url(#clip390)" d="M1287.86 1402.08 Q1285.31 1404.64 1286.54 1408.45 Q1287.77 1412.23 1292.81 1417.27 Q1297.83 1422.3 1301.63 1423.54 Q1305.43 1424.75 1307.98 1422.2 Q1310.55 1419.63 1309.32 1415.85 Q1308.1 1412.03 1303.07 1407.01 Q1298.03 1401.97 1294.23 1400.76 Q1290.43 1399.51 1287.86 1402.08 M1285.25 1399.46 Q1289.35 1395.35 1294.77 1396.45 Q1300.19 1397.51 1306.38 1403.7 Q1312.55 1409.87 1313.63 1415.31 Q1314.71 1420.71 1310.6 1424.82 Q1306.49 1428.93 1301.07 1427.86 Q1295.66 1426.76 1289.49 1420.59 Q1283.3 1414.41 1282.22 1409.01 Q1281.14 1403.57 1285.25 1399.46 Z" fill="#000000" fill-rule="nonzero" fill-opacity="1"></path><path clip-path="url(#clip390)" d="M2203.27 1513.37 L2208.67 1507.97 L2190.02 1489.32 L2185.33 1496.38 L2182.31 1493.37 L2186.98 1486.34 L2190.29 1483.04 L2211.94 1504.69 L2217.34 1499.29 L2220.13 1502.07 L2206.05 1516.15 L2203.27 1513.37 Z" fill="#000000" fill-rule="nonzero" fill-opacity="1"></path><path clip-path="url(#clip390)" d="M2211.61 1466.06 Q2209.06 1468.62 2210.29 1472.43 Q2211.52 1476.21 2216.56 1481.25 Q2221.58 1486.28 2225.38 1487.52 Q2229.18 1488.73 2231.73 1486.18 Q2234.3 1483.61 2233.07 1479.83 Q2231.84 1476.02 2226.82 1470.99 Q2221.78 1465.95 2217.98 1464.74 Q2214.18 1463.49 2211.61 1466.06 M2208.99 1463.45 Q2213.1 1459.34 2218.52 1460.43 Q2223.94 1461.5 2230.13 1467.69 Q2236.3 1473.86 2237.38 1479.29 Q2238.46 1484.69 2234.35 1488.8 Q2230.24 1492.91 2224.82 1491.84 Q2219.41 1490.75 2213.23 1484.58 Q2207.05 1478.39 2205.97 1472.99 Q2204.89 1467.55 2208.99 1463.45 Z" fill="#000000" fill-rule="nonzero" fill-opacity="1"></path><path clip-path="url(#clip390)" d="M2232.94 1444.74 Q2230.39 1447.29 2231.62 1451.1 Q2232.84 1454.89 2237.88 1459.93 Q2242.91 1464.95 2246.71 1466.2 Q2250.5 1467.41 2253.06 1464.85 Q2255.63 1462.28 2254.4 1458.5 Q2253.17 1454.69 2248.15 1449.66 Q2243.11 1444.62 2239.31 1443.41 Q2235.51 1442.17 2232.94 1444.74 M2230.32 1442.12 Q2234.43 1438.01 2239.85 1439.11 Q2245.27 1440.17 2251.45 1446.36 Q2257.62 1452.53 2258.7 1457.96 Q2259.79 1463.36 2255.68 1467.47 Q2251.57 1471.58 2246.15 1470.52 Q2240.73 1469.42 2234.56 1463.25 Q2228.37 1457.06 2227.29 1451.66 Q2226.21 1446.23 2230.32 1442.12 Z" fill="#000000" fill-rule="nonzero" fill-opacity="1"></path><path clip-path="url(#clip390)" d="M2254.27 1423.41 Q2251.72 1425.96 2252.94 1429.78 Q2254.17 1433.56 2259.21 1438.6 Q2264.24 1443.62 2268.03 1444.87 Q2271.83 1446.08 2274.39 1443.53 Q2276.96 1440.96 2275.73 1437.17 Q2274.5 1433.36 2269.48 1428.34 Q2264.43 1423.29 2260.64 1422.08 Q2256.84 1420.84 2254.27 1423.41 M2251.65 1420.79 Q2255.76 1416.68 2261.18 1417.78 Q2266.59 1418.84 2272.78 1425.03 Q2278.95 1431.2 2280.03 1436.63 Q2281.11 1442.04 2277 1446.14 Q2272.9 1450.25 2267.48 1449.19 Q2262.06 1448.09 2255.89 1441.92 Q2249.7 1435.73 2248.62 1430.33 Q2247.54 1424.9 2251.65 1420.79 Z" fill="#000000" fill-rule="nonzero" fill-opacity="1"></path><path clip-path="url(#clip390)" d="M2275.6 1402.08 Q2273.04 1404.64 2274.27 1408.45 Q2275.5 1412.23 2280.54 1417.27 Q2285.57 1422.3 2289.36 1423.54 Q2293.16 1424.75 2295.71 1422.2 Q2298.28 1419.63 2297.06 1415.85 Q2295.83 1412.03 2290.8 1407.01 Q2285.76 1401.97 2281.96 1400.76 Q2278.17 1399.51 2275.6 1402.08 M2272.98 1399.46 Q2277.09 1395.35 2282.5 1396.45 Q2287.92 1397.51 2294.11 1403.7 Q2300.28 1409.87 2301.36 1415.31 Q2302.44 1420.71 2298.33 1424.82 Q2294.22 1428.93 2288.81 1427.86 Q2283.39 1426.76 2277.22 1420.59 Q2271.03 1414.41 2269.95 1409.01 Q2268.87 1403.57 2272.98 1399.46 Z" fill="#000000" fill-rule="nonzero" fill-opacity="1"></path><path clip-path="url(#clip390)" d="M1011.09 1549.04 L1019.75 1549.04 L1040.82 1588.79 L1040.82 1549.04 L1047.06 1549.04 L1047.06 1596.56 L1038.4 1596.56 L1017.33 1556.81 L1017.33 1596.56 L1011.09 1596.56 L1011.09 1549.04 Z" fill="#000000" fill-rule="nonzero" fill-opacity="1"></path><path clip-path="url(#clip390)" d="M1058.99 1582.49 L1058.99 1560.91 L1064.85 1560.91 L1064.85 1582.27 Q1064.85 1587.33 1066.82 1589.88 Q1068.79 1592.39 1072.74 1592.39 Q1077.48 1592.39 1080.22 1589.37 Q1082.99 1586.34 1082.99 1581.12 L1082.99 1560.91 L1088.85 1560.91 L1088.85 1596.56 L1082.99 1596.56 L1082.99 1591.08 Q1080.86 1594.33 1078.03 1595.92 Q1075.22 1597.48 1071.5 1597.48 Q1065.36 1597.48 1062.17 1593.66 Q1058.99 1589.84 1058.99 1582.49 M1073.73 1560.05 L1073.73 1560.05 Z" fill="#000000" fill-rule="nonzero" fill-opacity="1"></path><path clip-path="url(#clip390)" d="M1128.66 1567.75 Q1130.86 1563.81 1133.92 1561.93 Q1136.97 1560.05 1141.11 1560.05 Q1146.68 1560.05 1149.7 1563.97 Q1152.73 1567.85 1152.73 1575.04 L1152.73 1596.56 L1146.84 1596.56 L1146.84 1575.23 Q1146.84 1570.11 1145.02 1567.63 Q1143.21 1565.14 1139.49 1565.14 Q1134.93 1565.14 1132.29 1568.17 Q1129.65 1571.19 1129.65 1576.41 L1129.65 1596.56 L1123.76 1596.56 L1123.76 1575.23 Q1123.76 1570.08 1121.95 1567.63 Q1120.13 1565.14 1116.35 1565.14 Q1111.86 1565.14 1109.22 1568.2 Q1106.58 1571.22 1106.58 1576.41 L1106.58 1596.56 L1100.69 1596.56 L1100.69 1560.91 L1106.58 1560.91 L1106.58 1566.45 Q1108.58 1563.17 1111.38 1561.61 Q1114.18 1560.05 1118.03 1560.05 Q1121.92 1560.05 1124.62 1562.03 Q1127.36 1564 1128.66 1567.75 Z" fill="#000000" fill-rule="nonzero" fill-opacity="1"></path><path clip-path="url(#clip390)" d="M1190 1578.77 Q1190 1572.31 1187.32 1568.65 Q1184.68 1564.95 1180.04 1564.95 Q1175.39 1564.95 1172.72 1568.65 Q1170.07 1572.31 1170.07 1578.77 Q1170.07 1585.23 1172.72 1588.92 Q1175.39 1592.58 1180.04 1592.58 Q1184.68 1592.58 1187.32 1588.92 Q1190 1585.23 1190 1578.77 M1170.07 1566.32 Q1171.92 1563.14 1174.72 1561.61 Q1177.55 1560.05 1181.47 1560.05 Q1187.96 1560.05 1192 1565.21 Q1196.08 1570.36 1196.08 1578.77 Q1196.08 1587.17 1192 1592.33 Q1187.96 1597.48 1181.47 1597.48 Q1177.55 1597.48 1174.72 1595.95 Q1171.92 1594.39 1170.07 1591.21 L1170.07 1596.56 L1164.19 1596.56 L1164.19 1547.03 L1170.07 1547.03 L1170.07 1566.32 Z" fill="#000000" fill-rule="nonzero" fill-opacity="1"></path><path clip-path="url(#clip390)" d="M1236.28 1577.27 L1236.28 1580.14 L1209.35 1580.14 Q1209.73 1586.18 1212.98 1589.37 Q1216.26 1592.52 1222.08 1592.52 Q1225.45 1592.52 1228.61 1591.69 Q1231.79 1590.86 1234.91 1589.21 L1234.91 1594.74 Q1231.76 1596.08 1228.45 1596.78 Q1225.14 1597.48 1221.73 1597.48 Q1213.2 1597.48 1208.2 1592.52 Q1203.24 1587.55 1203.24 1579.09 Q1203.24 1570.33 1207.95 1565.21 Q1212.69 1560.05 1220.71 1560.05 Q1227.91 1560.05 1232.08 1564.7 Q1236.28 1569.31 1236.28 1577.27 M1230.42 1575.55 Q1230.36 1570.75 1227.71 1567.88 Q1225.1 1565.02 1220.78 1565.02 Q1215.87 1565.02 1212.91 1567.79 Q1209.99 1570.56 1209.54 1575.58 L1230.42 1575.55 Z" fill="#000000" fill-rule="nonzero" fill-opacity="1"></path><path clip-path="url(#clip390)" d="M1266.55 1566.39 Q1265.56 1565.81 1264.38 1565.56 Q1263.24 1565.27 1261.83 1565.27 Q1256.87 1565.27 1254.2 1568.52 Q1251.55 1571.73 1251.55 1577.78 L1251.55 1596.56 L1245.67 1596.56 L1245.67 1560.91 L1251.55 1560.91 L1251.55 1566.45 Q1253.4 1563.2 1256.36 1561.64 Q1259.32 1560.05 1263.55 1560.05 Q1264.16 1560.05 1264.89 1560.15 Q1265.62 1560.21 1266.51 1560.37 L1266.55 1566.39 Z" fill="#000000" fill-rule="nonzero" fill-opacity="1"></path><path clip-path="url(#clip390)" d="M1307.22 1565.02 Q1302.51 1565.02 1299.77 1568.71 Q1297.04 1572.37 1297.04 1578.77 Q1297.04 1585.16 1299.74 1588.86 Q1302.48 1592.52 1307.22 1592.52 Q1311.9 1592.52 1314.64 1588.82 Q1317.38 1585.13 1317.38 1578.77 Q1317.38 1572.43 1314.64 1568.74 Q1311.9 1565.02 1307.22 1565.02 M1307.22 1560.05 Q1314.86 1560.05 1319.22 1565.02 Q1323.58 1569.98 1323.58 1578.77 Q1323.58 1587.52 1319.22 1592.52 Q1314.86 1597.48 1307.22 1597.48 Q1299.55 1597.48 1295.19 1592.52 Q1290.86 1587.52 1290.86 1578.77 Q1290.86 1569.98 1295.19 1565.02 Q1299.55 1560.05 1307.22 1560.05 Z" fill="#000000" fill-rule="nonzero" fill-opacity="1"></path><path clip-path="url(#clip390)" d="M1351.34 1547.03 L1351.34 1551.9 L1345.73 1551.9 Q1342.58 1551.9 1341.34 1553.18 Q1340.13 1554.45 1340.13 1557.76 L1340.13 1560.91 L1349.78 1560.91 L1349.78 1565.46 L1340.13 1565.46 L1340.13 1596.56 L1334.24 1596.56 L1334.24 1565.46 L1328.64 1565.46 L1328.64 1560.91 L1334.24 1560.91 L1334.24 1558.43 Q1334.24 1552.48 1337.01 1549.77 Q1339.78 1547.03 1345.8 1547.03 L1351.34 1547.03 Z" fill="#000000" fill-rule="nonzero" fill-opacity="1"></path><path clip-path="url(#clip390)" d="M1373.55 1560.91 L1379.41 1560.91 L1386.73 1588.73 L1394.02 1560.91 L1400.93 1560.91 L1408.25 1588.73 L1415.53 1560.91 L1421.39 1560.91 L1412.07 1596.56 L1405.16 1596.56 L1397.49 1567.34 L1389.79 1596.56 L1382.88 1596.56 L1373.55 1560.91 Z" fill="#000000" fill-rule="nonzero" fill-opacity="1"></path><path clip-path="url(#clip390)" d="M1460.76 1577.27 L1460.76 1580.14 L1433.84 1580.14 Q1434.22 1586.18 1437.46 1589.37 Q1440.74 1592.52 1446.57 1592.52 Q1449.94 1592.52 1453.09 1591.69 Q1456.28 1590.86 1459.39 1589.21 L1459.39 1594.74 Q1456.24 1596.08 1452.93 1596.78 Q1449.62 1597.48 1446.22 1597.48 Q1437.69 1597.48 1432.69 1592.52 Q1427.73 1587.55 1427.73 1579.09 Q1427.73 1570.33 1432.44 1565.21 Q1437.18 1560.05 1445.2 1560.05 Q1452.39 1560.05 1456.56 1564.7 Q1460.76 1569.31 1460.76 1577.27 M1454.91 1575.55 Q1454.84 1570.75 1452.2 1567.88 Q1449.59 1565.02 1445.26 1565.02 Q1440.36 1565.02 1437.4 1567.79 Q1434.47 1570.56 1434.03 1575.58 L1454.91 1575.55 Z" fill="#000000" fill-rule="nonzero" fill-opacity="1"></path><path clip-path="url(#clip390)" d="M1470.38 1560.91 L1476.23 1560.91 L1476.23 1596.56 L1470.38 1596.56 L1470.38 1560.91 M1470.38 1547.03 L1476.23 1547.03 L1476.23 1554.45 L1470.38 1554.45 L1470.38 1547.03 Z" fill="#000000" fill-rule="nonzero" fill-opacity="1"></path><path clip-path="url(#clip390)" d="M1511.94 1578.32 Q1511.94 1571.96 1509.3 1568.45 Q1506.69 1564.95 1501.95 1564.95 Q1497.24 1564.95 1494.6 1568.45 Q1491.99 1571.96 1491.99 1578.32 Q1491.99 1584.66 1494.6 1588.16 Q1497.24 1591.66 1501.95 1591.66 Q1506.69 1591.66 1509.3 1588.16 Q1511.94 1584.66 1511.94 1578.32 M1517.8 1592.13 Q1517.8 1601.24 1513.76 1605.66 Q1509.72 1610.12 1501.38 1610.12 Q1498.29 1610.12 1495.55 1609.64 Q1492.81 1609.2 1490.24 1608.24 L1490.24 1602.54 Q1492.81 1603.94 1495.33 1604.61 Q1497.84 1605.28 1500.45 1605.28 Q1506.21 1605.28 1509.08 1602.26 Q1511.94 1599.26 1511.94 1593.19 L1511.94 1590.29 Q1510.13 1593.44 1507.3 1595 Q1504.46 1596.56 1500.52 1596.56 Q1493.96 1596.56 1489.95 1591.56 Q1485.94 1586.56 1485.94 1578.32 Q1485.94 1570.05 1489.95 1565.05 Q1493.96 1560.05 1500.52 1560.05 Q1504.46 1560.05 1507.3 1561.61 Q1510.13 1563.17 1511.94 1566.32 L1511.94 1560.91 L1517.8 1560.91 L1517.8 1592.13 Z" fill="#000000" fill-rule="nonzero" fill-opacity="1"></path><path clip-path="url(#clip390)" d="M1559.5 1575.04 L1559.5 1596.56 L1553.64 1596.56 L1553.64 1575.23 Q1553.64 1570.17 1551.67 1567.66 Q1549.69 1565.14 1545.75 1565.14 Q1541 1565.14 1538.27 1568.17 Q1535.53 1571.19 1535.53 1576.41 L1535.53 1596.56 L1529.64 1596.56 L1529.64 1547.03 L1535.53 1547.03 L1535.53 1566.45 Q1537.63 1563.23 1540.46 1561.64 Q1543.33 1560.05 1547.05 1560.05 Q1553.19 1560.05 1556.34 1563.87 Q1559.5 1567.66 1559.5 1575.04 Z" fill="#000000" fill-rule="nonzero" fill-opacity="1"></path><path clip-path="url(#clip390)" d="M1576.97 1550.79 L1576.97 1560.91 L1589.03 1560.91 L1589.03 1565.46 L1576.97 1565.46 L1576.97 1584.81 Q1576.97 1589.17 1578.15 1590.42 Q1579.36 1591.66 1583.02 1591.66 L1589.03 1591.66 L1589.03 1596.56 L1583.02 1596.56 Q1576.24 1596.56 1573.66 1594.04 Q1571.08 1591.5 1571.08 1584.81 L1571.08 1565.46 L1566.78 1565.46 L1566.78 1560.91 L1571.08 1560.91 L1571.08 1550.79 L1576.97 1550.79 Z" fill="#000000" fill-rule="nonzero" fill-opacity="1"></path><path clip-path="url(#clip390)" d="M1619.46 1561.96 L1619.46 1567.5 Q1616.98 1566.23 1614.3 1565.59 Q1611.63 1564.95 1608.77 1564.95 Q1604.41 1564.95 1602.21 1566.29 Q1600.04 1567.63 1600.04 1570.3 Q1600.04 1572.34 1601.6 1573.52 Q1603.16 1574.66 1607.87 1575.71 L1609.88 1576.16 Q1616.12 1577.49 1618.73 1579.94 Q1621.37 1582.36 1621.37 1586.72 Q1621.37 1591.69 1617.42 1594.59 Q1613.51 1597.48 1606.63 1597.48 Q1603.77 1597.48 1600.65 1596.91 Q1597.56 1596.37 1594.12 1595.25 L1594.12 1589.21 Q1597.37 1590.89 1600.52 1591.75 Q1603.67 1592.58 1606.76 1592.58 Q1610.9 1592.58 1613.13 1591.18 Q1615.35 1589.75 1615.35 1587.17 Q1615.35 1584.78 1613.73 1583.51 Q1612.14 1582.24 1606.7 1581.06 L1604.66 1580.58 Q1599.22 1579.44 1596.8 1577.08 Q1594.38 1574.69 1594.38 1570.56 Q1594.38 1565.53 1597.94 1562.79 Q1601.51 1560.05 1608.07 1560.05 Q1611.31 1560.05 1614.18 1560.53 Q1617.04 1561.01 1619.46 1561.96 Z" fill="#000000" fill-rule="nonzero" fill-opacity="1"></path><polyline clip-path="url(#clip390)" style="stroke:#000000; stroke-linecap:round; stroke-linejoin:round; stroke-width:4; stroke-opacity:1; fill:none" points="279.704,1366.15 279.704,123.472 "></polyline>
<polyline clip-path="url(#clip390)" style="stroke:#000000; stroke-linecap:round; stroke-linejoin:round; stroke-width:4; stroke-opacity:1; fill:none" points="279.704,1274.1 298.602,1274.1 "></polyline>
<polyline clip-path="url(#clip390)" style="stroke:#000000; stroke-linecap:round; stroke-linejoin:round; stroke-width:4; stroke-opacity:1; fill:none" points="279.704,1083.4 298.602,1083.4 "></polyline>
<polyline clip-path="url(#clip390)" style="stroke:#000000; stroke-linecap:round; stroke-linejoin:round; stroke-width:4; stroke-opacity:1; fill:none" points="279.704,892.708 298.602,892.708 "></polyline>
<polyline clip-path="url(#clip390)" style="stroke:#000000; stroke-linecap:round; stroke-linejoin:round; stroke-width:4; stroke-opacity:1; fill:none" points="279.704,702.013 298.602,702.013 "></polyline>
<polyline clip-path="url(#clip390)" style="stroke:#000000; stroke-linecap:round; stroke-linejoin:round; stroke-width:4; stroke-opacity:1; fill:none" points="279.704,511.319 298.602,511.319 "></polyline>
<polyline clip-path="url(#clip390)" style="stroke:#000000; stroke-linecap:round; stroke-linejoin:round; stroke-width:4; stroke-opacity:1; fill:none" points="279.704,320.625 298.602,320.625 "></polyline>
<polyline clip-path="url(#clip390)" style="stroke:#000000; stroke-linecap:round; stroke-linejoin:round; stroke-width:4; stroke-opacity:1; fill:none" points="279.704,129.93 298.602,129.93 "></polyline>
<path clip-path="url(#clip390)" d="M127.2 1259.9 Q123.589 1259.9 121.76 1263.46 Q119.955 1267 119.955 1274.13 Q119.955 1281.24 121.76 1284.8 Q123.589 1288.34 127.2 1288.34 Q130.834 1288.34 132.64 1284.8 Q134.468 1281.24 134.468 1274.13 Q134.468 1267 132.64 1263.46 Q130.834 1259.9 127.2 1259.9 M127.2 1256.19 Q133.01 1256.19 136.066 1260.8 Q139.144 1265.38 139.144 1274.13 Q139.144 1282.86 136.066 1287.46 Q133.01 1292.05 127.2 1292.05 Q121.39 1292.05 118.311 1287.46 Q115.256 1282.86 115.256 1274.13 Q115.256 1265.38 118.311 1260.8 Q121.39 1256.19 127.2 1256.19 Z" fill="#000000" fill-rule="nonzero" fill-opacity="1"></path><path clip-path="url(#clip390)" d="M147.362 1285.5 L152.246 1285.5 L152.246 1291.38 L147.362 1291.38 L147.362 1285.5 Z" fill="#000000" fill-rule="nonzero" fill-opacity="1"></path><path clip-path="url(#clip390)" d="M172.431 1259.9 Q168.82 1259.9 166.991 1263.46 Q165.186 1267 165.186 1274.13 Q165.186 1281.24 166.991 1284.8 Q168.82 1288.34 172.431 1288.34 Q176.065 1288.34 177.871 1284.8 Q179.7 1281.24 179.7 1274.13 Q179.7 1267 177.871 1263.46 Q176.065 1259.9 172.431 1259.9 M172.431 1256.19 Q178.241 1256.19 181.297 1260.8 Q184.376 1265.38 184.376 1274.13 Q184.376 1282.86 181.297 1287.46 Q178.241 1292.05 172.431 1292.05 Q166.621 1292.05 163.542 1287.46 Q160.487 1282.86 160.487 1274.13 Q160.487 1265.38 163.542 1260.8 Q166.621 1256.19 172.431 1256.19 Z" fill="#000000" fill-rule="nonzero" fill-opacity="1"></path><path clip-path="url(#clip390)" d="M202.593 1259.9 Q198.982 1259.9 197.153 1263.46 Q195.348 1267 195.348 1274.13 Q195.348 1281.24 197.153 1284.8 Q198.982 1288.34 202.593 1288.34 Q206.227 1288.34 208.033 1284.8 Q209.861 1281.24 209.861 1274.13 Q209.861 1267 208.033 1263.46 Q206.227 1259.9 202.593 1259.9 M202.593 1256.19 Q208.403 1256.19 211.459 1260.8 Q214.537 1265.38 214.537 1274.13 Q214.537 1282.86 211.459 1287.46 Q208.403 1292.05 202.593 1292.05 Q196.783 1292.05 193.704 1287.46 Q190.649 1282.86 190.649 1274.13 Q190.649 1265.38 193.704 1260.8 Q196.783 1256.19 202.593 1256.19 Z" fill="#000000" fill-rule="nonzero" fill-opacity="1"></path><path clip-path="url(#clip390)" d="M222.801 1256.82 L241.158 1256.82 L241.158 1260.75 L227.084 1260.75 L227.084 1269.22 Q228.102 1268.88 229.121 1268.71 Q230.139 1268.53 231.158 1268.53 Q236.945 1268.53 240.324 1271.7 Q243.704 1274.87 243.704 1280.29 Q243.704 1285.87 240.232 1288.97 Q236.76 1292.05 230.44 1292.05 Q228.264 1292.05 225.996 1291.68 Q223.75 1291.31 221.343 1290.57 L221.343 1285.87 Q223.426 1287 225.648 1287.56 Q227.871 1288.11 230.347 1288.11 Q234.352 1288.11 236.69 1286.01 Q239.028 1283.9 239.028 1280.29 Q239.028 1276.68 236.69 1274.57 Q234.352 1272.46 230.347 1272.46 Q228.473 1272.46 226.598 1272.88 Q224.746 1273.3 222.801 1274.18 L222.801 1256.82 Z" fill="#000000" fill-rule="nonzero" fill-opacity="1"></path><path clip-path="url(#clip390)" d="M126.205 1069.2 Q122.593 1069.2 120.765 1072.77 Q118.959 1076.31 118.959 1083.44 Q118.959 1090.54 120.765 1094.11 Q122.593 1097.65 126.205 1097.65 Q129.839 1097.65 131.644 1094.11 Q133.473 1090.54 133.473 1083.44 Q133.473 1076.31 131.644 1072.77 Q129.839 1069.2 126.205 1069.2 M126.205 1065.5 Q132.015 1065.5 135.07 1070.1 Q138.149 1074.69 138.149 1083.44 Q138.149 1092.16 135.07 1096.77 Q132.015 1101.35 126.205 1101.35 Q120.394 1101.35 117.316 1096.77 Q114.26 1092.16 114.26 1083.44 Q114.26 1074.69 117.316 1070.1 Q120.394 1065.5 126.205 1065.5 Z" fill="#000000" fill-rule="nonzero" fill-opacity="1"></path><path clip-path="url(#clip390)" d="M146.366 1094.8 L151.251 1094.8 L151.251 1100.68 L146.366 1100.68 L146.366 1094.8 Z" fill="#000000" fill-rule="nonzero" fill-opacity="1"></path><path clip-path="url(#clip390)" d="M171.436 1069.2 Q167.825 1069.2 165.996 1072.77 Q164.19 1076.31 164.19 1083.44 Q164.19 1090.54 165.996 1094.11 Q167.825 1097.65 171.436 1097.65 Q175.07 1097.65 176.876 1094.11 Q178.704 1090.54 178.704 1083.44 Q178.704 1076.31 176.876 1072.77 Q175.07 1069.2 171.436 1069.2 M171.436 1065.5 Q177.246 1065.5 180.301 1070.1 Q183.38 1074.69 183.38 1083.44 Q183.38 1092.16 180.301 1096.77 Q177.246 1101.35 171.436 1101.35 Q165.626 1101.35 162.547 1096.77 Q159.491 1092.16 159.491 1083.44 Q159.491 1074.69 162.547 1070.1 Q165.626 1065.5 171.436 1065.5 Z" fill="#000000" fill-rule="nonzero" fill-opacity="1"></path><path clip-path="url(#clip390)" d="M192.408 1096.75 L200.047 1096.75 L200.047 1070.38 L191.737 1072.05 L191.737 1067.79 L200 1066.12 L204.676 1066.12 L204.676 1096.75 L212.315 1096.75 L212.315 1100.68 L192.408 1100.68 L192.408 1096.75 Z" fill="#000000" fill-rule="nonzero" fill-opacity="1"></path><path clip-path="url(#clip390)" d="M231.76 1069.2 Q228.148 1069.2 226.32 1072.77 Q224.514 1076.31 224.514 1083.44 Q224.514 1090.54 226.32 1094.11 Q228.148 1097.65 231.76 1097.65 Q235.394 1097.65 237.199 1094.11 Q239.028 1090.54 239.028 1083.44 Q239.028 1076.31 237.199 1072.77 Q235.394 1069.2 231.76 1069.2 M231.76 1065.5 Q237.57 1065.5 240.625 1070.1 Q243.704 1074.69 243.704 1083.44 Q243.704 1092.16 240.625 1096.77 Q237.57 1101.35 231.76 1101.35 Q225.949 1101.35 222.871 1096.77 Q219.815 1092.16 219.815 1083.44 Q219.815 1074.69 222.871 1070.1 Q225.949 1065.5 231.76 1065.5 Z" fill="#000000" fill-rule="nonzero" fill-opacity="1"></path><path clip-path="url(#clip390)" d="M127.2 878.506 Q123.589 878.506 121.76 882.071 Q119.955 885.613 119.955 892.742 Q119.955 899.849 121.76 903.414 Q123.589 906.955 127.2 906.955 Q130.834 906.955 132.64 903.414 Q134.468 899.849 134.468 892.742 Q134.468 885.613 132.64 882.071 Q130.834 878.506 127.2 878.506 M127.2 874.803 Q133.01 874.803 136.066 879.409 Q139.144 883.993 139.144 892.742 Q139.144 901.469 136.066 906.076 Q133.01 910.659 127.2 910.659 Q121.39 910.659 118.311 906.076 Q115.256 901.469 115.256 892.742 Q115.256 883.993 118.311 879.409 Q121.39 874.803 127.2 874.803 Z" fill="#000000" fill-rule="nonzero" fill-opacity="1"></path><path clip-path="url(#clip390)" d="M147.362 904.108 L152.246 904.108 L152.246 909.988 L147.362 909.988 L147.362 904.108 Z" fill="#000000" fill-rule="nonzero" fill-opacity="1"></path><path clip-path="url(#clip390)" d="M172.431 878.506 Q168.82 878.506 166.991 882.071 Q165.186 885.613 165.186 892.742 Q165.186 899.849 166.991 903.414 Q168.82 906.955 172.431 906.955 Q176.065 906.955 177.871 903.414 Q179.7 899.849 179.7 892.742 Q179.7 885.613 177.871 882.071 Q176.065 878.506 172.431 878.506 M172.431 874.803 Q178.241 874.803 181.297 879.409 Q184.376 883.993 184.376 892.742 Q184.376 901.469 181.297 906.076 Q178.241 910.659 172.431 910.659 Q166.621 910.659 163.542 906.076 Q160.487 901.469 160.487 892.742 Q160.487 883.993 163.542 879.409 Q166.621 874.803 172.431 874.803 Z" fill="#000000" fill-rule="nonzero" fill-opacity="1"></path><path clip-path="url(#clip390)" d="M193.403 906.053 L201.042 906.053 L201.042 879.687 L192.732 881.354 L192.732 877.094 L200.996 875.428 L205.672 875.428 L205.672 906.053 L213.311 906.053 L213.311 909.988 L193.403 909.988 L193.403 906.053 Z" fill="#000000" fill-rule="nonzero" fill-opacity="1"></path><path clip-path="url(#clip390)" d="M222.801 875.428 L241.158 875.428 L241.158 879.363 L227.084 879.363 L227.084 887.835 Q228.102 887.488 229.121 887.326 Q230.139 887.141 231.158 887.141 Q236.945 887.141 240.324 890.312 Q243.704 893.483 243.704 898.9 Q243.704 904.479 240.232 907.58 Q236.76 910.659 230.44 910.659 Q228.264 910.659 225.996 910.289 Q223.75 909.918 221.343 909.178 L221.343 904.479 Q223.426 905.613 225.648 906.168 Q227.871 906.724 230.347 906.724 Q234.352 906.724 236.69 904.617 Q239.028 902.511 239.028 898.9 Q239.028 895.289 236.69 893.182 Q234.352 891.076 230.347 891.076 Q228.473 891.076 226.598 891.492 Q224.746 891.909 222.801 892.789 L222.801 875.428 Z" fill="#000000" fill-rule="nonzero" fill-opacity="1"></path><path clip-path="url(#clip390)" d="M126.205 687.812 Q122.593 687.812 120.765 691.377 Q118.959 694.919 118.959 702.048 Q118.959 709.155 120.765 712.719 Q122.593 716.261 126.205 716.261 Q129.839 716.261 131.644 712.719 Q133.473 709.155 133.473 702.048 Q133.473 694.919 131.644 691.377 Q129.839 687.812 126.205 687.812 M126.205 684.108 Q132.015 684.108 135.07 688.715 Q138.149 693.298 138.149 702.048 Q138.149 710.775 135.07 715.381 Q132.015 719.965 126.205 719.965 Q120.394 719.965 117.316 715.381 Q114.26 710.775 114.26 702.048 Q114.26 693.298 117.316 688.715 Q120.394 684.108 126.205 684.108 Z" fill="#000000" fill-rule="nonzero" fill-opacity="1"></path><path clip-path="url(#clip390)" d="M146.366 713.414 L151.251 713.414 L151.251 719.293 L146.366 719.293 L146.366 713.414 Z" fill="#000000" fill-rule="nonzero" fill-opacity="1"></path><path clip-path="url(#clip390)" d="M171.436 687.812 Q167.825 687.812 165.996 691.377 Q164.19 694.919 164.19 702.048 Q164.19 709.155 165.996 712.719 Q167.825 716.261 171.436 716.261 Q175.07 716.261 176.876 712.719 Q178.704 709.155 178.704 702.048 Q178.704 694.919 176.876 691.377 Q175.07 687.812 171.436 687.812 M171.436 684.108 Q177.246 684.108 180.301 688.715 Q183.38 693.298 183.38 702.048 Q183.38 710.775 180.301 715.381 Q177.246 719.965 171.436 719.965 Q165.626 719.965 162.547 715.381 Q159.491 710.775 159.491 702.048 Q159.491 693.298 162.547 688.715 Q165.626 684.108 171.436 684.108 Z" fill="#000000" fill-rule="nonzero" fill-opacity="1"></path><path clip-path="url(#clip390)" d="M195.625 715.358 L211.945 715.358 L211.945 719.293 L190 719.293 L190 715.358 Q192.663 712.604 197.246 707.974 Q201.852 703.321 203.033 701.979 Q205.278 699.456 206.158 697.719 Q207.061 695.96 207.061 694.27 Q207.061 691.516 205.116 689.78 Q203.195 688.044 200.093 688.044 Q197.894 688.044 195.44 688.807 Q193.01 689.571 190.232 691.122 L190.232 686.4 Q193.056 685.266 195.51 684.687 Q197.963 684.108 200 684.108 Q205.371 684.108 208.565 686.794 Q211.76 689.479 211.76 693.969 Q211.76 696.099 210.949 698.02 Q210.162 699.918 208.056 702.511 Q207.477 703.182 204.375 706.4 Q201.274 709.594 195.625 715.358 Z" fill="#000000" fill-rule="nonzero" fill-opacity="1"></path><path clip-path="url(#clip390)" d="M231.76 687.812 Q228.148 687.812 226.32 691.377 Q224.514 694.919 224.514 702.048 Q224.514 709.155 226.32 712.719 Q228.148 716.261 231.76 716.261 Q235.394 716.261 237.199 712.719 Q239.028 709.155 239.028 702.048 Q239.028 694.919 237.199 691.377 Q235.394 687.812 231.76 687.812 M231.76 684.108 Q237.57 684.108 240.625 688.715 Q243.704 693.298 243.704 702.048 Q243.704 710.775 240.625 715.381 Q237.57 719.965 231.76 719.965 Q225.949 719.965 222.871 715.381 Q219.815 710.775 219.815 702.048 Q219.815 693.298 222.871 688.715 Q225.949 684.108 231.76 684.108 Z" fill="#000000" fill-rule="nonzero" fill-opacity="1"></path><path clip-path="url(#clip390)" d="M127.2 497.118 Q123.589 497.118 121.76 500.682 Q119.955 504.224 119.955 511.354 Q119.955 518.46 121.76 522.025 Q123.589 525.567 127.2 525.567 Q130.834 525.567 132.64 522.025 Q134.468 518.46 134.468 511.354 Q134.468 504.224 132.64 500.682 Q130.834 497.118 127.2 497.118 M127.2 493.414 Q133.01 493.414 136.066 498.02 Q139.144 502.604 139.144 511.354 Q139.144 520.081 136.066 524.687 Q133.01 529.27 127.2 529.27 Q121.39 529.27 118.311 524.687 Q115.256 520.081 115.256 511.354 Q115.256 502.604 118.311 498.02 Q121.39 493.414 127.2 493.414 Z" fill="#000000" fill-rule="nonzero" fill-opacity="1"></path><path clip-path="url(#clip390)" d="M147.362 522.719 L152.246 522.719 L152.246 528.599 L147.362 528.599 L147.362 522.719 Z" fill="#000000" fill-rule="nonzero" fill-opacity="1"></path><path clip-path="url(#clip390)" d="M172.431 497.118 Q168.82 497.118 166.991 500.682 Q165.186 504.224 165.186 511.354 Q165.186 518.46 166.991 522.025 Q168.82 525.567 172.431 525.567 Q176.065 525.567 177.871 522.025 Q179.7 518.46 179.7 511.354 Q179.7 504.224 177.871 500.682 Q176.065 497.118 172.431 497.118 M172.431 493.414 Q178.241 493.414 181.297 498.02 Q184.376 502.604 184.376 511.354 Q184.376 520.081 181.297 524.687 Q178.241 529.27 172.431 529.27 Q166.621 529.27 163.542 524.687 Q160.487 520.081 160.487 511.354 Q160.487 502.604 163.542 498.02 Q166.621 493.414 172.431 493.414 Z" fill="#000000" fill-rule="nonzero" fill-opacity="1"></path><path clip-path="url(#clip390)" d="M196.621 524.664 L212.94 524.664 L212.94 528.599 L190.996 528.599 L190.996 524.664 Q193.658 521.909 198.241 517.28 Q202.848 512.627 204.028 511.284 Q206.274 508.761 207.153 507.025 Q208.056 505.266 208.056 503.576 Q208.056 500.821 206.112 499.085 Q204.19 497.349 201.088 497.349 Q198.889 497.349 196.436 498.113 Q194.005 498.877 191.227 500.428 L191.227 495.706 Q194.051 494.571 196.505 493.993 Q198.959 493.414 200.996 493.414 Q206.366 493.414 209.561 496.099 Q212.755 498.784 212.755 503.275 Q212.755 505.405 211.945 507.326 Q211.158 509.224 209.051 511.817 Q208.473 512.488 205.371 515.706 Q202.269 518.9 196.621 524.664 Z" fill="#000000" fill-rule="nonzero" fill-opacity="1"></path><path clip-path="url(#clip390)" d="M222.801 494.039 L241.158 494.039 L241.158 497.974 L227.084 497.974 L227.084 506.446 Q228.102 506.099 229.121 505.937 Q230.139 505.752 231.158 505.752 Q236.945 505.752 240.324 508.923 Q243.704 512.094 243.704 517.511 Q243.704 523.09 240.232 526.192 Q236.76 529.27 230.44 529.27 Q228.264 529.27 225.996 528.9 Q223.75 528.53 221.343 527.789 L221.343 523.09 Q223.426 524.224 225.648 524.78 Q227.871 525.335 230.347 525.335 Q234.352 525.335 236.69 523.229 Q239.028 521.122 239.028 517.511 Q239.028 513.9 236.69 511.794 Q234.352 509.687 230.347 509.687 Q228.473 509.687 226.598 510.104 Q224.746 510.52 222.801 511.4 L222.801 494.039 Z" fill="#000000" fill-rule="nonzero" fill-opacity="1"></path><path clip-path="url(#clip390)" d="M126.205 306.423 Q122.593 306.423 120.765 309.988 Q118.959 313.53 118.959 320.659 Q118.959 327.766 120.765 331.331 Q122.593 334.872 126.205 334.872 Q129.839 334.872 131.644 331.331 Q133.473 327.766 133.473 320.659 Q133.473 313.53 131.644 309.988 Q129.839 306.423 126.205 306.423 M126.205 302.72 Q132.015 302.72 135.07 307.326 Q138.149 311.909 138.149 320.659 Q138.149 329.386 135.07 333.993 Q132.015 338.576 126.205 338.576 Q120.394 338.576 117.316 333.993 Q114.26 329.386 114.26 320.659 Q114.26 311.909 117.316 307.326 Q120.394 302.72 126.205 302.72 Z" fill="#000000" fill-rule="nonzero" fill-opacity="1"></path><path clip-path="url(#clip390)" d="M146.366 332.025 L151.251 332.025 L151.251 337.905 L146.366 337.905 L146.366 332.025 Z" fill="#000000" fill-rule="nonzero" fill-opacity="1"></path><path clip-path="url(#clip390)" d="M171.436 306.423 Q167.825 306.423 165.996 309.988 Q164.19 313.53 164.19 320.659 Q164.19 327.766 165.996 331.331 Q167.825 334.872 171.436 334.872 Q175.07 334.872 176.876 331.331 Q178.704 327.766 178.704 320.659 Q178.704 313.53 176.876 309.988 Q175.07 306.423 171.436 306.423 M171.436 302.72 Q177.246 302.72 180.301 307.326 Q183.38 311.909 183.38 320.659 Q183.38 329.386 180.301 333.993 Q177.246 338.576 171.436 338.576 Q165.626 338.576 162.547 333.993 Q159.491 329.386 159.491 320.659 Q159.491 311.909 162.547 307.326 Q165.626 302.72 171.436 302.72 Z" fill="#000000" fill-rule="nonzero" fill-opacity="1"></path><path clip-path="url(#clip390)" d="M205.764 319.27 Q209.121 319.988 210.996 322.257 Q212.894 324.525 212.894 327.858 Q212.894 332.974 209.375 335.775 Q205.857 338.576 199.375 338.576 Q197.2 338.576 194.885 338.136 Q192.593 337.719 190.139 336.863 L190.139 332.349 Q192.084 333.483 194.399 334.062 Q196.713 334.641 199.237 334.641 Q203.635 334.641 205.926 332.905 Q208.241 331.169 208.241 327.858 Q208.241 324.803 206.088 323.09 Q203.959 321.354 200.139 321.354 L196.112 321.354 L196.112 317.511 L200.325 317.511 Q203.774 317.511 205.602 316.145 Q207.431 314.757 207.431 312.164 Q207.431 309.502 205.533 308.09 Q203.658 306.655 200.139 306.655 Q198.218 306.655 196.019 307.071 Q193.82 307.488 191.181 308.368 L191.181 304.201 Q193.843 303.46 196.158 303.09 Q198.496 302.72 200.556 302.72 Q205.88 302.72 208.982 305.15 Q212.084 307.558 212.084 311.678 Q212.084 314.548 210.44 316.539 Q208.797 318.507 205.764 319.27 Z" fill="#000000" fill-rule="nonzero" fill-opacity="1"></path><path clip-path="url(#clip390)" d="M231.76 306.423 Q228.148 306.423 226.32 309.988 Q224.514 313.53 224.514 320.659 Q224.514 327.766 226.32 331.331 Q228.148 334.872 231.76 334.872 Q235.394 334.872 237.199 331.331 Q239.028 327.766 239.028 320.659 Q239.028 313.53 237.199 309.988 Q235.394 306.423 231.76 306.423 M231.76 302.72 Q237.57 302.72 240.625 307.326 Q243.704 311.909 243.704 320.659 Q243.704 329.386 240.625 333.993 Q237.57 338.576 231.76 338.576 Q225.949 338.576 222.871 333.993 Q219.815 329.386 219.815 320.659 Q219.815 311.909 222.871 307.326 Q225.949 302.72 231.76 302.72 Z" fill="#000000" fill-rule="nonzero" fill-opacity="1"></path><path clip-path="url(#clip390)" d="M127.2 115.729 Q123.589 115.729 121.76 119.294 Q119.955 122.835 119.955 129.965 Q119.955 137.071 121.76 140.636 Q123.589 144.178 127.2 144.178 Q130.834 144.178 132.64 140.636 Q134.468 137.071 134.468 129.965 Q134.468 122.835 132.64 119.294 Q130.834 115.729 127.2 115.729 M127.2 112.025 Q133.01 112.025 136.066 116.632 Q139.144 121.215 139.144 129.965 Q139.144 138.692 136.066 143.298 Q133.01 147.882 127.2 147.882 Q121.39 147.882 118.311 143.298 Q115.256 138.692 115.256 129.965 Q115.256 121.215 118.311 116.632 Q121.39 112.025 127.2 112.025 Z" fill="#000000" fill-rule="nonzero" fill-opacity="1"></path><path clip-path="url(#clip390)" d="M147.362 141.331 L152.246 141.331 L152.246 147.21 L147.362 147.21 L147.362 141.331 Z" fill="#000000" fill-rule="nonzero" fill-opacity="1"></path><path clip-path="url(#clip390)" d="M172.431 115.729 Q168.82 115.729 166.991 119.294 Q165.186 122.835 165.186 129.965 Q165.186 137.071 166.991 140.636 Q168.82 144.178 172.431 144.178 Q176.065 144.178 177.871 140.636 Q179.7 137.071 179.7 129.965 Q179.7 122.835 177.871 119.294 Q176.065 115.729 172.431 115.729 M172.431 112.025 Q178.241 112.025 181.297 116.632 Q184.376 121.215 184.376 129.965 Q184.376 138.692 181.297 143.298 Q178.241 147.882 172.431 147.882 Q166.621 147.882 163.542 143.298 Q160.487 138.692 160.487 129.965 Q160.487 121.215 163.542 116.632 Q166.621 112.025 172.431 112.025 Z" fill="#000000" fill-rule="nonzero" fill-opacity="1"></path><path clip-path="url(#clip390)" d="M206.76 128.576 Q210.116 129.294 211.991 131.562 Q213.889 133.831 213.889 137.164 Q213.889 142.28 210.371 145.081 Q206.852 147.882 200.371 147.882 Q198.195 147.882 195.88 147.442 Q193.588 147.025 191.135 146.169 L191.135 141.655 Q193.079 142.789 195.394 143.368 Q197.709 143.946 200.232 143.946 Q204.63 143.946 206.922 142.21 Q209.237 140.474 209.237 137.164 Q209.237 134.108 207.084 132.396 Q204.954 130.659 201.135 130.659 L197.107 130.659 L197.107 126.817 L201.32 126.817 Q204.769 126.817 206.598 125.451 Q208.426 124.062 208.426 121.47 Q208.426 118.808 206.528 117.396 Q204.653 115.96 201.135 115.96 Q199.213 115.96 197.014 116.377 Q194.815 116.794 192.176 117.673 L192.176 113.507 Q194.838 112.766 197.153 112.396 Q199.491 112.025 201.551 112.025 Q206.875 112.025 209.977 114.456 Q213.079 116.863 213.079 120.984 Q213.079 123.854 211.436 125.845 Q209.792 127.812 206.76 128.576 Z" fill="#000000" fill-rule="nonzero" fill-opacity="1"></path><path clip-path="url(#clip390)" d="M222.801 112.65 L241.158 112.65 L241.158 116.585 L227.084 116.585 L227.084 125.058 Q228.102 124.71 229.121 124.548 Q230.139 124.363 231.158 124.363 Q236.945 124.363 240.324 127.534 Q243.704 130.706 243.704 136.122 Q243.704 141.701 240.232 144.803 Q236.76 147.882 230.44 147.882 Q228.264 147.882 225.996 147.511 Q223.75 147.141 221.343 146.4 L221.343 141.701 Q223.426 142.835 225.648 143.391 Q227.871 143.946 230.347 143.946 Q234.352 143.946 236.69 141.84 Q239.028 139.733 239.028 136.122 Q239.028 132.511 236.69 130.405 Q234.352 128.298 230.347 128.298 Q228.473 128.298 226.598 128.715 Q224.746 129.132 222.801 130.011 L222.801 112.65 Z" fill="#000000" fill-rule="nonzero" fill-opacity="1"></path><path clip-path="url(#clip390)" d="M46.0847 1080.41 Q46.0847 1087.51 47.7079 1090.25 Q49.3312 1092.98 53.2461 1092.98 Q56.3653 1092.98 58.2114 1090.95 Q60.0256 1088.88 60.0256 1085.34 Q60.0256 1080.47 56.5881 1077.55 Q53.1188 1074.59 47.3897 1074.59 L46.0847 1074.59 L46.0847 1080.41 M43.6657 1068.73 L64.0042 1068.73 L64.0042 1074.59 L58.5933 1074.59 Q61.8398 1076.59 63.3994 1079.58 Q64.9272 1082.58 64.9272 1086.9 Q64.9272 1092.38 61.8716 1095.62 Q58.7843 1098.84 53.6281 1098.84 Q47.6125 1098.84 44.5569 1094.83 Q41.5014 1090.79 41.5014 1082.8 L41.5014 1074.59 L40.9285 1074.59 Q36.8862 1074.59 34.6901 1077.26 Q32.4621 1079.9 32.4621 1084.71 Q32.4621 1087.76 33.1941 1090.66 Q33.9262 1093.56 35.3903 1096.23 L29.9795 1096.23 Q28.7381 1093.01 28.1334 1089.99 Q27.4968 1086.97 27.4968 1084.1 Q27.4968 1076.37 31.5072 1072.55 Q35.5176 1068.73 43.6657 1068.73 Z" fill="#000000" fill-rule="nonzero" fill-opacity="1"></path><path clip-path="url(#clip390)" d="M28.3562 1060.87 L28.3562 1054.66 L58.275 1043.52 L28.3562 1032.38 L28.3562 1026.17 L64.0042 1039.54 L64.0042 1047.5 L28.3562 1060.87 Z" fill="#000000" fill-rule="nonzero" fill-opacity="1"></path><path clip-path="url(#clip390)" d="M44.7161 987.599 L47.5806 987.599 L47.5806 1014.53 Q53.6281 1014.14 56.8109 1010.9 Q59.9619 1007.62 59.9619 1001.79 Q59.9619 998.42 59.1344 995.269 Q58.3069 992.087 56.6518 988.967 L62.1899 988.967 Q63.5267 992.118 64.227 995.429 Q64.9272 998.739 64.9272 1002.14 Q64.9272 1010.67 59.9619 1015.67 Q54.9967 1020.64 46.5303 1020.64 Q37.7774 1020.64 32.6531 1015.93 Q27.4968 1011.18 27.4968 1003.16 Q27.4968 995.97 32.1438 991.8 Q36.7589 987.599 44.7161 987.599 M42.9973 993.455 Q38.1912 993.519 35.3266 996.161 Q32.4621 998.771 32.4621 1003.1 Q32.4621 1008 35.2312 1010.96 Q38.0002 1013.89 43.0292 1014.33 L42.9973 993.455 Z" fill="#000000" fill-rule="nonzero" fill-opacity="1"></path><path clip-path="url(#clip390)" d="M33.8307 957.33 Q33.2578 958.316 33.0032 959.494 Q32.7167 960.64 32.7167 962.04 Q32.7167 967.006 35.9632 969.679 Q39.1779 972.321 45.2253 972.321 L64.0042 972.321 L64.0042 978.209 L28.3562 978.209 L28.3562 972.321 L33.8944 972.321 Q30.6479 970.475 29.0883 967.515 Q27.4968 964.555 27.4968 960.322 Q27.4968 959.717 27.5923 958.985 Q27.656 958.253 27.8151 957.362 L33.8307 957.33 Z" fill="#000000" fill-rule="nonzero" fill-opacity="1"></path><path clip-path="url(#clip390)" d="M46.0847 934.986 Q46.0847 942.084 47.7079 944.821 Q49.3312 947.558 53.2461 947.558 Q56.3653 947.558 58.2114 945.521 Q60.0256 943.453 60.0256 939.92 Q60.0256 935.05 56.5881 932.122 Q53.1188 929.162 47.3897 929.162 L46.0847 929.162 L46.0847 934.986 M43.6657 923.305 L64.0042 923.305 L64.0042 929.162 L58.5933 929.162 Q61.8398 931.167 63.3994 934.159 Q64.9272 937.151 64.9272 941.479 Q64.9272 946.954 61.8716 950.2 Q58.7843 953.415 53.6281 953.415 Q47.6125 953.415 44.5569 949.405 Q41.5014 945.362 41.5014 937.373 L41.5014 929.162 L40.9285 929.162 Q36.8862 929.162 34.6901 931.835 Q32.4621 934.477 32.4621 939.283 Q32.4621 942.339 33.1941 945.235 Q33.9262 948.131 35.3903 950.805 L29.9795 950.805 Q28.7381 947.59 28.1334 944.567 Q27.4968 941.543 27.4968 938.678 Q27.4968 930.944 31.5072 927.125 Q35.5176 923.305 43.6657 923.305 Z" fill="#000000" fill-rule="nonzero" fill-opacity="1"></path><path clip-path="url(#clip390)" d="M45.7664 887.784 Q39.4007 887.784 35.8996 890.426 Q32.3984 893.036 32.3984 897.779 Q32.3984 902.489 35.8996 905.131 Q39.4007 907.741 45.7664 907.741 Q52.1003 907.741 55.6014 905.131 Q59.1026 902.489 59.1026 897.779 Q59.1026 893.036 55.6014 890.426 Q52.1003 887.784 45.7664 887.784 M59.58 881.928 Q68.683 881.928 73.1071 885.97 Q77.5631 890.012 77.5631 898.352 Q77.5631 901.439 77.0857 904.176 Q76.6401 906.913 75.6852 909.492 L69.9879 909.492 Q71.3884 906.913 72.0568 904.399 Q72.7252 901.885 72.7252 899.275 Q72.7252 893.514 69.7015 890.649 Q66.7096 887.784 60.6303 887.784 L57.7339 887.784 Q60.885 889.599 62.4446 892.431 Q64.0042 895.264 64.0042 899.211 Q64.0042 905.768 59.0071 909.778 Q54.01 913.788 45.7664 913.788 Q37.491 913.788 32.4939 909.778 Q27.4968 905.768 27.4968 899.211 Q27.4968 895.264 29.0564 892.431 Q30.616 889.599 33.7671 887.784 L28.3562 887.784 L28.3562 881.928 L59.58 881.928 Z" fill="#000000" fill-rule="nonzero" fill-opacity="1"></path><path clip-path="url(#clip390)" d="M44.7161 839.373 L47.5806 839.373 L47.5806 866.3 Q53.6281 865.918 56.8109 862.672 Q59.9619 859.393 59.9619 853.569 Q59.9619 850.195 59.1344 847.044 Q58.3069 843.861 56.6518 840.742 L62.1899 840.742 Q63.5267 843.893 64.227 847.203 Q64.9272 850.513 64.9272 853.919 Q64.9272 862.449 59.9619 867.446 Q54.9967 872.411 46.5303 872.411 Q37.7774 872.411 32.6531 867.701 Q27.4968 862.958 27.4968 854.937 Q27.4968 847.744 32.1438 843.575 Q36.7589 839.373 44.7161 839.373 M42.9973 845.23 Q38.1912 845.293 35.3266 847.935 Q32.4621 850.545 32.4621 854.874 Q32.4621 859.775 35.2312 862.735 Q38.0002 865.664 43.0292 866.109 L42.9973 845.23 Z" fill="#000000" fill-rule="nonzero" fill-opacity="1"></path><path clip-path="url(#clip390)" d="M33.8307 788.384 Q33.2578 789.371 33.0032 790.548 Q32.7167 791.694 32.7167 793.095 Q32.7167 798.06 35.9632 800.733 Q39.1779 803.375 45.2253 803.375 L64.0042 803.375 L64.0042 809.263 L28.3562 809.263 L28.3562 803.375 L33.8944 803.375 Q30.6479 801.529 29.0883 798.569 Q27.4968 795.609 27.4968 791.376 Q27.4968 790.771 27.5923 790.039 Q27.656 789.307 27.8151 788.416 L33.8307 788.384 Z" fill="#000000" fill-rule="nonzero" fill-opacity="1"></path><path clip-path="url(#clip390)" d="M44.7161 753.182 L47.5806 753.182 L47.5806 780.109 Q53.6281 779.727 56.8109 776.48 Q59.9619 773.202 59.9619 767.377 Q59.9619 764.003 59.1344 760.852 Q58.3069 757.669 56.6518 754.55 L62.1899 754.55 Q63.5267 757.701 64.227 761.011 Q64.9272 764.322 64.9272 767.727 Q64.9272 776.257 59.9619 781.254 Q54.9967 786.22 46.5303 786.22 Q37.7774 786.22 32.6531 781.509 Q27.4968 776.767 27.4968 768.746 Q27.4968 761.553 32.1438 757.383 Q36.7589 753.182 44.7161 753.182 M42.9973 759.038 Q38.1912 759.102 35.3266 761.743 Q32.4621 764.353 32.4621 768.682 Q32.4621 773.584 35.2312 776.544 Q38.0002 779.472 43.0292 779.918 L42.9973 759.038 Z" fill="#000000" fill-rule="nonzero" fill-opacity="1"></path><path clip-path="url(#clip390)" d="M14.479 743.569 L14.479 737.713 L64.0042 737.713 L64.0042 743.569 L14.479 743.569 Z" fill="#000000" fill-rule="nonzero" fill-opacity="1"></path><path clip-path="url(#clip390)" d="M46.0847 709.258 Q46.0847 716.356 47.7079 719.093 Q49.3312 721.83 53.2461 721.83 Q56.3653 721.83 58.2114 719.793 Q60.0256 717.725 60.0256 714.192 Q60.0256 709.322 56.5881 706.394 Q53.1188 703.434 47.3897 703.434 L46.0847 703.434 L46.0847 709.258 M43.6657 697.577 L64.0042 697.577 L64.0042 703.434 L58.5933 703.434 Q61.8398 705.439 63.3994 708.431 Q64.9272 711.423 64.9272 715.751 Q64.9272 721.226 61.8716 724.472 Q58.7843 727.687 53.6281 727.687 Q47.6125 727.687 44.5569 723.677 Q41.5014 719.634 41.5014 711.645 L41.5014 703.434 L40.9285 703.434 Q36.8862 703.434 34.6901 706.107 Q32.4621 708.749 32.4621 713.555 Q32.4621 716.611 33.1941 719.507 Q33.9262 722.403 35.3903 725.077 L29.9795 725.077 Q28.7381 721.862 28.1334 718.839 Q27.4968 715.815 27.4968 712.95 Q27.4968 705.216 31.5072 701.397 Q35.5176 697.577 43.6657 697.577 Z" fill="#000000" fill-rule="nonzero" fill-opacity="1"></path><path clip-path="url(#clip390)" d="M18.2347 679.721 L28.3562 679.721 L28.3562 667.658 L32.9077 667.658 L32.9077 679.721 L52.2594 679.721 Q56.6199 679.721 57.8613 678.544 Q59.1026 677.334 59.1026 673.674 L59.1026 667.658 L64.0042 667.658 L64.0042 673.674 Q64.0042 680.453 61.4897 683.032 Q58.9434 685.61 52.2594 685.61 L32.9077 685.61 L32.9077 689.906 L28.3562 689.906 L28.3562 685.61 L18.2347 685.61 L18.2347 679.721 Z" fill="#000000" fill-rule="nonzero" fill-opacity="1"></path><path clip-path="url(#clip390)" d="M28.3562 659.956 L28.3562 654.099 L64.0042 654.099 L64.0042 659.956 L28.3562 659.956 M14.479 659.956 L14.479 654.099 L21.895 654.099 L21.895 659.956 L14.479 659.956 Z" fill="#000000" fill-rule="nonzero" fill-opacity="1"></path><path clip-path="url(#clip390)" d="M28.3562 646.047 L28.3562 639.84 L58.275 628.7 L28.3562 617.56 L28.3562 611.354 L64.0042 624.722 L64.0042 632.679 L28.3562 646.047 Z" fill="#000000" fill-rule="nonzero" fill-opacity="1"></path><path clip-path="url(#clip390)" d="M44.7161 572.777 L47.5806 572.777 L47.5806 599.704 Q53.6281 599.322 56.8109 596.076 Q59.9619 592.798 59.9619 586.973 Q59.9619 583.599 59.1344 580.448 Q58.3069 577.265 56.6518 574.146 L62.1899 574.146 Q63.5267 577.297 64.227 580.607 Q64.9272 583.917 64.9272 587.323 Q64.9272 595.853 59.9619 600.85 Q54.9967 605.815 46.5303 605.815 Q37.7774 605.815 32.6531 601.105 Q27.4968 596.362 27.4968 588.342 Q27.4968 581.148 32.1438 576.979 Q36.7589 572.777 44.7161 572.777 M42.9973 578.634 Q38.1912 578.698 35.3266 581.339 Q32.4621 583.949 32.4621 588.278 Q32.4621 593.18 35.2312 596.14 Q38.0002 599.068 43.0292 599.513 L42.9973 578.634 Z" fill="#000000" fill-rule="nonzero" fill-opacity="1"></path><path clip-path="url(#clip390)" d="M44.7161 511.953 L47.5806 511.953 L47.5806 538.88 Q53.6281 538.498 56.8109 535.252 Q59.9619 531.973 59.9619 526.149 Q59.9619 522.775 59.1344 519.624 Q58.3069 516.441 56.6518 513.322 L62.1899 513.322 Q63.5267 516.473 64.227 519.783 Q64.9272 523.093 64.9272 526.499 Q64.9272 535.029 59.9619 540.026 Q54.9967 544.991 46.5303 544.991 Q37.7774 544.991 32.6531 540.281 Q27.4968 535.538 27.4968 527.517 Q27.4968 520.324 32.1438 516.155 Q36.7589 511.953 44.7161 511.953 M42.9973 517.81 Q38.1912 517.873 35.3266 520.515 Q32.4621 523.125 32.4621 527.454 Q32.4621 532.355 35.2312 535.315 Q38.0002 538.244 43.0292 538.689 L42.9973 517.81 Z" fill="#000000" fill-rule="nonzero" fill-opacity="1"></path><path clip-path="url(#clip390)" d="M33.8307 481.684 Q33.2578 482.671 33.0032 483.849 Q32.7167 484.994 32.7167 486.395 Q32.7167 491.36 35.9632 494.034 Q39.1779 496.675 45.2253 496.675 L64.0042 496.675 L64.0042 502.564 L28.3562 502.564 L28.3562 496.675 L33.8944 496.675 Q30.6479 494.829 29.0883 491.869 Q27.4968 488.909 27.4968 484.676 Q27.4968 484.071 27.5923 483.339 Q27.656 482.607 27.8151 481.716 L33.8307 481.684 Z" fill="#000000" fill-rule="nonzero" fill-opacity="1"></path><path clip-path="url(#clip390)" d="M33.8307 456.03 Q33.2578 457.017 33.0032 458.195 Q32.7167 459.341 32.7167 460.741 Q32.7167 465.706 35.9632 468.38 Q39.1779 471.022 45.2253 471.022 L64.0042 471.022 L64.0042 476.91 L28.3562 476.91 L28.3562 471.022 L33.8944 471.022 Q30.6479 469.176 29.0883 466.216 Q27.4968 463.255 27.4968 459.022 Q27.4968 458.418 27.5923 457.686 Q27.656 456.953 27.8151 456.062 L33.8307 456.03 Z" fill="#000000" fill-rule="nonzero" fill-opacity="1"></path><path clip-path="url(#clip390)" d="M32.4621 437.506 Q32.4621 442.217 36.1542 444.954 Q39.8145 447.691 46.212 447.691 Q52.6095 447.691 56.3017 444.986 Q59.9619 442.249 59.9619 437.506 Q59.9619 432.827 56.2698 430.09 Q52.5777 427.353 46.212 427.353 Q39.8781 427.353 36.186 430.09 Q32.4621 432.827 32.4621 437.506 M27.4968 437.506 Q27.4968 429.867 32.4621 425.507 Q37.4273 421.146 46.212 421.146 Q54.9649 421.146 59.9619 425.507 Q64.9272 429.867 64.9272 437.506 Q64.9272 445.177 59.9619 449.537 Q54.9649 453.866 46.212 453.866 Q37.4273 453.866 32.4621 449.537 Q27.4968 445.177 27.4968 437.506 Z" fill="#000000" fill-rule="nonzero" fill-opacity="1"></path><path clip-path="url(#clip390)" d="M33.8307 390.782 Q33.2578 391.769 33.0032 392.946 Q32.7167 394.092 32.7167 395.493 Q32.7167 400.458 35.9632 403.131 Q39.1779 405.773 45.2253 405.773 L64.0042 405.773 L64.0042 411.661 L28.3562 411.661 L28.3562 405.773 L33.8944 405.773 Q30.6479 403.927 29.0883 400.967 Q27.4968 398.007 27.4968 393.774 Q27.4968 393.169 27.5923 392.437 Q27.656 391.705 27.8151 390.814 L33.8307 390.782 Z" fill="#000000" fill-rule="nonzero" fill-opacity="1"></path><path clip-path="url(#clip390)" d="M587.148 39.075 Q581.639 39.075 578.398 42.8424 Q575.198 46.6097 575.198 53.1722 Q575.198 59.6941 578.398 63.502 Q581.639 67.2693 587.148 67.2693 Q592.657 67.2693 595.858 63.502 Q599.098 59.6941 599.098 53.1722 Q599.098 46.6097 595.858 42.8424 Q592.657 39.075 587.148 39.075 M603.392 13.4328 L603.392 20.8865 Q600.314 19.4281 597.154 18.6585 Q594.035 17.8888 590.956 17.8888 Q582.854 17.8888 578.56 23.3575 Q574.307 28.8262 573.699 39.8852 Q576.089 36.3609 579.695 34.4975 Q583.3 32.5936 587.634 32.5936 Q596.749 32.5936 602.015 38.1433 Q607.322 43.6525 607.322 53.1722 Q607.322 62.4892 601.812 68.12 Q596.303 73.7508 587.148 73.7508 Q576.656 73.7508 571.107 65.73 Q565.557 57.6687 565.557 42.3968 Q565.557 28.0566 572.362 19.5497 Q579.168 11.0023 590.632 11.0023 Q593.711 11.0023 596.83 11.6099 Q599.99 12.2175 603.392 13.4328 Z" fill="#000000" fill-rule="nonzero" fill-opacity="1"></path><path clip-path="url(#clip390)" d="M638.919 17.4837 Q632.599 17.4837 629.399 23.7221 Q626.239 29.92 626.239 42.3968 Q626.239 54.833 629.399 61.0714 Q632.599 67.2693 638.919 67.2693 Q645.279 67.2693 648.438 61.0714 Q651.639 54.833 651.639 42.3968 Q651.639 29.92 648.438 23.7221 Q645.279 17.4837 638.919 17.4837 M638.919 11.0023 Q649.086 11.0023 654.434 19.0636 Q659.821 27.0843 659.821 42.3968 Q659.821 57.6687 654.434 65.73 Q649.086 73.7508 638.919 73.7508 Q628.751 73.7508 623.363 65.73 Q618.016 57.6687 618.016 42.3968 Q618.016 27.0843 623.363 19.0636 Q628.751 11.0023 638.919 11.0023 Z" fill="#000000" fill-rule="nonzero" fill-opacity="1"></path><path clip-path="url(#clip390)" d="M694.173 27.2059 L702.072 27.2059 L716.25 65.2844 L730.429 27.2059 L738.328 27.2059 L721.314 72.576 L711.187 72.576 L694.173 27.2059 Z" fill="#000000" fill-rule="nonzero" fill-opacity="1"></path><path clip-path="url(#clip390)" d="M769.236 49.7694 Q760.203 49.7694 756.719 51.8354 Q753.235 53.9013 753.235 58.8839 Q753.235 62.8538 755.828 65.2034 Q758.461 67.5124 762.957 67.5124 Q769.155 67.5124 772.882 63.1374 Q776.649 58.7219 776.649 51.4303 L776.649 49.7694 L769.236 49.7694 M784.103 46.6907 L784.103 72.576 L776.649 72.576 L776.649 65.6895 Q774.097 69.8214 770.29 71.8063 Q766.482 73.7508 760.972 73.7508 Q754.005 73.7508 749.873 69.8619 Q745.782 65.9325 745.782 59.3701 Q745.782 51.7138 750.886 47.825 Q756.03 43.9361 766.198 43.9361 L776.649 43.9361 L776.649 43.2069 Q776.649 38.0623 773.247 35.2672 Q769.884 32.4315 763.768 32.4315 Q759.879 32.4315 756.192 33.3632 Q752.506 34.295 749.103 36.1584 L749.103 29.2718 Q753.195 27.692 757.043 26.9223 Q760.891 26.1121 764.537 26.1121 Q774.381 26.1121 779.242 31.2163 Q784.103 36.3204 784.103 46.6907 Z" fill="#000000" fill-rule="nonzero" fill-opacity="1"></path><path clip-path="url(#clip390)" d="M825.746 34.1734 Q824.491 33.4443 822.992 33.1202 Q821.533 32.7556 819.751 32.7556 Q813.432 32.7556 810.029 36.8875 Q806.667 40.9789 806.667 48.6757 L806.667 72.576 L799.172 72.576 L799.172 27.2059 L806.667 27.2059 L806.667 34.2544 Q809.016 30.1225 812.784 28.1376 Q816.551 26.1121 821.939 26.1121 Q822.708 26.1121 823.64 26.2337 Q824.572 26.3147 825.706 26.5172 L825.746 34.1734 Z" fill="#000000" fill-rule="nonzero" fill-opacity="1"></path><path clip-path="url(#clip390)" d="M833.565 27.2059 L841.018 27.2059 L841.018 72.576 L833.565 72.576 L833.565 27.2059 M833.565 9.54393 L841.018 9.54393 L841.018 18.9825 L833.565 18.9825 L833.565 9.54393 Z" fill="#000000" fill-rule="nonzero" fill-opacity="1"></path><path clip-path="url(#clip390)" d="M877.233 49.7694 Q868.2 49.7694 864.716 51.8354 Q861.232 53.9013 861.232 58.8839 Q861.232 62.8538 863.825 65.2034 Q866.458 67.5124 870.955 67.5124 Q877.152 67.5124 880.879 63.1374 Q884.647 58.7219 884.647 51.4303 L884.647 49.7694 L877.233 49.7694 M892.1 46.6907 L892.1 72.576 L884.647 72.576 L884.647 65.6895 Q882.095 69.8214 878.287 71.8063 Q874.479 73.7508 868.97 73.7508 Q862.002 73.7508 857.87 69.8619 Q853.779 65.9325 853.779 59.3701 Q853.779 51.7138 858.883 47.825 Q864.027 43.9361 874.195 43.9361 L884.647 43.9361 L884.647 43.2069 Q884.647 38.0623 881.244 35.2672 Q877.882 32.4315 871.765 32.4315 Q867.876 32.4315 864.19 33.3632 Q860.503 34.295 857.1 36.1584 L857.1 29.2718 Q861.192 27.692 865.04 26.9223 Q868.889 26.1121 872.534 26.1121 Q882.378 26.1121 887.239 31.2163 Q892.1 36.3204 892.1 46.6907 Z" fill="#000000" fill-rule="nonzero" fill-opacity="1"></path><path clip-path="url(#clip390)" d="M940.022 49.9314 Q940.022 41.7081 936.62 37.0496 Q933.257 32.3505 927.343 32.3505 Q921.429 32.3505 918.026 37.0496 Q914.664 41.7081 914.664 49.9314 Q914.664 58.1548 918.026 62.8538 Q921.429 67.5124 927.343 67.5124 Q933.257 67.5124 936.62 62.8538 Q940.022 58.1548 940.022 49.9314 M914.664 34.0924 Q917.013 30.0415 920.578 28.0971 Q924.183 26.1121 929.166 26.1121 Q937.43 26.1121 942.575 32.6746 Q947.76 39.2371 947.76 49.9314 Q947.76 60.6258 942.575 67.1883 Q937.43 73.7508 929.166 73.7508 Q924.183 73.7508 920.578 71.8063 Q917.013 69.8214 914.664 65.7705 L914.664 72.576 L907.17 72.576 L907.17 9.54393 L914.664 9.54393 L914.664 34.0924 Z" fill="#000000" fill-rule="nonzero" fill-opacity="1"></path><path clip-path="url(#clip390)" d="M960.115 9.54393 L967.569 9.54393 L967.569 72.576 L960.115 72.576 L960.115 9.54393 Z" fill="#000000" fill-rule="nonzero" fill-opacity="1"></path><path clip-path="url(#clip390)" d="M1021.97 48.0275 L1021.97 51.6733 L987.702 51.6733 Q988.188 59.3701 992.32 63.421 Q996.492 67.4314 1003.91 67.4314 Q1008.2 67.4314 1012.21 66.3781 Q1016.26 65.3249 1020.23 63.2184 L1020.23 70.267 Q1016.22 71.9684 1012.01 72.8596 Q1007.79 73.7508 1003.46 73.7508 Q992.603 73.7508 986.243 67.4314 Q979.924 61.1119 979.924 50.3365 Q979.924 39.1965 985.919 32.6746 Q991.955 26.1121 1002.16 26.1121 Q1011.32 26.1121 1016.63 32.0264 Q1021.97 37.9003 1021.97 48.0275 M1014.52 45.84 Q1014.44 39.7232 1011.08 36.0774 Q1007.75 32.4315 1002.24 32.4315 Q996.006 32.4315 992.239 35.9558 Q988.512 39.4801 987.945 45.8805 L1014.52 45.84 Z" fill="#000000" fill-rule="nonzero" fill-opacity="1"></path><path clip-path="url(#clip390)" d="M1063.13 28.5427 L1063.13 35.5912 Q1059.97 33.9709 1056.57 33.1607 Q1053.16 32.3505 1049.52 32.3505 Q1043.97 32.3505 1041.17 34.0519 Q1038.42 35.7533 1038.42 39.156 Q1038.42 41.7486 1040.4 43.2475 Q1042.39 44.7058 1048.38 46.0426 L1050.94 46.6097 Q1058.88 48.3111 1062.2 51.4303 Q1065.56 54.509 1065.56 60.0587 Q1065.56 66.3781 1060.54 70.0644 Q1055.55 73.7508 1046.8 73.7508 Q1043.16 73.7508 1039.19 73.0216 Q1035.26 72.3329 1030.88 70.9151 L1030.88 63.2184 Q1035.02 65.3654 1039.03 66.4591 Q1043.04 67.5124 1046.97 67.5124 Q1052.23 67.5124 1055.07 65.73 Q1057.9 63.9071 1057.9 60.6258 Q1057.9 57.5877 1055.84 55.9673 Q1053.81 54.3469 1046.89 52.8481 L1044.29 52.2405 Q1037.37 50.7821 1034.29 47.7845 Q1031.21 44.7463 1031.21 39.4801 Q1031.21 33.0797 1035.75 29.5959 Q1040.28 26.1121 1048.63 26.1121 Q1052.76 26.1121 1056.4 26.7198 Q1060.05 27.3274 1063.13 28.5427 Z" fill="#000000" fill-rule="nonzero" fill-opacity="1"></path><path clip-path="url(#clip390)" d="M1113.4 9.17935 L1113.4 92.1419 L1106.51 92.1419 L1106.51 9.17935 L1113.4 9.17935 Z" fill="#000000" fill-rule="nonzero" fill-opacity="1"></path><path clip-path="url(#clip390)" d="M1183.97 39.9662 Q1189.84 41.222 1193.12 45.1919 Q1196.44 49.1618 1196.44 54.9951 Q1196.44 63.9476 1190.29 68.8492 Q1184.13 73.7508 1172.79 73.7508 Q1168.98 73.7508 1164.93 72.9811 Q1160.92 72.2519 1156.62 70.7531 L1156.62 62.8538 Q1160.03 64.8388 1164.08 65.8515 Q1168.13 66.8642 1172.54 66.8642 Q1180.24 66.8642 1184.25 63.826 Q1188.3 60.7879 1188.3 54.9951 Q1188.3 49.6479 1184.54 46.6502 Q1180.81 43.612 1174.12 43.612 L1167.08 43.612 L1167.08 36.8875 L1174.45 36.8875 Q1180.48 36.8875 1183.68 34.4975 Q1186.88 32.067 1186.88 27.5299 Q1186.88 22.8714 1183.56 20.4004 Q1180.28 17.8888 1174.12 17.8888 Q1170.76 17.8888 1166.91 18.618 Q1163.07 19.3471 1158.45 20.8865 L1158.45 13.5948 Q1163.11 12.2985 1167.16 11.6504 Q1171.25 11.0023 1174.85 11.0023 Q1184.17 11.0023 1189.6 15.2557 Q1195.03 19.4686 1195.03 26.6793 Q1195.03 31.7024 1192.15 35.1862 Q1189.27 38.6294 1183.97 39.9662 Z" fill="#000000" fill-rule="nonzero" fill-opacity="1"></path><path clip-path="url(#clip390)" d="M1254.86 32.4315 Q1248.86 32.4315 1245.38 37.1306 Q1241.9 41.7891 1241.9 49.9314 Q1241.9 58.0738 1245.34 62.7728 Q1248.82 67.4314 1254.86 67.4314 Q1260.81 67.4314 1264.3 62.7323 Q1267.78 58.0333 1267.78 49.9314 Q1267.78 41.8701 1264.3 37.1711 Q1260.81 32.4315 1254.86 32.4315 M1254.86 26.1121 Q1264.58 26.1121 1270.13 32.4315 Q1275.68 38.7509 1275.68 49.9314 Q1275.68 61.0714 1270.13 67.4314 Q1264.58 73.7508 1254.86 73.7508 Q1245.1 73.7508 1239.55 67.4314 Q1234.04 61.0714 1234.04 49.9314 Q1234.04 38.7509 1239.55 32.4315 Q1245.1 26.1121 1254.86 26.1121 Z" fill="#000000" fill-rule="nonzero" fill-opacity="1"></path><path clip-path="url(#clip390)" d="M1320.6 49.9314 Q1320.6 41.7081 1317.2 37.0496 Q1313.84 32.3505 1307.93 32.3505 Q1302.01 32.3505 1298.61 37.0496 Q1295.25 41.7081 1295.25 49.9314 Q1295.25 58.1548 1298.61 62.8538 Q1302.01 67.5124 1307.93 67.5124 Q1313.84 67.5124 1317.2 62.8538 Q1320.6 58.1548 1320.6 49.9314 M1295.25 34.0924 Q1297.6 30.0415 1301.16 28.0971 Q1304.77 26.1121 1309.75 26.1121 Q1318.01 26.1121 1323.16 32.6746 Q1328.34 39.2371 1328.34 49.9314 Q1328.34 60.6258 1323.16 67.1883 Q1318.01 73.7508 1309.75 73.7508 Q1304.77 73.7508 1301.16 71.8063 Q1297.6 69.8214 1295.25 65.7705 L1295.25 72.576 L1287.75 72.576 L1287.75 9.54393 L1295.25 9.54393 L1295.25 34.0924 Z" fill="#000000" fill-rule="nonzero" fill-opacity="1"></path><path clip-path="url(#clip390)" d="M1340.7 27.2059 L1348.15 27.2059 L1348.15 73.3862 Q1348.15 82.0551 1344.83 85.944 Q1341.55 89.8329 1334.22 89.8329 L1331.38 89.8329 L1331.38 83.5134 L1333.37 83.5134 Q1337.62 83.5134 1339.16 81.5285 Q1340.7 79.5841 1340.7 73.3862 L1340.7 27.2059 M1340.7 9.54393 L1348.15 9.54393 L1348.15 18.9825 L1340.7 18.9825 L1340.7 9.54393 Z" fill="#000000" fill-rule="nonzero" fill-opacity="1"></path><path clip-path="url(#clip390)" d="M1402.55 48.0275 L1402.55 51.6733 L1368.28 51.6733 Q1368.77 59.3701 1372.9 63.421 Q1377.07 67.4314 1384.49 67.4314 Q1388.78 67.4314 1392.79 66.3781 Q1396.84 65.3249 1400.81 63.2184 L1400.81 70.267 Q1396.8 71.9684 1392.59 72.8596 Q1388.38 73.7508 1384.04 73.7508 Q1373.19 73.7508 1366.83 67.4314 Q1360.51 61.1119 1360.51 50.3365 Q1360.51 39.1965 1366.5 32.6746 Q1372.54 26.1121 1382.75 26.1121 Q1391.9 26.1121 1397.21 32.0264 Q1402.55 37.9003 1402.55 48.0275 M1395.1 45.84 Q1395.02 39.7232 1391.66 36.0774 Q1388.34 32.4315 1382.83 32.4315 Q1376.59 32.4315 1372.82 35.9558 Q1369.09 39.4801 1368.53 45.8805 L1395.1 45.84 Z" fill="#000000" fill-rule="nonzero" fill-opacity="1"></path><path clip-path="url(#clip390)" d="M1447.44 28.9478 L1447.44 35.9153 Q1444.28 34.1734 1441.08 33.3227 Q1437.92 32.4315 1434.68 32.4315 Q1427.43 32.4315 1423.42 37.0496 Q1419.41 41.6271 1419.41 49.9314 Q1419.41 58.2358 1423.42 62.8538 Q1427.43 67.4314 1434.68 67.4314 Q1437.92 67.4314 1441.08 66.5807 Q1444.28 65.6895 1447.44 63.9476 L1447.44 70.8341 Q1444.32 72.2924 1440.96 73.0216 Q1437.64 73.7508 1433.87 73.7508 Q1423.62 73.7508 1417.58 67.3098 Q1411.55 60.8689 1411.55 49.9314 Q1411.55 38.832 1417.62 32.472 Q1423.74 26.1121 1434.35 26.1121 Q1437.8 26.1121 1441.08 26.8413 Q1444.36 27.5299 1447.44 28.9478 Z" fill="#000000" fill-rule="nonzero" fill-opacity="1"></path><path clip-path="url(#clip390)" d="M1467.77 14.324 L1467.77 27.2059 L1483.13 27.2059 L1483.13 32.9987 L1467.77 32.9987 L1467.77 57.6282 Q1467.77 63.1779 1469.27 64.7578 Q1470.81 66.3376 1475.47 66.3376 L1483.13 66.3376 L1483.13 72.576 L1475.47 72.576 Q1466.84 72.576 1463.56 69.3758 Q1460.28 66.1351 1460.28 57.6282 L1460.28 32.9987 L1454.81 32.9987 L1454.81 27.2059 L1460.28 27.2059 L1460.28 14.324 L1467.77 14.324 Z" fill="#000000" fill-rule="nonzero" fill-opacity="1"></path><path clip-path="url(#clip390)" d="M1492.93 27.2059 L1500.38 27.2059 L1500.38 72.576 L1492.93 72.576 L1492.93 27.2059 M1492.93 9.54393 L1500.38 9.54393 L1500.38 18.9825 L1492.93 18.9825 L1492.93 9.54393 Z" fill="#000000" fill-rule="nonzero" fill-opacity="1"></path><path clip-path="url(#clip390)" d="M1510.63 27.2059 L1518.53 27.2059 L1532.71 65.2844 L1546.89 27.2059 L1554.79 27.2059 L1537.77 72.576 L1527.65 72.576 L1510.63 27.2059 Z" fill="#000000" fill-rule="nonzero" fill-opacity="1"></path><path clip-path="url(#clip390)" d="M1603.88 48.0275 L1603.88 51.6733 L1569.61 51.6733 Q1570.1 59.3701 1574.23 63.421 Q1578.4 67.4314 1585.82 67.4314 Q1590.11 67.4314 1594.12 66.3781 Q1598.17 65.3249 1602.14 63.2184 L1602.14 70.267 Q1598.13 71.9684 1593.92 72.8596 Q1589.71 73.7508 1585.37 73.7508 Q1574.52 73.7508 1568.16 67.4314 Q1561.84 61.1119 1561.84 50.3365 Q1561.84 39.1965 1567.83 32.6746 Q1573.87 26.1121 1584.08 26.1121 Q1593.23 26.1121 1598.54 32.0264 Q1603.88 37.9003 1603.88 48.0275 M1596.43 45.84 Q1596.35 39.7232 1592.99 36.0774 Q1589.67 32.4315 1584.16 32.4315 Q1577.92 32.4315 1574.15 35.9558 Q1570.42 39.4801 1569.86 45.8805 L1596.43 45.84 Z" fill="#000000" fill-rule="nonzero" fill-opacity="1"></path><path clip-path="url(#clip390)" d="M1645.04 28.5427 L1645.04 35.5912 Q1641.88 33.9709 1638.48 33.1607 Q1635.08 32.3505 1631.43 32.3505 Q1625.88 32.3505 1623.09 34.0519 Q1620.33 35.7533 1620.33 39.156 Q1620.33 41.7486 1622.32 43.2475 Q1624.3 44.7058 1630.3 46.0426 L1632.85 46.6097 Q1640.79 48.3111 1644.11 51.4303 Q1647.47 54.509 1647.47 60.0587 Q1647.47 66.3781 1642.45 70.0644 Q1637.47 73.7508 1628.72 73.7508 Q1625.07 73.7508 1621.1 73.0216 Q1617.17 72.3329 1612.8 70.9151 L1612.8 63.2184 Q1616.93 65.3654 1620.94 66.4591 Q1624.95 67.5124 1628.88 67.5124 Q1634.14 67.5124 1636.98 65.73 Q1639.82 63.9071 1639.82 60.6258 Q1639.82 57.5877 1637.75 55.9673 Q1635.72 54.3469 1628.8 52.8481 L1626.21 52.2405 Q1619.28 50.7821 1616.2 47.7845 Q1613.12 44.7463 1613.12 39.4801 Q1613.12 33.0797 1617.66 29.5959 Q1622.19 26.1121 1630.54 26.1121 Q1634.67 26.1121 1638.32 26.7198 Q1641.96 27.3274 1645.04 28.5427 Z" fill="#000000" fill-rule="nonzero" fill-opacity="1"></path><path clip-path="url(#clip390)" d="M1695.31 9.17935 L1695.31 92.1419 L1688.43 92.1419 L1688.43 9.17935 L1695.31 9.17935 Z" fill="#000000" fill-rule="nonzero" fill-opacity="1"></path><path clip-path="url(#clip390)" d="M1748.14 65.6895 L1776.7 65.6895 L1776.7 72.576 L1738.29 72.576 L1738.29 65.6895 Q1742.95 60.8689 1750.97 52.7671 Q1759.03 44.6248 1761.1 42.2752 Q1765.03 37.8598 1766.57 34.8216 Q1768.15 31.7429 1768.15 28.7857 Q1768.15 23.9651 1764.75 20.927 Q1761.38 17.8888 1755.96 17.8888 Q1752.11 17.8888 1747.81 19.2256 Q1743.56 20.5624 1738.7 23.2765 L1738.7 15.0127 Q1743.64 13.0277 1747.93 12.015 Q1752.23 11.0023 1755.79 11.0023 Q1765.19 11.0023 1770.78 15.7013 Q1776.37 20.4004 1776.37 28.2591 Q1776.37 31.9859 1774.95 35.3482 Q1773.58 38.6699 1769.89 43.2069 Q1768.88 44.3817 1763.45 50.0125 Q1758.02 55.6027 1748.14 65.6895 Z" fill="#000000" fill-rule="nonzero" fill-opacity="1"></path><path clip-path="url(#clip390)" d="M1811.37 17.4837 Q1805.05 17.4837 1801.85 23.7221 Q1798.69 29.92 1798.69 42.3968 Q1798.69 54.833 1801.85 61.0714 Q1805.05 67.2693 1811.37 67.2693 Q1817.73 67.2693 1820.89 61.0714 Q1824.09 54.833 1824.09 42.3968 Q1824.09 29.92 1820.89 23.7221 Q1817.73 17.4837 1811.37 17.4837 M1811.37 11.0023 Q1821.54 11.0023 1826.89 19.0636 Q1832.27 27.0843 1832.27 42.3968 Q1832.27 57.6687 1826.89 65.73 Q1821.54 73.7508 1811.37 73.7508 Q1801.2 73.7508 1795.82 65.73 Q1790.47 57.6687 1790.47 42.3968 Q1790.47 27.0843 1795.82 19.0636 Q1801.2 11.0023 1811.37 11.0023 Z" fill="#000000" fill-rule="nonzero" fill-opacity="1"></path><path clip-path="url(#clip390)" d="M1879.35 14.324 L1879.35 27.2059 L1894.7 27.2059 L1894.7 32.9987 L1879.35 32.9987 L1879.35 57.6282 Q1879.35 63.1779 1880.84 64.7578 Q1882.38 66.3376 1887.04 66.3376 L1894.7 66.3376 L1894.7 72.576 L1887.04 72.576 Q1878.41 72.576 1875.13 69.3758 Q1871.85 66.1351 1871.85 57.6282 L1871.85 32.9987 L1866.38 32.9987 L1866.38 27.2059 L1871.85 27.2059 L1871.85 14.324 L1879.35 14.324 Z" fill="#000000" fill-rule="nonzero" fill-opacity="1"></path><path clip-path="url(#clip390)" d="M1930.79 34.1734 Q1929.54 33.4443 1928.04 33.1202 Q1926.58 32.7556 1924.8 32.7556 Q1918.48 32.7556 1915.08 36.8875 Q1911.71 40.9789 1911.71 48.6757 L1911.71 72.576 L1904.22 72.576 L1904.22 27.2059 L1911.71 27.2059 L1911.71 34.2544 Q1914.06 30.1225 1917.83 28.1376 Q1921.6 26.1121 1926.98 26.1121 Q1927.75 26.1121 1928.69 26.2337 Q1929.62 26.3147 1930.75 26.5172 L1930.79 34.1734 Z" fill="#000000" fill-rule="nonzero" fill-opacity="1"></path><path clip-path="url(#clip390)" d="M1938.61 27.2059 L1946.06 27.2059 L1946.06 72.576 L1938.61 72.576 L1938.61 27.2059 M1938.61 9.54393 L1946.06 9.54393 L1946.06 18.9825 L1938.61 18.9825 L1938.61 9.54393 Z" fill="#000000" fill-rule="nonzero" fill-opacity="1"></path><path clip-path="url(#clip390)" d="M1982.28 49.7694 Q1973.25 49.7694 1969.76 51.8354 Q1966.28 53.9013 1966.28 58.8839 Q1966.28 62.8538 1968.87 65.2034 Q1971.5 67.5124 1976 67.5124 Q1982.2 67.5124 1985.93 63.1374 Q1989.69 58.7219 1989.69 51.4303 L1989.69 49.7694 L1982.28 49.7694 M1997.15 46.6907 L1997.15 72.576 L1989.69 72.576 L1989.69 65.6895 Q1987.14 69.8214 1983.33 71.8063 Q1979.52 73.7508 1974.02 73.7508 Q1967.05 73.7508 1962.92 69.8619 Q1958.82 65.9325 1958.82 59.3701 Q1958.82 51.7138 1963.93 47.825 Q1969.07 43.9361 1979.24 43.9361 L1989.69 43.9361 L1989.69 43.2069 Q1989.69 38.0623 1986.29 35.2672 Q1982.93 32.4315 1976.81 32.4315 Q1972.92 32.4315 1969.24 33.3632 Q1965.55 34.295 1962.15 36.1584 L1962.15 29.2718 Q1966.24 27.692 1970.09 26.9223 Q1973.93 26.1121 1977.58 26.1121 Q1987.42 26.1121 1992.29 31.2163 Q1997.15 36.3204 1997.15 46.6907 Z" fill="#000000" fill-rule="nonzero" fill-opacity="1"></path><path clip-path="url(#clip390)" d="M2012.5 9.54393 L2019.95 9.54393 L2019.95 72.576 L2012.5 72.576 L2012.5 9.54393 Z" fill="#000000" fill-rule="nonzero" fill-opacity="1"></path><path clip-path="url(#clip390)" d="M2064.47 28.5427 L2064.47 35.5912 Q2061.31 33.9709 2057.91 33.1607 Q2054.51 32.3505 2050.86 32.3505 Q2045.31 32.3505 2042.52 34.0519 Q2039.76 35.7533 2039.76 39.156 Q2039.76 41.7486 2041.75 43.2475 Q2043.73 44.7058 2049.73 46.0426 L2052.28 46.6097 Q2060.22 48.3111 2063.54 51.4303 Q2066.9 54.509 2066.9 60.0587 Q2066.9 66.3781 2061.88 70.0644 Q2056.9 73.7508 2048.15 73.7508 Q2044.5 73.7508 2040.53 73.0216 Q2036.6 72.3329 2032.23 70.9151 L2032.23 63.2184 Q2036.36 65.3654 2040.37 66.4591 Q2044.38 67.5124 2048.31 67.5124 Q2053.58 67.5124 2056.41 65.73 Q2059.25 63.9071 2059.25 60.6258 Q2059.25 57.5877 2057.18 55.9673 Q2055.16 54.3469 2048.23 52.8481 L2045.64 52.2405 Q2038.71 50.7821 2035.63 47.7845 Q2032.55 44.7463 2032.55 39.4801 Q2032.55 33.0797 2037.09 29.5959 Q2041.63 26.1121 2049.97 26.1121 Q2054.1 26.1121 2057.75 26.7198 Q2061.39 27.3274 2064.47 28.5427 Z" fill="#000000" fill-rule="nonzero" fill-opacity="1"></path><polyline clip-path="url(#clip392)" style="stroke:#009af9; stroke-linecap:round; stroke-linejoin:round; stroke-width:8; stroke-opacity:1; fill:none" points="338.375,158.642 417.394,979.61 516.167,1019.77 614.94,1156.8 713.713,1103.17 1306.35,1256.61 2294.08,1330.98 "></polyline>
<circle clip-path="url(#clip392)" cx="338.375" cy="158.642" r="14.4" fill="#009af9" fill-rule="evenodd" fill-opacity="1" stroke="#000000" stroke-opacity="1" stroke-width="3.2"></circle>
<circle clip-path="url(#clip392)" cx="417.394" cy="979.61" r="14.4" fill="#009af9" fill-rule="evenodd" fill-opacity="1" stroke="#000000" stroke-opacity="1" stroke-width="3.2"></circle>
<circle clip-path="url(#clip392)" cx="516.167" cy="1019.77" r="14.4" fill="#009af9" fill-rule="evenodd" fill-opacity="1" stroke="#000000" stroke-opacity="1" stroke-width="3.2"></circle>
<circle clip-path="url(#clip392)" cx="614.94" cy="1156.8" r="14.4" fill="#009af9" fill-rule="evenodd" fill-opacity="1" stroke="#000000" stroke-opacity="1" stroke-width="3.2"></circle>
<circle clip-path="url(#clip392)" cx="713.713" cy="1103.17" r="14.4" fill="#009af9" fill-rule="evenodd" fill-opacity="1" stroke="#000000" stroke-opacity="1" stroke-width="3.2"></circle>
<circle clip-path="url(#clip392)" cx="1306.35" cy="1256.61" r="14.4" fill="#009af9" fill-rule="evenodd" fill-opacity="1" stroke="#000000" stroke-opacity="1" stroke-width="3.2"></circle>
<circle clip-path="url(#clip392)" cx="2294.08" cy="1330.98" r="14.4" fill="#009af9" fill-rule="evenodd" fill-opacity="1" stroke="#000000" stroke-opacity="1" stroke-width="3.2"></circle>
</svg>