<svg xmlns="http://www.w3.org/2000/svg" xmlns:xlink="http://www.w3.org/1999/xlink" width="600" height="400" viewBox="0 0 2400 1600">
<defs>
  <clipPath id="clip710">
    <rect x="0" y="0" width="2400" height="1600"></rect>
  </clipPath>
</defs>
<path clip-path="url(#clip710)" d="M0 1600 L2400 1600 L2400 8.88178e-14 L0 8.88178e-14  Z" fill="#ffffff" fill-rule="evenodd" fill-opacity="1"></path>
<defs>
  <clipPath id="clip711">
    <rect x="480" y="0" width="1681" height="1600"></rect>
  </clipPath>
</defs>
<path clip-path="url(#clip710)" d="M279.704 1366.15 L2352.76 1366.15 L2352.76 123.472 L279.704 123.472  Z" fill="#ffffff" fill-rule="evenodd" fill-opacity="1"></path>
<defs>
  <clipPath id="clip712">
    <rect x="279" y="123" width="2074" height="1244"></rect>
  </clipPath>
</defs>
<polyline clip-path="url(#clip712)" style="stroke:#000000; stroke-linecap:round; stroke-linejoin:round; stroke-width:2; stroke-opacity:0.1; fill:none" points="338.375,1366.15 338.375,123.472 "></polyline>
<polyline clip-path="url(#clip712)" style="stroke:#000000; stroke-linecap:round; stroke-linejoin:round; stroke-width:2; stroke-opacity:0.1; fill:none" points="417.394,1366.15 417.394,123.472 "></polyline>
<polyline clip-path="url(#clip712)" style="stroke:#000000; stroke-linecap:round; stroke-linejoin:round; stroke-width:2; stroke-opacity:0.1; fill:none" points="516.167,1366.15 516.167,123.472 "></polyline>
<polyline clip-path="url(#clip712)" style="stroke:#000000; stroke-linecap:round; stroke-linejoin:round; stroke-width:2; stroke-opacity:0.1; fill:none" points="614.94,1366.15 614.94,123.472 "></polyline>
<polyline clip-path="url(#clip712)" style="stroke:#000000; stroke-linecap:round; stroke-linejoin:round; stroke-width:2; stroke-opacity:0.1; fill:none" points="713.713,1366.15 713.713,123.472 "></polyline>
<polyline clip-path="url(#clip712)" style="stroke:#000000; stroke-linecap:round; stroke-linejoin:round; stroke-width:2; stroke-opacity:0.1; fill:none" points="1306.35,1366.15 1306.35,123.472 "></polyline>
<polyline clip-path="url(#clip712)" style="stroke:#000000; stroke-linecap:round; stroke-linejoin:round; stroke-width:2; stroke-opacity:0.1; fill:none" points="2294.08,1366.15 2294.08,123.472 "></polyline>
<polyline clip-path="url(#clip712)" style="stroke:#000000; stroke-linecap:round; stroke-linejoin:round; stroke-width:2; stroke-opacity:0.1; fill:none" points="279.704,1171.95 2352.76,1171.95 "></polyline>
<polyline clip-path="url(#clip712)" style="stroke:#000000; stroke-linecap:round; stroke-linejoin:round; stroke-width:2; stroke-opacity:0.1; fill:none" points="279.704,893.353 2352.76,893.353 "></polyline>
<polyline clip-path="url(#clip712)" style="stroke:#000000; stroke-linecap:round; stroke-linejoin:round; stroke-width:2; stroke-opacity:0.1; fill:none" points="279.704,614.761 2352.76,614.761 "></polyline>
<polyline clip-path="url(#clip712)" style="stroke:#000000; stroke-linecap:round; stroke-linejoin:round; stroke-width:2; stroke-opacity:0.1; fill:none" points="279.704,336.168 2352.76,336.168 "></polyline>
<polyline clip-path="url(#clip710)" style="stroke:#000000; stroke-linecap:round; stroke-linejoin:round; stroke-width:4; stroke-opacity:1; fill:none" points="279.704,1366.15 2352.76,1366.15 "></polyline>
<polyline clip-path="url(#clip710)" style="stroke:#000000; stroke-linecap:round; stroke-linejoin:round; stroke-width:4; stroke-opacity:1; fill:none" points="338.375,1366.15 338.375,1347.25 "></polyline>
<polyline clip-path="url(#clip710)" style="stroke:#000000; stroke-linecap:round; stroke-linejoin:round; stroke-width:4; stroke-opacity:1; fill:none" points="417.394,1366.15 417.394,1347.25 "></polyline>
<polyline clip-path="url(#clip710)" style="stroke:#000000; stroke-linecap:round; stroke-linejoin:round; stroke-width:4; stroke-opacity:1; fill:none" points="516.167,1366.15 516.167,1347.25 "></polyline>
<polyline clip-path="url(#clip710)" style="stroke:#000000; stroke-linecap:round; stroke-linejoin:round; stroke-width:4; stroke-opacity:1; fill:none" points="614.94,1366.15 614.94,1347.25 "></polyline>
<polyline clip-path="url(#clip710)" style="stroke:#000000; stroke-linecap:round; stroke-linejoin:round; stroke-width:4; stroke-opacity:1; fill:none" points="713.713,1366.15 713.713,1347.25 "></polyline>
<polyline clip-path="url(#clip710)" style="stroke:#000000; stroke-linecap:round; stroke-linejoin:round; stroke-width:4; stroke-opacity:1; fill:none" points="1306.35,1366.15 1306.35,1347.25 "></polyline>
<polyline clip-path="url(#clip710)" style="stroke:#000000; stroke-linecap:round; stroke-linejoin:round; stroke-width:4; stroke-opacity:1; fill:none" points="2294.08,1366.15 2294.08,1347.25 "></polyline>
<path clip-path="url(#clip710)" d="M290.212 1470.71 L295.613 1465.31 L276.97 1446.67 L272.273 1453.72 L269.261 1450.71 L273.926 1443.69 L277.232 1440.38 L298.887 1462.04 L304.289 1456.64 L307.071 1459.42 L292.995 1473.5 L290.212 1470.71 Z" fill="#000000" fill-rule="nonzero" fill-opacity="1"></path><path clip-path="url(#clip710)" d="M298.56 1423.41 Q296.006 1425.96 297.234 1429.78 Q298.462 1433.56 303.503 1438.6 Q308.528 1443.62 312.325 1444.87 Q316.123 1446.08 318.676 1443.53 Q321.246 1440.96 320.018 1437.17 Q318.791 1433.36 313.766 1428.34 Q308.724 1423.29 304.927 1422.08 Q301.13 1420.84 298.56 1423.41 M295.941 1420.79 Q300.049 1416.68 305.467 1417.78 Q310.885 1418.84 317.072 1425.03 Q323.243 1431.2 324.323 1436.63 Q325.403 1442.04 321.295 1446.14 Q317.187 1450.25 311.769 1449.19 Q306.351 1448.09 300.18 1441.92 Q293.993 1435.73 292.913 1430.33 Q291.832 1424.9 295.941 1420.79 Z" fill="#000000" fill-rule="nonzero" fill-opacity="1"></path><path clip-path="url(#clip710)" d="M319.887 1402.08 Q317.334 1404.64 318.562 1408.45 Q319.789 1412.23 324.831 1417.27 Q329.856 1422.3 333.653 1423.54 Q337.45 1424.75 340.004 1422.2 Q342.574 1419.63 341.346 1415.85 Q340.118 1412.03 335.093 1407.01 Q330.052 1401.97 326.255 1400.76 Q322.457 1399.51 319.887 1402.08 M317.268 1399.46 Q321.377 1395.35 326.795 1396.45 Q332.213 1397.51 338.4 1403.7 Q344.571 1409.87 345.651 1415.31 Q346.731 1420.71 342.623 1424.82 Q338.514 1428.93 333.096 1427.86 Q327.679 1426.76 321.508 1420.59 Q315.321 1414.41 314.24 1409.01 Q313.16 1403.57 317.268 1399.46 Z" fill="#000000" fill-rule="nonzero" fill-opacity="1"></path><path clip-path="url(#clip710)" d="M347.035 1449.6 L360.015 1436.62 L362.798 1439.4 L352.846 1449.35 L358.837 1455.34 Q359.311 1454.38 359.917 1453.54 Q360.506 1452.69 361.227 1451.97 Q365.319 1447.88 369.951 1447.73 Q374.583 1447.58 378.413 1451.42 Q382.358 1455.36 382.096 1460.01 Q381.818 1464.64 377.349 1469.11 Q375.811 1470.65 373.945 1471.99 Q372.095 1473.32 369.869 1474.49 L366.546 1471.17 Q368.821 1470.5 370.786 1469.32 Q372.75 1468.14 374.501 1466.39 Q377.333 1463.56 377.496 1460.42 Q377.66 1457.27 375.107 1454.72 Q372.553 1452.17 369.411 1452.33 Q366.268 1452.5 363.436 1455.33 Q362.11 1456.65 361.079 1458.27 Q360.064 1459.88 359.311 1461.87 L347.035 1449.6 Z" fill="#000000" fill-rule="nonzero" fill-opacity="1"></path><path clip-path="url(#clip710)" d="M377.578 1423.41 Q375.025 1425.96 376.252 1429.78 Q377.48 1433.56 382.521 1438.6 Q387.546 1443.62 391.344 1444.87 Q395.141 1446.08 397.695 1443.53 Q400.265 1440.96 399.037 1437.17 Q397.809 1433.36 392.784 1428.34 Q387.743 1423.29 383.945 1422.08 Q380.148 1420.84 377.578 1423.41 M374.959 1420.79 Q379.068 1416.68 384.486 1417.78 Q389.903 1418.84 396.091 1425.03 Q402.261 1431.2 403.342 1436.63 Q404.422 1442.04 400.314 1446.14 Q396.205 1450.25 390.787 1449.19 Q385.37 1448.09 379.199 1441.92 Q373.012 1435.73 371.931 1430.33 Q370.851 1424.9 374.959 1420.79 Z" fill="#000000" fill-rule="nonzero" fill-opacity="1"></path><path clip-path="url(#clip710)" d="M398.906 1402.08 Q396.353 1404.64 397.58 1408.45 Q398.808 1412.23 403.849 1417.27 Q408.874 1422.3 412.672 1423.54 Q416.469 1424.75 419.022 1422.2 Q421.592 1419.63 420.365 1415.85 Q419.137 1412.03 414.112 1407.01 Q409.071 1401.97 405.273 1400.76 Q401.476 1399.51 398.906 1402.08 M396.287 1399.46 Q400.395 1395.35 405.813 1396.45 Q411.231 1397.51 417.418 1403.7 Q423.589 1409.87 424.669 1415.31 Q425.75 1420.71 421.641 1424.82 Q417.533 1428.93 412.115 1427.86 Q406.697 1426.76 400.526 1420.59 Q394.339 1414.41 393.259 1409.01 Q392.179 1403.57 396.287 1399.46 Z" fill="#000000" fill-rule="nonzero" fill-opacity="1"></path><path clip-path="url(#clip710)" d="M446.676 1492.04 L452.078 1486.64 L433.434 1468 L428.737 1475.05 L425.725 1472.04 L430.39 1465.02 L433.696 1461.71 L455.351 1483.37 L460.753 1477.96 L463.535 1480.75 L449.459 1494.82 L446.676 1492.04 Z" fill="#000000" fill-rule="nonzero" fill-opacity="1"></path><path clip-path="url(#clip710)" d="M455.024 1444.74 Q452.47 1447.29 453.698 1451.1 Q454.926 1454.89 459.967 1459.93 Q464.992 1464.95 468.789 1466.2 Q472.587 1467.41 475.14 1464.85 Q477.71 1462.28 476.482 1458.5 Q475.255 1454.69 470.23 1449.66 Q465.188 1444.62 461.391 1443.41 Q457.594 1442.17 455.024 1444.74 M452.405 1442.12 Q456.513 1438.01 461.931 1439.11 Q467.349 1440.17 473.536 1446.36 Q479.707 1452.53 480.787 1457.96 Q481.868 1463.36 477.759 1467.47 Q473.651 1471.58 468.233 1470.52 Q462.815 1469.42 456.644 1463.25 Q450.457 1457.06 449.377 1451.66 Q448.297 1446.23 452.405 1442.12 Z" fill="#000000" fill-rule="nonzero" fill-opacity="1"></path><path clip-path="url(#clip710)" d="M476.351 1423.41 Q473.798 1425.96 475.026 1429.78 Q476.253 1433.56 481.295 1438.6 Q486.32 1443.62 490.117 1444.87 Q493.914 1446.08 496.468 1443.53 Q499.038 1440.96 497.81 1437.17 Q496.582 1433.36 491.557 1428.34 Q486.516 1423.29 482.719 1422.08 Q478.921 1420.84 476.351 1423.41 M473.733 1420.79 Q477.841 1416.68 483.259 1417.78 Q488.677 1418.84 494.864 1425.03 Q501.035 1431.2 502.115 1436.63 Q503.195 1442.04 499.087 1446.14 Q494.978 1450.25 489.561 1449.19 Q484.143 1448.09 477.972 1441.92 Q471.785 1435.73 470.704 1430.33 Q469.624 1424.9 473.733 1420.79 Z" fill="#000000" fill-rule="nonzero" fill-opacity="1"></path><path clip-path="url(#clip710)" d="M497.679 1402.08 Q495.126 1404.64 496.353 1408.45 Q497.581 1412.23 502.622 1417.27 Q507.647 1422.3 511.445 1423.54 Q515.242 1424.75 517.796 1422.2 Q520.365 1419.63 519.138 1415.85 Q517.91 1412.03 512.885 1407.01 Q507.844 1401.97 504.046 1400.76 Q500.249 1399.51 497.679 1402.08 M495.06 1399.46 Q499.169 1395.35 504.587 1396.45 Q510.004 1397.51 516.192 1403.7 Q522.362 1409.87 523.443 1415.31 Q524.523 1420.71 520.414 1424.82 Q516.306 1428.93 510.888 1427.86 Q505.47 1426.76 499.3 1420.59 Q493.112 1414.41 492.032 1409.01 Q490.952 1403.57 495.06 1399.46 Z" fill="#000000" fill-rule="nonzero" fill-opacity="1"></path><path clip-path="url(#clip710)" d="M545.449 1492.04 L550.851 1486.64 L532.207 1468 L527.51 1475.05 L524.498 1472.04 L529.163 1465.02 L532.469 1461.71 L554.124 1483.37 L559.526 1477.96 L562.308 1480.75 L548.232 1494.82 L545.449 1492.04 Z" fill="#000000" fill-rule="nonzero" fill-opacity="1"></path><path clip-path="url(#clip710)" d="M544.582 1449.6 L557.562 1436.62 L560.344 1439.4 L550.392 1449.35 L556.383 1455.34 Q556.858 1454.38 557.463 1453.54 Q558.053 1452.69 558.773 1451.97 Q562.865 1447.88 567.497 1447.73 Q572.129 1447.58 575.959 1451.42 Q579.904 1455.36 579.642 1460.01 Q579.364 1464.64 574.896 1469.11 Q573.357 1470.65 571.491 1471.99 Q569.641 1473.32 567.415 1474.49 L564.093 1471.17 Q566.368 1470.5 568.332 1469.32 Q570.296 1468.14 572.047 1466.39 Q574.879 1463.56 575.043 1460.42 Q575.207 1457.27 572.653 1454.72 Q570.1 1452.17 566.957 1452.33 Q563.814 1452.5 560.983 1455.33 Q559.657 1456.65 558.626 1458.27 Q557.611 1459.88 556.858 1461.87 L544.582 1449.6 Z" fill="#000000" fill-rule="nonzero" fill-opacity="1"></path><path clip-path="url(#clip710)" d="M575.125 1423.41 Q572.571 1425.96 573.799 1429.78 Q575.026 1433.56 580.068 1438.6 Q585.093 1443.62 588.89 1444.87 Q592.688 1446.08 595.241 1443.53 Q597.811 1440.96 596.583 1437.17 Q595.356 1433.36 590.331 1428.34 Q585.289 1423.29 581.492 1422.08 Q577.694 1420.84 575.125 1423.41 M572.506 1420.79 Q576.614 1416.68 582.032 1417.78 Q587.45 1418.84 593.637 1425.03 Q599.808 1431.2 600.888 1436.63 Q601.968 1442.04 597.86 1446.14 Q593.752 1450.25 588.334 1449.19 Q582.916 1448.09 576.745 1441.92 Q570.558 1435.73 569.478 1430.33 Q568.397 1424.9 572.506 1420.79 Z" fill="#000000" fill-rule="nonzero" fill-opacity="1"></path><path clip-path="url(#clip710)" d="M596.452 1402.08 Q593.899 1404.64 595.127 1408.45 Q596.354 1412.23 601.396 1417.27 Q606.421 1422.3 610.218 1423.54 Q614.015 1424.75 616.569 1422.2 Q619.139 1419.63 617.911 1415.85 Q616.683 1412.03 611.658 1407.01 Q606.617 1401.97 602.82 1400.76 Q599.022 1399.51 596.452 1402.08 M593.833 1399.46 Q597.942 1395.35 603.36 1396.45 Q608.778 1397.51 614.965 1403.7 Q621.135 1409.87 622.216 1415.31 Q623.296 1420.71 619.188 1424.82 Q615.079 1428.93 609.661 1427.86 Q604.244 1426.76 598.073 1420.59 Q591.886 1414.41 590.805 1409.01 Q589.725 1403.57 593.833 1399.46 Z" fill="#000000" fill-rule="nonzero" fill-opacity="1"></path><path clip-path="url(#clip710)" d="M646.498 1489.77 L658.037 1478.23 L660.82 1481.01 L645.303 1496.53 L642.52 1493.74 Q642.455 1489.91 642.422 1483.4 Q642.389 1476.85 642.275 1475.07 Q642.078 1471.7 641.473 1469.85 Q640.867 1467.96 639.672 1466.77 Q637.724 1464.82 635.122 1464.97 Q632.536 1465.1 630.342 1467.29 Q628.787 1468.85 627.592 1471.12 Q626.414 1473.38 625.546 1476.44 L622.207 1473.1 Q623.402 1470.3 624.728 1468.16 Q626.054 1466.02 627.494 1464.58 Q631.292 1460.78 635.449 1460.42 Q639.607 1460.06 642.782 1463.23 Q644.288 1464.74 645.074 1466.67 Q645.859 1468.57 646.203 1471.89 Q646.269 1472.78 646.35 1477.24 Q646.416 1481.7 646.498 1489.77 Z" fill="#000000" fill-rule="nonzero" fill-opacity="1"></path><path clip-path="url(#clip710)" d="M652.57 1444.74 Q650.017 1447.29 651.244 1451.1 Q652.472 1454.89 657.513 1459.93 Q662.538 1464.95 666.336 1466.2 Q670.133 1467.41 672.687 1464.85 Q675.256 1462.28 674.029 1458.5 Q672.801 1454.69 667.776 1449.66 Q662.735 1444.62 658.937 1443.41 Q655.14 1442.17 652.57 1444.74 M649.951 1442.12 Q654.06 1438.01 659.478 1439.11 Q664.895 1440.17 671.083 1446.36 Q677.253 1452.53 678.334 1457.96 Q679.414 1463.36 675.306 1467.47 Q671.197 1471.58 665.779 1470.52 Q660.361 1469.42 654.191 1463.25 Q648.004 1457.06 646.923 1451.66 Q645.843 1446.23 649.951 1442.12 Z" fill="#000000" fill-rule="nonzero" fill-opacity="1"></path><path clip-path="url(#clip710)" d="M673.898 1423.41 Q671.344 1425.96 672.572 1429.78 Q673.8 1433.56 678.841 1438.6 Q683.866 1443.62 687.663 1444.87 Q691.461 1446.08 694.014 1443.53 Q696.584 1440.96 695.357 1437.17 Q694.129 1433.36 689.104 1428.34 Q684.063 1423.29 680.265 1422.08 Q676.468 1420.84 673.898 1423.41 M671.279 1420.79 Q675.387 1416.68 680.805 1417.78 Q686.223 1418.84 692.41 1425.03 Q698.581 1431.2 699.661 1436.63 Q700.742 1442.04 696.633 1446.14 Q692.525 1450.25 687.107 1449.19 Q681.689 1448.09 675.518 1441.92 Q669.331 1435.73 668.251 1430.33 Q667.171 1424.9 671.279 1420.79 Z" fill="#000000" fill-rule="nonzero" fill-opacity="1"></path><path clip-path="url(#clip710)" d="M695.226 1402.08 Q692.672 1404.64 693.9 1408.45 Q695.127 1412.23 700.169 1417.27 Q705.194 1422.3 708.991 1423.54 Q712.789 1424.75 715.342 1422.2 Q717.912 1419.63 716.684 1415.85 Q715.457 1412.03 710.432 1407.01 Q705.39 1401.97 701.593 1400.76 Q697.795 1399.51 695.226 1402.08 M692.607 1399.46 Q696.715 1395.35 702.133 1396.45 Q707.551 1397.51 713.738 1403.7 Q719.909 1409.87 720.989 1415.31 Q722.069 1420.71 717.961 1424.82 Q713.852 1428.93 708.435 1427.86 Q703.017 1426.76 696.846 1420.59 Q690.659 1414.41 689.579 1409.01 Q688.498 1403.57 692.607 1399.46 Z" fill="#000000" fill-rule="nonzero" fill-opacity="1"></path><path clip-path="url(#clip710)" d="M1214.67 1470.93 L1227.65 1457.95 L1230.43 1460.73 L1220.48 1470.68 L1226.47 1476.67 Q1226.94 1475.71 1227.55 1474.87 Q1228.14 1474.02 1228.86 1473.3 Q1232.95 1469.21 1237.58 1469.06 Q1242.21 1468.91 1246.04 1472.74 Q1249.99 1476.69 1249.73 1481.34 Q1249.45 1485.97 1244.98 1490.44 Q1243.44 1491.98 1241.58 1493.32 Q1239.73 1494.64 1237.5 1495.82 L1234.18 1492.5 Q1236.45 1491.83 1238.42 1490.65 Q1240.38 1489.47 1242.13 1487.72 Q1244.96 1484.89 1245.13 1481.75 Q1245.29 1478.6 1242.74 1476.05 Q1240.18 1473.5 1237.04 1473.66 Q1233.9 1473.82 1231.07 1476.65 Q1229.74 1477.98 1228.71 1479.6 Q1227.7 1481.21 1226.94 1483.2 L1214.67 1470.93 Z" fill="#000000" fill-rule="nonzero" fill-opacity="1"></path><path clip-path="url(#clip710)" d="M1245.21 1444.74 Q1242.66 1447.29 1243.88 1451.1 Q1245.11 1454.89 1250.15 1459.93 Q1255.18 1464.95 1258.98 1466.2 Q1262.77 1467.41 1265.33 1464.85 Q1267.9 1462.28 1266.67 1458.5 Q1265.44 1454.69 1260.42 1449.66 Q1255.37 1444.62 1251.58 1443.41 Q1247.78 1442.17 1245.21 1444.74 M1242.59 1442.12 Q1246.7 1438.01 1252.12 1439.11 Q1257.53 1440.17 1263.72 1446.36 Q1269.89 1452.53 1270.97 1457.96 Q1272.05 1463.36 1267.94 1467.47 Q1263.84 1471.58 1258.42 1470.52 Q1253 1469.42 1246.83 1463.25 Q1240.64 1457.06 1239.56 1451.66 Q1238.48 1446.23 1242.59 1442.12 Z" fill="#000000" fill-rule="nonzero" fill-opacity="1"></path><path clip-path="url(#clip710)" d="M1266.54 1423.41 Q1263.98 1425.96 1265.21 1429.78 Q1266.44 1433.56 1271.48 1438.6 Q1276.51 1443.62 1280.3 1444.87 Q1284.1 1446.08 1286.65 1443.53 Q1289.22 1440.96 1288 1437.17 Q1286.77 1433.36 1281.74 1428.34 Q1276.7 1423.29 1272.9 1422.08 Q1269.11 1420.84 1266.54 1423.41 M1263.92 1420.79 Q1268.03 1416.68 1273.44 1417.78 Q1278.86 1418.84 1285.05 1425.03 Q1291.22 1431.2 1292.3 1436.63 Q1293.38 1442.04 1289.27 1446.14 Q1285.16 1450.25 1279.75 1449.19 Q1274.33 1448.09 1268.16 1441.92 Q1261.97 1435.73 1260.89 1430.33 Q1259.81 1424.9 1263.92 1420.79 Z" fill="#000000" fill-rule="nonzero" fill-opacity="1"></path><path clip-path="url(#clip710)" d="M1287.86 1402.08 Q1285.31 1404.64 1286.54 1408.45 Q1287.77 1412.23 1292.81 1417.27 Q1297.83 1422.3 1301.63 1423.54 Q1305.43 1424.75 1307.98 1422.2 Q1310.55 1419.63 1309.32 1415.85 Q1308.1 1412.03 1303.07 1407.01 Q1298.03 1401.97 1294.23 1400.76 Q1290.43 1399.51 1287.86 1402.08 M1285.25 1399.46 Q1289.35 1395.35 1294.77 1396.45 Q1300.19 1397.51 1306.38 1403.7 Q1312.55 1409.87 1313.63 1415.31 Q1314.71 1420.71 1310.6 1424.82 Q1306.49 1428.93 1301.07 1427.86 Q1295.66 1426.76 1289.49 1420.59 Q1283.3 1414.41 1282.22 1409.01 Q1281.14 1403.57 1285.25 1399.46 Z" fill="#000000" fill-rule="nonzero" fill-opacity="1"></path><path clip-path="url(#clip710)" d="M2203.27 1513.37 L2208.67 1507.97 L2190.02 1489.32 L2185.33 1496.38 L2182.31 1493.37 L2186.98 1486.34 L2190.29 1483.04 L2211.94 1504.69 L2217.34 1499.29 L2220.13 1502.07 L2206.05 1516.15 L2203.27 1513.37 Z" fill="#000000" fill-rule="nonzero" fill-opacity="1"></path><path clip-path="url(#clip710)" d="M2211.61 1466.06 Q2209.06 1468.62 2210.29 1472.43 Q2211.52 1476.21 2216.56 1481.25 Q2221.58 1486.28 2225.38 1487.52 Q2229.18 1488.73 2231.73 1486.18 Q2234.3 1483.61 2233.07 1479.83 Q2231.84 1476.02 2226.82 1470.99 Q2221.78 1465.95 2217.98 1464.74 Q2214.18 1463.49 2211.61 1466.06 M2208.99 1463.45 Q2213.1 1459.34 2218.52 1460.43 Q2223.94 1461.5 2230.13 1467.69 Q2236.3 1473.86 2237.38 1479.29 Q2238.46 1484.69 2234.35 1488.8 Q2230.24 1492.91 2224.82 1491.84 Q2219.41 1490.75 2213.23 1484.58 Q2207.05 1478.39 2205.97 1472.99 Q2204.89 1467.55 2208.99 1463.45 Z" fill="#000000" fill-rule="nonzero" fill-opacity="1"></path><path clip-path="url(#clip710)" d="M2232.94 1444.74 Q2230.39 1447.29 2231.62 1451.1 Q2232.84 1454.89 2237.88 1459.93 Q2242.91 1464.95 2246.71 1466.2 Q2250.5 1467.41 2253.06 1464.85 Q2255.63 1462.28 2254.4 1458.5 Q2253.17 1454.69 2248.15 1449.66 Q2243.11 1444.62 2239.31 1443.41 Q2235.51 1442.17 2232.94 1444.74 M2230.32 1442.12 Q2234.43 1438.01 2239.85 1439.11 Q2245.27 1440.17 2251.45 1446.36 Q2257.62 1452.53 2258.7 1457.96 Q2259.79 1463.36 2255.68 1467.47 Q2251.57 1471.58 2246.15 1470.52 Q2240.73 1469.42 2234.56 1463.25 Q2228.37 1457.06 2227.29 1451.66 Q2226.21 1446.23 2230.32 1442.12 Z" fill="#000000" fill-rule="nonzero" fill-opacity="1"></path><path clip-path="url(#clip710)" d="M2254.27 1423.41 Q2251.72 1425.96 2252.94 1429.78 Q2254.17 1433.56 2259.21 1438.6 Q2264.24 1443.62 2268.03 1444.87 Q2271.83 1446.08 2274.39 1443.53 Q2276.96 1440.96 2275.73 1437.17 Q2274.5 1433.36 2269.48 1428.34 Q2264.43 1423.29 2260.64 1422.08 Q2256.84 1420.84 2254.27 1423.41 M2251.65 1420.79 Q2255.76 1416.68 2261.18 1417.78 Q2266.59 1418.84 2272.78 1425.03 Q2278.95 1431.2 2280.03 1436.63 Q2281.11 1442.04 2277 1446.14 Q2272.9 1450.25 2267.48 1449.19 Q2262.06 1448.09 2255.89 1441.92 Q2249.7 1435.73 2248.62 1430.33 Q2247.54 1424.9 2251.65 1420.79 Z" fill="#000000" fill-rule="nonzero" fill-opacity="1"></path><path clip-path="url(#clip710)" d="M2275.6 1402.08 Q2273.04 1404.64 2274.27 1408.45 Q2275.5 1412.23 2280.54 1417.27 Q2285.57 1422.3 2289.36 1423.54 Q2293.16 1424.75 2295.71 1422.2 Q2298.28 1419.63 2297.06 1415.85 Q2295.83 1412.03 2290.8 1407.01 Q2285.76 1401.97 2281.96 1400.76 Q2278.17 1399.51 2275.6 1402.08 M2272.98 1399.46 Q2277.09 1395.35 2282.5 1396.45 Q2287.92 1397.51 2294.11 1403.7 Q2300.28 1409.87 2301.36 1415.31 Q2302.44 1420.71 2298.33 1424.82 Q2294.22 1428.93 2288.81 1427.86 Q2283.39 1426.76 2277.22 1420.59 Q2271.03 1414.41 2269.95 1409.01 Q2268.87 1403.57 2272.98 1399.46 Z" fill="#000000" fill-rule="nonzero" fill-opacity="1"></path><path clip-path="url(#clip710)" d="M1011.09 1549.04 L1019.75 1549.04 L1040.82 1588.79 L1040.82 1549.04 L1047.06 1549.04 L1047.06 1596.56 L1038.4 1596.56 L1017.33 1556.81 L1017.33 1596.56 L1011.09 1596.56 L1011.09 1549.04 Z" fill="#000000" fill-rule="nonzero" fill-opacity="1"></path><path clip-path="url(#clip710)" d="M1058.99 1582.49 L1058.99 1560.91 L1064.85 1560.91 L1064.85 1582.27 Q1064.85 1587.33 1066.82 1589.88 Q1068.79 1592.39 1072.74 1592.39 Q1077.48 1592.39 1080.22 1589.37 Q1082.99 1586.34 1082.99 1581.12 L1082.99 1560.91 L1088.85 1560.91 L1088.85 1596.56 L1082.99 1596.56 L1082.99 1591.08 Q1080.86 1594.33 1078.03 1595.92 Q1075.22 1597.48 1071.5 1597.48 Q1065.36 1597.48 1062.17 1593.66 Q1058.99 1589.84 1058.99 1582.49 M1073.73 1560.05 L1073.73 1560.05 Z" fill="#000000" fill-rule="nonzero" fill-opacity="1"></path><path clip-path="url(#clip710)" d="M1128.66 1567.75 Q1130.86 1563.81 1133.92 1561.93 Q1136.97 1560.05 1141.11 1560.05 Q1146.68 1560.05 1149.7 1563.97 Q1152.73 1567.85 1152.73 1575.04 L1152.73 1596.56 L1146.84 1596.56 L1146.84 1575.23 Q1146.84 1570.11 1145.02 1567.63 Q1143.21 1565.14 1139.49 1565.14 Q1134.93 1565.14 1132.29 1568.17 Q1129.65 1571.19 1129.65 1576.41 L1129.65 1596.56 L1123.76 1596.56 L1123.76 1575.23 Q1123.76 1570.08 1121.95 1567.63 Q1120.13 1565.14 1116.35 1565.14 Q1111.86 1565.14 1109.22 1568.2 Q1106.58 1571.22 1106.58 1576.41 L1106.58 1596.56 L1100.69 1596.56 L1100.69 1560.91 L1106.58 1560.91 L1106.58 1566.45 Q1108.58 1563.17 1111.38 1561.61 Q1114.18 1560.05 1118.03 1560.05 Q1121.92 1560.05 1124.62 1562.03 Q1127.36 1564 1128.66 1567.75 Z" fill="#000000" fill-rule="nonzero" fill-opacity="1"></path><path clip-path="url(#clip710)" d="M1190 1578.77 Q1190 1572.31 1187.32 1568.65 Q1184.68 1564.95 1180.04 1564.95 Q1175.39 1564.95 1172.72 1568.65 Q1170.07 1572.31 1170.07 1578.77 Q1170.07 1585.23 1172.72 1588.92 Q1175.39 1592.58 1180.04 1592.58 Q1184.68 1592.58 1187.32 1588.92 Q1190 1585.23 1190 1578.77 M1170.07 1566.32 Q1171.92 1563.14 1174.72 1561.61 Q1177.55 1560.05 1181.47 1560.05 Q1187.96 1560.05 1192 1565.21 Q1196.08 1570.36 1196.08 1578.77 Q1196.08 1587.17 1192 1592.33 Q1187.96 1597.48 1181.47 1597.48 Q1177.55 1597.48 1174.72 1595.95 Q1171.92 1594.39 1170.07 1591.21 L1170.07 1596.56 L1164.19 1596.56 L1164.19 1547.03 L1170.07 1547.03 L1170.07 1566.32 Z" fill="#000000" fill-rule="nonzero" fill-opacity="1"></path><path clip-path="url(#clip710)" d="M1236.28 1577.27 L1236.28 1580.14 L1209.35 1580.14 Q1209.73 1586.18 1212.98 1589.37 Q1216.26 1592.52 1222.08 1592.52 Q1225.45 1592.52 1228.61 1591.69 Q1231.79 1590.86 1234.91 1589.21 L1234.91 1594.74 Q1231.76 1596.08 1228.45 1596.78 Q1225.14 1597.48 1221.73 1597.48 Q1213.2 1597.48 1208.2 1592.52 Q1203.24 1587.55 1203.24 1579.09 Q1203.24 1570.33 1207.95 1565.21 Q1212.69 1560.05 1220.71 1560.05 Q1227.91 1560.05 1232.08 1564.7 Q1236.28 1569.31 1236.28 1577.27 M1230.42 1575.55 Q1230.36 1570.75 1227.71 1567.88 Q1225.1 1565.02 1220.78 1565.02 Q1215.87 1565.02 1212.91 1567.79 Q1209.99 1570.56 1209.54 1575.58 L1230.42 1575.55 Z" fill="#000000" fill-rule="nonzero" fill-opacity="1"></path><path clip-path="url(#clip710)" d="M1266.55 1566.39 Q1265.56 1565.81 1264.38 1565.56 Q1263.24 1565.27 1261.83 1565.27 Q1256.87 1565.27 1254.2 1568.52 Q1251.55 1571.73 1251.55 1577.78 L1251.55 1596.56 L1245.67 1596.56 L1245.67 1560.91 L1251.55 1560.91 L1251.55 1566.45 Q1253.4 1563.2 1256.36 1561.64 Q1259.32 1560.05 1263.55 1560.05 Q1264.16 1560.05 1264.89 1560.15 Q1265.62 1560.21 1266.51 1560.37 L1266.55 1566.39 Z" fill="#000000" fill-rule="nonzero" fill-opacity="1"></path><path clip-path="url(#clip710)" d="M1307.22 1565.02 Q1302.51 1565.02 1299.77 1568.71 Q1297.04 1572.37 1297.04 1578.77 Q1297.04 1585.16 1299.74 1588.86 Q1302.48 1592.52 1307.22 1592.52 Q1311.9 1592.52 1314.64 1588.82 Q1317.38 1585.13 1317.38 1578.77 Q1317.38 1572.43 1314.64 1568.74 Q1311.9 1565.02 1307.22 1565.02 M1307.22 1560.05 Q1314.86 1560.05 1319.22 1565.02 Q1323.58 1569.98 1323.58 1578.77 Q1323.58 1587.52 1319.22 1592.52 Q1314.86 1597.48 1307.22 1597.48 Q1299.55 1597.48 1295.19 1592.52 Q1290.86 1587.52 1290.86 1578.77 Q1290.86 1569.98 1295.19 1565.02 Q1299.55 1560.05 1307.22 1560.05 Z" fill="#000000" fill-rule="nonzero" fill-opacity="1"></path><path clip-path="url(#clip710)" d="M1351.34 1547.03 L1351.34 1551.9 L1345.73 1551.9 Q1342.58 1551.9 1341.34 1553.18 Q1340.13 1554.45 1340.13 1557.76 L1340.13 1560.91 L1349.78 1560.91 L1349.78 1565.46 L1340.13 1565.46 L1340.13 1596.56 L1334.24 1596.56 L1334.24 1565.46 L1328.64 1565.46 L1328.64 1560.91 L1334.24 1560.91 L1334.24 1558.43 Q1334.24 1552.48 1337.01 1549.77 Q1339.78 1547.03 1345.8 1547.03 L1351.34 1547.03 Z" fill="#000000" fill-rule="nonzero" fill-opacity="1"></path><path clip-path="url(#clip710)" d="M1373.55 1560.91 L1379.41 1560.91 L1386.73 1588.73 L1394.02 1560.91 L1400.93 1560.91 L1408.25 1588.73 L1415.53 1560.91 L1421.39 1560.91 L1412.07 1596.56 L1405.16 1596.56 L1397.49 1567.34 L1389.79 1596.56 L1382.88 1596.56 L1373.55 1560.91 Z" fill="#000000" fill-rule="nonzero" fill-opacity="1"></path><path clip-path="url(#clip710)" d="M1460.76 1577.27 L1460.76 1580.14 L1433.84 1580.14 Q1434.22 1586.18 1437.46 1589.37 Q1440.74 1592.52 1446.57 1592.52 Q1449.94 1592.52 1453.09 1591.69 Q1456.28 1590.86 1459.39 1589.21 L1459.39 1594.74 Q1456.24 1596.08 1452.93 1596.78 Q1449.62 1597.48 1446.22 1597.48 Q1437.69 1597.48 1432.69 1592.52 Q1427.73 1587.55 1427.73 1579.09 Q1427.73 1570.33 1432.44 1565.21 Q1437.18 1560.05 1445.2 1560.05 Q1452.39 1560.05 1456.56 1564.7 Q1460.76 1569.31 1460.76 1577.27 M1454.91 1575.55 Q1454.84 1570.75 1452.2 1567.88 Q1449.59 1565.02 1445.26 1565.02 Q1440.36 1565.02 1437.4 1567.79 Q1434.47 1570.56 1434.03 1575.58 L1454.91 1575.55 Z" fill="#000000" fill-rule="nonzero" fill-opacity="1"></path><path clip-path="url(#clip710)" d="M1470.38 1560.91 L1476.23 1560.91 L1476.23 1596.56 L1470.38 1596.56 L1470.38 1560.91 M1470.38 1547.03 L1476.23 1547.03 L1476.23 1554.45 L1470.38 1554.45 L1470.38 1547.03 Z" fill="#000000" fill-rule="nonzero" fill-opacity="1"></path><path clip-path="url(#clip710)" d="M1511.94 1578.32 Q1511.94 1571.96 1509.3 1568.45 Q1506.69 1564.95 1501.95 1564.95 Q1497.24 1564.95 1494.6 1568.45 Q1491.99 1571.96 1491.99 1578.32 Q1491.99 1584.66 1494.6 1588.16 Q1497.24 1591.66 1501.95 1591.66 Q1506.69 1591.66 1509.3 1588.16 Q1511.94 1584.66 1511.94 1578.32 M1517.8 1592.13 Q1517.8 1601.24 1513.76 1605.66 Q1509.72 1610.12 1501.38 1610.12 Q1498.29 1610.12 1495.55 1609.64 Q1492.81 1609.2 1490.24 1608.24 L1490.24 1602.54 Q1492.81 1603.94 1495.33 1604.61 Q1497.84 1605.28 1500.45 1605.28 Q1506.21 1605.28 1509.08 1602.26 Q1511.94 1599.26 1511.94 1593.19 L1511.94 1590.29 Q1510.13 1593.44 1507.3 1595 Q1504.46 1596.56 1500.52 1596.56 Q1493.96 1596.56 1489.95 1591.56 Q1485.94 1586.56 1485.94 1578.32 Q1485.94 1570.05 1489.95 1565.05 Q1493.96 1560.05 1500.52 1560.05 Q1504.46 1560.05 1507.3 1561.61 Q1510.13 1563.17 1511.94 1566.32 L1511.94 1560.91 L1517.8 1560.91 L1517.8 1592.13 Z" fill="#000000" fill-rule="nonzero" fill-opacity="1"></path><path clip-path="url(#clip710)" d="M1559.5 1575.04 L1559.5 1596.56 L1553.64 1596.56 L1553.64 1575.23 Q1553.64 1570.17 1551.67 1567.66 Q1549.69 1565.14 1545.75 1565.14 Q1541 1565.14 1538.27 1568.17 Q1535.53 1571.19 1535.53 1576.41 L1535.53 1596.56 L1529.64 1596.56 L1529.64 1547.03 L1535.53 1547.03 L1535.53 1566.45 Q1537.63 1563.23 1540.46 1561.64 Q1543.33 1560.05 1547.05 1560.05 Q1553.19 1560.05 1556.34 1563.87 Q1559.5 1567.66 1559.5 1575.04 Z" fill="#000000" fill-rule="nonzero" fill-opacity="1"></path><path clip-path="url(#clip710)" d="M1576.97 1550.79 L1576.97 1560.91 L1589.03 1560.91 L1589.03 1565.46 L1576.97 1565.46 L1576.97 1584.81 Q1576.97 1589.17 1578.15 1590.42 Q1579.36 1591.66 1583.02 1591.66 L1589.03 1591.66 L1589.03 1596.56 L1583.02 1596.56 Q1576.24 1596.56 1573.66 1594.04 Q1571.08 1591.5 1571.08 1584.81 L1571.08 1565.46 L1566.78 1565.46 L1566.78 1560.91 L1571.08 1560.91 L1571.08 1550.79 L1576.97 1550.79 Z" fill="#000000" fill-rule="nonzero" fill-opacity="1"></path><path clip-path="url(#clip710)" d="M1619.46 1561.96 L1619.46 1567.5 Q1616.98 1566.23 1614.3 1565.59 Q1611.63 1564.95 1608.77 1564.95 Q1604.41 1564.95 1602.21 1566.29 Q1600.04 1567.63 1600.04 1570.3 Q1600.04 1572.34 1601.6 1573.52 Q1603.16 1574.66 1607.87 1575.71 L1609.88 1576.16 Q1616.12 1577.49 1618.73 1579.94 Q1621.37 1582.36 1621.37 1586.72 Q1621.37 1591.69 1617.42 1594.59 Q1613.51 1597.48 1606.63 1597.48 Q1603.77 1597.48 1600.65 1596.91 Q1597.56 1596.37 1594.12 1595.25 L1594.12 1589.21 Q1597.37 1590.89 1600.52 1591.75 Q1603.67 1592.58 1606.76 1592.58 Q1610.9 1592.58 1613.13 1591.18 Q1615.35 1589.75 1615.35 1587.17 Q1615.35 1584.78 1613.73 1583.51 Q1612.14 1582.24 1606.7 1581.06 L1604.66 1580.58 Q1599.22 1579.44 1596.8 1577.08 Q1594.38 1574.69 1594.38 1570.56 Q1594.38 1565.53 1597.94 1562.79 Q1601.51 1560.05 1608.07 1560.05 Q1611.31 1560.05 1614.18 1560.53 Q1617.04 1561.01 1619.46 1561.96 Z" fill="#000000" fill-rule="nonzero" fill-opacity="1"></path><polyline clip-path="url(#clip710)" style="stroke:#000000; stroke-linecap:round; stroke-linejoin:round; stroke-width:4; stroke-opacity:1; fill:none" points="279.704,1366.15 279.704,123.472 "></polyline>
<polyline clip-path="url(#clip710)" style="stroke:#000000; stroke-linecap:round; stroke-linejoin:round; stroke-width:4; stroke-opacity:1; fill:none" points="279.704,1171.95 298.602,1171.95 "></polyline>
<polyline clip-path="url(#clip710)" style="stroke:#000000; stroke-linecap:round; stroke-linejoin:round; stroke-width:4; stroke-opacity:1; fill:none" points="279.704,893.353 298.602,893.353 "></polyline>
<polyline clip-path="url(#clip710)" style="stroke:#000000; stroke-linecap:round; stroke-linejoin:round; stroke-width:4; stroke-opacity:1; fill:none" points="279.704,614.761 298.602,614.761 "></polyline>
<polyline clip-path="url(#clip710)" style="stroke:#000000; stroke-linecap:round; stroke-linejoin:round; stroke-width:4; stroke-opacity:1; fill:none" points="279.704,336.168 298.602,336.168 "></polyline>
<path clip-path="url(#clip710)" d="M127.2 1157.74 Q123.589 1157.74 121.76 1161.31 Q119.955 1164.85 119.955 1171.98 Q119.955 1179.09 121.76 1182.65 Q123.589 1186.19 127.2 1186.19 Q130.834 1186.19 132.64 1182.65 Q134.468 1179.09 134.468 1171.98 Q134.468 1164.85 132.64 1161.31 Q130.834 1157.74 127.2 1157.74 M127.2 1154.04 Q133.01 1154.04 136.066 1158.65 Q139.144 1163.23 139.144 1171.98 Q139.144 1180.71 136.066 1185.31 Q133.01 1189.9 127.2 1189.9 Q121.39 1189.9 118.311 1185.31 Q115.256 1180.71 115.256 1171.98 Q115.256 1163.23 118.311 1158.65 Q121.39 1154.04 127.2 1154.04 Z" fill="#000000" fill-rule="nonzero" fill-opacity="1"></path><path clip-path="url(#clip710)" d="M147.362 1183.35 L152.246 1183.35 L152.246 1189.23 L147.362 1189.23 L147.362 1183.35 Z" fill="#000000" fill-rule="nonzero" fill-opacity="1"></path><path clip-path="url(#clip710)" d="M172.431 1157.74 Q168.82 1157.74 166.991 1161.31 Q165.186 1164.85 165.186 1171.98 Q165.186 1179.09 166.991 1182.65 Q168.82 1186.19 172.431 1186.19 Q176.065 1186.19 177.871 1182.65 Q179.7 1179.09 179.7 1171.98 Q179.7 1164.85 177.871 1161.31 Q176.065 1157.74 172.431 1157.74 M172.431 1154.04 Q178.241 1154.04 181.297 1158.65 Q184.376 1163.23 184.376 1171.98 Q184.376 1180.71 181.297 1185.31 Q178.241 1189.9 172.431 1189.9 Q166.621 1189.9 163.542 1185.31 Q160.487 1180.71 160.487 1171.98 Q160.487 1163.23 163.542 1158.65 Q166.621 1154.04 172.431 1154.04 Z" fill="#000000" fill-rule="nonzero" fill-opacity="1"></path><path clip-path="url(#clip710)" d="M202.593 1157.74 Q198.982 1157.74 197.153 1161.31 Q195.348 1164.85 195.348 1171.98 Q195.348 1179.09 197.153 1182.65 Q198.982 1186.19 202.593 1186.19 Q206.227 1186.19 208.033 1182.65 Q209.861 1179.09 209.861 1171.98 Q209.861 1164.85 208.033 1161.31 Q206.227 1157.74 202.593 1157.74 M202.593 1154.04 Q208.403 1154.04 211.459 1158.65 Q214.537 1163.23 214.537 1171.98 Q214.537 1180.71 211.459 1185.31 Q208.403 1189.9 202.593 1189.9 Q196.783 1189.9 193.704 1185.31 Q190.649 1180.71 190.649 1171.98 Q190.649 1163.23 193.704 1158.65 Q196.783 1154.04 202.593 1154.04 Z" fill="#000000" fill-rule="nonzero" fill-opacity="1"></path><path clip-path="url(#clip710)" d="M222.801 1154.67 L241.158 1154.67 L241.158 1158.6 L227.084 1158.6 L227.084 1167.07 Q228.102 1166.73 229.121 1166.56 Q230.139 1166.38 231.158 1166.38 Q236.945 1166.38 240.324 1169.55 Q243.704 1172.72 243.704 1178.14 Q243.704 1183.72 240.232 1186.82 Q236.76 1189.9 230.44 1189.9 Q228.264 1189.9 225.996 1189.53 Q223.75 1189.16 221.343 1188.42 L221.343 1183.72 Q223.426 1184.85 225.648 1185.41 Q227.871 1185.96 230.347 1185.96 Q234.352 1185.96 236.69 1183.86 Q239.028 1181.75 239.028 1178.14 Q239.028 1174.53 236.69 1172.42 Q234.352 1170.31 230.347 1170.31 Q228.473 1170.31 226.598 1170.73 Q224.746 1171.15 222.801 1172.03 L222.801 1154.67 Z" fill="#000000" fill-rule="nonzero" fill-opacity="1"></path><path clip-path="url(#clip710)" d="M126.205 879.152 Q122.593 879.152 120.765 882.717 Q118.959 886.258 118.959 893.388 Q118.959 900.494 120.765 904.059 Q122.593 907.601 126.205 907.601 Q129.839 907.601 131.644 904.059 Q133.473 900.494 133.473 893.388 Q133.473 886.258 131.644 882.717 Q129.839 879.152 126.205 879.152 M126.205 875.448 Q132.015 875.448 135.07 880.055 Q138.149 884.638 138.149 893.388 Q138.149 902.115 135.07 906.721 Q132.015 911.304 126.205 911.304 Q120.394 911.304 117.316 906.721 Q114.26 902.115 114.26 893.388 Q114.26 884.638 117.316 880.055 Q120.394 875.448 126.205 875.448 Z" fill="#000000" fill-rule="nonzero" fill-opacity="1"></path><path clip-path="url(#clip710)" d="M146.366 904.754 L151.251 904.754 L151.251 910.633 L146.366 910.633 L146.366 904.754 Z" fill="#000000" fill-rule="nonzero" fill-opacity="1"></path><path clip-path="url(#clip710)" d="M171.436 879.152 Q167.825 879.152 165.996 882.717 Q164.19 886.258 164.19 893.388 Q164.19 900.494 165.996 904.059 Q167.825 907.601 171.436 907.601 Q175.07 907.601 176.876 904.059 Q178.704 900.494 178.704 893.388 Q178.704 886.258 176.876 882.717 Q175.07 879.152 171.436 879.152 M171.436 875.448 Q177.246 875.448 180.301 880.055 Q183.38 884.638 183.38 893.388 Q183.38 902.115 180.301 906.721 Q177.246 911.304 171.436 911.304 Q165.626 911.304 162.547 906.721 Q159.491 902.115 159.491 893.388 Q159.491 884.638 162.547 880.055 Q165.626 875.448 171.436 875.448 Z" fill="#000000" fill-rule="nonzero" fill-opacity="1"></path><path clip-path="url(#clip710)" d="M192.408 906.698 L200.047 906.698 L200.047 880.332 L191.737 881.999 L191.737 877.74 L200 876.073 L204.676 876.073 L204.676 906.698 L212.315 906.698 L212.315 910.633 L192.408 910.633 L192.408 906.698 Z" fill="#000000" fill-rule="nonzero" fill-opacity="1"></path><path clip-path="url(#clip710)" d="M231.76 879.152 Q228.148 879.152 226.32 882.717 Q224.514 886.258 224.514 893.388 Q224.514 900.494 226.32 904.059 Q228.148 907.601 231.76 907.601 Q235.394 907.601 237.199 904.059 Q239.028 900.494 239.028 893.388 Q239.028 886.258 237.199 882.717 Q235.394 879.152 231.76 879.152 M231.76 875.448 Q237.57 875.448 240.625 880.055 Q243.704 884.638 243.704 893.388 Q243.704 902.115 240.625 906.721 Q237.57 911.304 231.76 911.304 Q225.949 911.304 222.871 906.721 Q219.815 902.115 219.815 893.388 Q219.815 884.638 222.871 880.055 Q225.949 875.448 231.76 875.448 Z" fill="#000000" fill-rule="nonzero" fill-opacity="1"></path><path clip-path="url(#clip710)" d="M127.2 600.559 Q123.589 600.559 121.76 604.124 Q119.955 607.666 119.955 614.795 Q119.955 621.902 121.76 625.467 Q123.589 629.008 127.2 629.008 Q130.834 629.008 132.64 625.467 Q134.468 621.902 134.468 614.795 Q134.468 607.666 132.64 604.124 Q130.834 600.559 127.2 600.559 M127.2 596.856 Q133.01 596.856 136.066 601.462 Q139.144 606.045 139.144 614.795 Q139.144 623.522 136.066 628.129 Q133.01 632.712 127.2 632.712 Q121.39 632.712 118.311 628.129 Q115.256 623.522 115.256 614.795 Q115.256 606.045 118.311 601.462 Q121.39 596.856 127.2 596.856 Z" fill="#000000" fill-rule="nonzero" fill-opacity="1"></path><path clip-path="url(#clip710)" d="M147.362 626.161 L152.246 626.161 L152.246 632.041 L147.362 632.041 L147.362 626.161 Z" fill="#000000" fill-rule="nonzero" fill-opacity="1"></path><path clip-path="url(#clip710)" d="M172.431 600.559 Q168.82 600.559 166.991 604.124 Q165.186 607.666 165.186 614.795 Q165.186 621.902 166.991 625.467 Q168.82 629.008 172.431 629.008 Q176.065 629.008 177.871 625.467 Q179.7 621.902 179.7 614.795 Q179.7 607.666 177.871 604.124 Q176.065 600.559 172.431 600.559 M172.431 596.856 Q178.241 596.856 181.297 601.462 Q184.376 606.045 184.376 614.795 Q184.376 623.522 181.297 628.129 Q178.241 632.712 172.431 632.712 Q166.621 632.712 163.542 628.129 Q160.487 623.522 160.487 614.795 Q160.487 606.045 163.542 601.462 Q166.621 596.856 172.431 596.856 Z" fill="#000000" fill-rule="nonzero" fill-opacity="1"></path><path clip-path="url(#clip710)" d="M193.403 628.105 L201.042 628.105 L201.042 601.74 L192.732 603.406 L192.732 599.147 L200.996 597.481 L205.672 597.481 L205.672 628.105 L213.311 628.105 L213.311 632.041 L193.403 632.041 L193.403 628.105 Z" fill="#000000" fill-rule="nonzero" fill-opacity="1"></path><path clip-path="url(#clip710)" d="M222.801 597.481 L241.158 597.481 L241.158 601.416 L227.084 601.416 L227.084 609.888 Q228.102 609.541 229.121 609.379 Q230.139 609.193 231.158 609.193 Q236.945 609.193 240.324 612.365 Q243.704 615.536 243.704 620.953 Q243.704 626.531 240.232 629.633 Q236.76 632.712 230.44 632.712 Q228.264 632.712 225.996 632.341 Q223.75 631.971 221.343 631.23 L221.343 626.531 Q223.426 627.666 225.648 628.221 Q227.871 628.777 230.347 628.777 Q234.352 628.777 236.69 626.67 Q239.028 624.564 239.028 620.953 Q239.028 617.342 236.69 615.235 Q234.352 613.129 230.347 613.129 Q228.473 613.129 226.598 613.545 Q224.746 613.962 222.801 614.842 L222.801 597.481 Z" fill="#000000" fill-rule="nonzero" fill-opacity="1"></path><path clip-path="url(#clip710)" d="M126.205 321.967 Q122.593 321.967 120.765 325.531 Q118.959 329.073 118.959 336.203 Q118.959 343.309 120.765 346.874 Q122.593 350.416 126.205 350.416 Q129.839 350.416 131.644 346.874 Q133.473 343.309 133.473 336.203 Q133.473 329.073 131.644 325.531 Q129.839 321.967 126.205 321.967 M126.205 318.263 Q132.015 318.263 135.07 322.869 Q138.149 327.453 138.149 336.203 Q138.149 344.929 135.07 349.536 Q132.015 354.119 126.205 354.119 Q120.394 354.119 117.316 349.536 Q114.26 344.929 114.26 336.203 Q114.26 327.453 117.316 322.869 Q120.394 318.263 126.205 318.263 Z" fill="#000000" fill-rule="nonzero" fill-opacity="1"></path><path clip-path="url(#clip710)" d="M146.366 347.568 L151.251 347.568 L151.251 353.448 L146.366 353.448 L146.366 347.568 Z" fill="#000000" fill-rule="nonzero" fill-opacity="1"></path><path clip-path="url(#clip710)" d="M171.436 321.967 Q167.825 321.967 165.996 325.531 Q164.19 329.073 164.19 336.203 Q164.19 343.309 165.996 346.874 Q167.825 350.416 171.436 350.416 Q175.07 350.416 176.876 346.874 Q178.704 343.309 178.704 336.203 Q178.704 329.073 176.876 325.531 Q175.07 321.967 171.436 321.967 M171.436 318.263 Q177.246 318.263 180.301 322.869 Q183.38 327.453 183.38 336.203 Q183.38 344.929 180.301 349.536 Q177.246 354.119 171.436 354.119 Q165.626 354.119 162.547 349.536 Q159.491 344.929 159.491 336.203 Q159.491 327.453 162.547 322.869 Q165.626 318.263 171.436 318.263 Z" fill="#000000" fill-rule="nonzero" fill-opacity="1"></path><path clip-path="url(#clip710)" d="M195.625 349.513 L211.945 349.513 L211.945 353.448 L190 353.448 L190 349.513 Q192.663 346.758 197.246 342.129 Q201.852 337.476 203.033 336.133 Q205.278 333.61 206.158 331.874 Q207.061 330.115 207.061 328.425 Q207.061 325.67 205.116 323.934 Q203.195 322.198 200.093 322.198 Q197.894 322.198 195.44 322.962 Q193.01 323.726 190.232 325.277 L190.232 320.555 Q193.056 319.42 195.51 318.842 Q197.963 318.263 200 318.263 Q205.371 318.263 208.565 320.948 Q211.76 323.633 211.76 328.124 Q211.76 330.254 210.949 332.175 Q210.162 334.073 208.056 336.666 Q207.477 337.337 204.375 340.555 Q201.274 343.749 195.625 349.513 Z" fill="#000000" fill-rule="nonzero" fill-opacity="1"></path><path clip-path="url(#clip710)" d="M231.76 321.967 Q228.148 321.967 226.32 325.531 Q224.514 329.073 224.514 336.203 Q224.514 343.309 226.32 346.874 Q228.148 350.416 231.76 350.416 Q235.394 350.416 237.199 346.874 Q239.028 343.309 239.028 336.203 Q239.028 329.073 237.199 325.531 Q235.394 321.967 231.76 321.967 M231.76 318.263 Q237.57 318.263 240.625 322.869 Q243.704 327.453 243.704 336.203 Q243.704 344.929 240.625 349.536 Q237.57 354.119 231.76 354.119 Q225.949 354.119 222.871 349.536 Q219.815 344.929 219.815 336.203 Q219.815 327.453 222.871 322.869 Q225.949 318.263 231.76 318.263 Z" fill="#000000" fill-rule="nonzero" fill-opacity="1"></path><path clip-path="url(#clip710)" d="M46.0847 1080.41 Q46.0847 1087.51 47.7079 1090.25 Q49.3312 1092.98 53.2461 1092.98 Q56.3653 1092.98 58.2114 1090.95 Q60.0256 1088.88 60.0256 1085.34 Q60.0256 1080.47 56.5881 1077.55 Q53.1188 1074.59 47.3897 1074.59 L46.0847 1074.59 L46.0847 1080.41 M43.6657 1068.73 L64.0042 1068.73 L64.0042 1074.59 L58.5933 1074.59 Q61.8398 1076.59 63.3994 1079.58 Q64.9272 1082.58 64.9272 1086.9 Q64.9272 1092.38 61.8716 1095.62 Q58.7843 1098.84 53.6281 1098.84 Q47.6125 1098.84 44.5569 1094.83 Q41.5014 1090.79 41.5014 1082.8 L41.5014 1074.59 L40.9285 1074.59 Q36.8862 1074.59 34.6901 1077.26 Q32.4621 1079.9 32.4621 1084.71 Q32.4621 1087.76 33.1941 1090.66 Q33.9262 1093.56 35.3903 1096.23 L29.9795 1096.23 Q28.7381 1093.01 28.1334 1089.99 Q27.4968 1086.97 27.4968 1084.1 Q27.4968 1076.37 31.5072 1072.55 Q35.5176 1068.73 43.6657 1068.73 Z" fill="#000000" fill-rule="nonzero" fill-opacity="1"></path><path clip-path="url(#clip710)" d="M28.3562 1060.87 L28.3562 1054.66 L58.275 1043.52 L28.3562 1032.38 L28.3562 1026.17 L64.0042 1039.54 L64.0042 1047.5 L28.3562 1060.87 Z" fill="#000000" fill-rule="nonzero" fill-opacity="1"></path><path clip-path="url(#clip710)" d="M44.7161 987.599 L47.5806 987.599 L47.5806 1014.53 Q53.6281 1014.14 56.8109 1010.9 Q59.9619 1007.62 59.9619 1001.79 Q59.9619 998.42 59.1344 995.269 Q58.3069 992.087 56.6518 988.967 L62.1899 988.967 Q63.5267 992.118 64.227 995.429 Q64.9272 998.739 64.9272 1002.14 Q64.9272 1010.67 59.9619 1015.67 Q54.9967 1020.64 46.5303 1020.64 Q37.7774 1020.64 32.6531 1015.93 Q27.4968 1011.18 27.4968 1003.16 Q27.4968 995.97 32.1438 991.8 Q36.7589 987.599 44.7161 987.599 M42.9973 993.455 Q38.1912 993.519 35.3266 996.161 Q32.4621 998.771 32.4621 1003.1 Q32.4621 1008 35.2312 1010.96 Q38.0002 1013.89 43.0292 1014.33 L42.9973 993.455 Z" fill="#000000" fill-rule="nonzero" fill-opacity="1"></path><path clip-path="url(#clip710)" d="M33.8307 957.33 Q33.2578 958.316 33.0032 959.494 Q32.7167 960.64 32.7167 962.04 Q32.7167 967.006 35.9632 969.679 Q39.1779 972.321 45.2253 972.321 L64.0042 972.321 L64.0042 978.209 L28.3562 978.209 L28.3562 972.321 L33.8944 972.321 Q30.6479 970.475 29.0883 967.515 Q27.4968 964.555 27.4968 960.322 Q27.4968 959.717 27.5923 958.985 Q27.656 958.253 27.8151 957.362 L33.8307 957.33 Z" fill="#000000" fill-rule="nonzero" fill-opacity="1"></path><path clip-path="url(#clip710)" d="M46.0847 934.986 Q46.0847 942.084 47.7079 944.821 Q49.3312 947.558 53.2461 947.558 Q56.3653 947.558 58.2114 945.521 Q60.0256 943.453 60.0256 939.92 Q60.0256 935.05 56.5881 932.122 Q53.1188 929.162 47.3897 929.162 L46.0847 929.162 L46.0847 934.986 M43.6657 923.305 L64.0042 923.305 L64.0042 929.162 L58.5933 929.162 Q61.8398 931.167 63.3994 934.159 Q64.9272 937.151 64.9272 941.479 Q64.9272 946.954 61.8716 950.2 Q58.7843 953.415 53.6281 953.415 Q47.6125 953.415 44.5569 949.405 Q41.5014 945.362 41.5014 937.373 L41.5014 929.162 L40.9285 929.162 Q36.8862 929.162 34.6901 931.835 Q32.4621 934.477 32.4621 939.283 Q32.4621 942.339 33.1941 945.235 Q33.9262 948.131 35.3903 950.805 L29.9795 950.805 Q28.7381 947.59 28.1334 944.567 Q27.4968 941.543 27.4968 938.678 Q27.4968 930.944 31.5072 927.125 Q35.5176 923.305 43.6657 923.305 Z" fill="#000000" fill-rule="nonzero" fill-opacity="1"></path><path clip-path="url(#clip710)" d="M45.7664 887.784 Q39.4007 887.784 35.8996 890.426 Q32.3984 893.036 32.3984 897.779 Q32.3984 902.489 35.8996 905.131 Q39.4007 907.741 45.7664 907.741 Q52.1003 907.741 55.6014 905.131 Q59.1026 902.489 59.1026 897.779 Q59.1026 893.036 55.6014 890.426 Q52.1003 887.784 45.7664 887.784 M59.58 881.928 Q68.683 881.928 73.1071 885.97 Q77.5631 890.012 77.5631 898.352 Q77.5631 901.439 77.0857 904.176 Q76.6401 906.913 75.6852 909.492 L69.9879 909.492 Q71.3884 906.913 72.0568 904.399 Q72.7252 901.885 72.7252 899.275 Q72.7252 893.514 69.7015 890.649 Q66.7096 887.784 60.6303 887.784 L57.7339 887.784 Q60.885 889.599 62.4446 892.431 Q64.0042 895.264 64.0042 899.211 Q64.0042 905.768 59.0071 909.778 Q54.01 913.788 45.7664 913.788 Q37.491 913.788 32.4939 909.778 Q27.4968 905.768 27.4968 899.211 Q27.4968 895.264 29.0564 892.431 Q30.616 889.599 33.7671 887.784 L28.3562 887.784 L28.3562 881.928 L59.58 881.928 Z" fill="#000000" fill-rule="nonzero" fill-opacity="1"></path><path clip-path="url(#clip710)" d="M44.7161 839.373 L47.5806 839.373 L47.5806 866.3 Q53.6281 865.918 56.8109 862.672 Q59.9619 859.393 59.9619 853.569 Q59.9619 850.195 59.1344 847.044 Q58.3069 843.861 56.6518 840.742 L62.1899 840.742 Q63.5267 843.893 64.227 847.203 Q64.9272 850.513 64.9272 853.919 Q64.9272 862.449 59.9619 867.446 Q54.9967 872.411 46.5303 872.411 Q37.7774 872.411 32.6531 867.701 Q27.4968 862.958 27.4968 854.937 Q27.4968 847.744 32.1438 843.575 Q36.7589 839.373 44.7161 839.373 M42.9973 845.23 Q38.1912 845.293 35.3266 847.935 Q32.4621 850.545 32.4621 854.874 Q32.4621 859.775 35.2312 862.735 Q38.0002 865.664 43.0292 866.109 L42.9973 845.23 Z" fill="#000000" fill-rule="nonzero" fill-opacity="1"></path><path clip-path="url(#clip710)" d="M33.8307 788.384 Q33.2578 789.371 33.0032 790.548 Q32.7167 791.694 32.7167 793.095 Q32.7167 798.06 35.9632 800.733 Q39.1779 803.375 45.2253 803.375 L64.0042 803.375 L64.0042 809.263 L28.3562 809.263 L28.3562 803.375 L33.8944 803.375 Q30.6479 801.529 29.0883 798.569 Q27.4968 795.609 27.4968 791.376 Q27.4968 790.771 27.5923 790.039 Q27.656 789.307 27.8151 788.416 L33.8307 788.384 Z" fill="#000000" fill-rule="nonzero" fill-opacity="1"></path><path clip-path="url(#clip710)" d="M44.7161 753.182 L47.5806 753.182 L47.5806 780.109 Q53.6281 779.727 56.8109 776.48 Q59.9619 773.202 59.9619 767.377 Q59.9619 764.003 59.1344 760.852 Q58.3069 757.669 56.6518 754.55 L62.1899 754.55 Q63.5267 757.701 64.227 761.011 Q64.9272 764.322 64.9272 767.727 Q64.9272 776.257 59.9619 781.254 Q54.9967 786.22 46.5303 786.22 Q37.7774 786.22 32.6531 781.509 Q27.4968 776.767 27.4968 768.746 Q27.4968 761.553 32.1438 757.383 Q36.7589 753.182 44.7161 753.182 M42.9973 759.038 Q38.1912 759.102 35.3266 761.743 Q32.4621 764.353 32.4621 768.682 Q32.4621 773.584 35.2312 776.544 Q38.0002 779.472 43.0292 779.918 L42.9973 759.038 Z" fill="#000000" fill-rule="nonzero" fill-opacity="1"></path><path clip-path="url(#clip710)" d="M14.479 743.569 L14.479 737.713 L64.0042 737.713 L64.0042 743.569 L14.479 743.569 Z" fill="#000000" fill-rule="nonzero" fill-opacity="1"></path><path clip-path="url(#clip710)" d="M46.0847 709.258 Q46.0847 716.356 47.7079 719.093 Q49.3312 721.83 53.2461 721.83 Q56.3653 721.83 58.2114 719.793 Q60.0256 717.725 60.0256 714.192 Q60.0256 709.322 56.5881 706.394 Q53.1188 703.434 47.3897 703.434 L46.0847 703.434 L46.0847 709.258 M43.6657 697.577 L64.0042 697.577 L64.0042 703.434 L58.5933 703.434 Q61.8398 705.439 63.3994 708.431 Q64.9272 711.423 64.9272 715.751 Q64.9272 721.226 61.8716 724.472 Q58.7843 727.687 53.6281 727.687 Q47.6125 727.687 44.5569 723.677 Q41.5014 719.634 41.5014 711.645 L41.5014 703.434 L40.9285 703.434 Q36.8862 703.434 34.6901 706.107 Q32.4621 708.749 32.4621 713.555 Q32.4621 716.611 33.1941 719.507 Q33.9262 722.403 35.3903 725.077 L29.9795 725.077 Q28.7381 721.862 28.1334 718.839 Q27.4968 715.815 27.4968 712.95 Q27.4968 705.216 31.5072 701.397 Q35.5176 697.577 43.6657 697.577 Z" fill="#000000" fill-rule="nonzero" fill-opacity="1"></path><path clip-path="url(#clip710)" d="M18.2347 679.721 L28.3562 679.721 L28.3562 667.658 L32.9077 667.658 L32.9077 679.721 L52.2594 679.721 Q56.6199 679.721 57.8613 678.544 Q59.1026 677.334 59.1026 673.674 L59.1026 667.658 L64.0042 667.658 L64.0042 673.674 Q64.0042 680.453 61.4897 683.032 Q58.9434 685.61 52.2594 685.61 L32.9077 685.61 L32.9077 689.906 L28.3562 689.906 L28.3562 685.61 L18.2347 685.61 L18.2347 679.721 Z" fill="#000000" fill-rule="nonzero" fill-opacity="1"></path><path clip-path="url(#clip710)" d="M28.3562 659.956 L28.3562 654.099 L64.0042 654.099 L64.0042 659.956 L28.3562 659.956 M14.479 659.956 L14.479 654.099 L21.895 654.099 L21.895 659.956 L14.479 659.956 Z" fill="#000000" fill-rule="nonzero" fill-opacity="1"></path><path clip-path="url(#clip710)" d="M28.3562 646.047 L28.3562 639.84 L58.275 628.7 L28.3562 617.56 L28.3562 611.354 L64.0042 624.722 L64.0042 632.679 L28.3562 646.047 Z" fill="#000000" fill-rule="nonzero" fill-opacity="1"></path><path clip-path="url(#clip710)" d="M44.7161 572.777 L47.5806 572.777 L47.5806 599.704 Q53.6281 599.322 56.8109 596.076 Q59.9619 592.798 59.9619 586.973 Q59.9619 583.599 59.1344 580.448 Q58.3069 577.265 56.6518 574.146 L62.1899 574.146 Q63.5267 577.297 64.227 580.607 Q64.9272 583.917 64.9272 587.323 Q64.9272 595.853 59.9619 600.85 Q54.9967 605.815 46.5303 605.815 Q37.7774 605.815 32.6531 601.105 Q27.4968 596.362 27.4968 588.342 Q27.4968 581.148 32.1438 576.979 Q36.7589 572.777 44.7161 572.777 M42.9973 578.634 Q38.1912 578.698 35.3266 581.339 Q32.4621 583.949 32.4621 588.278 Q32.4621 593.18 35.2312 596.14 Q38.0002 599.068 43.0292 599.513 L42.9973 578.634 Z" fill="#000000" fill-rule="nonzero" fill-opacity="1"></path><path clip-path="url(#clip710)" d="M44.7161 511.953 L47.5806 511.953 L47.5806 538.88 Q53.6281 538.498 56.8109 535.252 Q59.9619 531.973 59.9619 526.149 Q59.9619 522.775 59.1344 519.624 Q58.3069 516.441 56.6518 513.322 L62.1899 513.322 Q63.5267 516.473 64.227 519.783 Q64.9272 523.093 64.9272 526.499 Q64.9272 535.029 59.9619 540.026 Q54.9967 544.991 46.5303 544.991 Q37.7774 544.991 32.6531 540.281 Q27.4968 535.538 27.4968 527.517 Q27.4968 520.324 32.1438 516.155 Q36.7589 511.953 44.7161 511.953 M42.9973 517.81 Q38.1912 517.873 35.3266 520.515 Q32.4621 523.125 32.4621 527.454 Q32.4621 532.355 35.2312 535.315 Q38.0002 538.244 43.0292 538.689 L42.9973 517.81 Z" fill="#000000" fill-rule="nonzero" fill-opacity="1"></path><path clip-path="url(#clip710)" d="M33.8307 481.684 Q33.2578 482.671 33.0032 483.849 Q32.7167 484.994 32.7167 486.395 Q32.7167 491.36 35.9632 494.034 Q39.1779 496.675 45.2253 496.675 L64.0042 496.675 L64.0042 502.564 L28.3562 502.564 L28.3562 496.675 L33.8944 496.675 Q30.6479 494.829 29.0883 491.869 Q27.4968 488.909 27.4968 484.676 Q27.4968 484.071 27.5923 483.339 Q27.656 482.607 27.8151 481.716 L33.8307 481.684 Z" fill="#000000" fill-rule="nonzero" fill-opacity="1"></path><path clip-path="url(#clip710)" d="M33.8307 456.03 Q33.2578 457.017 33.0032 458.195 Q32.7167 459.341 32.7167 460.741 Q32.7167 465.706 35.9632 468.38 Q39.1779 471.022 45.2253 471.022 L64.0042 471.022 L64.0042 476.91 L28.3562 476.91 L28.3562 471.022 L33.8944 471.022 Q30.6479 469.176 29.0883 466.216 Q27.4968 463.255 27.4968 459.022 Q27.4968 458.418 27.5923 457.686 Q27.656 456.953 27.8151 456.062 L33.8307 456.03 Z" fill="#000000" fill-rule="nonzero" fill-opacity="1"></path><path clip-path="url(#clip710)" d="M32.4621 437.506 Q32.4621 442.217 36.1542 444.954 Q39.8145 447.691 46.212 447.691 Q52.6095 447.691 56.3017 444.986 Q59.9619 442.249 59.9619 437.506 Q59.9619 432.827 56.2698 430.09 Q52.5777 427.353 46.212 427.353 Q39.8781 427.353 36.186 430.09 Q32.4621 432.827 32.4621 437.506 M27.4968 437.506 Q27.4968 429.867 32.4621 425.507 Q37.4273 421.146 46.212 421.146 Q54.9649 421.146 59.9619 425.507 Q64.9272 429.867 64.9272 437.506 Q64.9272 445.177 59.9619 449.537 Q54.9649 453.866 46.212 453.866 Q37.4273 453.866 32.4621 449.537 Q27.4968 445.177 27.4968 437.506 Z" fill="#000000" fill-rule="nonzero" fill-opacity="1"></path><path clip-path="url(#clip710)" d="M33.8307 390.782 Q33.2578 391.769 33.0032 392.946 Q32.7167 394.092 32.7167 395.493 Q32.7167 400.458 35.9632 403.131 Q39.1779 405.773 45.2253 405.773 L64.0042 405.773 L64.0042 411.661 L28.3562 411.661 L28.3562 405.773 L33.8944 405.773 Q30.6479 403.927 29.0883 400.967 Q27.4968 398.007 27.4968 393.774 Q27.4968 393.169 27.5923 392.437 Q27.656 391.705 27.8151 390.814 L33.8307 390.782 Z" fill="#000000" fill-rule="nonzero" fill-opacity="1"></path><path clip-path="url(#clip710)" d="M586.216 43.8551 Q580.383 43.8551 577.021 46.9743 Q573.699 50.0935 573.699 55.5622 Q573.699 61.0309 577.021 64.1501 Q580.383 67.2693 586.216 67.2693 Q592.05 67.2693 595.412 64.1501 Q598.774 60.9904 598.774 55.5622 Q598.774 50.0935 595.412 46.9743 Q592.09 43.8551 586.216 43.8551 M578.034 40.3713 Q572.767 39.075 569.81 35.4697 Q566.894 31.8644 566.894 26.6793 Q566.894 19.4281 572.038 15.2152 Q577.223 11.0023 586.216 11.0023 Q595.25 11.0023 600.395 15.2152 Q605.539 19.4281 605.539 26.6793 Q605.539 31.8644 602.582 35.4697 Q599.665 39.075 594.44 40.3713 Q600.354 41.7486 603.635 45.759 Q606.957 49.7694 606.957 55.5622 Q606.957 64.3527 601.569 69.0517 Q596.222 73.7508 586.216 73.7508 Q576.211 73.7508 570.823 69.0517 Q565.476 64.3527 565.476 55.5622 Q565.476 49.7694 568.798 45.759 Q572.119 41.7486 578.034 40.3713 M575.036 27.4489 Q575.036 32.148 577.953 34.7811 Q580.91 37.4142 586.216 37.4142 Q591.483 37.4142 594.44 34.7811 Q597.437 32.148 597.437 27.4489 Q597.437 22.7499 594.44 20.1168 Q591.483 17.4837 586.216 17.4837 Q580.91 17.4837 577.953 20.1168 Q575.036 22.7499 575.036 27.4489 Z" fill="#000000" fill-rule="nonzero" fill-opacity="1"></path><path clip-path="url(#clip710)" d="M621.581 12.096 L653.705 12.096 L653.705 18.9825 L629.075 18.9825 L629.075 33.8088 Q630.857 33.2012 632.64 32.9176 Q634.422 32.5936 636.205 32.5936 Q646.332 32.5936 652.246 38.1433 Q658.161 43.6931 658.161 53.1722 Q658.161 62.9348 652.084 68.3631 Q646.008 73.7508 634.949 73.7508 Q631.141 73.7508 627.171 73.1026 Q623.242 72.4545 619.029 71.1582 L619.029 62.9348 Q622.675 64.9198 626.563 65.892 Q630.452 66.8642 634.787 66.8642 Q641.795 66.8642 645.886 63.1779 Q649.978 59.4916 649.978 53.1722 Q649.978 46.8528 645.886 43.1664 Q641.795 39.4801 634.787 39.4801 Q631.506 39.4801 628.224 40.2093 Q624.984 40.9384 621.581 42.4778 L621.581 12.096 Z" fill="#000000" fill-rule="nonzero" fill-opacity="1"></path><path clip-path="url(#clip710)" d="M694.254 27.2059 L702.153 27.2059 L716.332 65.2844 L730.51 27.2059 L738.409 27.2059 L721.395 72.576 L711.268 72.576 L694.254 27.2059 Z" fill="#000000" fill-rule="nonzero" fill-opacity="1"></path><path clip-path="url(#clip710)" d="M769.317 49.7694 Q760.284 49.7694 756.8 51.8354 Q753.316 53.9013 753.316 58.8839 Q753.316 62.8538 755.909 65.2034 Q758.542 67.5124 763.038 67.5124 Q769.236 67.5124 772.963 63.1374 Q776.73 58.7219 776.73 51.4303 L776.73 49.7694 L769.317 49.7694 M784.184 46.6907 L784.184 72.576 L776.73 72.576 L776.73 65.6895 Q774.178 69.8214 770.371 71.8063 Q766.563 73.7508 761.053 73.7508 Q754.086 73.7508 749.954 69.8619 Q745.863 65.9325 745.863 59.3701 Q745.863 51.7138 750.967 47.825 Q756.111 43.9361 766.279 43.9361 L776.73 43.9361 L776.73 43.2069 Q776.73 38.0623 773.328 35.2672 Q769.965 32.4315 763.849 32.4315 Q759.96 32.4315 756.273 33.3632 Q752.587 34.295 749.184 36.1584 L749.184 29.2718 Q753.276 27.692 757.124 26.9223 Q760.972 26.1121 764.618 26.1121 Q774.462 26.1121 779.323 31.2163 Q784.184 36.3204 784.184 46.6907 Z" fill="#000000" fill-rule="nonzero" fill-opacity="1"></path><path clip-path="url(#clip710)" d="M825.827 34.1734 Q824.572 33.4443 823.073 33.1202 Q821.615 32.7556 819.832 32.7556 Q813.513 32.7556 810.11 36.8875 Q806.748 40.9789 806.748 48.6757 L806.748 72.576 L799.254 72.576 L799.254 27.2059 L806.748 27.2059 L806.748 34.2544 Q809.097 30.1225 812.865 28.1376 Q816.632 26.1121 822.02 26.1121 Q822.789 26.1121 823.721 26.2337 Q824.653 26.3147 825.787 26.5172 L825.827 34.1734 Z" fill="#000000" fill-rule="nonzero" fill-opacity="1"></path><path clip-path="url(#clip710)" d="M833.646 27.2059 L841.099 27.2059 L841.099 72.576 L833.646 72.576 L833.646 27.2059 M833.646 9.54393 L841.099 9.54393 L841.099 18.9825 L833.646 18.9825 L833.646 9.54393 Z" fill="#000000" fill-rule="nonzero" fill-opacity="1"></path><path clip-path="url(#clip710)" d="M877.314 49.7694 Q868.281 49.7694 864.797 51.8354 Q861.313 53.9013 861.313 58.8839 Q861.313 62.8538 863.906 65.2034 Q866.539 67.5124 871.036 67.5124 Q877.233 67.5124 880.96 63.1374 Q884.728 58.7219 884.728 51.4303 L884.728 49.7694 L877.314 49.7694 M892.181 46.6907 L892.181 72.576 L884.728 72.576 L884.728 65.6895 Q882.176 69.8214 878.368 71.8063 Q874.56 73.7508 869.051 73.7508 Q862.083 73.7508 857.951 69.8619 Q853.86 65.9325 853.86 59.3701 Q853.86 51.7138 858.964 47.825 Q864.108 43.9361 874.276 43.9361 L884.728 43.9361 L884.728 43.2069 Q884.728 38.0623 881.325 35.2672 Q877.963 32.4315 871.846 32.4315 Q867.957 32.4315 864.271 33.3632 Q860.584 34.295 857.181 36.1584 L857.181 29.2718 Q861.273 27.692 865.121 26.9223 Q868.97 26.1121 872.615 26.1121 Q882.459 26.1121 887.32 31.2163 Q892.181 36.3204 892.181 46.6907 Z" fill="#000000" fill-rule="nonzero" fill-opacity="1"></path><path clip-path="url(#clip710)" d="M940.103 49.9314 Q940.103 41.7081 936.701 37.0496 Q933.338 32.3505 927.424 32.3505 Q921.51 32.3505 918.107 37.0496 Q914.745 41.7081 914.745 49.9314 Q914.745 58.1548 918.107 62.8538 Q921.51 67.5124 927.424 67.5124 Q933.338 67.5124 936.701 62.8538 Q940.103 58.1548 940.103 49.9314 M914.745 34.0924 Q917.094 30.0415 920.659 28.0971 Q924.264 26.1121 929.247 26.1121 Q937.511 26.1121 942.656 32.6746 Q947.841 39.2371 947.841 49.9314 Q947.841 60.6258 942.656 67.1883 Q937.511 73.7508 929.247 73.7508 Q924.264 73.7508 920.659 71.8063 Q917.094 69.8214 914.745 65.7705 L914.745 72.576 L907.251 72.576 L907.251 9.54393 L914.745 9.54393 L914.745 34.0924 Z" fill="#000000" fill-rule="nonzero" fill-opacity="1"></path><path clip-path="url(#clip710)" d="M960.196 9.54393 L967.65 9.54393 L967.65 72.576 L960.196 72.576 L960.196 9.54393 Z" fill="#000000" fill-rule="nonzero" fill-opacity="1"></path><path clip-path="url(#clip710)" d="M1022.05 48.0275 L1022.05 51.6733 L987.783 51.6733 Q988.269 59.3701 992.401 63.421 Q996.573 67.4314 1003.99 67.4314 Q1008.28 67.4314 1012.29 66.3781 Q1016.34 65.3249 1020.31 63.2184 L1020.31 70.267 Q1016.3 71.9684 1012.09 72.8596 Q1007.88 73.7508 1003.54 73.7508 Q992.684 73.7508 986.324 67.4314 Q980.005 61.1119 980.005 50.3365 Q980.005 39.1965 986 32.6746 Q992.036 26.1121 1002.24 26.1121 Q1011.4 26.1121 1016.71 32.0264 Q1022.05 37.9003 1022.05 48.0275 M1014.6 45.84 Q1014.52 39.7232 1011.16 36.0774 Q1007.83 32.4315 1002.33 32.4315 Q996.087 32.4315 992.32 35.9558 Q988.593 39.4801 988.026 45.8805 L1014.6 45.84 Z" fill="#000000" fill-rule="nonzero" fill-opacity="1"></path><path clip-path="url(#clip710)" d="M1063.21 28.5427 L1063.21 35.5912 Q1060.05 33.9709 1056.65 33.1607 Q1053.25 32.3505 1049.6 32.3505 Q1044.05 32.3505 1041.25 34.0519 Q1038.5 35.7533 1038.5 39.156 Q1038.5 41.7486 1040.48 43.2475 Q1042.47 44.7058 1048.47 46.0426 L1051.02 46.6097 Q1058.96 48.3111 1062.28 51.4303 Q1065.64 54.509 1065.64 60.0587 Q1065.64 66.3781 1060.62 70.0644 Q1055.64 73.7508 1046.89 73.7508 Q1043.24 73.7508 1039.27 73.0216 Q1035.34 72.3329 1030.97 70.9151 L1030.97 63.2184 Q1035.1 65.3654 1039.11 66.4591 Q1043.12 67.5124 1047.05 67.5124 Q1052.31 67.5124 1055.15 65.73 Q1057.98 63.9071 1057.98 60.6258 Q1057.98 57.5877 1055.92 55.9673 Q1053.89 54.3469 1046.97 52.8481 L1044.37 52.2405 Q1037.45 50.7821 1034.37 47.7845 Q1031.29 44.7463 1031.29 39.4801 Q1031.29 33.0797 1035.83 29.5959 Q1040.36 26.1121 1048.71 26.1121 Q1052.84 26.1121 1056.49 26.7198 Q1060.13 27.3274 1063.21 28.5427 Z" fill="#000000" fill-rule="nonzero" fill-opacity="1"></path><path clip-path="url(#clip710)" d="M1113.48 9.17935 L1113.48 92.1419 L1106.6 92.1419 L1106.6 9.17935 L1113.48 9.17935 Z" fill="#000000" fill-rule="nonzero" fill-opacity="1"></path><path clip-path="url(#clip710)" d="M1184.05 39.9662 Q1189.92 41.222 1193.2 45.1919 Q1196.53 49.1618 1196.53 54.9951 Q1196.53 63.9476 1190.37 68.8492 Q1184.21 73.7508 1172.87 73.7508 Q1169.06 73.7508 1165.01 72.9811 Q1161 72.2519 1156.71 70.7531 L1156.71 62.8538 Q1160.11 64.8388 1164.16 65.8515 Q1168.21 66.8642 1172.63 66.8642 Q1180.32 66.8642 1184.33 63.826 Q1188.38 60.7879 1188.38 54.9951 Q1188.38 49.6479 1184.62 46.6502 Q1180.89 43.612 1174.21 43.612 L1167.16 43.612 L1167.16 36.8875 L1174.53 36.8875 Q1180.57 36.8875 1183.77 34.4975 Q1186.97 32.067 1186.97 27.5299 Q1186.97 22.8714 1183.64 20.4004 Q1180.36 17.8888 1174.21 17.8888 Q1170.84 17.8888 1166.99 18.618 Q1163.15 19.3471 1158.53 20.8865 L1158.53 13.5948 Q1163.19 12.2985 1167.24 11.6504 Q1171.33 11.0023 1174.93 11.0023 Q1184.25 11.0023 1189.68 15.2557 Q1195.11 19.4686 1195.11 26.6793 Q1195.11 31.7024 1192.23 35.1862 Q1189.36 38.6294 1184.05 39.9662 Z" fill="#000000" fill-rule="nonzero" fill-opacity="1"></path><path clip-path="url(#clip710)" d="M1254.94 32.4315 Q1248.94 32.4315 1245.46 37.1306 Q1241.98 41.7891 1241.98 49.9314 Q1241.98 58.0738 1245.42 62.7728 Q1248.9 67.4314 1254.94 67.4314 Q1260.89 67.4314 1264.38 62.7323 Q1267.86 58.0333 1267.86 49.9314 Q1267.86 41.8701 1264.38 37.1711 Q1260.89 32.4315 1254.94 32.4315 M1254.94 26.1121 Q1264.66 26.1121 1270.21 32.4315 Q1275.76 38.7509 1275.76 49.9314 Q1275.76 61.0714 1270.21 67.4314 Q1264.66 73.7508 1254.94 73.7508 Q1245.18 73.7508 1239.63 67.4314 Q1234.12 61.0714 1234.12 49.9314 Q1234.12 38.7509 1239.63 32.4315 Q1245.18 26.1121 1254.94 26.1121 Z" fill="#000000" fill-rule="nonzero" fill-opacity="1"></path><path clip-path="url(#clip710)" d="M1320.69 49.9314 Q1320.69 41.7081 1317.28 37.0496 Q1313.92 32.3505 1308.01 32.3505 Q1302.09 32.3505 1298.69 37.0496 Q1295.33 41.7081 1295.33 49.9314 Q1295.33 58.1548 1298.69 62.8538 Q1302.09 67.5124 1308.01 67.5124 Q1313.92 67.5124 1317.28 62.8538 Q1320.69 58.1548 1320.69 49.9314 M1295.33 34.0924 Q1297.68 30.0415 1301.24 28.0971 Q1304.85 26.1121 1309.83 26.1121 Q1318.09 26.1121 1323.24 32.6746 Q1328.42 39.2371 1328.42 49.9314 Q1328.42 60.6258 1323.24 67.1883 Q1318.09 73.7508 1309.83 73.7508 Q1304.85 73.7508 1301.24 71.8063 Q1297.68 69.8214 1295.33 65.7705 L1295.33 72.576 L1287.83 72.576 L1287.83 9.54393 L1295.33 9.54393 L1295.33 34.0924 Z" fill="#000000" fill-rule="nonzero" fill-opacity="1"></path><path clip-path="url(#clip710)" d="M1340.78 27.2059 L1348.23 27.2059 L1348.23 73.3862 Q1348.23 82.0551 1344.91 85.944 Q1341.63 89.8329 1334.3 89.8329 L1331.46 89.8329 L1331.46 83.5134 L1333.45 83.5134 Q1337.7 83.5134 1339.24 81.5285 Q1340.78 79.5841 1340.78 73.3862 L1340.78 27.2059 M1340.78 9.54393 L1348.23 9.54393 L1348.23 18.9825 L1340.78 18.9825 L1340.78 9.54393 Z" fill="#000000" fill-rule="nonzero" fill-opacity="1"></path><path clip-path="url(#clip710)" d="M1402.64 48.0275 L1402.64 51.6733 L1368.37 51.6733 Q1368.85 59.3701 1372.98 63.421 Q1377.16 67.4314 1384.57 67.4314 Q1388.86 67.4314 1392.87 66.3781 Q1396.92 65.3249 1400.89 63.2184 L1400.89 70.267 Q1396.88 71.9684 1392.67 72.8596 Q1388.46 73.7508 1384.12 73.7508 Q1373.27 73.7508 1366.91 67.4314 Q1360.59 61.1119 1360.59 50.3365 Q1360.59 39.1965 1366.58 32.6746 Q1372.62 26.1121 1382.83 26.1121 Q1391.98 26.1121 1397.29 32.0264 Q1402.64 37.9003 1402.64 48.0275 M1395.18 45.84 Q1395.1 39.7232 1391.74 36.0774 Q1388.42 32.4315 1382.91 32.4315 Q1376.67 32.4315 1372.9 35.9558 Q1369.18 39.4801 1368.61 45.8805 L1395.18 45.84 Z" fill="#000000" fill-rule="nonzero" fill-opacity="1"></path><path clip-path="url(#clip710)" d="M1447.52 28.9478 L1447.52 35.9153 Q1444.36 34.1734 1441.16 33.3227 Q1438 32.4315 1434.76 32.4315 Q1427.51 32.4315 1423.5 37.0496 Q1419.49 41.6271 1419.49 49.9314 Q1419.49 58.2358 1423.5 62.8538 Q1427.51 67.4314 1434.76 67.4314 Q1438 67.4314 1441.16 66.5807 Q1444.36 65.6895 1447.52 63.9476 L1447.52 70.8341 Q1444.4 72.2924 1441.04 73.0216 Q1437.72 73.7508 1433.95 73.7508 Q1423.7 73.7508 1417.66 67.3098 Q1411.63 60.8689 1411.63 49.9314 Q1411.63 38.832 1417.71 32.472 Q1423.82 26.1121 1434.44 26.1121 Q1437.88 26.1121 1441.16 26.8413 Q1444.44 27.5299 1447.52 28.9478 Z" fill="#000000" fill-rule="nonzero" fill-opacity="1"></path><path clip-path="url(#clip710)" d="M1467.86 14.324 L1467.86 27.2059 L1483.21 27.2059 L1483.21 32.9987 L1467.86 32.9987 L1467.86 57.6282 Q1467.86 63.1779 1469.35 64.7578 Q1470.89 66.3376 1475.55 66.3376 L1483.21 66.3376 L1483.21 72.576 L1475.55 72.576 Q1466.92 72.576 1463.64 69.3758 Q1460.36 66.1351 1460.36 57.6282 L1460.36 32.9987 L1454.89 32.9987 L1454.89 27.2059 L1460.36 27.2059 L1460.36 14.324 L1467.86 14.324 Z" fill="#000000" fill-rule="nonzero" fill-opacity="1"></path><path clip-path="url(#clip710)" d="M1493.01 27.2059 L1500.47 27.2059 L1500.47 72.576 L1493.01 72.576 L1493.01 27.2059 M1493.01 9.54393 L1500.47 9.54393 L1500.47 18.9825 L1493.01 18.9825 L1493.01 9.54393 Z" fill="#000000" fill-rule="nonzero" fill-opacity="1"></path><path clip-path="url(#clip710)" d="M1510.71 27.2059 L1518.61 27.2059 L1532.79 65.2844 L1546.97 27.2059 L1554.87 27.2059 L1537.85 72.576 L1527.73 72.576 L1510.71 27.2059 Z" fill="#000000" fill-rule="nonzero" fill-opacity="1"></path><path clip-path="url(#clip710)" d="M1603.97 48.0275 L1603.97 51.6733 L1569.69 51.6733 Q1570.18 59.3701 1574.31 63.421 Q1578.49 67.4314 1585.9 67.4314 Q1590.19 67.4314 1594.2 66.3781 Q1598.25 65.3249 1602.22 63.2184 L1602.22 70.267 Q1598.21 71.9684 1594 72.8596 Q1589.79 73.7508 1585.45 73.7508 Q1574.6 73.7508 1568.24 67.4314 Q1561.92 61.1119 1561.92 50.3365 Q1561.92 39.1965 1567.91 32.6746 Q1573.95 26.1121 1584.16 26.1121 Q1593.31 26.1121 1598.62 32.0264 Q1603.97 37.9003 1603.97 48.0275 M1596.51 45.84 Q1596.43 39.7232 1593.07 36.0774 Q1589.75 32.4315 1584.24 32.4315 Q1578 32.4315 1574.23 35.9558 Q1570.51 39.4801 1569.94 45.8805 L1596.51 45.84 Z" fill="#000000" fill-rule="nonzero" fill-opacity="1"></path><path clip-path="url(#clip710)" d="M1645.12 28.5427 L1645.12 35.5912 Q1641.96 33.9709 1638.56 33.1607 Q1635.16 32.3505 1631.51 32.3505 Q1625.96 32.3505 1623.17 34.0519 Q1620.41 35.7533 1620.41 39.156 Q1620.41 41.7486 1622.4 43.2475 Q1624.38 44.7058 1630.38 46.0426 L1632.93 46.6097 Q1640.87 48.3111 1644.19 51.4303 Q1647.55 54.509 1647.55 60.0587 Q1647.55 66.3781 1642.53 70.0644 Q1637.55 73.7508 1628.8 73.7508 Q1625.15 73.7508 1621.18 73.0216 Q1617.25 72.3329 1612.88 70.9151 L1612.88 63.2184 Q1617.01 65.3654 1621.02 66.4591 Q1625.03 67.5124 1628.96 67.5124 Q1634.23 67.5124 1637.06 65.73 Q1639.9 63.9071 1639.9 60.6258 Q1639.9 57.5877 1637.83 55.9673 Q1635.81 54.3469 1628.88 52.8481 L1626.29 52.2405 Q1619.36 50.7821 1616.28 47.7845 Q1613.2 44.7463 1613.2 39.4801 Q1613.2 33.0797 1617.74 29.5959 Q1622.28 26.1121 1630.62 26.1121 Q1634.75 26.1121 1638.4 26.7198 Q1642.04 27.3274 1645.12 28.5427 Z" fill="#000000" fill-rule="nonzero" fill-opacity="1"></path><path clip-path="url(#clip710)" d="M1695.39 9.17935 L1695.39 92.1419 L1688.51 92.1419 L1688.51 9.17935 L1695.39 9.17935 Z" fill="#000000" fill-rule="nonzero" fill-opacity="1"></path><path clip-path="url(#clip710)" d="M1748.22 65.6895 L1776.78 65.6895 L1776.78 72.576 L1738.37 72.576 L1738.37 65.6895 Q1743.03 60.8689 1751.05 52.7671 Q1759.12 44.6248 1761.18 42.2752 Q1765.11 37.8598 1766.65 34.8216 Q1768.23 31.7429 1768.23 28.7857 Q1768.23 23.9651 1764.83 20.927 Q1761.46 17.8888 1756.04 17.8888 Q1752.19 17.8888 1747.89 19.2256 Q1743.64 20.5624 1738.78 23.2765 L1738.78 15.0127 Q1743.72 13.0277 1748.02 12.015 Q1752.31 11.0023 1755.87 11.0023 Q1765.27 11.0023 1770.86 15.7013 Q1776.45 20.4004 1776.45 28.2591 Q1776.45 31.9859 1775.04 35.3482 Q1773.66 38.6699 1769.97 43.2069 Q1768.96 44.3817 1763.53 50.0125 Q1758.1 55.6027 1748.22 65.6895 Z" fill="#000000" fill-rule="nonzero" fill-opacity="1"></path><path clip-path="url(#clip710)" d="M1811.45 17.4837 Q1805.13 17.4837 1801.93 23.7221 Q1798.77 29.92 1798.77 42.3968 Q1798.77 54.833 1801.93 61.0714 Q1805.13 67.2693 1811.45 67.2693 Q1817.81 67.2693 1820.97 61.0714 Q1824.17 54.833 1824.17 42.3968 Q1824.17 29.92 1820.97 23.7221 Q1817.81 17.4837 1811.45 17.4837 M1811.45 11.0023 Q1821.62 11.0023 1826.97 19.0636 Q1832.36 27.0843 1832.36 42.3968 Q1832.36 57.6687 1826.97 65.73 Q1821.62 73.7508 1811.45 73.7508 Q1801.29 73.7508 1795.9 65.73 Q1790.55 57.6687 1790.55 42.3968 Q1790.55 27.0843 1795.9 19.0636 Q1801.29 11.0023 1811.45 11.0023 Z" fill="#000000" fill-rule="nonzero" fill-opacity="1"></path><path clip-path="url(#clip710)" d="M1879.43 14.324 L1879.43 27.2059 L1894.78 27.2059 L1894.78 32.9987 L1879.43 32.9987 L1879.43 57.6282 Q1879.43 63.1779 1880.93 64.7578 Q1882.47 66.3376 1887.12 66.3376 L1894.78 66.3376 L1894.78 72.576 L1887.12 72.576 Q1878.5 72.576 1875.21 69.3758 Q1871.93 66.1351 1871.93 57.6282 L1871.93 32.9987 L1866.46 32.9987 L1866.46 27.2059 L1871.93 27.2059 L1871.93 14.324 L1879.43 14.324 Z" fill="#000000" fill-rule="nonzero" fill-opacity="1"></path><path clip-path="url(#clip710)" d="M1930.87 34.1734 Q1929.62 33.4443 1928.12 33.1202 Q1926.66 32.7556 1924.88 32.7556 Q1918.56 32.7556 1915.16 36.8875 Q1911.79 40.9789 1911.79 48.6757 L1911.79 72.576 L1904.3 72.576 L1904.3 27.2059 L1911.79 27.2059 L1911.79 34.2544 Q1914.14 30.1225 1917.91 28.1376 Q1921.68 26.1121 1927.07 26.1121 Q1927.84 26.1121 1928.77 26.2337 Q1929.7 26.3147 1930.83 26.5172 L1930.87 34.1734 Z" fill="#000000" fill-rule="nonzero" fill-opacity="1"></path><path clip-path="url(#clip710)" d="M1938.69 27.2059 L1946.15 27.2059 L1946.15 72.576 L1938.69 72.576 L1938.69 27.2059 M1938.69 9.54393 L1946.15 9.54393 L1946.15 18.9825 L1938.69 18.9825 L1938.69 9.54393 Z" fill="#000000" fill-rule="nonzero" fill-opacity="1"></path><path clip-path="url(#clip710)" d="M1982.36 49.7694 Q1973.33 49.7694 1969.84 51.8354 Q1966.36 53.9013 1966.36 58.8839 Q1966.36 62.8538 1968.95 65.2034 Q1971.59 67.5124 1976.08 67.5124 Q1982.28 67.5124 1986.01 63.1374 Q1989.77 58.7219 1989.77 51.4303 L1989.77 49.7694 L1982.36 49.7694 M1997.23 46.6907 L1997.23 72.576 L1989.77 72.576 L1989.77 65.6895 Q1987.22 69.8214 1983.41 71.8063 Q1979.61 73.7508 1974.1 73.7508 Q1967.13 73.7508 1963 69.8619 Q1958.91 65.9325 1958.91 59.3701 Q1958.91 51.7138 1964.01 47.825 Q1969.15 43.9361 1979.32 43.9361 L1989.77 43.9361 L1989.77 43.2069 Q1989.77 38.0623 1986.37 35.2672 Q1983.01 32.4315 1976.89 32.4315 Q1973 32.4315 1969.32 33.3632 Q1965.63 34.295 1962.23 36.1584 L1962.23 29.2718 Q1966.32 27.692 1970.17 26.9223 Q1974.02 26.1121 1977.66 26.1121 Q1987.51 26.1121 1992.37 31.2163 Q1997.23 36.3204 1997.23 46.6907 Z" fill="#000000" fill-rule="nonzero" fill-opacity="1"></path><path clip-path="url(#clip710)" d="M2012.58 9.54393 L2020.03 9.54393 L2020.03 72.576 L2012.58 72.576 L2012.58 9.54393 Z" fill="#000000" fill-rule="nonzero" fill-opacity="1"></path><path clip-path="url(#clip710)" d="M2064.55 28.5427 L2064.55 35.5912 Q2061.39 33.9709 2057.99 33.1607 Q2054.59 32.3505 2050.94 32.3505 Q2045.39 32.3505 2042.6 34.0519 Q2039.84 35.7533 2039.84 39.156 Q2039.84 41.7486 2041.83 43.2475 Q2043.81 44.7058 2049.81 46.0426 L2052.36 46.6097 Q2060.3 48.3111 2063.62 51.4303 Q2066.98 54.509 2066.98 60.0587 Q2066.98 66.3781 2061.96 70.0644 Q2056.98 73.7508 2048.23 73.7508 Q2044.58 73.7508 2040.61 73.0216 Q2036.68 72.3329 2032.31 70.9151 L2032.31 63.2184 Q2036.44 65.3654 2040.45 66.4591 Q2044.46 67.5124 2048.39 67.5124 Q2053.66 67.5124 2056.49 65.73 Q2059.33 63.9071 2059.33 60.6258 Q2059.33 57.5877 2057.26 55.9673 Q2055.24 54.3469 2048.31 52.8481 L2045.72 52.2405 Q2038.79 50.7821 2035.71 47.7845 Q2032.63 44.7463 2032.63 39.4801 Q2032.63 33.0797 2037.17 29.5959 Q2041.71 26.1121 2050.05 26.1121 Q2054.18 26.1121 2057.83 26.7198 Q2061.47 27.3274 2064.55 28.5427 Z" fill="#000000" fill-rule="nonzero" fill-opacity="1"></path><polyline clip-path="url(#clip712)" style="stroke:#009af9; stroke-linecap:round; stroke-linejoin:round; stroke-width:8; stroke-opacity:1; fill:none" points="338.375,158.642 417.394,814.287 516.167,981.438 614.94,1143.72 713.713,995.628 1306.35,1170.74 2294.08,1330.98 "></polyline>
<circle clip-path="url(#clip712)" cx="338.375" cy="158.642" r="14.4" fill="#009af9" fill-rule="evenodd" fill-opacity="1" stroke="#000000" stroke-opacity="1" stroke-width="3.2"></circle>
<circle clip-path="url(#clip712)" cx="417.394" cy="814.287" r="14.4" fill="#009af9" fill-rule="evenodd" fill-opacity="1" stroke="#000000" stroke-opacity="1" stroke-width="3.2"></circle>
<circle clip-path="url(#clip712)" cx="516.167" cy="981.438" r="14.4" fill="#009af9" fill-rule="evenodd" fill-opacity="1" stroke="#000000" stroke-opacity="1" stroke-width="3.2"></circle>
<circle clip-path="url(#clip712)" cx="614.94" cy="1143.72" r="14.4" fill="#009af9" fill-rule="evenodd" fill-opacity="1" stroke="#000000" stroke-opacity="1" stroke-width="3.2"></circle>
<circle clip-path="url(#clip712)" cx="713.713" cy="995.628" r="14.4" fill="#009af9" fill-rule="evenodd" fill-opacity="1" stroke="#000000" stroke-opacity="1" stroke-width="3.2"></circle>
<circle clip-path="url(#clip712)" cx="1306.35" cy="1170.74" r="14.4" fill="#009af9" fill-rule="evenodd" fill-opacity="1" stroke="#000000" stroke-opacity="1" stroke-width="3.2"></circle>
<circle clip-path="url(#clip712)" cx="2294.08" cy="1330.98" r="14.4" fill="#009af9" fill-rule="evenodd" fill-opacity="1" stroke="#000000" stroke-opacity="1" stroke-width="3.2"></circle>
</svg>