<svg xmlns="http://www.w3.org/2000/svg" xmlns:xlink="http://www.w3.org/1999/xlink" width="600" height="400" viewBox="0 0 2400 1600">
<defs>
  <clipPath id="clip830">
    <rect x="0" y="0" width="2400" height="1600"></rect>
  </clipPath>
</defs>
<path clip-path="url(#clip830)" d="M0 1600 L2400 1600 L2400 8.88178e-14 L0 8.88178e-14  Z" fill="#ffffff" fill-rule="evenodd" fill-opacity="1"></path>
<defs>
  <clipPath id="clip831">
    <rect x="480" y="0" width="1681" height="1600"></rect>
  </clipPath>
</defs>
<path clip-path="url(#clip830)" d="M279.704 1366.15 L2352.76 1366.15 L2352.76 123.472 L279.704 123.472  Z" fill="#ffffff" fill-rule="evenodd" fill-opacity="1"></path>
<defs>
  <clipPath id="clip832">
    <rect x="279" y="123" width="2074" height="1244"></rect>
  </clipPath>
</defs>
<polyline clip-path="url(#clip832)" style="stroke:#000000; stroke-linecap:round; stroke-linejoin:round; stroke-width:2; stroke-opacity:0.1; fill:none" points="338.375,1366.15 338.375,123.472 "></polyline>
<polyline clip-path="url(#clip832)" style="stroke:#000000; stroke-linecap:round; stroke-linejoin:round; stroke-width:2; stroke-opacity:0.1; fill:none" points="417.394,1366.15 417.394,123.472 "></polyline>
<polyline clip-path="url(#clip832)" style="stroke:#000000; stroke-linecap:round; stroke-linejoin:round; stroke-width:2; stroke-opacity:0.1; fill:none" points="516.167,1366.15 516.167,123.472 "></polyline>
<polyline clip-path="url(#clip832)" style="stroke:#000000; stroke-linecap:round; stroke-linejoin:round; stroke-width:2; stroke-opacity:0.1; fill:none" points="614.94,1366.15 614.94,123.472 "></polyline>
<polyline clip-path="url(#clip832)" style="stroke:#000000; stroke-linecap:round; stroke-linejoin:round; stroke-width:2; stroke-opacity:0.1; fill:none" points="713.713,1366.15 713.713,123.472 "></polyline>
<polyline clip-path="url(#clip832)" style="stroke:#000000; stroke-linecap:round; stroke-linejoin:round; stroke-width:2; stroke-opacity:0.1; fill:none" points="1306.35,1366.15 1306.35,123.472 "></polyline>
<polyline clip-path="url(#clip832)" style="stroke:#000000; stroke-linecap:round; stroke-linejoin:round; stroke-width:2; stroke-opacity:0.1; fill:none" points="2294.08,1366.15 2294.08,123.472 "></polyline>
<polyline clip-path="url(#clip832)" style="stroke:#000000; stroke-linecap:round; stroke-linejoin:round; stroke-width:2; stroke-opacity:0.1; fill:none" points="279.704,1193.8 2352.76,1193.8 "></polyline>
<polyline clip-path="url(#clip832)" style="stroke:#000000; stroke-linecap:round; stroke-linejoin:round; stroke-width:2; stroke-opacity:0.1; fill:none" points="279.704,890.027 2352.76,890.027 "></polyline>
<polyline clip-path="url(#clip832)" style="stroke:#000000; stroke-linecap:round; stroke-linejoin:round; stroke-width:2; stroke-opacity:0.1; fill:none" points="279.704,586.256 2352.76,586.256 "></polyline>
<polyline clip-path="url(#clip832)" style="stroke:#000000; stroke-linecap:round; stroke-linejoin:round; stroke-width:2; stroke-opacity:0.1; fill:none" points="279.704,282.486 2352.76,282.486 "></polyline>
<polyline clip-path="url(#clip830)" style="stroke:#000000; stroke-linecap:round; stroke-linejoin:round; stroke-width:4; stroke-opacity:1; fill:none" points="279.704,1366.15 2352.76,1366.15 "></polyline>
<polyline clip-path="url(#clip830)" style="stroke:#000000; stroke-linecap:round; stroke-linejoin:round; stroke-width:4; stroke-opacity:1; fill:none" points="338.375,1366.15 338.375,1347.25 "></polyline>
<polyline clip-path="url(#clip830)" style="stroke:#000000; stroke-linecap:round; stroke-linejoin:round; stroke-width:4; stroke-opacity:1; fill:none" points="417.394,1366.15 417.394,1347.25 "></polyline>
<polyline clip-path="url(#clip830)" style="stroke:#000000; stroke-linecap:round; stroke-linejoin:round; stroke-width:4; stroke-opacity:1; fill:none" points="516.167,1366.15 516.167,1347.25 "></polyline>
<polyline clip-path="url(#clip830)" style="stroke:#000000; stroke-linecap:round; stroke-linejoin:round; stroke-width:4; stroke-opacity:1; fill:none" points="614.94,1366.15 614.94,1347.25 "></polyline>
<polyline clip-path="url(#clip830)" style="stroke:#000000; stroke-linecap:round; stroke-linejoin:round; stroke-width:4; stroke-opacity:1; fill:none" points="713.713,1366.15 713.713,1347.25 "></polyline>
<polyline clip-path="url(#clip830)" style="stroke:#000000; stroke-linecap:round; stroke-linejoin:round; stroke-width:4; stroke-opacity:1; fill:none" points="1306.35,1366.15 1306.35,1347.25 "></polyline>
<polyline clip-path="url(#clip830)" style="stroke:#000000; stroke-linecap:round; stroke-linejoin:round; stroke-width:4; stroke-opacity:1; fill:none" points="2294.08,1366.15 2294.08,1347.25 "></polyline>
<path clip-path="url(#clip830)" d="M290.212 1470.71 L295.613 1465.31 L276.97 1446.67 L272.273 1453.72 L269.261 1450.71 L273.926 1443.69 L277.232 1440.38 L298.887 1462.04 L304.289 1456.64 L307.071 1459.42 L292.995 1473.5 L290.212 1470.71 Z" fill="#000000" fill-rule="nonzero" fill-opacity="1"></path><path clip-path="url(#clip830)" d="M298.56 1423.41 Q296.006 1425.96 297.234 1429.78 Q298.462 1433.56 303.503 1438.6 Q308.528 1443.62 312.325 1444.87 Q316.123 1446.08 318.676 1443.53 Q321.246 1440.96 320.018 1437.17 Q318.791 1433.36 313.766 1428.34 Q308.724 1423.29 304.927 1422.08 Q301.13 1420.84 298.56 1423.41 M295.941 1420.79 Q300.049 1416.68 305.467 1417.78 Q310.885 1418.84 317.072 1425.03 Q323.243 1431.2 324.323 1436.63 Q325.403 1442.04 321.295 1446.14 Q317.187 1450.25 311.769 1449.19 Q306.351 1448.09 300.18 1441.92 Q293.993 1435.73 292.913 1430.33 Q291.832 1424.9 295.941 1420.79 Z" fill="#000000" fill-rule="nonzero" fill-opacity="1"></path><path clip-path="url(#clip830)" d="M319.887 1402.08 Q317.334 1404.64 318.562 1408.45 Q319.789 1412.23 324.831 1417.27 Q329.856 1422.3 333.653 1423.54 Q337.45 1424.75 340.004 1422.2 Q342.574 1419.63 341.346 1415.85 Q340.118 1412.03 335.093 1407.01 Q330.052 1401.97 326.255 1400.76 Q322.457 1399.51 319.887 1402.08 M317.268 1399.46 Q321.377 1395.35 326.795 1396.45 Q332.213 1397.51 338.4 1403.7 Q344.571 1409.87 345.651 1415.31 Q346.731 1420.71 342.623 1424.82 Q338.514 1428.93 333.096 1427.86 Q327.679 1426.76 321.508 1420.59 Q315.321 1414.41 314.24 1409.01 Q313.16 1403.57 317.268 1399.46 Z" fill="#000000" fill-rule="nonzero" fill-opacity="1"></path><path clip-path="url(#clip830)" d="M347.035 1449.6 L360.015 1436.62 L362.798 1439.4 L352.846 1449.35 L358.837 1455.34 Q359.311 1454.38 359.917 1453.54 Q360.506 1452.69 361.227 1451.97 Q365.319 1447.88 369.951 1447.73 Q374.583 1447.58 378.413 1451.42 Q382.358 1455.36 382.096 1460.01 Q381.818 1464.64 377.349 1469.11 Q375.811 1470.65 373.945 1471.99 Q372.095 1473.32 369.869 1474.49 L366.546 1471.17 Q368.821 1470.5 370.786 1469.32 Q372.75 1468.14 374.501 1466.39 Q377.333 1463.56 377.496 1460.42 Q377.66 1457.27 375.107 1454.72 Q372.553 1452.17 369.411 1452.33 Q366.268 1452.5 363.436 1455.33 Q362.11 1456.65 361.079 1458.27 Q360.064 1459.88 359.311 1461.87 L347.035 1449.6 Z" fill="#000000" fill-rule="nonzero" fill-opacity="1"></path><path clip-path="url(#clip830)" d="M377.578 1423.41 Q375.025 1425.96 376.252 1429.78 Q377.48 1433.56 382.521 1438.6 Q387.546 1443.62 391.344 1444.87 Q395.141 1446.08 397.695 1443.53 Q400.265 1440.96 399.037 1437.17 Q397.809 1433.36 392.784 1428.34 Q387.743 1423.29 383.945 1422.08 Q380.148 1420.84 377.578 1423.41 M374.959 1420.79 Q379.068 1416.68 384.486 1417.78 Q389.903 1418.84 396.091 1425.03 Q402.261 1431.2 403.342 1436.63 Q404.422 1442.04 400.314 1446.14 Q396.205 1450.25 390.787 1449.19 Q385.37 1448.09 379.199 1441.92 Q373.012 1435.73 371.931 1430.33 Q370.851 1424.9 374.959 1420.79 Z" fill="#000000" fill-rule="nonzero" fill-opacity="1"></path><path clip-path="url(#clip830)" d="M398.906 1402.08 Q396.353 1404.64 397.58 1408.45 Q398.808 1412.23 403.849 1417.27 Q408.874 1422.3 412.672 1423.54 Q416.469 1424.75 419.022 1422.2 Q421.592 1419.63 420.365 1415.85 Q419.137 1412.03 414.112 1407.01 Q409.071 1401.97 405.273 1400.76 Q401.476 1399.51 398.906 1402.08 M396.287 1399.46 Q400.395 1395.35 405.813 1396.45 Q411.231 1397.51 417.418 1403.7 Q423.589 1409.87 424.669 1415.31 Q425.75 1420.71 421.641 1424.82 Q417.533 1428.93 412.115 1427.86 Q406.697 1426.76 400.526 1420.59 Q394.339 1414.41 393.259 1409.01 Q392.179 1403.57 396.287 1399.46 Z" fill="#000000" fill-rule="nonzero" fill-opacity="1"></path><path clip-path="url(#clip830)" d="M446.676 1492.04 L452.078 1486.64 L433.434 1468 L428.737 1475.05 L425.725 1472.04 L430.39 1465.02 L433.696 1461.71 L455.351 1483.37 L460.753 1477.96 L463.535 1480.75 L449.459 1494.82 L446.676 1492.04 Z" fill="#000000" fill-rule="nonzero" fill-opacity="1"></path><path clip-path="url(#clip830)" d="M455.024 1444.74 Q452.47 1447.29 453.698 1451.1 Q454.926 1454.89 459.967 1459.93 Q464.992 1464.95 468.789 1466.2 Q472.587 1467.41 475.14 1464.85 Q477.71 1462.28 476.482 1458.5 Q475.255 1454.69 470.23 1449.66 Q465.188 1444.62 461.391 1443.41 Q457.594 1442.17 455.024 1444.74 M452.405 1442.12 Q456.513 1438.01 461.931 1439.11 Q467.349 1440.17 473.536 1446.36 Q479.707 1452.53 480.787 1457.96 Q481.868 1463.36 477.759 1467.47 Q473.651 1471.58 468.233 1470.52 Q462.815 1469.42 456.644 1463.25 Q450.457 1457.06 449.377 1451.66 Q448.297 1446.23 452.405 1442.12 Z" fill="#000000" fill-rule="nonzero" fill-opacity="1"></path><path clip-path="url(#clip830)" d="M476.351 1423.41 Q473.798 1425.96 475.026 1429.78 Q476.253 1433.56 481.295 1438.6 Q486.32 1443.62 490.117 1444.87 Q493.914 1446.08 496.468 1443.53 Q499.038 1440.96 497.81 1437.17 Q496.582 1433.36 491.557 1428.34 Q486.516 1423.29 482.719 1422.08 Q478.921 1420.84 476.351 1423.41 M473.733 1420.79 Q477.841 1416.68 483.259 1417.78 Q488.677 1418.84 494.864 1425.03 Q501.035 1431.2 502.115 1436.63 Q503.195 1442.04 499.087 1446.14 Q494.978 1450.25 489.561 1449.19 Q484.143 1448.09 477.972 1441.92 Q471.785 1435.73 470.704 1430.33 Q469.624 1424.9 473.733 1420.79 Z" fill="#000000" fill-rule="nonzero" fill-opacity="1"></path><path clip-path="url(#clip830)" d="M497.679 1402.08 Q495.126 1404.64 496.353 1408.45 Q497.581 1412.23 502.622 1417.27 Q507.647 1422.3 511.445 1423.54 Q515.242 1424.75 517.796 1422.2 Q520.365 1419.63 519.138 1415.85 Q517.91 1412.03 512.885 1407.01 Q507.844 1401.97 504.046 1400.76 Q500.249 1399.51 497.679 1402.08 M495.06 1399.46 Q499.169 1395.35 504.587 1396.45 Q510.004 1397.51 516.192 1403.7 Q522.362 1409.87 523.443 1415.31 Q524.523 1420.71 520.414 1424.82 Q516.306 1428.93 510.888 1427.86 Q505.47 1426.76 499.3 1420.59 Q493.112 1414.41 492.032 1409.01 Q490.952 1403.57 495.06 1399.46 Z" fill="#000000" fill-rule="nonzero" fill-opacity="1"></path><path clip-path="url(#clip830)" d="M545.449 1492.04 L550.851 1486.64 L532.207 1468 L527.51 1475.05 L524.498 1472.04 L529.163 1465.02 L532.469 1461.71 L554.124 1483.37 L559.526 1477.96 L562.308 1480.75 L548.232 1494.82 L545.449 1492.04 Z" fill="#000000" fill-rule="nonzero" fill-opacity="1"></path><path clip-path="url(#clip830)" d="M544.582 1449.6 L557.562 1436.62 L560.344 1439.4 L550.392 1449.35 L556.383 1455.34 Q556.858 1454.38 557.463 1453.54 Q558.053 1452.69 558.773 1451.97 Q562.865 1447.88 567.497 1447.73 Q572.129 1447.58 575.959 1451.42 Q579.904 1455.36 579.642 1460.01 Q579.364 1464.64 574.896 1469.11 Q573.357 1470.65 571.491 1471.99 Q569.641 1473.32 567.415 1474.49 L564.093 1471.17 Q566.368 1470.5 568.332 1469.32 Q570.296 1468.14 572.047 1466.39 Q574.879 1463.56 575.043 1460.42 Q575.207 1457.27 572.653 1454.72 Q570.1 1452.17 566.957 1452.33 Q563.814 1452.5 560.983 1455.33 Q559.657 1456.65 558.626 1458.27 Q557.611 1459.88 556.858 1461.87 L544.582 1449.6 Z" fill="#000000" fill-rule="nonzero" fill-opacity="1"></path><path clip-path="url(#clip830)" d="M575.125 1423.41 Q572.571 1425.96 573.799 1429.78 Q575.026 1433.56 580.068 1438.6 Q585.093 1443.62 588.89 1444.87 Q592.688 1446.08 595.241 1443.53 Q597.811 1440.96 596.583 1437.17 Q595.356 1433.36 590.331 1428.34 Q585.289 1423.29 581.492 1422.08 Q577.694 1420.84 575.125 1423.41 M572.506 1420.79 Q576.614 1416.68 582.032 1417.78 Q587.45 1418.84 593.637 1425.03 Q599.808 1431.2 600.888 1436.63 Q601.968 1442.04 597.86 1446.14 Q593.752 1450.25 588.334 1449.19 Q582.916 1448.09 576.745 1441.92 Q570.558 1435.73 569.478 1430.33 Q568.397 1424.9 572.506 1420.79 Z" fill="#000000" fill-rule="nonzero" fill-opacity="1"></path><path clip-path="url(#clip830)" d="M596.452 1402.08 Q593.899 1404.64 595.127 1408.45 Q596.354 1412.23 601.396 1417.27 Q606.421 1422.3 610.218 1423.54 Q614.015 1424.75 616.569 1422.2 Q619.139 1419.63 617.911 1415.85 Q616.683 1412.03 611.658 1407.01 Q606.617 1401.97 602.82 1400.76 Q599.022 1399.51 596.452 1402.08 M593.833 1399.46 Q597.942 1395.35 603.36 1396.45 Q608.778 1397.51 614.965 1403.7 Q621.135 1409.87 622.216 1415.31 Q623.296 1420.71 619.188 1424.82 Q615.079 1428.93 609.661 1427.86 Q604.244 1426.76 598.073 1420.59 Q591.886 1414.41 590.805 1409.01 Q589.725 1403.57 593.833 1399.46 Z" fill="#000000" fill-rule="nonzero" fill-opacity="1"></path><path clip-path="url(#clip830)" d="M646.498 1489.77 L658.037 1478.23 L660.82 1481.01 L645.303 1496.53 L642.52 1493.74 Q642.455 1489.91 642.422 1483.4 Q642.389 1476.85 642.275 1475.07 Q642.078 1471.7 641.473 1469.85 Q640.867 1467.96 639.672 1466.77 Q637.724 1464.82 635.122 1464.97 Q632.536 1465.1 630.342 1467.29 Q628.787 1468.85 627.592 1471.12 Q626.414 1473.38 625.546 1476.44 L622.207 1473.1 Q623.402 1470.3 624.728 1468.16 Q626.054 1466.02 627.494 1464.58 Q631.292 1460.78 635.449 1460.42 Q639.607 1460.06 642.782 1463.23 Q644.288 1464.74 645.074 1466.67 Q645.859 1468.57 646.203 1471.89 Q646.269 1472.78 646.35 1477.24 Q646.416 1481.7 646.498 1489.77 Z" fill="#000000" fill-rule="nonzero" fill-opacity="1"></path><path clip-path="url(#clip830)" d="M652.57 1444.74 Q650.017 1447.29 651.244 1451.1 Q652.472 1454.89 657.513 1459.93 Q662.538 1464.95 666.336 1466.2 Q670.133 1467.41 672.687 1464.85 Q675.256 1462.28 674.029 1458.5 Q672.801 1454.69 667.776 1449.66 Q662.735 1444.62 658.937 1443.41 Q655.14 1442.17 652.57 1444.74 M649.951 1442.12 Q654.06 1438.01 659.478 1439.11 Q664.895 1440.17 671.083 1446.36 Q677.253 1452.53 678.334 1457.96 Q679.414 1463.36 675.306 1467.47 Q671.197 1471.58 665.779 1470.52 Q660.361 1469.42 654.191 1463.25 Q648.004 1457.06 646.923 1451.66 Q645.843 1446.23 649.951 1442.12 Z" fill="#000000" fill-rule="nonzero" fill-opacity="1"></path><path clip-path="url(#clip830)" d="M673.898 1423.41 Q671.344 1425.96 672.572 1429.78 Q673.8 1433.56 678.841 1438.6 Q683.866 1443.62 687.663 1444.87 Q691.461 1446.08 694.014 1443.53 Q696.584 1440.96 695.357 1437.17 Q694.129 1433.36 689.104 1428.34 Q684.063 1423.29 680.265 1422.08 Q676.468 1420.84 673.898 1423.41 M671.279 1420.79 Q675.387 1416.68 680.805 1417.78 Q686.223 1418.84 692.41 1425.03 Q698.581 1431.2 699.661 1436.63 Q700.742 1442.04 696.633 1446.14 Q692.525 1450.25 687.107 1449.19 Q681.689 1448.09 675.518 1441.92 Q669.331 1435.73 668.251 1430.33 Q667.171 1424.9 671.279 1420.79 Z" fill="#000000" fill-rule="nonzero" fill-opacity="1"></path><path clip-path="url(#clip830)" d="M695.226 1402.08 Q692.672 1404.64 693.9 1408.45 Q695.127 1412.23 700.169 1417.27 Q705.194 1422.3 708.991 1423.54 Q712.789 1424.75 715.342 1422.2 Q717.912 1419.63 716.684 1415.85 Q715.457 1412.03 710.432 1407.01 Q705.39 1401.97 701.593 1400.76 Q697.795 1399.51 695.226 1402.08 M692.607 1399.46 Q696.715 1395.35 702.133 1396.45 Q707.551 1397.51 713.738 1403.7 Q719.909 1409.87 720.989 1415.31 Q722.069 1420.71 717.961 1424.82 Q713.852 1428.93 708.435 1427.86 Q703.017 1426.76 696.846 1420.59 Q690.659 1414.41 689.579 1409.01 Q688.498 1403.57 692.607 1399.46 Z" fill="#000000" fill-rule="nonzero" fill-opacity="1"></path><path clip-path="url(#clip830)" d="M1214.67 1470.93 L1227.65 1457.95 L1230.43 1460.73 L1220.48 1470.68 L1226.47 1476.67 Q1226.94 1475.71 1227.55 1474.87 Q1228.14 1474.02 1228.86 1473.3 Q1232.95 1469.21 1237.58 1469.06 Q1242.21 1468.91 1246.04 1472.74 Q1249.99 1476.69 1249.73 1481.34 Q1249.45 1485.97 1244.98 1490.44 Q1243.44 1491.98 1241.58 1493.32 Q1239.73 1494.64 1237.5 1495.82 L1234.18 1492.5 Q1236.45 1491.83 1238.42 1490.65 Q1240.38 1489.47 1242.13 1487.72 Q1244.96 1484.89 1245.13 1481.75 Q1245.29 1478.6 1242.74 1476.05 Q1240.18 1473.5 1237.04 1473.66 Q1233.9 1473.82 1231.07 1476.65 Q1229.74 1477.98 1228.71 1479.6 Q1227.7 1481.21 1226.94 1483.2 L1214.67 1470.93 Z" fill="#000000" fill-rule="nonzero" fill-opacity="1"></path><path clip-path="url(#clip830)" d="M1245.21 1444.74 Q1242.66 1447.29 1243.88 1451.1 Q1245.11 1454.89 1250.15 1459.93 Q1255.18 1464.95 1258.98 1466.2 Q1262.77 1467.41 1265.33 1464.85 Q1267.9 1462.28 1266.67 1458.5 Q1265.44 1454.69 1260.42 1449.66 Q1255.37 1444.62 1251.58 1443.41 Q1247.78 1442.17 1245.21 1444.74 M1242.59 1442.12 Q1246.7 1438.01 1252.12 1439.11 Q1257.53 1440.17 1263.72 1446.36 Q1269.89 1452.53 1270.97 1457.96 Q1272.05 1463.36 1267.94 1467.47 Q1263.84 1471.58 1258.42 1470.52 Q1253 1469.42 1246.83 1463.25 Q1240.64 1457.06 1239.56 1451.66 Q1238.48 1446.23 1242.59 1442.12 Z" fill="#000000" fill-rule="nonzero" fill-opacity="1"></path><path clip-path="url(#clip830)" d="M1266.54 1423.41 Q1263.98 1425.96 1265.21 1429.78 Q1266.44 1433.56 1271.48 1438.6 Q1276.51 1443.62 1280.3 1444.87 Q1284.1 1446.08 1286.65 1443.53 Q1289.22 1440.96 1288 1437.17 Q1286.77 1433.36 1281.74 1428.34 Q1276.7 1423.29 1272.9 1422.08 Q1269.11 1420.84 1266.54 1423.41 M1263.92 1420.79 Q1268.03 1416.68 1273.44 1417.78 Q1278.86 1418.84 1285.05 1425.03 Q1291.22 1431.2 1292.3 1436.63 Q1293.38 1442.04 1289.27 1446.14 Q1285.16 1450.25 1279.75 1449.19 Q1274.33 1448.09 1268.16 1441.92 Q1261.97 1435.73 1260.89 1430.33 Q1259.81 1424.9 1263.92 1420.79 Z" fill="#000000" fill-rule="nonzero" fill-opacity="1"></path><path clip-path="url(#clip830)" d="M1287.86 1402.08 Q1285.31 1404.64 1286.54 1408.45 Q1287.77 1412.23 1292.81 1417.27 Q1297.83 1422.3 1301.63 1423.54 Q1305.43 1424.75 1307.98 1422.2 Q1310.55 1419.63 1309.32 1415.85 Q1308.1 1412.03 1303.07 1407.01 Q1298.03 1401.97 1294.23 1400.76 Q1290.43 1399.51 1287.86 1402.08 M1285.25 1399.46 Q1289.35 1395.35 1294.77 1396.45 Q1300.19 1397.51 1306.38 1403.7 Q1312.55 1409.87 1313.63 1415.31 Q1314.71 1420.71 1310.6 1424.82 Q1306.49 1428.93 1301.07 1427.86 Q1295.66 1426.76 1289.49 1420.59 Q1283.3 1414.41 1282.22 1409.01 Q1281.14 1403.57 1285.25 1399.46 Z" fill="#000000" fill-rule="nonzero" fill-opacity="1"></path><path clip-path="url(#clip830)" d="M2203.27 1513.37 L2208.67 1507.97 L2190.02 1489.32 L2185.33 1496.38 L2182.31 1493.37 L2186.98 1486.34 L2190.29 1483.04 L2211.94 1504.69 L2217.34 1499.29 L2220.13 1502.07 L2206.05 1516.15 L2203.27 1513.37 Z" fill="#000000" fill-rule="nonzero" fill-opacity="1"></path><path clip-path="url(#clip830)" d="M2211.61 1466.06 Q2209.06 1468.62 2210.29 1472.43 Q2211.52 1476.21 2216.56 1481.25 Q2221.58 1486.28 2225.38 1487.52 Q2229.18 1488.73 2231.73 1486.18 Q2234.3 1483.61 2233.07 1479.83 Q2231.84 1476.02 2226.82 1470.99 Q2221.78 1465.95 2217.98 1464.74 Q2214.18 1463.49 2211.61 1466.06 M2208.99 1463.45 Q2213.1 1459.34 2218.52 1460.43 Q2223.94 1461.5 2230.13 1467.69 Q2236.3 1473.86 2237.38 1479.29 Q2238.46 1484.69 2234.35 1488.8 Q2230.24 1492.91 2224.82 1491.84 Q2219.41 1490.75 2213.23 1484.58 Q2207.05 1478.39 2205.97 1472.99 Q2204.89 1467.55 2208.99 1463.45 Z" fill="#000000" fill-rule="nonzero" fill-opacity="1"></path><path clip-path="url(#clip830)" d="M2232.94 1444.74 Q2230.39 1447.29 2231.62 1451.1 Q2232.84 1454.89 2237.88 1459.93 Q2242.91 1464.95 2246.71 1466.2 Q2250.5 1467.41 2253.06 1464.85 Q2255.63 1462.28 2254.4 1458.5 Q2253.17 1454.69 2248.15 1449.66 Q2243.11 1444.62 2239.31 1443.41 Q2235.51 1442.17 2232.94 1444.74 M2230.32 1442.12 Q2234.43 1438.01 2239.85 1439.11 Q2245.27 1440.17 2251.45 1446.36 Q2257.62 1452.53 2258.7 1457.96 Q2259.79 1463.36 2255.68 1467.47 Q2251.57 1471.58 2246.15 1470.52 Q2240.73 1469.42 2234.56 1463.25 Q2228.37 1457.06 2227.29 1451.66 Q2226.21 1446.23 2230.32 1442.12 Z" fill="#000000" fill-rule="nonzero" fill-opacity="1"></path><path clip-path="url(#clip830)" d="M2254.27 1423.41 Q2251.72 1425.96 2252.94 1429.78 Q2254.17 1433.56 2259.21 1438.6 Q2264.24 1443.62 2268.03 1444.87 Q2271.83 1446.08 2274.39 1443.53 Q2276.96 1440.96 2275.73 1437.17 Q2274.5 1433.36 2269.48 1428.34 Q2264.43 1423.29 2260.64 1422.08 Q2256.84 1420.84 2254.27 1423.41 M2251.65 1420.79 Q2255.76 1416.68 2261.18 1417.78 Q2266.59 1418.84 2272.78 1425.03 Q2278.95 1431.2 2280.03 1436.63 Q2281.11 1442.04 2277 1446.14 Q2272.9 1450.25 2267.48 1449.19 Q2262.06 1448.09 2255.89 1441.92 Q2249.7 1435.73 2248.62 1430.33 Q2247.54 1424.9 2251.65 1420.79 Z" fill="#000000" fill-rule="nonzero" fill-opacity="1"></path><path clip-path="url(#clip830)" d="M2275.6 1402.08 Q2273.04 1404.64 2274.27 1408.45 Q2275.5 1412.23 2280.54 1417.27 Q2285.57 1422.3 2289.36 1423.54 Q2293.16 1424.75 2295.71 1422.2 Q2298.28 1419.63 2297.06 1415.85 Q2295.83 1412.03 2290.8 1407.01 Q2285.76 1401.97 2281.96 1400.76 Q2278.17 1399.51 2275.6 1402.08 M2272.98 1399.46 Q2277.09 1395.35 2282.5 1396.45 Q2287.92 1397.51 2294.11 1403.7 Q2300.28 1409.87 2301.36 1415.31 Q2302.44 1420.71 2298.33 1424.82 Q2294.22 1428.93 2288.81 1427.86 Q2283.39 1426.76 2277.22 1420.59 Q2271.03 1414.41 2269.95 1409.01 Q2268.87 1403.57 2272.98 1399.46 Z" fill="#000000" fill-rule="nonzero" fill-opacity="1"></path><path clip-path="url(#clip830)" d="M1011.09 1549.04 L1019.75 1549.04 L1040.82 1588.79 L1040.82 1549.04 L1047.06 1549.04 L1047.06 1596.56 L1038.4 1596.56 L1017.33 1556.81 L1017.33 1596.56 L1011.09 1596.56 L1011.09 1549.04 Z" fill="#000000" fill-rule="nonzero" fill-opacity="1"></path><path clip-path="url(#clip830)" d="M1058.99 1582.49 L1058.99 1560.91 L1064.85 1560.91 L1064.85 1582.27 Q1064.85 1587.33 1066.82 1589.88 Q1068.79 1592.39 1072.74 1592.39 Q1077.48 1592.39 1080.22 1589.37 Q1082.99 1586.34 1082.99 1581.12 L1082.99 1560.91 L1088.85 1560.91 L1088.85 1596.56 L1082.99 1596.56 L1082.99 1591.08 Q1080.86 1594.33 1078.03 1595.92 Q1075.22 1597.48 1071.5 1597.48 Q1065.36 1597.48 1062.17 1593.66 Q1058.99 1589.84 1058.99 1582.49 M1073.73 1560.05 L1073.73 1560.05 Z" fill="#000000" fill-rule="nonzero" fill-opacity="1"></path><path clip-path="url(#clip830)" d="M1128.66 1567.75 Q1130.86 1563.81 1133.92 1561.93 Q1136.97 1560.05 1141.11 1560.05 Q1146.68 1560.05 1149.7 1563.97 Q1152.73 1567.85 1152.73 1575.04 L1152.73 1596.56 L1146.84 1596.56 L1146.84 1575.23 Q1146.84 1570.11 1145.02 1567.63 Q1143.21 1565.14 1139.49 1565.14 Q1134.93 1565.14 1132.29 1568.17 Q1129.65 1571.19 1129.65 1576.41 L1129.65 1596.56 L1123.76 1596.56 L1123.76 1575.23 Q1123.76 1570.08 1121.95 1567.63 Q1120.13 1565.14 1116.35 1565.14 Q1111.86 1565.14 1109.22 1568.2 Q1106.58 1571.22 1106.58 1576.41 L1106.58 1596.56 L1100.69 1596.56 L1100.69 1560.91 L1106.58 1560.91 L1106.58 1566.45 Q1108.58 1563.17 1111.38 1561.61 Q1114.18 1560.05 1118.03 1560.05 Q1121.92 1560.05 1124.62 1562.03 Q1127.36 1564 1128.66 1567.75 Z" fill="#000000" fill-rule="nonzero" fill-opacity="1"></path><path clip-path="url(#clip830)" d="M1190 1578.77 Q1190 1572.31 1187.32 1568.65 Q1184.68 1564.95 1180.04 1564.95 Q1175.39 1564.95 1172.72 1568.65 Q1170.07 1572.31 1170.07 1578.77 Q1170.07 1585.23 1172.72 1588.92 Q1175.39 1592.58 1180.04 1592.58 Q1184.68 1592.58 1187.32 1588.92 Q1190 1585.23 1190 1578.77 M1170.07 1566.32 Q1171.92 1563.14 1174.72 1561.61 Q1177.55 1560.05 1181.47 1560.05 Q1187.96 1560.05 1192 1565.21 Q1196.08 1570.36 1196.08 1578.77 Q1196.08 1587.17 1192 1592.33 Q1187.96 1597.48 1181.47 1597.48 Q1177.55 1597.48 1174.72 1595.95 Q1171.92 1594.39 1170.07 1591.21 L1170.07 1596.56 L1164.19 1596.56 L1164.19 1547.03 L1170.07 1547.03 L1170.07 1566.32 Z" fill="#000000" fill-rule="nonzero" fill-opacity="1"></path><path clip-path="url(#clip830)" d="M1236.28 1577.27 L1236.28 1580.14 L1209.35 1580.14 Q1209.73 1586.18 1212.98 1589.37 Q1216.26 1592.52 1222.08 1592.52 Q1225.45 1592.52 1228.61 1591.69 Q1231.79 1590.86 1234.91 1589.21 L1234.91 1594.74 Q1231.76 1596.08 1228.45 1596.78 Q1225.14 1597.48 1221.73 1597.48 Q1213.2 1597.48 1208.2 1592.52 Q1203.24 1587.55 1203.24 1579.09 Q1203.24 1570.33 1207.95 1565.21 Q1212.69 1560.05 1220.71 1560.05 Q1227.91 1560.05 1232.08 1564.7 Q1236.28 1569.31 1236.28 1577.27 M1230.42 1575.55 Q1230.36 1570.75 1227.71 1567.88 Q1225.1 1565.02 1220.78 1565.02 Q1215.87 1565.02 1212.91 1567.79 Q1209.99 1570.56 1209.54 1575.58 L1230.42 1575.55 Z" fill="#000000" fill-rule="nonzero" fill-opacity="1"></path><path clip-path="url(#clip830)" d="M1266.55 1566.39 Q1265.56 1565.81 1264.38 1565.56 Q1263.24 1565.27 1261.83 1565.27 Q1256.87 1565.27 1254.2 1568.52 Q1251.55 1571.73 1251.55 1577.78 L1251.55 1596.56 L1245.67 1596.56 L1245.67 1560.91 L1251.55 1560.91 L1251.55 1566.45 Q1253.4 1563.2 1256.36 1561.64 Q1259.32 1560.05 1263.55 1560.05 Q1264.16 1560.05 1264.89 1560.15 Q1265.62 1560.21 1266.51 1560.37 L1266.55 1566.39 Z" fill="#000000" fill-rule="nonzero" fill-opacity="1"></path><path clip-path="url(#clip830)" d="M1307.22 1565.02 Q1302.51 1565.02 1299.77 1568.71 Q1297.04 1572.37 1297.04 1578.77 Q1297.04 1585.16 1299.74 1588.86 Q1302.48 1592.52 1307.22 1592.52 Q1311.9 1592.52 1314.64 1588.82 Q1317.38 1585.13 1317.38 1578.77 Q1317.38 1572.43 1314.64 1568.74 Q1311.9 1565.02 1307.22 1565.02 M1307.22 1560.05 Q1314.86 1560.05 1319.22 1565.02 Q1323.58 1569.98 1323.58 1578.77 Q1323.58 1587.52 1319.22 1592.52 Q1314.86 1597.48 1307.22 1597.48 Q1299.55 1597.48 1295.19 1592.52 Q1290.86 1587.52 1290.86 1578.77 Q1290.86 1569.98 1295.19 1565.02 Q1299.55 1560.05 1307.22 1560.05 Z" fill="#000000" fill-rule="nonzero" fill-opacity="1"></path><path clip-path="url(#clip830)" d="M1351.34 1547.03 L1351.34 1551.9 L1345.73 1551.9 Q1342.58 1551.9 1341.34 1553.18 Q1340.13 1554.45 1340.13 1557.76 L1340.13 1560.91 L1349.78 1560.91 L1349.78 1565.46 L1340.13 1565.46 L1340.13 1596.56 L1334.24 1596.56 L1334.24 1565.46 L1328.64 1565.46 L1328.64 1560.91 L1334.24 1560.91 L1334.24 1558.43 Q1334.24 1552.48 1337.01 1549.77 Q1339.78 1547.03 1345.8 1547.03 L1351.34 1547.03 Z" fill="#000000" fill-rule="nonzero" fill-opacity="1"></path><path clip-path="url(#clip830)" d="M1373.55 1560.91 L1379.41 1560.91 L1386.73 1588.73 L1394.02 1560.91 L1400.93 1560.91 L1408.25 1588.73 L1415.53 1560.91 L1421.39 1560.91 L1412.07 1596.56 L1405.16 1596.56 L1397.49 1567.34 L1389.79 1596.56 L1382.88 1596.56 L1373.55 1560.91 Z" fill="#000000" fill-rule="nonzero" fill-opacity="1"></path><path clip-path="url(#clip830)" d="M1460.76 1577.27 L1460.76 1580.14 L1433.84 1580.14 Q1434.22 1586.18 1437.46 1589.37 Q1440.74 1592.52 1446.57 1592.52 Q1449.94 1592.52 1453.09 1591.69 Q1456.28 1590.86 1459.39 1589.21 L1459.39 1594.74 Q1456.24 1596.08 1452.93 1596.78 Q1449.62 1597.48 1446.22 1597.48 Q1437.69 1597.48 1432.69 1592.52 Q1427.73 1587.55 1427.73 1579.09 Q1427.73 1570.33 1432.44 1565.21 Q1437.18 1560.05 1445.2 1560.05 Q1452.39 1560.05 1456.56 1564.7 Q1460.76 1569.31 1460.76 1577.27 M1454.91 1575.55 Q1454.84 1570.75 1452.2 1567.88 Q1449.59 1565.02 1445.26 1565.02 Q1440.36 1565.02 1437.4 1567.79 Q1434.47 1570.56 1434.03 1575.58 L1454.91 1575.55 Z" fill="#000000" fill-rule="nonzero" fill-opacity="1"></path><path clip-path="url(#clip830)" d="M1470.38 1560.91 L1476.23 1560.91 L1476.23 1596.56 L1470.38 1596.56 L1470.38 1560.91 M1470.38 1547.03 L1476.23 1547.03 L1476.23 1554.45 L1470.38 1554.45 L1470.38 1547.03 Z" fill="#000000" fill-rule="nonzero" fill-opacity="1"></path><path clip-path="url(#clip830)" d="M1511.94 1578.32 Q1511.94 1571.96 1509.3 1568.45 Q1506.69 1564.95 1501.95 1564.95 Q1497.24 1564.95 1494.6 1568.45 Q1491.99 1571.96 1491.99 1578.32 Q1491.99 1584.66 1494.6 1588.16 Q1497.24 1591.66 1501.95 1591.66 Q1506.69 1591.66 1509.3 1588.16 Q1511.94 1584.66 1511.94 1578.32 M1517.8 1592.13 Q1517.8 1601.24 1513.76 1605.66 Q1509.72 1610.12 1501.38 1610.12 Q1498.29 1610.12 1495.55 1609.64 Q1492.81 1609.2 1490.24 1608.24 L1490.24 1602.54 Q1492.81 1603.94 1495.33 1604.61 Q1497.84 1605.28 1500.45 1605.28 Q1506.21 1605.28 1509.08 1602.26 Q1511.94 1599.26 1511.94 1593.19 L1511.94 1590.29 Q1510.13 1593.44 1507.3 1595 Q1504.46 1596.56 1500.52 1596.56 Q1493.96 1596.56 1489.95 1591.56 Q1485.94 1586.56 1485.94 1578.32 Q1485.94 1570.05 1489.95 1565.05 Q1493.96 1560.05 1500.52 1560.05 Q1504.46 1560.05 1507.3 1561.61 Q1510.13 1563.17 1511.94 1566.32 L1511.94 1560.91 L1517.8 1560.91 L1517.8 1592.13 Z" fill="#000000" fill-rule="nonzero" fill-opacity="1"></path><path clip-path="url(#clip830)" d="M1559.5 1575.04 L1559.5 1596.56 L1553.64 1596.56 L1553.64 1575.23 Q1553.64 1570.17 1551.67 1567.66 Q1549.69 1565.14 1545.75 1565.14 Q1541 1565.14 1538.27 1568.17 Q1535.53 1571.19 1535.53 1576.41 L1535.53 1596.56 L1529.64 1596.56 L1529.64 1547.03 L1535.53 1547.03 L1535.53 1566.45 Q1537.63 1563.23 1540.46 1561.64 Q1543.33 1560.05 1547.05 1560.05 Q1553.19 1560.05 1556.34 1563.87 Q1559.5 1567.66 1559.5 1575.04 Z" fill="#000000" fill-rule="nonzero" fill-opacity="1"></path><path clip-path="url(#clip830)" d="M1576.97 1550.79 L1576.97 1560.91 L1589.03 1560.91 L1589.03 1565.46 L1576.97 1565.46 L1576.97 1584.81 Q1576.97 1589.17 1578.15 1590.42 Q1579.36 1591.66 1583.02 1591.66 L1589.03 1591.66 L1589.03 1596.56 L1583.02 1596.56 Q1576.24 1596.56 1573.66 1594.04 Q1571.08 1591.5 1571.08 1584.81 L1571.08 1565.46 L1566.78 1565.46 L1566.78 1560.91 L1571.08 1560.91 L1571.08 1550.79 L1576.97 1550.79 Z" fill="#000000" fill-rule="nonzero" fill-opacity="1"></path><path clip-path="url(#clip830)" d="M1619.46 1561.96 L1619.46 1567.5 Q1616.98 1566.23 1614.3 1565.59 Q1611.63 1564.95 1608.77 1564.95 Q1604.41 1564.95 1602.21 1566.29 Q1600.04 1567.63 1600.04 1570.3 Q1600.04 1572.34 1601.6 1573.52 Q1603.16 1574.66 1607.87 1575.71 L1609.88 1576.16 Q1616.12 1577.49 1618.73 1579.94 Q1621.37 1582.36 1621.37 1586.72 Q1621.37 1591.69 1617.42 1594.59 Q1613.51 1597.48 1606.63 1597.48 Q1603.77 1597.48 1600.65 1596.91 Q1597.56 1596.37 1594.12 1595.25 L1594.12 1589.21 Q1597.37 1590.89 1600.52 1591.75 Q1603.67 1592.58 1606.76 1592.58 Q1610.9 1592.58 1613.13 1591.18 Q1615.35 1589.75 1615.35 1587.17 Q1615.35 1584.78 1613.73 1583.51 Q1612.14 1582.24 1606.7 1581.06 L1604.66 1580.58 Q1599.22 1579.44 1596.8 1577.08 Q1594.38 1574.69 1594.38 1570.56 Q1594.38 1565.53 1597.94 1562.79 Q1601.51 1560.05 1608.07 1560.05 Q1611.31 1560.05 1614.18 1560.53 Q1617.04 1561.01 1619.46 1561.96 Z" fill="#000000" fill-rule="nonzero" fill-opacity="1"></path><polyline clip-path="url(#clip830)" style="stroke:#000000; stroke-linecap:round; stroke-linejoin:round; stroke-width:4; stroke-opacity:1; fill:none" points="279.704,1366.15 279.704,123.472 "></polyline>
<polyline clip-path="url(#clip830)" style="stroke:#000000; stroke-linecap:round; stroke-linejoin:round; stroke-width:4; stroke-opacity:1; fill:none" points="279.704,1193.8 298.602,1193.8 "></polyline>
<polyline clip-path="url(#clip830)" style="stroke:#000000; stroke-linecap:round; stroke-linejoin:round; stroke-width:4; stroke-opacity:1; fill:none" points="279.704,890.027 298.602,890.027 "></polyline>
<polyline clip-path="url(#clip830)" style="stroke:#000000; stroke-linecap:round; stroke-linejoin:round; stroke-width:4; stroke-opacity:1; fill:none" points="279.704,586.256 298.602,586.256 "></polyline>
<polyline clip-path="url(#clip830)" style="stroke:#000000; stroke-linecap:round; stroke-linejoin:round; stroke-width:4; stroke-opacity:1; fill:none" points="279.704,282.486 298.602,282.486 "></polyline>
<path clip-path="url(#clip830)" d="M127.2 1179.6 Q123.589 1179.6 121.76 1183.16 Q119.955 1186.7 119.955 1193.83 Q119.955 1200.94 121.76 1204.5 Q123.589 1208.04 127.2 1208.04 Q130.834 1208.04 132.64 1204.5 Q134.468 1200.94 134.468 1193.83 Q134.468 1186.7 132.64 1183.16 Q130.834 1179.6 127.2 1179.6 M127.2 1175.89 Q133.01 1175.89 136.066 1180.5 Q139.144 1185.08 139.144 1193.83 Q139.144 1202.56 136.066 1207.17 Q133.01 1211.75 127.2 1211.75 Q121.39 1211.75 118.311 1207.17 Q115.256 1202.56 115.256 1193.83 Q115.256 1185.08 118.311 1180.5 Q121.39 1175.89 127.2 1175.89 Z" fill="#000000" fill-rule="nonzero" fill-opacity="1"></path><path clip-path="url(#clip830)" d="M147.362 1205.2 L152.246 1205.2 L152.246 1211.08 L147.362 1211.08 L147.362 1205.2 Z" fill="#000000" fill-rule="nonzero" fill-opacity="1"></path><path clip-path="url(#clip830)" d="M172.431 1179.6 Q168.82 1179.6 166.991 1183.16 Q165.186 1186.7 165.186 1193.83 Q165.186 1200.94 166.991 1204.5 Q168.82 1208.04 172.431 1208.04 Q176.065 1208.04 177.871 1204.5 Q179.7 1200.94 179.7 1193.83 Q179.7 1186.7 177.871 1183.16 Q176.065 1179.6 172.431 1179.6 M172.431 1175.89 Q178.241 1175.89 181.297 1180.5 Q184.376 1185.08 184.376 1193.83 Q184.376 1202.56 181.297 1207.17 Q178.241 1211.75 172.431 1211.75 Q166.621 1211.75 163.542 1207.17 Q160.487 1202.56 160.487 1193.83 Q160.487 1185.08 163.542 1180.5 Q166.621 1175.89 172.431 1175.89 Z" fill="#000000" fill-rule="nonzero" fill-opacity="1"></path><path clip-path="url(#clip830)" d="M202.593 1179.6 Q198.982 1179.6 197.153 1183.16 Q195.348 1186.7 195.348 1193.83 Q195.348 1200.94 197.153 1204.5 Q198.982 1208.04 202.593 1208.04 Q206.227 1208.04 208.033 1204.5 Q209.861 1200.94 209.861 1193.83 Q209.861 1186.7 208.033 1183.16 Q206.227 1179.6 202.593 1179.6 M202.593 1175.89 Q208.403 1175.89 211.459 1180.5 Q214.537 1185.08 214.537 1193.83 Q214.537 1202.56 211.459 1207.17 Q208.403 1211.75 202.593 1211.75 Q196.783 1211.75 193.704 1207.17 Q190.649 1202.56 190.649 1193.83 Q190.649 1185.08 193.704 1180.5 Q196.783 1175.89 202.593 1175.89 Z" fill="#000000" fill-rule="nonzero" fill-opacity="1"></path><path clip-path="url(#clip830)" d="M222.801 1176.52 L241.158 1176.52 L241.158 1180.45 L227.084 1180.45 L227.084 1188.92 Q228.102 1188.58 229.121 1188.42 Q230.139 1188.23 231.158 1188.23 Q236.945 1188.23 240.324 1191.4 Q243.704 1194.57 243.704 1199.99 Q243.704 1205.57 240.232 1208.67 Q236.76 1211.75 230.44 1211.75 Q228.264 1211.75 225.996 1211.38 Q223.75 1211.01 221.343 1210.27 L221.343 1205.57 Q223.426 1206.7 225.648 1207.26 Q227.871 1207.81 230.347 1207.81 Q234.352 1207.81 236.69 1205.71 Q239.028 1203.6 239.028 1199.99 Q239.028 1196.38 236.69 1194.27 Q234.352 1192.17 230.347 1192.17 Q228.473 1192.17 226.598 1192.58 Q224.746 1193 222.801 1193.88 L222.801 1176.52 Z" fill="#000000" fill-rule="nonzero" fill-opacity="1"></path><path clip-path="url(#clip830)" d="M126.205 875.825 Q122.593 875.825 120.765 879.39 Q118.959 882.932 118.959 890.061 Q118.959 897.168 120.765 900.733 Q122.593 904.274 126.205 904.274 Q129.839 904.274 131.644 900.733 Q133.473 897.168 133.473 890.061 Q133.473 882.932 131.644 879.39 Q129.839 875.825 126.205 875.825 M126.205 872.122 Q132.015 872.122 135.07 876.728 Q138.149 881.311 138.149 890.061 Q138.149 898.788 135.07 903.395 Q132.015 907.978 126.205 907.978 Q120.394 907.978 117.316 903.395 Q114.26 898.788 114.26 890.061 Q114.26 881.311 117.316 876.728 Q120.394 872.122 126.205 872.122 Z" fill="#000000" fill-rule="nonzero" fill-opacity="1"></path><path clip-path="url(#clip830)" d="M146.366 901.427 L151.251 901.427 L151.251 907.307 L146.366 907.307 L146.366 901.427 Z" fill="#000000" fill-rule="nonzero" fill-opacity="1"></path><path clip-path="url(#clip830)" d="M171.436 875.825 Q167.825 875.825 165.996 879.39 Q164.19 882.932 164.19 890.061 Q164.19 897.168 165.996 900.733 Q167.825 904.274 171.436 904.274 Q175.07 904.274 176.876 900.733 Q178.704 897.168 178.704 890.061 Q178.704 882.932 176.876 879.39 Q175.07 875.825 171.436 875.825 M171.436 872.122 Q177.246 872.122 180.301 876.728 Q183.38 881.311 183.38 890.061 Q183.38 898.788 180.301 903.395 Q177.246 907.978 171.436 907.978 Q165.626 907.978 162.547 903.395 Q159.491 898.788 159.491 890.061 Q159.491 881.311 162.547 876.728 Q165.626 872.122 171.436 872.122 Z" fill="#000000" fill-rule="nonzero" fill-opacity="1"></path><path clip-path="url(#clip830)" d="M192.408 903.372 L200.047 903.372 L200.047 877.006 L191.737 878.673 L191.737 874.413 L200 872.747 L204.676 872.747 L204.676 903.372 L212.315 903.372 L212.315 907.307 L192.408 907.307 L192.408 903.372 Z" fill="#000000" fill-rule="nonzero" fill-opacity="1"></path><path clip-path="url(#clip830)" d="M231.76 875.825 Q228.148 875.825 226.32 879.39 Q224.514 882.932 224.514 890.061 Q224.514 897.168 226.32 900.733 Q228.148 904.274 231.76 904.274 Q235.394 904.274 237.199 900.733 Q239.028 897.168 239.028 890.061 Q239.028 882.932 237.199 879.39 Q235.394 875.825 231.76 875.825 M231.76 872.122 Q237.57 872.122 240.625 876.728 Q243.704 881.311 243.704 890.061 Q243.704 898.788 240.625 903.395 Q237.57 907.978 231.76 907.978 Q225.949 907.978 222.871 903.395 Q219.815 898.788 219.815 890.061 Q219.815 881.311 222.871 876.728 Q225.949 872.122 231.76 872.122 Z" fill="#000000" fill-rule="nonzero" fill-opacity="1"></path><path clip-path="url(#clip830)" d="M127.2 572.055 Q123.589 572.055 121.76 575.62 Q119.955 579.161 119.955 586.291 Q119.955 593.397 121.76 596.962 Q123.589 600.504 127.2 600.504 Q130.834 600.504 132.64 596.962 Q134.468 593.397 134.468 586.291 Q134.468 579.161 132.64 575.62 Q130.834 572.055 127.2 572.055 M127.2 568.351 Q133.01 568.351 136.066 572.958 Q139.144 577.541 139.144 586.291 Q139.144 595.018 136.066 599.624 Q133.01 604.208 127.2 604.208 Q121.39 604.208 118.311 599.624 Q115.256 595.018 115.256 586.291 Q115.256 577.541 118.311 572.958 Q121.39 568.351 127.2 568.351 Z" fill="#000000" fill-rule="nonzero" fill-opacity="1"></path><path clip-path="url(#clip830)" d="M147.362 597.657 L152.246 597.657 L152.246 603.536 L147.362 603.536 L147.362 597.657 Z" fill="#000000" fill-rule="nonzero" fill-opacity="1"></path><path clip-path="url(#clip830)" d="M172.431 572.055 Q168.82 572.055 166.991 575.62 Q165.186 579.161 165.186 586.291 Q165.186 593.397 166.991 596.962 Q168.82 600.504 172.431 600.504 Q176.065 600.504 177.871 596.962 Q179.7 593.397 179.7 586.291 Q179.7 579.161 177.871 575.62 Q176.065 572.055 172.431 572.055 M172.431 568.351 Q178.241 568.351 181.297 572.958 Q184.376 577.541 184.376 586.291 Q184.376 595.018 181.297 599.624 Q178.241 604.208 172.431 604.208 Q166.621 604.208 163.542 599.624 Q160.487 595.018 160.487 586.291 Q160.487 577.541 163.542 572.958 Q166.621 568.351 172.431 568.351 Z" fill="#000000" fill-rule="nonzero" fill-opacity="1"></path><path clip-path="url(#clip830)" d="M193.403 599.601 L201.042 599.601 L201.042 573.235 L192.732 574.902 L192.732 570.643 L200.996 568.976 L205.672 568.976 L205.672 599.601 L213.311 599.601 L213.311 603.536 L193.403 603.536 L193.403 599.601 Z" fill="#000000" fill-rule="nonzero" fill-opacity="1"></path><path clip-path="url(#clip830)" d="M222.801 568.976 L241.158 568.976 L241.158 572.911 L227.084 572.911 L227.084 581.384 Q228.102 581.036 229.121 580.874 Q230.139 580.689 231.158 580.689 Q236.945 580.689 240.324 583.86 Q243.704 587.032 243.704 592.448 Q243.704 598.027 240.232 601.129 Q236.76 604.208 230.44 604.208 Q228.264 604.208 225.996 603.837 Q223.75 603.467 221.343 602.726 L221.343 598.027 Q223.426 599.161 225.648 599.717 Q227.871 600.272 230.347 600.272 Q234.352 600.272 236.69 598.166 Q239.028 596.059 239.028 592.448 Q239.028 588.837 236.69 586.731 Q234.352 584.624 230.347 584.624 Q228.473 584.624 226.598 585.041 Q224.746 585.458 222.801 586.337 L222.801 568.976 Z" fill="#000000" fill-rule="nonzero" fill-opacity="1"></path><path clip-path="url(#clip830)" d="M126.205 268.284 Q122.593 268.284 120.765 271.849 Q118.959 275.391 118.959 282.521 Q118.959 289.627 120.765 293.192 Q122.593 296.733 126.205 296.733 Q129.839 296.733 131.644 293.192 Q133.473 289.627 133.473 282.521 Q133.473 275.391 131.644 271.849 Q129.839 268.284 126.205 268.284 M126.205 264.581 Q132.015 264.581 135.07 269.187 Q138.149 273.771 138.149 282.521 Q138.149 291.247 135.07 295.854 Q132.015 300.437 126.205 300.437 Q120.394 300.437 117.316 295.854 Q114.26 291.247 114.26 282.521 Q114.26 273.771 117.316 269.187 Q120.394 264.581 126.205 264.581 Z" fill="#000000" fill-rule="nonzero" fill-opacity="1"></path><path clip-path="url(#clip830)" d="M146.366 293.886 L151.251 293.886 L151.251 299.766 L146.366 299.766 L146.366 293.886 Z" fill="#000000" fill-rule="nonzero" fill-opacity="1"></path><path clip-path="url(#clip830)" d="M171.436 268.284 Q167.825 268.284 165.996 271.849 Q164.19 275.391 164.19 282.521 Q164.19 289.627 165.996 293.192 Q167.825 296.733 171.436 296.733 Q175.07 296.733 176.876 293.192 Q178.704 289.627 178.704 282.521 Q178.704 275.391 176.876 271.849 Q175.07 268.284 171.436 268.284 M171.436 264.581 Q177.246 264.581 180.301 269.187 Q183.38 273.771 183.38 282.521 Q183.38 291.247 180.301 295.854 Q177.246 300.437 171.436 300.437 Q165.626 300.437 162.547 295.854 Q159.491 291.247 159.491 282.521 Q159.491 273.771 162.547 269.187 Q165.626 264.581 171.436 264.581 Z" fill="#000000" fill-rule="nonzero" fill-opacity="1"></path><path clip-path="url(#clip830)" d="M195.625 295.831 L211.945 295.831 L211.945 299.766 L190 299.766 L190 295.831 Q192.663 293.076 197.246 288.446 Q201.852 283.794 203.033 282.451 Q205.278 279.928 206.158 278.192 Q207.061 276.433 207.061 274.743 Q207.061 271.988 205.116 270.252 Q203.195 268.516 200.093 268.516 Q197.894 268.516 195.44 269.28 Q193.01 270.044 190.232 271.595 L190.232 266.872 Q193.056 265.738 195.51 265.159 Q197.963 264.581 200 264.581 Q205.371 264.581 208.565 267.266 Q211.76 269.951 211.76 274.442 Q211.76 276.571 210.949 278.493 Q210.162 280.391 208.056 282.983 Q207.477 283.655 204.375 286.872 Q201.274 290.067 195.625 295.831 Z" fill="#000000" fill-rule="nonzero" fill-opacity="1"></path><path clip-path="url(#clip830)" d="M231.76 268.284 Q228.148 268.284 226.32 271.849 Q224.514 275.391 224.514 282.521 Q224.514 289.627 226.32 293.192 Q228.148 296.733 231.76 296.733 Q235.394 296.733 237.199 293.192 Q239.028 289.627 239.028 282.521 Q239.028 275.391 237.199 271.849 Q235.394 268.284 231.76 268.284 M231.76 264.581 Q237.57 264.581 240.625 269.187 Q243.704 273.771 243.704 282.521 Q243.704 291.247 240.625 295.854 Q237.57 300.437 231.76 300.437 Q225.949 300.437 222.871 295.854 Q219.815 291.247 219.815 282.521 Q219.815 273.771 222.871 269.187 Q225.949 264.581 231.76 264.581 Z" fill="#000000" fill-rule="nonzero" fill-opacity="1"></path><path clip-path="url(#clip830)" d="M46.0847 1080.41 Q46.0847 1087.51 47.7079 1090.25 Q49.3312 1092.98 53.2461 1092.98 Q56.3653 1092.98 58.2114 1090.95 Q60.0256 1088.88 60.0256 1085.34 Q60.0256 1080.47 56.5881 1077.55 Q53.1188 1074.59 47.3897 1074.59 L46.0847 1074.59 L46.0847 1080.41 M43.6657 1068.73 L64.0042 1068.73 L64.0042 1074.59 L58.5933 1074.59 Q61.8398 1076.59 63.3994 1079.58 Q64.9272 1082.58 64.9272 1086.9 Q64.9272 1092.38 61.8716 1095.62 Q58.7843 1098.84 53.6281 1098.84 Q47.6125 1098.84 44.5569 1094.83 Q41.5014 1090.79 41.5014 1082.8 L41.5014 1074.59 L40.9285 1074.59 Q36.8862 1074.59 34.6901 1077.26 Q32.4621 1079.9 32.4621 1084.71 Q32.4621 1087.76 33.1941 1090.66 Q33.9262 1093.56 35.3903 1096.23 L29.9795 1096.23 Q28.7381 1093.01 28.1334 1089.99 Q27.4968 1086.97 27.4968 1084.1 Q27.4968 1076.37 31.5072 1072.55 Q35.5176 1068.73 43.6657 1068.73 Z" fill="#000000" fill-rule="nonzero" fill-opacity="1"></path><path clip-path="url(#clip830)" d="M28.3562 1060.87 L28.3562 1054.66 L58.275 1043.52 L28.3562 1032.38 L28.3562 1026.17 L64.0042 1039.54 L64.0042 1047.5 L28.3562 1060.87 Z" fill="#000000" fill-rule="nonzero" fill-opacity="1"></path><path clip-path="url(#clip830)" d="M44.7161 987.599 L47.5806 987.599 L47.5806 1014.53 Q53.6281 1014.14 56.8109 1010.9 Q59.9619 1007.62 59.9619 1001.79 Q59.9619 998.42 59.1344 995.269 Q58.3069 992.087 56.6518 988.967 L62.1899 988.967 Q63.5267 992.118 64.227 995.429 Q64.9272 998.739 64.9272 1002.14 Q64.9272 1010.67 59.9619 1015.67 Q54.9967 1020.64 46.5303 1020.64 Q37.7774 1020.64 32.6531 1015.93 Q27.4968 1011.18 27.4968 1003.16 Q27.4968 995.97 32.1438 991.8 Q36.7589 987.599 44.7161 987.599 M42.9973 993.455 Q38.1912 993.519 35.3266 996.161 Q32.4621 998.771 32.4621 1003.1 Q32.4621 1008 35.2312 1010.96 Q38.0002 1013.89 43.0292 1014.33 L42.9973 993.455 Z" fill="#000000" fill-rule="nonzero" fill-opacity="1"></path><path clip-path="url(#clip830)" d="M33.8307 957.33 Q33.2578 958.316 33.0032 959.494 Q32.7167 960.64 32.7167 962.04 Q32.7167 967.006 35.9632 969.679 Q39.1779 972.321 45.2253 972.321 L64.0042 972.321 L64.0042 978.209 L28.3562 978.209 L28.3562 972.321 L33.8944 972.321 Q30.6479 970.475 29.0883 967.515 Q27.4968 964.555 27.4968 960.322 Q27.4968 959.717 27.5923 958.985 Q27.656 958.253 27.8151 957.362 L33.8307 957.33 Z" fill="#000000" fill-rule="nonzero" fill-opacity="1"></path><path clip-path="url(#clip830)" d="M46.0847 934.986 Q46.0847 942.084 47.7079 944.821 Q49.3312 947.558 53.2461 947.558 Q56.3653 947.558 58.2114 945.521 Q60.0256 943.453 60.0256 939.92 Q60.0256 935.05 56.5881 932.122 Q53.1188 929.162 47.3897 929.162 L46.0847 929.162 L46.0847 934.986 M43.6657 923.305 L64.0042 923.305 L64.0042 929.162 L58.5933 929.162 Q61.8398 931.167 63.3994 934.159 Q64.9272 937.151 64.9272 941.479 Q64.9272 946.954 61.8716 950.2 Q58.7843 953.415 53.6281 953.415 Q47.6125 953.415 44.5569 949.405 Q41.5014 945.362 41.5014 937.373 L41.5014 929.162 L40.9285 929.162 Q36.8862 929.162 34.6901 931.835 Q32.4621 934.477 32.4621 939.283 Q32.4621 942.339 33.1941 945.235 Q33.9262 948.131 35.3903 950.805 L29.9795 950.805 Q28.7381 947.59 28.1334 944.567 Q27.4968 941.543 27.4968 938.678 Q27.4968 930.944 31.5072 927.125 Q35.5176 923.305 43.6657 923.305 Z" fill="#000000" fill-rule="nonzero" fill-opacity="1"></path><path clip-path="url(#clip830)" d="M45.7664 887.784 Q39.4007 887.784 35.8996 890.426 Q32.3984 893.036 32.3984 897.779 Q32.3984 902.489 35.8996 905.131 Q39.4007 907.741 45.7664 907.741 Q52.1003 907.741 55.6014 905.131 Q59.1026 902.489 59.1026 897.779 Q59.1026 893.036 55.6014 890.426 Q52.1003 887.784 45.7664 887.784 M59.58 881.928 Q68.683 881.928 73.1071 885.97 Q77.5631 890.012 77.5631 898.352 Q77.5631 901.439 77.0857 904.176 Q76.6401 906.913 75.6852 909.492 L69.9879 909.492 Q71.3884 906.913 72.0568 904.399 Q72.7252 901.885 72.7252 899.275 Q72.7252 893.514 69.7015 890.649 Q66.7096 887.784 60.6303 887.784 L57.7339 887.784 Q60.885 889.599 62.4446 892.431 Q64.0042 895.264 64.0042 899.211 Q64.0042 905.768 59.0071 909.778 Q54.01 913.788 45.7664 913.788 Q37.491 913.788 32.4939 909.778 Q27.4968 905.768 27.4968 899.211 Q27.4968 895.264 29.0564 892.431 Q30.616 889.599 33.7671 887.784 L28.3562 887.784 L28.3562 881.928 L59.58 881.928 Z" fill="#000000" fill-rule="nonzero" fill-opacity="1"></path><path clip-path="url(#clip830)" d="M44.7161 839.373 L47.5806 839.373 L47.5806 866.3 Q53.6281 865.918 56.8109 862.672 Q59.9619 859.393 59.9619 853.569 Q59.9619 850.195 59.1344 847.044 Q58.3069 843.861 56.6518 840.742 L62.1899 840.742 Q63.5267 843.893 64.227 847.203 Q64.9272 850.513 64.9272 853.919 Q64.9272 862.449 59.9619 867.446 Q54.9967 872.411 46.5303 872.411 Q37.7774 872.411 32.6531 867.701 Q27.4968 862.958 27.4968 854.937 Q27.4968 847.744 32.1438 843.575 Q36.7589 839.373 44.7161 839.373 M42.9973 845.23 Q38.1912 845.293 35.3266 847.935 Q32.4621 850.545 32.4621 854.874 Q32.4621 859.775 35.2312 862.735 Q38.0002 865.664 43.0292 866.109 L42.9973 845.23 Z" fill="#000000" fill-rule="nonzero" fill-opacity="1"></path><path clip-path="url(#clip830)" d="M33.8307 788.384 Q33.2578 789.371 33.0032 790.548 Q32.7167 791.694 32.7167 793.095 Q32.7167 798.06 35.9632 800.733 Q39.1779 803.375 45.2253 803.375 L64.0042 803.375 L64.0042 809.263 L28.3562 809.263 L28.3562 803.375 L33.8944 803.375 Q30.6479 801.529 29.0883 798.569 Q27.4968 795.609 27.4968 791.376 Q27.4968 790.771 27.5923 790.039 Q27.656 789.307 27.8151 788.416 L33.8307 788.384 Z" fill="#000000" fill-rule="nonzero" fill-opacity="1"></path><path clip-path="url(#clip830)" d="M44.7161 753.182 L47.5806 753.182 L47.5806 780.109 Q53.6281 779.727 56.8109 776.48 Q59.9619 773.202 59.9619 767.377 Q59.9619 764.003 59.1344 760.852 Q58.3069 757.669 56.6518 754.55 L62.1899 754.55 Q63.5267 757.701 64.227 761.011 Q64.9272 764.322 64.9272 767.727 Q64.9272 776.257 59.9619 781.254 Q54.9967 786.22 46.5303 786.22 Q37.7774 786.22 32.6531 781.509 Q27.4968 776.767 27.4968 768.746 Q27.4968 761.553 32.1438 757.383 Q36.7589 753.182 44.7161 753.182 M42.9973 759.038 Q38.1912 759.102 35.3266 761.743 Q32.4621 764.353 32.4621 768.682 Q32.4621 773.584 35.2312 776.544 Q38.0002 779.472 43.0292 779.918 L42.9973 759.038 Z" fill="#000000" fill-rule="nonzero" fill-opacity="1"></path><path clip-path="url(#clip830)" d="M14.479 743.569 L14.479 737.713 L64.0042 737.713 L64.0042 743.569 L14.479 743.569 Z" fill="#000000" fill-rule="nonzero" fill-opacity="1"></path><path clip-path="url(#clip830)" d="M46.0847 709.258 Q46.0847 716.356 47.7079 719.093 Q49.3312 721.83 53.2461 721.83 Q56.3653 721.83 58.2114 719.793 Q60.0256 717.725 60.0256 714.192 Q60.0256 709.322 56.5881 706.394 Q53.1188 703.434 47.3897 703.434 L46.0847 703.434 L46.0847 709.258 M43.6657 697.577 L64.0042 697.577 L64.0042 703.434 L58.5933 703.434 Q61.8398 705.439 63.3994 708.431 Q64.9272 711.423 64.9272 715.751 Q64.9272 721.226 61.8716 724.472 Q58.7843 727.687 53.6281 727.687 Q47.6125 727.687 44.5569 723.677 Q41.5014 719.634 41.5014 711.645 L41.5014 703.434 L40.9285 703.434 Q36.8862 703.434 34.6901 706.107 Q32.4621 708.749 32.4621 713.555 Q32.4621 716.611 33.1941 719.507 Q33.9262 722.403 35.3903 725.077 L29.9795 725.077 Q28.7381 721.862 28.1334 718.839 Q27.4968 715.815 27.4968 712.95 Q27.4968 705.216 31.5072 701.397 Q35.5176 697.577 43.6657 697.577 Z" fill="#000000" fill-rule="nonzero" fill-opacity="1"></path><path clip-path="url(#clip830)" d="M18.2347 679.721 L28.3562 679.721 L28.3562 667.658 L32.9077 667.658 L32.9077 679.721 L52.2594 679.721 Q56.6199 679.721 57.8613 678.544 Q59.1026 677.334 59.1026 673.674 L59.1026 667.658 L64.0042 667.658 L64.0042 673.674 Q64.0042 680.453 61.4897 683.032 Q58.9434 685.61 52.2594 685.61 L32.9077 685.61 L32.9077 689.906 L28.3562 689.906 L28.3562 685.61 L18.2347 685.61 L18.2347 679.721 Z" fill="#000000" fill-rule="nonzero" fill-opacity="1"></path><path clip-path="url(#clip830)" d="M28.3562 659.956 L28.3562 654.099 L64.0042 654.099 L64.0042 659.956 L28.3562 659.956 M14.479 659.956 L14.479 654.099 L21.895 654.099 L21.895 659.956 L14.479 659.956 Z" fill="#000000" fill-rule="nonzero" fill-opacity="1"></path><path clip-path="url(#clip830)" d="M28.3562 646.047 L28.3562 639.84 L58.275 628.7 L28.3562 617.56 L28.3562 611.354 L64.0042 624.722 L64.0042 632.679 L28.3562 646.047 Z" fill="#000000" fill-rule="nonzero" fill-opacity="1"></path><path clip-path="url(#clip830)" d="M44.7161 572.777 L47.5806 572.777 L47.5806 599.704 Q53.6281 599.322 56.8109 596.076 Q59.9619 592.798 59.9619 586.973 Q59.9619 583.599 59.1344 580.448 Q58.3069 577.265 56.6518 574.146 L62.1899 574.146 Q63.5267 577.297 64.227 580.607 Q64.9272 583.917 64.9272 587.323 Q64.9272 595.853 59.9619 600.85 Q54.9967 605.815 46.5303 605.815 Q37.7774 605.815 32.6531 601.105 Q27.4968 596.362 27.4968 588.342 Q27.4968 581.148 32.1438 576.979 Q36.7589 572.777 44.7161 572.777 M42.9973 578.634 Q38.1912 578.698 35.3266 581.339 Q32.4621 583.949 32.4621 588.278 Q32.4621 593.18 35.2312 596.14 Q38.0002 599.068 43.0292 599.513 L42.9973 578.634 Z" fill="#000000" fill-rule="nonzero" fill-opacity="1"></path><path clip-path="url(#clip830)" d="M44.7161 511.953 L47.5806 511.953 L47.5806 538.88 Q53.6281 538.498 56.8109 535.252 Q59.9619 531.973 59.9619 526.149 Q59.9619 522.775 59.1344 519.624 Q58.3069 516.441 56.6518 513.322 L62.1899 513.322 Q63.5267 516.473 64.227 519.783 Q64.9272 523.093 64.9272 526.499 Q64.9272 535.029 59.9619 540.026 Q54.9967 544.991 46.5303 544.991 Q37.7774 544.991 32.6531 540.281 Q27.4968 535.538 27.4968 527.517 Q27.4968 520.324 32.1438 516.155 Q36.7589 511.953 44.7161 511.953 M42.9973 517.81 Q38.1912 517.873 35.3266 520.515 Q32.4621 523.125 32.4621 527.454 Q32.4621 532.355 35.2312 535.315 Q38.0002 538.244 43.0292 538.689 L42.9973 517.81 Z" fill="#000000" fill-rule="nonzero" fill-opacity="1"></path><path clip-path="url(#clip830)" d="M33.8307 481.684 Q33.2578 482.671 33.0032 483.849 Q32.7167 484.994 32.7167 486.395 Q32.7167 491.36 35.9632 494.034 Q39.1779 496.675 45.2253 496.675 L64.0042 496.675 L64.0042 502.564 L28.3562 502.564 L28.3562 496.675 L33.8944 496.675 Q30.6479 494.829 29.0883 491.869 Q27.4968 488.909 27.4968 484.676 Q27.4968 484.071 27.5923 483.339 Q27.656 482.607 27.8151 481.716 L33.8307 481.684 Z" fill="#000000" fill-rule="nonzero" fill-opacity="1"></path><path clip-path="url(#clip830)" d="M33.8307 456.03 Q33.2578 457.017 33.0032 458.195 Q32.7167 459.341 32.7167 460.741 Q32.7167 465.706 35.9632 468.38 Q39.1779 471.022 45.2253 471.022 L64.0042 471.022 L64.0042 476.91 L28.3562 476.91 L28.3562 471.022 L33.8944 471.022 Q30.6479 469.176 29.0883 466.216 Q27.4968 463.255 27.4968 459.022 Q27.4968 458.418 27.5923 457.686 Q27.656 456.953 27.8151 456.062 L33.8307 456.03 Z" fill="#000000" fill-rule="nonzero" fill-opacity="1"></path><path clip-path="url(#clip830)" d="M32.4621 437.506 Q32.4621 442.217 36.1542 444.954 Q39.8145 447.691 46.212 447.691 Q52.6095 447.691 56.3017 444.986 Q59.9619 442.249 59.9619 437.506 Q59.9619 432.827 56.2698 430.09 Q52.5777 427.353 46.212 427.353 Q39.8781 427.353 36.186 430.09 Q32.4621 432.827 32.4621 437.506 M27.4968 437.506 Q27.4968 429.867 32.4621 425.507 Q37.4273 421.146 46.212 421.146 Q54.9649 421.146 59.9619 425.507 Q64.9272 429.867 64.9272 437.506 Q64.9272 445.177 59.9619 449.537 Q54.9649 453.866 46.212 453.866 Q37.4273 453.866 32.4621 449.537 Q27.4968 445.177 27.4968 437.506 Z" fill="#000000" fill-rule="nonzero" fill-opacity="1"></path><path clip-path="url(#clip830)" d="M33.8307 390.782 Q33.2578 391.769 33.0032 392.946 Q32.7167 394.092 32.7167 395.493 Q32.7167 400.458 35.9632 403.131 Q39.1779 405.773 45.2253 405.773 L64.0042 405.773 L64.0042 411.661 L28.3562 411.661 L28.3562 405.773 L33.8944 405.773 Q30.6479 403.927 29.0883 400.967 Q27.4968 398.007 27.4968 393.774 Q27.4968 393.169 27.5923 392.437 Q27.656 391.705 27.8151 390.814 L33.8307 390.782 Z" fill="#000000" fill-rule="nonzero" fill-opacity="1"></path><path clip-path="url(#clip830)" d="M542.001 65.6895 L555.369 65.6895 L555.369 19.5497 L540.826 22.4663 L540.826 15.0127 L555.288 12.096 L563.471 12.096 L563.471 65.6895 L576.839 65.6895 L576.839 72.576 L542.001 72.576 L542.001 65.6895 Z" fill="#000000" fill-rule="nonzero" fill-opacity="1"></path><path clip-path="url(#clip830)" d="M610.866 17.4837 Q604.547 17.4837 601.347 23.7221 Q598.187 29.92 598.187 42.3968 Q598.187 54.833 601.347 61.0714 Q604.547 67.2693 610.866 67.2693 Q617.226 67.2693 620.386 61.0714 Q623.586 54.833 623.586 42.3968 Q623.586 29.92 620.386 23.7221 Q617.226 17.4837 610.866 17.4837 M610.866 11.0023 Q621.034 11.0023 626.381 19.0636 Q631.769 27.0843 631.769 42.3968 Q631.769 57.6687 626.381 65.73 Q621.034 73.7508 610.866 73.7508 Q600.698 73.7508 595.311 65.73 Q589.964 57.6687 589.964 42.3968 Q589.964 27.0843 595.311 19.0636 Q600.698 11.0023 610.866 11.0023 Z" fill="#000000" fill-rule="nonzero" fill-opacity="1"></path><path clip-path="url(#clip830)" d="M663.649 17.4837 Q657.33 17.4837 654.13 23.7221 Q650.97 29.92 650.97 42.3968 Q650.97 54.833 654.13 61.0714 Q657.33 67.2693 663.649 67.2693 Q670.009 67.2693 673.169 61.0714 Q676.369 54.833 676.369 42.3968 Q676.369 29.92 673.169 23.7221 Q670.009 17.4837 663.649 17.4837 M663.649 11.0023 Q673.817 11.0023 679.164 19.0636 Q684.552 27.0843 684.552 42.3968 Q684.552 57.6687 679.164 65.73 Q673.817 73.7508 663.649 73.7508 Q653.482 73.7508 648.094 65.73 Q642.747 57.6687 642.747 42.3968 Q642.747 27.0843 648.094 19.0636 Q653.482 11.0023 663.649 11.0023 Z" fill="#000000" fill-rule="nonzero" fill-opacity="1"></path><path clip-path="url(#clip830)" d="M718.904 27.2059 L726.803 27.2059 L740.981 65.2844 L755.159 27.2059 L763.059 27.2059 L746.045 72.576 L735.918 72.576 L718.904 27.2059 Z" fill="#000000" fill-rule="nonzero" fill-opacity="1"></path><path clip-path="url(#clip830)" d="M793.967 49.7694 Q784.934 49.7694 781.45 51.8354 Q777.966 53.9013 777.966 58.8839 Q777.966 62.8538 780.559 65.2034 Q783.192 67.5124 787.688 67.5124 Q793.886 67.5124 797.613 63.1374 Q801.38 58.7219 801.38 51.4303 L801.38 49.7694 L793.967 49.7694 M808.834 46.6907 L808.834 72.576 L801.38 72.576 L801.38 65.6895 Q798.828 69.8214 795.02 71.8063 Q791.212 73.7508 785.703 73.7508 Q778.736 73.7508 774.604 69.8619 Q770.512 65.9325 770.512 59.3701 Q770.512 51.7138 775.616 47.825 Q780.761 43.9361 790.929 43.9361 L801.38 43.9361 L801.38 43.2069 Q801.38 38.0623 797.977 35.2672 Q794.615 32.4315 788.498 32.4315 Q784.609 32.4315 780.923 33.3632 Q777.237 34.295 773.834 36.1584 L773.834 29.2718 Q777.925 27.692 781.774 26.9223 Q785.622 26.1121 789.268 26.1121 Q799.112 26.1121 803.973 31.2163 Q808.834 36.3204 808.834 46.6907 Z" fill="#000000" fill-rule="nonzero" fill-opacity="1"></path><path clip-path="url(#clip830)" d="M850.477 34.1734 Q849.221 33.4443 847.723 33.1202 Q846.264 32.7556 844.482 32.7556 Q838.162 32.7556 834.76 36.8875 Q831.397 40.9789 831.397 48.6757 L831.397 72.576 L823.903 72.576 L823.903 27.2059 L831.397 27.2059 L831.397 34.2544 Q833.747 30.1225 837.514 28.1376 Q841.282 26.1121 846.669 26.1121 Q847.439 26.1121 848.371 26.2337 Q849.302 26.3147 850.437 26.5172 L850.477 34.1734 Z" fill="#000000" fill-rule="nonzero" fill-opacity="1"></path><path clip-path="url(#clip830)" d="M858.295 27.2059 L865.749 27.2059 L865.749 72.576 L858.295 72.576 L858.295 27.2059 M858.295 9.54393 L865.749 9.54393 L865.749 18.9825 L858.295 18.9825 L858.295 9.54393 Z" fill="#000000" fill-rule="nonzero" fill-opacity="1"></path><path clip-path="url(#clip830)" d="M901.964 49.7694 Q892.931 49.7694 889.447 51.8354 Q885.963 53.9013 885.963 58.8839 Q885.963 62.8538 888.556 65.2034 Q891.189 67.5124 895.685 67.5124 Q901.883 67.5124 905.61 63.1374 Q909.377 58.7219 909.377 51.4303 L909.377 49.7694 L901.964 49.7694 M916.831 46.6907 L916.831 72.576 L909.377 72.576 L909.377 65.6895 Q906.825 69.8214 903.017 71.8063 Q899.21 73.7508 893.7 73.7508 Q886.733 73.7508 882.601 69.8619 Q878.509 65.9325 878.509 59.3701 Q878.509 51.7138 883.614 47.825 Q888.758 43.9361 898.926 43.9361 L909.377 43.9361 L909.377 43.2069 Q909.377 38.0623 905.975 35.2672 Q902.612 32.4315 896.495 32.4315 Q892.607 32.4315 888.92 33.3632 Q885.234 34.295 881.831 36.1584 L881.831 29.2718 Q885.923 27.692 889.771 26.9223 Q893.619 26.1121 897.265 26.1121 Q907.109 26.1121 911.97 31.2163 Q916.831 36.3204 916.831 46.6907 Z" fill="#000000" fill-rule="nonzero" fill-opacity="1"></path><path clip-path="url(#clip830)" d="M964.753 49.9314 Q964.753 41.7081 961.35 37.0496 Q957.988 32.3505 952.074 32.3505 Q946.16 32.3505 942.757 37.0496 Q939.395 41.7081 939.395 49.9314 Q939.395 58.1548 942.757 62.8538 Q946.16 67.5124 952.074 67.5124 Q957.988 67.5124 961.35 62.8538 Q964.753 58.1548 964.753 49.9314 M939.395 34.0924 Q941.744 30.0415 945.309 28.0971 Q948.914 26.1121 953.897 26.1121 Q962.161 26.1121 967.305 32.6746 Q972.49 39.2371 972.49 49.9314 Q972.49 60.6258 967.305 67.1883 Q962.161 73.7508 953.897 73.7508 Q948.914 73.7508 945.309 71.8063 Q941.744 69.8214 939.395 65.7705 L939.395 72.576 L931.9 72.576 L931.9 9.54393 L939.395 9.54393 L939.395 34.0924 Z" fill="#000000" fill-rule="nonzero" fill-opacity="1"></path><path clip-path="url(#clip830)" d="M984.846 9.54393 L992.299 9.54393 L992.299 72.576 L984.846 72.576 L984.846 9.54393 Z" fill="#000000" fill-rule="nonzero" fill-opacity="1"></path><path clip-path="url(#clip830)" d="M1046.7 48.0275 L1046.7 51.6733 L1012.43 51.6733 Q1012.92 59.3701 1017.05 63.421 Q1021.22 67.4314 1028.64 67.4314 Q1032.93 67.4314 1036.94 66.3781 Q1040.99 65.3249 1044.96 63.2184 L1044.96 70.267 Q1040.95 71.9684 1036.74 72.8596 Q1032.52 73.7508 1028.19 73.7508 Q1017.33 73.7508 1010.97 67.4314 Q1004.65 61.1119 1004.65 50.3365 Q1004.65 39.1965 1010.65 32.6746 Q1016.69 26.1121 1026.89 26.1121 Q1036.05 26.1121 1041.36 32.0264 Q1046.7 37.9003 1046.7 48.0275 M1039.25 45.84 Q1039.17 39.7232 1035.81 36.0774 Q1032.48 32.4315 1026.98 32.4315 Q1020.74 32.4315 1016.97 35.9558 Q1013.24 39.4801 1012.68 45.8805 L1039.25 45.84 Z" fill="#000000" fill-rule="nonzero" fill-opacity="1"></path><path clip-path="url(#clip830)" d="M1087.86 28.5427 L1087.86 35.5912 Q1084.7 33.9709 1081.3 33.1607 Q1077.89 32.3505 1074.25 32.3505 Q1068.7 32.3505 1065.9 34.0519 Q1063.15 35.7533 1063.15 39.156 Q1063.15 41.7486 1065.13 43.2475 Q1067.12 44.7058 1073.11 46.0426 L1075.67 46.6097 Q1083.61 48.3111 1086.93 51.4303 Q1090.29 54.509 1090.29 60.0587 Q1090.29 66.3781 1085.27 70.0644 Q1080.28 73.7508 1071.54 73.7508 Q1067.89 73.7508 1063.92 73.0216 Q1059.99 72.3329 1055.61 70.9151 L1055.61 63.2184 Q1059.75 65.3654 1063.76 66.4591 Q1067.77 67.5124 1071.7 67.5124 Q1076.96 67.5124 1079.8 65.73 Q1082.63 63.9071 1082.63 60.6258 Q1082.63 57.5877 1080.57 55.9673 Q1078.54 54.3469 1071.62 52.8481 L1069.02 52.2405 Q1062.1 50.7821 1059.02 47.7845 Q1055.94 44.7463 1055.94 39.4801 Q1055.94 33.0797 1060.48 29.5959 Q1065.01 26.1121 1073.36 26.1121 Q1077.49 26.1121 1081.14 26.7198 Q1084.78 27.3274 1087.86 28.5427 Z" fill="#000000" fill-rule="nonzero" fill-opacity="1"></path><path clip-path="url(#clip830)" d="M1138.13 9.17935 L1138.13 92.1419 L1131.25 92.1419 L1131.25 9.17935 L1138.13 9.17935 Z" fill="#000000" fill-rule="nonzero" fill-opacity="1"></path><path clip-path="url(#clip830)" d="M1208.7 39.9662 Q1214.57 41.222 1217.85 45.1919 Q1221.18 49.1618 1221.18 54.9951 Q1221.18 63.9476 1215.02 68.8492 Q1208.86 73.7508 1197.52 73.7508 Q1193.71 73.7508 1189.66 72.9811 Q1185.65 72.2519 1181.36 70.7531 L1181.36 62.8538 Q1184.76 64.8388 1188.81 65.8515 Q1192.86 66.8642 1197.28 66.8642 Q1204.97 66.8642 1208.98 63.826 Q1213.03 60.7879 1213.03 54.9951 Q1213.03 49.6479 1209.27 46.6502 Q1205.54 43.612 1198.85 43.612 L1191.81 43.612 L1191.81 36.8875 L1199.18 36.8875 Q1205.21 36.8875 1208.42 34.4975 Q1211.62 32.067 1211.62 27.5299 Q1211.62 22.8714 1208.29 20.4004 Q1205.01 17.8888 1198.85 17.8888 Q1195.49 17.8888 1191.64 18.618 Q1187.8 19.3471 1183.18 20.8865 L1183.18 13.5948 Q1187.84 12.2985 1191.89 11.6504 Q1195.98 11.0023 1199.58 11.0023 Q1208.9 11.0023 1214.33 15.2557 Q1219.76 19.4686 1219.76 26.6793 Q1219.76 31.7024 1216.88 35.1862 Q1214.01 38.6294 1208.7 39.9662 Z" fill="#000000" fill-rule="nonzero" fill-opacity="1"></path><path clip-path="url(#clip830)" d="M1279.59 32.4315 Q1273.59 32.4315 1270.11 37.1306 Q1266.63 41.7891 1266.63 49.9314 Q1266.63 58.0738 1270.07 62.7728 Q1273.55 67.4314 1279.59 67.4314 Q1285.54 67.4314 1289.03 62.7323 Q1292.51 58.0333 1292.51 49.9314 Q1292.51 41.8701 1289.03 37.1711 Q1285.54 32.4315 1279.59 32.4315 M1279.59 26.1121 Q1289.31 26.1121 1294.86 32.4315 Q1300.41 38.7509 1300.41 49.9314 Q1300.41 61.0714 1294.86 67.4314 Q1289.31 73.7508 1279.59 73.7508 Q1269.83 73.7508 1264.28 67.4314 Q1258.77 61.0714 1258.77 49.9314 Q1258.77 38.7509 1264.28 32.4315 Q1269.83 26.1121 1279.59 26.1121 Z" fill="#000000" fill-rule="nonzero" fill-opacity="1"></path><path clip-path="url(#clip830)" d="M1345.34 49.9314 Q1345.34 41.7081 1341.93 37.0496 Q1338.57 32.3505 1332.66 32.3505 Q1326.74 32.3505 1323.34 37.0496 Q1319.98 41.7081 1319.98 49.9314 Q1319.98 58.1548 1323.34 62.8538 Q1326.74 67.5124 1332.66 67.5124 Q1338.57 67.5124 1341.93 62.8538 Q1345.34 58.1548 1345.34 49.9314 M1319.98 34.0924 Q1322.33 30.0415 1325.89 28.0971 Q1329.5 26.1121 1334.48 26.1121 Q1342.74 26.1121 1347.89 32.6746 Q1353.07 39.2371 1353.07 49.9314 Q1353.07 60.6258 1347.89 67.1883 Q1342.74 73.7508 1334.48 73.7508 Q1329.5 73.7508 1325.89 71.8063 Q1322.33 69.8214 1319.98 65.7705 L1319.98 72.576 L1312.48 72.576 L1312.48 9.54393 L1319.98 9.54393 L1319.98 34.0924 Z" fill="#000000" fill-rule="nonzero" fill-opacity="1"></path><path clip-path="url(#clip830)" d="M1365.43 27.2059 L1372.88 27.2059 L1372.88 73.3862 Q1372.88 82.0551 1369.56 85.944 Q1366.28 89.8329 1358.95 89.8329 L1356.11 89.8329 L1356.11 83.5134 L1358.1 83.5134 Q1362.35 83.5134 1363.89 81.5285 Q1365.43 79.5841 1365.43 73.3862 L1365.43 27.2059 M1365.43 9.54393 L1372.88 9.54393 L1372.88 18.9825 L1365.43 18.9825 L1365.43 9.54393 Z" fill="#000000" fill-rule="nonzero" fill-opacity="1"></path><path clip-path="url(#clip830)" d="M1427.29 48.0275 L1427.29 51.6733 L1393.01 51.6733 Q1393.5 59.3701 1397.63 63.421 Q1401.81 67.4314 1409.22 67.4314 Q1413.51 67.4314 1417.52 66.3781 Q1421.57 65.3249 1425.54 63.2184 L1425.54 70.267 Q1421.53 71.9684 1417.32 72.8596 Q1413.11 73.7508 1408.77 73.7508 Q1397.92 73.7508 1391.56 67.4314 Q1385.24 61.1119 1385.24 50.3365 Q1385.24 39.1965 1391.23 32.6746 Q1397.27 26.1121 1407.48 26.1121 Q1416.63 26.1121 1421.94 32.0264 Q1427.29 37.9003 1427.29 48.0275 M1419.83 45.84 Q1419.75 39.7232 1416.39 36.0774 Q1413.07 32.4315 1407.56 32.4315 Q1401.32 32.4315 1397.55 35.9558 Q1393.82 39.4801 1393.26 45.8805 L1419.83 45.84 Z" fill="#000000" fill-rule="nonzero" fill-opacity="1"></path><path clip-path="url(#clip830)" d="M1472.17 28.9478 L1472.17 35.9153 Q1469.01 34.1734 1465.81 33.3227 Q1462.65 32.4315 1459.41 32.4315 Q1452.16 32.4315 1448.15 37.0496 Q1444.14 41.6271 1444.14 49.9314 Q1444.14 58.2358 1448.15 62.8538 Q1452.16 67.4314 1459.41 67.4314 Q1462.65 67.4314 1465.81 66.5807 Q1469.01 65.6895 1472.17 63.9476 L1472.17 70.8341 Q1469.05 72.2924 1465.69 73.0216 Q1462.37 73.7508 1458.6 73.7508 Q1448.35 73.7508 1442.31 67.3098 Q1436.28 60.8689 1436.28 49.9314 Q1436.28 38.832 1442.35 32.472 Q1448.47 26.1121 1459.09 26.1121 Q1462.53 26.1121 1465.81 26.8413 Q1469.09 27.5299 1472.17 28.9478 Z" fill="#000000" fill-rule="nonzero" fill-opacity="1"></path><path clip-path="url(#clip830)" d="M1492.51 14.324 L1492.51 27.2059 L1507.86 27.2059 L1507.86 32.9987 L1492.51 32.9987 L1492.51 57.6282 Q1492.51 63.1779 1494 64.7578 Q1495.54 66.3376 1500.2 66.3376 L1507.86 66.3376 L1507.86 72.576 L1500.2 72.576 Q1491.57 72.576 1488.29 69.3758 Q1485.01 66.1351 1485.01 57.6282 L1485.01 32.9987 L1479.54 32.9987 L1479.54 27.2059 L1485.01 27.2059 L1485.01 14.324 L1492.51 14.324 Z" fill="#000000" fill-rule="nonzero" fill-opacity="1"></path><path clip-path="url(#clip830)" d="M1517.66 27.2059 L1525.11 27.2059 L1525.11 72.576 L1517.66 72.576 L1517.66 27.2059 M1517.66 9.54393 L1525.11 9.54393 L1525.11 18.9825 L1517.66 18.9825 L1517.66 9.54393 Z" fill="#000000" fill-rule="nonzero" fill-opacity="1"></path><path clip-path="url(#clip830)" d="M1535.36 27.2059 L1543.26 27.2059 L1557.44 65.2844 L1571.62 27.2059 L1579.52 27.2059 L1562.5 72.576 L1552.38 72.576 L1535.36 27.2059 Z" fill="#000000" fill-rule="nonzero" fill-opacity="1"></path><path clip-path="url(#clip830)" d="M1628.62 48.0275 L1628.62 51.6733 L1594.34 51.6733 Q1594.83 59.3701 1598.96 63.421 Q1603.14 67.4314 1610.55 67.4314 Q1614.84 67.4314 1618.85 66.3781 Q1622.9 65.3249 1626.87 63.2184 L1626.87 70.267 Q1622.86 71.9684 1618.65 72.8596 Q1614.44 73.7508 1610.1 73.7508 Q1599.25 73.7508 1592.89 67.4314 Q1586.57 61.1119 1586.57 50.3365 Q1586.57 39.1965 1592.56 32.6746 Q1598.6 26.1121 1608.81 26.1121 Q1617.96 26.1121 1623.27 32.0264 Q1628.62 37.9003 1628.62 48.0275 M1621.16 45.84 Q1621.08 39.7232 1617.72 36.0774 Q1614.4 32.4315 1608.89 32.4315 Q1602.65 32.4315 1598.88 35.9558 Q1595.15 39.4801 1594.59 45.8805 L1621.16 45.84 Z" fill="#000000" fill-rule="nonzero" fill-opacity="1"></path><path clip-path="url(#clip830)" d="M1669.77 28.5427 L1669.77 35.5912 Q1666.61 33.9709 1663.21 33.1607 Q1659.81 32.3505 1656.16 32.3505 Q1650.61 32.3505 1647.82 34.0519 Q1645.06 35.7533 1645.06 39.156 Q1645.06 41.7486 1647.05 43.2475 Q1649.03 44.7058 1655.03 46.0426 L1657.58 46.6097 Q1665.52 48.3111 1668.84 51.4303 Q1672.2 54.509 1672.2 60.0587 Q1672.2 66.3781 1667.18 70.0644 Q1662.2 73.7508 1653.45 73.7508 Q1649.8 73.7508 1645.83 73.0216 Q1641.9 72.3329 1637.53 70.9151 L1637.53 63.2184 Q1641.66 65.3654 1645.67 66.4591 Q1649.68 67.5124 1653.61 67.5124 Q1658.88 67.5124 1661.71 65.73 Q1664.55 63.9071 1664.55 60.6258 Q1664.55 57.5877 1662.48 55.9673 Q1660.46 54.3469 1653.53 52.8481 L1650.94 52.2405 Q1644.01 50.7821 1640.93 47.7845 Q1637.85 44.7463 1637.85 39.4801 Q1637.85 33.0797 1642.39 29.5959 Q1646.93 26.1121 1655.27 26.1121 Q1659.4 26.1121 1663.05 26.7198 Q1666.69 27.3274 1669.77 28.5427 Z" fill="#000000" fill-rule="nonzero" fill-opacity="1"></path><path clip-path="url(#clip830)" d="M1720.04 9.17935 L1720.04 92.1419 L1713.16 92.1419 L1713.16 9.17935 L1720.04 9.17935 Z" fill="#000000" fill-rule="nonzero" fill-opacity="1"></path><path clip-path="url(#clip830)" d="M1772.87 65.6895 L1801.43 65.6895 L1801.43 72.576 L1763.02 72.576 L1763.02 65.6895 Q1767.68 60.8689 1775.7 52.7671 Q1783.77 44.6248 1785.83 42.2752 Q1789.76 37.8598 1791.3 34.8216 Q1792.88 31.7429 1792.88 28.7857 Q1792.88 23.9651 1789.48 20.927 Q1786.11 17.8888 1780.69 17.8888 Q1776.84 17.8888 1772.54 19.2256 Q1768.29 20.5624 1763.43 23.2765 L1763.43 15.0127 Q1768.37 13.0277 1772.67 12.015 Q1776.96 11.0023 1780.52 11.0023 Q1789.92 11.0023 1795.51 15.7013 Q1801.1 20.4004 1801.1 28.2591 Q1801.1 31.9859 1799.69 35.3482 Q1798.31 38.6699 1794.62 43.2069 Q1793.61 44.3817 1788.18 50.0125 Q1782.75 55.6027 1772.87 65.6895 Z" fill="#000000" fill-rule="nonzero" fill-opacity="1"></path><path clip-path="url(#clip830)" d="M1836.1 17.4837 Q1829.78 17.4837 1826.58 23.7221 Q1823.42 29.92 1823.42 42.3968 Q1823.42 54.833 1826.58 61.0714 Q1829.78 67.2693 1836.1 67.2693 Q1842.46 67.2693 1845.62 61.0714 Q1848.82 54.833 1848.82 42.3968 Q1848.82 29.92 1845.62 23.7221 Q1842.46 17.4837 1836.1 17.4837 M1836.1 11.0023 Q1846.27 11.0023 1851.62 19.0636 Q1857.01 27.0843 1857.01 42.3968 Q1857.01 57.6687 1851.62 65.73 Q1846.27 73.7508 1836.1 73.7508 Q1825.93 73.7508 1820.55 65.73 Q1815.2 57.6687 1815.2 42.3968 Q1815.2 27.0843 1820.55 19.0636 Q1825.93 11.0023 1836.1 11.0023 Z" fill="#000000" fill-rule="nonzero" fill-opacity="1"></path><path clip-path="url(#clip830)" d="M1904.08 14.324 L1904.08 27.2059 L1919.43 27.2059 L1919.43 32.9987 L1904.08 32.9987 L1904.08 57.6282 Q1904.08 63.1779 1905.58 64.7578 Q1907.12 66.3376 1911.77 66.3376 L1919.43 66.3376 L1919.43 72.576 L1911.77 72.576 Q1903.15 72.576 1899.86 69.3758 Q1896.58 66.1351 1896.58 57.6282 L1896.58 32.9987 L1891.11 32.9987 L1891.11 27.2059 L1896.58 27.2059 L1896.58 14.324 L1904.08 14.324 Z" fill="#000000" fill-rule="nonzero" fill-opacity="1"></path><path clip-path="url(#clip830)" d="M1955.52 34.1734 Q1954.27 33.4443 1952.77 33.1202 Q1951.31 32.7556 1949.53 32.7556 Q1943.21 32.7556 1939.81 36.8875 Q1936.44 40.9789 1936.44 48.6757 L1936.44 72.576 L1928.95 72.576 L1928.95 27.2059 L1936.44 27.2059 L1936.44 34.2544 Q1938.79 30.1225 1942.56 28.1376 Q1946.33 26.1121 1951.72 26.1121 Q1952.49 26.1121 1953.42 26.2337 Q1954.35 26.3147 1955.48 26.5172 L1955.52 34.1734 Z" fill="#000000" fill-rule="nonzero" fill-opacity="1"></path><path clip-path="url(#clip830)" d="M1963.34 27.2059 L1970.8 27.2059 L1970.8 72.576 L1963.34 72.576 L1963.34 27.2059 M1963.34 9.54393 L1970.8 9.54393 L1970.8 18.9825 L1963.34 18.9825 L1963.34 9.54393 Z" fill="#000000" fill-rule="nonzero" fill-opacity="1"></path><path clip-path="url(#clip830)" d="M2007.01 49.7694 Q1997.98 49.7694 1994.49 51.8354 Q1991.01 53.9013 1991.01 58.8839 Q1991.01 62.8538 1993.6 65.2034 Q1996.23 67.5124 2000.73 67.5124 Q2006.93 67.5124 2010.66 63.1374 Q2014.42 58.7219 2014.42 51.4303 L2014.42 49.7694 L2007.01 49.7694 M2021.88 46.6907 L2021.88 72.576 L2014.42 72.576 L2014.42 65.6895 Q2011.87 69.8214 2008.06 71.8063 Q2004.26 73.7508 1998.75 73.7508 Q1991.78 73.7508 1987.65 69.8619 Q1983.56 65.9325 1983.56 59.3701 Q1983.56 51.7138 1988.66 47.825 Q1993.8 43.9361 2003.97 43.9361 L2014.42 43.9361 L2014.42 43.2069 Q2014.42 38.0623 2011.02 35.2672 Q2007.66 32.4315 2001.54 32.4315 Q1997.65 32.4315 1993.97 33.3632 Q1990.28 34.295 1986.88 36.1584 L1986.88 29.2718 Q1990.97 27.692 1994.82 26.9223 Q1998.67 26.1121 2002.31 26.1121 Q2012.15 26.1121 2017.02 31.2163 Q2021.88 36.3204 2021.88 46.6907 Z" fill="#000000" fill-rule="nonzero" fill-opacity="1"></path><path clip-path="url(#clip830)" d="M2037.23 9.54393 L2044.68 9.54393 L2044.68 72.576 L2037.23 72.576 L2037.23 9.54393 Z" fill="#000000" fill-rule="nonzero" fill-opacity="1"></path><path clip-path="url(#clip830)" d="M2089.2 28.5427 L2089.2 35.5912 Q2086.04 33.9709 2082.64 33.1607 Q2079.24 32.3505 2075.59 32.3505 Q2070.04 32.3505 2067.25 34.0519 Q2064.49 35.7533 2064.49 39.156 Q2064.49 41.7486 2066.48 43.2475 Q2068.46 44.7058 2074.46 46.0426 L2077.01 46.6097 Q2084.95 48.3111 2088.27 51.4303 Q2091.63 54.509 2091.63 60.0587 Q2091.63 66.3781 2086.61 70.0644 Q2081.63 73.7508 2072.88 73.7508 Q2069.23 73.7508 2065.26 73.0216 Q2061.33 72.3329 2056.96 70.9151 L2056.96 63.2184 Q2061.09 65.3654 2065.1 66.4591 Q2069.11 67.5124 2073.04 67.5124 Q2078.31 67.5124 2081.14 65.73 Q2083.98 63.9071 2083.98 60.6258 Q2083.98 57.5877 2081.91 55.9673 Q2079.89 54.3469 2072.96 52.8481 L2070.37 52.2405 Q2063.44 50.7821 2060.36 47.7845 Q2057.28 44.7463 2057.28 39.4801 Q2057.28 33.0797 2061.82 29.5959 Q2066.36 26.1121 2074.7 26.1121 Q2078.83 26.1121 2082.48 26.7198 Q2086.12 27.3274 2089.2 28.5427 Z" fill="#000000" fill-rule="nonzero" fill-opacity="1"></path><polyline clip-path="url(#clip832)" style="stroke:#009af9; stroke-linecap:round; stroke-linejoin:round; stroke-width:8; stroke-opacity:1; fill:none" points="338.375,158.642 417.394,738.077 516.167,981.544 614.94,1186.5 713.713,1127.42 1306.35,1309.03 2294.08,1330.98 "></polyline>
<circle clip-path="url(#clip832)" cx="338.375" cy="158.642" r="14.4" fill="#009af9" fill-rule="evenodd" fill-opacity="1" stroke="#000000" stroke-opacity="1" stroke-width="3.2"></circle>
<circle clip-path="url(#clip832)" cx="417.394" cy="738.077" r="14.4" fill="#009af9" fill-rule="evenodd" fill-opacity="1" stroke="#000000" stroke-opacity="1" stroke-width="3.2"></circle>
<circle clip-path="url(#clip832)" cx="516.167" cy="981.544" r="14.4" fill="#009af9" fill-rule="evenodd" fill-opacity="1" stroke="#000000" stroke-opacity="1" stroke-width="3.2"></circle>
<circle clip-path="url(#clip832)" cx="614.94" cy="1186.5" r="14.4" fill="#009af9" fill-rule="evenodd" fill-opacity="1" stroke="#000000" stroke-opacity="1" stroke-width="3.2"></circle>
<circle clip-path="url(#clip832)" cx="713.713" cy="1127.42" r="14.4" fill="#009af9" fill-rule="evenodd" fill-opacity="1" stroke="#000000" stroke-opacity="1" stroke-width="3.2"></circle>
<circle clip-path="url(#clip832)" cx="1306.35" cy="1309.03" r="14.4" fill="#009af9" fill-rule="evenodd" fill-opacity="1" stroke="#000000" stroke-opacity="1" stroke-width="3.2"></circle>
<circle clip-path="url(#clip832)" cx="2294.08" cy="1330.98" r="14.4" fill="#009af9" fill-rule="evenodd" fill-opacity="1" stroke="#000000" stroke-opacity="1" stroke-width="3.2"></circle>
</svg>