<svg xmlns="http://www.w3.org/2000/svg" xmlns:xlink="http://www.w3.org/1999/xlink" width="600" height="400" viewBox="0 0 2400 1600">
<defs>
  <clipPath id="clip210">
    <rect x="0" y="0" width="2400" height="1600"></rect>
  </clipPath>
</defs>
<path clip-path="url(#clip210)" d="M0 1600 L2400 1600 L2400 8.88178e-14 L0 8.88178e-14  Z" fill="#ffffff" fill-rule="evenodd" fill-opacity="1"></path>
<defs>
  <clipPath id="clip211">
    <rect x="480" y="0" width="1681" height="1600"></rect>
  </clipPath>
</defs>
<path clip-path="url(#clip210)" d="M279.866 1366.15 L2352.76 1366.15 L2352.76 123.472 L279.866 123.472  Z" fill="#ffffff" fill-rule="evenodd" fill-opacity="1"></path>
<defs>
  <clipPath id="clip212">
    <rect x="279" y="123" width="2074" height="1244"></rect>
  </clipPath>
</defs>
<polyline clip-path="url(#clip212)" style="stroke:#000000; stroke-linecap:round; stroke-linejoin:round; stroke-width:2; stroke-opacity:0.1; fill:none" points="338.533,1366.15 338.533,123.472 "></polyline>
<polyline clip-path="url(#clip212)" style="stroke:#000000; stroke-linecap:round; stroke-linejoin:round; stroke-width:2; stroke-opacity:0.1; fill:none" points="417.545,1366.15 417.545,123.472 "></polyline>
<polyline clip-path="url(#clip212)" style="stroke:#000000; stroke-linecap:round; stroke-linejoin:round; stroke-width:2; stroke-opacity:0.1; fill:none" points="516.311,1366.15 516.311,123.472 "></polyline>
<polyline clip-path="url(#clip212)" style="stroke:#000000; stroke-linecap:round; stroke-linejoin:round; stroke-width:2; stroke-opacity:0.1; fill:none" points="615.076,1366.15 615.076,123.472 "></polyline>
<polyline clip-path="url(#clip212)" style="stroke:#000000; stroke-linecap:round; stroke-linejoin:round; stroke-width:2; stroke-opacity:0.1; fill:none" points="713.841,1366.15 713.841,123.472 "></polyline>
<polyline clip-path="url(#clip212)" style="stroke:#000000; stroke-linecap:round; stroke-linejoin:round; stroke-width:2; stroke-opacity:0.1; fill:none" points="1306.43,1366.15 1306.43,123.472 "></polyline>
<polyline clip-path="url(#clip212)" style="stroke:#000000; stroke-linecap:round; stroke-linejoin:round; stroke-width:2; stroke-opacity:0.1; fill:none" points="2294.09,1366.15 2294.09,123.472 "></polyline>
<polyline clip-path="url(#clip212)" style="stroke:#000000; stroke-linecap:round; stroke-linejoin:round; stroke-width:2; stroke-opacity:0.1; fill:none" points="279.866,1207.89 2352.76,1207.89 "></polyline>
<polyline clip-path="url(#clip212)" style="stroke:#000000; stroke-linecap:round; stroke-linejoin:round; stroke-width:2; stroke-opacity:0.1; fill:none" points="279.866,973.787 2352.76,973.787 "></polyline>
<polyline clip-path="url(#clip212)" style="stroke:#000000; stroke-linecap:round; stroke-linejoin:round; stroke-width:2; stroke-opacity:0.1; fill:none" points="279.866,739.687 2352.76,739.687 "></polyline>
<polyline clip-path="url(#clip212)" style="stroke:#000000; stroke-linecap:round; stroke-linejoin:round; stroke-width:2; stroke-opacity:0.1; fill:none" points="279.866,505.586 2352.76,505.586 "></polyline>
<polyline clip-path="url(#clip212)" style="stroke:#000000; stroke-linecap:round; stroke-linejoin:round; stroke-width:2; stroke-opacity:0.1; fill:none" points="279.866,271.485 2352.76,271.485 "></polyline>
<polyline clip-path="url(#clip210)" style="stroke:#000000; stroke-linecap:round; stroke-linejoin:round; stroke-width:4; stroke-opacity:1; fill:none" points="279.866,1366.15 2352.76,1366.15 "></polyline>
<polyline clip-path="url(#clip210)" style="stroke:#000000; stroke-linecap:round; stroke-linejoin:round; stroke-width:4; stroke-opacity:1; fill:none" points="338.533,1366.15 338.533,1347.25 "></polyline>
<polyline clip-path="url(#clip210)" style="stroke:#000000; stroke-linecap:round; stroke-linejoin:round; stroke-width:4; stroke-opacity:1; fill:none" points="417.545,1366.15 417.545,1347.25 "></polyline>
<polyline clip-path="url(#clip210)" style="stroke:#000000; stroke-linecap:round; stroke-linejoin:round; stroke-width:4; stroke-opacity:1; fill:none" points="516.311,1366.15 516.311,1347.25 "></polyline>
<polyline clip-path="url(#clip210)" style="stroke:#000000; stroke-linecap:round; stroke-linejoin:round; stroke-width:4; stroke-opacity:1; fill:none" points="615.076,1366.15 615.076,1347.25 "></polyline>
<polyline clip-path="url(#clip210)" style="stroke:#000000; stroke-linecap:round; stroke-linejoin:round; stroke-width:4; stroke-opacity:1; fill:none" points="713.841,1366.15 713.841,1347.25 "></polyline>
<polyline clip-path="url(#clip210)" style="stroke:#000000; stroke-linecap:round; stroke-linejoin:round; stroke-width:4; stroke-opacity:1; fill:none" points="1306.43,1366.15 1306.43,1347.25 "></polyline>
<polyline clip-path="url(#clip210)" style="stroke:#000000; stroke-linecap:round; stroke-linejoin:round; stroke-width:4; stroke-opacity:1; fill:none" points="2294.09,1366.15 2294.09,1347.25 "></polyline>
<path clip-path="url(#clip210)" d="M290.369 1470.71 L295.771 1465.31 L277.128 1446.67 L272.43 1453.72 L269.418 1450.71 L274.083 1443.69 L277.39 1440.38 L299.045 1462.04 L304.446 1456.64 L307.229 1459.42 L293.152 1473.5 L290.369 1470.71 Z" fill="#000000" fill-rule="nonzero" fill-opacity="1"></path><path clip-path="url(#clip210)" d="M298.717 1423.41 Q296.164 1425.96 297.391 1429.78 Q298.619 1433.56 303.66 1438.6 Q308.685 1443.62 312.483 1444.87 Q316.28 1446.08 318.834 1443.53 Q321.403 1440.96 320.176 1437.17 Q318.948 1433.36 313.923 1428.34 Q308.882 1423.29 305.084 1422.08 Q301.287 1420.84 298.717 1423.41 M296.098 1420.79 Q300.207 1416.68 305.625 1417.78 Q311.042 1418.84 317.23 1425.03 Q323.4 1431.2 324.481 1436.63 Q325.561 1442.04 321.453 1446.14 Q317.344 1450.25 311.926 1449.19 Q306.508 1448.09 300.338 1441.92 Q294.15 1435.73 293.07 1430.33 Q291.99 1424.9 296.098 1420.79 Z" fill="#000000" fill-rule="nonzero" fill-opacity="1"></path><path clip-path="url(#clip210)" d="M320.045 1402.08 Q317.491 1404.64 318.719 1408.45 Q319.947 1412.23 324.988 1417.27 Q330.013 1422.3 333.81 1423.54 Q337.608 1424.75 340.161 1422.2 Q342.731 1419.63 341.503 1415.85 Q340.276 1412.03 335.251 1407.01 Q330.209 1401.97 326.412 1400.76 Q322.615 1399.51 320.045 1402.08 M317.426 1399.46 Q321.534 1395.35 326.952 1396.45 Q332.37 1397.51 338.557 1403.7 Q344.728 1409.87 345.808 1415.31 Q346.889 1420.71 342.78 1424.82 Q338.672 1428.93 333.254 1427.86 Q327.836 1426.76 321.665 1420.59 Q315.478 1414.41 314.398 1409.01 Q313.318 1403.57 317.426 1399.46 Z" fill="#000000" fill-rule="nonzero" fill-opacity="1"></path><path clip-path="url(#clip210)" d="M347.187 1449.6 L360.167 1436.62 L362.949 1439.4 L352.997 1449.35 L358.988 1455.34 Q359.463 1454.38 360.068 1453.54 Q360.658 1452.69 361.378 1451.97 Q365.47 1447.88 370.102 1447.73 Q374.734 1447.58 378.564 1451.42 Q382.509 1455.36 382.247 1460.01 Q381.969 1464.64 377.5 1469.11 Q375.962 1470.65 374.096 1471.99 Q372.246 1473.32 370.02 1474.49 L366.697 1471.17 Q368.973 1470.5 370.937 1469.32 Q372.901 1468.14 374.652 1466.39 Q377.484 1463.56 377.648 1460.42 Q377.811 1457.27 375.258 1454.72 Q372.705 1452.17 369.562 1452.33 Q366.419 1452.5 363.588 1455.33 Q362.262 1456.65 361.23 1458.27 Q360.216 1459.88 359.463 1461.87 L347.187 1449.6 Z" fill="#000000" fill-rule="nonzero" fill-opacity="1"></path><path clip-path="url(#clip210)" d="M377.73 1423.41 Q375.176 1425.96 376.404 1429.78 Q377.631 1433.56 382.673 1438.6 Q387.698 1443.62 391.495 1444.87 Q395.293 1446.08 397.846 1443.53 Q400.416 1440.96 399.188 1437.17 Q397.961 1433.36 392.936 1428.34 Q387.894 1423.29 384.097 1422.08 Q380.299 1420.84 377.73 1423.41 M375.111 1420.79 Q379.219 1416.68 384.637 1417.78 Q390.055 1418.84 396.242 1425.03 Q402.413 1431.2 403.493 1436.63 Q404.573 1442.04 400.465 1446.14 Q396.356 1450.25 390.939 1449.19 Q385.521 1448.09 379.35 1441.92 Q373.163 1435.73 372.083 1430.33 Q371.002 1424.9 375.111 1420.79 Z" fill="#000000" fill-rule="nonzero" fill-opacity="1"></path><path clip-path="url(#clip210)" d="M399.057 1402.08 Q396.504 1404.64 397.731 1408.45 Q398.959 1412.23 404 1417.27 Q409.025 1422.3 412.823 1423.54 Q416.62 1424.75 419.174 1422.2 Q421.743 1419.63 420.516 1415.85 Q419.288 1412.03 414.263 1407.01 Q409.222 1401.97 405.424 1400.76 Q401.627 1399.51 399.057 1402.08 M396.438 1399.46 Q400.547 1395.35 405.965 1396.45 Q411.382 1397.51 417.57 1403.7 Q423.74 1409.87 424.821 1415.31 Q425.901 1420.71 421.793 1424.82 Q417.684 1428.93 412.266 1427.86 Q406.848 1426.76 400.678 1420.59 Q394.491 1414.41 393.41 1409.01 Q392.33 1403.57 396.438 1399.46 Z" fill="#000000" fill-rule="nonzero" fill-opacity="1"></path><path clip-path="url(#clip210)" d="M446.82 1492.04 L452.221 1486.64 L433.578 1468 L428.88 1475.05 L425.868 1472.04 L430.533 1465.02 L433.84 1461.71 L455.495 1483.37 L460.896 1477.96 L463.679 1480.75 L449.602 1494.82 L446.82 1492.04 Z" fill="#000000" fill-rule="nonzero" fill-opacity="1"></path><path clip-path="url(#clip210)" d="M455.167 1444.74 Q452.614 1447.29 453.842 1451.1 Q455.069 1454.89 460.111 1459.93 Q465.136 1464.95 468.933 1466.2 Q472.73 1467.41 475.284 1464.85 Q477.854 1462.28 476.626 1458.5 Q475.398 1454.69 470.373 1449.66 Q465.332 1444.62 461.535 1443.41 Q457.737 1442.17 455.167 1444.74 M452.548 1442.12 Q456.657 1438.01 462.075 1439.11 Q467.493 1440.17 473.68 1446.36 Q479.851 1452.53 480.931 1457.96 Q482.011 1463.36 477.903 1467.47 Q473.794 1471.58 468.376 1470.52 Q462.959 1469.42 456.788 1463.25 Q450.601 1457.06 449.52 1451.66 Q448.44 1446.23 452.548 1442.12 Z" fill="#000000" fill-rule="nonzero" fill-opacity="1"></path><path clip-path="url(#clip210)" d="M476.495 1423.41 Q473.942 1425.96 475.169 1429.78 Q476.397 1433.56 481.438 1438.6 Q486.463 1443.62 490.261 1444.87 Q494.058 1446.08 496.611 1443.53 Q499.181 1440.96 497.954 1437.17 Q496.726 1433.36 491.701 1428.34 Q486.66 1423.29 482.862 1422.08 Q479.065 1420.84 476.495 1423.41 M473.876 1420.79 Q477.985 1416.68 483.402 1417.78 Q488.82 1418.84 495.007 1425.03 Q501.178 1431.2 502.258 1436.63 Q503.339 1442.04 499.23 1446.14 Q495.122 1450.25 489.704 1449.19 Q484.286 1448.09 478.115 1441.92 Q471.928 1435.73 470.848 1430.33 Q469.768 1424.9 473.876 1420.79 Z" fill="#000000" fill-rule="nonzero" fill-opacity="1"></path><path clip-path="url(#clip210)" d="M497.823 1402.08 Q495.269 1404.64 496.497 1408.45 Q497.725 1412.23 502.766 1417.27 Q507.791 1422.3 511.588 1423.54 Q515.386 1424.75 517.939 1422.2 Q520.509 1419.63 519.281 1415.85 Q518.054 1412.03 513.029 1407.01 Q507.987 1401.97 504.19 1400.76 Q500.393 1399.51 497.823 1402.08 M495.204 1399.46 Q499.312 1395.35 504.73 1396.45 Q510.148 1397.51 516.335 1403.7 Q522.506 1409.87 523.586 1415.31 Q524.666 1420.71 520.558 1424.82 Q516.45 1428.93 511.032 1427.86 Q505.614 1426.76 499.443 1420.59 Q493.256 1414.41 492.176 1409.01 Q491.095 1403.57 495.204 1399.46 Z" fill="#000000" fill-rule="nonzero" fill-opacity="1"></path><path clip-path="url(#clip210)" d="M545.585 1492.04 L550.987 1486.64 L532.343 1468 L527.646 1475.05 L524.634 1472.04 L529.299 1465.02 L532.605 1461.71 L554.26 1483.37 L559.662 1477.96 L562.444 1480.75 L548.368 1494.82 L545.585 1492.04 Z" fill="#000000" fill-rule="nonzero" fill-opacity="1"></path><path clip-path="url(#clip210)" d="M544.718 1449.6 L557.698 1436.62 L560.48 1439.4 L550.528 1449.35 L556.519 1455.34 Q556.994 1454.38 557.599 1453.54 Q558.189 1452.69 558.909 1451.97 Q563.001 1447.88 567.633 1447.73 Q572.265 1447.58 576.095 1451.42 Q580.04 1455.36 579.778 1460.01 Q579.5 1464.64 575.031 1469.11 Q573.493 1470.65 571.627 1471.99 Q569.777 1473.32 567.551 1474.49 L564.228 1471.17 Q566.504 1470.5 568.468 1469.32 Q570.432 1468.14 572.183 1466.39 Q575.015 1463.56 575.179 1460.42 Q575.342 1457.27 572.789 1454.72 Q570.236 1452.17 567.093 1452.33 Q563.95 1452.5 561.118 1455.33 Q559.793 1456.65 558.761 1458.27 Q557.747 1459.88 556.994 1461.87 L544.718 1449.6 Z" fill="#000000" fill-rule="nonzero" fill-opacity="1"></path><path clip-path="url(#clip210)" d="M575.261 1423.41 Q572.707 1425.96 573.935 1429.78 Q575.162 1433.56 580.204 1438.6 Q585.229 1443.62 589.026 1444.87 Q592.824 1446.08 595.377 1443.53 Q597.947 1440.96 596.719 1437.17 Q595.492 1433.36 590.467 1428.34 Q585.425 1423.29 581.628 1422.08 Q577.83 1420.84 575.261 1423.41 M572.642 1420.79 Q576.75 1416.68 582.168 1417.78 Q587.586 1418.84 593.773 1425.03 Q599.944 1431.2 601.024 1436.63 Q602.104 1442.04 597.996 1446.14 Q593.887 1450.25 588.47 1449.19 Q583.052 1448.09 576.881 1441.92 Q570.694 1435.73 569.614 1430.33 Q568.533 1424.9 572.642 1420.79 Z" fill="#000000" fill-rule="nonzero" fill-opacity="1"></path><path clip-path="url(#clip210)" d="M596.588 1402.08 Q594.035 1404.64 595.262 1408.45 Q596.49 1412.23 601.531 1417.27 Q606.556 1422.3 610.354 1423.54 Q614.151 1424.75 616.705 1422.2 Q619.274 1419.63 618.047 1415.85 Q616.819 1412.03 611.794 1407.01 Q606.753 1401.97 602.955 1400.76 Q599.158 1399.51 596.588 1402.08 M593.969 1399.46 Q598.078 1395.35 603.496 1396.45 Q608.913 1397.51 615.101 1403.7 Q621.271 1409.87 622.352 1415.31 Q623.432 1420.71 619.324 1424.82 Q615.215 1428.93 609.797 1427.86 Q604.379 1426.76 598.209 1420.59 Q592.021 1414.41 590.941 1409.01 Q589.861 1403.57 593.969 1399.46 Z" fill="#000000" fill-rule="nonzero" fill-opacity="1"></path><path clip-path="url(#clip210)" d="M646.626 1489.77 L658.165 1478.23 L660.948 1481.01 L645.431 1496.53 L642.648 1493.74 Q642.583 1489.91 642.55 1483.4 Q642.517 1476.85 642.403 1475.07 Q642.206 1471.7 641.601 1469.85 Q640.995 1467.96 639.8 1466.77 Q637.852 1464.82 635.25 1464.97 Q632.664 1465.1 630.47 1467.29 Q628.915 1468.85 627.721 1471.12 Q626.542 1473.38 625.675 1476.44 L622.335 1473.1 Q623.53 1470.3 624.856 1468.16 Q626.182 1466.02 627.622 1464.58 Q631.42 1460.78 635.577 1460.42 Q639.735 1460.06 642.91 1463.23 Q644.416 1464.74 645.202 1466.67 Q645.987 1468.57 646.331 1471.89 Q646.397 1472.78 646.478 1477.24 Q646.544 1481.7 646.626 1489.77 Z" fill="#000000" fill-rule="nonzero" fill-opacity="1"></path><path clip-path="url(#clip210)" d="M652.698 1444.74 Q650.145 1447.29 651.373 1451.1 Q652.6 1454.89 657.642 1459.93 Q662.667 1464.95 666.464 1466.2 Q670.261 1467.41 672.815 1464.85 Q675.385 1462.28 674.157 1458.5 Q672.929 1454.69 667.904 1449.66 Q662.863 1444.62 659.066 1443.41 Q655.268 1442.17 652.698 1444.74 M650.079 1442.12 Q654.188 1438.01 659.606 1439.11 Q665.024 1440.17 671.211 1446.36 Q677.381 1452.53 678.462 1457.96 Q679.542 1463.36 675.434 1467.47 Q671.325 1471.58 665.907 1470.52 Q660.49 1469.42 654.319 1463.25 Q648.132 1457.06 647.051 1451.66 Q645.971 1446.23 650.079 1442.12 Z" fill="#000000" fill-rule="nonzero" fill-opacity="1"></path><path clip-path="url(#clip210)" d="M674.026 1423.41 Q671.473 1425.96 672.7 1429.78 Q673.928 1433.56 678.969 1438.6 Q683.994 1443.62 687.792 1444.87 Q691.589 1446.08 694.142 1443.53 Q696.712 1440.96 695.485 1437.17 Q694.257 1433.36 689.232 1428.34 Q684.191 1423.29 680.393 1422.08 Q676.596 1420.84 674.026 1423.41 M671.407 1420.79 Q675.516 1416.68 680.933 1417.78 Q686.351 1418.84 692.538 1425.03 Q698.709 1431.2 699.789 1436.63 Q700.87 1442.04 696.761 1446.14 Q692.653 1450.25 687.235 1449.19 Q681.817 1448.09 675.646 1441.92 Q669.459 1435.73 668.379 1430.33 Q667.299 1424.9 671.407 1420.79 Z" fill="#000000" fill-rule="nonzero" fill-opacity="1"></path><path clip-path="url(#clip210)" d="M695.354 1402.08 Q692.8 1404.64 694.028 1408.45 Q695.255 1412.23 700.297 1417.27 Q705.322 1422.3 709.119 1423.54 Q712.917 1424.75 715.47 1422.2 Q718.04 1419.63 716.812 1415.85 Q715.585 1412.03 710.56 1407.01 Q705.518 1401.97 701.721 1400.76 Q697.923 1399.51 695.354 1402.08 M692.735 1399.46 Q696.843 1395.35 702.261 1396.45 Q707.679 1397.51 713.866 1403.7 Q720.037 1409.87 721.117 1415.31 Q722.197 1420.71 718.089 1424.82 Q713.981 1428.93 708.563 1427.86 Q703.145 1426.76 696.974 1420.59 Q690.787 1414.41 689.707 1409.01 Q688.626 1403.57 692.735 1399.46 Z" fill="#000000" fill-rule="nonzero" fill-opacity="1"></path><path clip-path="url(#clip210)" d="M1214.75 1470.93 L1227.73 1457.95 L1230.51 1460.73 L1220.56 1470.68 L1226.55 1476.67 Q1227.02 1475.71 1227.63 1474.87 Q1228.22 1474.02 1228.94 1473.3 Q1233.03 1469.21 1237.66 1469.06 Q1242.3 1468.91 1246.13 1472.74 Q1250.07 1476.69 1249.81 1481.34 Q1249.53 1485.97 1245.06 1490.44 Q1243.52 1491.98 1241.66 1493.32 Q1239.81 1494.64 1237.58 1495.82 L1234.26 1492.5 Q1236.53 1491.83 1238.5 1490.65 Q1240.46 1489.47 1242.21 1487.72 Q1245.05 1484.89 1245.21 1481.75 Q1245.37 1478.6 1242.82 1476.05 Q1240.27 1473.5 1237.12 1473.66 Q1233.98 1473.82 1231.15 1476.65 Q1229.82 1477.98 1228.79 1479.6 Q1227.78 1481.21 1227.02 1483.2 L1214.75 1470.93 Z" fill="#000000" fill-rule="nonzero" fill-opacity="1"></path><path clip-path="url(#clip210)" d="M1245.29 1444.74 Q1242.74 1447.29 1243.97 1451.1 Q1245.19 1454.89 1250.23 1459.93 Q1255.26 1464.95 1259.06 1466.2 Q1262.85 1467.41 1265.41 1464.85 Q1267.98 1462.28 1266.75 1458.5 Q1265.52 1454.69 1260.5 1449.66 Q1255.46 1444.62 1251.66 1443.41 Q1247.86 1442.17 1245.29 1444.74 M1242.67 1442.12 Q1246.78 1438.01 1252.2 1439.11 Q1257.62 1440.17 1263.8 1446.36 Q1269.97 1452.53 1271.05 1457.96 Q1272.13 1463.36 1268.03 1467.47 Q1263.92 1471.58 1258.5 1470.52 Q1253.08 1469.42 1246.91 1463.25 Q1240.72 1457.06 1239.64 1451.66 Q1238.56 1446.23 1242.67 1442.12 Z" fill="#000000" fill-rule="nonzero" fill-opacity="1"></path><path clip-path="url(#clip210)" d="M1266.62 1423.41 Q1264.07 1425.96 1265.29 1429.78 Q1266.52 1433.56 1271.56 1438.6 Q1276.59 1443.62 1280.38 1444.87 Q1284.18 1446.08 1286.74 1443.53 Q1289.31 1440.96 1288.08 1437.17 Q1286.85 1433.36 1281.82 1428.34 Q1276.78 1423.29 1272.99 1422.08 Q1269.19 1420.84 1266.62 1423.41 M1264 1420.79 Q1268.11 1416.68 1273.53 1417.78 Q1278.94 1418.84 1285.13 1425.03 Q1291.3 1431.2 1292.38 1436.63 Q1293.46 1442.04 1289.35 1446.14 Q1285.25 1450.25 1279.83 1449.19 Q1274.41 1448.09 1268.24 1441.92 Q1262.05 1435.73 1260.97 1430.33 Q1259.89 1424.9 1264 1420.79 Z" fill="#000000" fill-rule="nonzero" fill-opacity="1"></path><path clip-path="url(#clip210)" d="M1287.95 1402.08 Q1285.39 1404.64 1286.62 1408.45 Q1287.85 1412.23 1292.89 1417.27 Q1297.91 1422.3 1301.71 1423.54 Q1305.51 1424.75 1308.06 1422.2 Q1310.63 1419.63 1309.41 1415.85 Q1308.18 1412.03 1303.15 1407.01 Q1298.11 1401.97 1294.31 1400.76 Q1290.52 1399.51 1287.95 1402.08 M1285.33 1399.46 Q1289.44 1395.35 1294.85 1396.45 Q1300.27 1397.51 1306.46 1403.7 Q1312.63 1409.87 1313.71 1415.31 Q1314.79 1420.71 1310.68 1424.82 Q1306.57 1428.93 1301.16 1427.86 Q1295.74 1426.76 1289.57 1420.59 Q1283.38 1414.41 1282.3 1409.01 Q1281.22 1403.57 1285.33 1399.46 Z" fill="#000000" fill-rule="nonzero" fill-opacity="1"></path><path clip-path="url(#clip210)" d="M2203.27 1513.37 L2208.67 1507.97 L2190.03 1489.32 L2185.33 1496.38 L2182.32 1493.37 L2186.98 1486.34 L2190.29 1483.04 L2211.95 1504.69 L2217.35 1499.29 L2220.13 1502.07 L2206.05 1516.15 L2203.27 1513.37 Z" fill="#000000" fill-rule="nonzero" fill-opacity="1"></path><path clip-path="url(#clip210)" d="M2211.62 1466.06 Q2209.06 1468.62 2210.29 1472.43 Q2211.52 1476.21 2216.56 1481.25 Q2221.59 1486.28 2225.38 1487.52 Q2229.18 1488.73 2231.73 1486.18 Q2234.3 1483.61 2233.08 1479.83 Q2231.85 1476.02 2226.82 1470.99 Q2221.78 1465.95 2217.99 1464.74 Q2214.19 1463.49 2211.62 1466.06 M2209 1463.45 Q2213.11 1459.34 2218.53 1460.43 Q2223.94 1461.5 2230.13 1467.69 Q2236.3 1473.86 2237.38 1479.29 Q2238.46 1484.69 2234.35 1488.8 Q2230.25 1492.91 2224.83 1491.84 Q2219.41 1490.75 2213.24 1484.58 Q2207.05 1478.39 2205.97 1472.99 Q2204.89 1467.55 2209 1463.45 Z" fill="#000000" fill-rule="nonzero" fill-opacity="1"></path><path clip-path="url(#clip210)" d="M2232.95 1444.74 Q2230.39 1447.29 2231.62 1451.1 Q2232.85 1454.89 2237.89 1459.93 Q2242.91 1464.95 2246.71 1466.2 Q2250.51 1467.41 2253.06 1464.85 Q2255.63 1462.28 2254.4 1458.5 Q2253.18 1454.69 2248.15 1449.66 Q2243.11 1444.62 2239.31 1443.41 Q2235.52 1442.17 2232.95 1444.74 M2230.33 1442.12 Q2234.44 1438.01 2239.85 1439.11 Q2245.27 1440.17 2251.46 1446.36 Q2257.63 1452.53 2258.71 1457.96 Q2259.79 1463.36 2255.68 1467.47 Q2251.57 1471.58 2246.16 1470.52 Q2240.74 1469.42 2234.57 1463.25 Q2228.38 1457.06 2227.3 1451.66 Q2226.22 1446.23 2230.33 1442.12 Z" fill="#000000" fill-rule="nonzero" fill-opacity="1"></path><path clip-path="url(#clip210)" d="M2254.27 1423.41 Q2251.72 1425.96 2252.95 1429.78 Q2254.18 1433.56 2259.22 1438.6 Q2264.24 1443.62 2268.04 1444.87 Q2271.84 1446.08 2274.39 1443.53 Q2276.96 1440.96 2275.73 1437.17 Q2274.5 1433.36 2269.48 1428.34 Q2264.44 1423.29 2260.64 1422.08 Q2256.84 1420.84 2254.27 1423.41 M2251.65 1420.79 Q2255.76 1416.68 2261.18 1417.78 Q2266.6 1418.84 2272.79 1425.03 Q2278.96 1431.2 2280.04 1436.63 Q2281.12 1442.04 2277.01 1446.14 Q2272.9 1450.25 2267.48 1449.19 Q2262.06 1448.09 2255.89 1441.92 Q2249.71 1435.73 2248.63 1430.33 Q2247.55 1424.9 2251.65 1420.79 Z" fill="#000000" fill-rule="nonzero" fill-opacity="1"></path><path clip-path="url(#clip210)" d="M2275.6 1402.08 Q2273.05 1404.64 2274.28 1408.45 Q2275.5 1412.23 2280.54 1417.27 Q2285.57 1422.3 2289.37 1423.54 Q2293.16 1424.75 2295.72 1422.2 Q2298.29 1419.63 2297.06 1415.85 Q2295.83 1412.03 2290.81 1407.01 Q2285.77 1401.97 2281.97 1400.76 Q2278.17 1399.51 2275.6 1402.08 M2272.98 1399.46 Q2277.09 1395.35 2282.51 1396.45 Q2287.93 1397.51 2294.11 1403.7 Q2300.28 1409.87 2301.36 1415.31 Q2302.45 1420.71 2298.34 1424.82 Q2294.23 1428.93 2288.81 1427.86 Q2283.39 1426.76 2277.22 1420.59 Q2271.03 1414.41 2269.95 1409.01 Q2268.87 1403.57 2272.98 1399.46 Z" fill="#000000" fill-rule="nonzero" fill-opacity="1"></path><path clip-path="url(#clip210)" d="M1011.17 1549.04 L1019.83 1549.04 L1040.9 1588.79 L1040.9 1549.04 L1047.14 1549.04 L1047.14 1596.56 L1038.48 1596.56 L1017.41 1556.81 L1017.41 1596.56 L1011.17 1596.56 L1011.17 1549.04 Z" fill="#000000" fill-rule="nonzero" fill-opacity="1"></path><path clip-path="url(#clip210)" d="M1059.07 1582.49 L1059.07 1560.91 L1064.93 1560.91 L1064.93 1582.27 Q1064.93 1587.33 1066.9 1589.88 Q1068.88 1592.39 1072.82 1592.39 Q1077.57 1592.39 1080.3 1589.37 Q1083.07 1586.34 1083.07 1581.12 L1083.07 1560.91 L1088.93 1560.91 L1088.93 1596.56 L1083.07 1596.56 L1083.07 1591.08 Q1080.94 1594.33 1078.11 1595.92 Q1075.31 1597.48 1071.58 1597.48 Q1065.44 1597.48 1062.26 1593.66 Q1059.07 1589.84 1059.07 1582.49 M1073.81 1560.05 L1073.81 1560.05 Z" fill="#000000" fill-rule="nonzero" fill-opacity="1"></path><path clip-path="url(#clip210)" d="M1128.75 1567.75 Q1130.94 1563.81 1134 1561.93 Q1137.05 1560.05 1141.19 1560.05 Q1146.76 1560.05 1149.78 1563.97 Q1152.81 1567.85 1152.81 1575.04 L1152.81 1596.56 L1146.92 1596.56 L1146.92 1575.23 Q1146.92 1570.11 1145.11 1567.63 Q1143.29 1565.14 1139.57 1565.14 Q1135.02 1565.14 1132.37 1568.17 Q1129.73 1571.19 1129.73 1576.41 L1129.73 1596.56 L1123.84 1596.56 L1123.84 1575.23 Q1123.84 1570.08 1122.03 1567.63 Q1120.22 1565.14 1116.43 1565.14 Q1111.94 1565.14 1109.3 1568.2 Q1106.66 1571.22 1106.66 1576.41 L1106.66 1596.56 L1100.77 1596.56 L1100.77 1560.91 L1106.66 1560.91 L1106.66 1566.45 Q1108.66 1563.17 1111.46 1561.61 Q1114.26 1560.05 1118.11 1560.05 Q1122 1560.05 1124.7 1562.03 Q1127.44 1564 1128.75 1567.75 Z" fill="#000000" fill-rule="nonzero" fill-opacity="1"></path><path clip-path="url(#clip210)" d="M1190.08 1578.77 Q1190.08 1572.31 1187.41 1568.65 Q1184.76 1564.95 1180.12 1564.95 Q1175.47 1564.95 1172.8 1568.65 Q1170.15 1572.31 1170.15 1578.77 Q1170.15 1585.23 1172.8 1588.92 Q1175.47 1592.58 1180.12 1592.58 Q1184.76 1592.58 1187.41 1588.92 Q1190.08 1585.23 1190.08 1578.77 M1170.15 1566.32 Q1172 1563.14 1174.8 1561.61 Q1177.63 1560.05 1181.55 1560.05 Q1188.04 1560.05 1192.08 1565.21 Q1196.16 1570.36 1196.16 1578.77 Q1196.16 1587.17 1192.08 1592.33 Q1188.04 1597.48 1181.55 1597.48 Q1177.63 1597.48 1174.8 1595.95 Q1172 1594.39 1170.15 1591.21 L1170.15 1596.56 L1164.27 1596.56 L1164.27 1547.03 L1170.15 1547.03 L1170.15 1566.32 Z" fill="#000000" fill-rule="nonzero" fill-opacity="1"></path><path clip-path="url(#clip210)" d="M1236.36 1577.27 L1236.36 1580.14 L1209.43 1580.14 Q1209.81 1586.18 1213.06 1589.37 Q1216.34 1592.52 1222.16 1592.52 Q1225.54 1592.52 1228.69 1591.69 Q1231.87 1590.86 1234.99 1589.21 L1234.99 1594.74 Q1231.84 1596.08 1228.53 1596.78 Q1225.22 1597.48 1221.81 1597.48 Q1213.28 1597.48 1208.28 1592.52 Q1203.32 1587.55 1203.32 1579.09 Q1203.32 1570.33 1208.03 1565.21 Q1212.77 1560.05 1220.79 1560.05 Q1227.99 1560.05 1232.16 1564.7 Q1236.36 1569.31 1236.36 1577.27 M1230.5 1575.55 Q1230.44 1570.75 1227.8 1567.88 Q1225.19 1565.02 1220.86 1565.02 Q1215.96 1565.02 1213 1567.79 Q1210.07 1570.56 1209.62 1575.58 L1230.5 1575.55 Z" fill="#000000" fill-rule="nonzero" fill-opacity="1"></path><path clip-path="url(#clip210)" d="M1266.63 1566.39 Q1265.64 1565.81 1264.46 1565.56 Q1263.32 1565.27 1261.92 1565.27 Q1256.95 1565.27 1254.28 1568.52 Q1251.64 1571.73 1251.64 1577.78 L1251.64 1596.56 L1245.75 1596.56 L1245.75 1560.91 L1251.64 1560.91 L1251.64 1566.45 Q1253.48 1563.2 1256.44 1561.64 Q1259.4 1560.05 1263.63 1560.05 Q1264.24 1560.05 1264.97 1560.15 Q1265.7 1560.21 1266.59 1560.37 L1266.63 1566.39 Z" fill="#000000" fill-rule="nonzero" fill-opacity="1"></path><path clip-path="url(#clip210)" d="M1307.3 1565.02 Q1302.59 1565.02 1299.86 1568.71 Q1297.12 1572.37 1297.12 1578.77 Q1297.12 1585.16 1299.82 1588.86 Q1302.56 1592.52 1307.3 1592.52 Q1311.98 1592.52 1314.72 1588.82 Q1317.46 1585.13 1317.46 1578.77 Q1317.46 1572.43 1314.72 1568.74 Q1311.98 1565.02 1307.3 1565.02 M1307.3 1560.05 Q1314.94 1560.05 1319.3 1565.02 Q1323.66 1569.98 1323.66 1578.77 Q1323.66 1587.52 1319.3 1592.52 Q1314.94 1597.48 1307.3 1597.48 Q1299.63 1597.48 1295.27 1592.52 Q1290.94 1587.52 1290.94 1578.77 Q1290.94 1569.98 1295.27 1565.02 Q1299.63 1560.05 1307.3 1560.05 Z" fill="#000000" fill-rule="nonzero" fill-opacity="1"></path><path clip-path="url(#clip210)" d="M1351.42 1547.03 L1351.42 1551.9 L1345.82 1551.9 Q1342.66 1551.9 1341.42 1553.18 Q1340.21 1554.45 1340.21 1557.76 L1340.21 1560.91 L1349.86 1560.91 L1349.86 1565.46 L1340.21 1565.46 L1340.21 1596.56 L1334.33 1596.56 L1334.33 1565.46 L1328.72 1565.46 L1328.72 1560.91 L1334.33 1560.91 L1334.33 1558.43 Q1334.33 1552.48 1337.09 1549.77 Q1339.86 1547.03 1345.88 1547.03 L1351.42 1547.03 Z" fill="#000000" fill-rule="nonzero" fill-opacity="1"></path><path clip-path="url(#clip210)" d="M1373.63 1560.91 L1379.49 1560.91 L1386.81 1588.73 L1394.1 1560.91 L1401.01 1560.91 L1408.33 1588.73 L1415.62 1560.91 L1421.47 1560.91 L1412.15 1596.56 L1405.24 1596.56 L1397.57 1567.34 L1389.87 1596.56 L1382.96 1596.56 L1373.63 1560.91 Z" fill="#000000" fill-rule="nonzero" fill-opacity="1"></path><path clip-path="url(#clip210)" d="M1460.84 1577.27 L1460.84 1580.14 L1433.92 1580.14 Q1434.3 1586.18 1437.55 1589.37 Q1440.82 1592.52 1446.65 1592.52 Q1450.02 1592.52 1453.17 1591.69 Q1456.36 1590.86 1459.48 1589.21 L1459.48 1594.74 Q1456.32 1596.08 1453.01 1596.78 Q1449.7 1597.48 1446.3 1597.48 Q1437.77 1597.48 1432.77 1592.52 Q1427.81 1587.55 1427.81 1579.09 Q1427.81 1570.33 1432.52 1565.21 Q1437.26 1560.05 1445.28 1560.05 Q1452.47 1560.05 1456.64 1564.7 Q1460.84 1569.31 1460.84 1577.27 M1454.99 1575.55 Q1454.92 1570.75 1452.28 1567.88 Q1449.67 1565.02 1445.34 1565.02 Q1440.44 1565.02 1437.48 1567.79 Q1434.55 1570.56 1434.11 1575.58 L1454.99 1575.55 Z" fill="#000000" fill-rule="nonzero" fill-opacity="1"></path><path clip-path="url(#clip210)" d="M1470.46 1560.91 L1476.31 1560.91 L1476.31 1596.56 L1470.46 1596.56 L1470.46 1560.91 M1470.46 1547.03 L1476.31 1547.03 L1476.31 1554.45 L1470.46 1554.45 L1470.46 1547.03 Z" fill="#000000" fill-rule="nonzero" fill-opacity="1"></path><path clip-path="url(#clip210)" d="M1512.02 1578.32 Q1512.02 1571.96 1509.38 1568.45 Q1506.77 1564.95 1502.03 1564.95 Q1497.32 1564.95 1494.68 1568.45 Q1492.07 1571.96 1492.07 1578.32 Q1492.07 1584.66 1494.68 1588.16 Q1497.32 1591.66 1502.03 1591.66 Q1506.77 1591.66 1509.38 1588.16 Q1512.02 1584.66 1512.02 1578.32 M1517.88 1592.13 Q1517.88 1601.24 1513.84 1605.66 Q1509.8 1610.12 1501.46 1610.12 Q1498.37 1610.12 1495.63 1609.64 Q1492.9 1609.2 1490.32 1608.24 L1490.32 1602.54 Q1492.9 1603.94 1495.41 1604.61 Q1497.92 1605.28 1500.53 1605.28 Q1506.3 1605.28 1509.16 1602.26 Q1512.02 1599.26 1512.02 1593.19 L1512.02 1590.29 Q1510.21 1593.44 1507.38 1595 Q1504.54 1596.56 1500.6 1596.56 Q1494.04 1596.56 1490.03 1591.56 Q1486.02 1586.56 1486.02 1578.32 Q1486.02 1570.05 1490.03 1565.05 Q1494.04 1560.05 1500.6 1560.05 Q1504.54 1560.05 1507.38 1561.61 Q1510.21 1563.17 1512.02 1566.32 L1512.02 1560.91 L1517.88 1560.91 L1517.88 1592.13 Z" fill="#000000" fill-rule="nonzero" fill-opacity="1"></path><path clip-path="url(#clip210)" d="M1559.58 1575.04 L1559.58 1596.56 L1553.72 1596.56 L1553.72 1575.23 Q1553.72 1570.17 1551.75 1567.66 Q1549.77 1565.14 1545.83 1565.14 Q1541.08 1565.14 1538.35 1568.17 Q1535.61 1571.19 1535.61 1576.41 L1535.61 1596.56 L1529.72 1596.56 L1529.72 1547.03 L1535.61 1547.03 L1535.61 1566.45 Q1537.71 1563.23 1540.54 1561.64 Q1543.41 1560.05 1547.13 1560.05 Q1553.27 1560.05 1556.43 1563.87 Q1559.58 1567.66 1559.58 1575.04 Z" fill="#000000" fill-rule="nonzero" fill-opacity="1"></path><path clip-path="url(#clip210)" d="M1577.05 1550.79 L1577.05 1560.91 L1589.11 1560.91 L1589.11 1565.46 L1577.05 1565.46 L1577.05 1584.81 Q1577.05 1589.17 1578.23 1590.42 Q1579.44 1591.66 1583.1 1591.66 L1589.11 1591.66 L1589.11 1596.56 L1583.1 1596.56 Q1576.32 1596.56 1573.74 1594.04 Q1571.16 1591.5 1571.16 1584.81 L1571.16 1565.46 L1566.87 1565.46 L1566.87 1560.91 L1571.16 1560.91 L1571.16 1550.79 L1577.05 1550.79 Z" fill="#000000" fill-rule="nonzero" fill-opacity="1"></path><path clip-path="url(#clip210)" d="M1619.54 1561.96 L1619.54 1567.5 Q1617.06 1566.23 1614.39 1565.59 Q1611.71 1564.95 1608.85 1564.95 Q1604.49 1564.95 1602.29 1566.29 Q1600.13 1567.63 1600.13 1570.3 Q1600.13 1572.34 1601.69 1573.52 Q1603.25 1574.66 1607.96 1575.71 L1609.96 1576.16 Q1616.2 1577.49 1618.81 1579.94 Q1621.45 1582.36 1621.45 1586.72 Q1621.45 1591.69 1617.5 1594.59 Q1613.59 1597.48 1606.71 1597.48 Q1603.85 1597.48 1600.73 1596.91 Q1597.64 1596.37 1594.21 1595.25 L1594.21 1589.21 Q1597.45 1590.89 1600.6 1591.75 Q1603.75 1592.58 1606.84 1592.58 Q1610.98 1592.58 1613.21 1591.18 Q1615.44 1589.75 1615.44 1587.17 Q1615.44 1584.78 1613.81 1583.51 Q1612.22 1582.24 1606.78 1581.06 L1604.74 1580.58 Q1599.3 1579.44 1596.88 1577.08 Q1594.46 1574.69 1594.46 1570.56 Q1594.46 1565.53 1598.03 1562.79 Q1601.59 1560.05 1608.15 1560.05 Q1611.39 1560.05 1614.26 1560.53 Q1617.12 1561.01 1619.54 1561.96 Z" fill="#000000" fill-rule="nonzero" fill-opacity="1"></path><polyline clip-path="url(#clip210)" style="stroke:#000000; stroke-linecap:round; stroke-linejoin:round; stroke-width:4; stroke-opacity:1; fill:none" points="279.866,1366.15 279.866,123.472 "></polyline>
<polyline clip-path="url(#clip210)" style="stroke:#000000; stroke-linecap:round; stroke-linejoin:round; stroke-width:4; stroke-opacity:1; fill:none" points="279.866,1207.89 298.764,1207.89 "></polyline>
<polyline clip-path="url(#clip210)" style="stroke:#000000; stroke-linecap:round; stroke-linejoin:round; stroke-width:4; stroke-opacity:1; fill:none" points="279.866,973.787 298.764,973.787 "></polyline>
<polyline clip-path="url(#clip210)" style="stroke:#000000; stroke-linecap:round; stroke-linejoin:round; stroke-width:4; stroke-opacity:1; fill:none" points="279.866,739.687 298.764,739.687 "></polyline>
<polyline clip-path="url(#clip210)" style="stroke:#000000; stroke-linecap:round; stroke-linejoin:round; stroke-width:4; stroke-opacity:1; fill:none" points="279.866,505.586 298.764,505.586 "></polyline>
<polyline clip-path="url(#clip210)" style="stroke:#000000; stroke-linecap:round; stroke-linejoin:round; stroke-width:4; stroke-opacity:1; fill:none" points="279.866,271.485 298.764,271.485 "></polyline>
<path clip-path="url(#clip210)" d="M127.015 1193.69 Q123.404 1193.69 121.575 1197.25 Q119.769 1200.79 119.769 1207.92 Q119.769 1215.03 121.575 1218.59 Q123.404 1222.14 127.015 1222.14 Q130.649 1222.14 132.455 1218.59 Q134.283 1215.03 134.283 1207.92 Q134.283 1200.79 132.455 1197.25 Q130.649 1193.69 127.015 1193.69 M127.015 1189.98 Q132.825 1189.98 135.88 1194.59 Q138.959 1199.17 138.959 1207.92 Q138.959 1216.65 135.88 1221.26 Q132.825 1225.84 127.015 1225.84 Q121.205 1225.84 118.126 1221.26 Q115.07 1216.65 115.07 1207.92 Q115.07 1199.17 118.126 1194.59 Q121.205 1189.98 127.015 1189.98 Z" fill="#000000" fill-rule="nonzero" fill-opacity="1"></path><path clip-path="url(#clip210)" d="M147.177 1219.29 L152.061 1219.29 L152.061 1225.17 L147.177 1225.17 L147.177 1219.29 Z" fill="#000000" fill-rule="nonzero" fill-opacity="1"></path><path clip-path="url(#clip210)" d="M172.246 1193.69 Q168.635 1193.69 166.806 1197.25 Q165.001 1200.79 165.001 1207.92 Q165.001 1215.03 166.806 1218.59 Q168.635 1222.14 172.246 1222.14 Q175.88 1222.14 177.686 1218.59 Q179.514 1215.03 179.514 1207.92 Q179.514 1200.79 177.686 1197.25 Q175.88 1193.69 172.246 1193.69 M172.246 1189.98 Q178.056 1189.98 181.112 1194.59 Q184.19 1199.17 184.19 1207.92 Q184.19 1216.65 181.112 1221.26 Q178.056 1225.84 172.246 1225.84 Q166.436 1225.84 163.357 1221.26 Q160.302 1216.65 160.302 1207.92 Q160.302 1199.17 163.357 1194.59 Q166.436 1189.98 172.246 1189.98 Z" fill="#000000" fill-rule="nonzero" fill-opacity="1"></path><path clip-path="url(#clip210)" d="M202.408 1193.69 Q198.797 1193.69 196.968 1197.25 Q195.163 1200.79 195.163 1207.92 Q195.163 1215.03 196.968 1218.59 Q198.797 1222.14 202.408 1222.14 Q206.042 1222.14 207.848 1218.59 Q209.676 1215.03 209.676 1207.92 Q209.676 1200.79 207.848 1197.25 Q206.042 1193.69 202.408 1193.69 M202.408 1189.98 Q208.218 1189.98 211.274 1194.59 Q214.352 1199.17 214.352 1207.92 Q214.352 1216.65 211.274 1221.26 Q208.218 1225.84 202.408 1225.84 Q196.598 1225.84 193.519 1221.26 Q190.463 1216.65 190.463 1207.92 Q190.463 1199.17 193.519 1194.59 Q196.598 1189.98 202.408 1189.98 Z" fill="#000000" fill-rule="nonzero" fill-opacity="1"></path><path clip-path="url(#clip210)" d="M236.736 1206.53 Q240.093 1207.25 241.968 1209.52 Q243.866 1211.79 243.866 1215.12 Q243.866 1220.24 240.347 1223.04 Q236.829 1225.84 230.347 1225.84 Q228.172 1225.84 225.857 1225.4 Q223.565 1224.98 221.111 1224.13 L221.111 1219.61 Q223.056 1220.75 225.371 1221.33 Q227.685 1221.9 230.209 1221.9 Q234.607 1221.9 236.898 1220.17 Q239.213 1218.43 239.213 1215.12 Q239.213 1212.07 237.06 1210.35 Q234.931 1208.62 231.111 1208.62 L227.084 1208.62 L227.084 1204.77 L231.297 1204.77 Q234.746 1204.77 236.574 1203.41 Q238.403 1202.02 238.403 1199.43 Q238.403 1196.77 236.505 1195.35 Q234.63 1193.92 231.111 1193.92 Q229.19 1193.92 226.991 1194.33 Q224.792 1194.75 222.153 1195.63 L222.153 1191.46 Q224.815 1190.72 227.13 1190.35 Q229.468 1189.98 231.528 1189.98 Q236.852 1189.98 239.954 1192.41 Q243.056 1194.82 243.056 1198.94 Q243.056 1201.81 241.412 1203.8 Q239.769 1205.77 236.736 1206.53 Z" fill="#000000" fill-rule="nonzero" fill-opacity="1"></path><path clip-path="url(#clip210)" d="M126.205 959.586 Q122.593 959.586 120.765 963.151 Q118.959 966.692 118.959 973.822 Q118.959 980.928 120.765 984.493 Q122.593 988.035 126.205 988.035 Q129.839 988.035 131.644 984.493 Q133.473 980.928 133.473 973.822 Q133.473 966.692 131.644 963.151 Q129.839 959.586 126.205 959.586 M126.205 955.882 Q132.015 955.882 135.07 960.489 Q138.149 965.072 138.149 973.822 Q138.149 982.549 135.07 987.155 Q132.015 991.739 126.205 991.739 Q120.394 991.739 117.316 987.155 Q114.26 982.549 114.26 973.822 Q114.26 965.072 117.316 960.489 Q120.394 955.882 126.205 955.882 Z" fill="#000000" fill-rule="nonzero" fill-opacity="1"></path><path clip-path="url(#clip210)" d="M146.366 985.188 L151.251 985.188 L151.251 991.067 L146.366 991.067 L146.366 985.188 Z" fill="#000000" fill-rule="nonzero" fill-opacity="1"></path><path clip-path="url(#clip210)" d="M171.436 959.586 Q167.825 959.586 165.996 963.151 Q164.19 966.692 164.19 973.822 Q164.19 980.928 165.996 984.493 Q167.825 988.035 171.436 988.035 Q175.07 988.035 176.876 984.493 Q178.704 980.928 178.704 973.822 Q178.704 966.692 176.876 963.151 Q175.07 959.586 171.436 959.586 M171.436 955.882 Q177.246 955.882 180.301 960.489 Q183.38 965.072 183.38 973.822 Q183.38 982.549 180.301 987.155 Q177.246 991.739 171.436 991.739 Q165.626 991.739 162.547 987.155 Q159.491 982.549 159.491 973.822 Q159.491 965.072 162.547 960.489 Q165.626 955.882 171.436 955.882 Z" fill="#000000" fill-rule="nonzero" fill-opacity="1"></path><path clip-path="url(#clip210)" d="M201.598 959.586 Q197.987 959.586 196.158 963.151 Q194.352 966.692 194.352 973.822 Q194.352 980.928 196.158 984.493 Q197.987 988.035 201.598 988.035 Q205.232 988.035 207.037 984.493 Q208.866 980.928 208.866 973.822 Q208.866 966.692 207.037 963.151 Q205.232 959.586 201.598 959.586 M201.598 955.882 Q207.408 955.882 210.463 960.489 Q213.542 965.072 213.542 973.822 Q213.542 982.549 210.463 987.155 Q207.408 991.739 201.598 991.739 Q195.787 991.739 192.709 987.155 Q189.653 982.549 189.653 973.822 Q189.653 965.072 192.709 960.489 Q195.787 955.882 201.598 955.882 Z" fill="#000000" fill-rule="nonzero" fill-opacity="1"></path><path clip-path="url(#clip210)" d="M232.338 971.924 Q229.19 971.924 227.338 974.077 Q225.51 976.229 225.51 979.979 Q225.51 983.706 227.338 985.882 Q229.19 988.035 232.338 988.035 Q235.486 988.035 237.315 985.882 Q239.167 983.706 239.167 979.979 Q239.167 976.229 237.315 974.077 Q235.486 971.924 232.338 971.924 M241.621 957.271 L241.621 961.53 Q239.861 960.697 238.056 960.257 Q236.273 959.817 234.514 959.817 Q229.885 959.817 227.431 962.942 Q225 966.067 224.653 972.387 Q226.019 970.373 228.079 969.308 Q230.139 968.22 232.616 968.22 Q237.824 968.22 240.834 971.392 Q243.866 974.54 243.866 979.979 Q243.866 985.303 240.718 988.521 Q237.57 991.739 232.338 991.739 Q226.343 991.739 223.172 987.155 Q220 982.549 220 973.822 Q220 965.628 223.889 960.767 Q227.778 955.882 234.329 955.882 Q236.088 955.882 237.871 956.23 Q239.676 956.577 241.621 957.271 Z" fill="#000000" fill-rule="nonzero" fill-opacity="1"></path><path clip-path="url(#clip210)" d="M126.552 725.485 Q122.941 725.485 121.112 729.05 Q119.306 732.592 119.306 739.721 Q119.306 746.828 121.112 750.393 Q122.941 753.934 126.552 753.934 Q130.186 753.934 131.992 750.393 Q133.82 746.828 133.82 739.721 Q133.82 732.592 131.992 729.05 Q130.186 725.485 126.552 725.485 M126.552 721.782 Q132.362 721.782 135.417 726.388 Q138.496 730.971 138.496 739.721 Q138.496 748.448 135.417 753.055 Q132.362 757.638 126.552 757.638 Q120.742 757.638 117.663 753.055 Q114.607 748.448 114.607 739.721 Q114.607 730.971 117.663 726.388 Q120.742 721.782 126.552 721.782 Z" fill="#000000" fill-rule="nonzero" fill-opacity="1"></path><path clip-path="url(#clip210)" d="M146.714 751.087 L151.598 751.087 L151.598 756.967 L146.714 756.967 L146.714 751.087 Z" fill="#000000" fill-rule="nonzero" fill-opacity="1"></path><path clip-path="url(#clip210)" d="M171.783 725.485 Q168.172 725.485 166.343 729.05 Q164.538 732.592 164.538 739.721 Q164.538 746.828 166.343 750.393 Q168.172 753.934 171.783 753.934 Q175.417 753.934 177.223 750.393 Q179.051 746.828 179.051 739.721 Q179.051 732.592 177.223 729.05 Q175.417 725.485 171.783 725.485 M171.783 721.782 Q177.593 721.782 180.649 726.388 Q183.727 730.971 183.727 739.721 Q183.727 748.448 180.649 753.055 Q177.593 757.638 171.783 757.638 Q165.973 757.638 162.894 753.055 Q159.839 748.448 159.839 739.721 Q159.839 730.971 162.894 726.388 Q165.973 721.782 171.783 721.782 Z" fill="#000000" fill-rule="nonzero" fill-opacity="1"></path><path clip-path="url(#clip210)" d="M201.945 725.485 Q198.334 725.485 196.505 729.05 Q194.7 732.592 194.7 739.721 Q194.7 746.828 196.505 750.393 Q198.334 753.934 201.945 753.934 Q205.579 753.934 207.385 750.393 Q209.213 746.828 209.213 739.721 Q209.213 732.592 207.385 729.05 Q205.579 725.485 201.945 725.485 M201.945 721.782 Q207.755 721.782 210.811 726.388 Q213.889 730.971 213.889 739.721 Q213.889 748.448 210.811 753.055 Q207.755 757.638 201.945 757.638 Q196.135 757.638 193.056 753.055 Q190 748.448 190 739.721 Q190 730.971 193.056 726.388 Q196.135 721.782 201.945 721.782 Z" fill="#000000" fill-rule="nonzero" fill-opacity="1"></path><path clip-path="url(#clip210)" d="M222.246 756.249 L222.246 751.99 Q224.005 752.823 225.81 753.263 Q227.616 753.703 229.352 753.703 Q233.982 753.703 236.412 750.601 Q238.866 747.476 239.213 741.133 Q237.871 743.124 235.81 744.189 Q233.75 745.254 231.25 745.254 Q226.065 745.254 223.033 742.129 Q220.023 738.981 220.023 733.541 Q220.023 728.217 223.172 724.999 Q226.32 721.782 231.551 721.782 Q237.547 721.782 240.695 726.388 Q243.866 730.971 243.866 739.721 Q243.866 747.893 239.977 752.777 Q236.111 757.638 229.56 757.638 Q227.801 757.638 225.996 757.291 Q224.19 756.944 222.246 756.249 M231.551 741.596 Q234.699 741.596 236.528 739.444 Q238.38 737.291 238.38 733.541 Q238.38 729.814 236.528 727.661 Q234.699 725.485 231.551 725.485 Q228.403 725.485 226.551 727.661 Q224.723 729.814 224.723 733.541 Q224.723 737.291 226.551 739.444 Q228.403 741.596 231.551 741.596 Z" fill="#000000" fill-rule="nonzero" fill-opacity="1"></path><path clip-path="url(#clip210)" d="M127.964 491.385 Q124.353 491.385 122.524 494.95 Q120.718 498.491 120.718 505.621 Q120.718 512.727 122.524 516.292 Q124.353 519.834 127.964 519.834 Q131.598 519.834 133.404 516.292 Q135.232 512.727 135.232 505.621 Q135.232 498.491 133.404 494.95 Q131.598 491.385 127.964 491.385 M127.964 487.681 Q133.774 487.681 136.829 492.288 Q139.908 496.871 139.908 505.621 Q139.908 514.348 136.829 518.954 Q133.774 523.537 127.964 523.537 Q122.154 523.537 119.075 518.954 Q116.019 514.348 116.019 505.621 Q116.019 496.871 119.075 492.288 Q122.154 487.681 127.964 487.681 Z" fill="#000000" fill-rule="nonzero" fill-opacity="1"></path><path clip-path="url(#clip210)" d="M148.126 516.986 L153.01 516.986 L153.01 522.866 L148.126 522.866 L148.126 516.986 Z" fill="#000000" fill-rule="nonzero" fill-opacity="1"></path><path clip-path="url(#clip210)" d="M173.195 491.385 Q169.584 491.385 167.755 494.95 Q165.95 498.491 165.95 505.621 Q165.95 512.727 167.755 516.292 Q169.584 519.834 173.195 519.834 Q176.829 519.834 178.635 516.292 Q180.464 512.727 180.464 505.621 Q180.464 498.491 178.635 494.95 Q176.829 491.385 173.195 491.385 M173.195 487.681 Q179.005 487.681 182.061 492.288 Q185.139 496.871 185.139 505.621 Q185.139 514.348 182.061 518.954 Q179.005 523.537 173.195 523.537 Q167.385 523.537 164.306 518.954 Q161.251 514.348 161.251 505.621 Q161.251 496.871 164.306 492.288 Q167.385 487.681 173.195 487.681 Z" fill="#000000" fill-rule="nonzero" fill-opacity="1"></path><path clip-path="url(#clip210)" d="M194.167 518.931 L201.806 518.931 L201.806 492.565 L193.496 494.232 L193.496 489.973 L201.76 488.306 L206.436 488.306 L206.436 518.931 L214.074 518.931 L214.074 522.866 L194.167 522.866 L194.167 518.931 Z" fill="#000000" fill-rule="nonzero" fill-opacity="1"></path><path clip-path="url(#clip210)" d="M227.547 518.931 L243.866 518.931 L243.866 522.866 L221.922 522.866 L221.922 518.931 Q224.584 516.176 229.167 511.547 Q233.773 506.894 234.954 505.551 Q237.199 503.028 238.079 501.292 Q238.982 499.533 238.982 497.843 Q238.982 495.088 237.037 493.352 Q235.116 491.616 232.014 491.616 Q229.815 491.616 227.361 492.38 Q224.931 493.144 222.153 494.695 L222.153 489.973 Q224.977 488.838 227.431 488.26 Q229.885 487.681 231.922 487.681 Q237.292 487.681 240.486 490.366 Q243.681 493.051 243.681 497.542 Q243.681 499.672 242.871 501.593 Q242.084 503.491 239.977 506.084 Q239.398 506.755 236.297 509.973 Q233.195 513.167 227.547 518.931 Z" fill="#000000" fill-rule="nonzero" fill-opacity="1"></path><path clip-path="url(#clip210)" d="M127.362 257.284 Q123.751 257.284 121.922 260.849 Q120.117 264.391 120.117 271.52 Q120.117 278.627 121.922 282.191 Q123.751 285.733 127.362 285.733 Q130.996 285.733 132.802 282.191 Q134.63 278.627 134.63 271.52 Q134.63 264.391 132.802 260.849 Q130.996 257.284 127.362 257.284 M127.362 253.58 Q133.172 253.58 136.228 258.187 Q139.306 262.77 139.306 271.52 Q139.306 280.247 136.228 284.853 Q133.172 289.437 127.362 289.437 Q121.552 289.437 118.473 284.853 Q115.418 280.247 115.418 271.52 Q115.418 262.77 118.473 258.187 Q121.552 253.58 127.362 253.58 Z" fill="#000000" fill-rule="nonzero" fill-opacity="1"></path><path clip-path="url(#clip210)" d="M147.524 282.886 L152.408 282.886 L152.408 288.765 L147.524 288.765 L147.524 282.886 Z" fill="#000000" fill-rule="nonzero" fill-opacity="1"></path><path clip-path="url(#clip210)" d="M172.593 257.284 Q168.982 257.284 167.153 260.849 Q165.348 264.391 165.348 271.52 Q165.348 278.627 167.153 282.191 Q168.982 285.733 172.593 285.733 Q176.227 285.733 178.033 282.191 Q179.862 278.627 179.862 271.52 Q179.862 264.391 178.033 260.849 Q176.227 257.284 172.593 257.284 M172.593 253.58 Q178.403 253.58 181.459 258.187 Q184.538 262.77 184.538 271.52 Q184.538 280.247 181.459 284.853 Q178.403 289.437 172.593 289.437 Q166.783 289.437 163.704 284.853 Q160.649 280.247 160.649 271.52 Q160.649 262.77 163.704 258.187 Q166.783 253.58 172.593 253.58 Z" fill="#000000" fill-rule="nonzero" fill-opacity="1"></path><path clip-path="url(#clip210)" d="M193.565 284.83 L201.204 284.83 L201.204 258.465 L192.894 260.131 L192.894 255.872 L201.158 254.205 L205.834 254.205 L205.834 284.83 L213.473 284.83 L213.473 288.765 L193.565 288.765 L193.565 284.83 Z" fill="#000000" fill-rule="nonzero" fill-opacity="1"></path><path clip-path="url(#clip210)" d="M222.963 254.205 L241.32 254.205 L241.32 258.141 L227.246 258.141 L227.246 266.613 Q228.264 266.266 229.283 266.104 Q230.301 265.918 231.32 265.918 Q237.107 265.918 240.486 269.09 Q243.866 272.261 243.866 277.678 Q243.866 283.256 240.394 286.358 Q236.922 289.437 230.602 289.437 Q228.426 289.437 226.158 289.066 Q223.912 288.696 221.505 287.955 L221.505 283.256 Q223.588 284.39 225.81 284.946 Q228.033 285.502 230.51 285.502 Q234.514 285.502 236.852 283.395 Q239.19 281.289 239.19 277.678 Q239.19 274.066 236.852 271.96 Q234.514 269.853 230.51 269.853 Q228.635 269.853 226.76 270.27 Q224.908 270.687 222.963 271.566 L222.963 254.205 Z" fill="#000000" fill-rule="nonzero" fill-opacity="1"></path><path clip-path="url(#clip210)" d="M46.0847 1080.41 Q46.0847 1087.51 47.7079 1090.25 Q49.3312 1092.98 53.2461 1092.98 Q56.3653 1092.98 58.2114 1090.95 Q60.0256 1088.88 60.0256 1085.34 Q60.0256 1080.47 56.5881 1077.55 Q53.1188 1074.59 47.3897 1074.59 L46.0847 1074.59 L46.0847 1080.41 M43.6657 1068.73 L64.0042 1068.73 L64.0042 1074.59 L58.5933 1074.59 Q61.8398 1076.59 63.3994 1079.58 Q64.9272 1082.58 64.9272 1086.9 Q64.9272 1092.38 61.8716 1095.62 Q58.7843 1098.84 53.6281 1098.84 Q47.6125 1098.84 44.5569 1094.83 Q41.5014 1090.79 41.5014 1082.8 L41.5014 1074.59 L40.9285 1074.59 Q36.8862 1074.59 34.6901 1077.26 Q32.4621 1079.9 32.4621 1084.71 Q32.4621 1087.76 33.1941 1090.66 Q33.9262 1093.56 35.3903 1096.23 L29.9795 1096.23 Q28.7381 1093.01 28.1334 1089.99 Q27.4968 1086.97 27.4968 1084.1 Q27.4968 1076.37 31.5072 1072.55 Q35.5176 1068.73 43.6657 1068.73 Z" fill="#000000" fill-rule="nonzero" fill-opacity="1"></path><path clip-path="url(#clip210)" d="M28.3562 1060.87 L28.3562 1054.66 L58.275 1043.52 L28.3562 1032.38 L28.3562 1026.17 L64.0042 1039.54 L64.0042 1047.5 L28.3562 1060.87 Z" fill="#000000" fill-rule="nonzero" fill-opacity="1"></path><path clip-path="url(#clip210)" d="M44.7161 987.599 L47.5806 987.599 L47.5806 1014.53 Q53.6281 1014.14 56.8109 1010.9 Q59.9619 1007.62 59.9619 1001.79 Q59.9619 998.42 59.1344 995.269 Q58.3069 992.087 56.6518 988.967 L62.1899 988.967 Q63.5267 992.118 64.227 995.429 Q64.9272 998.739 64.9272 1002.14 Q64.9272 1010.67 59.9619 1015.67 Q54.9967 1020.64 46.5303 1020.64 Q37.7774 1020.64 32.6531 1015.93 Q27.4968 1011.18 27.4968 1003.16 Q27.4968 995.97 32.1438 991.8 Q36.7589 987.599 44.7161 987.599 M42.9973 993.455 Q38.1912 993.519 35.3266 996.161 Q32.4621 998.771 32.4621 1003.1 Q32.4621 1008 35.2312 1010.96 Q38.0002 1013.89 43.0292 1014.33 L42.9973 993.455 Z" fill="#000000" fill-rule="nonzero" fill-opacity="1"></path><path clip-path="url(#clip210)" d="M33.8307 957.33 Q33.2578 958.316 33.0032 959.494 Q32.7167 960.64 32.7167 962.04 Q32.7167 967.006 35.9632 969.679 Q39.1779 972.321 45.2253 972.321 L64.0042 972.321 L64.0042 978.209 L28.3562 978.209 L28.3562 972.321 L33.8944 972.321 Q30.6479 970.475 29.0883 967.515 Q27.4968 964.555 27.4968 960.322 Q27.4968 959.717 27.5923 958.985 Q27.656 958.253 27.8151 957.362 L33.8307 957.33 Z" fill="#000000" fill-rule="nonzero" fill-opacity="1"></path><path clip-path="url(#clip210)" d="M46.0847 934.986 Q46.0847 942.084 47.7079 944.821 Q49.3312 947.558 53.2461 947.558 Q56.3653 947.558 58.2114 945.521 Q60.0256 943.453 60.0256 939.92 Q60.0256 935.05 56.5881 932.122 Q53.1188 929.162 47.3897 929.162 L46.0847 929.162 L46.0847 934.986 M43.6657 923.305 L64.0042 923.305 L64.0042 929.162 L58.5933 929.162 Q61.8398 931.167 63.3994 934.159 Q64.9272 937.151 64.9272 941.479 Q64.9272 946.954 61.8716 950.2 Q58.7843 953.415 53.6281 953.415 Q47.6125 953.415 44.5569 949.405 Q41.5014 945.362 41.5014 937.373 L41.5014 929.162 L40.9285 929.162 Q36.8862 929.162 34.6901 931.835 Q32.4621 934.477 32.4621 939.283 Q32.4621 942.339 33.1941 945.235 Q33.9262 948.131 35.3903 950.805 L29.9795 950.805 Q28.7381 947.59 28.1334 944.567 Q27.4968 941.543 27.4968 938.678 Q27.4968 930.944 31.5072 927.125 Q35.5176 923.305 43.6657 923.305 Z" fill="#000000" fill-rule="nonzero" fill-opacity="1"></path><path clip-path="url(#clip210)" d="M45.7664 887.784 Q39.4007 887.784 35.8996 890.426 Q32.3984 893.036 32.3984 897.779 Q32.3984 902.489 35.8996 905.131 Q39.4007 907.741 45.7664 907.741 Q52.1003 907.741 55.6014 905.131 Q59.1026 902.489 59.1026 897.779 Q59.1026 893.036 55.6014 890.426 Q52.1003 887.784 45.7664 887.784 M59.58 881.928 Q68.683 881.928 73.1071 885.97 Q77.5631 890.012 77.5631 898.352 Q77.5631 901.439 77.0857 904.176 Q76.6401 906.913 75.6852 909.492 L69.9879 909.492 Q71.3884 906.913 72.0568 904.399 Q72.7252 901.885 72.7252 899.275 Q72.7252 893.514 69.7015 890.649 Q66.7096 887.784 60.6303 887.784 L57.7339 887.784 Q60.885 889.599 62.4446 892.431 Q64.0042 895.264 64.0042 899.211 Q64.0042 905.768 59.0071 909.778 Q54.01 913.788 45.7664 913.788 Q37.491 913.788 32.4939 909.778 Q27.4968 905.768 27.4968 899.211 Q27.4968 895.264 29.0564 892.431 Q30.616 889.599 33.7671 887.784 L28.3562 887.784 L28.3562 881.928 L59.58 881.928 Z" fill="#000000" fill-rule="nonzero" fill-opacity="1"></path><path clip-path="url(#clip210)" d="M44.7161 839.373 L47.5806 839.373 L47.5806 866.3 Q53.6281 865.918 56.8109 862.672 Q59.9619 859.393 59.9619 853.569 Q59.9619 850.195 59.1344 847.044 Q58.3069 843.861 56.6518 840.742 L62.1899 840.742 Q63.5267 843.893 64.227 847.203 Q64.9272 850.513 64.9272 853.919 Q64.9272 862.449 59.9619 867.446 Q54.9967 872.411 46.5303 872.411 Q37.7774 872.411 32.6531 867.701 Q27.4968 862.958 27.4968 854.937 Q27.4968 847.744 32.1438 843.575 Q36.7589 839.373 44.7161 839.373 M42.9973 845.23 Q38.1912 845.293 35.3266 847.935 Q32.4621 850.545 32.4621 854.874 Q32.4621 859.775 35.2312 862.735 Q38.0002 865.664 43.0292 866.109 L42.9973 845.23 Z" fill="#000000" fill-rule="nonzero" fill-opacity="1"></path><path clip-path="url(#clip210)" d="M33.8307 788.384 Q33.2578 789.371 33.0032 790.548 Q32.7167 791.694 32.7167 793.095 Q32.7167 798.06 35.9632 800.733 Q39.1779 803.375 45.2253 803.375 L64.0042 803.375 L64.0042 809.263 L28.3562 809.263 L28.3562 803.375 L33.8944 803.375 Q30.6479 801.529 29.0883 798.569 Q27.4968 795.609 27.4968 791.376 Q27.4968 790.771 27.5923 790.039 Q27.656 789.307 27.8151 788.416 L33.8307 788.384 Z" fill="#000000" fill-rule="nonzero" fill-opacity="1"></path><path clip-path="url(#clip210)" d="M44.7161 753.182 L47.5806 753.182 L47.5806 780.109 Q53.6281 779.727 56.8109 776.48 Q59.9619 773.202 59.9619 767.377 Q59.9619 764.003 59.1344 760.852 Q58.3069 757.669 56.6518 754.55 L62.1899 754.55 Q63.5267 757.701 64.227 761.011 Q64.9272 764.322 64.9272 767.727 Q64.9272 776.257 59.9619 781.254 Q54.9967 786.22 46.5303 786.22 Q37.7774 786.22 32.6531 781.509 Q27.4968 776.767 27.4968 768.746 Q27.4968 761.553 32.1438 757.383 Q36.7589 753.182 44.7161 753.182 M42.9973 759.038 Q38.1912 759.102 35.3266 761.743 Q32.4621 764.353 32.4621 768.682 Q32.4621 773.584 35.2312 776.544 Q38.0002 779.472 43.0292 779.918 L42.9973 759.038 Z" fill="#000000" fill-rule="nonzero" fill-opacity="1"></path><path clip-path="url(#clip210)" d="M14.479 743.569 L14.479 737.713 L64.0042 737.713 L64.0042 743.569 L14.479 743.569 Z" fill="#000000" fill-rule="nonzero" fill-opacity="1"></path><path clip-path="url(#clip210)" d="M46.0847 709.258 Q46.0847 716.356 47.7079 719.093 Q49.3312 721.83 53.2461 721.83 Q56.3653 721.83 58.2114 719.793 Q60.0256 717.725 60.0256 714.192 Q60.0256 709.322 56.5881 706.394 Q53.1188 703.434 47.3897 703.434 L46.0847 703.434 L46.0847 709.258 M43.6657 697.577 L64.0042 697.577 L64.0042 703.434 L58.5933 703.434 Q61.8398 705.439 63.3994 708.431 Q64.9272 711.423 64.9272 715.751 Q64.9272 721.226 61.8716 724.472 Q58.7843 727.687 53.6281 727.687 Q47.6125 727.687 44.5569 723.677 Q41.5014 719.634 41.5014 711.645 L41.5014 703.434 L40.9285 703.434 Q36.8862 703.434 34.6901 706.107 Q32.4621 708.749 32.4621 713.555 Q32.4621 716.611 33.1941 719.507 Q33.9262 722.403 35.3903 725.077 L29.9795 725.077 Q28.7381 721.862 28.1334 718.839 Q27.4968 715.815 27.4968 712.95 Q27.4968 705.216 31.5072 701.397 Q35.5176 697.577 43.6657 697.577 Z" fill="#000000" fill-rule="nonzero" fill-opacity="1"></path><path clip-path="url(#clip210)" d="M18.2347 679.721 L28.3562 679.721 L28.3562 667.658 L32.9077 667.658 L32.9077 679.721 L52.2594 679.721 Q56.6199 679.721 57.8613 678.544 Q59.1026 677.334 59.1026 673.674 L59.1026 667.658 L64.0042 667.658 L64.0042 673.674 Q64.0042 680.453 61.4897 683.032 Q58.9434 685.61 52.2594 685.61 L32.9077 685.61 L32.9077 689.906 L28.3562 689.906 L28.3562 685.61 L18.2347 685.61 L18.2347 679.721 Z" fill="#000000" fill-rule="nonzero" fill-opacity="1"></path><path clip-path="url(#clip210)" d="M28.3562 659.956 L28.3562 654.099 L64.0042 654.099 L64.0042 659.956 L28.3562 659.956 M14.479 659.956 L14.479 654.099 L21.895 654.099 L21.895 659.956 L14.479 659.956 Z" fill="#000000" fill-rule="nonzero" fill-opacity="1"></path><path clip-path="url(#clip210)" d="M28.3562 646.047 L28.3562 639.84 L58.275 628.7 L28.3562 617.56 L28.3562 611.354 L64.0042 624.722 L64.0042 632.679 L28.3562 646.047 Z" fill="#000000" fill-rule="nonzero" fill-opacity="1"></path><path clip-path="url(#clip210)" d="M44.7161 572.777 L47.5806 572.777 L47.5806 599.704 Q53.6281 599.322 56.8109 596.076 Q59.9619 592.798 59.9619 586.973 Q59.9619 583.599 59.1344 580.448 Q58.3069 577.265 56.6518 574.146 L62.1899 574.146 Q63.5267 577.297 64.227 580.607 Q64.9272 583.917 64.9272 587.323 Q64.9272 595.853 59.9619 600.85 Q54.9967 605.815 46.5303 605.815 Q37.7774 605.815 32.6531 601.105 Q27.4968 596.362 27.4968 588.342 Q27.4968 581.148 32.1438 576.979 Q36.7589 572.777 44.7161 572.777 M42.9973 578.634 Q38.1912 578.698 35.3266 581.339 Q32.4621 583.949 32.4621 588.278 Q32.4621 593.18 35.2312 596.14 Q38.0002 599.068 43.0292 599.513 L42.9973 578.634 Z" fill="#000000" fill-rule="nonzero" fill-opacity="1"></path><path clip-path="url(#clip210)" d="M44.7161 511.953 L47.5806 511.953 L47.5806 538.88 Q53.6281 538.498 56.8109 535.252 Q59.9619 531.973 59.9619 526.149 Q59.9619 522.775 59.1344 519.624 Q58.3069 516.441 56.6518 513.322 L62.1899 513.322 Q63.5267 516.473 64.227 519.783 Q64.9272 523.093 64.9272 526.499 Q64.9272 535.029 59.9619 540.026 Q54.9967 544.991 46.5303 544.991 Q37.7774 544.991 32.6531 540.281 Q27.4968 535.538 27.4968 527.517 Q27.4968 520.324 32.1438 516.155 Q36.7589 511.953 44.7161 511.953 M42.9973 517.81 Q38.1912 517.873 35.3266 520.515 Q32.4621 523.125 32.4621 527.454 Q32.4621 532.355 35.2312 535.315 Q38.0002 538.244 43.0292 538.689 L42.9973 517.81 Z" fill="#000000" fill-rule="nonzero" fill-opacity="1"></path><path clip-path="url(#clip210)" d="M33.8307 481.684 Q33.2578 482.671 33.0032 483.849 Q32.7167 484.994 32.7167 486.395 Q32.7167 491.36 35.9632 494.034 Q39.1779 496.675 45.2253 496.675 L64.0042 496.675 L64.0042 502.564 L28.3562 502.564 L28.3562 496.675 L33.8944 496.675 Q30.6479 494.829 29.0883 491.869 Q27.4968 488.909 27.4968 484.676 Q27.4968 484.071 27.5923 483.339 Q27.656 482.607 27.8151 481.716 L33.8307 481.684 Z" fill="#000000" fill-rule="nonzero" fill-opacity="1"></path><path clip-path="url(#clip210)" d="M33.8307 456.03 Q33.2578 457.017 33.0032 458.195 Q32.7167 459.341 32.7167 460.741 Q32.7167 465.706 35.9632 468.38 Q39.1779 471.022 45.2253 471.022 L64.0042 471.022 L64.0042 476.91 L28.3562 476.91 L28.3562 471.022 L33.8944 471.022 Q30.6479 469.176 29.0883 466.216 Q27.4968 463.255 27.4968 459.022 Q27.4968 458.418 27.5923 457.686 Q27.656 456.953 27.8151 456.062 L33.8307 456.03 Z" fill="#000000" fill-rule="nonzero" fill-opacity="1"></path><path clip-path="url(#clip210)" d="M32.4621 437.506 Q32.4621 442.217 36.1542 444.954 Q39.8145 447.691 46.212 447.691 Q52.6095 447.691 56.3017 444.986 Q59.9619 442.249 59.9619 437.506 Q59.9619 432.827 56.2698 430.09 Q52.5777 427.353 46.212 427.353 Q39.8781 427.353 36.186 430.09 Q32.4621 432.827 32.4621 437.506 M27.4968 437.506 Q27.4968 429.867 32.4621 425.507 Q37.4273 421.146 46.212 421.146 Q54.9649 421.146 59.9619 425.507 Q64.9272 429.867 64.9272 437.506 Q64.9272 445.177 59.9619 449.537 Q54.9649 453.866 46.212 453.866 Q37.4273 453.866 32.4621 449.537 Q27.4968 445.177 27.4968 437.506 Z" fill="#000000" fill-rule="nonzero" fill-opacity="1"></path><path clip-path="url(#clip210)" d="M33.8307 390.782 Q33.2578 391.769 33.0032 392.946 Q32.7167 394.092 32.7167 395.493 Q32.7167 400.458 35.9632 403.131 Q39.1779 405.773 45.2253 405.773 L64.0042 405.773 L64.0042 411.661 L28.3562 411.661 L28.3562 405.773 L33.8944 405.773 Q30.6479 403.927 29.0883 400.967 Q27.4968 398.007 27.4968 393.774 Q27.4968 393.169 27.5923 392.437 Q27.656 391.705 27.8151 390.814 L33.8307 390.782 Z" fill="#000000" fill-rule="nonzero" fill-opacity="1"></path><path clip-path="url(#clip210)" d="M568.494 12.096 L600.617 12.096 L600.617 18.9825 L575.988 18.9825 L575.988 33.8088 Q577.77 33.2012 579.553 32.9176 Q581.335 32.5936 583.118 32.5936 Q593.245 32.5936 599.159 38.1433 Q605.073 43.6931 605.073 53.1722 Q605.073 62.9348 598.997 68.3631 Q592.921 73.7508 581.862 73.7508 Q578.054 73.7508 574.084 73.1026 Q570.155 72.4545 565.942 71.1582 L565.942 62.9348 Q569.587 64.9198 573.476 65.892 Q577.365 66.8642 581.7 66.8642 Q588.708 66.8642 592.799 63.1779 Q596.891 59.4916 596.891 53.1722 Q596.891 46.8528 592.799 43.1664 Q588.708 39.4801 581.7 39.4801 Q578.418 39.4801 575.137 40.2093 Q571.897 40.9384 568.494 42.4778 L568.494 12.096 Z" fill="#000000" fill-rule="nonzero" fill-opacity="1"></path><path clip-path="url(#clip210)" d="M638.696 17.4837 Q632.377 17.4837 629.176 23.7221 Q626.017 29.92 626.017 42.3968 Q626.017 54.833 629.176 61.0714 Q632.377 67.2693 638.696 67.2693 Q645.056 67.2693 648.216 61.0714 Q651.416 54.833 651.416 42.3968 Q651.416 29.92 648.216 23.7221 Q645.056 17.4837 638.696 17.4837 M638.696 11.0023 Q648.864 11.0023 654.211 19.0636 Q659.599 27.0843 659.599 42.3968 Q659.599 57.6687 654.211 65.73 Q648.864 73.7508 638.696 73.7508 Q628.528 73.7508 623.14 65.73 Q617.793 57.6687 617.793 42.3968 Q617.793 27.0843 623.14 19.0636 Q628.528 11.0023 638.696 11.0023 Z" fill="#000000" fill-rule="nonzero" fill-opacity="1"></path><path clip-path="url(#clip210)" d="M693.95 27.2059 L701.85 27.2059 L716.028 65.2844 L730.206 27.2059 L738.105 27.2059 L721.091 72.576 L710.964 72.576 L693.95 27.2059 Z" fill="#000000" fill-rule="nonzero" fill-opacity="1"></path><path clip-path="url(#clip210)" d="M769.014 49.7694 Q759.98 49.7694 756.496 51.8354 Q753.012 53.9013 753.012 58.8839 Q753.012 62.8538 755.605 65.2034 Q758.238 67.5124 762.735 67.5124 Q768.932 67.5124 772.659 63.1374 Q776.427 58.7219 776.427 51.4303 L776.427 49.7694 L769.014 49.7694 M783.88 46.6907 L783.88 72.576 L776.427 72.576 L776.427 65.6895 Q773.875 69.8214 770.067 71.8063 Q766.259 73.7508 760.75 73.7508 Q753.782 73.7508 749.65 69.8619 Q745.559 65.9325 745.559 59.3701 Q745.559 51.7138 750.663 47.825 Q755.808 43.9361 765.975 43.9361 L776.427 43.9361 L776.427 43.2069 Q776.427 38.0623 773.024 35.2672 Q769.662 32.4315 763.545 32.4315 Q759.656 32.4315 755.97 33.3632 Q752.283 34.295 748.881 36.1584 L748.881 29.2718 Q752.972 27.692 756.82 26.9223 Q760.669 26.1121 764.314 26.1121 Q774.158 26.1121 779.019 31.2163 Q783.88 36.3204 783.88 46.6907 Z" fill="#000000" fill-rule="nonzero" fill-opacity="1"></path><path clip-path="url(#clip210)" d="M825.524 34.1734 Q824.268 33.4443 822.769 33.1202 Q821.311 32.7556 819.528 32.7556 Q813.209 32.7556 809.806 36.8875 Q806.444 40.9789 806.444 48.6757 L806.444 72.576 L798.95 72.576 L798.95 27.2059 L806.444 27.2059 L806.444 34.2544 Q808.793 30.1225 812.561 28.1376 Q816.328 26.1121 821.716 26.1121 Q822.485 26.1121 823.417 26.2337 Q824.349 26.3147 825.483 26.5172 L825.524 34.1734 Z" fill="#000000" fill-rule="nonzero" fill-opacity="1"></path><path clip-path="url(#clip210)" d="M833.342 27.2059 L840.796 27.2059 L840.796 72.576 L833.342 72.576 L833.342 27.2059 M833.342 9.54393 L840.796 9.54393 L840.796 18.9825 L833.342 18.9825 L833.342 9.54393 Z" fill="#000000" fill-rule="nonzero" fill-opacity="1"></path><path clip-path="url(#clip210)" d="M877.011 49.7694 Q867.977 49.7694 864.493 51.8354 Q861.01 53.9013 861.01 58.8839 Q861.01 62.8538 863.602 65.2034 Q866.235 67.5124 870.732 67.5124 Q876.93 67.5124 880.656 63.1374 Q884.424 58.7219 884.424 51.4303 L884.424 49.7694 L877.011 49.7694 M891.877 46.6907 L891.877 72.576 L884.424 72.576 L884.424 65.6895 Q881.872 69.8214 878.064 71.8063 Q874.256 73.7508 868.747 73.7508 Q861.779 73.7508 857.647 69.8619 Q853.556 65.9325 853.556 59.3701 Q853.556 51.7138 858.66 47.825 Q863.805 43.9361 873.972 43.9361 L884.424 43.9361 L884.424 43.2069 Q884.424 38.0623 881.021 35.2672 Q877.659 32.4315 871.542 32.4315 Q867.653 32.4315 863.967 33.3632 Q860.28 34.295 856.878 36.1584 L856.878 29.2718 Q860.969 27.692 864.817 26.9223 Q868.666 26.1121 872.312 26.1121 Q882.155 26.1121 887.016 31.2163 Q891.877 36.3204 891.877 46.6907 Z" fill="#000000" fill-rule="nonzero" fill-opacity="1"></path><path clip-path="url(#clip210)" d="M939.8 49.9314 Q939.8 41.7081 936.397 37.0496 Q933.035 32.3505 927.12 32.3505 Q921.206 32.3505 917.803 37.0496 Q914.441 41.7081 914.441 49.9314 Q914.441 58.1548 917.803 62.8538 Q921.206 67.5124 927.12 67.5124 Q933.035 67.5124 936.397 62.8538 Q939.8 58.1548 939.8 49.9314 M914.441 34.0924 Q916.79 30.0415 920.355 28.0971 Q923.961 26.1121 928.943 26.1121 Q937.207 26.1121 942.352 32.6746 Q947.537 39.2371 947.537 49.9314 Q947.537 60.6258 942.352 67.1883 Q937.207 73.7508 928.943 73.7508 Q923.961 73.7508 920.355 71.8063 Q916.79 69.8214 914.441 65.7705 L914.441 72.576 L906.947 72.576 L906.947 9.54393 L914.441 9.54393 L914.441 34.0924 Z" fill="#000000" fill-rule="nonzero" fill-opacity="1"></path><path clip-path="url(#clip210)" d="M959.892 9.54393 L967.346 9.54393 L967.346 72.576 L959.892 72.576 L959.892 9.54393 Z" fill="#000000" fill-rule="nonzero" fill-opacity="1"></path><path clip-path="url(#clip210)" d="M1021.75 48.0275 L1021.75 51.6733 L987.479 51.6733 Q987.965 59.3701 992.097 63.421 Q996.269 67.4314 1003.68 67.4314 Q1007.98 67.4314 1011.99 66.3781 Q1016.04 65.3249 1020.01 63.2184 L1020.01 70.267 Q1016 71.9684 1011.78 72.8596 Q1007.57 73.7508 1003.24 73.7508 Q992.38 73.7508 986.02 67.4314 Q979.701 61.1119 979.701 50.3365 Q979.701 39.1965 985.696 32.6746 Q991.732 26.1121 1001.94 26.1121 Q1011.1 26.1121 1016.4 32.0264 Q1021.75 37.9003 1021.75 48.0275 M1014.3 45.84 Q1014.21 39.7232 1010.85 36.0774 Q1007.53 32.4315 1002.02 32.4315 Q995.783 32.4315 992.016 35.9558 Q988.289 39.4801 987.722 45.8805 L1014.3 45.84 Z" fill="#000000" fill-rule="nonzero" fill-opacity="1"></path><path clip-path="url(#clip210)" d="M1062.91 28.5427 L1062.91 35.5912 Q1059.75 33.9709 1056.34 33.1607 Q1052.94 32.3505 1049.3 32.3505 Q1043.75 32.3505 1040.95 34.0519 Q1038.2 35.7533 1038.2 39.156 Q1038.2 41.7486 1040.18 43.2475 Q1042.17 44.7058 1048.16 46.0426 L1050.71 46.6097 Q1058.65 48.3111 1061.97 51.4303 Q1065.34 54.509 1065.34 60.0587 Q1065.34 66.3781 1060.31 70.0644 Q1055.33 73.7508 1046.58 73.7508 Q1042.94 73.7508 1038.97 73.0216 Q1035.04 72.3329 1030.66 70.9151 L1030.66 63.2184 Q1034.79 65.3654 1038.8 66.4591 Q1042.81 67.5124 1046.74 67.5124 Q1052.01 67.5124 1054.85 65.73 Q1057.68 63.9071 1057.68 60.6258 Q1057.68 57.5877 1055.61 55.9673 Q1053.59 54.3469 1046.66 52.8481 L1044.07 52.2405 Q1037.14 50.7821 1034.06 47.7845 Q1030.99 44.7463 1030.99 39.4801 Q1030.99 33.0797 1035.52 29.5959 Q1040.06 26.1121 1048.4 26.1121 Q1052.54 26.1121 1056.18 26.7198 Q1059.83 27.3274 1062.91 28.5427 Z" fill="#000000" fill-rule="nonzero" fill-opacity="1"></path><path clip-path="url(#clip210)" d="M1113.18 9.17935 L1113.18 92.1419 L1106.29 92.1419 L1106.29 9.17935 L1113.18 9.17935 Z" fill="#000000" fill-rule="nonzero" fill-opacity="1"></path><path clip-path="url(#clip210)" d="M1166 65.6895 L1194.56 65.6895 L1194.56 72.576 L1156.16 72.576 L1156.16 65.6895 Q1160.82 60.8689 1168.84 52.7671 Q1176.9 44.6248 1178.97 42.2752 Q1182.89 37.8598 1184.43 34.8216 Q1186.01 31.7429 1186.01 28.7857 Q1186.01 23.9651 1182.61 20.927 Q1179.25 17.8888 1173.82 17.8888 Q1169.97 17.8888 1165.68 19.2256 Q1161.42 20.5624 1156.56 23.2765 L1156.56 15.0127 Q1161.51 13.0277 1165.8 12.015 Q1170.09 11.0023 1173.66 11.0023 Q1183.06 11.0023 1188.65 15.7013 Q1194.24 20.4004 1194.24 28.2591 Q1194.24 31.9859 1192.82 35.3482 Q1191.44 38.6699 1187.76 43.2069 Q1186.74 44.3817 1181.31 50.0125 Q1175.89 55.6027 1166 65.6895 Z" fill="#000000" fill-rule="nonzero" fill-opacity="1"></path><path clip-path="url(#clip210)" d="M1254.64 32.4315 Q1248.64 32.4315 1245.16 37.1306 Q1241.67 41.7891 1241.67 49.9314 Q1241.67 58.0738 1245.12 62.7728 Q1248.6 67.4314 1254.64 67.4314 Q1260.59 67.4314 1264.07 62.7323 Q1267.56 58.0333 1267.56 49.9314 Q1267.56 41.8701 1264.07 37.1711 Q1260.59 32.4315 1254.64 32.4315 M1254.64 26.1121 Q1264.36 26.1121 1269.91 32.4315 Q1275.46 38.7509 1275.46 49.9314 Q1275.46 61.0714 1269.91 67.4314 Q1264.36 73.7508 1254.64 73.7508 Q1244.87 73.7508 1239.32 67.4314 Q1233.81 61.0714 1233.81 49.9314 Q1233.81 38.7509 1239.32 32.4315 Q1244.87 26.1121 1254.64 26.1121 Z" fill="#000000" fill-rule="nonzero" fill-opacity="1"></path><path clip-path="url(#clip210)" d="M1320.38 49.9314 Q1320.38 41.7081 1316.98 37.0496 Q1313.62 32.3505 1307.7 32.3505 Q1301.79 32.3505 1298.39 37.0496 Q1295.02 41.7081 1295.02 49.9314 Q1295.02 58.1548 1298.39 62.8538 Q1301.79 67.5124 1307.7 67.5124 Q1313.62 67.5124 1316.98 62.8538 Q1320.38 58.1548 1320.38 49.9314 M1295.02 34.0924 Q1297.37 30.0415 1300.94 28.0971 Q1304.54 26.1121 1309.53 26.1121 Q1317.79 26.1121 1322.93 32.6746 Q1328.12 39.2371 1328.12 49.9314 Q1328.12 60.6258 1322.93 67.1883 Q1317.79 73.7508 1309.53 73.7508 Q1304.54 73.7508 1300.94 71.8063 Q1297.37 69.8214 1295.02 65.7705 L1295.02 72.576 L1287.53 72.576 L1287.53 9.54393 L1295.02 9.54393 L1295.02 34.0924 Z" fill="#000000" fill-rule="nonzero" fill-opacity="1"></path><path clip-path="url(#clip210)" d="M1340.47 27.2059 L1347.93 27.2059 L1347.93 73.3862 Q1347.93 82.0551 1344.61 85.944 Q1341.33 89.8329 1333.99 89.8329 L1331.16 89.8329 L1331.16 83.5134 L1333.14 83.5134 Q1337.4 83.5134 1338.94 81.5285 Q1340.47 79.5841 1340.47 73.3862 L1340.47 27.2059 M1340.47 9.54393 L1347.93 9.54393 L1347.93 18.9825 L1340.47 18.9825 L1340.47 9.54393 Z" fill="#000000" fill-rule="nonzero" fill-opacity="1"></path><path clip-path="url(#clip210)" d="M1402.33 48.0275 L1402.33 51.6733 L1368.06 51.6733 Q1368.55 59.3701 1372.68 63.421 Q1376.85 67.4314 1384.26 67.4314 Q1388.56 67.4314 1392.57 66.3781 Q1396.62 65.3249 1400.59 63.2184 L1400.59 70.267 Q1396.58 71.9684 1392.37 72.8596 Q1388.15 73.7508 1383.82 73.7508 Q1372.96 73.7508 1366.6 67.4314 Q1360.28 61.1119 1360.28 50.3365 Q1360.28 39.1965 1366.28 32.6746 Q1372.31 26.1121 1382.52 26.1121 Q1391.68 26.1121 1396.98 32.0264 Q1402.33 37.9003 1402.33 48.0275 M1394.88 45.84 Q1394.8 39.7232 1391.43 36.0774 Q1388.11 32.4315 1382.6 32.4315 Q1376.37 32.4315 1372.6 35.9558 Q1368.87 39.4801 1368.3 45.8805 L1394.88 45.84 Z" fill="#000000" fill-rule="nonzero" fill-opacity="1"></path><path clip-path="url(#clip210)" d="M1447.22 28.9478 L1447.22 35.9153 Q1444.06 34.1734 1440.86 33.3227 Q1437.7 32.4315 1434.46 32.4315 Q1427.2 32.4315 1423.19 37.0496 Q1419.18 41.6271 1419.18 49.9314 Q1419.18 58.2358 1423.19 62.8538 Q1427.2 67.4314 1434.46 67.4314 Q1437.7 67.4314 1440.86 66.5807 Q1444.06 65.6895 1447.22 63.9476 L1447.22 70.8341 Q1444.1 72.2924 1440.73 73.0216 Q1437.41 73.7508 1433.65 73.7508 Q1423.4 73.7508 1417.36 67.3098 Q1411.32 60.8689 1411.32 49.9314 Q1411.32 38.832 1417.4 32.472 Q1423.52 26.1121 1434.13 26.1121 Q1437.57 26.1121 1440.86 26.8413 Q1444.14 27.5299 1447.22 28.9478 Z" fill="#000000" fill-rule="nonzero" fill-opacity="1"></path><path clip-path="url(#clip210)" d="M1467.55 14.324 L1467.55 27.2059 L1482.9 27.2059 L1482.9 32.9987 L1467.55 32.9987 L1467.55 57.6282 Q1467.55 63.1779 1469.05 64.7578 Q1470.59 66.3376 1475.25 66.3376 L1482.9 66.3376 L1482.9 72.576 L1475.25 72.576 Q1466.62 72.576 1463.34 69.3758 Q1460.06 66.1351 1460.06 57.6282 L1460.06 32.9987 L1454.59 32.9987 L1454.59 27.2059 L1460.06 27.2059 L1460.06 14.324 L1467.55 14.324 Z" fill="#000000" fill-rule="nonzero" fill-opacity="1"></path><path clip-path="url(#clip210)" d="M1492.71 27.2059 L1500.16 27.2059 L1500.16 72.576 L1492.71 72.576 L1492.71 27.2059 M1492.71 9.54393 L1500.16 9.54393 L1500.16 18.9825 L1492.71 18.9825 L1492.71 9.54393 Z" fill="#000000" fill-rule="nonzero" fill-opacity="1"></path><path clip-path="url(#clip210)" d="M1510.41 27.2059 L1518.31 27.2059 L1532.49 65.2844 L1546.67 27.2059 L1554.56 27.2059 L1537.55 72.576 L1527.42 72.576 L1510.41 27.2059 Z" fill="#000000" fill-rule="nonzero" fill-opacity="1"></path><path clip-path="url(#clip210)" d="M1603.66 48.0275 L1603.66 51.6733 L1569.39 51.6733 Q1569.88 59.3701 1574.01 63.421 Q1578.18 67.4314 1585.59 67.4314 Q1589.89 67.4314 1593.9 66.3781 Q1597.95 65.3249 1601.92 63.2184 L1601.92 70.267 Q1597.91 71.9684 1593.7 72.8596 Q1589.48 73.7508 1585.15 73.7508 Q1574.29 73.7508 1567.93 67.4314 Q1561.61 61.1119 1561.61 50.3365 Q1561.61 39.1965 1567.61 32.6746 Q1573.64 26.1121 1583.85 26.1121 Q1593.01 26.1121 1598.31 32.0264 Q1603.66 37.9003 1603.66 48.0275 M1596.21 45.84 Q1596.13 39.7232 1592.76 36.0774 Q1589.44 32.4315 1583.93 32.4315 Q1577.7 32.4315 1573.93 35.9558 Q1570.2 39.4801 1569.63 45.8805 L1596.21 45.84 Z" fill="#000000" fill-rule="nonzero" fill-opacity="1"></path><path clip-path="url(#clip210)" d="M1644.82 28.5427 L1644.82 35.5912 Q1641.66 33.9709 1638.26 33.1607 Q1634.85 32.3505 1631.21 32.3505 Q1625.66 32.3505 1622.86 34.0519 Q1620.11 35.7533 1620.11 39.156 Q1620.11 41.7486 1622.09 43.2475 Q1624.08 44.7058 1630.07 46.0426 L1632.63 46.6097 Q1640.57 48.3111 1643.89 51.4303 Q1647.25 54.509 1647.25 60.0587 Q1647.25 66.3781 1642.23 70.0644 Q1637.24 73.7508 1628.49 73.7508 Q1624.85 73.7508 1620.88 73.0216 Q1616.95 72.3329 1612.57 70.9151 L1612.57 63.2184 Q1616.71 65.3654 1620.72 66.4591 Q1624.73 67.5124 1628.66 67.5124 Q1633.92 67.5124 1636.76 65.73 Q1639.59 63.9071 1639.59 60.6258 Q1639.59 57.5877 1637.53 55.9673 Q1635.5 54.3469 1628.57 52.8481 L1625.98 52.2405 Q1619.06 50.7821 1615.98 47.7845 Q1612.9 44.7463 1612.9 39.4801 Q1612.9 33.0797 1617.43 29.5959 Q1621.97 26.1121 1630.32 26.1121 Q1634.45 26.1121 1638.09 26.7198 Q1641.74 27.3274 1644.82 28.5427 Z" fill="#000000" fill-rule="nonzero" fill-opacity="1"></path><path clip-path="url(#clip210)" d="M1695.09 9.17935 L1695.09 92.1419 L1688.2 92.1419 L1688.2 9.17935 L1695.09 9.17935 Z" fill="#000000" fill-rule="nonzero" fill-opacity="1"></path><path clip-path="url(#clip210)" d="M1747.91 65.6895 L1776.47 65.6895 L1776.47 72.576 L1738.07 72.576 L1738.07 65.6895 Q1742.73 60.8689 1750.75 52.7671 Q1758.81 44.6248 1760.88 42.2752 Q1764.81 37.8598 1766.35 34.8216 Q1767.93 31.7429 1767.93 28.7857 Q1767.93 23.9651 1764.52 20.927 Q1761.16 17.8888 1755.73 17.8888 Q1751.88 17.8888 1747.59 19.2256 Q1743.34 20.5624 1738.48 23.2765 L1738.48 15.0127 Q1743.42 13.0277 1747.71 12.015 Q1752.01 11.0023 1755.57 11.0023 Q1764.97 11.0023 1770.56 15.7013 Q1776.15 20.4004 1776.15 28.2591 Q1776.15 31.9859 1774.73 35.3482 Q1773.35 38.6699 1769.67 43.2069 Q1768.66 44.3817 1763.23 50.0125 Q1757.8 55.6027 1747.91 65.6895 Z" fill="#000000" fill-rule="nonzero" fill-opacity="1"></path><path clip-path="url(#clip210)" d="M1811.15 17.4837 Q1804.83 17.4837 1801.63 23.7221 Q1798.47 29.92 1798.47 42.3968 Q1798.47 54.833 1801.63 61.0714 Q1804.83 67.2693 1811.15 67.2693 Q1817.51 67.2693 1820.67 61.0714 Q1823.87 54.833 1823.87 42.3968 Q1823.87 29.92 1820.67 23.7221 Q1817.51 17.4837 1811.15 17.4837 M1811.15 11.0023 Q1821.32 11.0023 1826.66 19.0636 Q1832.05 27.0843 1832.05 42.3968 Q1832.05 57.6687 1826.66 65.73 Q1821.32 73.7508 1811.15 73.7508 Q1800.98 73.7508 1795.59 65.73 Q1790.25 57.6687 1790.25 42.3968 Q1790.25 27.0843 1795.59 19.0636 Q1800.98 11.0023 1811.15 11.0023 Z" fill="#000000" fill-rule="nonzero" fill-opacity="1"></path><path clip-path="url(#clip210)" d="M1879.12 14.324 L1879.12 27.2059 L1894.48 27.2059 L1894.48 32.9987 L1879.12 32.9987 L1879.12 57.6282 Q1879.12 63.1779 1880.62 64.7578 Q1882.16 66.3376 1886.82 66.3376 L1894.48 66.3376 L1894.48 72.576 L1886.82 72.576 Q1878.19 72.576 1874.91 69.3758 Q1871.63 66.1351 1871.63 57.6282 L1871.63 32.9987 L1866.16 32.9987 L1866.16 27.2059 L1871.63 27.2059 L1871.63 14.324 L1879.12 14.324 Z" fill="#000000" fill-rule="nonzero" fill-opacity="1"></path><path clip-path="url(#clip210)" d="M1930.57 34.1734 Q1929.31 33.4443 1927.82 33.1202 Q1926.36 32.7556 1924.57 32.7556 Q1918.26 32.7556 1914.85 36.8875 Q1911.49 40.9789 1911.49 48.6757 L1911.49 72.576 L1904 72.576 L1904 27.2059 L1911.49 27.2059 L1911.49 34.2544 Q1913.84 30.1225 1917.61 28.1376 Q1921.37 26.1121 1926.76 26.1121 Q1927.53 26.1121 1928.46 26.2337 Q1929.4 26.3147 1930.53 26.5172 L1930.57 34.1734 Z" fill="#000000" fill-rule="nonzero" fill-opacity="1"></path><path clip-path="url(#clip210)" d="M1938.39 27.2059 L1945.84 27.2059 L1945.84 72.576 L1938.39 72.576 L1938.39 27.2059 M1938.39 9.54393 L1945.84 9.54393 L1945.84 18.9825 L1938.39 18.9825 L1938.39 9.54393 Z" fill="#000000" fill-rule="nonzero" fill-opacity="1"></path><path clip-path="url(#clip210)" d="M1982.06 49.7694 Q1973.02 49.7694 1969.54 51.8354 Q1966.06 53.9013 1966.06 58.8839 Q1966.06 62.8538 1968.65 65.2034 Q1971.28 67.5124 1975.78 67.5124 Q1981.98 67.5124 1985.7 63.1374 Q1989.47 58.7219 1989.47 51.4303 L1989.47 49.7694 L1982.06 49.7694 M1996.92 46.6907 L1996.92 72.576 L1989.47 72.576 L1989.47 65.6895 Q1986.92 69.8214 1983.11 71.8063 Q1979.3 73.7508 1973.79 73.7508 Q1966.83 73.7508 1962.69 69.8619 Q1958.6 65.9325 1958.6 59.3701 Q1958.6 51.7138 1963.71 47.825 Q1968.85 43.9361 1979.02 43.9361 L1989.47 43.9361 L1989.47 43.2069 Q1989.47 38.0623 1986.07 35.2672 Q1982.7 32.4315 1976.59 32.4315 Q1972.7 32.4315 1969.01 33.3632 Q1965.33 34.295 1961.92 36.1584 L1961.92 29.2718 Q1966.02 27.692 1969.86 26.9223 Q1973.71 26.1121 1977.36 26.1121 Q1987.2 26.1121 1992.06 31.2163 Q1996.92 36.3204 1996.92 46.6907 Z" fill="#000000" fill-rule="nonzero" fill-opacity="1"></path><path clip-path="url(#clip210)" d="M2012.28 9.54393 L2019.73 9.54393 L2019.73 72.576 L2012.28 72.576 L2012.28 9.54393 Z" fill="#000000" fill-rule="nonzero" fill-opacity="1"></path><path clip-path="url(#clip210)" d="M2064.25 28.5427 L2064.25 35.5912 Q2061.09 33.9709 2057.69 33.1607 Q2054.28 32.3505 2050.64 32.3505 Q2045.09 32.3505 2042.29 34.0519 Q2039.54 35.7533 2039.54 39.156 Q2039.54 41.7486 2041.52 43.2475 Q2043.51 44.7058 2049.5 46.0426 L2052.06 46.6097 Q2060 48.3111 2063.32 51.4303 Q2066.68 54.509 2066.68 60.0587 Q2066.68 66.3781 2061.66 70.0644 Q2056.67 73.7508 2047.92 73.7508 Q2044.28 73.7508 2040.31 73.0216 Q2036.38 72.3329 2032 70.9151 L2032 63.2184 Q2036.14 65.3654 2040.15 66.4591 Q2044.16 67.5124 2048.09 67.5124 Q2053.35 67.5124 2056.19 65.73 Q2059.02 63.9071 2059.02 60.6258 Q2059.02 57.5877 2056.96 55.9673 Q2054.93 54.3469 2048.01 52.8481 L2045.41 52.2405 Q2038.49 50.7821 2035.41 47.7845 Q2032.33 44.7463 2032.33 39.4801 Q2032.33 33.0797 2036.87 29.5959 Q2041.4 26.1121 2049.75 26.1121 Q2053.88 26.1121 2057.53 26.7198 Q2061.17 27.3274 2064.25 28.5427 Z" fill="#000000" fill-rule="nonzero" fill-opacity="1"></path><polyline clip-path="url(#clip212)" style="stroke:#009af9; stroke-linecap:round; stroke-linejoin:round; stroke-width:8; stroke-opacity:1; fill:none" points="338.533,158.642 417.545,969.181 516.311,996.153 615.076,1082.02 713.841,1111.33 1306.43,1243.41 2294.09,1330.98 "></polyline>
<circle clip-path="url(#clip212)" cx="338.533" cy="158.642" r="14.4" fill="#009af9" fill-rule="evenodd" fill-opacity="1" stroke="#000000" stroke-opacity="1" stroke-width="3.2"></circle>
<circle clip-path="url(#clip212)" cx="417.545" cy="969.181" r="14.4" fill="#009af9" fill-rule="evenodd" fill-opacity="1" stroke="#000000" stroke-opacity="1" stroke-width="3.2"></circle>
<circle clip-path="url(#clip212)" cx="516.311" cy="996.153" r="14.4" fill="#009af9" fill-rule="evenodd" fill-opacity="1" stroke="#000000" stroke-opacity="1" stroke-width="3.2"></circle>
<circle clip-path="url(#clip212)" cx="615.076" cy="1082.02" r="14.4" fill="#009af9" fill-rule="evenodd" fill-opacity="1" stroke="#000000" stroke-opacity="1" stroke-width="3.2"></circle>
<circle clip-path="url(#clip212)" cx="713.841" cy="1111.33" r="14.4" fill="#009af9" fill-rule="evenodd" fill-opacity="1" stroke="#000000" stroke-opacity="1" stroke-width="3.2"></circle>
<circle clip-path="url(#clip212)" cx="1306.43" cy="1243.41" r="14.4" fill="#009af9" fill-rule="evenodd" fill-opacity="1" stroke="#000000" stroke-opacity="1" stroke-width="3.2"></circle>
<circle clip-path="url(#clip212)" cx="2294.09" cy="1330.98" r="14.4" fill="#009af9" fill-rule="evenodd" fill-opacity="1" stroke="#000000" stroke-opacity="1" stroke-width="3.2"></circle>
</svg>