<svg xmlns="http://www.w3.org/2000/svg" xmlns:xlink="http://www.w3.org/1999/xlink" width="600" height="400" viewBox="0 0 2400 1600">
<defs>
  <clipPath id="clip290">
    <rect x="0" y="0" width="2400" height="1600"></rect>
  </clipPath>
</defs>
<path clip-path="url(#clip290)" d="M0 1600 L2400 1600 L2400 8.88178e-14 L0 8.88178e-14  Z" fill="#ffffff" fill-rule="evenodd" fill-opacity="1"></path>
<defs>
  <clipPath id="clip291">
    <rect x="480" y="0" width="1681" height="1600"></rect>
  </clipPath>
</defs>
<path clip-path="url(#clip290)" d="M279.704 1366.15 L2352.76 1366.15 L2352.76 123.472 L279.704 123.472  Z" fill="#ffffff" fill-rule="evenodd" fill-opacity="1"></path>
<defs>
  <clipPath id="clip292">
    <rect x="279" y="123" width="2074" height="1244"></rect>
  </clipPath>
</defs>
<polyline clip-path="url(#clip292)" style="stroke:#000000; stroke-linecap:round; stroke-linejoin:round; stroke-width:2; stroke-opacity:0.1; fill:none" points="338.375,1366.15 338.375,123.472 "></polyline>
<polyline clip-path="url(#clip292)" style="stroke:#000000; stroke-linecap:round; stroke-linejoin:round; stroke-width:2; stroke-opacity:0.1; fill:none" points="417.394,1366.15 417.394,123.472 "></polyline>
<polyline clip-path="url(#clip292)" style="stroke:#000000; stroke-linecap:round; stroke-linejoin:round; stroke-width:2; stroke-opacity:0.1; fill:none" points="516.167,1366.15 516.167,123.472 "></polyline>
<polyline clip-path="url(#clip292)" style="stroke:#000000; stroke-linecap:round; stroke-linejoin:round; stroke-width:2; stroke-opacity:0.1; fill:none" points="614.94,1366.15 614.94,123.472 "></polyline>
<polyline clip-path="url(#clip292)" style="stroke:#000000; stroke-linecap:round; stroke-linejoin:round; stroke-width:2; stroke-opacity:0.1; fill:none" points="713.713,1366.15 713.713,123.472 "></polyline>
<polyline clip-path="url(#clip292)" style="stroke:#000000; stroke-linecap:round; stroke-linejoin:round; stroke-width:2; stroke-opacity:0.1; fill:none" points="1306.35,1366.15 1306.35,123.472 "></polyline>
<polyline clip-path="url(#clip292)" style="stroke:#000000; stroke-linecap:round; stroke-linejoin:round; stroke-width:2; stroke-opacity:0.1; fill:none" points="2294.08,1366.15 2294.08,123.472 "></polyline>
<polyline clip-path="url(#clip292)" style="stroke:#000000; stroke-linecap:round; stroke-linejoin:round; stroke-width:2; stroke-opacity:0.1; fill:none" points="279.704,1243.79 2352.76,1243.79 "></polyline>
<polyline clip-path="url(#clip292)" style="stroke:#000000; stroke-linecap:round; stroke-linejoin:round; stroke-width:2; stroke-opacity:0.1; fill:none" points="279.704,1034.82 2352.76,1034.82 "></polyline>
<polyline clip-path="url(#clip292)" style="stroke:#000000; stroke-linecap:round; stroke-linejoin:round; stroke-width:2; stroke-opacity:0.1; fill:none" points="279.704,825.842 2352.76,825.842 "></polyline>
<polyline clip-path="url(#clip292)" style="stroke:#000000; stroke-linecap:round; stroke-linejoin:round; stroke-width:2; stroke-opacity:0.1; fill:none" points="279.704,616.869 2352.76,616.869 "></polyline>
<polyline clip-path="url(#clip292)" style="stroke:#000000; stroke-linecap:round; stroke-linejoin:round; stroke-width:2; stroke-opacity:0.1; fill:none" points="279.704,407.895 2352.76,407.895 "></polyline>
<polyline clip-path="url(#clip292)" style="stroke:#000000; stroke-linecap:round; stroke-linejoin:round; stroke-width:2; stroke-opacity:0.1; fill:none" points="279.704,198.922 2352.76,198.922 "></polyline>
<polyline clip-path="url(#clip290)" style="stroke:#000000; stroke-linecap:round; stroke-linejoin:round; stroke-width:4; stroke-opacity:1; fill:none" points="279.704,1366.15 2352.76,1366.15 "></polyline>
<polyline clip-path="url(#clip290)" style="stroke:#000000; stroke-linecap:round; stroke-linejoin:round; stroke-width:4; stroke-opacity:1; fill:none" points="338.375,1366.15 338.375,1347.25 "></polyline>
<polyline clip-path="url(#clip290)" style="stroke:#000000; stroke-linecap:round; stroke-linejoin:round; stroke-width:4; stroke-opacity:1; fill:none" points="417.394,1366.15 417.394,1347.25 "></polyline>
<polyline clip-path="url(#clip290)" style="stroke:#000000; stroke-linecap:round; stroke-linejoin:round; stroke-width:4; stroke-opacity:1; fill:none" points="516.167,1366.15 516.167,1347.25 "></polyline>
<polyline clip-path="url(#clip290)" style="stroke:#000000; stroke-linecap:round; stroke-linejoin:round; stroke-width:4; stroke-opacity:1; fill:none" points="614.94,1366.15 614.94,1347.25 "></polyline>
<polyline clip-path="url(#clip290)" style="stroke:#000000; stroke-linecap:round; stroke-linejoin:round; stroke-width:4; stroke-opacity:1; fill:none" points="713.713,1366.15 713.713,1347.25 "></polyline>
<polyline clip-path="url(#clip290)" style="stroke:#000000; stroke-linecap:round; stroke-linejoin:round; stroke-width:4; stroke-opacity:1; fill:none" points="1306.35,1366.15 1306.35,1347.25 "></polyline>
<polyline clip-path="url(#clip290)" style="stroke:#000000; stroke-linecap:round; stroke-linejoin:round; stroke-width:4; stroke-opacity:1; fill:none" points="2294.08,1366.15 2294.08,1347.25 "></polyline>
<path clip-path="url(#clip290)" d="M290.212 1470.71 L295.613 1465.31 L276.97 1446.67 L272.273 1453.72 L269.261 1450.71 L273.926 1443.69 L277.232 1440.38 L298.887 1462.04 L304.289 1456.64 L307.071 1459.42 L292.995 1473.5 L290.212 1470.71 Z" fill="#000000" fill-rule="nonzero" fill-opacity="1"></path><path clip-path="url(#clip290)" d="M298.56 1423.41 Q296.006 1425.96 297.234 1429.78 Q298.462 1433.56 303.503 1438.6 Q308.528 1443.62 312.325 1444.87 Q316.123 1446.08 318.676 1443.53 Q321.246 1440.96 320.018 1437.17 Q318.791 1433.36 313.766 1428.34 Q308.724 1423.29 304.927 1422.08 Q301.13 1420.84 298.56 1423.41 M295.941 1420.79 Q300.049 1416.68 305.467 1417.78 Q310.885 1418.84 317.072 1425.03 Q323.243 1431.2 324.323 1436.63 Q325.403 1442.04 321.295 1446.14 Q317.187 1450.25 311.769 1449.19 Q306.351 1448.09 300.18 1441.92 Q293.993 1435.73 292.913 1430.33 Q291.832 1424.9 295.941 1420.79 Z" fill="#000000" fill-rule="nonzero" fill-opacity="1"></path><path clip-path="url(#clip290)" d="M319.887 1402.08 Q317.334 1404.64 318.562 1408.45 Q319.789 1412.23 324.831 1417.27 Q329.856 1422.3 333.653 1423.54 Q337.45 1424.75 340.004 1422.2 Q342.574 1419.63 341.346 1415.85 Q340.118 1412.03 335.093 1407.01 Q330.052 1401.97 326.255 1400.76 Q322.457 1399.51 319.887 1402.08 M317.268 1399.46 Q321.377 1395.35 326.795 1396.45 Q332.213 1397.51 338.4 1403.7 Q344.571 1409.87 345.651 1415.31 Q346.731 1420.71 342.623 1424.82 Q338.514 1428.93 333.096 1427.86 Q327.679 1426.76 321.508 1420.59 Q315.321 1414.41 314.24 1409.01 Q313.16 1403.57 317.268 1399.46 Z" fill="#000000" fill-rule="nonzero" fill-opacity="1"></path><path clip-path="url(#clip290)" d="M347.035 1449.6 L360.015 1436.62 L362.798 1439.4 L352.846 1449.35 L358.837 1455.34 Q359.311 1454.38 359.917 1453.54 Q360.506 1452.69 361.227 1451.97 Q365.319 1447.88 369.951 1447.73 Q374.583 1447.58 378.413 1451.42 Q382.358 1455.36 382.096 1460.01 Q381.818 1464.64 377.349 1469.11 Q375.811 1470.65 373.945 1471.99 Q372.095 1473.32 369.869 1474.49 L366.546 1471.17 Q368.821 1470.5 370.786 1469.32 Q372.75 1468.14 374.501 1466.39 Q377.333 1463.56 377.496 1460.42 Q377.66 1457.27 375.107 1454.72 Q372.553 1452.17 369.411 1452.33 Q366.268 1452.5 363.436 1455.33 Q362.11 1456.65 361.079 1458.27 Q360.064 1459.88 359.311 1461.87 L347.035 1449.6 Z" fill="#000000" fill-rule="nonzero" fill-opacity="1"></path><path clip-path="url(#clip290)" d="M377.578 1423.41 Q375.025 1425.96 376.252 1429.78 Q377.48 1433.56 382.521 1438.6 Q387.546 1443.62 391.344 1444.87 Q395.141 1446.08 397.695 1443.53 Q400.265 1440.96 399.037 1437.17 Q397.809 1433.36 392.784 1428.34 Q387.743 1423.29 383.945 1422.08 Q380.148 1420.84 377.578 1423.41 M374.959 1420.79 Q379.068 1416.68 384.486 1417.78 Q389.903 1418.84 396.091 1425.03 Q402.261 1431.2 403.342 1436.63 Q404.422 1442.04 400.314 1446.14 Q396.205 1450.25 390.787 1449.19 Q385.37 1448.09 379.199 1441.92 Q373.012 1435.73 371.931 1430.33 Q370.851 1424.9 374.959 1420.79 Z" fill="#000000" fill-rule="nonzero" fill-opacity="1"></path><path clip-path="url(#clip290)" d="M398.906 1402.08 Q396.353 1404.64 397.58 1408.45 Q398.808 1412.23 403.849 1417.27 Q408.874 1422.3 412.672 1423.54 Q416.469 1424.75 419.022 1422.2 Q421.592 1419.63 420.365 1415.85 Q419.137 1412.03 414.112 1407.01 Q409.071 1401.97 405.273 1400.76 Q401.476 1399.51 398.906 1402.08 M396.287 1399.46 Q400.395 1395.35 405.813 1396.45 Q411.231 1397.51 417.418 1403.7 Q423.589 1409.87 424.669 1415.31 Q425.75 1420.71 421.641 1424.82 Q417.533 1428.93 412.115 1427.86 Q406.697 1426.76 400.526 1420.59 Q394.339 1414.41 393.259 1409.01 Q392.179 1403.57 396.287 1399.46 Z" fill="#000000" fill-rule="nonzero" fill-opacity="1"></path><path clip-path="url(#clip290)" d="M446.676 1492.04 L452.078 1486.64 L433.434 1468 L428.737 1475.05 L425.725 1472.04 L430.39 1465.02 L433.696 1461.71 L455.351 1483.37 L460.753 1477.96 L463.535 1480.75 L449.459 1494.82 L446.676 1492.04 Z" fill="#000000" fill-rule="nonzero" fill-opacity="1"></path><path clip-path="url(#clip290)" d="M455.024 1444.74 Q452.47 1447.29 453.698 1451.1 Q454.926 1454.89 459.967 1459.93 Q464.992 1464.95 468.789 1466.2 Q472.587 1467.41 475.14 1464.85 Q477.71 1462.28 476.482 1458.5 Q475.255 1454.69 470.23 1449.66 Q465.188 1444.62 461.391 1443.41 Q457.594 1442.17 455.024 1444.74 M452.405 1442.12 Q456.513 1438.01 461.931 1439.11 Q467.349 1440.17 473.536 1446.36 Q479.707 1452.53 480.787 1457.96 Q481.868 1463.36 477.759 1467.47 Q473.651 1471.58 468.233 1470.52 Q462.815 1469.42 456.644 1463.25 Q450.457 1457.06 449.377 1451.66 Q448.297 1446.23 452.405 1442.12 Z" fill="#000000" fill-rule="nonzero" fill-opacity="1"></path><path clip-path="url(#clip290)" d="M476.351 1423.41 Q473.798 1425.96 475.026 1429.78 Q476.253 1433.56 481.295 1438.6 Q486.32 1443.62 490.117 1444.87 Q493.914 1446.08 496.468 1443.53 Q499.038 1440.96 497.81 1437.17 Q496.582 1433.36 491.557 1428.34 Q486.516 1423.29 482.719 1422.08 Q478.921 1420.84 476.351 1423.41 M473.733 1420.79 Q477.841 1416.68 483.259 1417.78 Q488.677 1418.84 494.864 1425.03 Q501.035 1431.2 502.115 1436.63 Q503.195 1442.04 499.087 1446.14 Q494.978 1450.25 489.561 1449.19 Q484.143 1448.09 477.972 1441.92 Q471.785 1435.73 470.704 1430.33 Q469.624 1424.9 473.733 1420.79 Z" fill="#000000" fill-rule="nonzero" fill-opacity="1"></path><path clip-path="url(#clip290)" d="M497.679 1402.08 Q495.126 1404.64 496.353 1408.45 Q497.581 1412.23 502.622 1417.27 Q507.647 1422.3 511.445 1423.54 Q515.242 1424.75 517.796 1422.2 Q520.365 1419.63 519.138 1415.85 Q517.91 1412.03 512.885 1407.01 Q507.844 1401.97 504.046 1400.76 Q500.249 1399.51 497.679 1402.08 M495.06 1399.46 Q499.169 1395.35 504.587 1396.45 Q510.004 1397.51 516.192 1403.7 Q522.362 1409.87 523.443 1415.31 Q524.523 1420.71 520.414 1424.82 Q516.306 1428.93 510.888 1427.86 Q505.47 1426.76 499.3 1420.59 Q493.112 1414.41 492.032 1409.01 Q490.952 1403.57 495.06 1399.46 Z" fill="#000000" fill-rule="nonzero" fill-opacity="1"></path><path clip-path="url(#clip290)" d="M545.449 1492.04 L550.851 1486.64 L532.207 1468 L527.51 1475.05 L524.498 1472.04 L529.163 1465.02 L532.469 1461.71 L554.124 1483.37 L559.526 1477.96 L562.308 1480.75 L548.232 1494.82 L545.449 1492.04 Z" fill="#000000" fill-rule="nonzero" fill-opacity="1"></path><path clip-path="url(#clip290)" d="M544.582 1449.6 L557.562 1436.62 L560.344 1439.4 L550.392 1449.35 L556.383 1455.34 Q556.858 1454.38 557.463 1453.54 Q558.053 1452.69 558.773 1451.97 Q562.865 1447.88 567.497 1447.73 Q572.129 1447.58 575.959 1451.42 Q579.904 1455.36 579.642 1460.01 Q579.364 1464.64 574.896 1469.11 Q573.357 1470.65 571.491 1471.99 Q569.641 1473.32 567.415 1474.49 L564.093 1471.17 Q566.368 1470.5 568.332 1469.32 Q570.296 1468.14 572.047 1466.39 Q574.879 1463.56 575.043 1460.42 Q575.207 1457.27 572.653 1454.72 Q570.1 1452.17 566.957 1452.33 Q563.814 1452.5 560.983 1455.33 Q559.657 1456.65 558.626 1458.27 Q557.611 1459.88 556.858 1461.87 L544.582 1449.6 Z" fill="#000000" fill-rule="nonzero" fill-opacity="1"></path><path clip-path="url(#clip290)" d="M575.125 1423.41 Q572.571 1425.96 573.799 1429.78 Q575.026 1433.56 580.068 1438.6 Q585.093 1443.62 588.89 1444.87 Q592.688 1446.08 595.241 1443.53 Q597.811 1440.96 596.583 1437.17 Q595.356 1433.36 590.331 1428.34 Q585.289 1423.29 581.492 1422.08 Q577.694 1420.84 575.125 1423.41 M572.506 1420.79 Q576.614 1416.68 582.032 1417.78 Q587.45 1418.84 593.637 1425.03 Q599.808 1431.2 600.888 1436.63 Q601.968 1442.04 597.86 1446.14 Q593.752 1450.25 588.334 1449.19 Q582.916 1448.09 576.745 1441.92 Q570.558 1435.73 569.478 1430.33 Q568.397 1424.9 572.506 1420.79 Z" fill="#000000" fill-rule="nonzero" fill-opacity="1"></path><path clip-path="url(#clip290)" d="M596.452 1402.08 Q593.899 1404.64 595.127 1408.45 Q596.354 1412.23 601.396 1417.27 Q606.421 1422.3 610.218 1423.54 Q614.015 1424.75 616.569 1422.2 Q619.139 1419.63 617.911 1415.85 Q616.683 1412.03 611.658 1407.01 Q606.617 1401.97 602.82 1400.76 Q599.022 1399.51 596.452 1402.08 M593.833 1399.46 Q597.942 1395.35 603.36 1396.45 Q608.778 1397.51 614.965 1403.7 Q621.135 1409.87 622.216 1415.31 Q623.296 1420.71 619.188 1424.82 Q615.079 1428.93 609.661 1427.86 Q604.244 1426.76 598.073 1420.59 Q591.886 1414.41 590.805 1409.01 Q589.725 1403.57 593.833 1399.46 Z" fill="#000000" fill-rule="nonzero" fill-opacity="1"></path><path clip-path="url(#clip290)" d="M646.498 1489.77 L658.037 1478.23 L660.82 1481.01 L645.303 1496.53 L642.52 1493.74 Q642.455 1489.91 642.422 1483.4 Q642.389 1476.85 642.275 1475.07 Q642.078 1471.7 641.473 1469.85 Q640.867 1467.96 639.672 1466.77 Q637.724 1464.82 635.122 1464.97 Q632.536 1465.1 630.342 1467.29 Q628.787 1468.85 627.592 1471.12 Q626.414 1473.38 625.546 1476.44 L622.207 1473.1 Q623.402 1470.3 624.728 1468.16 Q626.054 1466.02 627.494 1464.58 Q631.292 1460.78 635.449 1460.42 Q639.607 1460.06 642.782 1463.23 Q644.288 1464.74 645.074 1466.67 Q645.859 1468.57 646.203 1471.89 Q646.269 1472.78 646.35 1477.24 Q646.416 1481.7 646.498 1489.77 Z" fill="#000000" fill-rule="nonzero" fill-opacity="1"></path><path clip-path="url(#clip290)" d="M652.57 1444.74 Q650.017 1447.29 651.244 1451.1 Q652.472 1454.89 657.513 1459.93 Q662.538 1464.95 666.336 1466.2 Q670.133 1467.41 672.687 1464.85 Q675.256 1462.28 674.029 1458.5 Q672.801 1454.69 667.776 1449.66 Q662.735 1444.62 658.937 1443.41 Q655.14 1442.17 652.57 1444.74 M649.951 1442.12 Q654.06 1438.01 659.478 1439.11 Q664.895 1440.17 671.083 1446.36 Q677.253 1452.53 678.334 1457.96 Q679.414 1463.36 675.306 1467.47 Q671.197 1471.58 665.779 1470.52 Q660.361 1469.42 654.191 1463.25 Q648.004 1457.06 646.923 1451.66 Q645.843 1446.23 649.951 1442.12 Z" fill="#000000" fill-rule="nonzero" fill-opacity="1"></path><path clip-path="url(#clip290)" d="M673.898 1423.41 Q671.344 1425.96 672.572 1429.78 Q673.8 1433.56 678.841 1438.6 Q683.866 1443.62 687.663 1444.87 Q691.461 1446.08 694.014 1443.53 Q696.584 1440.96 695.357 1437.17 Q694.129 1433.36 689.104 1428.34 Q684.063 1423.29 680.265 1422.08 Q676.468 1420.84 673.898 1423.41 M671.279 1420.79 Q675.387 1416.68 680.805 1417.78 Q686.223 1418.84 692.41 1425.03 Q698.581 1431.2 699.661 1436.63 Q700.742 1442.04 696.633 1446.14 Q692.525 1450.25 687.107 1449.19 Q681.689 1448.09 675.518 1441.92 Q669.331 1435.73 668.251 1430.33 Q667.171 1424.9 671.279 1420.79 Z" fill="#000000" fill-rule="nonzero" fill-opacity="1"></path><path clip-path="url(#clip290)" d="M695.226 1402.08 Q692.672 1404.64 693.9 1408.45 Q695.127 1412.23 700.169 1417.27 Q705.194 1422.3 708.991 1423.54 Q712.789 1424.75 715.342 1422.2 Q717.912 1419.63 716.684 1415.85 Q715.457 1412.03 710.432 1407.01 Q705.39 1401.97 701.593 1400.76 Q697.795 1399.51 695.226 1402.08 M692.607 1399.46 Q696.715 1395.35 702.133 1396.45 Q707.551 1397.51 713.738 1403.7 Q719.909 1409.87 720.989 1415.31 Q722.069 1420.71 717.961 1424.82 Q713.852 1428.93 708.435 1427.86 Q703.017 1426.76 696.846 1420.59 Q690.659 1414.41 689.579 1409.01 Q688.498 1403.57 692.607 1399.46 Z" fill="#000000" fill-rule="nonzero" fill-opacity="1"></path><path clip-path="url(#clip290)" d="M1214.67 1470.93 L1227.65 1457.95 L1230.43 1460.73 L1220.48 1470.68 L1226.47 1476.67 Q1226.94 1475.71 1227.55 1474.87 Q1228.14 1474.02 1228.86 1473.3 Q1232.95 1469.21 1237.58 1469.06 Q1242.21 1468.91 1246.04 1472.74 Q1249.99 1476.69 1249.73 1481.34 Q1249.45 1485.97 1244.98 1490.44 Q1243.44 1491.98 1241.58 1493.32 Q1239.73 1494.64 1237.5 1495.82 L1234.18 1492.5 Q1236.45 1491.83 1238.42 1490.65 Q1240.38 1489.47 1242.13 1487.72 Q1244.96 1484.89 1245.13 1481.75 Q1245.29 1478.6 1242.74 1476.05 Q1240.18 1473.5 1237.04 1473.66 Q1233.9 1473.82 1231.07 1476.65 Q1229.74 1477.98 1228.71 1479.6 Q1227.7 1481.21 1226.94 1483.2 L1214.67 1470.93 Z" fill="#000000" fill-rule="nonzero" fill-opacity="1"></path><path clip-path="url(#clip290)" d="M1245.21 1444.74 Q1242.66 1447.29 1243.88 1451.1 Q1245.11 1454.89 1250.15 1459.93 Q1255.18 1464.95 1258.98 1466.2 Q1262.77 1467.41 1265.33 1464.85 Q1267.9 1462.28 1266.67 1458.5 Q1265.44 1454.69 1260.42 1449.66 Q1255.37 1444.62 1251.58 1443.41 Q1247.78 1442.17 1245.21 1444.74 M1242.59 1442.12 Q1246.7 1438.01 1252.12 1439.11 Q1257.53 1440.17 1263.72 1446.36 Q1269.89 1452.53 1270.97 1457.96 Q1272.05 1463.36 1267.94 1467.47 Q1263.84 1471.58 1258.42 1470.52 Q1253 1469.42 1246.83 1463.25 Q1240.64 1457.06 1239.56 1451.66 Q1238.48 1446.23 1242.59 1442.12 Z" fill="#000000" fill-rule="nonzero" fill-opacity="1"></path><path clip-path="url(#clip290)" d="M1266.54 1423.41 Q1263.98 1425.96 1265.21 1429.78 Q1266.44 1433.56 1271.48 1438.6 Q1276.51 1443.62 1280.3 1444.87 Q1284.1 1446.08 1286.65 1443.53 Q1289.22 1440.96 1288 1437.17 Q1286.77 1433.36 1281.74 1428.34 Q1276.7 1423.29 1272.9 1422.08 Q1269.11 1420.84 1266.54 1423.41 M1263.92 1420.79 Q1268.03 1416.68 1273.44 1417.78 Q1278.86 1418.84 1285.05 1425.03 Q1291.22 1431.2 1292.3 1436.63 Q1293.38 1442.04 1289.27 1446.14 Q1285.16 1450.25 1279.75 1449.19 Q1274.33 1448.09 1268.16 1441.92 Q1261.97 1435.73 1260.89 1430.33 Q1259.81 1424.9 1263.92 1420.79 Z" fill="#000000" fill-rule="nonzero" fill-opacity="1"></path><path clip-path="url(#clip290)" d="M1287.86 1402.08 Q1285.31 1404.64 1286.54 1408.45 Q1287.77 1412.23 1292.81 1417.27 Q1297.83 1422.3 1301.63 1423.54 Q1305.43 1424.75 1307.98 1422.2 Q1310.55 1419.63 1309.32 1415.85 Q1308.1 1412.03 1303.07 1407.01 Q1298.03 1401.97 1294.23 1400.76 Q1290.43 1399.51 1287.86 1402.08 M1285.25 1399.46 Q1289.35 1395.35 1294.77 1396.45 Q1300.19 1397.51 1306.38 1403.7 Q1312.55 1409.87 1313.63 1415.31 Q1314.71 1420.71 1310.6 1424.82 Q1306.49 1428.93 1301.07 1427.86 Q1295.66 1426.76 1289.49 1420.59 Q1283.3 1414.41 1282.22 1409.01 Q1281.14 1403.57 1285.25 1399.46 Z" fill="#000000" fill-rule="nonzero" fill-opacity="1"></path><path clip-path="url(#clip290)" d="M2203.27 1513.37 L2208.67 1507.97 L2190.02 1489.32 L2185.33 1496.38 L2182.31 1493.37 L2186.98 1486.34 L2190.29 1483.04 L2211.94 1504.69 L2217.34 1499.29 L2220.13 1502.07 L2206.05 1516.15 L2203.27 1513.37 Z" fill="#000000" fill-rule="nonzero" fill-opacity="1"></path><path clip-path="url(#clip290)" d="M2211.61 1466.06 Q2209.06 1468.62 2210.29 1472.43 Q2211.52 1476.21 2216.56 1481.25 Q2221.58 1486.28 2225.38 1487.52 Q2229.18 1488.73 2231.73 1486.18 Q2234.3 1483.61 2233.07 1479.83 Q2231.84 1476.02 2226.82 1470.99 Q2221.78 1465.95 2217.98 1464.74 Q2214.18 1463.49 2211.61 1466.06 M2208.99 1463.45 Q2213.1 1459.34 2218.52 1460.43 Q2223.94 1461.5 2230.13 1467.69 Q2236.3 1473.86 2237.38 1479.29 Q2238.46 1484.69 2234.35 1488.8 Q2230.24 1492.91 2224.82 1491.84 Q2219.41 1490.75 2213.23 1484.58 Q2207.05 1478.39 2205.97 1472.99 Q2204.89 1467.55 2208.99 1463.45 Z" fill="#000000" fill-rule="nonzero" fill-opacity="1"></path><path clip-path="url(#clip290)" d="M2232.94 1444.74 Q2230.39 1447.29 2231.62 1451.1 Q2232.84 1454.89 2237.88 1459.93 Q2242.91 1464.95 2246.71 1466.2 Q2250.5 1467.41 2253.06 1464.85 Q2255.63 1462.28 2254.4 1458.5 Q2253.17 1454.69 2248.15 1449.66 Q2243.11 1444.62 2239.31 1443.41 Q2235.51 1442.17 2232.94 1444.74 M2230.32 1442.12 Q2234.43 1438.01 2239.85 1439.11 Q2245.27 1440.17 2251.45 1446.36 Q2257.62 1452.53 2258.7 1457.96 Q2259.79 1463.36 2255.68 1467.47 Q2251.57 1471.58 2246.15 1470.52 Q2240.73 1469.42 2234.56 1463.25 Q2228.37 1457.06 2227.29 1451.66 Q2226.21 1446.23 2230.32 1442.12 Z" fill="#000000" fill-rule="nonzero" fill-opacity="1"></path><path clip-path="url(#clip290)" d="M2254.27 1423.41 Q2251.72 1425.96 2252.94 1429.78 Q2254.17 1433.56 2259.21 1438.6 Q2264.24 1443.62 2268.03 1444.87 Q2271.83 1446.08 2274.39 1443.53 Q2276.96 1440.96 2275.73 1437.17 Q2274.5 1433.36 2269.48 1428.34 Q2264.43 1423.29 2260.64 1422.08 Q2256.84 1420.84 2254.27 1423.41 M2251.65 1420.79 Q2255.76 1416.68 2261.18 1417.78 Q2266.59 1418.84 2272.78 1425.03 Q2278.95 1431.2 2280.03 1436.63 Q2281.11 1442.04 2277 1446.14 Q2272.9 1450.25 2267.48 1449.19 Q2262.06 1448.09 2255.89 1441.92 Q2249.7 1435.73 2248.62 1430.33 Q2247.54 1424.9 2251.65 1420.79 Z" fill="#000000" fill-rule="nonzero" fill-opacity="1"></path><path clip-path="url(#clip290)" d="M2275.6 1402.08 Q2273.04 1404.64 2274.27 1408.45 Q2275.5 1412.23 2280.54 1417.27 Q2285.57 1422.3 2289.36 1423.54 Q2293.16 1424.75 2295.71 1422.2 Q2298.28 1419.63 2297.06 1415.85 Q2295.83 1412.03 2290.8 1407.01 Q2285.76 1401.97 2281.96 1400.76 Q2278.17 1399.51 2275.6 1402.08 M2272.98 1399.46 Q2277.09 1395.35 2282.5 1396.45 Q2287.92 1397.51 2294.11 1403.7 Q2300.28 1409.87 2301.36 1415.31 Q2302.44 1420.71 2298.33 1424.82 Q2294.22 1428.93 2288.81 1427.86 Q2283.39 1426.76 2277.22 1420.59 Q2271.03 1414.41 2269.95 1409.01 Q2268.87 1403.57 2272.98 1399.46 Z" fill="#000000" fill-rule="nonzero" fill-opacity="1"></path><path clip-path="url(#clip290)" d="M1011.09 1549.04 L1019.75 1549.04 L1040.82 1588.79 L1040.82 1549.04 L1047.06 1549.04 L1047.06 1596.56 L1038.4 1596.56 L1017.33 1556.81 L1017.33 1596.56 L1011.09 1596.56 L1011.09 1549.04 Z" fill="#000000" fill-rule="nonzero" fill-opacity="1"></path><path clip-path="url(#clip290)" d="M1058.99 1582.49 L1058.99 1560.91 L1064.85 1560.91 L1064.85 1582.27 Q1064.85 1587.33 1066.82 1589.88 Q1068.79 1592.39 1072.74 1592.39 Q1077.48 1592.39 1080.22 1589.37 Q1082.99 1586.34 1082.99 1581.12 L1082.99 1560.91 L1088.85 1560.91 L1088.85 1596.56 L1082.99 1596.56 L1082.99 1591.08 Q1080.86 1594.33 1078.03 1595.92 Q1075.22 1597.48 1071.5 1597.48 Q1065.36 1597.48 1062.17 1593.66 Q1058.99 1589.84 1058.99 1582.49 M1073.73 1560.05 L1073.73 1560.05 Z" fill="#000000" fill-rule="nonzero" fill-opacity="1"></path><path clip-path="url(#clip290)" d="M1128.66 1567.75 Q1130.86 1563.81 1133.92 1561.93 Q1136.97 1560.05 1141.11 1560.05 Q1146.68 1560.05 1149.7 1563.97 Q1152.73 1567.85 1152.73 1575.04 L1152.73 1596.56 L1146.84 1596.56 L1146.84 1575.23 Q1146.84 1570.11 1145.02 1567.63 Q1143.21 1565.14 1139.49 1565.14 Q1134.93 1565.14 1132.29 1568.17 Q1129.65 1571.19 1129.65 1576.41 L1129.65 1596.56 L1123.76 1596.56 L1123.76 1575.23 Q1123.76 1570.08 1121.95 1567.63 Q1120.13 1565.14 1116.35 1565.14 Q1111.86 1565.14 1109.22 1568.2 Q1106.58 1571.22 1106.58 1576.41 L1106.58 1596.56 L1100.69 1596.56 L1100.69 1560.91 L1106.58 1560.91 L1106.58 1566.45 Q1108.58 1563.17 1111.38 1561.61 Q1114.18 1560.05 1118.03 1560.05 Q1121.92 1560.05 1124.62 1562.03 Q1127.36 1564 1128.66 1567.75 Z" fill="#000000" fill-rule="nonzero" fill-opacity="1"></path><path clip-path="url(#clip290)" d="M1190 1578.77 Q1190 1572.31 1187.32 1568.65 Q1184.68 1564.95 1180.04 1564.95 Q1175.39 1564.95 1172.72 1568.65 Q1170.07 1572.31 1170.07 1578.77 Q1170.07 1585.23 1172.72 1588.92 Q1175.39 1592.58 1180.04 1592.58 Q1184.68 1592.58 1187.32 1588.92 Q1190 1585.23 1190 1578.77 M1170.07 1566.32 Q1171.92 1563.14 1174.72 1561.61 Q1177.55 1560.05 1181.47 1560.05 Q1187.96 1560.05 1192 1565.21 Q1196.08 1570.36 1196.08 1578.77 Q1196.08 1587.17 1192 1592.33 Q1187.96 1597.48 1181.47 1597.48 Q1177.55 1597.48 1174.72 1595.95 Q1171.92 1594.39 1170.07 1591.21 L1170.07 1596.56 L1164.19 1596.56 L1164.19 1547.03 L1170.07 1547.03 L1170.07 1566.32 Z" fill="#000000" fill-rule="nonzero" fill-opacity="1"></path><path clip-path="url(#clip290)" d="M1236.28 1577.27 L1236.28 1580.14 L1209.35 1580.14 Q1209.73 1586.18 1212.98 1589.37 Q1216.26 1592.52 1222.08 1592.52 Q1225.45 1592.52 1228.61 1591.69 Q1231.79 1590.86 1234.91 1589.21 L1234.91 1594.74 Q1231.76 1596.08 1228.45 1596.78 Q1225.14 1597.48 1221.73 1597.48 Q1213.2 1597.48 1208.2 1592.52 Q1203.24 1587.55 1203.24 1579.09 Q1203.24 1570.33 1207.95 1565.21 Q1212.69 1560.05 1220.71 1560.05 Q1227.91 1560.05 1232.08 1564.7 Q1236.28 1569.31 1236.28 1577.27 M1230.42 1575.55 Q1230.36 1570.75 1227.71 1567.88 Q1225.1 1565.02 1220.78 1565.02 Q1215.87 1565.02 1212.91 1567.79 Q1209.99 1570.56 1209.54 1575.58 L1230.42 1575.55 Z" fill="#000000" fill-rule="nonzero" fill-opacity="1"></path><path clip-path="url(#clip290)" d="M1266.55 1566.39 Q1265.56 1565.81 1264.38 1565.56 Q1263.24 1565.27 1261.83 1565.27 Q1256.87 1565.27 1254.2 1568.52 Q1251.55 1571.73 1251.55 1577.78 L1251.55 1596.56 L1245.67 1596.56 L1245.67 1560.91 L1251.55 1560.91 L1251.55 1566.45 Q1253.4 1563.2 1256.36 1561.64 Q1259.32 1560.05 1263.55 1560.05 Q1264.16 1560.05 1264.89 1560.15 Q1265.62 1560.21 1266.51 1560.37 L1266.55 1566.39 Z" fill="#000000" fill-rule="nonzero" fill-opacity="1"></path><path clip-path="url(#clip290)" d="M1307.22 1565.02 Q1302.51 1565.02 1299.77 1568.71 Q1297.04 1572.37 1297.04 1578.77 Q1297.04 1585.16 1299.74 1588.86 Q1302.48 1592.52 1307.22 1592.52 Q1311.9 1592.52 1314.64 1588.82 Q1317.38 1585.13 1317.38 1578.77 Q1317.38 1572.43 1314.64 1568.74 Q1311.9 1565.02 1307.22 1565.02 M1307.22 1560.05 Q1314.86 1560.05 1319.22 1565.02 Q1323.58 1569.98 1323.58 1578.77 Q1323.58 1587.52 1319.22 1592.52 Q1314.86 1597.48 1307.22 1597.48 Q1299.55 1597.48 1295.19 1592.52 Q1290.86 1587.52 1290.86 1578.77 Q1290.86 1569.98 1295.19 1565.02 Q1299.55 1560.05 1307.22 1560.05 Z" fill="#000000" fill-rule="nonzero" fill-opacity="1"></path><path clip-path="url(#clip290)" d="M1351.34 1547.03 L1351.34 1551.9 L1345.73 1551.9 Q1342.58 1551.9 1341.34 1553.18 Q1340.13 1554.45 1340.13 1557.76 L1340.13 1560.91 L1349.78 1560.91 L1349.78 1565.46 L1340.13 1565.46 L1340.13 1596.56 L1334.24 1596.56 L1334.24 1565.46 L1328.64 1565.46 L1328.64 1560.91 L1334.24 1560.91 L1334.24 1558.43 Q1334.24 1552.48 1337.01 1549.77 Q1339.78 1547.03 1345.8 1547.03 L1351.34 1547.03 Z" fill="#000000" fill-rule="nonzero" fill-opacity="1"></path><path clip-path="url(#clip290)" d="M1373.55 1560.91 L1379.41 1560.91 L1386.73 1588.73 L1394.02 1560.91 L1400.93 1560.91 L1408.25 1588.73 L1415.53 1560.91 L1421.39 1560.91 L1412.07 1596.56 L1405.16 1596.56 L1397.49 1567.34 L1389.79 1596.56 L1382.88 1596.56 L1373.55 1560.91 Z" fill="#000000" fill-rule="nonzero" fill-opacity="1"></path><path clip-path="url(#clip290)" d="M1460.76 1577.27 L1460.76 1580.14 L1433.84 1580.14 Q1434.22 1586.18 1437.46 1589.37 Q1440.74 1592.52 1446.57 1592.52 Q1449.94 1592.52 1453.09 1591.69 Q1456.28 1590.86 1459.39 1589.21 L1459.39 1594.74 Q1456.24 1596.08 1452.93 1596.78 Q1449.62 1597.48 1446.22 1597.48 Q1437.69 1597.48 1432.69 1592.52 Q1427.73 1587.55 1427.73 1579.09 Q1427.73 1570.33 1432.44 1565.21 Q1437.18 1560.05 1445.2 1560.05 Q1452.39 1560.05 1456.56 1564.7 Q1460.76 1569.31 1460.76 1577.27 M1454.91 1575.55 Q1454.84 1570.75 1452.2 1567.88 Q1449.59 1565.02 1445.26 1565.02 Q1440.36 1565.02 1437.4 1567.79 Q1434.47 1570.56 1434.03 1575.58 L1454.91 1575.55 Z" fill="#000000" fill-rule="nonzero" fill-opacity="1"></path><path clip-path="url(#clip290)" d="M1470.38 1560.91 L1476.23 1560.91 L1476.23 1596.56 L1470.38 1596.56 L1470.38 1560.91 M1470.38 1547.03 L1476.23 1547.03 L1476.23 1554.45 L1470.38 1554.45 L1470.38 1547.03 Z" fill="#000000" fill-rule="nonzero" fill-opacity="1"></path><path clip-path="url(#clip290)" d="M1511.94 1578.32 Q1511.94 1571.96 1509.3 1568.45 Q1506.69 1564.95 1501.95 1564.95 Q1497.24 1564.95 1494.6 1568.45 Q1491.99 1571.96 1491.99 1578.32 Q1491.99 1584.66 1494.6 1588.16 Q1497.24 1591.66 1501.95 1591.66 Q1506.69 1591.66 1509.3 1588.16 Q1511.94 1584.66 1511.94 1578.32 M1517.8 1592.13 Q1517.8 1601.24 1513.76 1605.66 Q1509.72 1610.12 1501.38 1610.12 Q1498.29 1610.12 1495.55 1609.64 Q1492.81 1609.2 1490.24 1608.24 L1490.24 1602.54 Q1492.81 1603.94 1495.33 1604.61 Q1497.84 1605.28 1500.45 1605.28 Q1506.21 1605.28 1509.08 1602.26 Q1511.94 1599.26 1511.94 1593.19 L1511.94 1590.29 Q1510.13 1593.44 1507.3 1595 Q1504.46 1596.56 1500.52 1596.56 Q1493.96 1596.56 1489.95 1591.56 Q1485.94 1586.56 1485.94 1578.32 Q1485.94 1570.05 1489.95 1565.05 Q1493.96 1560.05 1500.52 1560.05 Q1504.46 1560.05 1507.3 1561.61 Q1510.13 1563.17 1511.94 1566.32 L1511.94 1560.91 L1517.8 1560.91 L1517.8 1592.13 Z" fill="#000000" fill-rule="nonzero" fill-opacity="1"></path><path clip-path="url(#clip290)" d="M1559.5 1575.04 L1559.5 1596.56 L1553.64 1596.56 L1553.64 1575.23 Q1553.64 1570.17 1551.67 1567.66 Q1549.69 1565.14 1545.75 1565.14 Q1541 1565.14 1538.27 1568.17 Q1535.53 1571.19 1535.53 1576.41 L1535.53 1596.56 L1529.64 1596.56 L1529.64 1547.03 L1535.53 1547.03 L1535.53 1566.45 Q1537.63 1563.23 1540.46 1561.64 Q1543.33 1560.05 1547.05 1560.05 Q1553.19 1560.05 1556.34 1563.87 Q1559.5 1567.66 1559.5 1575.04 Z" fill="#000000" fill-rule="nonzero" fill-opacity="1"></path><path clip-path="url(#clip290)" d="M1576.97 1550.79 L1576.97 1560.91 L1589.03 1560.91 L1589.03 1565.46 L1576.97 1565.46 L1576.97 1584.81 Q1576.97 1589.17 1578.15 1590.42 Q1579.36 1591.66 1583.02 1591.66 L1589.03 1591.66 L1589.03 1596.56 L1583.02 1596.56 Q1576.24 1596.56 1573.66 1594.04 Q1571.08 1591.5 1571.08 1584.81 L1571.08 1565.46 L1566.78 1565.46 L1566.78 1560.91 L1571.08 1560.91 L1571.08 1550.79 L1576.97 1550.79 Z" fill="#000000" fill-rule="nonzero" fill-opacity="1"></path><path clip-path="url(#clip290)" d="M1619.46 1561.96 L1619.46 1567.5 Q1616.98 1566.23 1614.3 1565.59 Q1611.63 1564.95 1608.77 1564.95 Q1604.41 1564.95 1602.21 1566.29 Q1600.04 1567.63 1600.04 1570.3 Q1600.04 1572.34 1601.6 1573.52 Q1603.16 1574.66 1607.87 1575.71 L1609.88 1576.16 Q1616.12 1577.49 1618.73 1579.94 Q1621.37 1582.36 1621.37 1586.72 Q1621.37 1591.69 1617.42 1594.59 Q1613.51 1597.48 1606.63 1597.48 Q1603.77 1597.48 1600.65 1596.91 Q1597.56 1596.37 1594.12 1595.25 L1594.12 1589.21 Q1597.37 1590.89 1600.52 1591.75 Q1603.67 1592.58 1606.76 1592.58 Q1610.9 1592.58 1613.13 1591.18 Q1615.35 1589.75 1615.35 1587.17 Q1615.35 1584.78 1613.73 1583.51 Q1612.14 1582.24 1606.7 1581.06 L1604.66 1580.58 Q1599.22 1579.44 1596.8 1577.08 Q1594.38 1574.69 1594.38 1570.56 Q1594.38 1565.53 1597.94 1562.79 Q1601.51 1560.05 1608.07 1560.05 Q1611.31 1560.05 1614.18 1560.53 Q1617.04 1561.01 1619.46 1561.96 Z" fill="#000000" fill-rule="nonzero" fill-opacity="1"></path><polyline clip-path="url(#clip290)" style="stroke:#000000; stroke-linecap:round; stroke-linejoin:round; stroke-width:4; stroke-opacity:1; fill:none" points="279.704,1366.15 279.704,123.472 "></polyline>
<polyline clip-path="url(#clip290)" style="stroke:#000000; stroke-linecap:round; stroke-linejoin:round; stroke-width:4; stroke-opacity:1; fill:none" points="279.704,1243.79 298.602,1243.79 "></polyline>
<polyline clip-path="url(#clip290)" style="stroke:#000000; stroke-linecap:round; stroke-linejoin:round; stroke-width:4; stroke-opacity:1; fill:none" points="279.704,1034.82 298.602,1034.82 "></polyline>
<polyline clip-path="url(#clip290)" style="stroke:#000000; stroke-linecap:round; stroke-linejoin:round; stroke-width:4; stroke-opacity:1; fill:none" points="279.704,825.842 298.602,825.842 "></polyline>
<polyline clip-path="url(#clip290)" style="stroke:#000000; stroke-linecap:round; stroke-linejoin:round; stroke-width:4; stroke-opacity:1; fill:none" points="279.704,616.869 298.602,616.869 "></polyline>
<polyline clip-path="url(#clip290)" style="stroke:#000000; stroke-linecap:round; stroke-linejoin:round; stroke-width:4; stroke-opacity:1; fill:none" points="279.704,407.895 298.602,407.895 "></polyline>
<polyline clip-path="url(#clip290)" style="stroke:#000000; stroke-linecap:round; stroke-linejoin:round; stroke-width:4; stroke-opacity:1; fill:none" points="279.704,198.922 298.602,198.922 "></polyline>
<path clip-path="url(#clip290)" d="M127.2 1229.59 Q123.589 1229.59 121.76 1233.15 Q119.955 1236.69 119.955 1243.82 Q119.955 1250.93 121.76 1254.49 Q123.589 1258.04 127.2 1258.04 Q130.834 1258.04 132.64 1254.49 Q134.468 1250.93 134.468 1243.82 Q134.468 1236.69 132.64 1233.15 Q130.834 1229.59 127.2 1229.59 M127.2 1225.88 Q133.01 1225.88 136.066 1230.49 Q139.144 1235.07 139.144 1243.82 Q139.144 1252.55 136.066 1257.16 Q133.01 1261.74 127.2 1261.74 Q121.39 1261.74 118.311 1257.16 Q115.256 1252.55 115.256 1243.82 Q115.256 1235.07 118.311 1230.49 Q121.39 1225.88 127.2 1225.88 Z" fill="#000000" fill-rule="nonzero" fill-opacity="1"></path><path clip-path="url(#clip290)" d="M147.362 1255.19 L152.246 1255.19 L152.246 1261.07 L147.362 1261.07 L147.362 1255.19 Z" fill="#000000" fill-rule="nonzero" fill-opacity="1"></path><path clip-path="url(#clip290)" d="M172.431 1229.59 Q168.82 1229.59 166.991 1233.15 Q165.186 1236.69 165.186 1243.82 Q165.186 1250.93 166.991 1254.49 Q168.82 1258.04 172.431 1258.04 Q176.065 1258.04 177.871 1254.49 Q179.7 1250.93 179.7 1243.82 Q179.7 1236.69 177.871 1233.15 Q176.065 1229.59 172.431 1229.59 M172.431 1225.88 Q178.241 1225.88 181.297 1230.49 Q184.376 1235.07 184.376 1243.82 Q184.376 1252.55 181.297 1257.16 Q178.241 1261.74 172.431 1261.74 Q166.621 1261.74 163.542 1257.16 Q160.487 1252.55 160.487 1243.82 Q160.487 1235.07 163.542 1230.49 Q166.621 1225.88 172.431 1225.88 Z" fill="#000000" fill-rule="nonzero" fill-opacity="1"></path><path clip-path="url(#clip290)" d="M202.593 1229.59 Q198.982 1229.59 197.153 1233.15 Q195.348 1236.69 195.348 1243.82 Q195.348 1250.93 197.153 1254.49 Q198.982 1258.04 202.593 1258.04 Q206.227 1258.04 208.033 1254.49 Q209.861 1250.93 209.861 1243.82 Q209.861 1236.69 208.033 1233.15 Q206.227 1229.59 202.593 1229.59 M202.593 1225.88 Q208.403 1225.88 211.459 1230.49 Q214.537 1235.07 214.537 1243.82 Q214.537 1252.55 211.459 1257.16 Q208.403 1261.74 202.593 1261.74 Q196.783 1261.74 193.704 1257.16 Q190.649 1252.55 190.649 1243.82 Q190.649 1235.07 193.704 1230.49 Q196.783 1225.88 202.593 1225.88 Z" fill="#000000" fill-rule="nonzero" fill-opacity="1"></path><path clip-path="url(#clip290)" d="M222.801 1226.51 L241.158 1226.51 L241.158 1230.44 L227.084 1230.44 L227.084 1238.92 Q228.102 1238.57 229.121 1238.41 Q230.139 1238.22 231.158 1238.22 Q236.945 1238.22 240.324 1241.39 Q243.704 1244.56 243.704 1249.98 Q243.704 1255.56 240.232 1258.66 Q236.76 1261.74 230.44 1261.74 Q228.264 1261.74 225.996 1261.37 Q223.75 1261 221.343 1260.26 L221.343 1255.56 Q223.426 1256.69 225.648 1257.25 Q227.871 1257.8 230.347 1257.8 Q234.352 1257.8 236.69 1255.7 Q239.028 1253.59 239.028 1249.98 Q239.028 1246.37 236.69 1244.26 Q234.352 1242.16 230.347 1242.16 Q228.473 1242.16 226.598 1242.57 Q224.746 1242.99 222.801 1243.87 L222.801 1226.51 Z" fill="#000000" fill-rule="nonzero" fill-opacity="1"></path><path clip-path="url(#clip290)" d="M126.205 1020.61 Q122.593 1020.61 120.765 1024.18 Q118.959 1027.72 118.959 1034.85 Q118.959 1041.96 120.765 1045.52 Q122.593 1049.06 126.205 1049.06 Q129.839 1049.06 131.644 1045.52 Q133.473 1041.96 133.473 1034.85 Q133.473 1027.72 131.644 1024.18 Q129.839 1020.61 126.205 1020.61 M126.205 1016.91 Q132.015 1016.91 135.07 1021.52 Q138.149 1026.1 138.149 1034.85 Q138.149 1043.58 135.07 1048.18 Q132.015 1052.77 126.205 1052.77 Q120.394 1052.77 117.316 1048.18 Q114.26 1043.58 114.26 1034.85 Q114.26 1026.1 117.316 1021.52 Q120.394 1016.91 126.205 1016.91 Z" fill="#000000" fill-rule="nonzero" fill-opacity="1"></path><path clip-path="url(#clip290)" d="M146.366 1046.22 L151.251 1046.22 L151.251 1052.1 L146.366 1052.1 L146.366 1046.22 Z" fill="#000000" fill-rule="nonzero" fill-opacity="1"></path><path clip-path="url(#clip290)" d="M171.436 1020.61 Q167.825 1020.61 165.996 1024.18 Q164.19 1027.72 164.19 1034.85 Q164.19 1041.96 165.996 1045.52 Q167.825 1049.06 171.436 1049.06 Q175.07 1049.06 176.876 1045.52 Q178.704 1041.96 178.704 1034.85 Q178.704 1027.72 176.876 1024.18 Q175.07 1020.61 171.436 1020.61 M171.436 1016.91 Q177.246 1016.91 180.301 1021.52 Q183.38 1026.1 183.38 1034.85 Q183.38 1043.58 180.301 1048.18 Q177.246 1052.77 171.436 1052.77 Q165.626 1052.77 162.547 1048.18 Q159.491 1043.58 159.491 1034.85 Q159.491 1026.1 162.547 1021.52 Q165.626 1016.91 171.436 1016.91 Z" fill="#000000" fill-rule="nonzero" fill-opacity="1"></path><path clip-path="url(#clip290)" d="M192.408 1048.16 L200.047 1048.16 L200.047 1021.79 L191.737 1023.46 L191.737 1019.2 L200 1017.54 L204.676 1017.54 L204.676 1048.16 L212.315 1048.16 L212.315 1052.1 L192.408 1052.1 L192.408 1048.16 Z" fill="#000000" fill-rule="nonzero" fill-opacity="1"></path><path clip-path="url(#clip290)" d="M231.76 1020.61 Q228.148 1020.61 226.32 1024.18 Q224.514 1027.72 224.514 1034.85 Q224.514 1041.96 226.32 1045.52 Q228.148 1049.06 231.76 1049.06 Q235.394 1049.06 237.199 1045.52 Q239.028 1041.96 239.028 1034.85 Q239.028 1027.72 237.199 1024.18 Q235.394 1020.61 231.76 1020.61 M231.76 1016.91 Q237.57 1016.91 240.625 1021.52 Q243.704 1026.1 243.704 1034.85 Q243.704 1043.58 240.625 1048.18 Q237.57 1052.77 231.76 1052.77 Q225.949 1052.77 222.871 1048.18 Q219.815 1043.58 219.815 1034.85 Q219.815 1026.1 222.871 1021.52 Q225.949 1016.91 231.76 1016.91 Z" fill="#000000" fill-rule="nonzero" fill-opacity="1"></path><path clip-path="url(#clip290)" d="M127.2 811.641 Q123.589 811.641 121.76 815.206 Q119.955 818.747 119.955 825.877 Q119.955 832.983 121.76 836.548 Q123.589 840.09 127.2 840.09 Q130.834 840.09 132.64 836.548 Q134.468 832.983 134.468 825.877 Q134.468 818.747 132.64 815.206 Q130.834 811.641 127.2 811.641 M127.2 807.937 Q133.01 807.937 136.066 812.543 Q139.144 817.127 139.144 825.877 Q139.144 834.604 136.066 839.21 Q133.01 843.793 127.2 843.793 Q121.39 843.793 118.311 839.21 Q115.256 834.604 115.256 825.877 Q115.256 817.127 118.311 812.543 Q121.39 807.937 127.2 807.937 Z" fill="#000000" fill-rule="nonzero" fill-opacity="1"></path><path clip-path="url(#clip290)" d="M147.362 837.242 L152.246 837.242 L152.246 843.122 L147.362 843.122 L147.362 837.242 Z" fill="#000000" fill-rule="nonzero" fill-opacity="1"></path><path clip-path="url(#clip290)" d="M172.431 811.641 Q168.82 811.641 166.991 815.206 Q165.186 818.747 165.186 825.877 Q165.186 832.983 166.991 836.548 Q168.82 840.09 172.431 840.09 Q176.065 840.09 177.871 836.548 Q179.7 832.983 179.7 825.877 Q179.7 818.747 177.871 815.206 Q176.065 811.641 172.431 811.641 M172.431 807.937 Q178.241 807.937 181.297 812.543 Q184.376 817.127 184.376 825.877 Q184.376 834.604 181.297 839.21 Q178.241 843.793 172.431 843.793 Q166.621 843.793 163.542 839.21 Q160.487 834.604 160.487 825.877 Q160.487 817.127 163.542 812.543 Q166.621 807.937 172.431 807.937 Z" fill="#000000" fill-rule="nonzero" fill-opacity="1"></path><path clip-path="url(#clip290)" d="M193.403 839.187 L201.042 839.187 L201.042 812.821 L192.732 814.488 L192.732 810.229 L200.996 808.562 L205.672 808.562 L205.672 839.187 L213.311 839.187 L213.311 843.122 L193.403 843.122 L193.403 839.187 Z" fill="#000000" fill-rule="nonzero" fill-opacity="1"></path><path clip-path="url(#clip290)" d="M222.801 808.562 L241.158 808.562 L241.158 812.497 L227.084 812.497 L227.084 820.969 Q228.102 820.622 229.121 820.46 Q230.139 820.275 231.158 820.275 Q236.945 820.275 240.324 823.446 Q243.704 826.617 243.704 832.034 Q243.704 837.613 240.232 840.715 Q236.76 843.793 230.44 843.793 Q228.264 843.793 225.996 843.423 Q223.75 843.053 221.343 842.312 L221.343 837.613 Q223.426 838.747 225.648 839.303 Q227.871 839.858 230.347 839.858 Q234.352 839.858 236.69 837.752 Q239.028 835.645 239.028 832.034 Q239.028 828.423 236.69 826.317 Q234.352 824.21 230.347 824.21 Q228.473 824.21 226.598 824.627 Q224.746 825.043 222.801 825.923 L222.801 808.562 Z" fill="#000000" fill-rule="nonzero" fill-opacity="1"></path><path clip-path="url(#clip290)" d="M126.205 602.667 Q122.593 602.667 120.765 606.232 Q118.959 609.774 118.959 616.903 Q118.959 624.01 120.765 627.575 Q122.593 631.116 126.205 631.116 Q129.839 631.116 131.644 627.575 Q133.473 624.01 133.473 616.903 Q133.473 609.774 131.644 606.232 Q129.839 602.667 126.205 602.667 M126.205 598.964 Q132.015 598.964 135.07 603.57 Q138.149 608.153 138.149 616.903 Q138.149 625.63 135.07 630.237 Q132.015 634.82 126.205 634.82 Q120.394 634.82 117.316 630.237 Q114.26 625.63 114.26 616.903 Q114.26 608.153 117.316 603.57 Q120.394 598.964 126.205 598.964 Z" fill="#000000" fill-rule="nonzero" fill-opacity="1"></path><path clip-path="url(#clip290)" d="M146.366 628.269 L151.251 628.269 L151.251 634.149 L146.366 634.149 L146.366 628.269 Z" fill="#000000" fill-rule="nonzero" fill-opacity="1"></path><path clip-path="url(#clip290)" d="M171.436 602.667 Q167.825 602.667 165.996 606.232 Q164.19 609.774 164.19 616.903 Q164.19 624.01 165.996 627.575 Q167.825 631.116 171.436 631.116 Q175.07 631.116 176.876 627.575 Q178.704 624.01 178.704 616.903 Q178.704 609.774 176.876 606.232 Q175.07 602.667 171.436 602.667 M171.436 598.964 Q177.246 598.964 180.301 603.57 Q183.38 608.153 183.38 616.903 Q183.38 625.63 180.301 630.237 Q177.246 634.82 171.436 634.82 Q165.626 634.82 162.547 630.237 Q159.491 625.63 159.491 616.903 Q159.491 608.153 162.547 603.57 Q165.626 598.964 171.436 598.964 Z" fill="#000000" fill-rule="nonzero" fill-opacity="1"></path><path clip-path="url(#clip290)" d="M195.625 630.214 L211.945 630.214 L211.945 634.149 L190 634.149 L190 630.214 Q192.663 627.459 197.246 622.829 Q201.852 618.177 203.033 616.834 Q205.278 614.311 206.158 612.575 Q207.061 610.816 207.061 609.126 Q207.061 606.371 205.116 604.635 Q203.195 602.899 200.093 602.899 Q197.894 602.899 195.44 603.663 Q193.01 604.427 190.232 605.978 L190.232 601.255 Q193.056 600.121 195.51 599.542 Q197.963 598.964 200 598.964 Q205.371 598.964 208.565 601.649 Q211.76 604.334 211.76 608.825 Q211.76 610.954 210.949 612.876 Q210.162 614.774 208.056 617.366 Q207.477 618.038 204.375 621.255 Q201.274 624.45 195.625 630.214 Z" fill="#000000" fill-rule="nonzero" fill-opacity="1"></path><path clip-path="url(#clip290)" d="M231.76 602.667 Q228.148 602.667 226.32 606.232 Q224.514 609.774 224.514 616.903 Q224.514 624.01 226.32 627.575 Q228.148 631.116 231.76 631.116 Q235.394 631.116 237.199 627.575 Q239.028 624.01 239.028 616.903 Q239.028 609.774 237.199 606.232 Q235.394 602.667 231.76 602.667 M231.76 598.964 Q237.57 598.964 240.625 603.57 Q243.704 608.153 243.704 616.903 Q243.704 625.63 240.625 630.237 Q237.57 634.82 231.76 634.82 Q225.949 634.82 222.871 630.237 Q219.815 625.63 219.815 616.903 Q219.815 608.153 222.871 603.57 Q225.949 598.964 231.76 598.964 Z" fill="#000000" fill-rule="nonzero" fill-opacity="1"></path><path clip-path="url(#clip290)" d="M127.2 393.694 Q123.589 393.694 121.76 397.259 Q119.955 400.801 119.955 407.93 Q119.955 415.037 121.76 418.601 Q123.589 422.143 127.2 422.143 Q130.834 422.143 132.64 418.601 Q134.468 415.037 134.468 407.93 Q134.468 400.801 132.64 397.259 Q130.834 393.694 127.2 393.694 M127.2 389.99 Q133.01 389.99 136.066 394.597 Q139.144 399.18 139.144 407.93 Q139.144 416.657 136.066 421.263 Q133.01 425.847 127.2 425.847 Q121.39 425.847 118.311 421.263 Q115.256 416.657 115.256 407.93 Q115.256 399.18 118.311 394.597 Q121.39 389.99 127.2 389.99 Z" fill="#000000" fill-rule="nonzero" fill-opacity="1"></path><path clip-path="url(#clip290)" d="M147.362 419.296 L152.246 419.296 L152.246 425.175 L147.362 425.175 L147.362 419.296 Z" fill="#000000" fill-rule="nonzero" fill-opacity="1"></path><path clip-path="url(#clip290)" d="M172.431 393.694 Q168.82 393.694 166.991 397.259 Q165.186 400.801 165.186 407.93 Q165.186 415.037 166.991 418.601 Q168.82 422.143 172.431 422.143 Q176.065 422.143 177.871 418.601 Q179.7 415.037 179.7 407.93 Q179.7 400.801 177.871 397.259 Q176.065 393.694 172.431 393.694 M172.431 389.99 Q178.241 389.99 181.297 394.597 Q184.376 399.18 184.376 407.93 Q184.376 416.657 181.297 421.263 Q178.241 425.847 172.431 425.847 Q166.621 425.847 163.542 421.263 Q160.487 416.657 160.487 407.93 Q160.487 399.18 163.542 394.597 Q166.621 389.99 172.431 389.99 Z" fill="#000000" fill-rule="nonzero" fill-opacity="1"></path><path clip-path="url(#clip290)" d="M196.621 421.24 L212.94 421.24 L212.94 425.175 L190.996 425.175 L190.996 421.24 Q193.658 418.486 198.241 413.856 Q202.848 409.203 204.028 407.861 Q206.274 405.338 207.153 403.601 Q208.056 401.842 208.056 400.152 Q208.056 397.398 206.112 395.662 Q204.19 393.926 201.088 393.926 Q198.889 393.926 196.436 394.689 Q194.005 395.453 191.227 397.004 L191.227 392.282 Q194.051 391.148 196.505 390.569 Q198.959 389.99 200.996 389.99 Q206.366 389.99 209.561 392.676 Q212.755 395.361 212.755 399.851 Q212.755 401.981 211.945 403.902 Q211.158 405.801 209.051 408.393 Q208.473 409.064 205.371 412.282 Q202.269 415.476 196.621 421.24 Z" fill="#000000" fill-rule="nonzero" fill-opacity="1"></path><path clip-path="url(#clip290)" d="M222.801 390.615 L241.158 390.615 L241.158 394.551 L227.084 394.551 L227.084 403.023 Q228.102 402.676 229.121 402.513 Q230.139 402.328 231.158 402.328 Q236.945 402.328 240.324 405.5 Q243.704 408.671 243.704 414.088 Q243.704 419.666 240.232 422.768 Q236.76 425.847 230.44 425.847 Q228.264 425.847 225.996 425.476 Q223.75 425.106 221.343 424.365 L221.343 419.666 Q223.426 420.8 225.648 421.356 Q227.871 421.912 230.347 421.912 Q234.352 421.912 236.69 419.805 Q239.028 417.699 239.028 414.088 Q239.028 410.476 236.69 408.37 Q234.352 406.263 230.347 406.263 Q228.473 406.263 226.598 406.68 Q224.746 407.097 222.801 407.976 L222.801 390.615 Z" fill="#000000" fill-rule="nonzero" fill-opacity="1"></path><path clip-path="url(#clip290)" d="M126.205 184.721 Q122.593 184.721 120.765 188.286 Q118.959 191.827 118.959 198.957 Q118.959 206.063 120.765 209.628 Q122.593 213.17 126.205 213.17 Q129.839 213.17 131.644 209.628 Q133.473 206.063 133.473 198.957 Q133.473 191.827 131.644 188.286 Q129.839 184.721 126.205 184.721 M126.205 181.017 Q132.015 181.017 135.07 185.624 Q138.149 190.207 138.149 198.957 Q138.149 207.684 135.07 212.29 Q132.015 216.873 126.205 216.873 Q120.394 216.873 117.316 212.29 Q114.26 207.684 114.26 198.957 Q114.26 190.207 117.316 185.624 Q120.394 181.017 126.205 181.017 Z" fill="#000000" fill-rule="nonzero" fill-opacity="1"></path><path clip-path="url(#clip290)" d="M146.366 210.322 L151.251 210.322 L151.251 216.202 L146.366 216.202 L146.366 210.322 Z" fill="#000000" fill-rule="nonzero" fill-opacity="1"></path><path clip-path="url(#clip290)" d="M171.436 184.721 Q167.825 184.721 165.996 188.286 Q164.19 191.827 164.19 198.957 Q164.19 206.063 165.996 209.628 Q167.825 213.17 171.436 213.17 Q175.07 213.17 176.876 209.628 Q178.704 206.063 178.704 198.957 Q178.704 191.827 176.876 188.286 Q175.07 184.721 171.436 184.721 M171.436 181.017 Q177.246 181.017 180.301 185.624 Q183.38 190.207 183.38 198.957 Q183.38 207.684 180.301 212.29 Q177.246 216.873 171.436 216.873 Q165.626 216.873 162.547 212.29 Q159.491 207.684 159.491 198.957 Q159.491 190.207 162.547 185.624 Q165.626 181.017 171.436 181.017 Z" fill="#000000" fill-rule="nonzero" fill-opacity="1"></path><path clip-path="url(#clip290)" d="M205.764 197.568 Q209.121 198.286 210.996 200.554 Q212.894 202.823 212.894 206.156 Q212.894 211.272 209.375 214.072 Q205.857 216.873 199.375 216.873 Q197.2 216.873 194.885 216.434 Q192.593 216.017 190.139 215.16 L190.139 210.647 Q192.084 211.781 194.399 212.36 Q196.713 212.938 199.237 212.938 Q203.635 212.938 205.926 211.202 Q208.241 209.466 208.241 206.156 Q208.241 203.1 206.088 201.387 Q203.959 199.651 200.139 199.651 L196.112 199.651 L196.112 195.809 L200.325 195.809 Q203.774 195.809 205.602 194.443 Q207.431 193.054 207.431 190.461 Q207.431 187.799 205.533 186.387 Q203.658 184.952 200.139 184.952 Q198.218 184.952 196.019 185.369 Q193.82 185.786 191.181 186.665 L191.181 182.499 Q193.843 181.758 196.158 181.387 Q198.496 181.017 200.556 181.017 Q205.88 181.017 208.982 183.448 Q212.084 185.855 212.084 189.975 Q212.084 192.846 210.44 194.836 Q208.797 196.804 205.764 197.568 Z" fill="#000000" fill-rule="nonzero" fill-opacity="1"></path><path clip-path="url(#clip290)" d="M231.76 184.721 Q228.148 184.721 226.32 188.286 Q224.514 191.827 224.514 198.957 Q224.514 206.063 226.32 209.628 Q228.148 213.17 231.76 213.17 Q235.394 213.17 237.199 209.628 Q239.028 206.063 239.028 198.957 Q239.028 191.827 237.199 188.286 Q235.394 184.721 231.76 184.721 M231.76 181.017 Q237.57 181.017 240.625 185.624 Q243.704 190.207 243.704 198.957 Q243.704 207.684 240.625 212.29 Q237.57 216.873 231.76 216.873 Q225.949 216.873 222.871 212.29 Q219.815 207.684 219.815 198.957 Q219.815 190.207 222.871 185.624 Q225.949 181.017 231.76 181.017 Z" fill="#000000" fill-rule="nonzero" fill-opacity="1"></path><path clip-path="url(#clip290)" d="M46.0847 1080.41 Q46.0847 1087.51 47.7079 1090.25 Q49.3312 1092.98 53.2461 1092.98 Q56.3653 1092.98 58.2114 1090.95 Q60.0256 1088.88 60.0256 1085.34 Q60.0256 1080.47 56.5881 1077.55 Q53.1188 1074.59 47.3897 1074.59 L46.0847 1074.59 L46.0847 1080.41 M43.6657 1068.73 L64.0042 1068.73 L64.0042 1074.59 L58.5933 1074.59 Q61.8398 1076.59 63.3994 1079.58 Q64.9272 1082.58 64.9272 1086.9 Q64.9272 1092.38 61.8716 1095.62 Q58.7843 1098.84 53.6281 1098.84 Q47.6125 1098.84 44.5569 1094.83 Q41.5014 1090.79 41.5014 1082.8 L41.5014 1074.59 L40.9285 1074.59 Q36.8862 1074.59 34.6901 1077.26 Q32.4621 1079.9 32.4621 1084.71 Q32.4621 1087.76 33.1941 1090.66 Q33.9262 1093.56 35.3903 1096.23 L29.9795 1096.23 Q28.7381 1093.01 28.1334 1089.99 Q27.4968 1086.97 27.4968 1084.1 Q27.4968 1076.37 31.5072 1072.55 Q35.5176 1068.73 43.6657 1068.73 Z" fill="#000000" fill-rule="nonzero" fill-opacity="1"></path><path clip-path="url(#clip290)" d="M28.3562 1060.87 L28.3562 1054.66 L58.275 1043.52 L28.3562 1032.38 L28.3562 1026.17 L64.0042 1039.54 L64.0042 1047.5 L28.3562 1060.87 Z" fill="#000000" fill-rule="nonzero" fill-opacity="1"></path><path clip-path="url(#clip290)" d="M44.7161 987.599 L47.5806 987.599 L47.5806 1014.53 Q53.6281 1014.14 56.8109 1010.9 Q59.9619 1007.62 59.9619 1001.79 Q59.9619 998.42 59.1344 995.269 Q58.3069 992.087 56.6518 988.967 L62.1899 988.967 Q63.5267 992.118 64.227 995.429 Q64.9272 998.739 64.9272 1002.14 Q64.9272 1010.67 59.9619 1015.67 Q54.9967 1020.64 46.5303 1020.64 Q37.7774 1020.64 32.6531 1015.93 Q27.4968 1011.18 27.4968 1003.16 Q27.4968 995.97 32.1438 991.8 Q36.7589 987.599 44.7161 987.599 M42.9973 993.455 Q38.1912 993.519 35.3266 996.161 Q32.4621 998.771 32.4621 1003.1 Q32.4621 1008 35.2312 1010.96 Q38.0002 1013.89 43.0292 1014.33 L42.9973 993.455 Z" fill="#000000" fill-rule="nonzero" fill-opacity="1"></path><path clip-path="url(#clip290)" d="M33.8307 957.33 Q33.2578 958.316 33.0032 959.494 Q32.7167 960.64 32.7167 962.04 Q32.7167 967.006 35.9632 969.679 Q39.1779 972.321 45.2253 972.321 L64.0042 972.321 L64.0042 978.209 L28.3562 978.209 L28.3562 972.321 L33.8944 972.321 Q30.6479 970.475 29.0883 967.515 Q27.4968 964.555 27.4968 960.322 Q27.4968 959.717 27.5923 958.985 Q27.656 958.253 27.8151 957.362 L33.8307 957.33 Z" fill="#000000" fill-rule="nonzero" fill-opacity="1"></path><path clip-path="url(#clip290)" d="M46.0847 934.986 Q46.0847 942.084 47.7079 944.821 Q49.3312 947.558 53.2461 947.558 Q56.3653 947.558 58.2114 945.521 Q60.0256 943.453 60.0256 939.92 Q60.0256 935.05 56.5881 932.122 Q53.1188 929.162 47.3897 929.162 L46.0847 929.162 L46.0847 934.986 M43.6657 923.305 L64.0042 923.305 L64.0042 929.162 L58.5933 929.162 Q61.8398 931.167 63.3994 934.159 Q64.9272 937.151 64.9272 941.479 Q64.9272 946.954 61.8716 950.2 Q58.7843 953.415 53.6281 953.415 Q47.6125 953.415 44.5569 949.405 Q41.5014 945.362 41.5014 937.373 L41.5014 929.162 L40.9285 929.162 Q36.8862 929.162 34.6901 931.835 Q32.4621 934.477 32.4621 939.283 Q32.4621 942.339 33.1941 945.235 Q33.9262 948.131 35.3903 950.805 L29.9795 950.805 Q28.7381 947.59 28.1334 944.567 Q27.4968 941.543 27.4968 938.678 Q27.4968 930.944 31.5072 927.125 Q35.5176 923.305 43.6657 923.305 Z" fill="#000000" fill-rule="nonzero" fill-opacity="1"></path><path clip-path="url(#clip290)" d="M45.7664 887.784 Q39.4007 887.784 35.8996 890.426 Q32.3984 893.036 32.3984 897.779 Q32.3984 902.489 35.8996 905.131 Q39.4007 907.741 45.7664 907.741 Q52.1003 907.741 55.6014 905.131 Q59.1026 902.489 59.1026 897.779 Q59.1026 893.036 55.6014 890.426 Q52.1003 887.784 45.7664 887.784 M59.58 881.928 Q68.683 881.928 73.1071 885.97 Q77.5631 890.012 77.5631 898.352 Q77.5631 901.439 77.0857 904.176 Q76.6401 906.913 75.6852 909.492 L69.9879 909.492 Q71.3884 906.913 72.0568 904.399 Q72.7252 901.885 72.7252 899.275 Q72.7252 893.514 69.7015 890.649 Q66.7096 887.784 60.6303 887.784 L57.7339 887.784 Q60.885 889.599 62.4446 892.431 Q64.0042 895.264 64.0042 899.211 Q64.0042 905.768 59.0071 909.778 Q54.01 913.788 45.7664 913.788 Q37.491 913.788 32.4939 909.778 Q27.4968 905.768 27.4968 899.211 Q27.4968 895.264 29.0564 892.431 Q30.616 889.599 33.7671 887.784 L28.3562 887.784 L28.3562 881.928 L59.58 881.928 Z" fill="#000000" fill-rule="nonzero" fill-opacity="1"></path><path clip-path="url(#clip290)" d="M44.7161 839.373 L47.5806 839.373 L47.5806 866.3 Q53.6281 865.918 56.8109 862.672 Q59.9619 859.393 59.9619 853.569 Q59.9619 850.195 59.1344 847.044 Q58.3069 843.861 56.6518 840.742 L62.1899 840.742 Q63.5267 843.893 64.227 847.203 Q64.9272 850.513 64.9272 853.919 Q64.9272 862.449 59.9619 867.446 Q54.9967 872.411 46.5303 872.411 Q37.7774 872.411 32.6531 867.701 Q27.4968 862.958 27.4968 854.937 Q27.4968 847.744 32.1438 843.575 Q36.7589 839.373 44.7161 839.373 M42.9973 845.23 Q38.1912 845.293 35.3266 847.935 Q32.4621 850.545 32.4621 854.874 Q32.4621 859.775 35.2312 862.735 Q38.0002 865.664 43.0292 866.109 L42.9973 845.23 Z" fill="#000000" fill-rule="nonzero" fill-opacity="1"></path><path clip-path="url(#clip290)" d="M33.8307 788.384 Q33.2578 789.371 33.0032 790.548 Q32.7167 791.694 32.7167 793.095 Q32.7167 798.06 35.9632 800.733 Q39.1779 803.375 45.2253 803.375 L64.0042 803.375 L64.0042 809.263 L28.3562 809.263 L28.3562 803.375 L33.8944 803.375 Q30.6479 801.529 29.0883 798.569 Q27.4968 795.609 27.4968 791.376 Q27.4968 790.771 27.5923 790.039 Q27.656 789.307 27.8151 788.416 L33.8307 788.384 Z" fill="#000000" fill-rule="nonzero" fill-opacity="1"></path><path clip-path="url(#clip290)" d="M44.7161 753.182 L47.5806 753.182 L47.5806 780.109 Q53.6281 779.727 56.8109 776.48 Q59.9619 773.202 59.9619 767.377 Q59.9619 764.003 59.1344 760.852 Q58.3069 757.669 56.6518 754.55 L62.1899 754.55 Q63.5267 757.701 64.227 761.011 Q64.9272 764.322 64.9272 767.727 Q64.9272 776.257 59.9619 781.254 Q54.9967 786.22 46.5303 786.22 Q37.7774 786.22 32.6531 781.509 Q27.4968 776.767 27.4968 768.746 Q27.4968 761.553 32.1438 757.383 Q36.7589 753.182 44.7161 753.182 M42.9973 759.038 Q38.1912 759.102 35.3266 761.743 Q32.4621 764.353 32.4621 768.682 Q32.4621 773.584 35.2312 776.544 Q38.0002 779.472 43.0292 779.918 L42.9973 759.038 Z" fill="#000000" fill-rule="nonzero" fill-opacity="1"></path><path clip-path="url(#clip290)" d="M14.479 743.569 L14.479 737.713 L64.0042 737.713 L64.0042 743.569 L14.479 743.569 Z" fill="#000000" fill-rule="nonzero" fill-opacity="1"></path><path clip-path="url(#clip290)" d="M46.0847 709.258 Q46.0847 716.356 47.7079 719.093 Q49.3312 721.83 53.2461 721.83 Q56.3653 721.83 58.2114 719.793 Q60.0256 717.725 60.0256 714.192 Q60.0256 709.322 56.5881 706.394 Q53.1188 703.434 47.3897 703.434 L46.0847 703.434 L46.0847 709.258 M43.6657 697.577 L64.0042 697.577 L64.0042 703.434 L58.5933 703.434 Q61.8398 705.439 63.3994 708.431 Q64.9272 711.423 64.9272 715.751 Q64.9272 721.226 61.8716 724.472 Q58.7843 727.687 53.6281 727.687 Q47.6125 727.687 44.5569 723.677 Q41.5014 719.634 41.5014 711.645 L41.5014 703.434 L40.9285 703.434 Q36.8862 703.434 34.6901 706.107 Q32.4621 708.749 32.4621 713.555 Q32.4621 716.611 33.1941 719.507 Q33.9262 722.403 35.3903 725.077 L29.9795 725.077 Q28.7381 721.862 28.1334 718.839 Q27.4968 715.815 27.4968 712.95 Q27.4968 705.216 31.5072 701.397 Q35.5176 697.577 43.6657 697.577 Z" fill="#000000" fill-rule="nonzero" fill-opacity="1"></path><path clip-path="url(#clip290)" d="M18.2347 679.721 L28.3562 679.721 L28.3562 667.658 L32.9077 667.658 L32.9077 679.721 L52.2594 679.721 Q56.6199 679.721 57.8613 678.544 Q59.1026 677.334 59.1026 673.674 L59.1026 667.658 L64.0042 667.658 L64.0042 673.674 Q64.0042 680.453 61.4897 683.032 Q58.9434 685.61 52.2594 685.61 L32.9077 685.61 L32.9077 689.906 L28.3562 689.906 L28.3562 685.61 L18.2347 685.61 L18.2347 679.721 Z" fill="#000000" fill-rule="nonzero" fill-opacity="1"></path><path clip-path="url(#clip290)" d="M28.3562 659.956 L28.3562 654.099 L64.0042 654.099 L64.0042 659.956 L28.3562 659.956 M14.479 659.956 L14.479 654.099 L21.895 654.099 L21.895 659.956 L14.479 659.956 Z" fill="#000000" fill-rule="nonzero" fill-opacity="1"></path><path clip-path="url(#clip290)" d="M28.3562 646.047 L28.3562 639.84 L58.275 628.7 L28.3562 617.56 L28.3562 611.354 L64.0042 624.722 L64.0042 632.679 L28.3562 646.047 Z" fill="#000000" fill-rule="nonzero" fill-opacity="1"></path><path clip-path="url(#clip290)" d="M44.7161 572.777 L47.5806 572.777 L47.5806 599.704 Q53.6281 599.322 56.8109 596.076 Q59.9619 592.798 59.9619 586.973 Q59.9619 583.599 59.1344 580.448 Q58.3069 577.265 56.6518 574.146 L62.1899 574.146 Q63.5267 577.297 64.227 580.607 Q64.9272 583.917 64.9272 587.323 Q64.9272 595.853 59.9619 600.85 Q54.9967 605.815 46.5303 605.815 Q37.7774 605.815 32.6531 601.105 Q27.4968 596.362 27.4968 588.342 Q27.4968 581.148 32.1438 576.979 Q36.7589 572.777 44.7161 572.777 M42.9973 578.634 Q38.1912 578.698 35.3266 581.339 Q32.4621 583.949 32.4621 588.278 Q32.4621 593.18 35.2312 596.14 Q38.0002 599.068 43.0292 599.513 L42.9973 578.634 Z" fill="#000000" fill-rule="nonzero" fill-opacity="1"></path><path clip-path="url(#clip290)" d="M44.7161 511.953 L47.5806 511.953 L47.5806 538.88 Q53.6281 538.498 56.8109 535.252 Q59.9619 531.973 59.9619 526.149 Q59.9619 522.775 59.1344 519.624 Q58.3069 516.441 56.6518 513.322 L62.1899 513.322 Q63.5267 516.473 64.227 519.783 Q64.9272 523.093 64.9272 526.499 Q64.9272 535.029 59.9619 540.026 Q54.9967 544.991 46.5303 544.991 Q37.7774 544.991 32.6531 540.281 Q27.4968 535.538 27.4968 527.517 Q27.4968 520.324 32.1438 516.155 Q36.7589 511.953 44.7161 511.953 M42.9973 517.81 Q38.1912 517.873 35.3266 520.515 Q32.4621 523.125 32.4621 527.454 Q32.4621 532.355 35.2312 535.315 Q38.0002 538.244 43.0292 538.689 L42.9973 517.81 Z" fill="#000000" fill-rule="nonzero" fill-opacity="1"></path><path clip-path="url(#clip290)" d="M33.8307 481.684 Q33.2578 482.671 33.0032 483.849 Q32.7167 484.994 32.7167 486.395 Q32.7167 491.36 35.9632 494.034 Q39.1779 496.675 45.2253 496.675 L64.0042 496.675 L64.0042 502.564 L28.3562 502.564 L28.3562 496.675 L33.8944 496.675 Q30.6479 494.829 29.0883 491.869 Q27.4968 488.909 27.4968 484.676 Q27.4968 484.071 27.5923 483.339 Q27.656 482.607 27.8151 481.716 L33.8307 481.684 Z" fill="#000000" fill-rule="nonzero" fill-opacity="1"></path><path clip-path="url(#clip290)" d="M33.8307 456.03 Q33.2578 457.017 33.0032 458.195 Q32.7167 459.341 32.7167 460.741 Q32.7167 465.706 35.9632 468.38 Q39.1779 471.022 45.2253 471.022 L64.0042 471.022 L64.0042 476.91 L28.3562 476.91 L28.3562 471.022 L33.8944 471.022 Q30.6479 469.176 29.0883 466.216 Q27.4968 463.255 27.4968 459.022 Q27.4968 458.418 27.5923 457.686 Q27.656 456.953 27.8151 456.062 L33.8307 456.03 Z" fill="#000000" fill-rule="nonzero" fill-opacity="1"></path><path clip-path="url(#clip290)" d="M32.4621 437.506 Q32.4621 442.217 36.1542 444.954 Q39.8145 447.691 46.212 447.691 Q52.6095 447.691 56.3017 444.986 Q59.9619 442.249 59.9619 437.506 Q59.9619 432.827 56.2698 430.09 Q52.5777 427.353 46.212 427.353 Q39.8781 427.353 36.186 430.09 Q32.4621 432.827 32.4621 437.506 M27.4968 437.506 Q27.4968 429.867 32.4621 425.507 Q37.4273 421.146 46.212 421.146 Q54.9649 421.146 59.9619 425.507 Q64.9272 429.867 64.9272 437.506 Q64.9272 445.177 59.9619 449.537 Q54.9649 453.866 46.212 453.866 Q37.4273 453.866 32.4621 449.537 Q27.4968 445.177 27.4968 437.506 Z" fill="#000000" fill-rule="nonzero" fill-opacity="1"></path><path clip-path="url(#clip290)" d="M33.8307 390.782 Q33.2578 391.769 33.0032 392.946 Q32.7167 394.092 32.7167 395.493 Q32.7167 400.458 35.9632 403.131 Q39.1779 405.773 45.2253 405.773 L64.0042 405.773 L64.0042 411.661 L28.3562 411.661 L28.3562 405.773 L33.8944 405.773 Q30.6479 403.927 29.0883 400.967 Q27.4968 398.007 27.4968 393.774 Q27.4968 393.169 27.5923 392.437 Q27.656 391.705 27.8151 390.814 L33.8307 390.782 Z" fill="#000000" fill-rule="nonzero" fill-opacity="1"></path><path clip-path="url(#clip290)" d="M566.063 12.096 L604.952 12.096 L604.952 15.5798 L582.996 72.576 L574.449 72.576 L595.108 18.9825 L566.063 18.9825 L566.063 12.096 Z" fill="#000000" fill-rule="nonzero" fill-opacity="1"></path><path clip-path="url(#clip290)" d="M620.993 12.096 L653.117 12.096 L653.117 18.9825 L628.488 18.9825 L628.488 33.8088 Q630.27 33.2012 632.052 32.9176 Q633.835 32.5936 635.617 32.5936 Q645.744 32.5936 651.659 38.1433 Q657.573 43.6931 657.573 53.1722 Q657.573 62.9348 651.497 68.3631 Q645.42 73.7508 634.361 73.7508 Q630.554 73.7508 626.584 73.1026 Q622.654 72.4545 618.441 71.1582 L618.441 62.9348 Q622.087 64.9198 625.976 65.892 Q629.865 66.8642 634.199 66.8642 Q641.207 66.8642 645.299 63.1779 Q649.39 59.4916 649.39 53.1722 Q649.39 46.8528 645.299 43.1664 Q641.207 39.4801 634.199 39.4801 Q630.918 39.4801 627.637 40.2093 Q624.396 40.9384 620.993 42.4778 L620.993 12.096 Z" fill="#000000" fill-rule="nonzero" fill-opacity="1"></path><path clip-path="url(#clip290)" d="M693.667 27.2059 L701.566 27.2059 L715.744 65.2844 L729.922 27.2059 L737.822 27.2059 L720.808 72.576 L710.68 72.576 L693.667 27.2059 Z" fill="#000000" fill-rule="nonzero" fill-opacity="1"></path><path clip-path="url(#clip290)" d="M768.73 49.7694 Q759.696 49.7694 756.213 51.8354 Q752.729 53.9013 752.729 58.8839 Q752.729 62.8538 755.321 65.2034 Q757.955 67.5124 762.451 67.5124 Q768.649 67.5124 772.376 63.1374 Q776.143 58.7219 776.143 51.4303 L776.143 49.7694 L768.73 49.7694 M783.597 46.6907 L783.597 72.576 L776.143 72.576 L776.143 65.6895 Q773.591 69.8214 769.783 71.8063 Q765.975 73.7508 760.466 73.7508 Q753.499 73.7508 749.367 69.8619 Q745.275 65.9325 745.275 59.3701 Q745.275 51.7138 750.379 47.825 Q755.524 43.9361 765.692 43.9361 L776.143 43.9361 L776.143 43.2069 Q776.143 38.0623 772.74 35.2672 Q769.378 32.4315 763.261 32.4315 Q759.372 32.4315 755.686 33.3632 Q752 34.295 748.597 36.1584 L748.597 29.2718 Q752.688 27.692 756.537 26.9223 Q760.385 26.1121 764.031 26.1121 Q773.875 26.1121 778.736 31.2163 Q783.597 36.3204 783.597 46.6907 Z" fill="#000000" fill-rule="nonzero" fill-opacity="1"></path><path clip-path="url(#clip290)" d="M825.24 34.1734 Q823.984 33.4443 822.485 33.1202 Q821.027 32.7556 819.245 32.7556 Q812.925 32.7556 809.523 36.8875 Q806.16 40.9789 806.16 48.6757 L806.16 72.576 L798.666 72.576 L798.666 27.2059 L806.16 27.2059 L806.16 34.2544 Q808.51 30.1225 812.277 28.1376 Q816.045 26.1121 821.432 26.1121 Q822.202 26.1121 823.134 26.2337 Q824.065 26.3147 825.2 26.5172 L825.24 34.1734 Z" fill="#000000" fill-rule="nonzero" fill-opacity="1"></path><path clip-path="url(#clip290)" d="M833.058 27.2059 L840.512 27.2059 L840.512 72.576 L833.058 72.576 L833.058 27.2059 M833.058 9.54393 L840.512 9.54393 L840.512 18.9825 L833.058 18.9825 L833.058 9.54393 Z" fill="#000000" fill-rule="nonzero" fill-opacity="1"></path><path clip-path="url(#clip290)" d="M876.727 49.7694 Q867.694 49.7694 864.21 51.8354 Q860.726 53.9013 860.726 58.8839 Q860.726 62.8538 863.319 65.2034 Q865.952 67.5124 870.448 67.5124 Q876.646 67.5124 880.373 63.1374 Q884.14 58.7219 884.14 51.4303 L884.14 49.7694 L876.727 49.7694 M891.594 46.6907 L891.594 72.576 L884.14 72.576 L884.14 65.6895 Q881.588 69.8214 877.78 71.8063 Q873.972 73.7508 868.463 73.7508 Q861.496 73.7508 857.364 69.8619 Q853.272 65.9325 853.272 59.3701 Q853.272 51.7138 858.376 47.825 Q863.521 43.9361 873.689 43.9361 L884.14 43.9361 L884.14 43.2069 Q884.14 38.0623 880.737 35.2672 Q877.375 32.4315 871.258 32.4315 Q867.369 32.4315 863.683 33.3632 Q859.997 34.295 856.594 36.1584 L856.594 29.2718 Q860.685 27.692 864.534 26.9223 Q868.382 26.1121 872.028 26.1121 Q881.872 26.1121 886.733 31.2163 Q891.594 36.3204 891.594 46.6907 Z" fill="#000000" fill-rule="nonzero" fill-opacity="1"></path><path clip-path="url(#clip290)" d="M939.516 49.9314 Q939.516 41.7081 936.113 37.0496 Q932.751 32.3505 926.837 32.3505 Q920.922 32.3505 917.52 37.0496 Q914.157 41.7081 914.157 49.9314 Q914.157 58.1548 917.52 62.8538 Q920.922 67.5124 926.837 67.5124 Q932.751 67.5124 936.113 62.8538 Q939.516 58.1548 939.516 49.9314 M914.157 34.0924 Q916.507 30.0415 920.072 28.0971 Q923.677 26.1121 928.66 26.1121 Q936.923 26.1121 942.068 32.6746 Q947.253 39.2371 947.253 49.9314 Q947.253 60.6258 942.068 67.1883 Q936.923 73.7508 928.66 73.7508 Q923.677 73.7508 920.072 71.8063 Q916.507 69.8214 914.157 65.7705 L914.157 72.576 L906.663 72.576 L906.663 9.54393 L914.157 9.54393 L914.157 34.0924 Z" fill="#000000" fill-rule="nonzero" fill-opacity="1"></path><path clip-path="url(#clip290)" d="M959.609 9.54393 L967.062 9.54393 L967.062 72.576 L959.609 72.576 L959.609 9.54393 Z" fill="#000000" fill-rule="nonzero" fill-opacity="1"></path><path clip-path="url(#clip290)" d="M1021.47 48.0275 L1021.47 51.6733 L987.195 51.6733 Q987.681 59.3701 991.813 63.421 Q995.986 67.4314 1003.4 67.4314 Q1007.69 67.4314 1011.7 66.3781 Q1015.75 65.3249 1019.72 63.2184 L1019.72 70.267 Q1015.71 71.9684 1011.5 72.8596 Q1007.29 73.7508 1002.95 73.7508 Q992.097 73.7508 985.737 67.4314 Q979.417 61.1119 979.417 50.3365 Q979.417 39.1965 985.413 32.6746 Q991.449 26.1121 1001.66 26.1121 Q1010.81 26.1121 1016.12 32.0264 Q1021.47 37.9003 1021.47 48.0275 M1014.01 45.84 Q1013.93 39.7232 1010.57 36.0774 Q1007.25 32.4315 1001.74 32.4315 Q995.5 32.4315 991.732 35.9558 Q988.005 39.4801 987.438 45.8805 L1014.01 45.84 Z" fill="#000000" fill-rule="nonzero" fill-opacity="1"></path><path clip-path="url(#clip290)" d="M1062.62 28.5427 L1062.62 35.5912 Q1059.46 33.9709 1056.06 33.1607 Q1052.66 32.3505 1049.01 32.3505 Q1043.46 32.3505 1040.67 34.0519 Q1037.91 35.7533 1037.91 39.156 Q1037.91 41.7486 1039.9 43.2475 Q1041.88 44.7058 1047.88 46.0426 L1050.43 46.6097 Q1058.37 48.3111 1061.69 51.4303 Q1065.05 54.509 1065.05 60.0587 Q1065.05 66.3781 1060.03 70.0644 Q1055.05 73.7508 1046.3 73.7508 Q1042.65 73.7508 1038.68 73.0216 Q1034.75 72.3329 1030.38 70.9151 L1030.38 63.2184 Q1034.51 65.3654 1038.52 66.4591 Q1042.53 67.5124 1046.46 67.5124 Q1051.73 67.5124 1054.56 65.73 Q1057.4 63.9071 1057.4 60.6258 Q1057.4 57.5877 1055.33 55.9673 Q1053.31 54.3469 1046.38 52.8481 L1043.79 52.2405 Q1036.86 50.7821 1033.78 47.7845 Q1030.7 44.7463 1030.7 39.4801 Q1030.7 33.0797 1035.24 29.5959 Q1039.78 26.1121 1048.12 26.1121 Q1052.25 26.1121 1055.9 26.7198 Q1059.54 27.3274 1062.62 28.5427 Z" fill="#000000" fill-rule="nonzero" fill-opacity="1"></path><path clip-path="url(#clip290)" d="M1112.89 9.17935 L1112.89 92.1419 L1106.01 92.1419 L1106.01 9.17935 L1112.89 9.17935 Z" fill="#000000" fill-rule="nonzero" fill-opacity="1"></path><path clip-path="url(#clip290)" d="M1183.46 39.9662 Q1189.34 41.222 1192.62 45.1919 Q1195.94 49.1618 1195.94 54.9951 Q1195.94 63.9476 1189.78 68.8492 Q1183.62 73.7508 1172.28 73.7508 Q1168.47 73.7508 1164.42 72.9811 Q1160.41 72.2519 1156.12 70.7531 L1156.12 62.8538 Q1159.52 64.8388 1163.57 65.8515 Q1167.62 66.8642 1172.04 66.8642 Q1179.73 66.8642 1183.75 63.826 Q1187.8 60.7879 1187.8 54.9951 Q1187.8 49.6479 1184.03 46.6502 Q1180.3 43.612 1173.62 43.612 L1166.57 43.612 L1166.57 36.8875 L1173.94 36.8875 Q1179.98 36.8875 1183.18 34.4975 Q1186.38 32.067 1186.38 27.5299 Q1186.38 22.8714 1183.06 20.4004 Q1179.78 17.8888 1173.62 17.8888 Q1170.26 17.8888 1166.41 18.618 Q1162.56 19.3471 1157.94 20.8865 L1157.94 13.5948 Q1162.6 12.2985 1166.65 11.6504 Q1170.74 11.0023 1174.35 11.0023 Q1183.66 11.0023 1189.09 15.2557 Q1194.52 19.4686 1194.52 26.6793 Q1194.52 31.7024 1191.64 35.1862 Q1188.77 38.6294 1183.46 39.9662 Z" fill="#000000" fill-rule="nonzero" fill-opacity="1"></path><path clip-path="url(#clip290)" d="M1254.35 32.4315 Q1248.36 32.4315 1244.87 37.1306 Q1241.39 41.7891 1241.39 49.9314 Q1241.39 58.0738 1244.83 62.7728 Q1248.32 67.4314 1254.35 67.4314 Q1260.31 67.4314 1263.79 62.7323 Q1267.27 58.0333 1267.27 49.9314 Q1267.27 41.8701 1263.79 37.1711 Q1260.31 32.4315 1254.35 32.4315 M1254.35 26.1121 Q1264.07 26.1121 1269.62 32.4315 Q1275.17 38.7509 1275.17 49.9314 Q1275.17 61.0714 1269.62 67.4314 Q1264.07 73.7508 1254.35 73.7508 Q1244.59 73.7508 1239.04 67.4314 Q1233.53 61.0714 1233.53 49.9314 Q1233.53 38.7509 1239.04 32.4315 Q1244.59 26.1121 1254.35 26.1121 Z" fill="#000000" fill-rule="nonzero" fill-opacity="1"></path><path clip-path="url(#clip290)" d="M1320.1 49.9314 Q1320.1 41.7081 1316.7 37.0496 Q1313.33 32.3505 1307.42 32.3505 Q1301.5 32.3505 1298.1 37.0496 Q1294.74 41.7081 1294.74 49.9314 Q1294.74 58.1548 1298.1 62.8538 Q1301.5 67.5124 1307.42 67.5124 Q1313.33 67.5124 1316.7 62.8538 Q1320.1 58.1548 1320.1 49.9314 M1294.74 34.0924 Q1297.09 30.0415 1300.65 28.0971 Q1304.26 26.1121 1309.24 26.1121 Q1317.51 26.1121 1322.65 32.6746 Q1327.84 39.2371 1327.84 49.9314 Q1327.84 60.6258 1322.65 67.1883 Q1317.51 73.7508 1309.24 73.7508 Q1304.26 73.7508 1300.65 71.8063 Q1297.09 69.8214 1294.74 65.7705 L1294.74 72.576 L1287.25 72.576 L1287.25 9.54393 L1294.74 9.54393 L1294.74 34.0924 Z" fill="#000000" fill-rule="nonzero" fill-opacity="1"></path><path clip-path="url(#clip290)" d="M1340.19 27.2059 L1347.64 27.2059 L1347.64 73.3862 Q1347.64 82.0551 1344.32 85.944 Q1341.04 89.8329 1333.71 89.8329 L1330.87 89.8329 L1330.87 83.5134 L1332.86 83.5134 Q1337.11 83.5134 1338.65 81.5285 Q1340.19 79.5841 1340.19 73.3862 L1340.19 27.2059 M1340.19 9.54393 L1347.64 9.54393 L1347.64 18.9825 L1340.19 18.9825 L1340.19 9.54393 Z" fill="#000000" fill-rule="nonzero" fill-opacity="1"></path><path clip-path="url(#clip290)" d="M1402.05 48.0275 L1402.05 51.6733 L1367.78 51.6733 Q1368.26 59.3701 1372.4 63.421 Q1376.57 67.4314 1383.98 67.4314 Q1388.28 67.4314 1392.29 66.3781 Q1396.34 65.3249 1400.31 63.2184 L1400.31 70.267 Q1396.3 71.9684 1392.08 72.8596 Q1387.87 73.7508 1383.54 73.7508 Q1372.68 73.7508 1366.32 67.4314 Q1360 61.1119 1360 50.3365 Q1360 39.1965 1366 32.6746 Q1372.03 26.1121 1382.24 26.1121 Q1391.39 26.1121 1396.7 32.0264 Q1402.05 37.9003 1402.05 48.0275 M1394.59 45.84 Q1394.51 39.7232 1391.15 36.0774 Q1387.83 32.4315 1382.32 32.4315 Q1376.08 32.4315 1372.31 35.9558 Q1368.59 39.4801 1368.02 45.8805 L1394.59 45.84 Z" fill="#000000" fill-rule="nonzero" fill-opacity="1"></path><path clip-path="url(#clip290)" d="M1446.93 28.9478 L1446.93 35.9153 Q1443.77 34.1734 1440.57 33.3227 Q1437.41 32.4315 1434.17 32.4315 Q1426.92 32.4315 1422.91 37.0496 Q1418.9 41.6271 1418.9 49.9314 Q1418.9 58.2358 1422.91 62.8538 Q1426.92 67.4314 1434.17 67.4314 Q1437.41 67.4314 1440.57 66.5807 Q1443.77 65.6895 1446.93 63.9476 L1446.93 70.8341 Q1443.81 72.2924 1440.45 73.0216 Q1437.13 73.7508 1433.36 73.7508 Q1423.11 73.7508 1417.08 67.3098 Q1411.04 60.8689 1411.04 49.9314 Q1411.04 38.832 1417.12 32.472 Q1423.23 26.1121 1433.85 26.1121 Q1437.29 26.1121 1440.57 26.8413 Q1443.85 27.5299 1446.93 28.9478 Z" fill="#000000" fill-rule="nonzero" fill-opacity="1"></path><path clip-path="url(#clip290)" d="M1467.27 14.324 L1467.27 27.2059 L1482.62 27.2059 L1482.62 32.9987 L1467.27 32.9987 L1467.27 57.6282 Q1467.27 63.1779 1468.77 64.7578 Q1470.31 66.3376 1474.96 66.3376 L1482.62 66.3376 L1482.62 72.576 L1474.96 72.576 Q1466.34 72.576 1463.05 69.3758 Q1459.77 66.1351 1459.77 57.6282 L1459.77 32.9987 L1454.3 32.9987 L1454.3 27.2059 L1459.77 27.2059 L1459.77 14.324 L1467.27 14.324 Z" fill="#000000" fill-rule="nonzero" fill-opacity="1"></path><path clip-path="url(#clip290)" d="M1492.42 27.2059 L1499.88 27.2059 L1499.88 72.576 L1492.42 72.576 L1492.42 27.2059 M1492.42 9.54393 L1499.88 9.54393 L1499.88 18.9825 L1492.42 18.9825 L1492.42 9.54393 Z" fill="#000000" fill-rule="nonzero" fill-opacity="1"></path><path clip-path="url(#clip290)" d="M1510.13 27.2059 L1518.03 27.2059 L1532.2 65.2844 L1546.38 27.2059 L1554.28 27.2059 L1537.27 72.576 L1527.14 72.576 L1510.13 27.2059 Z" fill="#000000" fill-rule="nonzero" fill-opacity="1"></path><path clip-path="url(#clip290)" d="M1603.38 48.0275 L1603.38 51.6733 L1569.11 51.6733 Q1569.59 59.3701 1573.73 63.421 Q1577.9 67.4314 1585.31 67.4314 Q1589.61 67.4314 1593.62 66.3781 Q1597.67 65.3249 1601.64 63.2184 L1601.64 70.267 Q1597.63 71.9684 1593.41 72.8596 Q1589.2 73.7508 1584.87 73.7508 Q1574.01 73.7508 1567.65 67.4314 Q1561.33 61.1119 1561.33 50.3365 Q1561.33 39.1965 1567.33 32.6746 Q1573.36 26.1121 1583.57 26.1121 Q1592.72 26.1121 1598.03 32.0264 Q1603.38 37.9003 1603.38 48.0275 M1595.92 45.84 Q1595.84 39.7232 1592.48 36.0774 Q1589.16 32.4315 1583.65 32.4315 Q1577.41 32.4315 1573.64 35.9558 Q1569.92 39.4801 1569.35 45.8805 L1595.92 45.84 Z" fill="#000000" fill-rule="nonzero" fill-opacity="1"></path><path clip-path="url(#clip290)" d="M1644.54 28.5427 L1644.54 35.5912 Q1641.38 33.9709 1637.97 33.1607 Q1634.57 32.3505 1630.92 32.3505 Q1625.37 32.3505 1622.58 34.0519 Q1619.82 35.7533 1619.82 39.156 Q1619.82 41.7486 1621.81 43.2475 Q1623.79 44.7058 1629.79 46.0426 L1632.34 46.6097 Q1640.28 48.3111 1643.6 51.4303 Q1646.97 54.509 1646.97 60.0587 Q1646.97 66.3781 1641.94 70.0644 Q1636.96 73.7508 1628.21 73.7508 Q1624.56 73.7508 1620.59 73.0216 Q1616.67 72.3329 1612.29 70.9151 L1612.29 63.2184 Q1616.42 65.3654 1620.43 66.4591 Q1624.44 67.5124 1628.37 67.5124 Q1633.64 67.5124 1636.47 65.73 Q1639.31 63.9071 1639.31 60.6258 Q1639.31 57.5877 1637.24 55.9673 Q1635.22 54.3469 1628.29 52.8481 L1625.7 52.2405 Q1618.77 50.7821 1615.69 47.7845 Q1612.61 44.7463 1612.61 39.4801 Q1612.61 33.0797 1617.15 29.5959 Q1621.69 26.1121 1630.03 26.1121 Q1634.17 26.1121 1637.81 26.7198 Q1641.46 27.3274 1644.54 28.5427 Z" fill="#000000" fill-rule="nonzero" fill-opacity="1"></path><path clip-path="url(#clip290)" d="M1694.81 9.17935 L1694.81 92.1419 L1687.92 92.1419 L1687.92 9.17935 L1694.81 9.17935 Z" fill="#000000" fill-rule="nonzero" fill-opacity="1"></path><path clip-path="url(#clip290)" d="M1747.63 65.6895 L1776.19 65.6895 L1776.19 72.576 L1737.79 72.576 L1737.79 65.6895 Q1742.45 60.8689 1750.47 52.7671 Q1758.53 44.6248 1760.59 42.2752 Q1764.52 37.8598 1766.06 34.8216 Q1767.64 31.7429 1767.64 28.7857 Q1767.64 23.9651 1764.24 20.927 Q1760.88 17.8888 1755.45 17.8888 Q1751.6 17.8888 1747.31 19.2256 Q1743.05 20.5624 1738.19 23.2765 L1738.19 15.0127 Q1743.13 13.0277 1747.43 12.015 Q1751.72 11.0023 1755.29 11.0023 Q1764.69 11.0023 1770.28 15.7013 Q1775.87 20.4004 1775.87 28.2591 Q1775.87 31.9859 1774.45 35.3482 Q1773.07 38.6699 1769.38 43.2069 Q1768.37 44.3817 1762.94 50.0125 Q1757.52 55.6027 1747.63 65.6895 Z" fill="#000000" fill-rule="nonzero" fill-opacity="1"></path><path clip-path="url(#clip290)" d="M1810.87 17.4837 Q1804.55 17.4837 1801.35 23.7221 Q1798.19 29.92 1798.19 42.3968 Q1798.19 54.833 1801.35 61.0714 Q1804.55 67.2693 1810.87 67.2693 Q1817.23 67.2693 1820.39 61.0714 Q1823.59 54.833 1823.59 42.3968 Q1823.59 29.92 1820.39 23.7221 Q1817.23 17.4837 1810.87 17.4837 M1810.87 11.0023 Q1821.03 11.0023 1826.38 19.0636 Q1831.77 27.0843 1831.77 42.3968 Q1831.77 57.6687 1826.38 65.73 Q1821.03 73.7508 1810.87 73.7508 Q1800.7 73.7508 1795.31 65.73 Q1789.96 57.6687 1789.96 42.3968 Q1789.96 27.0843 1795.31 19.0636 Q1800.7 11.0023 1810.87 11.0023 Z" fill="#000000" fill-rule="nonzero" fill-opacity="1"></path><path clip-path="url(#clip290)" d="M1878.84 14.324 L1878.84 27.2059 L1894.19 27.2059 L1894.19 32.9987 L1878.84 32.9987 L1878.84 57.6282 Q1878.84 63.1779 1880.34 64.7578 Q1881.88 66.3376 1886.54 66.3376 L1894.19 66.3376 L1894.19 72.576 L1886.54 72.576 Q1877.91 72.576 1874.63 69.3758 Q1871.35 66.1351 1871.35 57.6282 L1871.35 32.9987 L1865.88 32.9987 L1865.88 27.2059 L1871.35 27.2059 L1871.35 14.324 L1878.84 14.324 Z" fill="#000000" fill-rule="nonzero" fill-opacity="1"></path><path clip-path="url(#clip290)" d="M1930.29 34.1734 Q1929.03 33.4443 1927.53 33.1202 Q1926.07 32.7556 1924.29 32.7556 Q1917.97 32.7556 1914.57 36.8875 Q1911.21 40.9789 1911.21 48.6757 L1911.21 72.576 L1903.71 72.576 L1903.71 27.2059 L1911.21 27.2059 L1911.21 34.2544 Q1913.56 30.1225 1917.32 28.1376 Q1921.09 26.1121 1926.48 26.1121 Q1927.25 26.1121 1928.18 26.2337 Q1929.11 26.3147 1930.25 26.5172 L1930.29 34.1734 Z" fill="#000000" fill-rule="nonzero" fill-opacity="1"></path><path clip-path="url(#clip290)" d="M1938.1 27.2059 L1945.56 27.2059 L1945.56 72.576 L1938.1 72.576 L1938.1 27.2059 M1938.1 9.54393 L1945.56 9.54393 L1945.56 18.9825 L1938.1 18.9825 L1938.1 9.54393 Z" fill="#000000" fill-rule="nonzero" fill-opacity="1"></path><path clip-path="url(#clip290)" d="M1981.77 49.7694 Q1972.74 49.7694 1969.26 51.8354 Q1965.77 53.9013 1965.77 58.8839 Q1965.77 62.8538 1968.36 65.2034 Q1971 67.5124 1975.49 67.5124 Q1981.69 67.5124 1985.42 63.1374 Q1989.19 58.7219 1989.19 51.4303 L1989.19 49.7694 L1981.77 49.7694 M1996.64 46.6907 L1996.64 72.576 L1989.19 72.576 L1989.19 65.6895 Q1986.63 69.8214 1982.83 71.8063 Q1979.02 73.7508 1973.51 73.7508 Q1966.54 73.7508 1962.41 69.8619 Q1958.32 65.9325 1958.32 59.3701 Q1958.32 51.7138 1963.42 47.825 Q1968.57 43.9361 1978.74 43.9361 L1989.19 43.9361 L1989.19 43.2069 Q1989.19 38.0623 1985.78 35.2672 Q1982.42 32.4315 1976.3 32.4315 Q1972.42 32.4315 1968.73 33.3632 Q1965.04 34.295 1961.64 36.1584 L1961.64 29.2718 Q1965.73 27.692 1969.58 26.9223 Q1973.43 26.1121 1977.07 26.1121 Q1986.92 26.1121 1991.78 31.2163 Q1996.64 36.3204 1996.64 46.6907 Z" fill="#000000" fill-rule="nonzero" fill-opacity="1"></path><path clip-path="url(#clip290)" d="M2011.99 9.54393 L2019.45 9.54393 L2019.45 72.576 L2011.99 72.576 L2011.99 9.54393 Z" fill="#000000" fill-rule="nonzero" fill-opacity="1"></path><path clip-path="url(#clip290)" d="M2063.97 28.5427 L2063.97 35.5912 Q2060.81 33.9709 2057.4 33.1607 Q2054 32.3505 2050.36 32.3505 Q2044.81 32.3505 2042.01 34.0519 Q2039.26 35.7533 2039.26 39.156 Q2039.26 41.7486 2041.24 43.2475 Q2043.23 44.7058 2049.22 46.0426 L2051.77 46.6097 Q2059.71 48.3111 2063.03 51.4303 Q2066.4 54.509 2066.4 60.0587 Q2066.4 66.3781 2061.37 70.0644 Q2056.39 73.7508 2047.64 73.7508 Q2044 73.7508 2040.03 73.0216 Q2036.1 72.3329 2031.72 70.9151 L2031.72 63.2184 Q2035.85 65.3654 2039.86 66.4591 Q2043.87 67.5124 2047.8 67.5124 Q2053.07 67.5124 2055.9 65.73 Q2058.74 63.9071 2058.74 60.6258 Q2058.74 57.5877 2056.67 55.9673 Q2054.65 54.3469 2047.72 52.8481 L2045.13 52.2405 Q2038.2 50.7821 2035.12 47.7845 Q2032.04 44.7463 2032.04 39.4801 Q2032.04 33.0797 2036.58 29.5959 Q2041.12 26.1121 2049.46 26.1121 Q2053.6 26.1121 2057.24 26.7198 Q2060.89 27.3274 2063.97 28.5427 Z" fill="#000000" fill-rule="nonzero" fill-opacity="1"></path><polyline clip-path="url(#clip292)" style="stroke:#009af9; stroke-linecap:round; stroke-linejoin:round; stroke-width:8; stroke-opacity:1; fill:none" points="338.375,158.642 417.394,779.667 516.167,1032.12 614.94,1154.19 713.713,1198.55 1306.35,1246.39 2294.08,1330.98 "></polyline>
<circle clip-path="url(#clip292)" cx="338.375" cy="158.642" r="14.4" fill="#009af9" fill-rule="evenodd" fill-opacity="1" stroke="#000000" stroke-opacity="1" stroke-width="3.2"></circle>
<circle clip-path="url(#clip292)" cx="417.394" cy="779.667" r="14.4" fill="#009af9" fill-rule="evenodd" fill-opacity="1" stroke="#000000" stroke-opacity="1" stroke-width="3.2"></circle>
<circle clip-path="url(#clip292)" cx="516.167" cy="1032.12" r="14.4" fill="#009af9" fill-rule="evenodd" fill-opacity="1" stroke="#000000" stroke-opacity="1" stroke-width="3.2"></circle>
<circle clip-path="url(#clip292)" cx="614.94" cy="1154.19" r="14.4" fill="#009af9" fill-rule="evenodd" fill-opacity="1" stroke="#000000" stroke-opacity="1" stroke-width="3.2"></circle>
<circle clip-path="url(#clip292)" cx="713.713" cy="1198.55" r="14.4" fill="#009af9" fill-rule="evenodd" fill-opacity="1" stroke="#000000" stroke-opacity="1" stroke-width="3.2"></circle>
<circle clip-path="url(#clip292)" cx="1306.35" cy="1246.39" r="14.4" fill="#009af9" fill-rule="evenodd" fill-opacity="1" stroke="#000000" stroke-opacity="1" stroke-width="3.2"></circle>
<circle clip-path="url(#clip292)" cx="2294.08" cy="1330.98" r="14.4" fill="#009af9" fill-rule="evenodd" fill-opacity="1" stroke="#000000" stroke-opacity="1" stroke-width="3.2"></circle>
</svg>