<svg xmlns="http://www.w3.org/2000/svg" xmlns:xlink="http://www.w3.org/1999/xlink" width="600" height="400" viewBox="0 0 2400 1600">
<defs>
  <clipPath id="clip630">
    <rect x="0" y="0" width="2400" height="1600"></rect>
  </clipPath>
</defs>
<path clip-path="url(#clip630)" d="M0 1600 L2400 1600 L2400 8.88178e-14 L0 8.88178e-14  Z" fill="#ffffff" fill-rule="evenodd" fill-opacity="1"></path>
<defs>
  <clipPath id="clip631">
    <rect x="480" y="0" width="1681" height="1600"></rect>
  </clipPath>
</defs>
<path clip-path="url(#clip630)" d="M250.028 1366.15 L2352.76 1366.15 L2352.76 123.472 L250.028 123.472  Z" fill="#ffffff" fill-rule="evenodd" fill-opacity="1"></path>
<defs>
  <clipPath id="clip632">
    <rect x="250" y="123" width="2104" height="1244"></rect>
  </clipPath>
</defs>
<polyline clip-path="url(#clip632)" style="stroke:#000000; stroke-linecap:round; stroke-linejoin:round; stroke-width:2; stroke-opacity:0.1; fill:none" points="309.539,1366.15 309.539,123.472 "></polyline>
<polyline clip-path="url(#clip632)" style="stroke:#000000; stroke-linecap:round; stroke-linejoin:round; stroke-width:2; stroke-opacity:0.1; fill:none" points="389.689,1366.15 389.689,123.472 "></polyline>
<polyline clip-path="url(#clip632)" style="stroke:#000000; stroke-linecap:round; stroke-linejoin:round; stroke-width:2; stroke-opacity:0.1; fill:none" points="489.876,1366.15 489.876,123.472 "></polyline>
<polyline clip-path="url(#clip632)" style="stroke:#000000; stroke-linecap:round; stroke-linejoin:round; stroke-width:2; stroke-opacity:0.1; fill:none" points="590.063,1366.15 590.063,123.472 "></polyline>
<polyline clip-path="url(#clip632)" style="stroke:#000000; stroke-linecap:round; stroke-linejoin:round; stroke-width:2; stroke-opacity:0.1; fill:none" points="690.25,1366.15 690.25,123.472 "></polyline>
<polyline clip-path="url(#clip632)" style="stroke:#000000; stroke-linecap:round; stroke-linejoin:round; stroke-width:2; stroke-opacity:0.1; fill:none" points="1291.37,1366.15 1291.37,123.472 "></polyline>
<polyline clip-path="url(#clip632)" style="stroke:#000000; stroke-linecap:round; stroke-linejoin:round; stroke-width:2; stroke-opacity:0.1; fill:none" points="2293.24,1366.15 2293.24,123.472 "></polyline>
<polyline clip-path="url(#clip632)" style="stroke:#000000; stroke-linecap:round; stroke-linejoin:round; stroke-width:2; stroke-opacity:0.1; fill:none" points="250.028,1162.96 2352.76,1162.96 "></polyline>
<polyline clip-path="url(#clip632)" style="stroke:#000000; stroke-linecap:round; stroke-linejoin:round; stroke-width:2; stroke-opacity:0.1; fill:none" points="250.028,876.639 2352.76,876.639 "></polyline>
<polyline clip-path="url(#clip632)" style="stroke:#000000; stroke-linecap:round; stroke-linejoin:round; stroke-width:2; stroke-opacity:0.1; fill:none" points="250.028,590.317 2352.76,590.317 "></polyline>
<polyline clip-path="url(#clip632)" style="stroke:#000000; stroke-linecap:round; stroke-linejoin:round; stroke-width:2; stroke-opacity:0.1; fill:none" points="250.028,303.995 2352.76,303.995 "></polyline>
<polyline clip-path="url(#clip630)" style="stroke:#000000; stroke-linecap:round; stroke-linejoin:round; stroke-width:4; stroke-opacity:1; fill:none" points="250.028,1366.15 2352.76,1366.15 "></polyline>
<polyline clip-path="url(#clip630)" style="stroke:#000000; stroke-linecap:round; stroke-linejoin:round; stroke-width:4; stroke-opacity:1; fill:none" points="309.539,1366.15 309.539,1347.25 "></polyline>
<polyline clip-path="url(#clip630)" style="stroke:#000000; stroke-linecap:round; stroke-linejoin:round; stroke-width:4; stroke-opacity:1; fill:none" points="389.689,1366.15 389.689,1347.25 "></polyline>
<polyline clip-path="url(#clip630)" style="stroke:#000000; stroke-linecap:round; stroke-linejoin:round; stroke-width:4; stroke-opacity:1; fill:none" points="489.876,1366.15 489.876,1347.25 "></polyline>
<polyline clip-path="url(#clip630)" style="stroke:#000000; stroke-linecap:round; stroke-linejoin:round; stroke-width:4; stroke-opacity:1; fill:none" points="590.063,1366.15 590.063,1347.25 "></polyline>
<polyline clip-path="url(#clip630)" style="stroke:#000000; stroke-linecap:round; stroke-linejoin:round; stroke-width:4; stroke-opacity:1; fill:none" points="690.25,1366.15 690.25,1347.25 "></polyline>
<polyline clip-path="url(#clip630)" style="stroke:#000000; stroke-linecap:round; stroke-linejoin:round; stroke-width:4; stroke-opacity:1; fill:none" points="1291.37,1366.15 1291.37,1347.25 "></polyline>
<polyline clip-path="url(#clip630)" style="stroke:#000000; stroke-linecap:round; stroke-linejoin:round; stroke-width:4; stroke-opacity:1; fill:none" points="2293.24,1366.15 2293.24,1347.25 "></polyline>
<path clip-path="url(#clip630)" d="M261.376 1470.71 L266.778 1465.31 L248.134 1446.67 L243.437 1453.72 L240.425 1450.71 L245.09 1443.69 L248.396 1440.38 L270.051 1462.04 L275.453 1456.64 L278.235 1459.42 L264.159 1473.5 L261.376 1470.71 Z" fill="#000000" fill-rule="nonzero" fill-opacity="1"></path><path clip-path="url(#clip630)" d="M269.724 1423.41 Q267.17 1425.96 268.398 1429.78 Q269.626 1433.56 274.667 1438.6 Q279.692 1443.62 283.489 1444.87 Q287.287 1446.08 289.84 1443.53 Q292.41 1440.96 291.182 1437.17 Q289.955 1433.36 284.93 1428.34 Q279.888 1423.29 276.091 1422.08 Q272.294 1420.84 269.724 1423.41 M267.105 1420.79 Q271.213 1416.68 276.631 1417.78 Q282.049 1418.84 288.236 1425.03 Q294.407 1431.2 295.487 1436.63 Q296.568 1442.04 292.459 1446.14 Q288.351 1450.25 282.933 1449.19 Q277.515 1448.09 271.344 1441.92 Q265.157 1435.73 264.077 1430.33 Q262.997 1424.9 267.105 1420.79 Z" fill="#000000" fill-rule="nonzero" fill-opacity="1"></path><path clip-path="url(#clip630)" d="M291.052 1402.08 Q288.498 1404.64 289.726 1408.45 Q290.953 1412.23 295.995 1417.27 Q301.02 1422.3 304.817 1423.54 Q308.615 1424.75 311.168 1422.2 Q313.738 1419.63 312.51 1415.85 Q311.283 1412.03 306.257 1407.01 Q301.216 1401.97 297.419 1400.76 Q293.621 1399.51 291.052 1402.08 M288.433 1399.46 Q292.541 1395.35 297.959 1396.45 Q303.377 1397.51 309.564 1403.7 Q315.735 1409.87 316.815 1415.31 Q317.895 1420.71 313.787 1424.82 Q309.678 1428.93 304.261 1427.86 Q298.843 1426.76 292.672 1420.59 Q286.485 1414.41 285.405 1409.01 Q284.324 1403.57 288.433 1399.46 Z" fill="#000000" fill-rule="nonzero" fill-opacity="1"></path><path clip-path="url(#clip630)" d="M319.331 1449.6 L332.311 1436.62 L335.093 1439.4 L325.141 1449.35 L331.132 1455.34 Q331.607 1454.38 332.212 1453.54 Q332.802 1452.69 333.522 1451.97 Q337.614 1447.88 342.246 1447.73 Q346.878 1447.58 350.708 1451.42 Q354.653 1455.36 354.391 1460.01 Q354.113 1464.64 349.644 1469.11 Q348.106 1470.65 346.24 1471.99 Q344.39 1473.32 342.164 1474.49 L338.841 1471.17 Q341.117 1470.5 343.081 1469.32 Q345.045 1468.14 346.796 1466.39 Q349.628 1463.56 349.792 1460.42 Q349.955 1457.27 347.402 1454.72 Q344.849 1452.17 341.706 1452.33 Q338.563 1452.5 335.731 1455.33 Q334.406 1456.65 333.374 1458.27 Q332.36 1459.88 331.607 1461.87 L319.331 1449.6 Z" fill="#000000" fill-rule="nonzero" fill-opacity="1"></path><path clip-path="url(#clip630)" d="M349.874 1423.41 Q347.32 1425.96 348.548 1429.78 Q349.775 1433.56 354.817 1438.6 Q359.842 1443.62 363.639 1444.87 Q367.437 1446.08 369.99 1443.53 Q372.56 1440.96 371.332 1437.17 Q370.105 1433.36 365.08 1428.34 Q360.038 1423.29 356.241 1422.08 Q352.443 1420.84 349.874 1423.41 M347.255 1420.79 Q351.363 1416.68 356.781 1417.78 Q362.199 1418.84 368.386 1425.03 Q374.557 1431.2 375.637 1436.63 Q376.717 1442.04 372.609 1446.14 Q368.5 1450.25 363.083 1449.19 Q357.665 1448.09 351.494 1441.92 Q345.307 1435.73 344.227 1430.33 Q343.146 1424.9 347.255 1420.79 Z" fill="#000000" fill-rule="nonzero" fill-opacity="1"></path><path clip-path="url(#clip630)" d="M371.201 1402.08 Q368.648 1404.64 369.875 1408.45 Q371.103 1412.23 376.144 1417.27 Q381.169 1422.3 384.967 1423.54 Q388.764 1424.75 391.318 1422.2 Q393.887 1419.63 392.66 1415.85 Q391.432 1412.03 386.407 1407.01 Q381.366 1401.97 377.568 1400.76 Q373.771 1399.51 371.201 1402.08 M368.582 1399.46 Q372.691 1395.35 378.109 1396.45 Q383.526 1397.51 389.714 1403.7 Q395.884 1409.87 396.965 1415.31 Q398.045 1420.71 393.937 1424.82 Q389.828 1428.93 384.41 1427.86 Q378.992 1426.76 372.822 1420.59 Q366.635 1414.41 365.554 1409.01 Q364.474 1403.57 368.582 1399.46 Z" fill="#000000" fill-rule="nonzero" fill-opacity="1"></path><path clip-path="url(#clip630)" d="M420.385 1492.04 L425.787 1486.64 L407.143 1468 L402.446 1475.05 L399.434 1472.04 L404.099 1465.02 L407.405 1461.71 L429.06 1483.37 L434.462 1477.96 L437.244 1480.75 L423.168 1494.82 L420.385 1492.04 Z" fill="#000000" fill-rule="nonzero" fill-opacity="1"></path><path clip-path="url(#clip630)" d="M428.733 1444.74 Q426.18 1447.29 427.407 1451.1 Q428.635 1454.89 433.676 1459.93 Q438.701 1464.95 442.499 1466.2 Q446.296 1467.41 448.849 1464.85 Q451.419 1462.28 450.192 1458.5 Q448.964 1454.69 443.939 1449.66 Q438.898 1444.62 435.1 1443.41 Q431.303 1442.17 428.733 1444.74 M426.114 1442.12 Q430.223 1438.01 435.64 1439.11 Q441.058 1440.17 447.245 1446.36 Q453.416 1452.53 454.496 1457.96 Q455.577 1463.36 451.468 1467.47 Q447.36 1471.58 441.942 1470.52 Q436.524 1469.42 430.353 1463.25 Q424.166 1457.06 423.086 1451.66 Q422.006 1446.23 426.114 1442.12 Z" fill="#000000" fill-rule="nonzero" fill-opacity="1"></path><path clip-path="url(#clip630)" d="M450.061 1423.41 Q447.507 1425.96 448.735 1429.78 Q449.962 1433.56 455.004 1438.6 Q460.029 1443.62 463.826 1444.87 Q467.624 1446.08 470.177 1443.53 Q472.747 1440.96 471.519 1437.17 Q470.292 1433.36 465.267 1428.34 Q460.225 1423.29 456.428 1422.08 Q452.63 1420.84 450.061 1423.41 M447.442 1420.79 Q451.55 1416.68 456.968 1417.78 Q462.386 1418.84 468.573 1425.03 Q474.744 1431.2 475.824 1436.63 Q476.904 1442.04 472.796 1446.14 Q468.688 1450.25 463.27 1449.19 Q457.852 1448.09 451.681 1441.92 Q445.494 1435.73 444.414 1430.33 Q443.333 1424.9 447.442 1420.79 Z" fill="#000000" fill-rule="nonzero" fill-opacity="1"></path><path clip-path="url(#clip630)" d="M471.388 1402.08 Q468.835 1404.64 470.063 1408.45 Q471.29 1412.23 476.332 1417.27 Q481.357 1422.3 485.154 1423.54 Q488.951 1424.75 491.505 1422.2 Q494.075 1419.63 492.847 1415.85 Q491.619 1412.03 486.594 1407.01 Q481.553 1401.97 477.756 1400.76 Q473.958 1399.51 471.388 1402.08 M468.769 1399.46 Q472.878 1395.35 478.296 1396.45 Q483.714 1397.51 489.901 1403.7 Q496.071 1409.87 497.152 1415.31 Q498.232 1420.71 494.124 1424.82 Q490.015 1428.93 484.597 1427.86 Q479.18 1426.76 473.009 1420.59 Q466.822 1414.41 465.741 1409.01 Q464.661 1403.57 468.769 1399.46 Z" fill="#000000" fill-rule="nonzero" fill-opacity="1"></path><path clip-path="url(#clip630)" d="M520.572 1492.04 L525.974 1486.64 L507.331 1468 L502.633 1475.05 L499.621 1472.04 L504.286 1465.02 L507.593 1461.71 L529.248 1483.37 L534.649 1477.96 L537.432 1480.75 L523.355 1494.82 L520.572 1492.04 Z" fill="#000000" fill-rule="nonzero" fill-opacity="1"></path><path clip-path="url(#clip630)" d="M519.705 1449.6 L532.685 1436.62 L535.467 1439.4 L525.516 1449.35 L531.506 1455.34 Q531.981 1454.38 532.587 1453.54 Q533.176 1452.69 533.896 1451.97 Q537.988 1447.88 542.62 1447.73 Q547.252 1447.58 551.083 1451.42 Q555.027 1455.36 554.765 1460.01 Q554.487 1464.64 550.019 1469.11 Q548.48 1470.65 546.614 1471.99 Q544.765 1473.32 542.538 1474.49 L539.216 1471.17 Q541.491 1470.5 543.455 1469.32 Q545.419 1468.14 547.171 1466.39 Q550.002 1463.56 550.166 1460.42 Q550.33 1457.27 547.776 1454.72 Q545.223 1452.17 542.08 1452.33 Q538.937 1452.5 536.106 1455.33 Q534.78 1456.65 533.749 1458.27 Q532.734 1459.88 531.981 1461.87 L519.705 1449.6 Z" fill="#000000" fill-rule="nonzero" fill-opacity="1"></path><path clip-path="url(#clip630)" d="M550.248 1423.41 Q547.694 1425.96 548.922 1429.78 Q550.15 1433.56 555.191 1438.6 Q560.216 1443.62 564.013 1444.87 Q567.811 1446.08 570.364 1443.53 Q572.934 1440.96 571.706 1437.17 Q570.479 1433.36 565.454 1428.34 Q560.412 1423.29 556.615 1422.08 Q552.818 1420.84 550.248 1423.41 M547.629 1420.79 Q551.737 1416.68 557.155 1417.78 Q562.573 1418.84 568.76 1425.03 Q574.931 1431.2 576.011 1436.63 Q577.092 1442.04 572.983 1446.14 Q568.875 1450.25 563.457 1449.19 Q558.039 1448.09 551.868 1441.92 Q545.681 1435.73 544.601 1430.33 Q543.521 1424.9 547.629 1420.79 Z" fill="#000000" fill-rule="nonzero" fill-opacity="1"></path><path clip-path="url(#clip630)" d="M571.576 1402.08 Q569.022 1404.64 570.25 1408.45 Q571.477 1412.23 576.519 1417.27 Q581.544 1422.3 585.341 1423.54 Q589.139 1424.75 591.692 1422.2 Q594.262 1419.63 593.034 1415.85 Q591.807 1412.03 586.781 1407.01 Q581.74 1401.97 577.943 1400.76 Q574.145 1399.51 571.576 1402.08 M568.957 1399.46 Q573.065 1395.35 578.483 1396.45 Q583.901 1397.51 590.088 1403.7 Q596.259 1409.87 597.339 1415.31 Q598.419 1420.71 594.311 1424.82 Q590.202 1428.93 584.785 1427.86 Q579.367 1426.76 573.196 1420.59 Q567.009 1414.41 565.929 1409.01 Q564.848 1403.57 568.957 1399.46 Z" fill="#000000" fill-rule="nonzero" fill-opacity="1"></path><path clip-path="url(#clip630)" d="M623.035 1489.77 L634.574 1478.23 L637.357 1481.01 L621.84 1496.53 L619.057 1493.74 Q618.992 1489.91 618.959 1483.4 Q618.926 1476.85 618.812 1475.07 Q618.615 1471.7 618.01 1469.85 Q617.404 1467.96 616.209 1466.77 Q614.261 1464.82 611.659 1464.97 Q609.073 1465.1 606.879 1467.29 Q605.324 1468.85 604.13 1471.12 Q602.951 1473.38 602.084 1476.44 L598.744 1473.1 Q599.939 1470.3 601.265 1468.16 Q602.591 1466.02 604.031 1464.58 Q607.829 1460.78 611.986 1460.42 Q616.144 1460.06 619.319 1463.23 Q620.825 1464.74 621.611 1466.67 Q622.396 1468.57 622.74 1471.89 Q622.806 1472.78 622.887 1477.24 Q622.953 1481.7 623.035 1489.77 Z" fill="#000000" fill-rule="nonzero" fill-opacity="1"></path><path clip-path="url(#clip630)" d="M629.107 1444.74 Q626.554 1447.29 627.782 1451.1 Q629.009 1454.89 634.05 1459.93 Q639.076 1464.95 642.873 1466.2 Q646.67 1467.41 649.224 1464.85 Q651.794 1462.28 650.566 1458.5 Q649.338 1454.69 644.313 1449.66 Q639.272 1444.62 635.475 1443.41 Q631.677 1442.17 629.107 1444.74 M626.488 1442.12 Q630.597 1438.01 636.015 1439.11 Q641.433 1440.17 647.62 1446.36 Q653.79 1452.53 654.871 1457.96 Q655.951 1463.36 651.843 1467.47 Q647.734 1471.58 642.316 1470.52 Q636.899 1469.42 630.728 1463.25 Q624.541 1457.06 623.46 1451.66 Q622.38 1446.23 626.488 1442.12 Z" fill="#000000" fill-rule="nonzero" fill-opacity="1"></path><path clip-path="url(#clip630)" d="M650.435 1423.41 Q647.882 1425.96 649.109 1429.78 Q650.337 1433.56 655.378 1438.6 Q660.403 1443.62 664.201 1444.87 Q667.998 1446.08 670.551 1443.53 Q673.121 1440.96 671.894 1437.17 Q670.666 1433.36 665.641 1428.34 Q660.6 1423.29 656.802 1422.08 Q653.005 1420.84 650.435 1423.41 M647.816 1420.79 Q651.924 1416.68 657.342 1417.78 Q662.76 1418.84 668.947 1425.03 Q675.118 1431.2 676.198 1436.63 Q677.279 1442.04 673.17 1446.14 Q669.062 1450.25 663.644 1449.19 Q658.226 1448.09 652.055 1441.92 Q645.868 1435.73 644.788 1430.33 Q643.708 1424.9 647.816 1420.79 Z" fill="#000000" fill-rule="nonzero" fill-opacity="1"></path><path clip-path="url(#clip630)" d="M671.763 1402.08 Q669.209 1404.64 670.437 1408.45 Q671.664 1412.23 676.706 1417.27 Q681.731 1422.3 685.528 1423.54 Q689.326 1424.75 691.879 1422.2 Q694.449 1419.63 693.221 1415.85 Q691.994 1412.03 686.969 1407.01 Q681.927 1401.97 678.13 1400.76 Q674.332 1399.51 671.763 1402.08 M669.144 1399.46 Q673.252 1395.35 678.67 1396.45 Q684.088 1397.51 690.275 1403.7 Q696.446 1409.87 697.526 1415.31 Q698.606 1420.71 694.498 1424.82 Q690.39 1428.93 684.972 1427.86 Q679.554 1426.76 673.383 1420.59 Q667.196 1414.41 666.116 1409.01 Q665.035 1403.57 669.144 1399.46 Z" fill="#000000" fill-rule="nonzero" fill-opacity="1"></path><path clip-path="url(#clip630)" d="M1199.69 1470.93 L1212.67 1457.95 L1215.45 1460.73 L1205.5 1470.68 L1211.49 1476.67 Q1211.96 1475.71 1212.57 1474.87 Q1213.16 1474.02 1213.88 1473.3 Q1217.97 1469.21 1222.6 1469.06 Q1227.23 1468.91 1231.06 1472.74 Q1235.01 1476.69 1234.75 1481.34 Q1234.47 1485.97 1230 1490.44 Q1228.46 1491.98 1226.6 1493.32 Q1224.75 1494.64 1222.52 1495.82 L1219.2 1492.5 Q1221.47 1491.83 1223.44 1490.65 Q1225.4 1489.47 1227.15 1487.72 Q1229.98 1484.89 1230.15 1481.75 Q1230.31 1478.6 1227.76 1476.05 Q1225.21 1473.5 1222.06 1473.66 Q1218.92 1473.82 1216.09 1476.65 Q1214.76 1477.98 1213.73 1479.6 Q1212.72 1481.21 1211.96 1483.2 L1199.69 1470.93 Z" fill="#000000" fill-rule="nonzero" fill-opacity="1"></path><path clip-path="url(#clip630)" d="M1230.23 1444.74 Q1227.68 1447.29 1228.9 1451.1 Q1230.13 1454.89 1235.17 1459.93 Q1240.2 1464.95 1244 1466.2 Q1247.79 1467.41 1250.35 1464.85 Q1252.92 1462.28 1251.69 1458.5 Q1250.46 1454.69 1245.44 1449.66 Q1240.39 1444.62 1236.6 1443.41 Q1232.8 1442.17 1230.23 1444.74 M1227.61 1442.12 Q1231.72 1438.01 1237.14 1439.11 Q1242.56 1440.17 1248.74 1446.36 Q1254.91 1452.53 1255.99 1457.96 Q1257.07 1463.36 1252.97 1467.47 Q1248.86 1471.58 1243.44 1470.52 Q1238.02 1469.42 1231.85 1463.25 Q1225.66 1457.06 1224.58 1451.66 Q1223.5 1446.23 1227.61 1442.12 Z" fill="#000000" fill-rule="nonzero" fill-opacity="1"></path><path clip-path="url(#clip630)" d="M1251.56 1423.41 Q1249 1425.96 1250.23 1429.78 Q1251.46 1433.56 1256.5 1438.6 Q1261.53 1443.62 1265.32 1444.87 Q1269.12 1446.08 1271.67 1443.53 Q1274.24 1440.96 1273.02 1437.17 Q1271.79 1433.36 1266.76 1428.34 Q1261.72 1423.29 1257.93 1422.08 Q1254.13 1420.84 1251.56 1423.41 M1248.94 1420.79 Q1253.05 1416.68 1258.47 1417.78 Q1263.88 1418.84 1270.07 1425.03 Q1276.24 1431.2 1277.32 1436.63 Q1278.4 1442.04 1274.29 1446.14 Q1270.18 1450.25 1264.77 1449.19 Q1259.35 1448.09 1253.18 1441.92 Q1246.99 1435.73 1245.91 1430.33 Q1244.83 1424.9 1248.94 1420.79 Z" fill="#000000" fill-rule="nonzero" fill-opacity="1"></path><path clip-path="url(#clip630)" d="M1272.89 1402.08 Q1270.33 1404.64 1271.56 1408.45 Q1272.79 1412.23 1277.83 1417.27 Q1282.85 1422.3 1286.65 1423.54 Q1290.45 1424.75 1293 1422.2 Q1295.57 1419.63 1294.34 1415.85 Q1293.12 1412.03 1288.09 1407.01 Q1283.05 1401.97 1279.25 1400.76 Q1275.46 1399.51 1272.89 1402.08 M1270.27 1399.46 Q1274.38 1395.35 1279.79 1396.45 Q1285.21 1397.51 1291.4 1403.7 Q1297.57 1409.87 1298.65 1415.31 Q1299.73 1420.71 1295.62 1424.82 Q1291.51 1428.93 1286.09 1427.86 Q1280.68 1426.76 1274.51 1420.59 Q1268.32 1414.41 1267.24 1409.01 Q1266.16 1403.57 1270.27 1399.46 Z" fill="#000000" fill-rule="nonzero" fill-opacity="1"></path><path clip-path="url(#clip630)" d="M2202.43 1513.37 L2207.83 1507.97 L2189.18 1489.32 L2184.49 1496.38 L2181.48 1493.37 L2186.14 1486.34 L2189.45 1483.04 L2211.1 1504.69 L2216.5 1499.29 L2219.29 1502.07 L2205.21 1516.15 L2202.43 1513.37 Z" fill="#000000" fill-rule="nonzero" fill-opacity="1"></path><path clip-path="url(#clip630)" d="M2210.77 1466.06 Q2208.22 1468.62 2209.45 1472.43 Q2210.68 1476.21 2215.72 1481.25 Q2220.74 1486.28 2224.54 1487.52 Q2228.34 1488.73 2230.89 1486.18 Q2233.46 1483.61 2232.23 1479.83 Q2231 1476.02 2225.98 1470.99 Q2220.94 1465.95 2217.14 1464.74 Q2213.34 1463.49 2210.77 1466.06 M2208.16 1463.45 Q2212.26 1459.34 2217.68 1460.43 Q2223.1 1461.5 2229.29 1467.69 Q2235.46 1473.86 2236.54 1479.29 Q2237.62 1484.69 2233.51 1488.8 Q2229.4 1492.91 2223.98 1491.84 Q2218.57 1490.75 2212.39 1484.58 Q2206.21 1478.39 2205.13 1472.99 Q2204.05 1467.55 2208.16 1463.45 Z" fill="#000000" fill-rule="nonzero" fill-opacity="1"></path><path clip-path="url(#clip630)" d="M2232.1 1444.74 Q2229.55 1447.29 2230.78 1451.1 Q2232 1454.89 2237.04 1459.93 Q2242.07 1464.95 2245.87 1466.2 Q2249.66 1467.41 2252.22 1464.85 Q2254.79 1462.28 2253.56 1458.5 Q2252.33 1454.69 2247.31 1449.66 Q2242.27 1444.62 2238.47 1443.41 Q2234.67 1442.17 2232.1 1444.74 M2229.48 1442.12 Q2233.59 1438.01 2239.01 1439.11 Q2244.43 1440.17 2250.61 1446.36 Q2256.78 1452.53 2257.87 1457.96 Q2258.95 1463.36 2254.84 1467.47 Q2250.73 1471.58 2245.31 1470.52 Q2239.89 1469.42 2233.72 1463.25 Q2227.53 1457.06 2226.45 1451.66 Q2225.37 1446.23 2229.48 1442.12 Z" fill="#000000" fill-rule="nonzero" fill-opacity="1"></path><path clip-path="url(#clip630)" d="M2253.43 1423.41 Q2250.88 1425.96 2252.1 1429.78 Q2253.33 1433.56 2258.37 1438.6 Q2263.4 1443.62 2267.19 1444.87 Q2270.99 1446.08 2273.55 1443.53 Q2276.12 1440.96 2274.89 1437.17 Q2273.66 1433.36 2268.64 1428.34 Q2263.59 1423.29 2259.8 1422.08 Q2256 1420.84 2253.43 1423.41 M2250.81 1420.79 Q2254.92 1416.68 2260.34 1417.78 Q2265.75 1418.84 2271.94 1425.03 Q2278.11 1431.2 2279.19 1436.63 Q2280.27 1442.04 2276.16 1446.14 Q2272.06 1450.25 2266.64 1449.19 Q2261.22 1448.09 2255.05 1441.92 Q2248.86 1435.73 2247.78 1430.33 Q2246.7 1424.9 2250.81 1420.79 Z" fill="#000000" fill-rule="nonzero" fill-opacity="1"></path><path clip-path="url(#clip630)" d="M2274.76 1402.08 Q2272.2 1404.64 2273.43 1408.45 Q2274.66 1412.23 2279.7 1417.27 Q2284.73 1422.3 2288.52 1423.54 Q2292.32 1424.75 2294.87 1422.2 Q2297.44 1419.63 2296.22 1415.85 Q2294.99 1412.03 2289.96 1407.01 Q2284.92 1401.97 2281.12 1400.76 Q2277.33 1399.51 2274.76 1402.08 M2272.14 1399.46 Q2276.25 1395.35 2281.66 1396.45 Q2287.08 1397.51 2293.27 1403.7 Q2299.44 1409.87 2300.52 1415.31 Q2301.6 1420.71 2297.49 1424.82 Q2293.38 1428.93 2287.97 1427.86 Q2282.55 1426.76 2276.38 1420.59 Q2270.19 1414.41 2269.11 1409.01 Q2268.03 1403.57 2272.14 1399.46 Z" fill="#000000" fill-rule="nonzero" fill-opacity="1"></path><path clip-path="url(#clip630)" d="M996.252 1549.04 L1004.91 1549.04 L1025.98 1588.79 L1025.98 1549.04 L1032.22 1549.04 L1032.22 1596.56 L1023.56 1596.56 L1002.49 1556.81 L1002.49 1596.56 L996.252 1596.56 L996.252 1549.04 Z" fill="#000000" fill-rule="nonzero" fill-opacity="1"></path><path clip-path="url(#clip630)" d="M1044.15 1582.49 L1044.15 1560.91 L1050.01 1560.91 L1050.01 1582.27 Q1050.01 1587.33 1051.98 1589.88 Q1053.96 1592.39 1057.9 1592.39 Q1062.65 1592.39 1065.38 1589.37 Q1068.15 1586.34 1068.15 1581.12 L1068.15 1560.91 L1074.01 1560.91 L1074.01 1596.56 L1068.15 1596.56 L1068.15 1591.08 Q1066.02 1594.33 1063.19 1595.92 Q1060.39 1597.48 1056.66 1597.48 Q1050.52 1597.48 1047.34 1593.66 Q1044.15 1589.84 1044.15 1582.49 M1058.89 1560.05 L1058.89 1560.05 Z" fill="#000000" fill-rule="nonzero" fill-opacity="1"></path><path clip-path="url(#clip630)" d="M1113.83 1567.75 Q1116.02 1563.81 1119.08 1561.93 Q1122.13 1560.05 1126.27 1560.05 Q1131.84 1560.05 1134.87 1563.97 Q1137.89 1567.85 1137.89 1575.04 L1137.89 1596.56 L1132 1596.56 L1132 1575.23 Q1132 1570.11 1130.19 1567.63 Q1128.37 1565.14 1124.65 1565.14 Q1120.1 1565.14 1117.45 1568.17 Q1114.81 1571.19 1114.81 1576.41 L1114.81 1596.56 L1108.92 1596.56 L1108.92 1575.23 Q1108.92 1570.08 1107.11 1567.63 Q1105.3 1565.14 1101.51 1565.14 Q1097.02 1565.14 1094.38 1568.2 Q1091.74 1571.22 1091.74 1576.41 L1091.74 1596.56 L1085.85 1596.56 L1085.85 1560.91 L1091.74 1560.91 L1091.74 1566.45 Q1093.74 1563.17 1096.54 1561.61 Q1099.34 1560.05 1103.2 1560.05 Q1107.08 1560.05 1109.78 1562.03 Q1112.52 1564 1113.83 1567.75 Z" fill="#000000" fill-rule="nonzero" fill-opacity="1"></path><path clip-path="url(#clip630)" d="M1175.16 1578.77 Q1175.16 1572.31 1172.49 1568.65 Q1169.84 1564.95 1165.2 1564.95 Q1160.55 1564.95 1157.88 1568.65 Q1155.24 1572.31 1155.24 1578.77 Q1155.24 1585.23 1157.88 1588.92 Q1160.55 1592.58 1165.2 1592.58 Q1169.84 1592.58 1172.49 1588.92 Q1175.16 1585.23 1175.16 1578.77 M1155.24 1566.32 Q1157.08 1563.14 1159.88 1561.61 Q1162.72 1560.05 1166.63 1560.05 Q1173.12 1560.05 1177.17 1565.21 Q1181.24 1570.36 1181.24 1578.77 Q1181.24 1587.17 1177.17 1592.33 Q1173.12 1597.48 1166.63 1597.48 Q1162.72 1597.48 1159.88 1595.95 Q1157.08 1594.39 1155.24 1591.21 L1155.24 1596.56 L1149.35 1596.56 L1149.35 1547.03 L1155.24 1547.03 L1155.24 1566.32 Z" fill="#000000" fill-rule="nonzero" fill-opacity="1"></path><path clip-path="url(#clip630)" d="M1221.44 1577.27 L1221.44 1580.14 L1194.51 1580.14 Q1194.89 1586.18 1198.14 1589.37 Q1201.42 1592.52 1207.24 1592.52 Q1210.62 1592.52 1213.77 1591.69 Q1216.95 1590.86 1220.07 1589.21 L1220.07 1594.74 Q1216.92 1596.08 1213.61 1596.78 Q1210.3 1597.48 1206.89 1597.48 Q1198.36 1597.48 1193.37 1592.52 Q1188.4 1587.55 1188.4 1579.09 Q1188.4 1570.33 1193.11 1565.21 Q1197.85 1560.05 1205.87 1560.05 Q1213.07 1560.05 1217.24 1564.7 Q1221.44 1569.31 1221.44 1577.27 M1215.58 1575.55 Q1215.52 1570.75 1212.88 1567.88 Q1210.27 1565.02 1205.94 1565.02 Q1201.04 1565.02 1198.08 1567.79 Q1195.15 1570.56 1194.7 1575.58 L1215.58 1575.55 Z" fill="#000000" fill-rule="nonzero" fill-opacity="1"></path><path clip-path="url(#clip630)" d="M1251.71 1566.39 Q1250.72 1565.81 1249.54 1565.56 Q1248.4 1565.27 1247 1565.27 Q1242.03 1565.27 1239.36 1568.52 Q1236.72 1571.73 1236.72 1577.78 L1236.72 1596.56 L1230.83 1596.56 L1230.83 1560.91 L1236.72 1560.91 L1236.72 1566.45 Q1238.56 1563.2 1241.52 1561.64 Q1244.48 1560.05 1248.72 1560.05 Q1249.32 1560.05 1250.05 1560.15 Q1250.78 1560.21 1251.68 1560.37 L1251.71 1566.39 Z" fill="#000000" fill-rule="nonzero" fill-opacity="1"></path><path clip-path="url(#clip630)" d="M1292.38 1565.02 Q1287.67 1565.02 1284.94 1568.71 Q1282.2 1572.37 1282.2 1578.77 Q1282.2 1585.16 1284.9 1588.86 Q1287.64 1592.52 1292.38 1592.52 Q1297.06 1592.52 1299.8 1588.82 Q1302.54 1585.13 1302.54 1578.77 Q1302.54 1572.43 1299.8 1568.74 Q1297.06 1565.02 1292.38 1565.02 M1292.38 1560.05 Q1300.02 1560.05 1304.38 1565.02 Q1308.74 1569.98 1308.74 1578.77 Q1308.74 1587.52 1304.38 1592.52 Q1300.02 1597.48 1292.38 1597.48 Q1284.71 1597.48 1280.35 1592.52 Q1276.02 1587.52 1276.02 1578.77 Q1276.02 1569.98 1280.35 1565.02 Q1284.71 1560.05 1292.38 1560.05 Z" fill="#000000" fill-rule="nonzero" fill-opacity="1"></path><path clip-path="url(#clip630)" d="M1336.5 1547.03 L1336.5 1551.9 L1330.9 1551.9 Q1327.75 1551.9 1326.5 1553.18 Q1325.3 1554.45 1325.3 1557.76 L1325.3 1560.91 L1334.94 1560.91 L1334.94 1565.46 L1325.3 1565.46 L1325.3 1596.56 L1319.41 1596.56 L1319.41 1565.46 L1313.81 1565.46 L1313.81 1560.91 L1319.41 1560.91 L1319.41 1558.43 Q1319.41 1552.48 1322.18 1549.77 Q1324.95 1547.03 1330.96 1547.03 L1336.5 1547.03 Z" fill="#000000" fill-rule="nonzero" fill-opacity="1"></path><path clip-path="url(#clip630)" d="M1358.72 1560.91 L1364.57 1560.91 L1371.89 1588.73 L1379.18 1560.91 L1386.09 1560.91 L1393.41 1588.73 L1400.7 1560.91 L1406.55 1560.91 L1397.23 1596.56 L1390.32 1596.56 L1382.65 1567.34 L1374.95 1596.56 L1368.04 1596.56 L1358.72 1560.91 Z" fill="#000000" fill-rule="nonzero" fill-opacity="1"></path><path clip-path="url(#clip630)" d="M1445.93 1577.27 L1445.93 1580.14 L1419 1580.14 Q1419.38 1586.18 1422.63 1589.37 Q1425.91 1592.52 1431.73 1592.52 Q1435.1 1592.52 1438.25 1591.69 Q1441.44 1590.86 1444.56 1589.21 L1444.56 1594.74 Q1441.41 1596.08 1438.1 1596.78 Q1434.79 1597.48 1431.38 1597.48 Q1422.85 1597.48 1417.85 1592.52 Q1412.89 1587.55 1412.89 1579.09 Q1412.89 1570.33 1417.6 1565.21 Q1422.34 1560.05 1430.36 1560.05 Q1437.55 1560.05 1441.72 1564.7 Q1445.93 1569.31 1445.93 1577.27 M1440.07 1575.55 Q1440.01 1570.75 1437.36 1567.88 Q1434.75 1565.02 1430.42 1565.02 Q1425.52 1565.02 1422.56 1567.79 Q1419.64 1570.56 1419.19 1575.58 L1440.07 1575.55 Z" fill="#000000" fill-rule="nonzero" fill-opacity="1"></path><path clip-path="url(#clip630)" d="M1455.54 1560.91 L1461.39 1560.91 L1461.39 1596.56 L1455.54 1596.56 L1455.54 1560.91 M1455.54 1547.03 L1461.39 1547.03 L1461.39 1554.45 L1455.54 1554.45 L1455.54 1547.03 Z" fill="#000000" fill-rule="nonzero" fill-opacity="1"></path><path clip-path="url(#clip630)" d="M1497.11 1578.32 Q1497.11 1571.96 1494.46 1568.45 Q1491.85 1564.95 1487.11 1564.95 Q1482.4 1564.95 1479.76 1568.45 Q1477.15 1571.96 1477.15 1578.32 Q1477.15 1584.66 1479.76 1588.16 Q1482.4 1591.66 1487.11 1591.66 Q1491.85 1591.66 1494.46 1588.16 Q1497.11 1584.66 1497.11 1578.32 M1502.96 1592.13 Q1502.96 1601.24 1498.92 1605.66 Q1494.88 1610.12 1486.54 1610.12 Q1483.45 1610.12 1480.71 1609.64 Q1477.98 1609.2 1475.4 1608.24 L1475.4 1602.54 Q1477.98 1603.94 1480.49 1604.61 Q1483.01 1605.28 1485.62 1605.28 Q1491.38 1605.28 1494.24 1602.26 Q1497.11 1599.26 1497.11 1593.19 L1497.11 1590.29 Q1495.29 1593.44 1492.46 1595 Q1489.63 1596.56 1485.68 1596.56 Q1479.12 1596.56 1475.11 1591.56 Q1471.1 1586.56 1471.1 1578.32 Q1471.1 1570.05 1475.11 1565.05 Q1479.12 1560.05 1485.68 1560.05 Q1489.63 1560.05 1492.46 1561.61 Q1495.29 1563.17 1497.11 1566.32 L1497.11 1560.91 L1502.96 1560.91 L1502.96 1592.13 Z" fill="#000000" fill-rule="nonzero" fill-opacity="1"></path><path clip-path="url(#clip630)" d="M1544.66 1575.04 L1544.66 1596.56 L1538.8 1596.56 L1538.8 1575.23 Q1538.8 1570.17 1536.83 1567.66 Q1534.85 1565.14 1530.91 1565.14 Q1526.17 1565.14 1523.43 1568.17 Q1520.69 1571.19 1520.69 1576.41 L1520.69 1596.56 L1514.8 1596.56 L1514.8 1547.03 L1520.69 1547.03 L1520.69 1566.45 Q1522.79 1563.23 1525.62 1561.64 Q1528.49 1560.05 1532.21 1560.05 Q1538.36 1560.05 1541.51 1563.87 Q1544.66 1567.66 1544.66 1575.04 Z" fill="#000000" fill-rule="nonzero" fill-opacity="1"></path><path clip-path="url(#clip630)" d="M1562.13 1550.79 L1562.13 1560.91 L1574.19 1560.91 L1574.19 1565.46 L1562.13 1565.46 L1562.13 1584.81 Q1562.13 1589.17 1563.31 1590.42 Q1564.52 1591.66 1568.18 1591.66 L1574.19 1591.66 L1574.19 1596.56 L1568.18 1596.56 Q1561.4 1596.56 1558.82 1594.04 Q1556.24 1591.5 1556.24 1584.81 L1556.24 1565.46 L1551.95 1565.46 L1551.95 1560.91 L1556.24 1560.91 L1556.24 1550.79 L1562.13 1550.79 Z" fill="#000000" fill-rule="nonzero" fill-opacity="1"></path><path clip-path="url(#clip630)" d="M1604.62 1561.96 L1604.62 1567.5 Q1602.14 1566.23 1599.47 1565.59 Q1596.79 1564.95 1593.93 1564.95 Q1589.57 1564.95 1587.37 1566.29 Q1585.21 1567.63 1585.21 1570.3 Q1585.21 1572.34 1586.77 1573.52 Q1588.33 1574.66 1593.04 1575.71 L1595.04 1576.16 Q1601.28 1577.49 1603.89 1579.94 Q1606.53 1582.36 1606.53 1586.72 Q1606.53 1591.69 1602.59 1594.59 Q1598.67 1597.48 1591.8 1597.48 Q1588.93 1597.48 1585.81 1596.91 Q1582.72 1596.37 1579.29 1595.25 L1579.29 1589.21 Q1582.53 1590.89 1585.68 1591.75 Q1588.84 1592.58 1591.92 1592.58 Q1596.06 1592.58 1598.29 1591.18 Q1600.52 1589.75 1600.52 1587.17 Q1600.52 1584.78 1598.89 1583.51 Q1597.3 1582.24 1591.86 1581.06 L1589.82 1580.58 Q1584.38 1579.44 1581.96 1577.08 Q1579.54 1574.69 1579.54 1570.56 Q1579.54 1565.53 1583.11 1562.79 Q1586.67 1560.05 1593.23 1560.05 Q1596.47 1560.05 1599.34 1560.53 Q1602.2 1561.01 1604.62 1561.96 Z" fill="#000000" fill-rule="nonzero" fill-opacity="1"></path><polyline clip-path="url(#clip630)" style="stroke:#000000; stroke-linecap:round; stroke-linejoin:round; stroke-width:4; stroke-opacity:1; fill:none" points="250.028,1366.15 250.028,123.472 "></polyline>
<polyline clip-path="url(#clip630)" style="stroke:#000000; stroke-linecap:round; stroke-linejoin:round; stroke-width:4; stroke-opacity:1; fill:none" points="250.028,1162.96 268.926,1162.96 "></polyline>
<polyline clip-path="url(#clip630)" style="stroke:#000000; stroke-linecap:round; stroke-linejoin:round; stroke-width:4; stroke-opacity:1; fill:none" points="250.028,876.639 268.926,876.639 "></polyline>
<polyline clip-path="url(#clip630)" style="stroke:#000000; stroke-linecap:round; stroke-linejoin:round; stroke-width:4; stroke-opacity:1; fill:none" points="250.028,590.317 268.926,590.317 "></polyline>
<polyline clip-path="url(#clip630)" style="stroke:#000000; stroke-linecap:round; stroke-linejoin:round; stroke-width:4; stroke-opacity:1; fill:none" points="250.028,303.995 268.926,303.995 "></polyline>
<path clip-path="url(#clip630)" d="M127.917 1148.76 Q124.306 1148.76 122.478 1152.32 Q120.672 1155.87 120.672 1163 Q120.672 1170.1 122.478 1173.67 Q124.306 1177.21 127.917 1177.21 Q131.552 1177.21 133.357 1173.67 Q135.186 1170.1 135.186 1163 Q135.186 1155.87 133.357 1152.32 Q131.552 1148.76 127.917 1148.76 M127.917 1145.06 Q133.728 1145.06 136.783 1149.66 Q139.862 1154.25 139.862 1163 Q139.862 1171.72 136.783 1176.33 Q133.728 1180.91 127.917 1180.91 Q122.107 1180.91 119.029 1176.33 Q115.973 1171.72 115.973 1163 Q115.973 1154.25 119.029 1149.66 Q122.107 1145.06 127.917 1145.06 Z" fill="#000000" fill-rule="nonzero" fill-opacity="1"></path><path clip-path="url(#clip630)" d="M148.079 1174.36 L152.964 1174.36 L152.964 1180.24 L148.079 1180.24 L148.079 1174.36 Z" fill="#000000" fill-rule="nonzero" fill-opacity="1"></path><path clip-path="url(#clip630)" d="M173.149 1148.76 Q169.538 1148.76 167.709 1152.32 Q165.903 1155.87 165.903 1163 Q165.903 1170.1 167.709 1173.67 Q169.538 1177.21 173.149 1177.21 Q176.783 1177.21 178.589 1173.67 Q180.417 1170.1 180.417 1163 Q180.417 1155.87 178.589 1152.32 Q176.783 1148.76 173.149 1148.76 M173.149 1145.06 Q178.959 1145.06 182.014 1149.66 Q185.093 1154.25 185.093 1163 Q185.093 1171.72 182.014 1176.33 Q178.959 1180.91 173.149 1180.91 Q167.339 1180.91 164.26 1176.33 Q161.204 1171.72 161.204 1163 Q161.204 1154.25 164.26 1149.66 Q167.339 1145.06 173.149 1145.06 Z" fill="#000000" fill-rule="nonzero" fill-opacity="1"></path><path clip-path="url(#clip630)" d="M194.121 1176.31 L201.76 1176.31 L201.76 1149.94 L193.45 1151.61 L193.45 1147.35 L201.713 1145.68 L206.389 1145.68 L206.389 1176.31 L214.028 1176.31 L214.028 1180.24 L194.121 1180.24 L194.121 1176.31 Z" fill="#000000" fill-rule="nonzero" fill-opacity="1"></path><path clip-path="url(#clip630)" d="M128.288 862.438 Q124.677 862.438 122.848 866.003 Q121.043 869.544 121.043 876.674 Q121.043 883.78 122.848 887.345 Q124.677 890.887 128.288 890.887 Q131.922 890.887 133.728 887.345 Q135.556 883.78 135.556 876.674 Q135.556 869.544 133.728 866.003 Q131.922 862.438 128.288 862.438 M128.288 858.734 Q134.098 858.734 137.154 863.341 Q140.232 867.924 140.232 876.674 Q140.232 885.401 137.154 890.007 Q134.098 894.59 128.288 894.59 Q122.478 894.59 119.399 890.007 Q116.343 885.401 116.343 876.674 Q116.343 867.924 119.399 863.341 Q122.478 858.734 128.288 858.734 Z" fill="#000000" fill-rule="nonzero" fill-opacity="1"></path><path clip-path="url(#clip630)" d="M148.45 888.039 L153.334 888.039 L153.334 893.919 L148.45 893.919 L148.45 888.039 Z" fill="#000000" fill-rule="nonzero" fill-opacity="1"></path><path clip-path="url(#clip630)" d="M173.519 862.438 Q169.908 862.438 168.079 866.003 Q166.274 869.544 166.274 876.674 Q166.274 883.78 168.079 887.345 Q169.908 890.887 173.519 890.887 Q177.153 890.887 178.959 887.345 Q180.788 883.78 180.788 876.674 Q180.788 869.544 178.959 866.003 Q177.153 862.438 173.519 862.438 M173.519 858.734 Q179.329 858.734 182.385 863.341 Q185.463 867.924 185.463 876.674 Q185.463 885.401 182.385 890.007 Q179.329 894.59 173.519 894.59 Q167.709 894.59 164.63 890.007 Q161.575 885.401 161.575 876.674 Q161.575 867.924 164.63 863.341 Q167.709 858.734 173.519 858.734 Z" fill="#000000" fill-rule="nonzero" fill-opacity="1"></path><path clip-path="url(#clip630)" d="M197.709 889.984 L214.028 889.984 L214.028 893.919 L192.084 893.919 L192.084 889.984 Q194.746 887.229 199.329 882.6 Q203.936 877.947 205.116 876.604 Q207.362 874.081 208.241 872.345 Q209.144 870.586 209.144 868.896 Q209.144 866.141 207.199 864.405 Q205.278 862.669 202.176 862.669 Q199.977 862.669 197.524 863.433 Q195.093 864.197 192.315 865.748 L192.315 861.026 Q195.139 859.891 197.593 859.313 Q200.047 858.734 202.084 858.734 Q207.454 858.734 210.649 861.419 Q213.843 864.104 213.843 868.595 Q213.843 870.725 213.033 872.646 Q212.246 874.544 210.139 877.137 Q209.561 877.808 206.459 881.026 Q203.357 884.22 197.709 889.984 Z" fill="#000000" fill-rule="nonzero" fill-opacity="1"></path><path clip-path="url(#clip630)" d="M127.339 576.115 Q123.728 576.115 121.899 579.68 Q120.093 583.222 120.093 590.352 Q120.093 597.458 121.899 601.023 Q123.728 604.564 127.339 604.564 Q130.973 604.564 132.779 601.023 Q134.607 597.458 134.607 590.352 Q134.607 583.222 132.779 579.68 Q130.973 576.115 127.339 576.115 M127.339 572.412 Q133.149 572.412 136.204 577.018 Q139.283 581.602 139.283 590.352 Q139.283 599.078 136.204 603.685 Q133.149 608.268 127.339 608.268 Q121.529 608.268 118.45 603.685 Q115.394 599.078 115.394 590.352 Q115.394 581.602 118.45 577.018 Q121.529 572.412 127.339 572.412 Z" fill="#000000" fill-rule="nonzero" fill-opacity="1"></path><path clip-path="url(#clip630)" d="M147.501 601.717 L152.385 601.717 L152.385 607.597 L147.501 607.597 L147.501 601.717 Z" fill="#000000" fill-rule="nonzero" fill-opacity="1"></path><path clip-path="url(#clip630)" d="M172.57 576.115 Q168.959 576.115 167.13 579.68 Q165.325 583.222 165.325 590.352 Q165.325 597.458 167.13 601.023 Q168.959 604.564 172.57 604.564 Q176.204 604.564 178.01 601.023 Q179.839 597.458 179.839 590.352 Q179.839 583.222 178.01 579.68 Q176.204 576.115 172.57 576.115 M172.57 572.412 Q178.38 572.412 181.436 577.018 Q184.514 581.602 184.514 590.352 Q184.514 599.078 181.436 603.685 Q178.38 608.268 172.57 608.268 Q166.76 608.268 163.681 603.685 Q160.626 599.078 160.626 590.352 Q160.626 581.602 163.681 577.018 Q166.76 572.412 172.57 572.412 Z" fill="#000000" fill-rule="nonzero" fill-opacity="1"></path><path clip-path="url(#clip630)" d="M206.899 588.963 Q210.255 589.68 212.13 591.949 Q214.028 594.217 214.028 597.551 Q214.028 602.666 210.51 605.467 Q206.991 608.268 200.51 608.268 Q198.334 608.268 196.019 607.828 Q193.727 607.412 191.274 606.555 L191.274 602.041 Q193.218 603.176 195.533 603.754 Q197.848 604.333 200.371 604.333 Q204.769 604.333 207.061 602.597 Q209.375 600.861 209.375 597.551 Q209.375 594.495 207.223 592.782 Q205.093 591.046 201.274 591.046 L197.246 591.046 L197.246 587.203 L201.459 587.203 Q204.908 587.203 206.737 585.838 Q208.565 584.449 208.565 581.856 Q208.565 579.194 206.667 577.782 Q204.792 576.347 201.274 576.347 Q199.352 576.347 197.153 576.764 Q194.954 577.18 192.315 578.06 L192.315 573.893 Q194.977 573.153 197.292 572.782 Q199.63 572.412 201.69 572.412 Q207.014 572.412 210.116 574.842 Q213.218 577.25 213.218 581.37 Q213.218 584.24 211.574 586.231 Q209.931 588.199 206.899 588.963 Z" fill="#000000" fill-rule="nonzero" fill-opacity="1"></path><path clip-path="url(#clip630)" d="M126.205 289.793 Q122.593 289.793 120.765 293.358 Q118.959 296.9 118.959 304.029 Q118.959 311.136 120.765 314.7 Q122.593 318.242 126.205 318.242 Q129.839 318.242 131.644 314.7 Q133.473 311.136 133.473 304.029 Q133.473 296.9 131.644 293.358 Q129.839 289.793 126.205 289.793 M126.205 286.09 Q132.015 286.09 135.07 290.696 Q138.149 295.279 138.149 304.029 Q138.149 312.756 135.07 317.363 Q132.015 321.946 126.205 321.946 Q120.394 321.946 117.316 317.363 Q114.26 312.756 114.26 304.029 Q114.26 295.279 117.316 290.696 Q120.394 286.09 126.205 286.09 Z" fill="#000000" fill-rule="nonzero" fill-opacity="1"></path><path clip-path="url(#clip630)" d="M146.366 315.395 L151.251 315.395 L151.251 321.275 L146.366 321.275 L146.366 315.395 Z" fill="#000000" fill-rule="nonzero" fill-opacity="1"></path><path clip-path="url(#clip630)" d="M171.436 289.793 Q167.825 289.793 165.996 293.358 Q164.19 296.9 164.19 304.029 Q164.19 311.136 165.996 314.7 Q167.825 318.242 171.436 318.242 Q175.07 318.242 176.876 314.7 Q178.704 311.136 178.704 304.029 Q178.704 296.9 176.876 293.358 Q175.07 289.793 171.436 289.793 M171.436 286.09 Q177.246 286.09 180.301 290.696 Q183.38 295.279 183.38 304.029 Q183.38 312.756 180.301 317.363 Q177.246 321.946 171.436 321.946 Q165.626 321.946 162.547 317.363 Q159.491 312.756 159.491 304.029 Q159.491 295.279 162.547 290.696 Q165.626 286.09 171.436 286.09 Z" fill="#000000" fill-rule="nonzero" fill-opacity="1"></path><path clip-path="url(#clip630)" d="M204.445 290.789 L192.639 309.238 L204.445 309.238 L204.445 290.789 M203.218 286.715 L209.098 286.715 L209.098 309.238 L214.028 309.238 L214.028 313.126 L209.098 313.126 L209.098 321.275 L204.445 321.275 L204.445 313.126 L188.843 313.126 L188.843 308.613 L203.218 286.715 Z" fill="#000000" fill-rule="nonzero" fill-opacity="1"></path><path clip-path="url(#clip630)" d="M46.0847 1080.41 Q46.0847 1087.51 47.7079 1090.25 Q49.3312 1092.98 53.2461 1092.98 Q56.3653 1092.98 58.2114 1090.95 Q60.0256 1088.88 60.0256 1085.34 Q60.0256 1080.47 56.5881 1077.55 Q53.1188 1074.59 47.3897 1074.59 L46.0847 1074.59 L46.0847 1080.41 M43.6657 1068.73 L64.0042 1068.73 L64.0042 1074.59 L58.5933 1074.59 Q61.8398 1076.59 63.3994 1079.58 Q64.9272 1082.58 64.9272 1086.9 Q64.9272 1092.38 61.8716 1095.62 Q58.7843 1098.84 53.6281 1098.84 Q47.6125 1098.84 44.5569 1094.83 Q41.5014 1090.79 41.5014 1082.8 L41.5014 1074.59 L40.9285 1074.59 Q36.8862 1074.59 34.6901 1077.26 Q32.4621 1079.9 32.4621 1084.71 Q32.4621 1087.76 33.1941 1090.66 Q33.9262 1093.56 35.3903 1096.23 L29.9795 1096.23 Q28.7381 1093.01 28.1334 1089.99 Q27.4968 1086.97 27.4968 1084.1 Q27.4968 1076.37 31.5072 1072.55 Q35.5176 1068.73 43.6657 1068.73 Z" fill="#000000" fill-rule="nonzero" fill-opacity="1"></path><path clip-path="url(#clip630)" d="M28.3562 1060.87 L28.3562 1054.66 L58.275 1043.52 L28.3562 1032.38 L28.3562 1026.17 L64.0042 1039.54 L64.0042 1047.5 L28.3562 1060.87 Z" fill="#000000" fill-rule="nonzero" fill-opacity="1"></path><path clip-path="url(#clip630)" d="M44.7161 987.599 L47.5806 987.599 L47.5806 1014.53 Q53.6281 1014.14 56.8109 1010.9 Q59.9619 1007.62 59.9619 1001.79 Q59.9619 998.42 59.1344 995.269 Q58.3069 992.087 56.6518 988.967 L62.1899 988.967 Q63.5267 992.118 64.227 995.429 Q64.9272 998.739 64.9272 1002.14 Q64.9272 1010.67 59.9619 1015.67 Q54.9967 1020.64 46.5303 1020.64 Q37.7774 1020.64 32.6531 1015.93 Q27.4968 1011.18 27.4968 1003.16 Q27.4968 995.97 32.1438 991.8 Q36.7589 987.599 44.7161 987.599 M42.9973 993.455 Q38.1912 993.519 35.3266 996.161 Q32.4621 998.771 32.4621 1003.1 Q32.4621 1008 35.2312 1010.96 Q38.0002 1013.89 43.0292 1014.33 L42.9973 993.455 Z" fill="#000000" fill-rule="nonzero" fill-opacity="1"></path><path clip-path="url(#clip630)" d="M33.8307 957.33 Q33.2578 958.316 33.0032 959.494 Q32.7167 960.64 32.7167 962.04 Q32.7167 967.006 35.9632 969.679 Q39.1779 972.321 45.2253 972.321 L64.0042 972.321 L64.0042 978.209 L28.3562 978.209 L28.3562 972.321 L33.8944 972.321 Q30.6479 970.475 29.0883 967.515 Q27.4968 964.555 27.4968 960.322 Q27.4968 959.717 27.5923 958.985 Q27.656 958.253 27.8151 957.362 L33.8307 957.33 Z" fill="#000000" fill-rule="nonzero" fill-opacity="1"></path><path clip-path="url(#clip630)" d="M46.0847 934.986 Q46.0847 942.084 47.7079 944.821 Q49.3312 947.558 53.2461 947.558 Q56.3653 947.558 58.2114 945.521 Q60.0256 943.453 60.0256 939.92 Q60.0256 935.05 56.5881 932.122 Q53.1188 929.162 47.3897 929.162 L46.0847 929.162 L46.0847 934.986 M43.6657 923.305 L64.0042 923.305 L64.0042 929.162 L58.5933 929.162 Q61.8398 931.167 63.3994 934.159 Q64.9272 937.151 64.9272 941.479 Q64.9272 946.954 61.8716 950.2 Q58.7843 953.415 53.6281 953.415 Q47.6125 953.415 44.5569 949.405 Q41.5014 945.362 41.5014 937.373 L41.5014 929.162 L40.9285 929.162 Q36.8862 929.162 34.6901 931.835 Q32.4621 934.477 32.4621 939.283 Q32.4621 942.339 33.1941 945.235 Q33.9262 948.131 35.3903 950.805 L29.9795 950.805 Q28.7381 947.59 28.1334 944.567 Q27.4968 941.543 27.4968 938.678 Q27.4968 930.944 31.5072 927.125 Q35.5176 923.305 43.6657 923.305 Z" fill="#000000" fill-rule="nonzero" fill-opacity="1"></path><path clip-path="url(#clip630)" d="M45.7664 887.784 Q39.4007 887.784 35.8996 890.426 Q32.3984 893.036 32.3984 897.779 Q32.3984 902.489 35.8996 905.131 Q39.4007 907.741 45.7664 907.741 Q52.1003 907.741 55.6014 905.131 Q59.1026 902.489 59.1026 897.779 Q59.1026 893.036 55.6014 890.426 Q52.1003 887.784 45.7664 887.784 M59.58 881.928 Q68.683 881.928 73.1071 885.97 Q77.5631 890.012 77.5631 898.352 Q77.5631 901.439 77.0857 904.176 Q76.6401 906.913 75.6852 909.492 L69.9879 909.492 Q71.3884 906.913 72.0568 904.399 Q72.7252 901.885 72.7252 899.275 Q72.7252 893.514 69.7015 890.649 Q66.7096 887.784 60.6303 887.784 L57.7339 887.784 Q60.885 889.599 62.4446 892.431 Q64.0042 895.264 64.0042 899.211 Q64.0042 905.768 59.0071 909.778 Q54.01 913.788 45.7664 913.788 Q37.491 913.788 32.4939 909.778 Q27.4968 905.768 27.4968 899.211 Q27.4968 895.264 29.0564 892.431 Q30.616 889.599 33.7671 887.784 L28.3562 887.784 L28.3562 881.928 L59.58 881.928 Z" fill="#000000" fill-rule="nonzero" fill-opacity="1"></path><path clip-path="url(#clip630)" d="M44.7161 839.373 L47.5806 839.373 L47.5806 866.3 Q53.6281 865.918 56.8109 862.672 Q59.9619 859.393 59.9619 853.569 Q59.9619 850.195 59.1344 847.044 Q58.3069 843.861 56.6518 840.742 L62.1899 840.742 Q63.5267 843.893 64.227 847.203 Q64.9272 850.513 64.9272 853.919 Q64.9272 862.449 59.9619 867.446 Q54.9967 872.411 46.5303 872.411 Q37.7774 872.411 32.6531 867.701 Q27.4968 862.958 27.4968 854.937 Q27.4968 847.744 32.1438 843.575 Q36.7589 839.373 44.7161 839.373 M42.9973 845.23 Q38.1912 845.293 35.3266 847.935 Q32.4621 850.545 32.4621 854.874 Q32.4621 859.775 35.2312 862.735 Q38.0002 865.664 43.0292 866.109 L42.9973 845.23 Z" fill="#000000" fill-rule="nonzero" fill-opacity="1"></path><path clip-path="url(#clip630)" d="M33.8307 788.384 Q33.2578 789.371 33.0032 790.548 Q32.7167 791.694 32.7167 793.095 Q32.7167 798.06 35.9632 800.733 Q39.1779 803.375 45.2253 803.375 L64.0042 803.375 L64.0042 809.263 L28.3562 809.263 L28.3562 803.375 L33.8944 803.375 Q30.6479 801.529 29.0883 798.569 Q27.4968 795.609 27.4968 791.376 Q27.4968 790.771 27.5923 790.039 Q27.656 789.307 27.8151 788.416 L33.8307 788.384 Z" fill="#000000" fill-rule="nonzero" fill-opacity="1"></path><path clip-path="url(#clip630)" d="M44.7161 753.182 L47.5806 753.182 L47.5806 780.109 Q53.6281 779.727 56.8109 776.48 Q59.9619 773.202 59.9619 767.377 Q59.9619 764.003 59.1344 760.852 Q58.3069 757.669 56.6518 754.55 L62.1899 754.55 Q63.5267 757.701 64.227 761.011 Q64.9272 764.322 64.9272 767.727 Q64.9272 776.257 59.9619 781.254 Q54.9967 786.22 46.5303 786.22 Q37.7774 786.22 32.6531 781.509 Q27.4968 776.767 27.4968 768.746 Q27.4968 761.553 32.1438 757.383 Q36.7589 753.182 44.7161 753.182 M42.9973 759.038 Q38.1912 759.102 35.3266 761.743 Q32.4621 764.353 32.4621 768.682 Q32.4621 773.584 35.2312 776.544 Q38.0002 779.472 43.0292 779.918 L42.9973 759.038 Z" fill="#000000" fill-rule="nonzero" fill-opacity="1"></path><path clip-path="url(#clip630)" d="M14.479 743.569 L14.479 737.713 L64.0042 737.713 L64.0042 743.569 L14.479 743.569 Z" fill="#000000" fill-rule="nonzero" fill-opacity="1"></path><path clip-path="url(#clip630)" d="M46.0847 709.258 Q46.0847 716.356 47.7079 719.093 Q49.3312 721.83 53.2461 721.83 Q56.3653 721.83 58.2114 719.793 Q60.0256 717.725 60.0256 714.192 Q60.0256 709.322 56.5881 706.394 Q53.1188 703.434 47.3897 703.434 L46.0847 703.434 L46.0847 709.258 M43.6657 697.577 L64.0042 697.577 L64.0042 703.434 L58.5933 703.434 Q61.8398 705.439 63.3994 708.431 Q64.9272 711.423 64.9272 715.751 Q64.9272 721.226 61.8716 724.472 Q58.7843 727.687 53.6281 727.687 Q47.6125 727.687 44.5569 723.677 Q41.5014 719.634 41.5014 711.645 L41.5014 703.434 L40.9285 703.434 Q36.8862 703.434 34.6901 706.107 Q32.4621 708.749 32.4621 713.555 Q32.4621 716.611 33.1941 719.507 Q33.9262 722.403 35.3903 725.077 L29.9795 725.077 Q28.7381 721.862 28.1334 718.839 Q27.4968 715.815 27.4968 712.95 Q27.4968 705.216 31.5072 701.397 Q35.5176 697.577 43.6657 697.577 Z" fill="#000000" fill-rule="nonzero" fill-opacity="1"></path><path clip-path="url(#clip630)" d="M18.2347 679.721 L28.3562 679.721 L28.3562 667.658 L32.9077 667.658 L32.9077 679.721 L52.2594 679.721 Q56.6199 679.721 57.8613 678.544 Q59.1026 677.334 59.1026 673.674 L59.1026 667.658 L64.0042 667.658 L64.0042 673.674 Q64.0042 680.453 61.4897 683.032 Q58.9434 685.61 52.2594 685.61 L32.9077 685.61 L32.9077 689.906 L28.3562 689.906 L28.3562 685.61 L18.2347 685.61 L18.2347 679.721 Z" fill="#000000" fill-rule="nonzero" fill-opacity="1"></path><path clip-path="url(#clip630)" d="M28.3562 659.956 L28.3562 654.099 L64.0042 654.099 L64.0042 659.956 L28.3562 659.956 M14.479 659.956 L14.479 654.099 L21.895 654.099 L21.895 659.956 L14.479 659.956 Z" fill="#000000" fill-rule="nonzero" fill-opacity="1"></path><path clip-path="url(#clip630)" d="M28.3562 646.047 L28.3562 639.84 L58.275 628.7 L28.3562 617.56 L28.3562 611.354 L64.0042 624.722 L64.0042 632.679 L28.3562 646.047 Z" fill="#000000" fill-rule="nonzero" fill-opacity="1"></path><path clip-path="url(#clip630)" d="M44.7161 572.777 L47.5806 572.777 L47.5806 599.704 Q53.6281 599.322 56.8109 596.076 Q59.9619 592.798 59.9619 586.973 Q59.9619 583.599 59.1344 580.448 Q58.3069 577.265 56.6518 574.146 L62.1899 574.146 Q63.5267 577.297 64.227 580.607 Q64.9272 583.917 64.9272 587.323 Q64.9272 595.853 59.9619 600.85 Q54.9967 605.815 46.5303 605.815 Q37.7774 605.815 32.6531 601.105 Q27.4968 596.362 27.4968 588.342 Q27.4968 581.148 32.1438 576.979 Q36.7589 572.777 44.7161 572.777 M42.9973 578.634 Q38.1912 578.698 35.3266 581.339 Q32.4621 583.949 32.4621 588.278 Q32.4621 593.18 35.2312 596.14 Q38.0002 599.068 43.0292 599.513 L42.9973 578.634 Z" fill="#000000" fill-rule="nonzero" fill-opacity="1"></path><path clip-path="url(#clip630)" d="M44.7161 511.953 L47.5806 511.953 L47.5806 538.88 Q53.6281 538.498 56.8109 535.252 Q59.9619 531.973 59.9619 526.149 Q59.9619 522.775 59.1344 519.624 Q58.3069 516.441 56.6518 513.322 L62.1899 513.322 Q63.5267 516.473 64.227 519.783 Q64.9272 523.093 64.9272 526.499 Q64.9272 535.029 59.9619 540.026 Q54.9967 544.991 46.5303 544.991 Q37.7774 544.991 32.6531 540.281 Q27.4968 535.538 27.4968 527.517 Q27.4968 520.324 32.1438 516.155 Q36.7589 511.953 44.7161 511.953 M42.9973 517.81 Q38.1912 517.873 35.3266 520.515 Q32.4621 523.125 32.4621 527.454 Q32.4621 532.355 35.2312 535.315 Q38.0002 538.244 43.0292 538.689 L42.9973 517.81 Z" fill="#000000" fill-rule="nonzero" fill-opacity="1"></path><path clip-path="url(#clip630)" d="M33.8307 481.684 Q33.2578 482.671 33.0032 483.849 Q32.7167 484.994 32.7167 486.395 Q32.7167 491.36 35.9632 494.034 Q39.1779 496.675 45.2253 496.675 L64.0042 496.675 L64.0042 502.564 L28.3562 502.564 L28.3562 496.675 L33.8944 496.675 Q30.6479 494.829 29.0883 491.869 Q27.4968 488.909 27.4968 484.676 Q27.4968 484.071 27.5923 483.339 Q27.656 482.607 27.8151 481.716 L33.8307 481.684 Z" fill="#000000" fill-rule="nonzero" fill-opacity="1"></path><path clip-path="url(#clip630)" d="M33.8307 456.03 Q33.2578 457.017 33.0032 458.195 Q32.7167 459.341 32.7167 460.741 Q32.7167 465.706 35.9632 468.38 Q39.1779 471.022 45.2253 471.022 L64.0042 471.022 L64.0042 476.91 L28.3562 476.91 L28.3562 471.022 L33.8944 471.022 Q30.6479 469.176 29.0883 466.216 Q27.4968 463.255 27.4968 459.022 Q27.4968 458.418 27.5923 457.686 Q27.656 456.953 27.8151 456.062 L33.8307 456.03 Z" fill="#000000" fill-rule="nonzero" fill-opacity="1"></path><path clip-path="url(#clip630)" d="M32.4621 437.506 Q32.4621 442.217 36.1542 444.954 Q39.8145 447.691 46.212 447.691 Q52.6095 447.691 56.3017 444.986 Q59.9619 442.249 59.9619 437.506 Q59.9619 432.827 56.2698 430.09 Q52.5777 427.353 46.212 427.353 Q39.8781 427.353 36.186 430.09 Q32.4621 432.827 32.4621 437.506 M27.4968 437.506 Q27.4968 429.867 32.4621 425.507 Q37.4273 421.146 46.212 421.146 Q54.9649 421.146 59.9619 425.507 Q64.9272 429.867 64.9272 437.506 Q64.9272 445.177 59.9619 449.537 Q54.9649 453.866 46.212 453.866 Q37.4273 453.866 32.4621 449.537 Q27.4968 445.177 27.4968 437.506 Z" fill="#000000" fill-rule="nonzero" fill-opacity="1"></path><path clip-path="url(#clip630)" d="M33.8307 390.782 Q33.2578 391.769 33.0032 392.946 Q32.7167 394.092 32.7167 395.493 Q32.7167 400.458 35.9632 403.131 Q39.1779 405.773 45.2253 405.773 L64.0042 405.773 L64.0042 411.661 L28.3562 411.661 L28.3562 405.773 L33.8944 405.773 Q30.6479 403.927 29.0883 400.967 Q27.4968 398.007 27.4968 393.774 Q27.4968 393.169 27.5923 392.437 Q27.656 391.705 27.8151 390.814 L33.8307 390.782 Z" fill="#000000" fill-rule="nonzero" fill-opacity="1"></path><path clip-path="url(#clip630)" d="M553.555 65.6895 L566.923 65.6895 L566.923 19.5497 L552.38 22.4663 L552.38 15.0127 L566.842 12.096 L575.024 12.096 L575.024 65.6895 L588.392 65.6895 L588.392 72.576 L553.555 72.576 L553.555 65.6895 Z" fill="#000000" fill-rule="nonzero" fill-opacity="1"></path><path clip-path="url(#clip630)" d="M622.42 17.4837 Q616.101 17.4837 612.9 23.7221 Q609.741 29.92 609.741 42.3968 Q609.741 54.833 612.9 61.0714 Q616.101 67.2693 622.42 67.2693 Q628.78 67.2693 631.94 61.0714 Q635.14 54.833 635.14 42.3968 Q635.14 29.92 631.94 23.7221 Q628.78 17.4837 622.42 17.4837 M622.42 11.0023 Q632.588 11.0023 637.935 19.0636 Q643.323 27.0843 643.323 42.3968 Q643.323 57.6687 637.935 65.73 Q632.588 73.7508 622.42 73.7508 Q612.252 73.7508 606.864 65.73 Q601.517 57.6687 601.517 42.3968 Q601.517 27.0843 606.864 19.0636 Q612.252 11.0023 622.42 11.0023 Z" fill="#000000" fill-rule="nonzero" fill-opacity="1"></path><path clip-path="url(#clip630)" d="M677.674 27.2059 L685.574 27.2059 L699.752 65.2844 L713.93 27.2059 L721.829 27.2059 L704.815 72.576 L694.688 72.576 L677.674 27.2059 Z" fill="#000000" fill-rule="nonzero" fill-opacity="1"></path><path clip-path="url(#clip630)" d="M752.738 49.7694 Q743.704 49.7694 740.22 51.8354 Q736.736 53.9013 736.736 58.8839 Q736.736 62.8538 739.329 65.2034 Q741.962 67.5124 746.459 67.5124 Q752.657 67.5124 756.383 63.1374 Q760.151 58.7219 760.151 51.4303 L760.151 49.7694 L752.738 49.7694 M767.604 46.6907 L767.604 72.576 L760.151 72.576 L760.151 65.6895 Q757.599 69.8214 753.791 71.8063 Q749.983 73.7508 744.474 73.7508 Q737.506 73.7508 733.374 69.8619 Q729.283 65.9325 729.283 59.3701 Q729.283 51.7138 734.387 47.825 Q739.532 43.9361 749.699 43.9361 L760.151 43.9361 L760.151 43.2069 Q760.151 38.0623 756.748 35.2672 Q753.386 32.4315 747.269 32.4315 Q743.38 32.4315 739.694 33.3632 Q736.007 34.295 732.605 36.1584 L732.605 29.2718 Q736.696 27.692 740.544 26.9223 Q744.393 26.1121 748.039 26.1121 Q757.882 26.1121 762.743 31.2163 Q767.604 36.3204 767.604 46.6907 Z" fill="#000000" fill-rule="nonzero" fill-opacity="1"></path><path clip-path="url(#clip630)" d="M809.248 34.1734 Q807.992 33.4443 806.493 33.1202 Q805.035 32.7556 803.252 32.7556 Q796.933 32.7556 793.53 36.8875 Q790.168 40.9789 790.168 48.6757 L790.168 72.576 L782.674 72.576 L782.674 27.2059 L790.168 27.2059 L790.168 34.2544 Q792.517 30.1225 796.285 28.1376 Q800.052 26.1121 805.44 26.1121 Q806.209 26.1121 807.141 26.2337 Q808.073 26.3147 809.207 26.5172 L809.248 34.1734 Z" fill="#000000" fill-rule="nonzero" fill-opacity="1"></path><path clip-path="url(#clip630)" d="M817.066 27.2059 L824.52 27.2059 L824.52 72.576 L817.066 72.576 L817.066 27.2059 M817.066 9.54393 L824.52 9.54393 L824.52 18.9825 L817.066 18.9825 L817.066 9.54393 Z" fill="#000000" fill-rule="nonzero" fill-opacity="1"></path><path clip-path="url(#clip630)" d="M860.735 49.7694 Q851.701 49.7694 848.217 51.8354 Q844.734 53.9013 844.734 58.8839 Q844.734 62.8538 847.326 65.2034 Q849.959 67.5124 854.456 67.5124 Q860.654 67.5124 864.38 63.1374 Q868.148 58.7219 868.148 51.4303 L868.148 49.7694 L860.735 49.7694 M875.601 46.6907 L875.601 72.576 L868.148 72.576 L868.148 65.6895 Q865.596 69.8214 861.788 71.8063 Q857.98 73.7508 852.471 73.7508 Q845.503 73.7508 841.371 69.8619 Q837.28 65.9325 837.28 59.3701 Q837.28 51.7138 842.384 47.825 Q847.529 43.9361 857.696 43.9361 L868.148 43.9361 L868.148 43.2069 Q868.148 38.0623 864.745 35.2672 Q861.383 32.4315 855.266 32.4315 Q851.377 32.4315 847.691 33.3632 Q844.004 34.295 840.602 36.1584 L840.602 29.2718 Q844.693 27.692 848.541 26.9223 Q852.39 26.1121 856.036 26.1121 Q865.879 26.1121 870.74 31.2163 Q875.601 36.3204 875.601 46.6907 Z" fill="#000000" fill-rule="nonzero" fill-opacity="1"></path><path clip-path="url(#clip630)" d="M923.524 49.9314 Q923.524 41.7081 920.121 37.0496 Q916.759 32.3505 910.844 32.3505 Q904.93 32.3505 901.527 37.0496 Q898.165 41.7081 898.165 49.9314 Q898.165 58.1548 901.527 62.8538 Q904.93 67.5124 910.844 67.5124 Q916.759 67.5124 920.121 62.8538 Q923.524 58.1548 923.524 49.9314 M898.165 34.0924 Q900.515 30.0415 904.079 28.0971 Q907.685 26.1121 912.667 26.1121 Q920.931 26.1121 926.076 32.6746 Q931.261 39.2371 931.261 49.9314 Q931.261 60.6258 926.076 67.1883 Q920.931 73.7508 912.667 73.7508 Q907.685 73.7508 904.079 71.8063 Q900.515 69.8214 898.165 65.7705 L898.165 72.576 L890.671 72.576 L890.671 9.54393 L898.165 9.54393 L898.165 34.0924 Z" fill="#000000" fill-rule="nonzero" fill-opacity="1"></path><path clip-path="url(#clip630)" d="M943.616 9.54393 L951.07 9.54393 L951.07 72.576 L943.616 72.576 L943.616 9.54393 Z" fill="#000000" fill-rule="nonzero" fill-opacity="1"></path><path clip-path="url(#clip630)" d="M1005.47 48.0275 L1005.47 51.6733 L971.203 51.6733 Q971.689 59.3701 975.821 63.421 Q979.993 67.4314 987.406 67.4314 Q991.7 67.4314 995.711 66.3781 Q999.762 65.3249 1003.73 63.2184 L1003.73 70.267 Q999.721 71.9684 995.508 72.8596 Q991.295 73.7508 986.961 73.7508 Q976.104 73.7508 969.744 67.4314 Q963.425 61.1119 963.425 50.3365 Q963.425 39.1965 969.42 32.6746 Q975.456 26.1121 985.665 26.1121 Q994.82 26.1121 1000.13 32.0264 Q1005.47 37.9003 1005.47 48.0275 M998.02 45.84 Q997.939 39.7232 994.577 36.0774 Q991.255 32.4315 985.746 32.4315 Q979.507 32.4315 975.74 35.9558 Q972.013 39.4801 971.446 45.8805 L998.02 45.84 Z" fill="#000000" fill-rule="nonzero" fill-opacity="1"></path><path clip-path="url(#clip630)" d="M1046.63 28.5427 L1046.63 35.5912 Q1043.47 33.9709 1040.07 33.1607 Q1036.67 32.3505 1033.02 32.3505 Q1027.47 32.3505 1024.67 34.0519 Q1021.92 35.7533 1021.92 39.156 Q1021.92 41.7486 1023.91 43.2475 Q1025.89 44.7058 1031.89 46.0426 L1034.44 46.6097 Q1042.38 48.3111 1045.7 51.4303 Q1049.06 54.509 1049.06 60.0587 Q1049.06 66.3781 1044.04 70.0644 Q1039.06 73.7508 1030.31 73.7508 Q1026.66 73.7508 1022.69 73.0216 Q1018.76 72.3329 1014.39 70.9151 L1014.39 63.2184 Q1018.52 65.3654 1022.53 66.4591 Q1026.54 67.5124 1030.47 67.5124 Q1035.73 67.5124 1038.57 65.73 Q1041.4 63.9071 1041.4 60.6258 Q1041.4 57.5877 1039.34 55.9673 Q1037.31 54.3469 1030.39 52.8481 L1027.79 52.2405 Q1020.87 50.7821 1017.79 47.7845 Q1014.71 44.7463 1014.71 39.4801 Q1014.71 33.0797 1019.25 29.5959 Q1023.78 26.1121 1032.13 26.1121 Q1036.26 26.1121 1039.91 26.7198 Q1043.55 27.3274 1046.63 28.5427 Z" fill="#000000" fill-rule="nonzero" fill-opacity="1"></path><path clip-path="url(#clip630)" d="M1096.9 9.17935 L1096.9 92.1419 L1090.02 92.1419 L1090.02 9.17935 L1096.9 9.17935 Z" fill="#000000" fill-rule="nonzero" fill-opacity="1"></path><path clip-path="url(#clip630)" d="M1167.47 39.9662 Q1173.34 41.222 1176.62 45.1919 Q1179.95 49.1618 1179.95 54.9951 Q1179.95 63.9476 1173.79 68.8492 Q1167.63 73.7508 1156.29 73.7508 Q1152.48 73.7508 1148.43 72.9811 Q1144.42 72.2519 1140.13 70.7531 L1140.13 62.8538 Q1143.53 64.8388 1147.58 65.8515 Q1151.63 66.8642 1156.05 66.8642 Q1163.74 66.8642 1167.75 63.826 Q1171.8 60.7879 1171.8 54.9951 Q1171.8 49.6479 1168.04 46.6502 Q1164.31 43.612 1157.63 43.612 L1150.58 43.612 L1150.58 36.8875 L1157.95 36.8875 Q1163.99 36.8875 1167.19 34.4975 Q1170.39 32.067 1170.39 27.5299 Q1170.39 22.8714 1167.06 20.4004 Q1163.78 17.8888 1157.63 17.8888 Q1154.26 17.8888 1150.41 18.618 Q1146.57 19.3471 1141.95 20.8865 L1141.95 13.5948 Q1146.61 12.2985 1150.66 11.6504 Q1154.75 11.0023 1158.35 11.0023 Q1167.67 11.0023 1173.1 15.2557 Q1178.53 19.4686 1178.53 26.6793 Q1178.53 31.7024 1175.65 35.1862 Q1172.78 38.6294 1167.47 39.9662 Z" fill="#000000" fill-rule="nonzero" fill-opacity="1"></path><path clip-path="url(#clip630)" d="M1238.36 32.4315 Q1232.36 32.4315 1228.88 37.1306 Q1225.4 41.7891 1225.4 49.9314 Q1225.4 58.0738 1228.84 62.7728 Q1232.32 67.4314 1238.36 67.4314 Q1244.31 67.4314 1247.8 62.7323 Q1251.28 58.0333 1251.28 49.9314 Q1251.28 41.8701 1247.8 37.1711 Q1244.31 32.4315 1238.36 32.4315 M1238.36 26.1121 Q1248.08 26.1121 1253.63 32.4315 Q1259.18 38.7509 1259.18 49.9314 Q1259.18 61.0714 1253.63 67.4314 Q1248.08 73.7508 1238.36 73.7508 Q1228.6 73.7508 1223.05 67.4314 Q1217.54 61.0714 1217.54 49.9314 Q1217.54 38.7509 1223.05 32.4315 Q1228.6 26.1121 1238.36 26.1121 Z" fill="#000000" fill-rule="nonzero" fill-opacity="1"></path><path clip-path="url(#clip630)" d="M1304.11 49.9314 Q1304.11 41.7081 1300.7 37.0496 Q1297.34 32.3505 1291.43 32.3505 Q1285.51 32.3505 1282.11 37.0496 Q1278.75 41.7081 1278.75 49.9314 Q1278.75 58.1548 1282.11 62.8538 Q1285.51 67.5124 1291.43 67.5124 Q1297.34 67.5124 1300.7 62.8538 Q1304.11 58.1548 1304.11 49.9314 M1278.75 34.0924 Q1281.1 30.0415 1284.66 28.0971 Q1288.27 26.1121 1293.25 26.1121 Q1301.51 26.1121 1306.66 32.6746 Q1311.84 39.2371 1311.84 49.9314 Q1311.84 60.6258 1306.66 67.1883 Q1301.51 73.7508 1293.25 73.7508 Q1288.27 73.7508 1284.66 71.8063 Q1281.1 69.8214 1278.75 65.7705 L1278.75 72.576 L1271.25 72.576 L1271.25 9.54393 L1278.75 9.54393 L1278.75 34.0924 Z" fill="#000000" fill-rule="nonzero" fill-opacity="1"></path><path clip-path="url(#clip630)" d="M1324.2 27.2059 L1331.65 27.2059 L1331.65 73.3862 Q1331.65 82.0551 1328.33 85.944 Q1325.05 89.8329 1317.72 89.8329 L1314.88 89.8329 L1314.88 83.5134 L1316.87 83.5134 Q1321.12 83.5134 1322.66 81.5285 Q1324.2 79.5841 1324.2 73.3862 L1324.2 27.2059 M1324.2 9.54393 L1331.65 9.54393 L1331.65 18.9825 L1324.2 18.9825 L1324.2 9.54393 Z" fill="#000000" fill-rule="nonzero" fill-opacity="1"></path><path clip-path="url(#clip630)" d="M1386.06 48.0275 L1386.06 51.6733 L1351.79 51.6733 Q1352.27 59.3701 1356.4 63.421 Q1360.58 67.4314 1367.99 67.4314 Q1372.28 67.4314 1376.29 66.3781 Q1380.34 65.3249 1384.31 63.2184 L1384.31 70.267 Q1380.3 71.9684 1376.09 72.8596 Q1371.88 73.7508 1367.54 73.7508 Q1356.69 73.7508 1350.33 67.4314 Q1344.01 61.1119 1344.01 50.3365 Q1344.01 39.1965 1350 32.6746 Q1356.04 26.1121 1366.25 26.1121 Q1375.4 26.1121 1380.71 32.0264 Q1386.06 37.9003 1386.06 48.0275 M1378.6 45.84 Q1378.52 39.7232 1375.16 36.0774 Q1371.84 32.4315 1366.33 32.4315 Q1360.09 32.4315 1356.32 35.9558 Q1352.6 39.4801 1352.03 45.8805 L1378.6 45.84 Z" fill="#000000" fill-rule="nonzero" fill-opacity="1"></path><path clip-path="url(#clip630)" d="M1430.94 28.9478 L1430.94 35.9153 Q1427.78 34.1734 1424.58 33.3227 Q1421.42 32.4315 1418.18 32.4315 Q1410.93 32.4315 1406.92 37.0496 Q1402.91 41.6271 1402.91 49.9314 Q1402.91 58.2358 1406.92 62.8538 Q1410.93 67.4314 1418.18 67.4314 Q1421.42 67.4314 1424.58 66.5807 Q1427.78 65.6895 1430.94 63.9476 L1430.94 70.8341 Q1427.82 72.2924 1424.46 73.0216 Q1421.14 73.7508 1417.37 73.7508 Q1407.12 73.7508 1401.08 67.3098 Q1395.05 60.8689 1395.05 49.9314 Q1395.05 38.832 1401.13 32.472 Q1407.24 26.1121 1417.86 26.1121 Q1421.3 26.1121 1424.58 26.8413 Q1427.86 27.5299 1430.94 28.9478 Z" fill="#000000" fill-rule="nonzero" fill-opacity="1"></path><path clip-path="url(#clip630)" d="M1451.28 14.324 L1451.28 27.2059 L1466.63 27.2059 L1466.63 32.9987 L1451.28 32.9987 L1451.28 57.6282 Q1451.28 63.1779 1452.77 64.7578 Q1454.31 66.3376 1458.97 66.3376 L1466.63 66.3376 L1466.63 72.576 L1458.97 72.576 Q1450.34 72.576 1447.06 69.3758 Q1443.78 66.1351 1443.78 57.6282 L1443.78 32.9987 L1438.31 32.9987 L1438.31 27.2059 L1443.78 27.2059 L1443.78 14.324 L1451.28 14.324 Z" fill="#000000" fill-rule="nonzero" fill-opacity="1"></path><path clip-path="url(#clip630)" d="M1476.43 27.2059 L1483.89 27.2059 L1483.89 72.576 L1476.43 72.576 L1476.43 27.2059 M1476.43 9.54393 L1483.89 9.54393 L1483.89 18.9825 L1476.43 18.9825 L1476.43 9.54393 Z" fill="#000000" fill-rule="nonzero" fill-opacity="1"></path><path clip-path="url(#clip630)" d="M1494.13 27.2059 L1502.03 27.2059 L1516.21 65.2844 L1530.39 27.2059 L1538.29 27.2059 L1521.28 72.576 L1511.15 72.576 L1494.13 27.2059 Z" fill="#000000" fill-rule="nonzero" fill-opacity="1"></path><path clip-path="url(#clip630)" d="M1587.39 48.0275 L1587.39 51.6733 L1553.12 51.6733 Q1553.6 59.3701 1557.73 63.421 Q1561.91 67.4314 1569.32 67.4314 Q1573.61 67.4314 1577.62 66.3781 Q1581.67 65.3249 1585.64 63.2184 L1585.64 70.267 Q1581.63 71.9684 1577.42 72.8596 Q1573.21 73.7508 1568.87 73.7508 Q1558.02 73.7508 1551.66 67.4314 Q1545.34 61.1119 1545.34 50.3365 Q1545.34 39.1965 1551.33 32.6746 Q1557.37 26.1121 1567.58 26.1121 Q1576.73 26.1121 1582.04 32.0264 Q1587.39 37.9003 1587.39 48.0275 M1579.93 45.84 Q1579.85 39.7232 1576.49 36.0774 Q1573.17 32.4315 1567.66 32.4315 Q1561.42 32.4315 1557.65 35.9558 Q1553.93 39.4801 1553.36 45.8805 L1579.93 45.84 Z" fill="#000000" fill-rule="nonzero" fill-opacity="1"></path><path clip-path="url(#clip630)" d="M1628.54 28.5427 L1628.54 35.5912 Q1625.38 33.9709 1621.98 33.1607 Q1618.58 32.3505 1614.93 32.3505 Q1609.38 32.3505 1606.59 34.0519 Q1603.83 35.7533 1603.83 39.156 Q1603.83 41.7486 1605.82 43.2475 Q1607.8 44.7058 1613.8 46.0426 L1616.35 46.6097 Q1624.29 48.3111 1627.61 51.4303 Q1630.97 54.509 1630.97 60.0587 Q1630.97 66.3781 1625.95 70.0644 Q1620.97 73.7508 1612.22 73.7508 Q1608.57 73.7508 1604.6 73.0216 Q1600.67 72.3329 1596.3 70.9151 L1596.3 63.2184 Q1600.43 65.3654 1604.44 66.4591 Q1608.45 67.5124 1612.38 67.5124 Q1617.65 67.5124 1620.48 65.73 Q1623.32 63.9071 1623.32 60.6258 Q1623.32 57.5877 1621.25 55.9673 Q1619.23 54.3469 1612.3 52.8481 L1609.71 52.2405 Q1602.78 50.7821 1599.7 47.7845 Q1596.62 44.7463 1596.62 39.4801 Q1596.62 33.0797 1601.16 29.5959 Q1605.7 26.1121 1614.04 26.1121 Q1618.17 26.1121 1621.82 26.7198 Q1625.46 27.3274 1628.54 28.5427 Z" fill="#000000" fill-rule="nonzero" fill-opacity="1"></path><path clip-path="url(#clip630)" d="M1678.81 9.17935 L1678.81 92.1419 L1671.93 92.1419 L1671.93 9.17935 L1678.81 9.17935 Z" fill="#000000" fill-rule="nonzero" fill-opacity="1"></path><path clip-path="url(#clip630)" d="M1731.64 65.6895 L1760.2 65.6895 L1760.2 72.576 L1721.79 72.576 L1721.79 65.6895 Q1726.45 60.8689 1734.47 52.7671 Q1742.54 44.6248 1744.6 42.2752 Q1748.53 37.8598 1750.07 34.8216 Q1751.65 31.7429 1751.65 28.7857 Q1751.65 23.9651 1748.25 20.927 Q1744.89 17.8888 1739.46 17.8888 Q1735.61 17.8888 1731.31 19.2256 Q1727.06 20.5624 1722.2 23.2765 L1722.2 15.0127 Q1727.14 13.0277 1731.44 12.015 Q1735.73 11.0023 1739.29 11.0023 Q1748.69 11.0023 1754.28 15.7013 Q1759.87 20.4004 1759.87 28.2591 Q1759.87 31.9859 1758.46 35.3482 Q1757.08 38.6699 1753.39 43.2069 Q1752.38 44.3817 1746.95 50.0125 Q1741.52 55.6027 1731.64 65.6895 Z" fill="#000000" fill-rule="nonzero" fill-opacity="1"></path><path clip-path="url(#clip630)" d="M1794.87 17.4837 Q1788.55 17.4837 1785.35 23.7221 Q1782.19 29.92 1782.19 42.3968 Q1782.19 54.833 1785.35 61.0714 Q1788.55 67.2693 1794.87 67.2693 Q1801.23 67.2693 1804.39 61.0714 Q1807.59 54.833 1807.59 42.3968 Q1807.59 29.92 1804.39 23.7221 Q1801.23 17.4837 1794.87 17.4837 M1794.87 11.0023 Q1805.04 11.0023 1810.39 19.0636 Q1815.78 27.0843 1815.78 42.3968 Q1815.78 57.6687 1810.39 65.73 Q1805.04 73.7508 1794.87 73.7508 Q1784.71 73.7508 1779.32 65.73 Q1773.97 57.6687 1773.97 42.3968 Q1773.97 27.0843 1779.32 19.0636 Q1784.71 11.0023 1794.87 11.0023 Z" fill="#000000" fill-rule="nonzero" fill-opacity="1"></path><path clip-path="url(#clip630)" d="M1862.85 14.324 L1862.85 27.2059 L1878.2 27.2059 L1878.2 32.9987 L1862.85 32.9987 L1862.85 57.6282 Q1862.85 63.1779 1864.35 64.7578 Q1865.89 66.3376 1870.54 66.3376 L1878.2 66.3376 L1878.2 72.576 L1870.54 72.576 Q1861.92 72.576 1858.63 69.3758 Q1855.35 66.1351 1855.35 57.6282 L1855.35 32.9987 L1849.88 32.9987 L1849.88 27.2059 L1855.35 27.2059 L1855.35 14.324 L1862.85 14.324 Z" fill="#000000" fill-rule="nonzero" fill-opacity="1"></path><path clip-path="url(#clip630)" d="M1914.29 34.1734 Q1913.04 33.4443 1911.54 33.1202 Q1910.08 32.7556 1908.3 32.7556 Q1901.98 32.7556 1898.58 36.8875 Q1895.21 40.9789 1895.21 48.6757 L1895.21 72.576 L1887.72 72.576 L1887.72 27.2059 L1895.21 27.2059 L1895.21 34.2544 Q1897.56 30.1225 1901.33 28.1376 Q1905.1 26.1121 1910.49 26.1121 Q1911.26 26.1121 1912.19 26.2337 Q1913.12 26.3147 1914.25 26.5172 L1914.29 34.1734 Z" fill="#000000" fill-rule="nonzero" fill-opacity="1"></path><path clip-path="url(#clip630)" d="M1922.11 27.2059 L1929.57 27.2059 L1929.57 72.576 L1922.11 72.576 L1922.11 27.2059 M1922.11 9.54393 L1929.57 9.54393 L1929.57 18.9825 L1922.11 18.9825 L1922.11 9.54393 Z" fill="#000000" fill-rule="nonzero" fill-opacity="1"></path><path clip-path="url(#clip630)" d="M1965.78 49.7694 Q1956.75 49.7694 1953.26 51.8354 Q1949.78 53.9013 1949.78 58.8839 Q1949.78 62.8538 1952.37 65.2034 Q1955.01 67.5124 1959.5 67.5124 Q1965.7 67.5124 1969.43 63.1374 Q1973.19 58.7219 1973.19 51.4303 L1973.19 49.7694 L1965.78 49.7694 M1980.65 46.6907 L1980.65 72.576 L1973.19 72.576 L1973.19 65.6895 Q1970.64 69.8214 1966.83 71.8063 Q1963.03 73.7508 1957.52 73.7508 Q1950.55 73.7508 1946.42 69.8619 Q1942.33 65.9325 1942.33 59.3701 Q1942.33 51.7138 1947.43 47.825 Q1952.57 43.9361 1962.74 43.9361 L1973.19 43.9361 L1973.19 43.2069 Q1973.19 38.0623 1969.79 35.2672 Q1966.43 32.4315 1960.31 32.4315 Q1956.42 32.4315 1952.74 33.3632 Q1949.05 34.295 1945.65 36.1584 L1945.65 29.2718 Q1949.74 27.692 1953.59 26.9223 Q1957.44 26.1121 1961.08 26.1121 Q1970.93 26.1121 1975.79 31.2163 Q1980.65 36.3204 1980.65 46.6907 Z" fill="#000000" fill-rule="nonzero" fill-opacity="1"></path><path clip-path="url(#clip630)" d="M1996 9.54393 L2003.45 9.54393 L2003.45 72.576 L1996 72.576 L1996 9.54393 Z" fill="#000000" fill-rule="nonzero" fill-opacity="1"></path><path clip-path="url(#clip630)" d="M2047.97 28.5427 L2047.97 35.5912 Q2044.81 33.9709 2041.41 33.1607 Q2038.01 32.3505 2034.36 32.3505 Q2028.81 32.3505 2026.02 34.0519 Q2023.26 35.7533 2023.26 39.156 Q2023.26 41.7486 2025.25 43.2475 Q2027.23 44.7058 2033.23 46.0426 L2035.78 46.6097 Q2043.72 48.3111 2047.04 51.4303 Q2050.4 54.509 2050.4 60.0587 Q2050.4 66.3781 2045.38 70.0644 Q2040.4 73.7508 2031.65 73.7508 Q2028 73.7508 2024.03 73.0216 Q2020.1 72.3329 2015.73 70.9151 L2015.73 63.2184 Q2019.86 65.3654 2023.87 66.4591 Q2027.88 67.5124 2031.81 67.5124 Q2037.08 67.5124 2039.91 65.73 Q2042.75 63.9071 2042.75 60.6258 Q2042.75 57.5877 2040.68 55.9673 Q2038.66 54.3469 2031.73 52.8481 L2029.14 52.2405 Q2022.21 50.7821 2019.13 47.7845 Q2016.05 44.7463 2016.05 39.4801 Q2016.05 33.0797 2020.59 29.5959 Q2025.13 26.1121 2033.47 26.1121 Q2037.6 26.1121 2041.25 26.7198 Q2044.89 27.3274 2047.97 28.5427 Z" fill="#000000" fill-rule="nonzero" fill-opacity="1"></path><polyline clip-path="url(#clip632)" style="stroke:#009af9; stroke-linecap:round; stroke-linejoin:round; stroke-width:8; stroke-opacity:1; fill:none" points="309.539,158.642 389.689,1049.73 489.876,1039 590.063,1270.68 690.25,1228.34 1291.37,1287.03 2293.24,1330.98 "></polyline>
<circle clip-path="url(#clip632)" cx="309.539" cy="158.642" r="14.4" fill="#009af9" fill-rule="evenodd" fill-opacity="1" stroke="#000000" stroke-opacity="1" stroke-width="3.2"></circle>
<circle clip-path="url(#clip632)" cx="389.689" cy="1049.73" r="14.4" fill="#009af9" fill-rule="evenodd" fill-opacity="1" stroke="#000000" stroke-opacity="1" stroke-width="3.2"></circle>
<circle clip-path="url(#clip632)" cx="489.876" cy="1039" r="14.4" fill="#009af9" fill-rule="evenodd" fill-opacity="1" stroke="#000000" stroke-opacity="1" stroke-width="3.2"></circle>
<circle clip-path="url(#clip632)" cx="590.063" cy="1270.68" r="14.4" fill="#009af9" fill-rule="evenodd" fill-opacity="1" stroke="#000000" stroke-opacity="1" stroke-width="3.2"></circle>
<circle clip-path="url(#clip632)" cx="690.25" cy="1228.34" r="14.4" fill="#009af9" fill-rule="evenodd" fill-opacity="1" stroke="#000000" stroke-opacity="1" stroke-width="3.2"></circle>
<circle clip-path="url(#clip632)" cx="1291.37" cy="1287.03" r="14.4" fill="#009af9" fill-rule="evenodd" fill-opacity="1" stroke="#000000" stroke-opacity="1" stroke-width="3.2"></circle>
<circle clip-path="url(#clip632)" cx="2293.24" cy="1330.98" r="14.4" fill="#009af9" fill-rule="evenodd" fill-opacity="1" stroke="#000000" stroke-opacity="1" stroke-width="3.2"></circle>
</svg>