<svg xmlns="http://www.w3.org/2000/svg" xmlns:xlink="http://www.w3.org/1999/xlink" width="600" height="400" viewBox="0 0 2400 1600">
<defs>
  <clipPath id="clip430">
    <rect x="0" y="0" width="2400" height="1600"></rect>
  </clipPath>
</defs>
<path clip-path="url(#clip430)" d="M0 1600 L2400 1600 L2400 8.88178e-14 L0 8.88178e-14  Z" fill="#ffffff" fill-rule="evenodd" fill-opacity="1"></path>
<defs>
  <clipPath id="clip431">
    <rect x="480" y="0" width="1681" height="1600"></rect>
  </clipPath>
</defs>
<path clip-path="url(#clip430)" d="M279.704 1366.15 L2352.76 1366.15 L2352.76 123.472 L279.704 123.472  Z" fill="#ffffff" fill-rule="evenodd" fill-opacity="1"></path>
<defs>
  <clipPath id="clip432">
    <rect x="279" y="123" width="2074" height="1244"></rect>
  </clipPath>
</defs>
<polyline clip-path="url(#clip432)" style="stroke:#000000; stroke-linecap:round; stroke-linejoin:round; stroke-width:2; stroke-opacity:0.1; fill:none" points="338.375,1366.15 338.375,123.472 "></polyline>
<polyline clip-path="url(#clip432)" style="stroke:#000000; stroke-linecap:round; stroke-linejoin:round; stroke-width:2; stroke-opacity:0.1; fill:none" points="417.394,1366.15 417.394,123.472 "></polyline>
<polyline clip-path="url(#clip432)" style="stroke:#000000; stroke-linecap:round; stroke-linejoin:round; stroke-width:2; stroke-opacity:0.1; fill:none" points="516.167,1366.15 516.167,123.472 "></polyline>
<polyline clip-path="url(#clip432)" style="stroke:#000000; stroke-linecap:round; stroke-linejoin:round; stroke-width:2; stroke-opacity:0.1; fill:none" points="614.94,1366.15 614.94,123.472 "></polyline>
<polyline clip-path="url(#clip432)" style="stroke:#000000; stroke-linecap:round; stroke-linejoin:round; stroke-width:2; stroke-opacity:0.1; fill:none" points="713.713,1366.15 713.713,123.472 "></polyline>
<polyline clip-path="url(#clip432)" style="stroke:#000000; stroke-linecap:round; stroke-linejoin:round; stroke-width:2; stroke-opacity:0.1; fill:none" points="1306.35,1366.15 1306.35,123.472 "></polyline>
<polyline clip-path="url(#clip432)" style="stroke:#000000; stroke-linecap:round; stroke-linejoin:round; stroke-width:2; stroke-opacity:0.1; fill:none" points="2294.08,1366.15 2294.08,123.472 "></polyline>
<polyline clip-path="url(#clip432)" style="stroke:#000000; stroke-linecap:round; stroke-linejoin:round; stroke-width:2; stroke-opacity:0.1; fill:none" points="279.704,1270.92 2352.76,1270.92 "></polyline>
<polyline clip-path="url(#clip432)" style="stroke:#000000; stroke-linecap:round; stroke-linejoin:round; stroke-width:2; stroke-opacity:0.1; fill:none" points="279.704,1081.47 2352.76,1081.47 "></polyline>
<polyline clip-path="url(#clip432)" style="stroke:#000000; stroke-linecap:round; stroke-linejoin:round; stroke-width:2; stroke-opacity:0.1; fill:none" points="279.704,892.018 2352.76,892.018 "></polyline>
<polyline clip-path="url(#clip432)" style="stroke:#000000; stroke-linecap:round; stroke-linejoin:round; stroke-width:2; stroke-opacity:0.1; fill:none" points="279.704,702.565 2352.76,702.565 "></polyline>
<polyline clip-path="url(#clip432)" style="stroke:#000000; stroke-linecap:round; stroke-linejoin:round; stroke-width:2; stroke-opacity:0.1; fill:none" points="279.704,513.112 2352.76,513.112 "></polyline>
<polyline clip-path="url(#clip432)" style="stroke:#000000; stroke-linecap:round; stroke-linejoin:round; stroke-width:2; stroke-opacity:0.1; fill:none" points="279.704,323.659 2352.76,323.659 "></polyline>
<polyline clip-path="url(#clip432)" style="stroke:#000000; stroke-linecap:round; stroke-linejoin:round; stroke-width:2; stroke-opacity:0.1; fill:none" points="279.704,134.206 2352.76,134.206 "></polyline>
<polyline clip-path="url(#clip430)" style="stroke:#000000; stroke-linecap:round; stroke-linejoin:round; stroke-width:4; stroke-opacity:1; fill:none" points="279.704,1366.15 2352.76,1366.15 "></polyline>
<polyline clip-path="url(#clip430)" style="stroke:#000000; stroke-linecap:round; stroke-linejoin:round; stroke-width:4; stroke-opacity:1; fill:none" points="338.375,1366.15 338.375,1347.25 "></polyline>
<polyline clip-path="url(#clip430)" style="stroke:#000000; stroke-linecap:round; stroke-linejoin:round; stroke-width:4; stroke-opacity:1; fill:none" points="417.394,1366.15 417.394,1347.25 "></polyline>
<polyline clip-path="url(#clip430)" style="stroke:#000000; stroke-linecap:round; stroke-linejoin:round; stroke-width:4; stroke-opacity:1; fill:none" points="516.167,1366.15 516.167,1347.25 "></polyline>
<polyline clip-path="url(#clip430)" style="stroke:#000000; stroke-linecap:round; stroke-linejoin:round; stroke-width:4; stroke-opacity:1; fill:none" points="614.94,1366.15 614.94,1347.25 "></polyline>
<polyline clip-path="url(#clip430)" style="stroke:#000000; stroke-linecap:round; stroke-linejoin:round; stroke-width:4; stroke-opacity:1; fill:none" points="713.713,1366.15 713.713,1347.25 "></polyline>
<polyline clip-path="url(#clip430)" style="stroke:#000000; stroke-linecap:round; stroke-linejoin:round; stroke-width:4; stroke-opacity:1; fill:none" points="1306.35,1366.15 1306.35,1347.25 "></polyline>
<polyline clip-path="url(#clip430)" style="stroke:#000000; stroke-linecap:round; stroke-linejoin:round; stroke-width:4; stroke-opacity:1; fill:none" points="2294.08,1366.15 2294.08,1347.25 "></polyline>
<path clip-path="url(#clip430)" d="M290.212 1470.71 L295.613 1465.31 L276.97 1446.67 L272.273 1453.72 L269.261 1450.71 L273.926 1443.69 L277.232 1440.38 L298.887 1462.04 L304.289 1456.64 L307.071 1459.42 L292.995 1473.5 L290.212 1470.71 Z" fill="#000000" fill-rule="nonzero" fill-opacity="1"></path><path clip-path="url(#clip430)" d="M298.56 1423.41 Q296.006 1425.96 297.234 1429.78 Q298.462 1433.56 303.503 1438.6 Q308.528 1443.62 312.325 1444.87 Q316.123 1446.08 318.676 1443.53 Q321.246 1440.96 320.018 1437.17 Q318.791 1433.36 313.766 1428.34 Q308.724 1423.29 304.927 1422.08 Q301.13 1420.84 298.56 1423.41 M295.941 1420.79 Q300.049 1416.68 305.467 1417.78 Q310.885 1418.84 317.072 1425.03 Q323.243 1431.2 324.323 1436.63 Q325.403 1442.04 321.295 1446.14 Q317.187 1450.25 311.769 1449.19 Q306.351 1448.09 300.18 1441.92 Q293.993 1435.73 292.913 1430.33 Q291.832 1424.9 295.941 1420.79 Z" fill="#000000" fill-rule="nonzero" fill-opacity="1"></path><path clip-path="url(#clip430)" d="M319.887 1402.08 Q317.334 1404.64 318.562 1408.45 Q319.789 1412.23 324.831 1417.27 Q329.856 1422.3 333.653 1423.54 Q337.45 1424.75 340.004 1422.2 Q342.574 1419.63 341.346 1415.85 Q340.118 1412.03 335.093 1407.01 Q330.052 1401.97 326.255 1400.76 Q322.457 1399.51 319.887 1402.08 M317.268 1399.46 Q321.377 1395.35 326.795 1396.45 Q332.213 1397.51 338.4 1403.7 Q344.571 1409.87 345.651 1415.31 Q346.731 1420.71 342.623 1424.82 Q338.514 1428.93 333.096 1427.86 Q327.679 1426.76 321.508 1420.59 Q315.321 1414.41 314.24 1409.01 Q313.16 1403.57 317.268 1399.46 Z" fill="#000000" fill-rule="nonzero" fill-opacity="1"></path><path clip-path="url(#clip430)" d="M347.035 1449.6 L360.015 1436.62 L362.798 1439.4 L352.846 1449.35 L358.837 1455.34 Q359.311 1454.38 359.917 1453.54 Q360.506 1452.69 361.227 1451.97 Q365.319 1447.88 369.951 1447.73 Q374.583 1447.58 378.413 1451.42 Q382.358 1455.36 382.096 1460.01 Q381.818 1464.64 377.349 1469.11 Q375.811 1470.65 373.945 1471.99 Q372.095 1473.32 369.869 1474.49 L366.546 1471.17 Q368.821 1470.5 370.786 1469.32 Q372.75 1468.14 374.501 1466.39 Q377.333 1463.56 377.496 1460.42 Q377.66 1457.27 375.107 1454.72 Q372.553 1452.17 369.411 1452.33 Q366.268 1452.5 363.436 1455.33 Q362.11 1456.65 361.079 1458.27 Q360.064 1459.88 359.311 1461.87 L347.035 1449.6 Z" fill="#000000" fill-rule="nonzero" fill-opacity="1"></path><path clip-path="url(#clip430)" d="M377.578 1423.41 Q375.025 1425.96 376.252 1429.78 Q377.48 1433.56 382.521 1438.6 Q387.546 1443.62 391.344 1444.87 Q395.141 1446.08 397.695 1443.53 Q400.265 1440.96 399.037 1437.17 Q397.809 1433.36 392.784 1428.34 Q387.743 1423.29 383.945 1422.08 Q380.148 1420.84 377.578 1423.41 M374.959 1420.79 Q379.068 1416.68 384.486 1417.78 Q389.903 1418.84 396.091 1425.03 Q402.261 1431.2 403.342 1436.63 Q404.422 1442.04 400.314 1446.14 Q396.205 1450.25 390.787 1449.19 Q385.37 1448.09 379.199 1441.92 Q373.012 1435.73 371.931 1430.33 Q370.851 1424.9 374.959 1420.79 Z" fill="#000000" fill-rule="nonzero" fill-opacity="1"></path><path clip-path="url(#clip430)" d="M398.906 1402.08 Q396.353 1404.64 397.58 1408.45 Q398.808 1412.23 403.849 1417.27 Q408.874 1422.3 412.672 1423.54 Q416.469 1424.75 419.022 1422.2 Q421.592 1419.63 420.365 1415.85 Q419.137 1412.03 414.112 1407.01 Q409.071 1401.97 405.273 1400.76 Q401.476 1399.51 398.906 1402.08 M396.287 1399.46 Q400.395 1395.35 405.813 1396.45 Q411.231 1397.51 417.418 1403.7 Q423.589 1409.87 424.669 1415.31 Q425.75 1420.71 421.641 1424.82 Q417.533 1428.93 412.115 1427.86 Q406.697 1426.76 400.526 1420.59 Q394.339 1414.41 393.259 1409.01 Q392.179 1403.57 396.287 1399.46 Z" fill="#000000" fill-rule="nonzero" fill-opacity="1"></path><path clip-path="url(#clip430)" d="M446.676 1492.04 L452.078 1486.64 L433.434 1468 L428.737 1475.05 L425.725 1472.04 L430.39 1465.02 L433.696 1461.71 L455.351 1483.37 L460.753 1477.96 L463.535 1480.75 L449.459 1494.82 L446.676 1492.04 Z" fill="#000000" fill-rule="nonzero" fill-opacity="1"></path><path clip-path="url(#clip430)" d="M455.024 1444.74 Q452.47 1447.29 453.698 1451.1 Q454.926 1454.89 459.967 1459.93 Q464.992 1464.95 468.789 1466.2 Q472.587 1467.41 475.14 1464.85 Q477.71 1462.28 476.482 1458.5 Q475.255 1454.69 470.23 1449.66 Q465.188 1444.62 461.391 1443.41 Q457.594 1442.17 455.024 1444.74 M452.405 1442.12 Q456.513 1438.01 461.931 1439.11 Q467.349 1440.17 473.536 1446.36 Q479.707 1452.53 480.787 1457.96 Q481.868 1463.36 477.759 1467.47 Q473.651 1471.58 468.233 1470.52 Q462.815 1469.42 456.644 1463.25 Q450.457 1457.06 449.377 1451.66 Q448.297 1446.23 452.405 1442.12 Z" fill="#000000" fill-rule="nonzero" fill-opacity="1"></path><path clip-path="url(#clip430)" d="M476.351 1423.41 Q473.798 1425.96 475.026 1429.78 Q476.253 1433.56 481.295 1438.6 Q486.32 1443.62 490.117 1444.87 Q493.914 1446.08 496.468 1443.53 Q499.038 1440.96 497.81 1437.17 Q496.582 1433.36 491.557 1428.34 Q486.516 1423.29 482.719 1422.08 Q478.921 1420.84 476.351 1423.41 M473.733 1420.79 Q477.841 1416.68 483.259 1417.78 Q488.677 1418.84 494.864 1425.03 Q501.035 1431.2 502.115 1436.63 Q503.195 1442.04 499.087 1446.14 Q494.978 1450.25 489.561 1449.19 Q484.143 1448.09 477.972 1441.92 Q471.785 1435.73 470.704 1430.33 Q469.624 1424.9 473.733 1420.79 Z" fill="#000000" fill-rule="nonzero" fill-opacity="1"></path><path clip-path="url(#clip430)" d="M497.679 1402.08 Q495.126 1404.64 496.353 1408.45 Q497.581 1412.23 502.622 1417.27 Q507.647 1422.3 511.445 1423.54 Q515.242 1424.75 517.796 1422.2 Q520.365 1419.63 519.138 1415.85 Q517.91 1412.03 512.885 1407.01 Q507.844 1401.97 504.046 1400.76 Q500.249 1399.51 497.679 1402.08 M495.06 1399.46 Q499.169 1395.35 504.587 1396.45 Q510.004 1397.51 516.192 1403.7 Q522.362 1409.87 523.443 1415.31 Q524.523 1420.71 520.414 1424.82 Q516.306 1428.93 510.888 1427.86 Q505.47 1426.76 499.3 1420.59 Q493.112 1414.41 492.032 1409.01 Q490.952 1403.57 495.06 1399.46 Z" fill="#000000" fill-rule="nonzero" fill-opacity="1"></path><path clip-path="url(#clip430)" d="M545.449 1492.04 L550.851 1486.64 L532.207 1468 L527.51 1475.05 L524.498 1472.04 L529.163 1465.02 L532.469 1461.71 L554.124 1483.37 L559.526 1477.96 L562.308 1480.75 L548.232 1494.82 L545.449 1492.04 Z" fill="#000000" fill-rule="nonzero" fill-opacity="1"></path><path clip-path="url(#clip430)" d="M544.582 1449.6 L557.562 1436.62 L560.344 1439.4 L550.392 1449.35 L556.383 1455.34 Q556.858 1454.38 557.463 1453.54 Q558.053 1452.69 558.773 1451.97 Q562.865 1447.88 567.497 1447.73 Q572.129 1447.58 575.959 1451.42 Q579.904 1455.36 579.642 1460.01 Q579.364 1464.64 574.896 1469.11 Q573.357 1470.65 571.491 1471.99 Q569.641 1473.32 567.415 1474.49 L564.093 1471.17 Q566.368 1470.5 568.332 1469.32 Q570.296 1468.14 572.047 1466.39 Q574.879 1463.56 575.043 1460.42 Q575.207 1457.27 572.653 1454.72 Q570.1 1452.17 566.957 1452.33 Q563.814 1452.5 560.983 1455.33 Q559.657 1456.65 558.626 1458.27 Q557.611 1459.88 556.858 1461.87 L544.582 1449.6 Z" fill="#000000" fill-rule="nonzero" fill-opacity="1"></path><path clip-path="url(#clip430)" d="M575.125 1423.41 Q572.571 1425.96 573.799 1429.78 Q575.026 1433.56 580.068 1438.6 Q585.093 1443.62 588.89 1444.87 Q592.688 1446.08 595.241 1443.53 Q597.811 1440.96 596.583 1437.17 Q595.356 1433.36 590.331 1428.34 Q585.289 1423.29 581.492 1422.08 Q577.694 1420.84 575.125 1423.41 M572.506 1420.79 Q576.614 1416.68 582.032 1417.78 Q587.45 1418.84 593.637 1425.03 Q599.808 1431.2 600.888 1436.63 Q601.968 1442.04 597.86 1446.14 Q593.752 1450.25 588.334 1449.19 Q582.916 1448.09 576.745 1441.92 Q570.558 1435.73 569.478 1430.33 Q568.397 1424.9 572.506 1420.79 Z" fill="#000000" fill-rule="nonzero" fill-opacity="1"></path><path clip-path="url(#clip430)" d="M596.452 1402.08 Q593.899 1404.64 595.127 1408.45 Q596.354 1412.23 601.396 1417.27 Q606.421 1422.3 610.218 1423.54 Q614.015 1424.75 616.569 1422.2 Q619.139 1419.63 617.911 1415.85 Q616.683 1412.03 611.658 1407.01 Q606.617 1401.97 602.82 1400.76 Q599.022 1399.51 596.452 1402.08 M593.833 1399.46 Q597.942 1395.35 603.36 1396.45 Q608.778 1397.51 614.965 1403.7 Q621.135 1409.87 622.216 1415.31 Q623.296 1420.71 619.188 1424.82 Q615.079 1428.93 609.661 1427.86 Q604.244 1426.76 598.073 1420.59 Q591.886 1414.41 590.805 1409.01 Q589.725 1403.57 593.833 1399.46 Z" fill="#000000" fill-rule="nonzero" fill-opacity="1"></path><path clip-path="url(#clip430)" d="M646.498 1489.77 L658.037 1478.23 L660.82 1481.01 L645.303 1496.53 L642.52 1493.74 Q642.455 1489.91 642.422 1483.4 Q642.389 1476.85 642.275 1475.07 Q642.078 1471.7 641.473 1469.85 Q640.867 1467.96 639.672 1466.77 Q637.724 1464.82 635.122 1464.97 Q632.536 1465.1 630.342 1467.29 Q628.787 1468.85 627.592 1471.12 Q626.414 1473.38 625.546 1476.44 L622.207 1473.1 Q623.402 1470.3 624.728 1468.16 Q626.054 1466.02 627.494 1464.58 Q631.292 1460.78 635.449 1460.42 Q639.607 1460.06 642.782 1463.23 Q644.288 1464.74 645.074 1466.67 Q645.859 1468.57 646.203 1471.89 Q646.269 1472.78 646.35 1477.24 Q646.416 1481.7 646.498 1489.77 Z" fill="#000000" fill-rule="nonzero" fill-opacity="1"></path><path clip-path="url(#clip430)" d="M652.57 1444.74 Q650.017 1447.29 651.244 1451.1 Q652.472 1454.89 657.513 1459.93 Q662.538 1464.95 666.336 1466.2 Q670.133 1467.41 672.687 1464.85 Q675.256 1462.28 674.029 1458.5 Q672.801 1454.69 667.776 1449.66 Q662.735 1444.62 658.937 1443.41 Q655.14 1442.17 652.57 1444.74 M649.951 1442.12 Q654.06 1438.01 659.478 1439.11 Q664.895 1440.17 671.083 1446.36 Q677.253 1452.53 678.334 1457.96 Q679.414 1463.36 675.306 1467.47 Q671.197 1471.58 665.779 1470.52 Q660.361 1469.42 654.191 1463.25 Q648.004 1457.06 646.923 1451.66 Q645.843 1446.23 649.951 1442.12 Z" fill="#000000" fill-rule="nonzero" fill-opacity="1"></path><path clip-path="url(#clip430)" d="M673.898 1423.41 Q671.344 1425.96 672.572 1429.78 Q673.8 1433.56 678.841 1438.6 Q683.866 1443.62 687.663 1444.87 Q691.461 1446.08 694.014 1443.53 Q696.584 1440.96 695.357 1437.17 Q694.129 1433.36 689.104 1428.34 Q684.063 1423.29 680.265 1422.08 Q676.468 1420.84 673.898 1423.41 M671.279 1420.79 Q675.387 1416.68 680.805 1417.78 Q686.223 1418.84 692.41 1425.03 Q698.581 1431.2 699.661 1436.63 Q700.742 1442.04 696.633 1446.14 Q692.525 1450.25 687.107 1449.19 Q681.689 1448.09 675.518 1441.92 Q669.331 1435.73 668.251 1430.33 Q667.171 1424.9 671.279 1420.79 Z" fill="#000000" fill-rule="nonzero" fill-opacity="1"></path><path clip-path="url(#clip430)" d="M695.226 1402.08 Q692.672 1404.64 693.9 1408.45 Q695.127 1412.23 700.169 1417.27 Q705.194 1422.3 708.991 1423.54 Q712.789 1424.75 715.342 1422.2 Q717.912 1419.63 716.684 1415.85 Q715.457 1412.03 710.432 1407.01 Q705.39 1401.97 701.593 1400.76 Q697.795 1399.51 695.226 1402.08 M692.607 1399.46 Q696.715 1395.35 702.133 1396.45 Q707.551 1397.51 713.738 1403.7 Q719.909 1409.87 720.989 1415.31 Q722.069 1420.71 717.961 1424.82 Q713.852 1428.93 708.435 1427.86 Q703.017 1426.76 696.846 1420.59 Q690.659 1414.41 689.579 1409.01 Q688.498 1403.57 692.607 1399.46 Z" fill="#000000" fill-rule="nonzero" fill-opacity="1"></path><path clip-path="url(#clip430)" d="M1214.67 1470.93 L1227.65 1457.95 L1230.43 1460.73 L1220.48 1470.68 L1226.47 1476.67 Q1226.94 1475.71 1227.55 1474.87 Q1228.14 1474.02 1228.86 1473.3 Q1232.95 1469.21 1237.58 1469.06 Q1242.21 1468.91 1246.04 1472.74 Q1249.99 1476.69 1249.73 1481.34 Q1249.45 1485.97 1244.98 1490.44 Q1243.44 1491.98 1241.58 1493.32 Q1239.73 1494.64 1237.5 1495.82 L1234.18 1492.5 Q1236.45 1491.83 1238.42 1490.65 Q1240.38 1489.47 1242.13 1487.72 Q1244.96 1484.89 1245.13 1481.75 Q1245.29 1478.6 1242.74 1476.05 Q1240.18 1473.5 1237.04 1473.66 Q1233.9 1473.82 1231.07 1476.65 Q1229.74 1477.98 1228.71 1479.6 Q1227.7 1481.21 1226.94 1483.2 L1214.67 1470.93 Z" fill="#000000" fill-rule="nonzero" fill-opacity="1"></path><path clip-path="url(#clip430)" d="M1245.21 1444.74 Q1242.66 1447.29 1243.88 1451.1 Q1245.11 1454.89 1250.15 1459.93 Q1255.18 1464.95 1258.98 1466.2 Q1262.77 1467.41 1265.33 1464.85 Q1267.9 1462.28 1266.67 1458.5 Q1265.44 1454.69 1260.42 1449.66 Q1255.37 1444.62 1251.58 1443.41 Q1247.78 1442.17 1245.21 1444.74 M1242.59 1442.12 Q1246.7 1438.01 1252.12 1439.11 Q1257.53 1440.17 1263.72 1446.36 Q1269.89 1452.53 1270.97 1457.96 Q1272.05 1463.36 1267.94 1467.47 Q1263.84 1471.58 1258.42 1470.52 Q1253 1469.42 1246.83 1463.25 Q1240.64 1457.06 1239.56 1451.66 Q1238.48 1446.23 1242.59 1442.12 Z" fill="#000000" fill-rule="nonzero" fill-opacity="1"></path><path clip-path="url(#clip430)" d="M1266.54 1423.41 Q1263.98 1425.96 1265.21 1429.78 Q1266.44 1433.56 1271.48 1438.6 Q1276.51 1443.62 1280.3 1444.87 Q1284.1 1446.08 1286.65 1443.53 Q1289.22 1440.96 1288 1437.17 Q1286.77 1433.36 1281.74 1428.34 Q1276.7 1423.29 1272.9 1422.08 Q1269.11 1420.84 1266.54 1423.41 M1263.92 1420.79 Q1268.03 1416.68 1273.44 1417.78 Q1278.86 1418.84 1285.05 1425.03 Q1291.22 1431.2 1292.3 1436.63 Q1293.38 1442.04 1289.27 1446.14 Q1285.16 1450.25 1279.75 1449.19 Q1274.33 1448.09 1268.16 1441.92 Q1261.97 1435.73 1260.89 1430.33 Q1259.81 1424.9 1263.92 1420.79 Z" fill="#000000" fill-rule="nonzero" fill-opacity="1"></path><path clip-path="url(#clip430)" d="M1287.86 1402.08 Q1285.31 1404.64 1286.54 1408.45 Q1287.77 1412.23 1292.81 1417.27 Q1297.83 1422.3 1301.63 1423.54 Q1305.43 1424.75 1307.98 1422.2 Q1310.55 1419.63 1309.32 1415.85 Q1308.1 1412.03 1303.07 1407.01 Q1298.03 1401.97 1294.23 1400.76 Q1290.43 1399.51 1287.86 1402.08 M1285.25 1399.46 Q1289.35 1395.35 1294.77 1396.45 Q1300.19 1397.51 1306.38 1403.7 Q1312.55 1409.87 1313.63 1415.31 Q1314.71 1420.71 1310.6 1424.82 Q1306.49 1428.93 1301.07 1427.86 Q1295.66 1426.76 1289.49 1420.59 Q1283.3 1414.41 1282.22 1409.01 Q1281.14 1403.57 1285.25 1399.46 Z" fill="#000000" fill-rule="nonzero" fill-opacity="1"></path><path clip-path="url(#clip430)" d="M2203.27 1513.37 L2208.67 1507.97 L2190.02 1489.32 L2185.33 1496.38 L2182.31 1493.37 L2186.98 1486.34 L2190.29 1483.04 L2211.94 1504.69 L2217.34 1499.29 L2220.13 1502.07 L2206.05 1516.15 L2203.27 1513.37 Z" fill="#000000" fill-rule="nonzero" fill-opacity="1"></path><path clip-path="url(#clip430)" d="M2211.61 1466.06 Q2209.06 1468.62 2210.29 1472.43 Q2211.52 1476.21 2216.56 1481.25 Q2221.58 1486.28 2225.38 1487.52 Q2229.18 1488.73 2231.73 1486.18 Q2234.3 1483.61 2233.07 1479.83 Q2231.84 1476.02 2226.82 1470.99 Q2221.78 1465.95 2217.98 1464.74 Q2214.18 1463.49 2211.61 1466.06 M2208.99 1463.45 Q2213.1 1459.34 2218.52 1460.43 Q2223.94 1461.5 2230.13 1467.69 Q2236.3 1473.86 2237.38 1479.29 Q2238.46 1484.69 2234.35 1488.8 Q2230.24 1492.91 2224.82 1491.84 Q2219.41 1490.75 2213.23 1484.58 Q2207.05 1478.39 2205.97 1472.99 Q2204.89 1467.55 2208.99 1463.45 Z" fill="#000000" fill-rule="nonzero" fill-opacity="1"></path><path clip-path="url(#clip430)" d="M2232.94 1444.74 Q2230.39 1447.29 2231.62 1451.1 Q2232.84 1454.89 2237.88 1459.93 Q2242.91 1464.95 2246.71 1466.2 Q2250.5 1467.41 2253.06 1464.85 Q2255.63 1462.28 2254.4 1458.5 Q2253.17 1454.69 2248.15 1449.66 Q2243.11 1444.62 2239.31 1443.41 Q2235.51 1442.17 2232.94 1444.74 M2230.32 1442.12 Q2234.43 1438.01 2239.85 1439.11 Q2245.27 1440.17 2251.45 1446.36 Q2257.62 1452.53 2258.7 1457.96 Q2259.79 1463.36 2255.68 1467.47 Q2251.57 1471.58 2246.15 1470.52 Q2240.73 1469.42 2234.56 1463.25 Q2228.37 1457.06 2227.29 1451.66 Q2226.21 1446.23 2230.32 1442.12 Z" fill="#000000" fill-rule="nonzero" fill-opacity="1"></path><path clip-path="url(#clip430)" d="M2254.27 1423.41 Q2251.72 1425.96 2252.94 1429.78 Q2254.17 1433.56 2259.21 1438.6 Q2264.24 1443.62 2268.03 1444.87 Q2271.83 1446.08 2274.39 1443.53 Q2276.96 1440.96 2275.73 1437.17 Q2274.5 1433.36 2269.48 1428.34 Q2264.43 1423.29 2260.64 1422.08 Q2256.84 1420.84 2254.27 1423.41 M2251.65 1420.79 Q2255.76 1416.68 2261.18 1417.78 Q2266.59 1418.84 2272.78 1425.03 Q2278.95 1431.2 2280.03 1436.63 Q2281.11 1442.04 2277 1446.14 Q2272.9 1450.25 2267.48 1449.19 Q2262.06 1448.09 2255.89 1441.92 Q2249.7 1435.73 2248.62 1430.33 Q2247.54 1424.9 2251.65 1420.79 Z" fill="#000000" fill-rule="nonzero" fill-opacity="1"></path><path clip-path="url(#clip430)" d="M2275.6 1402.08 Q2273.04 1404.64 2274.27 1408.45 Q2275.5 1412.23 2280.54 1417.27 Q2285.57 1422.3 2289.36 1423.54 Q2293.16 1424.75 2295.71 1422.2 Q2298.28 1419.63 2297.06 1415.85 Q2295.83 1412.03 2290.8 1407.01 Q2285.76 1401.97 2281.96 1400.76 Q2278.17 1399.51 2275.6 1402.08 M2272.98 1399.46 Q2277.09 1395.35 2282.5 1396.45 Q2287.92 1397.51 2294.11 1403.7 Q2300.28 1409.87 2301.36 1415.31 Q2302.44 1420.71 2298.33 1424.82 Q2294.22 1428.93 2288.81 1427.86 Q2283.39 1426.76 2277.22 1420.59 Q2271.03 1414.41 2269.95 1409.01 Q2268.87 1403.57 2272.98 1399.46 Z" fill="#000000" fill-rule="nonzero" fill-opacity="1"></path><path clip-path="url(#clip430)" d="M1011.09 1549.04 L1019.75 1549.04 L1040.82 1588.79 L1040.82 1549.04 L1047.06 1549.04 L1047.06 1596.56 L1038.4 1596.56 L1017.33 1556.81 L1017.33 1596.56 L1011.09 1596.56 L1011.09 1549.04 Z" fill="#000000" fill-rule="nonzero" fill-opacity="1"></path><path clip-path="url(#clip430)" d="M1058.99 1582.49 L1058.99 1560.91 L1064.85 1560.91 L1064.85 1582.27 Q1064.85 1587.33 1066.82 1589.88 Q1068.79 1592.39 1072.74 1592.39 Q1077.48 1592.39 1080.22 1589.37 Q1082.99 1586.34 1082.99 1581.12 L1082.99 1560.91 L1088.85 1560.91 L1088.85 1596.56 L1082.99 1596.56 L1082.99 1591.08 Q1080.86 1594.33 1078.03 1595.92 Q1075.22 1597.48 1071.5 1597.48 Q1065.36 1597.48 1062.17 1593.66 Q1058.99 1589.84 1058.99 1582.49 M1073.73 1560.05 L1073.73 1560.05 Z" fill="#000000" fill-rule="nonzero" fill-opacity="1"></path><path clip-path="url(#clip430)" d="M1128.66 1567.75 Q1130.86 1563.81 1133.92 1561.93 Q1136.97 1560.05 1141.11 1560.05 Q1146.68 1560.05 1149.7 1563.97 Q1152.73 1567.85 1152.73 1575.04 L1152.73 1596.56 L1146.84 1596.56 L1146.84 1575.23 Q1146.84 1570.11 1145.02 1567.63 Q1143.21 1565.14 1139.49 1565.14 Q1134.93 1565.14 1132.29 1568.17 Q1129.65 1571.19 1129.65 1576.41 L1129.65 1596.56 L1123.76 1596.56 L1123.76 1575.23 Q1123.76 1570.08 1121.95 1567.63 Q1120.13 1565.14 1116.35 1565.14 Q1111.86 1565.14 1109.22 1568.2 Q1106.58 1571.22 1106.58 1576.41 L1106.58 1596.56 L1100.69 1596.56 L1100.69 1560.91 L1106.58 1560.91 L1106.58 1566.45 Q1108.58 1563.17 1111.38 1561.61 Q1114.18 1560.05 1118.03 1560.05 Q1121.92 1560.05 1124.62 1562.03 Q1127.36 1564 1128.66 1567.75 Z" fill="#000000" fill-rule="nonzero" fill-opacity="1"></path><path clip-path="url(#clip430)" d="M1190 1578.77 Q1190 1572.31 1187.32 1568.65 Q1184.68 1564.95 1180.04 1564.95 Q1175.39 1564.95 1172.72 1568.65 Q1170.07 1572.31 1170.07 1578.77 Q1170.07 1585.23 1172.72 1588.92 Q1175.39 1592.58 1180.04 1592.58 Q1184.68 1592.58 1187.32 1588.92 Q1190 1585.23 1190 1578.77 M1170.07 1566.32 Q1171.92 1563.14 1174.72 1561.61 Q1177.55 1560.05 1181.47 1560.05 Q1187.96 1560.05 1192 1565.21 Q1196.08 1570.36 1196.08 1578.77 Q1196.08 1587.17 1192 1592.33 Q1187.96 1597.48 1181.47 1597.48 Q1177.55 1597.48 1174.72 1595.95 Q1171.92 1594.39 1170.07 1591.21 L1170.07 1596.56 L1164.19 1596.56 L1164.19 1547.03 L1170.07 1547.03 L1170.07 1566.32 Z" fill="#000000" fill-rule="nonzero" fill-opacity="1"></path><path clip-path="url(#clip430)" d="M1236.28 1577.27 L1236.28 1580.14 L1209.35 1580.14 Q1209.73 1586.18 1212.98 1589.37 Q1216.26 1592.52 1222.08 1592.52 Q1225.45 1592.52 1228.61 1591.69 Q1231.79 1590.86 1234.91 1589.21 L1234.91 1594.74 Q1231.76 1596.08 1228.45 1596.78 Q1225.14 1597.48 1221.73 1597.48 Q1213.2 1597.48 1208.2 1592.52 Q1203.24 1587.55 1203.24 1579.09 Q1203.24 1570.33 1207.95 1565.21 Q1212.69 1560.05 1220.71 1560.05 Q1227.91 1560.05 1232.08 1564.7 Q1236.28 1569.31 1236.28 1577.27 M1230.42 1575.55 Q1230.36 1570.75 1227.71 1567.88 Q1225.1 1565.02 1220.78 1565.02 Q1215.87 1565.02 1212.91 1567.79 Q1209.99 1570.56 1209.54 1575.58 L1230.42 1575.55 Z" fill="#000000" fill-rule="nonzero" fill-opacity="1"></path><path clip-path="url(#clip430)" d="M1266.55 1566.39 Q1265.56 1565.81 1264.38 1565.56 Q1263.24 1565.27 1261.83 1565.27 Q1256.87 1565.27 1254.2 1568.52 Q1251.55 1571.73 1251.55 1577.78 L1251.55 1596.56 L1245.67 1596.56 L1245.67 1560.91 L1251.55 1560.91 L1251.55 1566.45 Q1253.4 1563.2 1256.36 1561.64 Q1259.32 1560.05 1263.55 1560.05 Q1264.16 1560.05 1264.89 1560.15 Q1265.62 1560.21 1266.51 1560.37 L1266.55 1566.39 Z" fill="#000000" fill-rule="nonzero" fill-opacity="1"></path><path clip-path="url(#clip430)" d="M1307.22 1565.02 Q1302.51 1565.02 1299.77 1568.71 Q1297.04 1572.37 1297.04 1578.77 Q1297.04 1585.16 1299.74 1588.86 Q1302.48 1592.52 1307.22 1592.52 Q1311.9 1592.52 1314.64 1588.82 Q1317.38 1585.13 1317.38 1578.77 Q1317.38 1572.43 1314.64 1568.74 Q1311.9 1565.02 1307.22 1565.02 M1307.22 1560.05 Q1314.86 1560.05 1319.22 1565.02 Q1323.58 1569.98 1323.58 1578.77 Q1323.58 1587.52 1319.22 1592.52 Q1314.86 1597.48 1307.22 1597.48 Q1299.55 1597.48 1295.19 1592.52 Q1290.86 1587.52 1290.86 1578.77 Q1290.86 1569.98 1295.19 1565.02 Q1299.55 1560.05 1307.22 1560.05 Z" fill="#000000" fill-rule="nonzero" fill-opacity="1"></path><path clip-path="url(#clip430)" d="M1351.34 1547.03 L1351.34 1551.9 L1345.73 1551.9 Q1342.58 1551.9 1341.34 1553.18 Q1340.13 1554.45 1340.13 1557.76 L1340.13 1560.91 L1349.78 1560.91 L1349.78 1565.46 L1340.13 1565.46 L1340.13 1596.56 L1334.24 1596.56 L1334.24 1565.46 L1328.64 1565.46 L1328.64 1560.91 L1334.24 1560.91 L1334.24 1558.43 Q1334.24 1552.48 1337.01 1549.77 Q1339.78 1547.03 1345.8 1547.03 L1351.34 1547.03 Z" fill="#000000" fill-rule="nonzero" fill-opacity="1"></path><path clip-path="url(#clip430)" d="M1373.55 1560.91 L1379.41 1560.91 L1386.73 1588.73 L1394.02 1560.91 L1400.93 1560.91 L1408.25 1588.73 L1415.53 1560.91 L1421.39 1560.91 L1412.07 1596.56 L1405.16 1596.56 L1397.49 1567.34 L1389.79 1596.56 L1382.88 1596.56 L1373.55 1560.91 Z" fill="#000000" fill-rule="nonzero" fill-opacity="1"></path><path clip-path="url(#clip430)" d="M1460.76 1577.27 L1460.76 1580.14 L1433.84 1580.14 Q1434.22 1586.18 1437.46 1589.37 Q1440.74 1592.52 1446.57 1592.52 Q1449.94 1592.52 1453.09 1591.69 Q1456.28 1590.86 1459.39 1589.21 L1459.39 1594.74 Q1456.24 1596.08 1452.93 1596.78 Q1449.62 1597.48 1446.22 1597.48 Q1437.69 1597.48 1432.69 1592.52 Q1427.73 1587.55 1427.73 1579.09 Q1427.73 1570.33 1432.44 1565.21 Q1437.18 1560.05 1445.2 1560.05 Q1452.39 1560.05 1456.56 1564.7 Q1460.76 1569.31 1460.76 1577.27 M1454.91 1575.55 Q1454.84 1570.75 1452.2 1567.88 Q1449.59 1565.02 1445.26 1565.02 Q1440.36 1565.02 1437.4 1567.79 Q1434.47 1570.56 1434.03 1575.58 L1454.91 1575.55 Z" fill="#000000" fill-rule="nonzero" fill-opacity="1"></path><path clip-path="url(#clip430)" d="M1470.38 1560.91 L1476.23 1560.91 L1476.23 1596.56 L1470.38 1596.56 L1470.38 1560.91 M1470.38 1547.03 L1476.23 1547.03 L1476.23 1554.45 L1470.38 1554.45 L1470.38 1547.03 Z" fill="#000000" fill-rule="nonzero" fill-opacity="1"></path><path clip-path="url(#clip430)" d="M1511.94 1578.32 Q1511.94 1571.96 1509.3 1568.45 Q1506.69 1564.95 1501.95 1564.95 Q1497.24 1564.95 1494.6 1568.45 Q1491.99 1571.96 1491.99 1578.32 Q1491.99 1584.66 1494.6 1588.16 Q1497.24 1591.66 1501.95 1591.66 Q1506.69 1591.66 1509.3 1588.16 Q1511.94 1584.66 1511.94 1578.32 M1517.8 1592.13 Q1517.8 1601.24 1513.76 1605.66 Q1509.72 1610.12 1501.38 1610.12 Q1498.29 1610.12 1495.55 1609.64 Q1492.81 1609.2 1490.24 1608.24 L1490.24 1602.54 Q1492.81 1603.94 1495.33 1604.61 Q1497.84 1605.28 1500.45 1605.28 Q1506.21 1605.28 1509.08 1602.26 Q1511.94 1599.26 1511.94 1593.19 L1511.94 1590.29 Q1510.13 1593.44 1507.3 1595 Q1504.46 1596.56 1500.52 1596.56 Q1493.96 1596.56 1489.95 1591.56 Q1485.94 1586.56 1485.94 1578.32 Q1485.94 1570.05 1489.95 1565.05 Q1493.96 1560.05 1500.52 1560.05 Q1504.46 1560.05 1507.3 1561.61 Q1510.13 1563.17 1511.94 1566.32 L1511.94 1560.91 L1517.8 1560.91 L1517.8 1592.13 Z" fill="#000000" fill-rule="nonzero" fill-opacity="1"></path><path clip-path="url(#clip430)" d="M1559.5 1575.04 L1559.5 1596.56 L1553.64 1596.56 L1553.64 1575.23 Q1553.64 1570.17 1551.67 1567.66 Q1549.69 1565.14 1545.75 1565.14 Q1541 1565.14 1538.27 1568.17 Q1535.53 1571.19 1535.53 1576.41 L1535.53 1596.56 L1529.64 1596.56 L1529.64 1547.03 L1535.53 1547.03 L1535.53 1566.45 Q1537.63 1563.23 1540.46 1561.64 Q1543.33 1560.05 1547.05 1560.05 Q1553.19 1560.05 1556.34 1563.87 Q1559.5 1567.66 1559.5 1575.04 Z" fill="#000000" fill-rule="nonzero" fill-opacity="1"></path><path clip-path="url(#clip430)" d="M1576.97 1550.79 L1576.97 1560.91 L1589.03 1560.91 L1589.03 1565.46 L1576.97 1565.46 L1576.97 1584.81 Q1576.97 1589.17 1578.15 1590.42 Q1579.36 1591.66 1583.02 1591.66 L1589.03 1591.66 L1589.03 1596.56 L1583.02 1596.56 Q1576.24 1596.56 1573.66 1594.04 Q1571.08 1591.5 1571.08 1584.81 L1571.08 1565.46 L1566.78 1565.46 L1566.78 1560.91 L1571.08 1560.91 L1571.08 1550.79 L1576.97 1550.79 Z" fill="#000000" fill-rule="nonzero" fill-opacity="1"></path><path clip-path="url(#clip430)" d="M1619.46 1561.96 L1619.46 1567.5 Q1616.98 1566.23 1614.3 1565.59 Q1611.63 1564.95 1608.77 1564.95 Q1604.41 1564.95 1602.21 1566.29 Q1600.04 1567.63 1600.04 1570.3 Q1600.04 1572.34 1601.6 1573.52 Q1603.16 1574.66 1607.87 1575.71 L1609.88 1576.16 Q1616.12 1577.49 1618.73 1579.94 Q1621.37 1582.36 1621.37 1586.72 Q1621.37 1591.69 1617.42 1594.59 Q1613.51 1597.48 1606.63 1597.48 Q1603.77 1597.48 1600.65 1596.91 Q1597.56 1596.37 1594.12 1595.25 L1594.12 1589.21 Q1597.37 1590.89 1600.52 1591.75 Q1603.67 1592.58 1606.76 1592.58 Q1610.9 1592.58 1613.13 1591.18 Q1615.35 1589.75 1615.35 1587.17 Q1615.35 1584.78 1613.73 1583.51 Q1612.14 1582.24 1606.7 1581.06 L1604.66 1580.58 Q1599.22 1579.44 1596.8 1577.08 Q1594.38 1574.69 1594.38 1570.56 Q1594.38 1565.53 1597.94 1562.79 Q1601.51 1560.05 1608.07 1560.05 Q1611.31 1560.05 1614.18 1560.53 Q1617.04 1561.01 1619.46 1561.96 Z" fill="#000000" fill-rule="nonzero" fill-opacity="1"></path><polyline clip-path="url(#clip430)" style="stroke:#000000; stroke-linecap:round; stroke-linejoin:round; stroke-width:4; stroke-opacity:1; fill:none" points="279.704,1366.15 279.704,123.472 "></polyline>
<polyline clip-path="url(#clip430)" style="stroke:#000000; stroke-linecap:round; stroke-linejoin:round; stroke-width:4; stroke-opacity:1; fill:none" points="279.704,1270.92 298.602,1270.92 "></polyline>
<polyline clip-path="url(#clip430)" style="stroke:#000000; stroke-linecap:round; stroke-linejoin:round; stroke-width:4; stroke-opacity:1; fill:none" points="279.704,1081.47 298.602,1081.47 "></polyline>
<polyline clip-path="url(#clip430)" style="stroke:#000000; stroke-linecap:round; stroke-linejoin:round; stroke-width:4; stroke-opacity:1; fill:none" points="279.704,892.018 298.602,892.018 "></polyline>
<polyline clip-path="url(#clip430)" style="stroke:#000000; stroke-linecap:round; stroke-linejoin:round; stroke-width:4; stroke-opacity:1; fill:none" points="279.704,702.565 298.602,702.565 "></polyline>
<polyline clip-path="url(#clip430)" style="stroke:#000000; stroke-linecap:round; stroke-linejoin:round; stroke-width:4; stroke-opacity:1; fill:none" points="279.704,513.112 298.602,513.112 "></polyline>
<polyline clip-path="url(#clip430)" style="stroke:#000000; stroke-linecap:round; stroke-linejoin:round; stroke-width:4; stroke-opacity:1; fill:none" points="279.704,323.659 298.602,323.659 "></polyline>
<polyline clip-path="url(#clip430)" style="stroke:#000000; stroke-linecap:round; stroke-linejoin:round; stroke-width:4; stroke-opacity:1; fill:none" points="279.704,134.206 298.602,134.206 "></polyline>
<path clip-path="url(#clip430)" d="M127.2 1256.72 Q123.589 1256.72 121.76 1260.29 Q119.955 1263.83 119.955 1270.96 Q119.955 1278.07 121.76 1281.63 Q123.589 1285.17 127.2 1285.17 Q130.834 1285.17 132.64 1281.63 Q134.468 1278.07 134.468 1270.96 Q134.468 1263.83 132.64 1260.29 Q130.834 1256.72 127.2 1256.72 M127.2 1253.02 Q133.01 1253.02 136.066 1257.63 Q139.144 1262.21 139.144 1270.96 Q139.144 1279.69 136.066 1284.29 Q133.01 1288.88 127.2 1288.88 Q121.39 1288.88 118.311 1284.29 Q115.256 1279.69 115.256 1270.96 Q115.256 1262.21 118.311 1257.63 Q121.39 1253.02 127.2 1253.02 Z" fill="#000000" fill-rule="nonzero" fill-opacity="1"></path><path clip-path="url(#clip430)" d="M147.362 1282.32 L152.246 1282.32 L152.246 1288.2 L147.362 1288.2 L147.362 1282.32 Z" fill="#000000" fill-rule="nonzero" fill-opacity="1"></path><path clip-path="url(#clip430)" d="M172.431 1256.72 Q168.82 1256.72 166.991 1260.29 Q165.186 1263.83 165.186 1270.96 Q165.186 1278.07 166.991 1281.63 Q168.82 1285.17 172.431 1285.17 Q176.065 1285.17 177.871 1281.63 Q179.7 1278.07 179.7 1270.96 Q179.7 1263.83 177.871 1260.29 Q176.065 1256.72 172.431 1256.72 M172.431 1253.02 Q178.241 1253.02 181.297 1257.63 Q184.376 1262.21 184.376 1270.96 Q184.376 1279.69 181.297 1284.29 Q178.241 1288.88 172.431 1288.88 Q166.621 1288.88 163.542 1284.29 Q160.487 1279.69 160.487 1270.96 Q160.487 1262.21 163.542 1257.63 Q166.621 1253.02 172.431 1253.02 Z" fill="#000000" fill-rule="nonzero" fill-opacity="1"></path><path clip-path="url(#clip430)" d="M202.593 1256.72 Q198.982 1256.72 197.153 1260.29 Q195.348 1263.83 195.348 1270.96 Q195.348 1278.07 197.153 1281.63 Q198.982 1285.17 202.593 1285.17 Q206.227 1285.17 208.033 1281.63 Q209.861 1278.07 209.861 1270.96 Q209.861 1263.83 208.033 1260.29 Q206.227 1256.72 202.593 1256.72 M202.593 1253.02 Q208.403 1253.02 211.459 1257.63 Q214.537 1262.21 214.537 1270.96 Q214.537 1279.69 211.459 1284.29 Q208.403 1288.88 202.593 1288.88 Q196.783 1288.88 193.704 1284.29 Q190.649 1279.69 190.649 1270.96 Q190.649 1262.21 193.704 1257.63 Q196.783 1253.02 202.593 1253.02 Z" fill="#000000" fill-rule="nonzero" fill-opacity="1"></path><path clip-path="url(#clip430)" d="M222.801 1253.64 L241.158 1253.64 L241.158 1257.58 L227.084 1257.58 L227.084 1266.05 Q228.102 1265.7 229.121 1265.54 Q230.139 1265.36 231.158 1265.36 Q236.945 1265.36 240.324 1268.53 Q243.704 1271.7 243.704 1277.12 Q243.704 1282.7 240.232 1285.8 Q236.76 1288.88 230.44 1288.88 Q228.264 1288.88 225.996 1288.51 Q223.75 1288.13 221.343 1287.39 L221.343 1282.7 Q223.426 1283.83 225.648 1284.38 Q227.871 1284.94 230.347 1284.94 Q234.352 1284.94 236.69 1282.83 Q239.028 1280.73 239.028 1277.12 Q239.028 1273.51 236.69 1271.4 Q234.352 1269.29 230.347 1269.29 Q228.473 1269.29 226.598 1269.71 Q224.746 1270.13 222.801 1271.01 L222.801 1253.64 Z" fill="#000000" fill-rule="nonzero" fill-opacity="1"></path><path clip-path="url(#clip430)" d="M126.205 1067.27 Q122.593 1067.27 120.765 1070.83 Q118.959 1074.38 118.959 1081.51 Q118.959 1088.61 120.765 1092.18 Q122.593 1095.72 126.205 1095.72 Q129.839 1095.72 131.644 1092.18 Q133.473 1088.61 133.473 1081.51 Q133.473 1074.38 131.644 1070.83 Q129.839 1067.27 126.205 1067.27 M126.205 1063.57 Q132.015 1063.57 135.07 1068.17 Q138.149 1072.76 138.149 1081.51 Q138.149 1090.23 135.07 1094.84 Q132.015 1099.42 126.205 1099.42 Q120.394 1099.42 117.316 1094.84 Q114.26 1090.23 114.26 1081.51 Q114.26 1072.76 117.316 1068.17 Q120.394 1063.57 126.205 1063.57 Z" fill="#000000" fill-rule="nonzero" fill-opacity="1"></path><path clip-path="url(#clip430)" d="M146.366 1092.87 L151.251 1092.87 L151.251 1098.75 L146.366 1098.75 L146.366 1092.87 Z" fill="#000000" fill-rule="nonzero" fill-opacity="1"></path><path clip-path="url(#clip430)" d="M171.436 1067.27 Q167.825 1067.27 165.996 1070.83 Q164.19 1074.38 164.19 1081.51 Q164.19 1088.61 165.996 1092.18 Q167.825 1095.72 171.436 1095.72 Q175.07 1095.72 176.876 1092.18 Q178.704 1088.61 178.704 1081.51 Q178.704 1074.38 176.876 1070.83 Q175.07 1067.27 171.436 1067.27 M171.436 1063.57 Q177.246 1063.57 180.301 1068.17 Q183.38 1072.76 183.38 1081.51 Q183.38 1090.23 180.301 1094.84 Q177.246 1099.42 171.436 1099.42 Q165.626 1099.42 162.547 1094.84 Q159.491 1090.23 159.491 1081.51 Q159.491 1072.76 162.547 1068.17 Q165.626 1063.57 171.436 1063.57 Z" fill="#000000" fill-rule="nonzero" fill-opacity="1"></path><path clip-path="url(#clip430)" d="M192.408 1094.82 L200.047 1094.82 L200.047 1068.45 L191.737 1070.12 L191.737 1065.86 L200 1064.19 L204.676 1064.19 L204.676 1094.82 L212.315 1094.82 L212.315 1098.75 L192.408 1098.75 L192.408 1094.82 Z" fill="#000000" fill-rule="nonzero" fill-opacity="1"></path><path clip-path="url(#clip430)" d="M231.76 1067.27 Q228.148 1067.27 226.32 1070.83 Q224.514 1074.38 224.514 1081.51 Q224.514 1088.61 226.32 1092.18 Q228.148 1095.72 231.76 1095.72 Q235.394 1095.72 237.199 1092.18 Q239.028 1088.61 239.028 1081.51 Q239.028 1074.38 237.199 1070.83 Q235.394 1067.27 231.76 1067.27 M231.76 1063.57 Q237.57 1063.57 240.625 1068.17 Q243.704 1072.76 243.704 1081.51 Q243.704 1090.23 240.625 1094.84 Q237.57 1099.42 231.76 1099.42 Q225.949 1099.42 222.871 1094.84 Q219.815 1090.23 219.815 1081.51 Q219.815 1072.76 222.871 1068.17 Q225.949 1063.57 231.76 1063.57 Z" fill="#000000" fill-rule="nonzero" fill-opacity="1"></path><path clip-path="url(#clip430)" d="M127.2 877.817 Q123.589 877.817 121.76 881.382 Q119.955 884.923 119.955 892.053 Q119.955 899.159 121.76 902.724 Q123.589 906.266 127.2 906.266 Q130.834 906.266 132.64 902.724 Q134.468 899.159 134.468 892.053 Q134.468 884.923 132.64 881.382 Q130.834 877.817 127.2 877.817 M127.2 874.113 Q133.01 874.113 136.066 878.72 Q139.144 883.303 139.144 892.053 Q139.144 900.78 136.066 905.386 Q133.01 909.97 127.2 909.97 Q121.39 909.97 118.311 905.386 Q115.256 900.78 115.256 892.053 Q115.256 883.303 118.311 878.72 Q121.39 874.113 127.2 874.113 Z" fill="#000000" fill-rule="nonzero" fill-opacity="1"></path><path clip-path="url(#clip430)" d="M147.362 903.419 L152.246 903.419 L152.246 909.298 L147.362 909.298 L147.362 903.419 Z" fill="#000000" fill-rule="nonzero" fill-opacity="1"></path><path clip-path="url(#clip430)" d="M172.431 877.817 Q168.82 877.817 166.991 881.382 Q165.186 884.923 165.186 892.053 Q165.186 899.159 166.991 902.724 Q168.82 906.266 172.431 906.266 Q176.065 906.266 177.871 902.724 Q179.7 899.159 179.7 892.053 Q179.7 884.923 177.871 881.382 Q176.065 877.817 172.431 877.817 M172.431 874.113 Q178.241 874.113 181.297 878.72 Q184.376 883.303 184.376 892.053 Q184.376 900.78 181.297 905.386 Q178.241 909.97 172.431 909.97 Q166.621 909.97 163.542 905.386 Q160.487 900.78 160.487 892.053 Q160.487 883.303 163.542 878.72 Q166.621 874.113 172.431 874.113 Z" fill="#000000" fill-rule="nonzero" fill-opacity="1"></path><path clip-path="url(#clip430)" d="M193.403 905.363 L201.042 905.363 L201.042 878.998 L192.732 880.664 L192.732 876.405 L200.996 874.738 L205.672 874.738 L205.672 905.363 L213.311 905.363 L213.311 909.298 L193.403 909.298 L193.403 905.363 Z" fill="#000000" fill-rule="nonzero" fill-opacity="1"></path><path clip-path="url(#clip430)" d="M222.801 874.738 L241.158 874.738 L241.158 878.673 L227.084 878.673 L227.084 887.146 Q228.102 886.798 229.121 886.636 Q230.139 886.451 231.158 886.451 Q236.945 886.451 240.324 889.622 Q243.704 892.794 243.704 898.21 Q243.704 903.789 240.232 906.891 Q236.76 909.97 230.44 909.97 Q228.264 909.97 225.996 909.599 Q223.75 909.229 221.343 908.488 L221.343 903.789 Q223.426 904.923 225.648 905.479 Q227.871 906.034 230.347 906.034 Q234.352 906.034 236.69 903.928 Q239.028 901.821 239.028 898.21 Q239.028 894.599 236.69 892.493 Q234.352 890.386 230.347 890.386 Q228.473 890.386 226.598 890.803 Q224.746 891.22 222.801 892.099 L222.801 874.738 Z" fill="#000000" fill-rule="nonzero" fill-opacity="1"></path><path clip-path="url(#clip430)" d="M126.205 688.364 Q122.593 688.364 120.765 691.929 Q118.959 695.47 118.959 702.6 Q118.959 709.706 120.765 713.271 Q122.593 716.813 126.205 716.813 Q129.839 716.813 131.644 713.271 Q133.473 709.706 133.473 702.6 Q133.473 695.47 131.644 691.929 Q129.839 688.364 126.205 688.364 M126.205 684.66 Q132.015 684.66 135.07 689.267 Q138.149 693.85 138.149 702.6 Q138.149 711.327 135.07 715.933 Q132.015 720.517 126.205 720.517 Q120.394 720.517 117.316 715.933 Q114.26 711.327 114.26 702.6 Q114.26 693.85 117.316 689.267 Q120.394 684.66 126.205 684.66 Z" fill="#000000" fill-rule="nonzero" fill-opacity="1"></path><path clip-path="url(#clip430)" d="M146.366 713.966 L151.251 713.966 L151.251 719.845 L146.366 719.845 L146.366 713.966 Z" fill="#000000" fill-rule="nonzero" fill-opacity="1"></path><path clip-path="url(#clip430)" d="M171.436 688.364 Q167.825 688.364 165.996 691.929 Q164.19 695.47 164.19 702.6 Q164.19 709.706 165.996 713.271 Q167.825 716.813 171.436 716.813 Q175.07 716.813 176.876 713.271 Q178.704 709.706 178.704 702.6 Q178.704 695.47 176.876 691.929 Q175.07 688.364 171.436 688.364 M171.436 684.66 Q177.246 684.66 180.301 689.267 Q183.38 693.85 183.38 702.6 Q183.38 711.327 180.301 715.933 Q177.246 720.517 171.436 720.517 Q165.626 720.517 162.547 715.933 Q159.491 711.327 159.491 702.6 Q159.491 693.85 162.547 689.267 Q165.626 684.66 171.436 684.66 Z" fill="#000000" fill-rule="nonzero" fill-opacity="1"></path><path clip-path="url(#clip430)" d="M195.625 715.91 L211.945 715.91 L211.945 719.845 L190 719.845 L190 715.91 Q192.663 713.156 197.246 708.526 Q201.852 703.873 203.033 702.531 Q205.278 700.007 206.158 698.271 Q207.061 696.512 207.061 694.822 Q207.061 692.068 205.116 690.332 Q203.195 688.595 200.093 688.595 Q197.894 688.595 195.44 689.359 Q193.01 690.123 190.232 691.674 L190.232 686.952 Q193.056 685.818 195.51 685.239 Q197.963 684.66 200 684.66 Q205.371 684.66 208.565 687.345 Q211.76 690.031 211.76 694.521 Q211.76 696.651 210.949 698.572 Q210.162 700.47 208.056 703.063 Q207.477 703.734 204.375 706.952 Q201.274 710.146 195.625 715.91 Z" fill="#000000" fill-rule="nonzero" fill-opacity="1"></path><path clip-path="url(#clip430)" d="M231.76 688.364 Q228.148 688.364 226.32 691.929 Q224.514 695.47 224.514 702.6 Q224.514 709.706 226.32 713.271 Q228.148 716.813 231.76 716.813 Q235.394 716.813 237.199 713.271 Q239.028 709.706 239.028 702.6 Q239.028 695.47 237.199 691.929 Q235.394 688.364 231.76 688.364 M231.76 684.66 Q237.57 684.66 240.625 689.267 Q243.704 693.85 243.704 702.6 Q243.704 711.327 240.625 715.933 Q237.57 720.517 231.76 720.517 Q225.949 720.517 222.871 715.933 Q219.815 711.327 219.815 702.6 Q219.815 693.85 222.871 689.267 Q225.949 684.66 231.76 684.66 Z" fill="#000000" fill-rule="nonzero" fill-opacity="1"></path><path clip-path="url(#clip430)" d="M127.2 498.911 Q123.589 498.911 121.76 502.476 Q119.955 506.017 119.955 513.147 Q119.955 520.254 121.76 523.818 Q123.589 527.36 127.2 527.36 Q130.834 527.36 132.64 523.818 Q134.468 520.254 134.468 513.147 Q134.468 506.017 132.64 502.476 Q130.834 498.911 127.2 498.911 M127.2 495.207 Q133.01 495.207 136.066 499.814 Q139.144 504.397 139.144 513.147 Q139.144 521.874 136.066 526.48 Q133.01 531.064 127.2 531.064 Q121.39 531.064 118.311 526.48 Q115.256 521.874 115.256 513.147 Q115.256 504.397 118.311 499.814 Q121.39 495.207 127.2 495.207 Z" fill="#000000" fill-rule="nonzero" fill-opacity="1"></path><path clip-path="url(#clip430)" d="M147.362 524.513 L152.246 524.513 L152.246 530.392 L147.362 530.392 L147.362 524.513 Z" fill="#000000" fill-rule="nonzero" fill-opacity="1"></path><path clip-path="url(#clip430)" d="M172.431 498.911 Q168.82 498.911 166.991 502.476 Q165.186 506.017 165.186 513.147 Q165.186 520.254 166.991 523.818 Q168.82 527.36 172.431 527.36 Q176.065 527.36 177.871 523.818 Q179.7 520.254 179.7 513.147 Q179.7 506.017 177.871 502.476 Q176.065 498.911 172.431 498.911 M172.431 495.207 Q178.241 495.207 181.297 499.814 Q184.376 504.397 184.376 513.147 Q184.376 521.874 181.297 526.48 Q178.241 531.064 172.431 531.064 Q166.621 531.064 163.542 526.48 Q160.487 521.874 160.487 513.147 Q160.487 504.397 163.542 499.814 Q166.621 495.207 172.431 495.207 Z" fill="#000000" fill-rule="nonzero" fill-opacity="1"></path><path clip-path="url(#clip430)" d="M196.621 526.457 L212.94 526.457 L212.94 530.392 L190.996 530.392 L190.996 526.457 Q193.658 523.703 198.241 519.073 Q202.848 514.42 204.028 513.078 Q206.274 510.554 207.153 508.818 Q208.056 507.059 208.056 505.369 Q208.056 502.615 206.112 500.879 Q204.19 499.143 201.088 499.143 Q198.889 499.143 196.436 499.906 Q194.005 500.67 191.227 502.221 L191.227 497.499 Q194.051 496.365 196.505 495.786 Q198.959 495.207 200.996 495.207 Q206.366 495.207 209.561 497.893 Q212.755 500.578 212.755 505.068 Q212.755 507.198 211.945 509.119 Q211.158 511.017 209.051 513.61 Q208.473 514.281 205.371 517.499 Q202.269 520.693 196.621 526.457 Z" fill="#000000" fill-rule="nonzero" fill-opacity="1"></path><path clip-path="url(#clip430)" d="M222.801 495.832 L241.158 495.832 L241.158 499.768 L227.084 499.768 L227.084 508.24 Q228.102 507.892 229.121 507.73 Q230.139 507.545 231.158 507.545 Q236.945 507.545 240.324 510.717 Q243.704 513.888 243.704 519.304 Q243.704 524.883 240.232 527.985 Q236.76 531.064 230.44 531.064 Q228.264 531.064 225.996 530.693 Q223.75 530.323 221.343 529.582 L221.343 524.883 Q223.426 526.017 225.648 526.573 Q227.871 527.128 230.347 527.128 Q234.352 527.128 236.69 525.022 Q239.028 522.916 239.028 519.304 Q239.028 515.693 236.69 513.587 Q234.352 511.48 230.347 511.48 Q228.473 511.48 226.598 511.897 Q224.746 512.314 222.801 513.193 L222.801 495.832 Z" fill="#000000" fill-rule="nonzero" fill-opacity="1"></path><path clip-path="url(#clip430)" d="M126.205 309.458 Q122.593 309.458 120.765 313.023 Q118.959 316.564 118.959 323.694 Q118.959 330.801 120.765 334.365 Q122.593 337.907 126.205 337.907 Q129.839 337.907 131.644 334.365 Q133.473 330.801 133.473 323.694 Q133.473 316.564 131.644 313.023 Q129.839 309.458 126.205 309.458 M126.205 305.754 Q132.015 305.754 135.07 310.361 Q138.149 314.944 138.149 323.694 Q138.149 332.421 135.07 337.027 Q132.015 341.611 126.205 341.611 Q120.394 341.611 117.316 337.027 Q114.26 332.421 114.26 323.694 Q114.26 314.944 117.316 310.361 Q120.394 305.754 126.205 305.754 Z" fill="#000000" fill-rule="nonzero" fill-opacity="1"></path><path clip-path="url(#clip430)" d="M146.366 335.06 L151.251 335.06 L151.251 340.939 L146.366 340.939 L146.366 335.06 Z" fill="#000000" fill-rule="nonzero" fill-opacity="1"></path><path clip-path="url(#clip430)" d="M171.436 309.458 Q167.825 309.458 165.996 313.023 Q164.19 316.564 164.19 323.694 Q164.19 330.801 165.996 334.365 Q167.825 337.907 171.436 337.907 Q175.07 337.907 176.876 334.365 Q178.704 330.801 178.704 323.694 Q178.704 316.564 176.876 313.023 Q175.07 309.458 171.436 309.458 M171.436 305.754 Q177.246 305.754 180.301 310.361 Q183.38 314.944 183.38 323.694 Q183.38 332.421 180.301 337.027 Q177.246 341.611 171.436 341.611 Q165.626 341.611 162.547 337.027 Q159.491 332.421 159.491 323.694 Q159.491 314.944 162.547 310.361 Q165.626 305.754 171.436 305.754 Z" fill="#000000" fill-rule="nonzero" fill-opacity="1"></path><path clip-path="url(#clip430)" d="M205.764 322.305 Q209.121 323.023 210.996 325.291 Q212.894 327.56 212.894 330.893 Q212.894 336.009 209.375 338.81 Q205.857 341.611 199.375 341.611 Q197.2 341.611 194.885 341.171 Q192.593 340.754 190.139 339.898 L190.139 335.384 Q192.084 336.518 194.399 337.097 Q196.713 337.675 199.237 337.675 Q203.635 337.675 205.926 335.939 Q208.241 334.203 208.241 330.893 Q208.241 327.838 206.088 326.125 Q203.959 324.389 200.139 324.389 L196.112 324.389 L196.112 320.546 L200.325 320.546 Q203.774 320.546 205.602 319.18 Q207.431 317.791 207.431 315.199 Q207.431 312.537 205.533 311.125 Q203.658 309.69 200.139 309.69 Q198.218 309.69 196.019 310.106 Q193.82 310.523 191.181 311.402 L191.181 307.236 Q193.843 306.495 196.158 306.125 Q198.496 305.754 200.556 305.754 Q205.88 305.754 208.982 308.185 Q212.084 310.592 212.084 314.713 Q212.084 317.583 210.44 319.574 Q208.797 321.541 205.764 322.305 Z" fill="#000000" fill-rule="nonzero" fill-opacity="1"></path><path clip-path="url(#clip430)" d="M231.76 309.458 Q228.148 309.458 226.32 313.023 Q224.514 316.564 224.514 323.694 Q224.514 330.801 226.32 334.365 Q228.148 337.907 231.76 337.907 Q235.394 337.907 237.199 334.365 Q239.028 330.801 239.028 323.694 Q239.028 316.564 237.199 313.023 Q235.394 309.458 231.76 309.458 M231.76 305.754 Q237.57 305.754 240.625 310.361 Q243.704 314.944 243.704 323.694 Q243.704 332.421 240.625 337.027 Q237.57 341.611 231.76 341.611 Q225.949 341.611 222.871 337.027 Q219.815 332.421 219.815 323.694 Q219.815 314.944 222.871 310.361 Q225.949 305.754 231.76 305.754 Z" fill="#000000" fill-rule="nonzero" fill-opacity="1"></path><path clip-path="url(#clip430)" d="M127.2 120.005 Q123.589 120.005 121.76 123.57 Q119.955 127.112 119.955 134.241 Q119.955 141.348 121.76 144.912 Q123.589 148.454 127.2 148.454 Q130.834 148.454 132.64 144.912 Q134.468 141.348 134.468 134.241 Q134.468 127.112 132.64 123.57 Q130.834 120.005 127.2 120.005 M127.2 116.301 Q133.01 116.301 136.066 120.908 Q139.144 125.491 139.144 134.241 Q139.144 142.968 136.066 147.574 Q133.01 152.158 127.2 152.158 Q121.39 152.158 118.311 147.574 Q115.256 142.968 115.256 134.241 Q115.256 125.491 118.311 120.908 Q121.39 116.301 127.2 116.301 Z" fill="#000000" fill-rule="nonzero" fill-opacity="1"></path><path clip-path="url(#clip430)" d="M147.362 145.607 L152.246 145.607 L152.246 151.486 L147.362 151.486 L147.362 145.607 Z" fill="#000000" fill-rule="nonzero" fill-opacity="1"></path><path clip-path="url(#clip430)" d="M172.431 120.005 Q168.82 120.005 166.991 123.57 Q165.186 127.112 165.186 134.241 Q165.186 141.348 166.991 144.912 Q168.82 148.454 172.431 148.454 Q176.065 148.454 177.871 144.912 Q179.7 141.348 179.7 134.241 Q179.7 127.112 177.871 123.57 Q176.065 120.005 172.431 120.005 M172.431 116.301 Q178.241 116.301 181.297 120.908 Q184.376 125.491 184.376 134.241 Q184.376 142.968 181.297 147.574 Q178.241 152.158 172.431 152.158 Q166.621 152.158 163.542 147.574 Q160.487 142.968 160.487 134.241 Q160.487 125.491 163.542 120.908 Q166.621 116.301 172.431 116.301 Z" fill="#000000" fill-rule="nonzero" fill-opacity="1"></path><path clip-path="url(#clip430)" d="M206.76 132.852 Q210.116 133.57 211.991 135.838 Q213.889 138.107 213.889 141.44 Q213.889 146.556 210.371 149.357 Q206.852 152.158 200.371 152.158 Q198.195 152.158 195.88 151.718 Q193.588 151.301 191.135 150.445 L191.135 145.931 Q193.079 147.065 195.394 147.644 Q197.709 148.223 200.232 148.223 Q204.63 148.223 206.922 146.486 Q209.237 144.75 209.237 141.44 Q209.237 138.385 207.084 136.672 Q204.954 134.936 201.135 134.936 L197.107 134.936 L197.107 131.093 L201.32 131.093 Q204.769 131.093 206.598 129.727 Q208.426 128.338 208.426 125.746 Q208.426 123.084 206.528 121.672 Q204.653 120.237 201.135 120.237 Q199.213 120.237 197.014 120.653 Q194.815 121.07 192.176 121.95 L192.176 117.783 Q194.838 117.042 197.153 116.672 Q199.491 116.301 201.551 116.301 Q206.875 116.301 209.977 118.732 Q213.079 121.139 213.079 125.26 Q213.079 128.13 211.436 130.121 Q209.792 132.088 206.76 132.852 Z" fill="#000000" fill-rule="nonzero" fill-opacity="1"></path><path clip-path="url(#clip430)" d="M222.801 116.926 L241.158 116.926 L241.158 120.862 L227.084 120.862 L227.084 129.334 Q228.102 128.987 229.121 128.824 Q230.139 128.639 231.158 128.639 Q236.945 128.639 240.324 131.811 Q243.704 134.982 243.704 140.398 Q243.704 145.977 240.232 149.079 Q236.76 152.158 230.44 152.158 Q228.264 152.158 225.996 151.787 Q223.75 151.417 221.343 150.676 L221.343 145.977 Q223.426 147.111 225.648 147.667 Q227.871 148.223 230.347 148.223 Q234.352 148.223 236.69 146.116 Q239.028 144.01 239.028 140.398 Q239.028 136.787 236.69 134.681 Q234.352 132.574 230.347 132.574 Q228.473 132.574 226.598 132.991 Q224.746 133.408 222.801 134.287 L222.801 116.926 Z" fill="#000000" fill-rule="nonzero" fill-opacity="1"></path><path clip-path="url(#clip430)" d="M46.0847 1080.41 Q46.0847 1087.51 47.7079 1090.25 Q49.3312 1092.98 53.2461 1092.98 Q56.3653 1092.98 58.2114 1090.95 Q60.0256 1088.88 60.0256 1085.34 Q60.0256 1080.47 56.5881 1077.55 Q53.1188 1074.59 47.3897 1074.59 L46.0847 1074.59 L46.0847 1080.41 M43.6657 1068.73 L64.0042 1068.73 L64.0042 1074.59 L58.5933 1074.59 Q61.8398 1076.59 63.3994 1079.58 Q64.9272 1082.58 64.9272 1086.9 Q64.9272 1092.38 61.8716 1095.62 Q58.7843 1098.84 53.6281 1098.84 Q47.6125 1098.84 44.5569 1094.83 Q41.5014 1090.79 41.5014 1082.8 L41.5014 1074.59 L40.9285 1074.59 Q36.8862 1074.59 34.6901 1077.26 Q32.4621 1079.9 32.4621 1084.71 Q32.4621 1087.76 33.1941 1090.66 Q33.9262 1093.56 35.3903 1096.23 L29.9795 1096.23 Q28.7381 1093.01 28.1334 1089.99 Q27.4968 1086.97 27.4968 1084.1 Q27.4968 1076.37 31.5072 1072.55 Q35.5176 1068.73 43.6657 1068.73 Z" fill="#000000" fill-rule="nonzero" fill-opacity="1"></path><path clip-path="url(#clip430)" d="M28.3562 1060.87 L28.3562 1054.66 L58.275 1043.52 L28.3562 1032.38 L28.3562 1026.17 L64.0042 1039.54 L64.0042 1047.5 L28.3562 1060.87 Z" fill="#000000" fill-rule="nonzero" fill-opacity="1"></path><path clip-path="url(#clip430)" d="M44.7161 987.599 L47.5806 987.599 L47.5806 1014.53 Q53.6281 1014.14 56.8109 1010.9 Q59.9619 1007.62 59.9619 1001.79 Q59.9619 998.42 59.1344 995.269 Q58.3069 992.087 56.6518 988.967 L62.1899 988.967 Q63.5267 992.118 64.227 995.429 Q64.9272 998.739 64.9272 1002.14 Q64.9272 1010.67 59.9619 1015.67 Q54.9967 1020.64 46.5303 1020.64 Q37.7774 1020.64 32.6531 1015.93 Q27.4968 1011.18 27.4968 1003.16 Q27.4968 995.97 32.1438 991.8 Q36.7589 987.599 44.7161 987.599 M42.9973 993.455 Q38.1912 993.519 35.3266 996.161 Q32.4621 998.771 32.4621 1003.1 Q32.4621 1008 35.2312 1010.96 Q38.0002 1013.89 43.0292 1014.33 L42.9973 993.455 Z" fill="#000000" fill-rule="nonzero" fill-opacity="1"></path><path clip-path="url(#clip430)" d="M33.8307 957.33 Q33.2578 958.316 33.0032 959.494 Q32.7167 960.64 32.7167 962.04 Q32.7167 967.006 35.9632 969.679 Q39.1779 972.321 45.2253 972.321 L64.0042 972.321 L64.0042 978.209 L28.3562 978.209 L28.3562 972.321 L33.8944 972.321 Q30.6479 970.475 29.0883 967.515 Q27.4968 964.555 27.4968 960.322 Q27.4968 959.717 27.5923 958.985 Q27.656 958.253 27.8151 957.362 L33.8307 957.33 Z" fill="#000000" fill-rule="nonzero" fill-opacity="1"></path><path clip-path="url(#clip430)" d="M46.0847 934.986 Q46.0847 942.084 47.7079 944.821 Q49.3312 947.558 53.2461 947.558 Q56.3653 947.558 58.2114 945.521 Q60.0256 943.453 60.0256 939.92 Q60.0256 935.05 56.5881 932.122 Q53.1188 929.162 47.3897 929.162 L46.0847 929.162 L46.0847 934.986 M43.6657 923.305 L64.0042 923.305 L64.0042 929.162 L58.5933 929.162 Q61.8398 931.167 63.3994 934.159 Q64.9272 937.151 64.9272 941.479 Q64.9272 946.954 61.8716 950.2 Q58.7843 953.415 53.6281 953.415 Q47.6125 953.415 44.5569 949.405 Q41.5014 945.362 41.5014 937.373 L41.5014 929.162 L40.9285 929.162 Q36.8862 929.162 34.6901 931.835 Q32.4621 934.477 32.4621 939.283 Q32.4621 942.339 33.1941 945.235 Q33.9262 948.131 35.3903 950.805 L29.9795 950.805 Q28.7381 947.59 28.1334 944.567 Q27.4968 941.543 27.4968 938.678 Q27.4968 930.944 31.5072 927.125 Q35.5176 923.305 43.6657 923.305 Z" fill="#000000" fill-rule="nonzero" fill-opacity="1"></path><path clip-path="url(#clip430)" d="M45.7664 887.784 Q39.4007 887.784 35.8996 890.426 Q32.3984 893.036 32.3984 897.779 Q32.3984 902.489 35.8996 905.131 Q39.4007 907.741 45.7664 907.741 Q52.1003 907.741 55.6014 905.131 Q59.1026 902.489 59.1026 897.779 Q59.1026 893.036 55.6014 890.426 Q52.1003 887.784 45.7664 887.784 M59.58 881.928 Q68.683 881.928 73.1071 885.97 Q77.5631 890.012 77.5631 898.352 Q77.5631 901.439 77.0857 904.176 Q76.6401 906.913 75.6852 909.492 L69.9879 909.492 Q71.3884 906.913 72.0568 904.399 Q72.7252 901.885 72.7252 899.275 Q72.7252 893.514 69.7015 890.649 Q66.7096 887.784 60.6303 887.784 L57.7339 887.784 Q60.885 889.599 62.4446 892.431 Q64.0042 895.264 64.0042 899.211 Q64.0042 905.768 59.0071 909.778 Q54.01 913.788 45.7664 913.788 Q37.491 913.788 32.4939 909.778 Q27.4968 905.768 27.4968 899.211 Q27.4968 895.264 29.0564 892.431 Q30.616 889.599 33.7671 887.784 L28.3562 887.784 L28.3562 881.928 L59.58 881.928 Z" fill="#000000" fill-rule="nonzero" fill-opacity="1"></path><path clip-path="url(#clip430)" d="M44.7161 839.373 L47.5806 839.373 L47.5806 866.3 Q53.6281 865.918 56.8109 862.672 Q59.9619 859.393 59.9619 853.569 Q59.9619 850.195 59.1344 847.044 Q58.3069 843.861 56.6518 840.742 L62.1899 840.742 Q63.5267 843.893 64.227 847.203 Q64.9272 850.513 64.9272 853.919 Q64.9272 862.449 59.9619 867.446 Q54.9967 872.411 46.5303 872.411 Q37.7774 872.411 32.6531 867.701 Q27.4968 862.958 27.4968 854.937 Q27.4968 847.744 32.1438 843.575 Q36.7589 839.373 44.7161 839.373 M42.9973 845.23 Q38.1912 845.293 35.3266 847.935 Q32.4621 850.545 32.4621 854.874 Q32.4621 859.775 35.2312 862.735 Q38.0002 865.664 43.0292 866.109 L42.9973 845.23 Z" fill="#000000" fill-rule="nonzero" fill-opacity="1"></path><path clip-path="url(#clip430)" d="M33.8307 788.384 Q33.2578 789.371 33.0032 790.548 Q32.7167 791.694 32.7167 793.095 Q32.7167 798.06 35.9632 800.733 Q39.1779 803.375 45.2253 803.375 L64.0042 803.375 L64.0042 809.263 L28.3562 809.263 L28.3562 803.375 L33.8944 803.375 Q30.6479 801.529 29.0883 798.569 Q27.4968 795.609 27.4968 791.376 Q27.4968 790.771 27.5923 790.039 Q27.656 789.307 27.8151 788.416 L33.8307 788.384 Z" fill="#000000" fill-rule="nonzero" fill-opacity="1"></path><path clip-path="url(#clip430)" d="M44.7161 753.182 L47.5806 753.182 L47.5806 780.109 Q53.6281 779.727 56.8109 776.48 Q59.9619 773.202 59.9619 767.377 Q59.9619 764.003 59.1344 760.852 Q58.3069 757.669 56.6518 754.55 L62.1899 754.55 Q63.5267 757.701 64.227 761.011 Q64.9272 764.322 64.9272 767.727 Q64.9272 776.257 59.9619 781.254 Q54.9967 786.22 46.5303 786.22 Q37.7774 786.22 32.6531 781.509 Q27.4968 776.767 27.4968 768.746 Q27.4968 761.553 32.1438 757.383 Q36.7589 753.182 44.7161 753.182 M42.9973 759.038 Q38.1912 759.102 35.3266 761.743 Q32.4621 764.353 32.4621 768.682 Q32.4621 773.584 35.2312 776.544 Q38.0002 779.472 43.0292 779.918 L42.9973 759.038 Z" fill="#000000" fill-rule="nonzero" fill-opacity="1"></path><path clip-path="url(#clip430)" d="M14.479 743.569 L14.479 737.713 L64.0042 737.713 L64.0042 743.569 L14.479 743.569 Z" fill="#000000" fill-rule="nonzero" fill-opacity="1"></path><path clip-path="url(#clip430)" d="M46.0847 709.258 Q46.0847 716.356 47.7079 719.093 Q49.3312 721.83 53.2461 721.83 Q56.3653 721.83 58.2114 719.793 Q60.0256 717.725 60.0256 714.192 Q60.0256 709.322 56.5881 706.394 Q53.1188 703.434 47.3897 703.434 L46.0847 703.434 L46.0847 709.258 M43.6657 697.577 L64.0042 697.577 L64.0042 703.434 L58.5933 703.434 Q61.8398 705.439 63.3994 708.431 Q64.9272 711.423 64.9272 715.751 Q64.9272 721.226 61.8716 724.472 Q58.7843 727.687 53.6281 727.687 Q47.6125 727.687 44.5569 723.677 Q41.5014 719.634 41.5014 711.645 L41.5014 703.434 L40.9285 703.434 Q36.8862 703.434 34.6901 706.107 Q32.4621 708.749 32.4621 713.555 Q32.4621 716.611 33.1941 719.507 Q33.9262 722.403 35.3903 725.077 L29.9795 725.077 Q28.7381 721.862 28.1334 718.839 Q27.4968 715.815 27.4968 712.95 Q27.4968 705.216 31.5072 701.397 Q35.5176 697.577 43.6657 697.577 Z" fill="#000000" fill-rule="nonzero" fill-opacity="1"></path><path clip-path="url(#clip430)" d="M18.2347 679.721 L28.3562 679.721 L28.3562 667.658 L32.9077 667.658 L32.9077 679.721 L52.2594 679.721 Q56.6199 679.721 57.8613 678.544 Q59.1026 677.334 59.1026 673.674 L59.1026 667.658 L64.0042 667.658 L64.0042 673.674 Q64.0042 680.453 61.4897 683.032 Q58.9434 685.61 52.2594 685.61 L32.9077 685.61 L32.9077 689.906 L28.3562 689.906 L28.3562 685.61 L18.2347 685.61 L18.2347 679.721 Z" fill="#000000" fill-rule="nonzero" fill-opacity="1"></path><path clip-path="url(#clip430)" d="M28.3562 659.956 L28.3562 654.099 L64.0042 654.099 L64.0042 659.956 L28.3562 659.956 M14.479 659.956 L14.479 654.099 L21.895 654.099 L21.895 659.956 L14.479 659.956 Z" fill="#000000" fill-rule="nonzero" fill-opacity="1"></path><path clip-path="url(#clip430)" d="M28.3562 646.047 L28.3562 639.84 L58.275 628.7 L28.3562 617.56 L28.3562 611.354 L64.0042 624.722 L64.0042 632.679 L28.3562 646.047 Z" fill="#000000" fill-rule="nonzero" fill-opacity="1"></path><path clip-path="url(#clip430)" d="M44.7161 572.777 L47.5806 572.777 L47.5806 599.704 Q53.6281 599.322 56.8109 596.076 Q59.9619 592.798 59.9619 586.973 Q59.9619 583.599 59.1344 580.448 Q58.3069 577.265 56.6518 574.146 L62.1899 574.146 Q63.5267 577.297 64.227 580.607 Q64.9272 583.917 64.9272 587.323 Q64.9272 595.853 59.9619 600.85 Q54.9967 605.815 46.5303 605.815 Q37.7774 605.815 32.6531 601.105 Q27.4968 596.362 27.4968 588.342 Q27.4968 581.148 32.1438 576.979 Q36.7589 572.777 44.7161 572.777 M42.9973 578.634 Q38.1912 578.698 35.3266 581.339 Q32.4621 583.949 32.4621 588.278 Q32.4621 593.18 35.2312 596.14 Q38.0002 599.068 43.0292 599.513 L42.9973 578.634 Z" fill="#000000" fill-rule="nonzero" fill-opacity="1"></path><path clip-path="url(#clip430)" d="M44.7161 511.953 L47.5806 511.953 L47.5806 538.88 Q53.6281 538.498 56.8109 535.252 Q59.9619 531.973 59.9619 526.149 Q59.9619 522.775 59.1344 519.624 Q58.3069 516.441 56.6518 513.322 L62.1899 513.322 Q63.5267 516.473 64.227 519.783 Q64.9272 523.093 64.9272 526.499 Q64.9272 535.029 59.9619 540.026 Q54.9967 544.991 46.5303 544.991 Q37.7774 544.991 32.6531 540.281 Q27.4968 535.538 27.4968 527.517 Q27.4968 520.324 32.1438 516.155 Q36.7589 511.953 44.7161 511.953 M42.9973 517.81 Q38.1912 517.873 35.3266 520.515 Q32.4621 523.125 32.4621 527.454 Q32.4621 532.355 35.2312 535.315 Q38.0002 538.244 43.0292 538.689 L42.9973 517.81 Z" fill="#000000" fill-rule="nonzero" fill-opacity="1"></path><path clip-path="url(#clip430)" d="M33.8307 481.684 Q33.2578 482.671 33.0032 483.849 Q32.7167 484.994 32.7167 486.395 Q32.7167 491.36 35.9632 494.034 Q39.1779 496.675 45.2253 496.675 L64.0042 496.675 L64.0042 502.564 L28.3562 502.564 L28.3562 496.675 L33.8944 496.675 Q30.6479 494.829 29.0883 491.869 Q27.4968 488.909 27.4968 484.676 Q27.4968 484.071 27.5923 483.339 Q27.656 482.607 27.8151 481.716 L33.8307 481.684 Z" fill="#000000" fill-rule="nonzero" fill-opacity="1"></path><path clip-path="url(#clip430)" d="M33.8307 456.03 Q33.2578 457.017 33.0032 458.195 Q32.7167 459.341 32.7167 460.741 Q32.7167 465.706 35.9632 468.38 Q39.1779 471.022 45.2253 471.022 L64.0042 471.022 L64.0042 476.91 L28.3562 476.91 L28.3562 471.022 L33.8944 471.022 Q30.6479 469.176 29.0883 466.216 Q27.4968 463.255 27.4968 459.022 Q27.4968 458.418 27.5923 457.686 Q27.656 456.953 27.8151 456.062 L33.8307 456.03 Z" fill="#000000" fill-rule="nonzero" fill-opacity="1"></path><path clip-path="url(#clip430)" d="M32.4621 437.506 Q32.4621 442.217 36.1542 444.954 Q39.8145 447.691 46.212 447.691 Q52.6095 447.691 56.3017 444.986 Q59.9619 442.249 59.9619 437.506 Q59.9619 432.827 56.2698 430.09 Q52.5777 427.353 46.212 427.353 Q39.8781 427.353 36.186 430.09 Q32.4621 432.827 32.4621 437.506 M27.4968 437.506 Q27.4968 429.867 32.4621 425.507 Q37.4273 421.146 46.212 421.146 Q54.9649 421.146 59.9619 425.507 Q64.9272 429.867 64.9272 437.506 Q64.9272 445.177 59.9619 449.537 Q54.9649 453.866 46.212 453.866 Q37.4273 453.866 32.4621 449.537 Q27.4968 445.177 27.4968 437.506 Z" fill="#000000" fill-rule="nonzero" fill-opacity="1"></path><path clip-path="url(#clip430)" d="M33.8307 390.782 Q33.2578 391.769 33.0032 392.946 Q32.7167 394.092 32.7167 395.493 Q32.7167 400.458 35.9632 403.131 Q39.1779 405.773 45.2253 405.773 L64.0042 405.773 L64.0042 411.661 L28.3562 411.661 L28.3562 405.773 L33.8944 405.773 Q30.6479 403.927 29.0883 400.967 Q27.4968 398.007 27.4968 393.774 Q27.4968 393.169 27.5923 392.437 Q27.656 391.705 27.8151 390.814 L33.8307 390.782 Z" fill="#000000" fill-rule="nonzero" fill-opacity="1"></path><path clip-path="url(#clip430)" d="M587.148 39.075 Q581.639 39.075 578.398 42.8424 Q575.198 46.6097 575.198 53.1722 Q575.198 59.6941 578.398 63.502 Q581.639 67.2693 587.148 67.2693 Q592.657 67.2693 595.858 63.502 Q599.098 59.6941 599.098 53.1722 Q599.098 46.6097 595.858 42.8424 Q592.657 39.075 587.148 39.075 M603.392 13.4328 L603.392 20.8865 Q600.314 19.4281 597.154 18.6585 Q594.035 17.8888 590.956 17.8888 Q582.854 17.8888 578.56 23.3575 Q574.307 28.8262 573.699 39.8852 Q576.089 36.3609 579.695 34.4975 Q583.3 32.5936 587.634 32.5936 Q596.749 32.5936 602.015 38.1433 Q607.322 43.6525 607.322 53.1722 Q607.322 62.4892 601.812 68.12 Q596.303 73.7508 587.148 73.7508 Q576.656 73.7508 571.107 65.73 Q565.557 57.6687 565.557 42.3968 Q565.557 28.0566 572.362 19.5497 Q579.168 11.0023 590.632 11.0023 Q593.711 11.0023 596.83 11.6099 Q599.99 12.2175 603.392 13.4328 Z" fill="#000000" fill-rule="nonzero" fill-opacity="1"></path><path clip-path="url(#clip430)" d="M621.5 12.096 L653.624 12.096 L653.624 18.9825 L628.994 18.9825 L628.994 33.8088 Q630.776 33.2012 632.559 32.9176 Q634.341 32.5936 636.124 32.5936 Q646.251 32.5936 652.165 38.1433 Q658.079 43.6931 658.079 53.1722 Q658.079 62.9348 652.003 68.3631 Q645.927 73.7508 634.868 73.7508 Q631.06 73.7508 627.09 73.1026 Q623.161 72.4545 618.948 71.1582 L618.948 62.9348 Q622.594 64.9198 626.482 65.892 Q630.371 66.8642 634.706 66.8642 Q641.714 66.8642 645.805 63.1779 Q649.897 59.4916 649.897 53.1722 Q649.897 46.8528 645.805 43.1664 Q641.714 39.4801 634.706 39.4801 Q631.425 39.4801 628.143 40.2093 Q624.903 40.9384 621.5 42.4778 L621.5 12.096 Z" fill="#000000" fill-rule="nonzero" fill-opacity="1"></path><path clip-path="url(#clip430)" d="M694.173 27.2059 L702.072 27.2059 L716.25 65.2844 L730.429 27.2059 L738.328 27.2059 L721.314 72.576 L711.187 72.576 L694.173 27.2059 Z" fill="#000000" fill-rule="nonzero" fill-opacity="1"></path><path clip-path="url(#clip430)" d="M769.236 49.7694 Q760.203 49.7694 756.719 51.8354 Q753.235 53.9013 753.235 58.8839 Q753.235 62.8538 755.828 65.2034 Q758.461 67.5124 762.957 67.5124 Q769.155 67.5124 772.882 63.1374 Q776.649 58.7219 776.649 51.4303 L776.649 49.7694 L769.236 49.7694 M784.103 46.6907 L784.103 72.576 L776.649 72.576 L776.649 65.6895 Q774.097 69.8214 770.29 71.8063 Q766.482 73.7508 760.972 73.7508 Q754.005 73.7508 749.873 69.8619 Q745.782 65.9325 745.782 59.3701 Q745.782 51.7138 750.886 47.825 Q756.03 43.9361 766.198 43.9361 L776.649 43.9361 L776.649 43.2069 Q776.649 38.0623 773.247 35.2672 Q769.884 32.4315 763.768 32.4315 Q759.879 32.4315 756.192 33.3632 Q752.506 34.295 749.103 36.1584 L749.103 29.2718 Q753.195 27.692 757.043 26.9223 Q760.891 26.1121 764.537 26.1121 Q774.381 26.1121 779.242 31.2163 Q784.103 36.3204 784.103 46.6907 Z" fill="#000000" fill-rule="nonzero" fill-opacity="1"></path><path clip-path="url(#clip430)" d="M825.746 34.1734 Q824.491 33.4443 822.992 33.1202 Q821.533 32.7556 819.751 32.7556 Q813.432 32.7556 810.029 36.8875 Q806.667 40.9789 806.667 48.6757 L806.667 72.576 L799.172 72.576 L799.172 27.2059 L806.667 27.2059 L806.667 34.2544 Q809.016 30.1225 812.784 28.1376 Q816.551 26.1121 821.939 26.1121 Q822.708 26.1121 823.64 26.2337 Q824.572 26.3147 825.706 26.5172 L825.746 34.1734 Z" fill="#000000" fill-rule="nonzero" fill-opacity="1"></path><path clip-path="url(#clip430)" d="M833.565 27.2059 L841.018 27.2059 L841.018 72.576 L833.565 72.576 L833.565 27.2059 M833.565 9.54393 L841.018 9.54393 L841.018 18.9825 L833.565 18.9825 L833.565 9.54393 Z" fill="#000000" fill-rule="nonzero" fill-opacity="1"></path><path clip-path="url(#clip430)" d="M877.233 49.7694 Q868.2 49.7694 864.716 51.8354 Q861.232 53.9013 861.232 58.8839 Q861.232 62.8538 863.825 65.2034 Q866.458 67.5124 870.955 67.5124 Q877.152 67.5124 880.879 63.1374 Q884.647 58.7219 884.647 51.4303 L884.647 49.7694 L877.233 49.7694 M892.1 46.6907 L892.1 72.576 L884.647 72.576 L884.647 65.6895 Q882.095 69.8214 878.287 71.8063 Q874.479 73.7508 868.97 73.7508 Q862.002 73.7508 857.87 69.8619 Q853.779 65.9325 853.779 59.3701 Q853.779 51.7138 858.883 47.825 Q864.027 43.9361 874.195 43.9361 L884.647 43.9361 L884.647 43.2069 Q884.647 38.0623 881.244 35.2672 Q877.882 32.4315 871.765 32.4315 Q867.876 32.4315 864.19 33.3632 Q860.503 34.295 857.1 36.1584 L857.1 29.2718 Q861.192 27.692 865.04 26.9223 Q868.889 26.1121 872.534 26.1121 Q882.378 26.1121 887.239 31.2163 Q892.1 36.3204 892.1 46.6907 Z" fill="#000000" fill-rule="nonzero" fill-opacity="1"></path><path clip-path="url(#clip430)" d="M940.022 49.9314 Q940.022 41.7081 936.62 37.0496 Q933.257 32.3505 927.343 32.3505 Q921.429 32.3505 918.026 37.0496 Q914.664 41.7081 914.664 49.9314 Q914.664 58.1548 918.026 62.8538 Q921.429 67.5124 927.343 67.5124 Q933.257 67.5124 936.62 62.8538 Q940.022 58.1548 940.022 49.9314 M914.664 34.0924 Q917.013 30.0415 920.578 28.0971 Q924.183 26.1121 929.166 26.1121 Q937.43 26.1121 942.575 32.6746 Q947.76 39.2371 947.76 49.9314 Q947.76 60.6258 942.575 67.1883 Q937.43 73.7508 929.166 73.7508 Q924.183 73.7508 920.578 71.8063 Q917.013 69.8214 914.664 65.7705 L914.664 72.576 L907.17 72.576 L907.17 9.54393 L914.664 9.54393 L914.664 34.0924 Z" fill="#000000" fill-rule="nonzero" fill-opacity="1"></path><path clip-path="url(#clip430)" d="M960.115 9.54393 L967.569 9.54393 L967.569 72.576 L960.115 72.576 L960.115 9.54393 Z" fill="#000000" fill-rule="nonzero" fill-opacity="1"></path><path clip-path="url(#clip430)" d="M1021.97 48.0275 L1021.97 51.6733 L987.702 51.6733 Q988.188 59.3701 992.32 63.421 Q996.492 67.4314 1003.91 67.4314 Q1008.2 67.4314 1012.21 66.3781 Q1016.26 65.3249 1020.23 63.2184 L1020.23 70.267 Q1016.22 71.9684 1012.01 72.8596 Q1007.79 73.7508 1003.46 73.7508 Q992.603 73.7508 986.243 67.4314 Q979.924 61.1119 979.924 50.3365 Q979.924 39.1965 985.919 32.6746 Q991.955 26.1121 1002.16 26.1121 Q1011.32 26.1121 1016.63 32.0264 Q1021.97 37.9003 1021.97 48.0275 M1014.52 45.84 Q1014.44 39.7232 1011.08 36.0774 Q1007.75 32.4315 1002.24 32.4315 Q996.006 32.4315 992.239 35.9558 Q988.512 39.4801 987.945 45.8805 L1014.52 45.84 Z" fill="#000000" fill-rule="nonzero" fill-opacity="1"></path><path clip-path="url(#clip430)" d="M1063.13 28.5427 L1063.13 35.5912 Q1059.97 33.9709 1056.57 33.1607 Q1053.16 32.3505 1049.52 32.3505 Q1043.97 32.3505 1041.17 34.0519 Q1038.42 35.7533 1038.42 39.156 Q1038.42 41.7486 1040.4 43.2475 Q1042.39 44.7058 1048.38 46.0426 L1050.94 46.6097 Q1058.88 48.3111 1062.2 51.4303 Q1065.56 54.509 1065.56 60.0587 Q1065.56 66.3781 1060.54 70.0644 Q1055.55 73.7508 1046.8 73.7508 Q1043.16 73.7508 1039.19 73.0216 Q1035.26 72.3329 1030.88 70.9151 L1030.88 63.2184 Q1035.02 65.3654 1039.03 66.4591 Q1043.04 67.5124 1046.97 67.5124 Q1052.23 67.5124 1055.07 65.73 Q1057.9 63.9071 1057.9 60.6258 Q1057.9 57.5877 1055.84 55.9673 Q1053.81 54.3469 1046.89 52.8481 L1044.29 52.2405 Q1037.37 50.7821 1034.29 47.7845 Q1031.21 44.7463 1031.21 39.4801 Q1031.21 33.0797 1035.75 29.5959 Q1040.28 26.1121 1048.63 26.1121 Q1052.76 26.1121 1056.4 26.7198 Q1060.05 27.3274 1063.13 28.5427 Z" fill="#000000" fill-rule="nonzero" fill-opacity="1"></path><path clip-path="url(#clip430)" d="M1113.4 9.17935 L1113.4 92.1419 L1106.51 92.1419 L1106.51 9.17935 L1113.4 9.17935 Z" fill="#000000" fill-rule="nonzero" fill-opacity="1"></path><path clip-path="url(#clip430)" d="M1183.97 39.9662 Q1189.84 41.222 1193.12 45.1919 Q1196.44 49.1618 1196.44 54.9951 Q1196.44 63.9476 1190.29 68.8492 Q1184.13 73.7508 1172.79 73.7508 Q1168.98 73.7508 1164.93 72.9811 Q1160.92 72.2519 1156.62 70.7531 L1156.62 62.8538 Q1160.03 64.8388 1164.08 65.8515 Q1168.13 66.8642 1172.54 66.8642 Q1180.24 66.8642 1184.25 63.826 Q1188.3 60.7879 1188.3 54.9951 Q1188.3 49.6479 1184.54 46.6502 Q1180.81 43.612 1174.12 43.612 L1167.08 43.612 L1167.08 36.8875 L1174.45 36.8875 Q1180.48 36.8875 1183.68 34.4975 Q1186.88 32.067 1186.88 27.5299 Q1186.88 22.8714 1183.56 20.4004 Q1180.28 17.8888 1174.12 17.8888 Q1170.76 17.8888 1166.91 18.618 Q1163.07 19.3471 1158.45 20.8865 L1158.45 13.5948 Q1163.11 12.2985 1167.16 11.6504 Q1171.25 11.0023 1174.85 11.0023 Q1184.17 11.0023 1189.6 15.2557 Q1195.03 19.4686 1195.03 26.6793 Q1195.03 31.7024 1192.15 35.1862 Q1189.27 38.6294 1183.97 39.9662 Z" fill="#000000" fill-rule="nonzero" fill-opacity="1"></path><path clip-path="url(#clip430)" d="M1254.86 32.4315 Q1248.86 32.4315 1245.38 37.1306 Q1241.9 41.7891 1241.9 49.9314 Q1241.9 58.0738 1245.34 62.7728 Q1248.82 67.4314 1254.86 67.4314 Q1260.81 67.4314 1264.3 62.7323 Q1267.78 58.0333 1267.78 49.9314 Q1267.78 41.8701 1264.3 37.1711 Q1260.81 32.4315 1254.86 32.4315 M1254.86 26.1121 Q1264.58 26.1121 1270.13 32.4315 Q1275.68 38.7509 1275.68 49.9314 Q1275.68 61.0714 1270.13 67.4314 Q1264.58 73.7508 1254.86 73.7508 Q1245.1 73.7508 1239.55 67.4314 Q1234.04 61.0714 1234.04 49.9314 Q1234.04 38.7509 1239.55 32.4315 Q1245.1 26.1121 1254.86 26.1121 Z" fill="#000000" fill-rule="nonzero" fill-opacity="1"></path><path clip-path="url(#clip430)" d="M1320.6 49.9314 Q1320.6 41.7081 1317.2 37.0496 Q1313.84 32.3505 1307.93 32.3505 Q1302.01 32.3505 1298.61 37.0496 Q1295.25 41.7081 1295.25 49.9314 Q1295.25 58.1548 1298.61 62.8538 Q1302.01 67.5124 1307.93 67.5124 Q1313.84 67.5124 1317.2 62.8538 Q1320.6 58.1548 1320.6 49.9314 M1295.25 34.0924 Q1297.6 30.0415 1301.16 28.0971 Q1304.77 26.1121 1309.75 26.1121 Q1318.01 26.1121 1323.16 32.6746 Q1328.34 39.2371 1328.34 49.9314 Q1328.34 60.6258 1323.16 67.1883 Q1318.01 73.7508 1309.75 73.7508 Q1304.77 73.7508 1301.16 71.8063 Q1297.6 69.8214 1295.25 65.7705 L1295.25 72.576 L1287.75 72.576 L1287.75 9.54393 L1295.25 9.54393 L1295.25 34.0924 Z" fill="#000000" fill-rule="nonzero" fill-opacity="1"></path><path clip-path="url(#clip430)" d="M1340.7 27.2059 L1348.15 27.2059 L1348.15 73.3862 Q1348.15 82.0551 1344.83 85.944 Q1341.55 89.8329 1334.22 89.8329 L1331.38 89.8329 L1331.38 83.5134 L1333.37 83.5134 Q1337.62 83.5134 1339.16 81.5285 Q1340.7 79.5841 1340.7 73.3862 L1340.7 27.2059 M1340.7 9.54393 L1348.15 9.54393 L1348.15 18.9825 L1340.7 18.9825 L1340.7 9.54393 Z" fill="#000000" fill-rule="nonzero" fill-opacity="1"></path><path clip-path="url(#clip430)" d="M1402.55 48.0275 L1402.55 51.6733 L1368.28 51.6733 Q1368.77 59.3701 1372.9 63.421 Q1377.07 67.4314 1384.49 67.4314 Q1388.78 67.4314 1392.79 66.3781 Q1396.84 65.3249 1400.81 63.2184 L1400.81 70.267 Q1396.8 71.9684 1392.59 72.8596 Q1388.38 73.7508 1384.04 73.7508 Q1373.19 73.7508 1366.83 67.4314 Q1360.51 61.1119 1360.51 50.3365 Q1360.51 39.1965 1366.5 32.6746 Q1372.54 26.1121 1382.75 26.1121 Q1391.9 26.1121 1397.21 32.0264 Q1402.55 37.9003 1402.55 48.0275 M1395.1 45.84 Q1395.02 39.7232 1391.66 36.0774 Q1388.34 32.4315 1382.83 32.4315 Q1376.59 32.4315 1372.82 35.9558 Q1369.09 39.4801 1368.53 45.8805 L1395.1 45.84 Z" fill="#000000" fill-rule="nonzero" fill-opacity="1"></path><path clip-path="url(#clip430)" d="M1447.44 28.9478 L1447.44 35.9153 Q1444.28 34.1734 1441.08 33.3227 Q1437.92 32.4315 1434.68 32.4315 Q1427.43 32.4315 1423.42 37.0496 Q1419.41 41.6271 1419.41 49.9314 Q1419.41 58.2358 1423.42 62.8538 Q1427.43 67.4314 1434.68 67.4314 Q1437.92 67.4314 1441.08 66.5807 Q1444.28 65.6895 1447.44 63.9476 L1447.44 70.8341 Q1444.32 72.2924 1440.96 73.0216 Q1437.64 73.7508 1433.87 73.7508 Q1423.62 73.7508 1417.58 67.3098 Q1411.55 60.8689 1411.55 49.9314 Q1411.55 38.832 1417.62 32.472 Q1423.74 26.1121 1434.35 26.1121 Q1437.8 26.1121 1441.08 26.8413 Q1444.36 27.5299 1447.44 28.9478 Z" fill="#000000" fill-rule="nonzero" fill-opacity="1"></path><path clip-path="url(#clip430)" d="M1467.77 14.324 L1467.77 27.2059 L1483.13 27.2059 L1483.13 32.9987 L1467.77 32.9987 L1467.77 57.6282 Q1467.77 63.1779 1469.27 64.7578 Q1470.81 66.3376 1475.47 66.3376 L1483.13 66.3376 L1483.13 72.576 L1475.47 72.576 Q1466.84 72.576 1463.56 69.3758 Q1460.28 66.1351 1460.28 57.6282 L1460.28 32.9987 L1454.81 32.9987 L1454.81 27.2059 L1460.28 27.2059 L1460.28 14.324 L1467.77 14.324 Z" fill="#000000" fill-rule="nonzero" fill-opacity="1"></path><path clip-path="url(#clip430)" d="M1492.93 27.2059 L1500.38 27.2059 L1500.38 72.576 L1492.93 72.576 L1492.93 27.2059 M1492.93 9.54393 L1500.38 9.54393 L1500.38 18.9825 L1492.93 18.9825 L1492.93 9.54393 Z" fill="#000000" fill-rule="nonzero" fill-opacity="1"></path><path clip-path="url(#clip430)" d="M1510.63 27.2059 L1518.53 27.2059 L1532.71 65.2844 L1546.89 27.2059 L1554.79 27.2059 L1537.77 72.576 L1527.65 72.576 L1510.63 27.2059 Z" fill="#000000" fill-rule="nonzero" fill-opacity="1"></path><path clip-path="url(#clip430)" d="M1603.88 48.0275 L1603.88 51.6733 L1569.61 51.6733 Q1570.1 59.3701 1574.23 63.421 Q1578.4 67.4314 1585.82 67.4314 Q1590.11 67.4314 1594.12 66.3781 Q1598.17 65.3249 1602.14 63.2184 L1602.14 70.267 Q1598.13 71.9684 1593.92 72.8596 Q1589.71 73.7508 1585.37 73.7508 Q1574.52 73.7508 1568.16 67.4314 Q1561.84 61.1119 1561.84 50.3365 Q1561.84 39.1965 1567.83 32.6746 Q1573.87 26.1121 1584.08 26.1121 Q1593.23 26.1121 1598.54 32.0264 Q1603.88 37.9003 1603.88 48.0275 M1596.43 45.84 Q1596.35 39.7232 1592.99 36.0774 Q1589.67 32.4315 1584.16 32.4315 Q1577.92 32.4315 1574.15 35.9558 Q1570.42 39.4801 1569.86 45.8805 L1596.43 45.84 Z" fill="#000000" fill-rule="nonzero" fill-opacity="1"></path><path clip-path="url(#clip430)" d="M1645.04 28.5427 L1645.04 35.5912 Q1641.88 33.9709 1638.48 33.1607 Q1635.08 32.3505 1631.43 32.3505 Q1625.88 32.3505 1623.09 34.0519 Q1620.33 35.7533 1620.33 39.156 Q1620.33 41.7486 1622.32 43.2475 Q1624.3 44.7058 1630.3 46.0426 L1632.85 46.6097 Q1640.79 48.3111 1644.11 51.4303 Q1647.47 54.509 1647.47 60.0587 Q1647.47 66.3781 1642.45 70.0644 Q1637.47 73.7508 1628.72 73.7508 Q1625.07 73.7508 1621.1 73.0216 Q1617.17 72.3329 1612.8 70.9151 L1612.8 63.2184 Q1616.93 65.3654 1620.94 66.4591 Q1624.95 67.5124 1628.88 67.5124 Q1634.14 67.5124 1636.98 65.73 Q1639.82 63.9071 1639.82 60.6258 Q1639.82 57.5877 1637.75 55.9673 Q1635.72 54.3469 1628.8 52.8481 L1626.21 52.2405 Q1619.28 50.7821 1616.2 47.7845 Q1613.12 44.7463 1613.12 39.4801 Q1613.12 33.0797 1617.66 29.5959 Q1622.19 26.1121 1630.54 26.1121 Q1634.67 26.1121 1638.32 26.7198 Q1641.96 27.3274 1645.04 28.5427 Z" fill="#000000" fill-rule="nonzero" fill-opacity="1"></path><path clip-path="url(#clip430)" d="M1695.31 9.17935 L1695.31 92.1419 L1688.43 92.1419 L1688.43 9.17935 L1695.31 9.17935 Z" fill="#000000" fill-rule="nonzero" fill-opacity="1"></path><path clip-path="url(#clip430)" d="M1748.14 65.6895 L1776.7 65.6895 L1776.7 72.576 L1738.29 72.576 L1738.29 65.6895 Q1742.95 60.8689 1750.97 52.7671 Q1759.03 44.6248 1761.1 42.2752 Q1765.03 37.8598 1766.57 34.8216 Q1768.15 31.7429 1768.15 28.7857 Q1768.15 23.9651 1764.75 20.927 Q1761.38 17.8888 1755.96 17.8888 Q1752.11 17.8888 1747.81 19.2256 Q1743.56 20.5624 1738.7 23.2765 L1738.7 15.0127 Q1743.64 13.0277 1747.93 12.015 Q1752.23 11.0023 1755.79 11.0023 Q1765.19 11.0023 1770.78 15.7013 Q1776.37 20.4004 1776.37 28.2591 Q1776.37 31.9859 1774.95 35.3482 Q1773.58 38.6699 1769.89 43.2069 Q1768.88 44.3817 1763.45 50.0125 Q1758.02 55.6027 1748.14 65.6895 Z" fill="#000000" fill-rule="nonzero" fill-opacity="1"></path><path clip-path="url(#clip430)" d="M1811.37 17.4837 Q1805.05 17.4837 1801.85 23.7221 Q1798.69 29.92 1798.69 42.3968 Q1798.69 54.833 1801.85 61.0714 Q1805.05 67.2693 1811.37 67.2693 Q1817.73 67.2693 1820.89 61.0714 Q1824.09 54.833 1824.09 42.3968 Q1824.09 29.92 1820.89 23.7221 Q1817.73 17.4837 1811.37 17.4837 M1811.37 11.0023 Q1821.54 11.0023 1826.89 19.0636 Q1832.27 27.0843 1832.27 42.3968 Q1832.27 57.6687 1826.89 65.73 Q1821.54 73.7508 1811.37 73.7508 Q1801.2 73.7508 1795.82 65.73 Q1790.47 57.6687 1790.47 42.3968 Q1790.47 27.0843 1795.82 19.0636 Q1801.2 11.0023 1811.37 11.0023 Z" fill="#000000" fill-rule="nonzero" fill-opacity="1"></path><path clip-path="url(#clip430)" d="M1879.35 14.324 L1879.35 27.2059 L1894.7 27.2059 L1894.7 32.9987 L1879.35 32.9987 L1879.35 57.6282 Q1879.35 63.1779 1880.84 64.7578 Q1882.38 66.3376 1887.04 66.3376 L1894.7 66.3376 L1894.7 72.576 L1887.04 72.576 Q1878.41 72.576 1875.13 69.3758 Q1871.85 66.1351 1871.85 57.6282 L1871.85 32.9987 L1866.38 32.9987 L1866.38 27.2059 L1871.85 27.2059 L1871.85 14.324 L1879.35 14.324 Z" fill="#000000" fill-rule="nonzero" fill-opacity="1"></path><path clip-path="url(#clip430)" d="M1930.79 34.1734 Q1929.54 33.4443 1928.04 33.1202 Q1926.58 32.7556 1924.8 32.7556 Q1918.48 32.7556 1915.08 36.8875 Q1911.71 40.9789 1911.71 48.6757 L1911.71 72.576 L1904.22 72.576 L1904.22 27.2059 L1911.71 27.2059 L1911.71 34.2544 Q1914.06 30.1225 1917.83 28.1376 Q1921.6 26.1121 1926.98 26.1121 Q1927.75 26.1121 1928.69 26.2337 Q1929.62 26.3147 1930.75 26.5172 L1930.79 34.1734 Z" fill="#000000" fill-rule="nonzero" fill-opacity="1"></path><path clip-path="url(#clip430)" d="M1938.61 27.2059 L1946.06 27.2059 L1946.06 72.576 L1938.61 72.576 L1938.61 27.2059 M1938.61 9.54393 L1946.06 9.54393 L1946.06 18.9825 L1938.61 18.9825 L1938.61 9.54393 Z" fill="#000000" fill-rule="nonzero" fill-opacity="1"></path><path clip-path="url(#clip430)" d="M1982.28 49.7694 Q1973.25 49.7694 1969.76 51.8354 Q1966.28 53.9013 1966.28 58.8839 Q1966.28 62.8538 1968.87 65.2034 Q1971.5 67.5124 1976 67.5124 Q1982.2 67.5124 1985.93 63.1374 Q1989.69 58.7219 1989.69 51.4303 L1989.69 49.7694 L1982.28 49.7694 M1997.15 46.6907 L1997.15 72.576 L1989.69 72.576 L1989.69 65.6895 Q1987.14 69.8214 1983.33 71.8063 Q1979.52 73.7508 1974.02 73.7508 Q1967.05 73.7508 1962.92 69.8619 Q1958.82 65.9325 1958.82 59.3701 Q1958.82 51.7138 1963.93 47.825 Q1969.07 43.9361 1979.24 43.9361 L1989.69 43.9361 L1989.69 43.2069 Q1989.69 38.0623 1986.29 35.2672 Q1982.93 32.4315 1976.81 32.4315 Q1972.92 32.4315 1969.24 33.3632 Q1965.55 34.295 1962.15 36.1584 L1962.15 29.2718 Q1966.24 27.692 1970.09 26.9223 Q1973.93 26.1121 1977.58 26.1121 Q1987.42 26.1121 1992.29 31.2163 Q1997.15 36.3204 1997.15 46.6907 Z" fill="#000000" fill-rule="nonzero" fill-opacity="1"></path><path clip-path="url(#clip430)" d="M2012.5 9.54393 L2019.95 9.54393 L2019.95 72.576 L2012.5 72.576 L2012.5 9.54393 Z" fill="#000000" fill-rule="nonzero" fill-opacity="1"></path><path clip-path="url(#clip430)" d="M2064.47 28.5427 L2064.47 35.5912 Q2061.31 33.9709 2057.91 33.1607 Q2054.51 32.3505 2050.86 32.3505 Q2045.31 32.3505 2042.52 34.0519 Q2039.76 35.7533 2039.76 39.156 Q2039.76 41.7486 2041.75 43.2475 Q2043.73 44.7058 2049.73 46.0426 L2052.28 46.6097 Q2060.22 48.3111 2063.54 51.4303 Q2066.9 54.509 2066.9 60.0587 Q2066.9 66.3781 2061.88 70.0644 Q2056.9 73.7508 2048.15 73.7508 Q2044.5 73.7508 2040.53 73.0216 Q2036.6 72.3329 2032.23 70.9151 L2032.23 63.2184 Q2036.36 65.3654 2040.37 66.4591 Q2044.38 67.5124 2048.31 67.5124 Q2053.58 67.5124 2056.41 65.73 Q2059.25 63.9071 2059.25 60.6258 Q2059.25 57.5877 2057.18 55.9673 Q2055.16 54.3469 2048.23 52.8481 L2045.64 52.2405 Q2038.71 50.7821 2035.63 47.7845 Q2032.55 44.7463 2032.55 39.4801 Q2032.55 33.0797 2037.09 29.5959 Q2041.63 26.1121 2049.97 26.1121 Q2054.1 26.1121 2057.75 26.7198 Q2061.39 27.3274 2064.47 28.5427 Z" fill="#000000" fill-rule="nonzero" fill-opacity="1"></path><polyline clip-path="url(#clip432)" style="stroke:#009af9; stroke-linecap:round; stroke-linejoin:round; stroke-width:8; stroke-opacity:1; fill:none" points="338.375,158.642 417.394,843.906 516.167,1107.63 614.94,1148.66 713.713,1267.98 1306.35,1318.03 2294.08,1330.98 "></polyline>
<circle clip-path="url(#clip432)" cx="338.375" cy="158.642" r="14.4" fill="#009af9" fill-rule="evenodd" fill-opacity="1" stroke="#000000" stroke-opacity="1" stroke-width="3.2"></circle>
<circle clip-path="url(#clip432)" cx="417.394" cy="843.906" r="14.4" fill="#009af9" fill-rule="evenodd" fill-opacity="1" stroke="#000000" stroke-opacity="1" stroke-width="3.2"></circle>
<circle clip-path="url(#clip432)" cx="516.167" cy="1107.63" r="14.4" fill="#009af9" fill-rule="evenodd" fill-opacity="1" stroke="#000000" stroke-opacity="1" stroke-width="3.2"></circle>
<circle clip-path="url(#clip432)" cx="614.94" cy="1148.66" r="14.4" fill="#009af9" fill-rule="evenodd" fill-opacity="1" stroke="#000000" stroke-opacity="1" stroke-width="3.2"></circle>
<circle clip-path="url(#clip432)" cx="713.713" cy="1267.98" r="14.4" fill="#009af9" fill-rule="evenodd" fill-opacity="1" stroke="#000000" stroke-opacity="1" stroke-width="3.2"></circle>
<circle clip-path="url(#clip432)" cx="1306.35" cy="1318.03" r="14.4" fill="#009af9" fill-rule="evenodd" fill-opacity="1" stroke="#000000" stroke-opacity="1" stroke-width="3.2"></circle>
<circle clip-path="url(#clip432)" cx="2294.08" cy="1330.98" r="14.4" fill="#009af9" fill-rule="evenodd" fill-opacity="1" stroke="#000000" stroke-opacity="1" stroke-width="3.2"></circle>
</svg>