<svg xmlns="http://www.w3.org/2000/svg" xmlns:xlink="http://www.w3.org/1999/xlink" width="600" height="400" viewBox="0 0 2400 1600">
<defs>
  <clipPath id="clip020">
    <rect x="0" y="0" width="2400" height="1600"></rect>
  </clipPath>
</defs>
<path clip-path="url(#clip020)" d="M0 1600 L2400 1600 L2400 8.88178e-14 L0 8.88178e-14  Z" fill="#ffffff" fill-rule="evenodd" fill-opacity="1"></path>
<defs>
  <clipPath id="clip021">
    <rect x="480" y="0" width="1681" height="1600"></rect>
  </clipPath>
</defs>
<path clip-path="url(#clip020)" d="M250.028 1366.15 L2352.76 1366.15 L2352.76 123.472 L250.028 123.472  Z" fill="#ffffff" fill-rule="evenodd" fill-opacity="1"></path>
<defs>
  <clipPath id="clip022">
    <rect x="250" y="123" width="2104" height="1244"></rect>
  </clipPath>
</defs>
<polyline clip-path="url(#clip022)" style="stroke:#000000; stroke-linecap:round; stroke-linejoin:round; stroke-width:2; stroke-opacity:0.1; fill:none" points="309.539,1366.15 309.539,123.472 "></polyline>
<polyline clip-path="url(#clip022)" style="stroke:#000000; stroke-linecap:round; stroke-linejoin:round; stroke-width:2; stroke-opacity:0.1; fill:none" points="389.689,1366.15 389.689,123.472 "></polyline>
<polyline clip-path="url(#clip022)" style="stroke:#000000; stroke-linecap:round; stroke-linejoin:round; stroke-width:2; stroke-opacity:0.1; fill:none" points="489.876,1366.15 489.876,123.472 "></polyline>
<polyline clip-path="url(#clip022)" style="stroke:#000000; stroke-linecap:round; stroke-linejoin:round; stroke-width:2; stroke-opacity:0.1; fill:none" points="590.063,1366.15 590.063,123.472 "></polyline>
<polyline clip-path="url(#clip022)" style="stroke:#000000; stroke-linecap:round; stroke-linejoin:round; stroke-width:2; stroke-opacity:0.1; fill:none" points="690.25,1366.15 690.25,123.472 "></polyline>
<polyline clip-path="url(#clip022)" style="stroke:#000000; stroke-linecap:round; stroke-linejoin:round; stroke-width:2; stroke-opacity:0.1; fill:none" points="1291.37,1366.15 1291.37,123.472 "></polyline>
<polyline clip-path="url(#clip022)" style="stroke:#000000; stroke-linecap:round; stroke-linejoin:round; stroke-width:2; stroke-opacity:0.1; fill:none" points="2293.24,1366.15 2293.24,123.472 "></polyline>
<polyline clip-path="url(#clip022)" style="stroke:#000000; stroke-linecap:round; stroke-linejoin:round; stroke-width:2; stroke-opacity:0.1; fill:none" points="250.028,1221.51 2352.76,1221.51 "></polyline>
<polyline clip-path="url(#clip022)" style="stroke:#000000; stroke-linecap:round; stroke-linejoin:round; stroke-width:2; stroke-opacity:0.1; fill:none" points="250.028,973.029 2352.76,973.029 "></polyline>
<polyline clip-path="url(#clip022)" style="stroke:#000000; stroke-linecap:round; stroke-linejoin:round; stroke-width:2; stroke-opacity:0.1; fill:none" points="250.028,724.55 2352.76,724.55 "></polyline>
<polyline clip-path="url(#clip022)" style="stroke:#000000; stroke-linecap:round; stroke-linejoin:round; stroke-width:2; stroke-opacity:0.1; fill:none" points="250.028,476.071 2352.76,476.071 "></polyline>
<polyline clip-path="url(#clip022)" style="stroke:#000000; stroke-linecap:round; stroke-linejoin:round; stroke-width:2; stroke-opacity:0.1; fill:none" points="250.028,227.592 2352.76,227.592 "></polyline>
<polyline clip-path="url(#clip020)" style="stroke:#000000; stroke-linecap:round; stroke-linejoin:round; stroke-width:4; stroke-opacity:1; fill:none" points="250.028,1366.15 2352.76,1366.15 "></polyline>
<polyline clip-path="url(#clip020)" style="stroke:#000000; stroke-linecap:round; stroke-linejoin:round; stroke-width:4; stroke-opacity:1; fill:none" points="309.539,1366.15 309.539,1347.25 "></polyline>
<polyline clip-path="url(#clip020)" style="stroke:#000000; stroke-linecap:round; stroke-linejoin:round; stroke-width:4; stroke-opacity:1; fill:none" points="389.689,1366.15 389.689,1347.25 "></polyline>
<polyline clip-path="url(#clip020)" style="stroke:#000000; stroke-linecap:round; stroke-linejoin:round; stroke-width:4; stroke-opacity:1; fill:none" points="489.876,1366.15 489.876,1347.25 "></polyline>
<polyline clip-path="url(#clip020)" style="stroke:#000000; stroke-linecap:round; stroke-linejoin:round; stroke-width:4; stroke-opacity:1; fill:none" points="590.063,1366.15 590.063,1347.25 "></polyline>
<polyline clip-path="url(#clip020)" style="stroke:#000000; stroke-linecap:round; stroke-linejoin:round; stroke-width:4; stroke-opacity:1; fill:none" points="690.25,1366.15 690.25,1347.25 "></polyline>
<polyline clip-path="url(#clip020)" style="stroke:#000000; stroke-linecap:round; stroke-linejoin:round; stroke-width:4; stroke-opacity:1; fill:none" points="1291.37,1366.15 1291.37,1347.25 "></polyline>
<polyline clip-path="url(#clip020)" style="stroke:#000000; stroke-linecap:round; stroke-linejoin:round; stroke-width:4; stroke-opacity:1; fill:none" points="2293.24,1366.15 2293.24,1347.25 "></polyline>
<path clip-path="url(#clip020)" d="M261.376 1470.71 L266.778 1465.31 L248.134 1446.67 L243.437 1453.72 L240.425 1450.71 L245.09 1443.69 L248.396 1440.38 L270.051 1462.04 L275.453 1456.64 L278.235 1459.42 L264.159 1473.5 L261.376 1470.71 Z" fill="#000000" fill-rule="nonzero" fill-opacity="1"></path><path clip-path="url(#clip020)" d="M269.724 1423.41 Q267.17 1425.96 268.398 1429.78 Q269.626 1433.56 274.667 1438.6 Q279.692 1443.62 283.489 1444.87 Q287.287 1446.08 289.84 1443.53 Q292.41 1440.96 291.182 1437.17 Q289.955 1433.36 284.93 1428.34 Q279.888 1423.29 276.091 1422.08 Q272.294 1420.84 269.724 1423.41 M267.105 1420.79 Q271.213 1416.68 276.631 1417.78 Q282.049 1418.84 288.236 1425.03 Q294.407 1431.2 295.487 1436.63 Q296.568 1442.04 292.459 1446.14 Q288.351 1450.25 282.933 1449.19 Q277.515 1448.09 271.344 1441.92 Q265.157 1435.73 264.077 1430.33 Q262.997 1424.9 267.105 1420.79 Z" fill="#000000" fill-rule="nonzero" fill-opacity="1"></path><path clip-path="url(#clip020)" d="M291.052 1402.08 Q288.498 1404.64 289.726 1408.45 Q290.953 1412.23 295.995 1417.27 Q301.02 1422.3 304.817 1423.54 Q308.615 1424.75 311.168 1422.2 Q313.738 1419.63 312.51 1415.85 Q311.283 1412.03 306.257 1407.01 Q301.216 1401.97 297.419 1400.76 Q293.621 1399.51 291.052 1402.08 M288.433 1399.46 Q292.541 1395.35 297.959 1396.45 Q303.377 1397.51 309.564 1403.7 Q315.735 1409.87 316.815 1415.31 Q317.895 1420.71 313.787 1424.82 Q309.678 1428.93 304.261 1427.86 Q298.843 1426.76 292.672 1420.59 Q286.485 1414.41 285.405 1409.01 Q284.324 1403.57 288.433 1399.46 Z" fill="#000000" fill-rule="nonzero" fill-opacity="1"></path><path clip-path="url(#clip020)" d="M319.331 1449.6 L332.311 1436.62 L335.093 1439.4 L325.141 1449.35 L331.132 1455.34 Q331.607 1454.38 332.212 1453.54 Q332.802 1452.69 333.522 1451.97 Q337.614 1447.88 342.246 1447.73 Q346.878 1447.58 350.708 1451.42 Q354.653 1455.36 354.391 1460.01 Q354.113 1464.64 349.644 1469.11 Q348.106 1470.65 346.24 1471.99 Q344.39 1473.32 342.164 1474.49 L338.841 1471.17 Q341.117 1470.5 343.081 1469.32 Q345.045 1468.14 346.796 1466.39 Q349.628 1463.56 349.792 1460.42 Q349.955 1457.27 347.402 1454.72 Q344.849 1452.17 341.706 1452.33 Q338.563 1452.5 335.731 1455.33 Q334.406 1456.65 333.374 1458.27 Q332.36 1459.88 331.607 1461.87 L319.331 1449.6 Z" fill="#000000" fill-rule="nonzero" fill-opacity="1"></path><path clip-path="url(#clip020)" d="M349.874 1423.41 Q347.32 1425.96 348.548 1429.78 Q349.775 1433.56 354.817 1438.6 Q359.842 1443.62 363.639 1444.87 Q367.437 1446.08 369.99 1443.53 Q372.56 1440.96 371.332 1437.17 Q370.105 1433.36 365.08 1428.34 Q360.038 1423.29 356.241 1422.08 Q352.443 1420.84 349.874 1423.41 M347.255 1420.79 Q351.363 1416.68 356.781 1417.78 Q362.199 1418.84 368.386 1425.03 Q374.557 1431.2 375.637 1436.63 Q376.717 1442.04 372.609 1446.14 Q368.5 1450.25 363.083 1449.19 Q357.665 1448.09 351.494 1441.92 Q345.307 1435.73 344.227 1430.33 Q343.146 1424.9 347.255 1420.79 Z" fill="#000000" fill-rule="nonzero" fill-opacity="1"></path><path clip-path="url(#clip020)" d="M371.201 1402.08 Q368.648 1404.64 369.875 1408.45 Q371.103 1412.23 376.144 1417.27 Q381.169 1422.3 384.967 1423.54 Q388.764 1424.75 391.318 1422.2 Q393.887 1419.63 392.66 1415.85 Q391.432 1412.03 386.407 1407.01 Q381.366 1401.97 377.568 1400.76 Q373.771 1399.51 371.201 1402.08 M368.582 1399.46 Q372.691 1395.35 378.109 1396.45 Q383.526 1397.51 389.714 1403.7 Q395.884 1409.87 396.965 1415.31 Q398.045 1420.71 393.937 1424.82 Q389.828 1428.93 384.41 1427.86 Q378.992 1426.76 372.822 1420.59 Q366.635 1414.41 365.554 1409.01 Q364.474 1403.57 368.582 1399.46 Z" fill="#000000" fill-rule="nonzero" fill-opacity="1"></path><path clip-path="url(#clip020)" d="M420.385 1492.04 L425.787 1486.64 L407.143 1468 L402.446 1475.05 L399.434 1472.04 L404.099 1465.02 L407.405 1461.71 L429.06 1483.37 L434.462 1477.96 L437.244 1480.75 L423.168 1494.82 L420.385 1492.04 Z" fill="#000000" fill-rule="nonzero" fill-opacity="1"></path><path clip-path="url(#clip020)" d="M428.733 1444.74 Q426.18 1447.29 427.407 1451.1 Q428.635 1454.89 433.676 1459.93 Q438.701 1464.95 442.499 1466.2 Q446.296 1467.41 448.849 1464.85 Q451.419 1462.28 450.192 1458.5 Q448.964 1454.69 443.939 1449.66 Q438.898 1444.62 435.1 1443.41 Q431.303 1442.17 428.733 1444.74 M426.114 1442.12 Q430.223 1438.01 435.64 1439.11 Q441.058 1440.17 447.245 1446.36 Q453.416 1452.53 454.496 1457.96 Q455.577 1463.36 451.468 1467.47 Q447.36 1471.58 441.942 1470.52 Q436.524 1469.42 430.353 1463.25 Q424.166 1457.06 423.086 1451.66 Q422.006 1446.23 426.114 1442.12 Z" fill="#000000" fill-rule="nonzero" fill-opacity="1"></path><path clip-path="url(#clip020)" d="M450.061 1423.41 Q447.507 1425.96 448.735 1429.78 Q449.962 1433.56 455.004 1438.6 Q460.029 1443.62 463.826 1444.87 Q467.624 1446.08 470.177 1443.53 Q472.747 1440.96 471.519 1437.17 Q470.292 1433.36 465.267 1428.34 Q460.225 1423.29 456.428 1422.08 Q452.63 1420.84 450.061 1423.41 M447.442 1420.79 Q451.55 1416.68 456.968 1417.78 Q462.386 1418.84 468.573 1425.03 Q474.744 1431.2 475.824 1436.63 Q476.904 1442.04 472.796 1446.14 Q468.688 1450.25 463.27 1449.19 Q457.852 1448.09 451.681 1441.92 Q445.494 1435.73 444.414 1430.33 Q443.333 1424.9 447.442 1420.79 Z" fill="#000000" fill-rule="nonzero" fill-opacity="1"></path><path clip-path="url(#clip020)" d="M471.388 1402.08 Q468.835 1404.64 470.063 1408.45 Q471.29 1412.23 476.332 1417.27 Q481.357 1422.3 485.154 1423.54 Q488.951 1424.75 491.505 1422.2 Q494.075 1419.63 492.847 1415.85 Q491.619 1412.03 486.594 1407.01 Q481.553 1401.97 477.756 1400.76 Q473.958 1399.51 471.388 1402.08 M468.769 1399.46 Q472.878 1395.35 478.296 1396.45 Q483.714 1397.51 489.901 1403.7 Q496.071 1409.87 497.152 1415.31 Q498.232 1420.71 494.124 1424.82 Q490.015 1428.93 484.597 1427.86 Q479.18 1426.76 473.009 1420.59 Q466.822 1414.41 465.741 1409.01 Q464.661 1403.57 468.769 1399.46 Z" fill="#000000" fill-rule="nonzero" fill-opacity="1"></path><path clip-path="url(#clip020)" d="M520.572 1492.04 L525.974 1486.64 L507.331 1468 L502.633 1475.05 L499.621 1472.04 L504.286 1465.02 L507.593 1461.71 L529.248 1483.37 L534.649 1477.96 L537.432 1480.75 L523.355 1494.82 L520.572 1492.04 Z" fill="#000000" fill-rule="nonzero" fill-opacity="1"></path><path clip-path="url(#clip020)" d="M519.705 1449.6 L532.685 1436.62 L535.467 1439.4 L525.516 1449.35 L531.506 1455.34 Q531.981 1454.38 532.587 1453.54 Q533.176 1452.69 533.896 1451.97 Q537.988 1447.88 542.62 1447.73 Q547.252 1447.58 551.083 1451.42 Q555.027 1455.36 554.765 1460.01 Q554.487 1464.64 550.019 1469.11 Q548.48 1470.65 546.614 1471.99 Q544.765 1473.32 542.538 1474.49 L539.216 1471.17 Q541.491 1470.5 543.455 1469.32 Q545.419 1468.14 547.171 1466.39 Q550.002 1463.56 550.166 1460.42 Q550.33 1457.27 547.776 1454.72 Q545.223 1452.17 542.08 1452.33 Q538.937 1452.5 536.106 1455.33 Q534.78 1456.65 533.749 1458.27 Q532.734 1459.88 531.981 1461.87 L519.705 1449.6 Z" fill="#000000" fill-rule="nonzero" fill-opacity="1"></path><path clip-path="url(#clip020)" d="M550.248 1423.41 Q547.694 1425.96 548.922 1429.78 Q550.15 1433.56 555.191 1438.6 Q560.216 1443.62 564.013 1444.87 Q567.811 1446.08 570.364 1443.53 Q572.934 1440.96 571.706 1437.17 Q570.479 1433.36 565.454 1428.34 Q560.412 1423.29 556.615 1422.08 Q552.818 1420.84 550.248 1423.41 M547.629 1420.79 Q551.737 1416.68 557.155 1417.78 Q562.573 1418.84 568.76 1425.03 Q574.931 1431.2 576.011 1436.63 Q577.092 1442.04 572.983 1446.14 Q568.875 1450.25 563.457 1449.19 Q558.039 1448.09 551.868 1441.92 Q545.681 1435.73 544.601 1430.33 Q543.521 1424.9 547.629 1420.79 Z" fill="#000000" fill-rule="nonzero" fill-opacity="1"></path><path clip-path="url(#clip020)" d="M571.576 1402.08 Q569.022 1404.64 570.25 1408.45 Q571.477 1412.23 576.519 1417.27 Q581.544 1422.3 585.341 1423.54 Q589.139 1424.75 591.692 1422.2 Q594.262 1419.63 593.034 1415.85 Q591.807 1412.03 586.781 1407.01 Q581.74 1401.97 577.943 1400.76 Q574.145 1399.51 571.576 1402.08 M568.957 1399.46 Q573.065 1395.35 578.483 1396.45 Q583.901 1397.51 590.088 1403.7 Q596.259 1409.87 597.339 1415.31 Q598.419 1420.71 594.311 1424.82 Q590.202 1428.93 584.785 1427.86 Q579.367 1426.76 573.196 1420.59 Q567.009 1414.41 565.929 1409.01 Q564.848 1403.57 568.957 1399.46 Z" fill="#000000" fill-rule="nonzero" fill-opacity="1"></path><path clip-path="url(#clip020)" d="M623.035 1489.77 L634.574 1478.23 L637.357 1481.01 L621.84 1496.53 L619.057 1493.74 Q618.992 1489.91 618.959 1483.4 Q618.926 1476.85 618.812 1475.07 Q618.615 1471.7 618.01 1469.85 Q617.404 1467.96 616.209 1466.77 Q614.261 1464.82 611.659 1464.97 Q609.073 1465.1 606.879 1467.29 Q605.324 1468.85 604.13 1471.12 Q602.951 1473.38 602.084 1476.44 L598.744 1473.1 Q599.939 1470.3 601.265 1468.16 Q602.591 1466.02 604.031 1464.58 Q607.829 1460.78 611.986 1460.42 Q616.144 1460.06 619.319 1463.23 Q620.825 1464.74 621.611 1466.67 Q622.396 1468.57 622.74 1471.89 Q622.806 1472.78 622.887 1477.24 Q622.953 1481.7 623.035 1489.77 Z" fill="#000000" fill-rule="nonzero" fill-opacity="1"></path><path clip-path="url(#clip020)" d="M629.107 1444.74 Q626.554 1447.29 627.782 1451.1 Q629.009 1454.89 634.05 1459.93 Q639.076 1464.95 642.873 1466.2 Q646.67 1467.41 649.224 1464.85 Q651.794 1462.28 650.566 1458.5 Q649.338 1454.69 644.313 1449.66 Q639.272 1444.62 635.475 1443.41 Q631.677 1442.17 629.107 1444.74 M626.488 1442.12 Q630.597 1438.01 636.015 1439.11 Q641.433 1440.17 647.62 1446.36 Q653.79 1452.53 654.871 1457.96 Q655.951 1463.36 651.843 1467.47 Q647.734 1471.58 642.316 1470.52 Q636.899 1469.42 630.728 1463.25 Q624.541 1457.06 623.46 1451.66 Q622.38 1446.23 626.488 1442.12 Z" fill="#000000" fill-rule="nonzero" fill-opacity="1"></path><path clip-path="url(#clip020)" d="M650.435 1423.41 Q647.882 1425.96 649.109 1429.78 Q650.337 1433.56 655.378 1438.6 Q660.403 1443.62 664.201 1444.87 Q667.998 1446.08 670.551 1443.53 Q673.121 1440.96 671.894 1437.17 Q670.666 1433.36 665.641 1428.34 Q660.6 1423.29 656.802 1422.08 Q653.005 1420.84 650.435 1423.41 M647.816 1420.79 Q651.924 1416.68 657.342 1417.78 Q662.76 1418.84 668.947 1425.03 Q675.118 1431.2 676.198 1436.63 Q677.279 1442.04 673.17 1446.14 Q669.062 1450.25 663.644 1449.19 Q658.226 1448.09 652.055 1441.92 Q645.868 1435.73 644.788 1430.33 Q643.708 1424.9 647.816 1420.79 Z" fill="#000000" fill-rule="nonzero" fill-opacity="1"></path><path clip-path="url(#clip020)" d="M671.763 1402.08 Q669.209 1404.64 670.437 1408.45 Q671.664 1412.23 676.706 1417.27 Q681.731 1422.3 685.528 1423.54 Q689.326 1424.75 691.879 1422.2 Q694.449 1419.63 693.221 1415.85 Q691.994 1412.03 686.969 1407.01 Q681.927 1401.97 678.13 1400.76 Q674.332 1399.51 671.763 1402.08 M669.144 1399.46 Q673.252 1395.35 678.67 1396.45 Q684.088 1397.51 690.275 1403.7 Q696.446 1409.87 697.526 1415.31 Q698.606 1420.71 694.498 1424.82 Q690.39 1428.93 684.972 1427.86 Q679.554 1426.76 673.383 1420.59 Q667.196 1414.41 666.116 1409.01 Q665.035 1403.57 669.144 1399.46 Z" fill="#000000" fill-rule="nonzero" fill-opacity="1"></path><path clip-path="url(#clip020)" d="M1199.69 1470.93 L1212.67 1457.95 L1215.45 1460.73 L1205.5 1470.68 L1211.49 1476.67 Q1211.96 1475.71 1212.57 1474.87 Q1213.16 1474.02 1213.88 1473.3 Q1217.97 1469.21 1222.6 1469.06 Q1227.23 1468.91 1231.06 1472.74 Q1235.01 1476.69 1234.75 1481.34 Q1234.47 1485.97 1230 1490.44 Q1228.46 1491.98 1226.6 1493.32 Q1224.75 1494.64 1222.52 1495.82 L1219.2 1492.5 Q1221.47 1491.83 1223.44 1490.65 Q1225.4 1489.47 1227.15 1487.72 Q1229.98 1484.89 1230.15 1481.75 Q1230.31 1478.6 1227.76 1476.05 Q1225.21 1473.5 1222.06 1473.66 Q1218.92 1473.82 1216.09 1476.65 Q1214.76 1477.98 1213.73 1479.6 Q1212.72 1481.21 1211.96 1483.2 L1199.69 1470.93 Z" fill="#000000" fill-rule="nonzero" fill-opacity="1"></path><path clip-path="url(#clip020)" d="M1230.23 1444.74 Q1227.68 1447.29 1228.9 1451.1 Q1230.13 1454.89 1235.17 1459.93 Q1240.2 1464.95 1244 1466.2 Q1247.79 1467.41 1250.35 1464.85 Q1252.92 1462.28 1251.69 1458.5 Q1250.46 1454.69 1245.44 1449.66 Q1240.39 1444.62 1236.6 1443.41 Q1232.8 1442.17 1230.23 1444.74 M1227.61 1442.12 Q1231.72 1438.01 1237.14 1439.11 Q1242.56 1440.17 1248.74 1446.36 Q1254.91 1452.53 1255.99 1457.96 Q1257.07 1463.36 1252.97 1467.47 Q1248.86 1471.58 1243.44 1470.52 Q1238.02 1469.42 1231.85 1463.25 Q1225.66 1457.06 1224.58 1451.66 Q1223.5 1446.23 1227.61 1442.12 Z" fill="#000000" fill-rule="nonzero" fill-opacity="1"></path><path clip-path="url(#clip020)" d="M1251.56 1423.41 Q1249 1425.96 1250.23 1429.78 Q1251.46 1433.56 1256.5 1438.6 Q1261.53 1443.62 1265.32 1444.87 Q1269.12 1446.08 1271.67 1443.53 Q1274.24 1440.96 1273.02 1437.17 Q1271.79 1433.36 1266.76 1428.34 Q1261.72 1423.29 1257.93 1422.08 Q1254.13 1420.84 1251.56 1423.41 M1248.94 1420.79 Q1253.05 1416.68 1258.47 1417.78 Q1263.88 1418.84 1270.07 1425.03 Q1276.24 1431.2 1277.32 1436.63 Q1278.4 1442.04 1274.29 1446.14 Q1270.18 1450.25 1264.77 1449.19 Q1259.35 1448.09 1253.18 1441.92 Q1246.99 1435.73 1245.91 1430.33 Q1244.83 1424.9 1248.94 1420.79 Z" fill="#000000" fill-rule="nonzero" fill-opacity="1"></path><path clip-path="url(#clip020)" d="M1272.89 1402.08 Q1270.33 1404.64 1271.56 1408.45 Q1272.79 1412.23 1277.83 1417.27 Q1282.85 1422.3 1286.65 1423.54 Q1290.45 1424.75 1293 1422.2 Q1295.57 1419.63 1294.34 1415.85 Q1293.12 1412.03 1288.09 1407.01 Q1283.05 1401.97 1279.25 1400.76 Q1275.46 1399.51 1272.89 1402.08 M1270.27 1399.46 Q1274.38 1395.35 1279.79 1396.45 Q1285.21 1397.51 1291.4 1403.7 Q1297.57 1409.87 1298.65 1415.31 Q1299.73 1420.71 1295.62 1424.82 Q1291.51 1428.93 1286.09 1427.86 Q1280.68 1426.76 1274.51 1420.59 Q1268.32 1414.41 1267.24 1409.01 Q1266.16 1403.57 1270.27 1399.46 Z" fill="#000000" fill-rule="nonzero" fill-opacity="1"></path><path clip-path="url(#clip020)" d="M2202.43 1513.37 L2207.83 1507.97 L2189.18 1489.32 L2184.49 1496.38 L2181.48 1493.37 L2186.14 1486.34 L2189.45 1483.04 L2211.1 1504.69 L2216.5 1499.29 L2219.29 1502.07 L2205.21 1516.15 L2202.43 1513.37 Z" fill="#000000" fill-rule="nonzero" fill-opacity="1"></path><path clip-path="url(#clip020)" d="M2210.77 1466.06 Q2208.22 1468.62 2209.45 1472.43 Q2210.68 1476.21 2215.72 1481.25 Q2220.74 1486.28 2224.54 1487.52 Q2228.34 1488.73 2230.89 1486.18 Q2233.46 1483.61 2232.23 1479.83 Q2231 1476.02 2225.98 1470.99 Q2220.94 1465.95 2217.14 1464.74 Q2213.34 1463.49 2210.77 1466.06 M2208.16 1463.45 Q2212.26 1459.34 2217.68 1460.43 Q2223.1 1461.5 2229.29 1467.69 Q2235.46 1473.86 2236.54 1479.29 Q2237.62 1484.69 2233.51 1488.8 Q2229.4 1492.91 2223.98 1491.84 Q2218.57 1490.75 2212.39 1484.58 Q2206.21 1478.39 2205.13 1472.99 Q2204.05 1467.55 2208.16 1463.45 Z" fill="#000000" fill-rule="nonzero" fill-opacity="1"></path><path clip-path="url(#clip020)" d="M2232.1 1444.74 Q2229.55 1447.29 2230.78 1451.1 Q2232 1454.89 2237.04 1459.93 Q2242.07 1464.95 2245.87 1466.2 Q2249.66 1467.41 2252.22 1464.85 Q2254.79 1462.28 2253.56 1458.5 Q2252.33 1454.69 2247.31 1449.66 Q2242.27 1444.62 2238.47 1443.41 Q2234.67 1442.17 2232.1 1444.74 M2229.48 1442.12 Q2233.59 1438.01 2239.01 1439.11 Q2244.43 1440.17 2250.61 1446.36 Q2256.78 1452.53 2257.87 1457.96 Q2258.95 1463.36 2254.84 1467.47 Q2250.73 1471.58 2245.31 1470.52 Q2239.89 1469.42 2233.72 1463.25 Q2227.53 1457.06 2226.45 1451.66 Q2225.37 1446.23 2229.48 1442.12 Z" fill="#000000" fill-rule="nonzero" fill-opacity="1"></path><path clip-path="url(#clip020)" d="M2253.43 1423.41 Q2250.88 1425.96 2252.1 1429.78 Q2253.33 1433.56 2258.37 1438.6 Q2263.4 1443.62 2267.19 1444.87 Q2270.99 1446.08 2273.55 1443.53 Q2276.12 1440.96 2274.89 1437.17 Q2273.66 1433.36 2268.64 1428.34 Q2263.59 1423.29 2259.8 1422.08 Q2256 1420.84 2253.43 1423.41 M2250.81 1420.79 Q2254.92 1416.68 2260.34 1417.78 Q2265.75 1418.84 2271.94 1425.03 Q2278.11 1431.2 2279.19 1436.63 Q2280.27 1442.04 2276.16 1446.14 Q2272.06 1450.25 2266.64 1449.19 Q2261.22 1448.09 2255.05 1441.92 Q2248.86 1435.73 2247.78 1430.33 Q2246.7 1424.9 2250.81 1420.79 Z" fill="#000000" fill-rule="nonzero" fill-opacity="1"></path><path clip-path="url(#clip020)" d="M2274.76 1402.08 Q2272.2 1404.64 2273.43 1408.45 Q2274.66 1412.23 2279.7 1417.27 Q2284.73 1422.3 2288.52 1423.54 Q2292.32 1424.75 2294.87 1422.2 Q2297.44 1419.63 2296.22 1415.85 Q2294.99 1412.03 2289.96 1407.01 Q2284.92 1401.97 2281.12 1400.76 Q2277.33 1399.51 2274.76 1402.08 M2272.14 1399.46 Q2276.25 1395.35 2281.66 1396.45 Q2287.08 1397.51 2293.27 1403.7 Q2299.44 1409.87 2300.52 1415.31 Q2301.6 1420.71 2297.49 1424.82 Q2293.38 1428.93 2287.97 1427.86 Q2282.55 1426.76 2276.38 1420.59 Q2270.19 1414.41 2269.11 1409.01 Q2268.03 1403.57 2272.14 1399.46 Z" fill="#000000" fill-rule="nonzero" fill-opacity="1"></path><path clip-path="url(#clip020)" d="M996.252 1549.04 L1004.91 1549.04 L1025.98 1588.79 L1025.98 1549.04 L1032.22 1549.04 L1032.22 1596.56 L1023.56 1596.56 L1002.49 1556.81 L1002.49 1596.56 L996.252 1596.56 L996.252 1549.04 Z" fill="#000000" fill-rule="nonzero" fill-opacity="1"></path><path clip-path="url(#clip020)" d="M1044.15 1582.49 L1044.15 1560.91 L1050.01 1560.91 L1050.01 1582.27 Q1050.01 1587.33 1051.98 1589.88 Q1053.96 1592.39 1057.9 1592.39 Q1062.65 1592.39 1065.38 1589.37 Q1068.15 1586.34 1068.15 1581.12 L1068.15 1560.91 L1074.01 1560.91 L1074.01 1596.56 L1068.15 1596.56 L1068.15 1591.08 Q1066.02 1594.33 1063.19 1595.92 Q1060.39 1597.48 1056.66 1597.48 Q1050.52 1597.48 1047.34 1593.66 Q1044.15 1589.84 1044.15 1582.49 M1058.89 1560.05 L1058.89 1560.05 Z" fill="#000000" fill-rule="nonzero" fill-opacity="1"></path><path clip-path="url(#clip020)" d="M1113.83 1567.75 Q1116.02 1563.81 1119.08 1561.93 Q1122.13 1560.05 1126.27 1560.05 Q1131.84 1560.05 1134.87 1563.97 Q1137.89 1567.85 1137.89 1575.04 L1137.89 1596.56 L1132 1596.56 L1132 1575.23 Q1132 1570.11 1130.19 1567.63 Q1128.37 1565.14 1124.65 1565.14 Q1120.1 1565.14 1117.45 1568.17 Q1114.81 1571.19 1114.81 1576.41 L1114.81 1596.56 L1108.92 1596.56 L1108.92 1575.23 Q1108.92 1570.08 1107.11 1567.63 Q1105.3 1565.14 1101.51 1565.14 Q1097.02 1565.14 1094.38 1568.2 Q1091.74 1571.22 1091.74 1576.41 L1091.74 1596.56 L1085.85 1596.56 L1085.85 1560.91 L1091.74 1560.91 L1091.74 1566.45 Q1093.74 1563.17 1096.54 1561.61 Q1099.34 1560.05 1103.2 1560.05 Q1107.08 1560.05 1109.78 1562.03 Q1112.52 1564 1113.83 1567.75 Z" fill="#000000" fill-rule="nonzero" fill-opacity="1"></path><path clip-path="url(#clip020)" d="M1175.16 1578.77 Q1175.16 1572.31 1172.49 1568.65 Q1169.84 1564.95 1165.2 1564.95 Q1160.55 1564.95 1157.88 1568.65 Q1155.24 1572.31 1155.24 1578.77 Q1155.24 1585.23 1157.88 1588.92 Q1160.55 1592.58 1165.2 1592.58 Q1169.84 1592.58 1172.49 1588.92 Q1175.16 1585.23 1175.16 1578.77 M1155.24 1566.32 Q1157.08 1563.14 1159.88 1561.61 Q1162.72 1560.05 1166.63 1560.05 Q1173.12 1560.05 1177.17 1565.21 Q1181.24 1570.36 1181.24 1578.77 Q1181.24 1587.17 1177.17 1592.33 Q1173.12 1597.48 1166.63 1597.48 Q1162.72 1597.48 1159.88 1595.95 Q1157.08 1594.39 1155.24 1591.21 L1155.24 1596.56 L1149.35 1596.56 L1149.35 1547.03 L1155.24 1547.03 L1155.24 1566.32 Z" fill="#000000" fill-rule="nonzero" fill-opacity="1"></path><path clip-path="url(#clip020)" d="M1221.44 1577.27 L1221.44 1580.14 L1194.51 1580.14 Q1194.89 1586.18 1198.14 1589.37 Q1201.42 1592.52 1207.24 1592.52 Q1210.62 1592.52 1213.77 1591.69 Q1216.95 1590.86 1220.07 1589.21 L1220.07 1594.74 Q1216.92 1596.08 1213.61 1596.78 Q1210.3 1597.48 1206.89 1597.48 Q1198.36 1597.48 1193.37 1592.52 Q1188.4 1587.55 1188.4 1579.09 Q1188.4 1570.33 1193.11 1565.21 Q1197.85 1560.05 1205.87 1560.05 Q1213.07 1560.05 1217.24 1564.7 Q1221.44 1569.31 1221.44 1577.27 M1215.58 1575.55 Q1215.52 1570.75 1212.88 1567.88 Q1210.27 1565.02 1205.94 1565.02 Q1201.04 1565.02 1198.08 1567.79 Q1195.15 1570.56 1194.7 1575.58 L1215.58 1575.55 Z" fill="#000000" fill-rule="nonzero" fill-opacity="1"></path><path clip-path="url(#clip020)" d="M1251.71 1566.39 Q1250.72 1565.81 1249.54 1565.56 Q1248.4 1565.27 1247 1565.27 Q1242.03 1565.27 1239.36 1568.52 Q1236.72 1571.73 1236.72 1577.78 L1236.72 1596.56 L1230.83 1596.56 L1230.83 1560.91 L1236.72 1560.91 L1236.72 1566.45 Q1238.56 1563.2 1241.52 1561.64 Q1244.48 1560.05 1248.72 1560.05 Q1249.32 1560.05 1250.05 1560.15 Q1250.78 1560.21 1251.68 1560.37 L1251.71 1566.39 Z" fill="#000000" fill-rule="nonzero" fill-opacity="1"></path><path clip-path="url(#clip020)" d="M1292.38 1565.02 Q1287.67 1565.02 1284.94 1568.71 Q1282.2 1572.37 1282.2 1578.77 Q1282.2 1585.16 1284.9 1588.86 Q1287.64 1592.52 1292.38 1592.52 Q1297.06 1592.52 1299.8 1588.82 Q1302.54 1585.13 1302.54 1578.77 Q1302.54 1572.43 1299.8 1568.74 Q1297.06 1565.02 1292.38 1565.02 M1292.38 1560.05 Q1300.02 1560.05 1304.38 1565.02 Q1308.74 1569.98 1308.74 1578.77 Q1308.74 1587.52 1304.38 1592.52 Q1300.02 1597.48 1292.38 1597.48 Q1284.71 1597.48 1280.35 1592.52 Q1276.02 1587.52 1276.02 1578.77 Q1276.02 1569.98 1280.35 1565.02 Q1284.71 1560.05 1292.38 1560.05 Z" fill="#000000" fill-rule="nonzero" fill-opacity="1"></path><path clip-path="url(#clip020)" d="M1336.5 1547.03 L1336.5 1551.9 L1330.9 1551.9 Q1327.75 1551.9 1326.5 1553.18 Q1325.3 1554.45 1325.3 1557.76 L1325.3 1560.91 L1334.94 1560.91 L1334.94 1565.46 L1325.3 1565.46 L1325.3 1596.56 L1319.41 1596.56 L1319.41 1565.46 L1313.81 1565.46 L1313.81 1560.91 L1319.41 1560.91 L1319.41 1558.43 Q1319.41 1552.48 1322.18 1549.77 Q1324.95 1547.03 1330.96 1547.03 L1336.5 1547.03 Z" fill="#000000" fill-rule="nonzero" fill-opacity="1"></path><path clip-path="url(#clip020)" d="M1358.72 1560.91 L1364.57 1560.91 L1371.89 1588.73 L1379.18 1560.91 L1386.09 1560.91 L1393.41 1588.73 L1400.7 1560.91 L1406.55 1560.91 L1397.23 1596.56 L1390.32 1596.56 L1382.65 1567.34 L1374.95 1596.56 L1368.04 1596.56 L1358.72 1560.91 Z" fill="#000000" fill-rule="nonzero" fill-opacity="1"></path><path clip-path="url(#clip020)" d="M1445.93 1577.27 L1445.93 1580.14 L1419 1580.14 Q1419.38 1586.18 1422.63 1589.37 Q1425.91 1592.52 1431.73 1592.52 Q1435.1 1592.52 1438.25 1591.69 Q1441.44 1590.86 1444.56 1589.21 L1444.56 1594.74 Q1441.41 1596.08 1438.1 1596.78 Q1434.79 1597.48 1431.38 1597.48 Q1422.85 1597.48 1417.85 1592.52 Q1412.89 1587.55 1412.89 1579.09 Q1412.89 1570.33 1417.6 1565.21 Q1422.34 1560.05 1430.36 1560.05 Q1437.55 1560.05 1441.72 1564.7 Q1445.93 1569.31 1445.93 1577.27 M1440.07 1575.55 Q1440.01 1570.75 1437.36 1567.88 Q1434.75 1565.02 1430.42 1565.02 Q1425.52 1565.02 1422.56 1567.79 Q1419.64 1570.56 1419.19 1575.58 L1440.07 1575.55 Z" fill="#000000" fill-rule="nonzero" fill-opacity="1"></path><path clip-path="url(#clip020)" d="M1455.54 1560.91 L1461.39 1560.91 L1461.39 1596.56 L1455.54 1596.56 L1455.54 1560.91 M1455.54 1547.03 L1461.39 1547.03 L1461.39 1554.45 L1455.54 1554.45 L1455.54 1547.03 Z" fill="#000000" fill-rule="nonzero" fill-opacity="1"></path><path clip-path="url(#clip020)" d="M1497.11 1578.32 Q1497.11 1571.96 1494.46 1568.45 Q1491.85 1564.95 1487.11 1564.95 Q1482.4 1564.95 1479.76 1568.45 Q1477.15 1571.96 1477.15 1578.32 Q1477.15 1584.66 1479.76 1588.16 Q1482.4 1591.66 1487.11 1591.66 Q1491.85 1591.66 1494.46 1588.16 Q1497.11 1584.66 1497.11 1578.32 M1502.96 1592.13 Q1502.96 1601.24 1498.92 1605.66 Q1494.88 1610.12 1486.54 1610.12 Q1483.45 1610.12 1480.71 1609.64 Q1477.98 1609.2 1475.4 1608.24 L1475.4 1602.54 Q1477.98 1603.94 1480.49 1604.61 Q1483.01 1605.28 1485.62 1605.28 Q1491.38 1605.28 1494.24 1602.26 Q1497.11 1599.26 1497.11 1593.19 L1497.11 1590.29 Q1495.29 1593.44 1492.46 1595 Q1489.63 1596.56 1485.68 1596.56 Q1479.12 1596.56 1475.11 1591.56 Q1471.1 1586.56 1471.1 1578.32 Q1471.1 1570.05 1475.11 1565.05 Q1479.12 1560.05 1485.68 1560.05 Q1489.63 1560.05 1492.46 1561.61 Q1495.29 1563.17 1497.11 1566.32 L1497.11 1560.91 L1502.96 1560.91 L1502.96 1592.13 Z" fill="#000000" fill-rule="nonzero" fill-opacity="1"></path><path clip-path="url(#clip020)" d="M1544.66 1575.04 L1544.66 1596.56 L1538.8 1596.56 L1538.8 1575.23 Q1538.8 1570.17 1536.83 1567.66 Q1534.85 1565.14 1530.91 1565.14 Q1526.17 1565.14 1523.43 1568.17 Q1520.69 1571.19 1520.69 1576.41 L1520.69 1596.56 L1514.8 1596.56 L1514.8 1547.03 L1520.69 1547.03 L1520.69 1566.45 Q1522.79 1563.23 1525.62 1561.64 Q1528.49 1560.05 1532.21 1560.05 Q1538.36 1560.05 1541.51 1563.87 Q1544.66 1567.66 1544.66 1575.04 Z" fill="#000000" fill-rule="nonzero" fill-opacity="1"></path><path clip-path="url(#clip020)" d="M1562.13 1550.79 L1562.13 1560.91 L1574.19 1560.91 L1574.19 1565.46 L1562.13 1565.46 L1562.13 1584.81 Q1562.13 1589.17 1563.31 1590.42 Q1564.52 1591.66 1568.18 1591.66 L1574.19 1591.66 L1574.19 1596.56 L1568.18 1596.56 Q1561.4 1596.56 1558.82 1594.04 Q1556.24 1591.5 1556.24 1584.81 L1556.24 1565.46 L1551.95 1565.46 L1551.95 1560.91 L1556.24 1560.91 L1556.24 1550.79 L1562.13 1550.79 Z" fill="#000000" fill-rule="nonzero" fill-opacity="1"></path><path clip-path="url(#clip020)" d="M1604.62 1561.96 L1604.62 1567.5 Q1602.14 1566.23 1599.47 1565.59 Q1596.79 1564.95 1593.93 1564.95 Q1589.57 1564.95 1587.37 1566.29 Q1585.21 1567.63 1585.21 1570.3 Q1585.21 1572.34 1586.77 1573.52 Q1588.33 1574.66 1593.04 1575.71 L1595.04 1576.16 Q1601.28 1577.49 1603.89 1579.94 Q1606.53 1582.36 1606.53 1586.72 Q1606.53 1591.69 1602.59 1594.59 Q1598.67 1597.48 1591.8 1597.48 Q1588.93 1597.48 1585.81 1596.91 Q1582.72 1596.37 1579.29 1595.25 L1579.29 1589.21 Q1582.53 1590.89 1585.68 1591.75 Q1588.84 1592.58 1591.92 1592.58 Q1596.06 1592.58 1598.29 1591.18 Q1600.52 1589.75 1600.52 1587.17 Q1600.52 1584.78 1598.89 1583.51 Q1597.3 1582.24 1591.86 1581.06 L1589.82 1580.58 Q1584.38 1579.44 1581.96 1577.08 Q1579.54 1574.69 1579.54 1570.56 Q1579.54 1565.53 1583.11 1562.79 Q1586.67 1560.05 1593.23 1560.05 Q1596.47 1560.05 1599.34 1560.53 Q1602.2 1561.01 1604.62 1561.96 Z" fill="#000000" fill-rule="nonzero" fill-opacity="1"></path><polyline clip-path="url(#clip020)" style="stroke:#000000; stroke-linecap:round; stroke-linejoin:round; stroke-width:4; stroke-opacity:1; fill:none" points="250.028,1366.15 250.028,123.472 "></polyline>
<polyline clip-path="url(#clip020)" style="stroke:#000000; stroke-linecap:round; stroke-linejoin:round; stroke-width:4; stroke-opacity:1; fill:none" points="250.028,1221.51 268.926,1221.51 "></polyline>
<polyline clip-path="url(#clip020)" style="stroke:#000000; stroke-linecap:round; stroke-linejoin:round; stroke-width:4; stroke-opacity:1; fill:none" points="250.028,973.029 268.926,973.029 "></polyline>
<polyline clip-path="url(#clip020)" style="stroke:#000000; stroke-linecap:round; stroke-linejoin:round; stroke-width:4; stroke-opacity:1; fill:none" points="250.028,724.55 268.926,724.55 "></polyline>
<polyline clip-path="url(#clip020)" style="stroke:#000000; stroke-linecap:round; stroke-linejoin:round; stroke-width:4; stroke-opacity:1; fill:none" points="250.028,476.071 268.926,476.071 "></polyline>
<polyline clip-path="url(#clip020)" style="stroke:#000000; stroke-linecap:round; stroke-linejoin:round; stroke-width:4; stroke-opacity:1; fill:none" points="250.028,227.592 268.926,227.592 "></polyline>
<path clip-path="url(#clip020)" d="M127.917 1207.31 Q124.306 1207.31 122.478 1210.87 Q120.672 1214.41 120.672 1221.54 Q120.672 1228.65 122.478 1232.21 Q124.306 1235.76 127.917 1235.76 Q131.552 1235.76 133.357 1232.21 Q135.186 1228.65 135.186 1221.54 Q135.186 1214.41 133.357 1210.87 Q131.552 1207.31 127.917 1207.31 M127.917 1203.6 Q133.728 1203.6 136.783 1208.21 Q139.862 1212.79 139.862 1221.54 Q139.862 1230.27 136.783 1234.88 Q133.728 1239.46 127.917 1239.46 Q122.107 1239.46 119.029 1234.88 Q115.973 1230.27 115.973 1221.54 Q115.973 1212.79 119.029 1208.21 Q122.107 1203.6 127.917 1203.6 Z" fill="#000000" fill-rule="nonzero" fill-opacity="1"></path><path clip-path="url(#clip020)" d="M148.079 1232.91 L152.964 1232.91 L152.964 1238.79 L148.079 1238.79 L148.079 1232.91 Z" fill="#000000" fill-rule="nonzero" fill-opacity="1"></path><path clip-path="url(#clip020)" d="M173.149 1207.31 Q169.538 1207.31 167.709 1210.87 Q165.903 1214.41 165.903 1221.54 Q165.903 1228.65 167.709 1232.21 Q169.538 1235.76 173.149 1235.76 Q176.783 1235.76 178.589 1232.21 Q180.417 1228.65 180.417 1221.54 Q180.417 1214.41 178.589 1210.87 Q176.783 1207.31 173.149 1207.31 M173.149 1203.6 Q178.959 1203.6 182.014 1208.21 Q185.093 1212.79 185.093 1221.54 Q185.093 1230.27 182.014 1234.88 Q178.959 1239.46 173.149 1239.46 Q167.339 1239.46 164.26 1234.88 Q161.204 1230.27 161.204 1221.54 Q161.204 1212.79 164.26 1208.21 Q167.339 1203.6 173.149 1203.6 Z" fill="#000000" fill-rule="nonzero" fill-opacity="1"></path><path clip-path="url(#clip020)" d="M194.121 1234.85 L201.76 1234.85 L201.76 1208.49 L193.45 1210.15 L193.45 1205.9 L201.713 1204.23 L206.389 1204.23 L206.389 1234.85 L214.028 1234.85 L214.028 1238.79 L194.121 1238.79 L194.121 1234.85 Z" fill="#000000" fill-rule="nonzero" fill-opacity="1"></path><path clip-path="url(#clip020)" d="M128.288 958.828 Q124.677 958.828 122.848 962.393 Q121.043 965.935 121.043 973.064 Q121.043 980.171 122.848 983.735 Q124.677 987.277 128.288 987.277 Q131.922 987.277 133.728 983.735 Q135.556 980.171 135.556 973.064 Q135.556 965.935 133.728 962.393 Q131.922 958.828 128.288 958.828 M128.288 955.124 Q134.098 955.124 137.154 959.731 Q140.232 964.314 140.232 973.064 Q140.232 981.791 137.154 986.397 Q134.098 990.981 128.288 990.981 Q122.478 990.981 119.399 986.397 Q116.343 981.791 116.343 973.064 Q116.343 964.314 119.399 959.731 Q122.478 955.124 128.288 955.124 Z" fill="#000000" fill-rule="nonzero" fill-opacity="1"></path><path clip-path="url(#clip020)" d="M148.45 984.43 L153.334 984.43 L153.334 990.309 L148.45 990.309 L148.45 984.43 Z" fill="#000000" fill-rule="nonzero" fill-opacity="1"></path><path clip-path="url(#clip020)" d="M173.519 958.828 Q169.908 958.828 168.079 962.393 Q166.274 965.935 166.274 973.064 Q166.274 980.171 168.079 983.735 Q169.908 987.277 173.519 987.277 Q177.153 987.277 178.959 983.735 Q180.788 980.171 180.788 973.064 Q180.788 965.935 178.959 962.393 Q177.153 958.828 173.519 958.828 M173.519 955.124 Q179.329 955.124 182.385 959.731 Q185.463 964.314 185.463 973.064 Q185.463 981.791 182.385 986.397 Q179.329 990.981 173.519 990.981 Q167.709 990.981 164.63 986.397 Q161.575 981.791 161.575 973.064 Q161.575 964.314 164.63 959.731 Q167.709 955.124 173.519 955.124 Z" fill="#000000" fill-rule="nonzero" fill-opacity="1"></path><path clip-path="url(#clip020)" d="M197.709 986.374 L214.028 986.374 L214.028 990.309 L192.084 990.309 L192.084 986.374 Q194.746 983.62 199.329 978.99 Q203.936 974.337 205.116 972.995 Q207.362 970.472 208.241 968.736 Q209.144 966.976 209.144 965.286 Q209.144 962.532 207.199 960.796 Q205.278 959.06 202.176 959.06 Q199.977 959.06 197.524 959.824 Q195.093 960.587 192.315 962.138 L192.315 957.416 Q195.139 956.282 197.593 955.703 Q200.047 955.124 202.084 955.124 Q207.454 955.124 210.649 957.81 Q213.843 960.495 213.843 964.986 Q213.843 967.115 213.033 969.036 Q212.246 970.935 210.139 973.527 Q209.561 974.198 206.459 977.416 Q203.357 980.61 197.709 986.374 Z" fill="#000000" fill-rule="nonzero" fill-opacity="1"></path><path clip-path="url(#clip020)" d="M127.339 710.349 Q123.728 710.349 121.899 713.914 Q120.093 717.455 120.093 724.585 Q120.093 731.691 121.899 735.256 Q123.728 738.798 127.339 738.798 Q130.973 738.798 132.779 735.256 Q134.607 731.691 134.607 724.585 Q134.607 717.455 132.779 713.914 Q130.973 710.349 127.339 710.349 M127.339 706.645 Q133.149 706.645 136.204 711.252 Q139.283 715.835 139.283 724.585 Q139.283 733.312 136.204 737.918 Q133.149 742.502 127.339 742.502 Q121.529 742.502 118.45 737.918 Q115.394 733.312 115.394 724.585 Q115.394 715.835 118.45 711.252 Q121.529 706.645 127.339 706.645 Z" fill="#000000" fill-rule="nonzero" fill-opacity="1"></path><path clip-path="url(#clip020)" d="M147.501 735.951 L152.385 735.951 L152.385 741.83 L147.501 741.83 L147.501 735.951 Z" fill="#000000" fill-rule="nonzero" fill-opacity="1"></path><path clip-path="url(#clip020)" d="M172.57 710.349 Q168.959 710.349 167.13 713.914 Q165.325 717.455 165.325 724.585 Q165.325 731.691 167.13 735.256 Q168.959 738.798 172.57 738.798 Q176.204 738.798 178.01 735.256 Q179.839 731.691 179.839 724.585 Q179.839 717.455 178.01 713.914 Q176.204 710.349 172.57 710.349 M172.57 706.645 Q178.38 706.645 181.436 711.252 Q184.514 715.835 184.514 724.585 Q184.514 733.312 181.436 737.918 Q178.38 742.502 172.57 742.502 Q166.76 742.502 163.681 737.918 Q160.626 733.312 160.626 724.585 Q160.626 715.835 163.681 711.252 Q166.76 706.645 172.57 706.645 Z" fill="#000000" fill-rule="nonzero" fill-opacity="1"></path><path clip-path="url(#clip020)" d="M206.899 723.196 Q210.255 723.914 212.13 726.182 Q214.028 728.451 214.028 731.784 Q214.028 736.9 210.51 739.701 Q206.991 742.502 200.51 742.502 Q198.334 742.502 196.019 742.062 Q193.727 741.645 191.274 740.789 L191.274 736.275 Q193.218 737.409 195.533 737.988 Q197.848 738.566 200.371 738.566 Q204.769 738.566 207.061 736.83 Q209.375 735.094 209.375 731.784 Q209.375 728.729 207.223 727.016 Q205.093 725.279 201.274 725.279 L197.246 725.279 L197.246 721.437 L201.459 721.437 Q204.908 721.437 206.737 720.071 Q208.565 718.682 208.565 716.09 Q208.565 713.428 206.667 712.016 Q204.792 710.58 201.274 710.58 Q199.352 710.58 197.153 710.997 Q194.954 711.414 192.315 712.293 L192.315 708.127 Q194.977 707.386 197.292 707.016 Q199.63 706.645 201.69 706.645 Q207.014 706.645 210.116 709.076 Q213.218 711.483 213.218 715.604 Q213.218 718.474 211.574 720.465 Q209.931 722.432 206.899 723.196 Z" fill="#000000" fill-rule="nonzero" fill-opacity="1"></path><path clip-path="url(#clip020)" d="M126.205 461.87 Q122.593 461.87 120.765 465.435 Q118.959 468.976 118.959 476.106 Q118.959 483.212 120.765 486.777 Q122.593 490.319 126.205 490.319 Q129.839 490.319 131.644 486.777 Q133.473 483.212 133.473 476.106 Q133.473 468.976 131.644 465.435 Q129.839 461.87 126.205 461.87 M126.205 458.166 Q132.015 458.166 135.07 462.773 Q138.149 467.356 138.149 476.106 Q138.149 484.833 135.07 489.439 Q132.015 494.022 126.205 494.022 Q120.394 494.022 117.316 489.439 Q114.26 484.833 114.26 476.106 Q114.26 467.356 117.316 462.773 Q120.394 458.166 126.205 458.166 Z" fill="#000000" fill-rule="nonzero" fill-opacity="1"></path><path clip-path="url(#clip020)" d="M146.366 487.472 L151.251 487.472 L151.251 493.351 L146.366 493.351 L146.366 487.472 Z" fill="#000000" fill-rule="nonzero" fill-opacity="1"></path><path clip-path="url(#clip020)" d="M171.436 461.87 Q167.825 461.87 165.996 465.435 Q164.19 468.976 164.19 476.106 Q164.19 483.212 165.996 486.777 Q167.825 490.319 171.436 490.319 Q175.07 490.319 176.876 486.777 Q178.704 483.212 178.704 476.106 Q178.704 468.976 176.876 465.435 Q175.07 461.87 171.436 461.87 M171.436 458.166 Q177.246 458.166 180.301 462.773 Q183.38 467.356 183.38 476.106 Q183.38 484.833 180.301 489.439 Q177.246 494.022 171.436 494.022 Q165.626 494.022 162.547 489.439 Q159.491 484.833 159.491 476.106 Q159.491 467.356 162.547 462.773 Q165.626 458.166 171.436 458.166 Z" fill="#000000" fill-rule="nonzero" fill-opacity="1"></path><path clip-path="url(#clip020)" d="M204.445 462.865 L192.639 481.314 L204.445 481.314 L204.445 462.865 M203.218 458.791 L209.098 458.791 L209.098 481.314 L214.028 481.314 L214.028 485.203 L209.098 485.203 L209.098 493.351 L204.445 493.351 L204.445 485.203 L188.843 485.203 L188.843 480.689 L203.218 458.791 Z" fill="#000000" fill-rule="nonzero" fill-opacity="1"></path><path clip-path="url(#clip020)" d="M127.686 213.391 Q124.075 213.391 122.246 216.956 Q120.441 220.497 120.441 227.627 Q120.441 234.733 122.246 238.298 Q124.075 241.84 127.686 241.84 Q131.32 241.84 133.126 238.298 Q134.954 234.733 134.954 227.627 Q134.954 220.497 133.126 216.956 Q131.32 213.391 127.686 213.391 M127.686 209.687 Q133.496 209.687 136.552 214.293 Q139.63 218.877 139.63 227.627 Q139.63 236.354 136.552 240.96 Q133.496 245.543 127.686 245.543 Q121.876 245.543 118.797 240.96 Q115.742 236.354 115.742 227.627 Q115.742 218.877 118.797 214.293 Q121.876 209.687 127.686 209.687 Z" fill="#000000" fill-rule="nonzero" fill-opacity="1"></path><path clip-path="url(#clip020)" d="M147.848 238.992 L152.732 238.992 L152.732 244.872 L147.848 244.872 L147.848 238.992 Z" fill="#000000" fill-rule="nonzero" fill-opacity="1"></path><path clip-path="url(#clip020)" d="M172.917 213.391 Q169.306 213.391 167.477 216.956 Q165.672 220.497 165.672 227.627 Q165.672 234.733 167.477 238.298 Q169.306 241.84 172.917 241.84 Q176.551 241.84 178.357 238.298 Q180.186 234.733 180.186 227.627 Q180.186 220.497 178.357 216.956 Q176.551 213.391 172.917 213.391 M172.917 209.687 Q178.727 209.687 181.783 214.293 Q184.862 218.877 184.862 227.627 Q184.862 236.354 181.783 240.96 Q178.727 245.543 172.917 245.543 Q167.107 245.543 164.028 240.96 Q160.973 236.354 160.973 227.627 Q160.973 218.877 164.028 214.293 Q167.107 209.687 172.917 209.687 Z" fill="#000000" fill-rule="nonzero" fill-opacity="1"></path><path clip-path="url(#clip020)" d="M193.125 210.312 L211.482 210.312 L211.482 214.247 L197.408 214.247 L197.408 222.719 Q198.426 222.372 199.445 222.21 Q200.463 222.025 201.482 222.025 Q207.269 222.025 210.649 225.196 Q214.028 228.367 214.028 233.784 Q214.028 239.363 210.556 242.465 Q207.084 245.543 200.764 245.543 Q198.588 245.543 196.32 245.173 Q194.075 244.803 191.667 244.062 L191.667 239.363 Q193.75 240.497 195.973 241.053 Q198.195 241.608 200.672 241.608 Q204.676 241.608 207.014 239.502 Q209.352 237.395 209.352 233.784 Q209.352 230.173 207.014 228.067 Q204.676 225.96 200.672 225.96 Q198.797 225.96 196.922 226.377 Q195.07 226.793 193.125 227.673 L193.125 210.312 Z" fill="#000000" fill-rule="nonzero" fill-opacity="1"></path><path clip-path="url(#clip020)" d="M46.0847 1080.41 Q46.0847 1087.51 47.7079 1090.25 Q49.3312 1092.98 53.2461 1092.98 Q56.3653 1092.98 58.2114 1090.95 Q60.0256 1088.88 60.0256 1085.34 Q60.0256 1080.47 56.5881 1077.55 Q53.1188 1074.59 47.3897 1074.59 L46.0847 1074.59 L46.0847 1080.41 M43.6657 1068.73 L64.0042 1068.73 L64.0042 1074.59 L58.5933 1074.59 Q61.8398 1076.59 63.3994 1079.58 Q64.9272 1082.58 64.9272 1086.9 Q64.9272 1092.38 61.8716 1095.62 Q58.7843 1098.84 53.6281 1098.84 Q47.6125 1098.84 44.5569 1094.83 Q41.5014 1090.79 41.5014 1082.8 L41.5014 1074.59 L40.9285 1074.59 Q36.8862 1074.59 34.6901 1077.26 Q32.4621 1079.9 32.4621 1084.71 Q32.4621 1087.76 33.1941 1090.66 Q33.9262 1093.56 35.3903 1096.23 L29.9795 1096.23 Q28.7381 1093.01 28.1334 1089.99 Q27.4968 1086.97 27.4968 1084.1 Q27.4968 1076.37 31.5072 1072.55 Q35.5176 1068.73 43.6657 1068.73 Z" fill="#000000" fill-rule="nonzero" fill-opacity="1"></path><path clip-path="url(#clip020)" d="M28.3562 1060.87 L28.3562 1054.66 L58.275 1043.52 L28.3562 1032.38 L28.3562 1026.17 L64.0042 1039.54 L64.0042 1047.5 L28.3562 1060.87 Z" fill="#000000" fill-rule="nonzero" fill-opacity="1"></path><path clip-path="url(#clip020)" d="M44.7161 987.599 L47.5806 987.599 L47.5806 1014.53 Q53.6281 1014.14 56.8109 1010.9 Q59.9619 1007.62 59.9619 1001.79 Q59.9619 998.42 59.1344 995.269 Q58.3069 992.087 56.6518 988.967 L62.1899 988.967 Q63.5267 992.118 64.227 995.429 Q64.9272 998.739 64.9272 1002.14 Q64.9272 1010.67 59.9619 1015.67 Q54.9967 1020.64 46.5303 1020.64 Q37.7774 1020.64 32.6531 1015.93 Q27.4968 1011.18 27.4968 1003.16 Q27.4968 995.97 32.1438 991.8 Q36.7589 987.599 44.7161 987.599 M42.9973 993.455 Q38.1912 993.519 35.3266 996.161 Q32.4621 998.771 32.4621 1003.1 Q32.4621 1008 35.2312 1010.96 Q38.0002 1013.89 43.0292 1014.33 L42.9973 993.455 Z" fill="#000000" fill-rule="nonzero" fill-opacity="1"></path><path clip-path="url(#clip020)" d="M33.8307 957.33 Q33.2578 958.316 33.0032 959.494 Q32.7167 960.64 32.7167 962.04 Q32.7167 967.006 35.9632 969.679 Q39.1779 972.321 45.2253 972.321 L64.0042 972.321 L64.0042 978.209 L28.3562 978.209 L28.3562 972.321 L33.8944 972.321 Q30.6479 970.475 29.0883 967.515 Q27.4968 964.555 27.4968 960.322 Q27.4968 959.717 27.5923 958.985 Q27.656 958.253 27.8151 957.362 L33.8307 957.33 Z" fill="#000000" fill-rule="nonzero" fill-opacity="1"></path><path clip-path="url(#clip020)" d="M46.0847 934.986 Q46.0847 942.084 47.7079 944.821 Q49.3312 947.558 53.2461 947.558 Q56.3653 947.558 58.2114 945.521 Q60.0256 943.453 60.0256 939.92 Q60.0256 935.05 56.5881 932.122 Q53.1188 929.162 47.3897 929.162 L46.0847 929.162 L46.0847 934.986 M43.6657 923.305 L64.0042 923.305 L64.0042 929.162 L58.5933 929.162 Q61.8398 931.167 63.3994 934.159 Q64.9272 937.151 64.9272 941.479 Q64.9272 946.954 61.8716 950.2 Q58.7843 953.415 53.6281 953.415 Q47.6125 953.415 44.5569 949.405 Q41.5014 945.362 41.5014 937.373 L41.5014 929.162 L40.9285 929.162 Q36.8862 929.162 34.6901 931.835 Q32.4621 934.477 32.4621 939.283 Q32.4621 942.339 33.1941 945.235 Q33.9262 948.131 35.3903 950.805 L29.9795 950.805 Q28.7381 947.59 28.1334 944.567 Q27.4968 941.543 27.4968 938.678 Q27.4968 930.944 31.5072 927.125 Q35.5176 923.305 43.6657 923.305 Z" fill="#000000" fill-rule="nonzero" fill-opacity="1"></path><path clip-path="url(#clip020)" d="M45.7664 887.784 Q39.4007 887.784 35.8996 890.426 Q32.3984 893.036 32.3984 897.779 Q32.3984 902.489 35.8996 905.131 Q39.4007 907.741 45.7664 907.741 Q52.1003 907.741 55.6014 905.131 Q59.1026 902.489 59.1026 897.779 Q59.1026 893.036 55.6014 890.426 Q52.1003 887.784 45.7664 887.784 M59.58 881.928 Q68.683 881.928 73.1071 885.97 Q77.5631 890.012 77.5631 898.352 Q77.5631 901.439 77.0857 904.176 Q76.6401 906.913 75.6852 909.492 L69.9879 909.492 Q71.3884 906.913 72.0568 904.399 Q72.7252 901.885 72.7252 899.275 Q72.7252 893.514 69.7015 890.649 Q66.7096 887.784 60.6303 887.784 L57.7339 887.784 Q60.885 889.599 62.4446 892.431 Q64.0042 895.264 64.0042 899.211 Q64.0042 905.768 59.0071 909.778 Q54.01 913.788 45.7664 913.788 Q37.491 913.788 32.4939 909.778 Q27.4968 905.768 27.4968 899.211 Q27.4968 895.264 29.0564 892.431 Q30.616 889.599 33.7671 887.784 L28.3562 887.784 L28.3562 881.928 L59.58 881.928 Z" fill="#000000" fill-rule="nonzero" fill-opacity="1"></path><path clip-path="url(#clip020)" d="M44.7161 839.373 L47.5806 839.373 L47.5806 866.3 Q53.6281 865.918 56.8109 862.672 Q59.9619 859.393 59.9619 853.569 Q59.9619 850.195 59.1344 847.044 Q58.3069 843.861 56.6518 840.742 L62.1899 840.742 Q63.5267 843.893 64.227 847.203 Q64.9272 850.513 64.9272 853.919 Q64.9272 862.449 59.9619 867.446 Q54.9967 872.411 46.5303 872.411 Q37.7774 872.411 32.6531 867.701 Q27.4968 862.958 27.4968 854.937 Q27.4968 847.744 32.1438 843.575 Q36.7589 839.373 44.7161 839.373 M42.9973 845.23 Q38.1912 845.293 35.3266 847.935 Q32.4621 850.545 32.4621 854.874 Q32.4621 859.775 35.2312 862.735 Q38.0002 865.664 43.0292 866.109 L42.9973 845.23 Z" fill="#000000" fill-rule="nonzero" fill-opacity="1"></path><path clip-path="url(#clip020)" d="M33.8307 788.384 Q33.2578 789.371 33.0032 790.548 Q32.7167 791.694 32.7167 793.095 Q32.7167 798.06 35.9632 800.733 Q39.1779 803.375 45.2253 803.375 L64.0042 803.375 L64.0042 809.263 L28.3562 809.263 L28.3562 803.375 L33.8944 803.375 Q30.6479 801.529 29.0883 798.569 Q27.4968 795.609 27.4968 791.376 Q27.4968 790.771 27.5923 790.039 Q27.656 789.307 27.8151 788.416 L33.8307 788.384 Z" fill="#000000" fill-rule="nonzero" fill-opacity="1"></path><path clip-path="url(#clip020)" d="M44.7161 753.182 L47.5806 753.182 L47.5806 780.109 Q53.6281 779.727 56.8109 776.48 Q59.9619 773.202 59.9619 767.377 Q59.9619 764.003 59.1344 760.852 Q58.3069 757.669 56.6518 754.55 L62.1899 754.55 Q63.5267 757.701 64.227 761.011 Q64.9272 764.322 64.9272 767.727 Q64.9272 776.257 59.9619 781.254 Q54.9967 786.22 46.5303 786.22 Q37.7774 786.22 32.6531 781.509 Q27.4968 776.767 27.4968 768.746 Q27.4968 761.553 32.1438 757.383 Q36.7589 753.182 44.7161 753.182 M42.9973 759.038 Q38.1912 759.102 35.3266 761.743 Q32.4621 764.353 32.4621 768.682 Q32.4621 773.584 35.2312 776.544 Q38.0002 779.472 43.0292 779.918 L42.9973 759.038 Z" fill="#000000" fill-rule="nonzero" fill-opacity="1"></path><path clip-path="url(#clip020)" d="M14.479 743.569 L14.479 737.713 L64.0042 737.713 L64.0042 743.569 L14.479 743.569 Z" fill="#000000" fill-rule="nonzero" fill-opacity="1"></path><path clip-path="url(#clip020)" d="M46.0847 709.258 Q46.0847 716.356 47.7079 719.093 Q49.3312 721.83 53.2461 721.83 Q56.3653 721.83 58.2114 719.793 Q60.0256 717.725 60.0256 714.192 Q60.0256 709.322 56.5881 706.394 Q53.1188 703.434 47.3897 703.434 L46.0847 703.434 L46.0847 709.258 M43.6657 697.577 L64.0042 697.577 L64.0042 703.434 L58.5933 703.434 Q61.8398 705.439 63.3994 708.431 Q64.9272 711.423 64.9272 715.751 Q64.9272 721.226 61.8716 724.472 Q58.7843 727.687 53.6281 727.687 Q47.6125 727.687 44.5569 723.677 Q41.5014 719.634 41.5014 711.645 L41.5014 703.434 L40.9285 703.434 Q36.8862 703.434 34.6901 706.107 Q32.4621 708.749 32.4621 713.555 Q32.4621 716.611 33.1941 719.507 Q33.9262 722.403 35.3903 725.077 L29.9795 725.077 Q28.7381 721.862 28.1334 718.839 Q27.4968 715.815 27.4968 712.95 Q27.4968 705.216 31.5072 701.397 Q35.5176 697.577 43.6657 697.577 Z" fill="#000000" fill-rule="nonzero" fill-opacity="1"></path><path clip-path="url(#clip020)" d="M18.2347 679.721 L28.3562 679.721 L28.3562 667.658 L32.9077 667.658 L32.9077 679.721 L52.2594 679.721 Q56.6199 679.721 57.8613 678.544 Q59.1026 677.334 59.1026 673.674 L59.1026 667.658 L64.0042 667.658 L64.0042 673.674 Q64.0042 680.453 61.4897 683.032 Q58.9434 685.61 52.2594 685.61 L32.9077 685.61 L32.9077 689.906 L28.3562 689.906 L28.3562 685.61 L18.2347 685.61 L18.2347 679.721 Z" fill="#000000" fill-rule="nonzero" fill-opacity="1"></path><path clip-path="url(#clip020)" d="M28.3562 659.956 L28.3562 654.099 L64.0042 654.099 L64.0042 659.956 L28.3562 659.956 M14.479 659.956 L14.479 654.099 L21.895 654.099 L21.895 659.956 L14.479 659.956 Z" fill="#000000" fill-rule="nonzero" fill-opacity="1"></path><path clip-path="url(#clip020)" d="M28.3562 646.047 L28.3562 639.84 L58.275 628.7 L28.3562 617.56 L28.3562 611.354 L64.0042 624.722 L64.0042 632.679 L28.3562 646.047 Z" fill="#000000" fill-rule="nonzero" fill-opacity="1"></path><path clip-path="url(#clip020)" d="M44.7161 572.777 L47.5806 572.777 L47.5806 599.704 Q53.6281 599.322 56.8109 596.076 Q59.9619 592.798 59.9619 586.973 Q59.9619 583.599 59.1344 580.448 Q58.3069 577.265 56.6518 574.146 L62.1899 574.146 Q63.5267 577.297 64.227 580.607 Q64.9272 583.917 64.9272 587.323 Q64.9272 595.853 59.9619 600.85 Q54.9967 605.815 46.5303 605.815 Q37.7774 605.815 32.6531 601.105 Q27.4968 596.362 27.4968 588.342 Q27.4968 581.148 32.1438 576.979 Q36.7589 572.777 44.7161 572.777 M42.9973 578.634 Q38.1912 578.698 35.3266 581.339 Q32.4621 583.949 32.4621 588.278 Q32.4621 593.18 35.2312 596.14 Q38.0002 599.068 43.0292 599.513 L42.9973 578.634 Z" fill="#000000" fill-rule="nonzero" fill-opacity="1"></path><path clip-path="url(#clip020)" d="M44.7161 511.953 L47.5806 511.953 L47.5806 538.88 Q53.6281 538.498 56.8109 535.252 Q59.9619 531.973 59.9619 526.149 Q59.9619 522.775 59.1344 519.624 Q58.3069 516.441 56.6518 513.322 L62.1899 513.322 Q63.5267 516.473 64.227 519.783 Q64.9272 523.093 64.9272 526.499 Q64.9272 535.029 59.9619 540.026 Q54.9967 544.991 46.5303 544.991 Q37.7774 544.991 32.6531 540.281 Q27.4968 535.538 27.4968 527.517 Q27.4968 520.324 32.1438 516.155 Q36.7589 511.953 44.7161 511.953 M42.9973 517.81 Q38.1912 517.873 35.3266 520.515 Q32.4621 523.125 32.4621 527.454 Q32.4621 532.355 35.2312 535.315 Q38.0002 538.244 43.0292 538.689 L42.9973 517.81 Z" fill="#000000" fill-rule="nonzero" fill-opacity="1"></path><path clip-path="url(#clip020)" d="M33.8307 481.684 Q33.2578 482.671 33.0032 483.849 Q32.7167 484.994 32.7167 486.395 Q32.7167 491.36 35.9632 494.034 Q39.1779 496.675 45.2253 496.675 L64.0042 496.675 L64.0042 502.564 L28.3562 502.564 L28.3562 496.675 L33.8944 496.675 Q30.6479 494.829 29.0883 491.869 Q27.4968 488.909 27.4968 484.676 Q27.4968 484.071 27.5923 483.339 Q27.656 482.607 27.8151 481.716 L33.8307 481.684 Z" fill="#000000" fill-rule="nonzero" fill-opacity="1"></path><path clip-path="url(#clip020)" d="M33.8307 456.03 Q33.2578 457.017 33.0032 458.195 Q32.7167 459.341 32.7167 460.741 Q32.7167 465.706 35.9632 468.38 Q39.1779 471.022 45.2253 471.022 L64.0042 471.022 L64.0042 476.91 L28.3562 476.91 L28.3562 471.022 L33.8944 471.022 Q30.6479 469.176 29.0883 466.216 Q27.4968 463.255 27.4968 459.022 Q27.4968 458.418 27.5923 457.686 Q27.656 456.953 27.8151 456.062 L33.8307 456.03 Z" fill="#000000" fill-rule="nonzero" fill-opacity="1"></path><path clip-path="url(#clip020)" d="M32.4621 437.506 Q32.4621 442.217 36.1542 444.954 Q39.8145 447.691 46.212 447.691 Q52.6095 447.691 56.3017 444.986 Q59.9619 442.249 59.9619 437.506 Q59.9619 432.827 56.2698 430.09 Q52.5777 427.353 46.212 427.353 Q39.8781 427.353 36.186 430.09 Q32.4621 432.827 32.4621 437.506 M27.4968 437.506 Q27.4968 429.867 32.4621 425.507 Q37.4273 421.146 46.212 421.146 Q54.9649 421.146 59.9619 425.507 Q64.9272 429.867 64.9272 437.506 Q64.9272 445.177 59.9619 449.537 Q54.9649 453.866 46.212 453.866 Q37.4273 453.866 32.4621 449.537 Q27.4968 445.177 27.4968 437.506 Z" fill="#000000" fill-rule="nonzero" fill-opacity="1"></path><path clip-path="url(#clip020)" d="M33.8307 390.782 Q33.2578 391.769 33.0032 392.946 Q32.7167 394.092 32.7167 395.493 Q32.7167 400.458 35.9632 403.131 Q39.1779 405.773 45.2253 405.773 L64.0042 405.773 L64.0042 411.661 L28.3562 411.661 L28.3562 405.773 L33.8944 405.773 Q30.6479 403.927 29.0883 400.967 Q27.4968 398.007 27.4968 393.774 Q27.4968 393.169 27.5923 392.437 Q27.656 391.705 27.8151 390.814 L33.8307 390.782 Z" fill="#000000" fill-rule="nonzero" fill-opacity="1"></path><path clip-path="url(#clip020)" d="M560.704 65.6895 L589.263 65.6895 L589.263 72.576 L550.861 72.576 L550.861 65.6895 Q555.519 60.8689 563.54 52.7671 Q571.601 44.6248 573.667 42.2752 Q577.597 37.8598 579.136 34.8216 Q580.716 31.7429 580.716 28.7857 Q580.716 23.9651 577.313 20.927 Q573.951 17.8888 568.523 17.8888 Q564.674 17.8888 560.38 19.2256 Q556.127 20.5624 551.266 23.2765 L551.266 15.0127 Q556.208 13.0277 560.502 12.015 Q564.796 11.0023 568.361 11.0023 Q577.759 11.0023 583.349 15.7013 Q588.939 20.4004 588.939 28.2591 Q588.939 31.9859 587.521 35.3482 Q586.144 38.6699 582.458 43.2069 Q581.445 44.3817 576.017 50.0125 Q570.589 55.6027 560.704 65.6895 Z" fill="#000000" fill-rule="nonzero" fill-opacity="1"></path><path clip-path="url(#clip020)" d="M606.52 12.096 L638.644 12.096 L638.644 18.9825 L614.014 18.9825 L614.014 33.8088 Q615.797 33.2012 617.579 32.9176 Q619.362 32.5936 621.144 32.5936 Q631.271 32.5936 637.186 38.1433 Q643.1 43.6931 643.1 53.1722 Q643.1 62.9348 637.023 68.3631 Q630.947 73.7508 619.888 73.7508 Q616.08 73.7508 612.11 73.1026 Q608.181 72.4545 603.968 71.1582 L603.968 62.9348 Q607.614 64.9198 611.503 65.892 Q615.392 66.8642 619.726 66.8642 Q626.734 66.8642 630.826 63.1779 Q634.917 59.4916 634.917 53.1722 Q634.917 46.8528 630.826 43.1664 Q626.734 39.4801 619.726 39.4801 Q616.445 39.4801 613.164 40.2093 Q609.923 40.9384 606.52 42.4778 L606.52 12.096 Z" fill="#000000" fill-rule="nonzero" fill-opacity="1"></path><path clip-path="url(#clip020)" d="M679.193 27.2059 L687.093 27.2059 L701.271 65.2844 L715.449 27.2059 L723.348 27.2059 L706.334 72.576 L696.207 72.576 L679.193 27.2059 Z" fill="#000000" fill-rule="nonzero" fill-opacity="1"></path><path clip-path="url(#clip020)" d="M754.257 49.7694 Q745.223 49.7694 741.739 51.8354 Q738.256 53.9013 738.256 58.8839 Q738.256 62.8538 740.848 65.2034 Q743.481 67.5124 747.978 67.5124 Q754.176 67.5124 757.902 63.1374 Q761.67 58.7219 761.67 51.4303 L761.67 49.7694 L754.257 49.7694 M769.123 46.6907 L769.123 72.576 L761.67 72.576 L761.67 65.6895 Q759.118 69.8214 755.31 71.8063 Q751.502 73.7508 745.993 73.7508 Q739.025 73.7508 734.893 69.8619 Q730.802 65.9325 730.802 59.3701 Q730.802 51.7138 735.906 47.825 Q741.051 43.9361 751.218 43.9361 L761.67 43.9361 L761.67 43.2069 Q761.67 38.0623 758.267 35.2672 Q754.905 32.4315 748.788 32.4315 Q744.899 32.4315 741.213 33.3632 Q737.526 34.295 734.124 36.1584 L734.124 29.2718 Q738.215 27.692 742.063 26.9223 Q745.912 26.1121 749.558 26.1121 Q759.401 26.1121 764.262 31.2163 Q769.123 36.3204 769.123 46.6907 Z" fill="#000000" fill-rule="nonzero" fill-opacity="1"></path><path clip-path="url(#clip020)" d="M810.767 34.1734 Q809.511 33.4443 808.012 33.1202 Q806.554 32.7556 804.771 32.7556 Q798.452 32.7556 795.049 36.8875 Q791.687 40.9789 791.687 48.6757 L791.687 72.576 L784.193 72.576 L784.193 27.2059 L791.687 27.2059 L791.687 34.2544 Q794.037 30.1225 797.804 28.1376 Q801.571 26.1121 806.959 26.1121 Q807.729 26.1121 808.66 26.2337 Q809.592 26.3147 810.726 26.5172 L810.767 34.1734 Z" fill="#000000" fill-rule="nonzero" fill-opacity="1"></path><path clip-path="url(#clip020)" d="M818.585 27.2059 L826.039 27.2059 L826.039 72.576 L818.585 72.576 L818.585 27.2059 M818.585 9.54393 L826.039 9.54393 L826.039 18.9825 L818.585 18.9825 L818.585 9.54393 Z" fill="#000000" fill-rule="nonzero" fill-opacity="1"></path><path clip-path="url(#clip020)" d="M862.254 49.7694 Q853.22 49.7694 849.736 51.8354 Q846.253 53.9013 846.253 58.8839 Q846.253 62.8538 848.845 65.2034 Q851.478 67.5124 855.975 67.5124 Q862.173 67.5124 865.9 63.1374 Q869.667 58.7219 869.667 51.4303 L869.667 49.7694 L862.254 49.7694 M877.121 46.6907 L877.121 72.576 L869.667 72.576 L869.667 65.6895 Q867.115 69.8214 863.307 71.8063 Q859.499 73.7508 853.99 73.7508 Q847.022 73.7508 842.89 69.8619 Q838.799 65.9325 838.799 59.3701 Q838.799 51.7138 843.903 47.825 Q849.048 43.9361 859.216 43.9361 L869.667 43.9361 L869.667 43.2069 Q869.667 38.0623 866.264 35.2672 Q862.902 32.4315 856.785 32.4315 Q852.896 32.4315 849.21 33.3632 Q845.524 34.295 842.121 36.1584 L842.121 29.2718 Q846.212 27.692 850.061 26.9223 Q853.909 26.1121 857.555 26.1121 Q867.398 26.1121 872.259 31.2163 Q877.121 36.3204 877.121 46.6907 Z" fill="#000000" fill-rule="nonzero" fill-opacity="1"></path><path clip-path="url(#clip020)" d="M925.043 49.9314 Q925.043 41.7081 921.64 37.0496 Q918.278 32.3505 912.363 32.3505 Q906.449 32.3505 903.046 37.0496 Q899.684 41.7081 899.684 49.9314 Q899.684 58.1548 903.046 62.8538 Q906.449 67.5124 912.363 67.5124 Q918.278 67.5124 921.64 62.8538 Q925.043 58.1548 925.043 49.9314 M899.684 34.0924 Q902.034 30.0415 905.598 28.0971 Q909.204 26.1121 914.186 26.1121 Q922.45 26.1121 927.595 32.6746 Q932.78 39.2371 932.78 49.9314 Q932.78 60.6258 927.595 67.1883 Q922.45 73.7508 914.186 73.7508 Q909.204 73.7508 905.598 71.8063 Q902.034 69.8214 899.684 65.7705 L899.684 72.576 L892.19 72.576 L892.19 9.54393 L899.684 9.54393 L899.684 34.0924 Z" fill="#000000" fill-rule="nonzero" fill-opacity="1"></path><path clip-path="url(#clip020)" d="M945.135 9.54393 L952.589 9.54393 L952.589 72.576 L945.135 72.576 L945.135 9.54393 Z" fill="#000000" fill-rule="nonzero" fill-opacity="1"></path><path clip-path="url(#clip020)" d="M1006.99 48.0275 L1006.99 51.6733 L972.722 51.6733 Q973.208 59.3701 977.34 63.421 Q981.512 67.4314 988.926 67.4314 Q993.219 67.4314 997.23 66.3781 Q1001.28 65.3249 1005.25 63.2184 L1005.25 70.267 Q1001.24 71.9684 997.027 72.8596 Q992.814 73.7508 988.48 73.7508 Q977.624 73.7508 971.264 67.4314 Q964.944 61.1119 964.944 50.3365 Q964.944 39.1965 970.94 32.6746 Q976.975 26.1121 987.184 26.1121 Q996.339 26.1121 1001.65 32.0264 Q1006.99 37.9003 1006.99 48.0275 M999.539 45.84 Q999.458 39.7232 996.096 36.0774 Q992.774 32.4315 987.265 32.4315 Q981.026 32.4315 977.259 35.9558 Q973.532 39.4801 972.965 45.8805 L999.539 45.84 Z" fill="#000000" fill-rule="nonzero" fill-opacity="1"></path><path clip-path="url(#clip020)" d="M1048.15 28.5427 L1048.15 35.5912 Q1044.99 33.9709 1041.59 33.1607 Q1038.18 32.3505 1034.54 32.3505 Q1028.99 32.3505 1026.19 34.0519 Q1023.44 35.7533 1023.44 39.156 Q1023.44 41.7486 1025.42 43.2475 Q1027.41 44.7058 1033.4 46.0426 L1035.96 46.6097 Q1043.9 48.3111 1047.22 51.4303 Q1050.58 54.509 1050.58 60.0587 Q1050.58 66.3781 1045.56 70.0644 Q1040.57 73.7508 1031.82 73.7508 Q1028.18 73.7508 1024.21 73.0216 Q1020.28 72.3329 1015.9 70.9151 L1015.9 63.2184 Q1020.04 65.3654 1024.05 66.4591 Q1028.06 67.5124 1031.99 67.5124 Q1037.25 67.5124 1040.09 65.73 Q1042.92 63.9071 1042.92 60.6258 Q1042.92 57.5877 1040.86 55.9673 Q1038.83 54.3469 1031.91 52.8481 L1029.31 52.2405 Q1022.39 50.7821 1019.31 47.7845 Q1016.23 44.7463 1016.23 39.4801 Q1016.23 33.0797 1020.77 29.5959 Q1025.3 26.1121 1033.65 26.1121 Q1037.78 26.1121 1041.43 26.7198 Q1045.07 27.3274 1048.15 28.5427 Z" fill="#000000" fill-rule="nonzero" fill-opacity="1"></path><path clip-path="url(#clip020)" d="M1098.42 9.17935 L1098.42 92.1419 L1091.53 92.1419 L1091.53 9.17935 L1098.42 9.17935 Z" fill="#000000" fill-rule="nonzero" fill-opacity="1"></path><path clip-path="url(#clip020)" d="M1144.28 12.096 L1176.4 12.096 L1176.4 18.9825 L1151.77 18.9825 L1151.77 33.8088 Q1153.55 33.2012 1155.34 32.9176 Q1157.12 32.5936 1158.9 32.5936 Q1169.03 32.5936 1174.94 38.1433 Q1180.86 43.6931 1180.86 53.1722 Q1180.86 62.9348 1174.78 68.3631 Q1168.7 73.7508 1157.65 73.7508 Q1153.84 73.7508 1149.87 73.1026 Q1145.94 72.4545 1141.73 71.1582 L1141.73 62.9348 Q1145.37 64.9198 1149.26 65.892 Q1153.15 66.8642 1157.48 66.8642 Q1164.49 66.8642 1168.58 63.1779 Q1172.67 59.4916 1172.67 53.1722 Q1172.67 46.8528 1168.58 43.1664 Q1164.49 39.4801 1157.48 39.4801 Q1154.2 39.4801 1150.92 40.2093 Q1147.68 40.9384 1144.28 42.4778 L1144.28 12.096 Z" fill="#000000" fill-rule="nonzero" fill-opacity="1"></path><path clip-path="url(#clip020)" d="M1239.88 32.4315 Q1233.88 32.4315 1230.4 37.1306 Q1226.92 41.7891 1226.92 49.9314 Q1226.92 58.0738 1230.36 62.7728 Q1233.84 67.4314 1239.88 67.4314 Q1245.83 67.4314 1249.32 62.7323 Q1252.8 58.0333 1252.8 49.9314 Q1252.8 41.8701 1249.32 37.1711 Q1245.83 32.4315 1239.88 32.4315 M1239.88 26.1121 Q1249.6 26.1121 1255.15 32.4315 Q1260.7 38.7509 1260.7 49.9314 Q1260.7 61.0714 1255.15 67.4314 Q1249.6 73.7508 1239.88 73.7508 Q1230.12 73.7508 1224.57 67.4314 Q1219.06 61.0714 1219.06 49.9314 Q1219.06 38.7509 1224.57 32.4315 Q1230.12 26.1121 1239.88 26.1121 Z" fill="#000000" fill-rule="nonzero" fill-opacity="1"></path><path clip-path="url(#clip020)" d="M1305.63 49.9314 Q1305.63 41.7081 1302.22 37.0496 Q1298.86 32.3505 1292.95 32.3505 Q1287.03 32.3505 1283.63 37.0496 Q1280.27 41.7081 1280.27 49.9314 Q1280.27 58.1548 1283.63 62.8538 Q1287.03 67.5124 1292.95 67.5124 Q1298.86 67.5124 1302.22 62.8538 Q1305.63 58.1548 1305.63 49.9314 M1280.27 34.0924 Q1282.62 30.0415 1286.18 28.0971 Q1289.79 26.1121 1294.77 26.1121 Q1303.03 26.1121 1308.18 32.6746 Q1313.36 39.2371 1313.36 49.9314 Q1313.36 60.6258 1308.18 67.1883 Q1303.03 73.7508 1294.77 73.7508 Q1289.79 73.7508 1286.18 71.8063 Q1282.62 69.8214 1280.27 65.7705 L1280.27 72.576 L1272.77 72.576 L1272.77 9.54393 L1280.27 9.54393 L1280.27 34.0924 Z" fill="#000000" fill-rule="nonzero" fill-opacity="1"></path><path clip-path="url(#clip020)" d="M1325.72 27.2059 L1333.17 27.2059 L1333.17 73.3862 Q1333.17 82.0551 1329.85 85.944 Q1326.57 89.8329 1319.24 89.8329 L1316.4 89.8329 L1316.4 83.5134 L1318.39 83.5134 Q1322.64 83.5134 1324.18 81.5285 Q1325.72 79.5841 1325.72 73.3862 L1325.72 27.2059 M1325.72 9.54393 L1333.17 9.54393 L1333.17 18.9825 L1325.72 18.9825 L1325.72 9.54393 Z" fill="#000000" fill-rule="nonzero" fill-opacity="1"></path><path clip-path="url(#clip020)" d="M1387.58 48.0275 L1387.58 51.6733 L1353.3 51.6733 Q1353.79 59.3701 1357.92 63.421 Q1362.09 67.4314 1369.51 67.4314 Q1373.8 67.4314 1377.81 66.3781 Q1381.86 65.3249 1385.83 63.2184 L1385.83 70.267 Q1381.82 71.9684 1377.61 72.8596 Q1373.4 73.7508 1369.06 73.7508 Q1358.21 73.7508 1351.85 67.4314 Q1345.53 61.1119 1345.53 50.3365 Q1345.53 39.1965 1351.52 32.6746 Q1357.56 26.1121 1367.77 26.1121 Q1376.92 26.1121 1382.23 32.0264 Q1387.58 37.9003 1387.58 48.0275 M1380.12 45.84 Q1380.04 39.7232 1376.68 36.0774 Q1373.36 32.4315 1367.85 32.4315 Q1361.61 32.4315 1357.84 35.9558 Q1354.11 39.4801 1353.55 45.8805 L1380.12 45.84 Z" fill="#000000" fill-rule="nonzero" fill-opacity="1"></path><path clip-path="url(#clip020)" d="M1432.46 28.9478 L1432.46 35.9153 Q1429.3 34.1734 1426.1 33.3227 Q1422.94 32.4315 1419.7 32.4315 Q1412.45 32.4315 1408.44 37.0496 Q1404.43 41.6271 1404.43 49.9314 Q1404.43 58.2358 1408.44 62.8538 Q1412.45 67.4314 1419.7 67.4314 Q1422.94 67.4314 1426.1 66.5807 Q1429.3 65.6895 1432.46 63.9476 L1432.46 70.8341 Q1429.34 72.2924 1425.98 73.0216 Q1422.66 73.7508 1418.89 73.7508 Q1408.64 73.7508 1402.6 67.3098 Q1396.57 60.8689 1396.57 49.9314 Q1396.57 38.832 1402.64 32.472 Q1408.76 26.1121 1419.37 26.1121 Q1422.82 26.1121 1426.1 26.8413 Q1429.38 27.5299 1432.46 28.9478 Z" fill="#000000" fill-rule="nonzero" fill-opacity="1"></path><path clip-path="url(#clip020)" d="M1452.79 14.324 L1452.79 27.2059 L1468.15 27.2059 L1468.15 32.9987 L1452.79 32.9987 L1452.79 57.6282 Q1452.79 63.1779 1454.29 64.7578 Q1455.83 66.3376 1460.49 66.3376 L1468.15 66.3376 L1468.15 72.576 L1460.49 72.576 Q1451.86 72.576 1448.58 69.3758 Q1445.3 66.1351 1445.3 57.6282 L1445.3 32.9987 L1439.83 32.9987 L1439.83 27.2059 L1445.3 27.2059 L1445.3 14.324 L1452.79 14.324 Z" fill="#000000" fill-rule="nonzero" fill-opacity="1"></path><path clip-path="url(#clip020)" d="M1477.95 27.2059 L1485.4 27.2059 L1485.4 72.576 L1477.95 72.576 L1477.95 27.2059 M1477.95 9.54393 L1485.4 9.54393 L1485.4 18.9825 L1477.95 18.9825 L1477.95 9.54393 Z" fill="#000000" fill-rule="nonzero" fill-opacity="1"></path><path clip-path="url(#clip020)" d="M1495.65 27.2059 L1503.55 27.2059 L1517.73 65.2844 L1531.91 27.2059 L1539.81 27.2059 L1522.79 72.576 L1512.67 72.576 L1495.65 27.2059 Z" fill="#000000" fill-rule="nonzero" fill-opacity="1"></path><path clip-path="url(#clip020)" d="M1588.9 48.0275 L1588.9 51.6733 L1554.63 51.6733 Q1555.12 59.3701 1559.25 63.421 Q1563.42 67.4314 1570.84 67.4314 Q1575.13 67.4314 1579.14 66.3781 Q1583.19 65.3249 1587.16 63.2184 L1587.16 70.267 Q1583.15 71.9684 1578.94 72.8596 Q1574.73 73.7508 1570.39 73.7508 Q1559.54 73.7508 1553.18 67.4314 Q1546.86 61.1119 1546.86 50.3365 Q1546.86 39.1965 1552.85 32.6746 Q1558.89 26.1121 1569.1 26.1121 Q1578.25 26.1121 1583.56 32.0264 Q1588.9 37.9003 1588.9 48.0275 M1581.45 45.84 Q1581.37 39.7232 1578.01 36.0774 Q1574.69 32.4315 1569.18 32.4315 Q1562.94 32.4315 1559.17 35.9558 Q1555.44 39.4801 1554.88 45.8805 L1581.45 45.84 Z" fill="#000000" fill-rule="nonzero" fill-opacity="1"></path><path clip-path="url(#clip020)" d="M1630.06 28.5427 L1630.06 35.5912 Q1626.9 33.9709 1623.5 33.1607 Q1620.1 32.3505 1616.45 32.3505 Q1610.9 32.3505 1608.11 34.0519 Q1605.35 35.7533 1605.35 39.156 Q1605.35 41.7486 1607.34 43.2475 Q1609.32 44.7058 1615.32 46.0426 L1617.87 46.6097 Q1625.81 48.3111 1629.13 51.4303 Q1632.49 54.509 1632.49 60.0587 Q1632.49 66.3781 1627.47 70.0644 Q1622.49 73.7508 1613.74 73.7508 Q1610.09 73.7508 1606.12 73.0216 Q1602.19 72.3329 1597.82 70.9151 L1597.82 63.2184 Q1601.95 65.3654 1605.96 66.4591 Q1609.97 67.5124 1613.9 67.5124 Q1619.17 67.5124 1622 65.73 Q1624.84 63.9071 1624.84 60.6258 Q1624.84 57.5877 1622.77 55.9673 Q1620.75 54.3469 1613.82 52.8481 L1611.23 52.2405 Q1604.3 50.7821 1601.22 47.7845 Q1598.14 44.7463 1598.14 39.4801 Q1598.14 33.0797 1602.68 29.5959 Q1607.22 26.1121 1615.56 26.1121 Q1619.69 26.1121 1623.34 26.7198 Q1626.98 27.3274 1630.06 28.5427 Z" fill="#000000" fill-rule="nonzero" fill-opacity="1"></path><path clip-path="url(#clip020)" d="M1680.33 9.17935 L1680.33 92.1419 L1673.45 92.1419 L1673.45 9.17935 L1680.33 9.17935 Z" fill="#000000" fill-rule="nonzero" fill-opacity="1"></path><path clip-path="url(#clip020)" d="M1733.16 65.6895 L1761.72 65.6895 L1761.72 72.576 L1723.31 72.576 L1723.31 65.6895 Q1727.97 60.8689 1735.99 52.7671 Q1744.05 44.6248 1746.12 42.2752 Q1750.05 37.8598 1751.59 34.8216 Q1753.17 31.7429 1753.17 28.7857 Q1753.17 23.9651 1749.77 20.927 Q1746.4 17.8888 1740.98 17.8888 Q1737.13 17.8888 1732.83 19.2256 Q1728.58 20.5624 1723.72 23.2765 L1723.72 15.0127 Q1728.66 13.0277 1732.96 12.015 Q1737.25 11.0023 1740.81 11.0023 Q1750.21 11.0023 1755.8 15.7013 Q1761.39 20.4004 1761.39 28.2591 Q1761.39 31.9859 1759.97 35.3482 Q1758.6 38.6699 1754.91 43.2069 Q1753.9 44.3817 1748.47 50.0125 Q1743.04 55.6027 1733.16 65.6895 Z" fill="#000000" fill-rule="nonzero" fill-opacity="1"></path><path clip-path="url(#clip020)" d="M1796.39 17.4837 Q1790.07 17.4837 1786.87 23.7221 Q1783.71 29.92 1783.71 42.3968 Q1783.71 54.833 1786.87 61.0714 Q1790.07 67.2693 1796.39 67.2693 Q1802.75 67.2693 1805.91 61.0714 Q1809.11 54.833 1809.11 42.3968 Q1809.11 29.92 1805.91 23.7221 Q1802.75 17.4837 1796.39 17.4837 M1796.39 11.0023 Q1806.56 11.0023 1811.91 19.0636 Q1817.29 27.0843 1817.29 42.3968 Q1817.29 57.6687 1811.91 65.73 Q1806.56 73.7508 1796.39 73.7508 Q1786.22 73.7508 1780.84 65.73 Q1775.49 57.6687 1775.49 42.3968 Q1775.49 27.0843 1780.84 19.0636 Q1786.22 11.0023 1796.39 11.0023 Z" fill="#000000" fill-rule="nonzero" fill-opacity="1"></path><path clip-path="url(#clip020)" d="M1864.37 14.324 L1864.37 27.2059 L1879.72 27.2059 L1879.72 32.9987 L1864.37 32.9987 L1864.37 57.6282 Q1864.37 63.1779 1865.87 64.7578 Q1867.4 66.3376 1872.06 66.3376 L1879.72 66.3376 L1879.72 72.576 L1872.06 72.576 Q1863.43 72.576 1860.15 69.3758 Q1856.87 66.1351 1856.87 57.6282 L1856.87 32.9987 L1851.4 32.9987 L1851.4 27.2059 L1856.87 27.2059 L1856.87 14.324 L1864.37 14.324 Z" fill="#000000" fill-rule="nonzero" fill-opacity="1"></path><path clip-path="url(#clip020)" d="M1915.81 34.1734 Q1914.56 33.4443 1913.06 33.1202 Q1911.6 32.7556 1909.82 32.7556 Q1903.5 32.7556 1900.1 36.8875 Q1896.73 40.9789 1896.73 48.6757 L1896.73 72.576 L1889.24 72.576 L1889.24 27.2059 L1896.73 27.2059 L1896.73 34.2544 Q1899.08 30.1225 1902.85 28.1376 Q1906.62 26.1121 1912.01 26.1121 Q1912.77 26.1121 1913.71 26.2337 Q1914.64 26.3147 1915.77 26.5172 L1915.81 34.1734 Z" fill="#000000" fill-rule="nonzero" fill-opacity="1"></path><path clip-path="url(#clip020)" d="M1923.63 27.2059 L1931.08 27.2059 L1931.08 72.576 L1923.63 72.576 L1923.63 27.2059 M1923.63 9.54393 L1931.08 9.54393 L1931.08 18.9825 L1923.63 18.9825 L1923.63 9.54393 Z" fill="#000000" fill-rule="nonzero" fill-opacity="1"></path><path clip-path="url(#clip020)" d="M1967.3 49.7694 Q1958.27 49.7694 1954.78 51.8354 Q1951.3 53.9013 1951.3 58.8839 Q1951.3 62.8538 1953.89 65.2034 Q1956.52 67.5124 1961.02 67.5124 Q1967.22 67.5124 1970.95 63.1374 Q1974.71 58.7219 1974.71 51.4303 L1974.71 49.7694 L1967.3 49.7694 M1982.17 46.6907 L1982.17 72.576 L1974.71 72.576 L1974.71 65.6895 Q1972.16 69.8214 1968.35 71.8063 Q1964.55 73.7508 1959.04 73.7508 Q1952.07 73.7508 1947.94 69.8619 Q1943.85 65.9325 1943.85 59.3701 Q1943.85 51.7138 1948.95 47.825 Q1954.09 43.9361 1964.26 43.9361 L1974.71 43.9361 L1974.71 43.2069 Q1974.71 38.0623 1971.31 35.2672 Q1967.95 32.4315 1961.83 32.4315 Q1957.94 32.4315 1954.26 33.3632 Q1950.57 34.295 1947.17 36.1584 L1947.17 29.2718 Q1951.26 27.692 1955.11 26.9223 Q1958.96 26.1121 1962.6 26.1121 Q1972.44 26.1121 1977.31 31.2163 Q1982.17 36.3204 1982.17 46.6907 Z" fill="#000000" fill-rule="nonzero" fill-opacity="1"></path><path clip-path="url(#clip020)" d="M1997.52 9.54393 L2004.97 9.54393 L2004.97 72.576 L1997.52 72.576 L1997.52 9.54393 Z" fill="#000000" fill-rule="nonzero" fill-opacity="1"></path><path clip-path="url(#clip020)" d="M2049.49 28.5427 L2049.49 35.5912 Q2046.33 33.9709 2042.93 33.1607 Q2039.53 32.3505 2035.88 32.3505 Q2030.33 32.3505 2027.54 34.0519 Q2024.78 35.7533 2024.78 39.156 Q2024.78 41.7486 2026.77 43.2475 Q2028.75 44.7058 2034.75 46.0426 L2037.3 46.6097 Q2045.24 48.3111 2048.56 51.4303 Q2051.92 54.509 2051.92 60.0587 Q2051.92 66.3781 2046.9 70.0644 Q2041.92 73.7508 2033.17 73.7508 Q2029.52 73.7508 2025.55 73.0216 Q2021.62 72.3329 2017.25 70.9151 L2017.25 63.2184 Q2021.38 65.3654 2025.39 66.4591 Q2029.4 67.5124 2033.33 67.5124 Q2038.6 67.5124 2041.43 65.73 Q2044.27 63.9071 2044.27 60.6258 Q2044.27 57.5877 2042.2 55.9673 Q2040.18 54.3469 2033.25 52.8481 L2030.66 52.2405 Q2023.73 50.7821 2020.65 47.7845 Q2017.57 44.7463 2017.57 39.4801 Q2017.57 33.0797 2022.11 29.5959 Q2026.65 26.1121 2034.99 26.1121 Q2039.12 26.1121 2042.77 26.7198 Q2046.41 27.3274 2049.49 28.5427 Z" fill="#000000" fill-rule="nonzero" fill-opacity="1"></path><polyline clip-path="url(#clip022)" style="stroke:#009af9; stroke-linecap:round; stroke-linejoin:round; stroke-width:8; stroke-opacity:1; fill:none" points="309.539,158.642 389.689,829.017 489.876,1109.8 590.063,1183.05 690.25,1201.24 1291.37,1237.85 2293.24,1330.98 "></polyline>
<circle clip-path="url(#clip022)" cx="309.539" cy="158.642" r="14.4" fill="#009af9" fill-rule="evenodd" fill-opacity="1" stroke="#000000" stroke-opacity="1" stroke-width="3.2"></circle>
<circle clip-path="url(#clip022)" cx="389.689" cy="829.017" r="14.4" fill="#009af9" fill-rule="evenodd" fill-opacity="1" stroke="#000000" stroke-opacity="1" stroke-width="3.2"></circle>
<circle clip-path="url(#clip022)" cx="489.876" cy="1109.8" r="14.4" fill="#009af9" fill-rule="evenodd" fill-opacity="1" stroke="#000000" stroke-opacity="1" stroke-width="3.2"></circle>
<circle clip-path="url(#clip022)" cx="590.063" cy="1183.05" r="14.4" fill="#009af9" fill-rule="evenodd" fill-opacity="1" stroke="#000000" stroke-opacity="1" stroke-width="3.2"></circle>
<circle clip-path="url(#clip022)" cx="690.25" cy="1201.24" r="14.4" fill="#009af9" fill-rule="evenodd" fill-opacity="1" stroke="#000000" stroke-opacity="1" stroke-width="3.2"></circle>
<circle clip-path="url(#clip022)" cx="1291.37" cy="1237.85" r="14.4" fill="#009af9" fill-rule="evenodd" fill-opacity="1" stroke="#000000" stroke-opacity="1" stroke-width="3.2"></circle>
<circle clip-path="url(#clip022)" cx="2293.24" cy="1330.98" r="14.4" fill="#009af9" fill-rule="evenodd" fill-opacity="1" stroke="#000000" stroke-opacity="1" stroke-width="3.2"></circle>
</svg>