<svg xmlns="http://www.w3.org/2000/svg" xmlns:xlink="http://www.w3.org/1999/xlink" width="600" height="400" viewBox="0 0 2400 1600">
<defs>
  <clipPath id="clip870">
    <rect x="0" y="0" width="2400" height="1600"></rect>
  </clipPath>
</defs>
<path clip-path="url(#clip870)" d="M0 1600 L2400 1600 L2400 8.88178e-14 L0 8.88178e-14  Z" fill="#ffffff" fill-rule="evenodd" fill-opacity="1"></path>
<defs>
  <clipPath id="clip871">
    <rect x="480" y="0" width="1681" height="1600"></rect>
  </clipPath>
</defs>
<path clip-path="url(#clip870)" d="M279.704 1366.15 L2352.76 1366.15 L2352.76 123.472 L279.704 123.472  Z" fill="#ffffff" fill-rule="evenodd" fill-opacity="1"></path>
<defs>
  <clipPath id="clip872">
    <rect x="279" y="123" width="2074" height="1244"></rect>
  </clipPath>
</defs>
<polyline clip-path="url(#clip872)" style="stroke:#000000; stroke-linecap:round; stroke-linejoin:round; stroke-width:2; stroke-opacity:0.1; fill:none" points="338.375,1366.15 338.375,123.472 "></polyline>
<polyline clip-path="url(#clip872)" style="stroke:#000000; stroke-linecap:round; stroke-linejoin:round; stroke-width:2; stroke-opacity:0.1; fill:none" points="417.394,1366.15 417.394,123.472 "></polyline>
<polyline clip-path="url(#clip872)" style="stroke:#000000; stroke-linecap:round; stroke-linejoin:round; stroke-width:2; stroke-opacity:0.1; fill:none" points="516.167,1366.15 516.167,123.472 "></polyline>
<polyline clip-path="url(#clip872)" style="stroke:#000000; stroke-linecap:round; stroke-linejoin:round; stroke-width:2; stroke-opacity:0.1; fill:none" points="614.94,1366.15 614.94,123.472 "></polyline>
<polyline clip-path="url(#clip872)" style="stroke:#000000; stroke-linecap:round; stroke-linejoin:round; stroke-width:2; stroke-opacity:0.1; fill:none" points="713.713,1366.15 713.713,123.472 "></polyline>
<polyline clip-path="url(#clip872)" style="stroke:#000000; stroke-linecap:round; stroke-linejoin:round; stroke-width:2; stroke-opacity:0.1; fill:none" points="1306.35,1366.15 1306.35,123.472 "></polyline>
<polyline clip-path="url(#clip872)" style="stroke:#000000; stroke-linecap:round; stroke-linejoin:round; stroke-width:2; stroke-opacity:0.1; fill:none" points="2294.08,1366.15 2294.08,123.472 "></polyline>
<polyline clip-path="url(#clip872)" style="stroke:#000000; stroke-linecap:round; stroke-linejoin:round; stroke-width:2; stroke-opacity:0.1; fill:none" points="279.704,1327.34 2352.76,1327.34 "></polyline>
<polyline clip-path="url(#clip872)" style="stroke:#000000; stroke-linecap:round; stroke-linejoin:round; stroke-width:2; stroke-opacity:0.1; fill:none" points="279.704,1146.22 2352.76,1146.22 "></polyline>
<polyline clip-path="url(#clip872)" style="stroke:#000000; stroke-linecap:round; stroke-linejoin:round; stroke-width:2; stroke-opacity:0.1; fill:none" points="279.704,965.106 2352.76,965.106 "></polyline>
<polyline clip-path="url(#clip872)" style="stroke:#000000; stroke-linecap:round; stroke-linejoin:round; stroke-width:2; stroke-opacity:0.1; fill:none" points="279.704,783.992 2352.76,783.992 "></polyline>
<polyline clip-path="url(#clip872)" style="stroke:#000000; stroke-linecap:round; stroke-linejoin:round; stroke-width:2; stroke-opacity:0.1; fill:none" points="279.704,602.877 2352.76,602.877 "></polyline>
<polyline clip-path="url(#clip872)" style="stroke:#000000; stroke-linecap:round; stroke-linejoin:round; stroke-width:2; stroke-opacity:0.1; fill:none" points="279.704,421.762 2352.76,421.762 "></polyline>
<polyline clip-path="url(#clip872)" style="stroke:#000000; stroke-linecap:round; stroke-linejoin:round; stroke-width:2; stroke-opacity:0.1; fill:none" points="279.704,240.647 2352.76,240.647 "></polyline>
<polyline clip-path="url(#clip870)" style="stroke:#000000; stroke-linecap:round; stroke-linejoin:round; stroke-width:4; stroke-opacity:1; fill:none" points="279.704,1366.15 2352.76,1366.15 "></polyline>
<polyline clip-path="url(#clip870)" style="stroke:#000000; stroke-linecap:round; stroke-linejoin:round; stroke-width:4; stroke-opacity:1; fill:none" points="338.375,1366.15 338.375,1347.25 "></polyline>
<polyline clip-path="url(#clip870)" style="stroke:#000000; stroke-linecap:round; stroke-linejoin:round; stroke-width:4; stroke-opacity:1; fill:none" points="417.394,1366.15 417.394,1347.25 "></polyline>
<polyline clip-path="url(#clip870)" style="stroke:#000000; stroke-linecap:round; stroke-linejoin:round; stroke-width:4; stroke-opacity:1; fill:none" points="516.167,1366.15 516.167,1347.25 "></polyline>
<polyline clip-path="url(#clip870)" style="stroke:#000000; stroke-linecap:round; stroke-linejoin:round; stroke-width:4; stroke-opacity:1; fill:none" points="614.94,1366.15 614.94,1347.25 "></polyline>
<polyline clip-path="url(#clip870)" style="stroke:#000000; stroke-linecap:round; stroke-linejoin:round; stroke-width:4; stroke-opacity:1; fill:none" points="713.713,1366.15 713.713,1347.25 "></polyline>
<polyline clip-path="url(#clip870)" style="stroke:#000000; stroke-linecap:round; stroke-linejoin:round; stroke-width:4; stroke-opacity:1; fill:none" points="1306.35,1366.15 1306.35,1347.25 "></polyline>
<polyline clip-path="url(#clip870)" style="stroke:#000000; stroke-linecap:round; stroke-linejoin:round; stroke-width:4; stroke-opacity:1; fill:none" points="2294.08,1366.15 2294.08,1347.25 "></polyline>
<path clip-path="url(#clip870)" d="M290.212 1470.71 L295.613 1465.31 L276.97 1446.67 L272.273 1453.72 L269.261 1450.71 L273.926 1443.69 L277.232 1440.38 L298.887 1462.04 L304.289 1456.64 L307.071 1459.42 L292.995 1473.5 L290.212 1470.71 Z" fill="#000000" fill-rule="nonzero" fill-opacity="1"></path><path clip-path="url(#clip870)" d="M298.56 1423.41 Q296.006 1425.96 297.234 1429.78 Q298.462 1433.56 303.503 1438.6 Q308.528 1443.62 312.325 1444.87 Q316.123 1446.08 318.676 1443.53 Q321.246 1440.96 320.018 1437.17 Q318.791 1433.36 313.766 1428.34 Q308.724 1423.29 304.927 1422.08 Q301.13 1420.84 298.56 1423.41 M295.941 1420.79 Q300.049 1416.68 305.467 1417.78 Q310.885 1418.84 317.072 1425.03 Q323.243 1431.2 324.323 1436.63 Q325.403 1442.04 321.295 1446.14 Q317.187 1450.25 311.769 1449.19 Q306.351 1448.09 300.18 1441.92 Q293.993 1435.73 292.913 1430.33 Q291.832 1424.9 295.941 1420.79 Z" fill="#000000" fill-rule="nonzero" fill-opacity="1"></path><path clip-path="url(#clip870)" d="M319.887 1402.08 Q317.334 1404.64 318.562 1408.45 Q319.789 1412.23 324.831 1417.27 Q329.856 1422.3 333.653 1423.54 Q337.45 1424.75 340.004 1422.2 Q342.574 1419.63 341.346 1415.85 Q340.118 1412.03 335.093 1407.01 Q330.052 1401.97 326.255 1400.76 Q322.457 1399.51 319.887 1402.08 M317.268 1399.46 Q321.377 1395.35 326.795 1396.45 Q332.213 1397.51 338.4 1403.7 Q344.571 1409.87 345.651 1415.31 Q346.731 1420.71 342.623 1424.82 Q338.514 1428.93 333.096 1427.86 Q327.679 1426.76 321.508 1420.59 Q315.321 1414.41 314.24 1409.01 Q313.16 1403.57 317.268 1399.46 Z" fill="#000000" fill-rule="nonzero" fill-opacity="1"></path><path clip-path="url(#clip870)" d="M347.035 1449.6 L360.015 1436.62 L362.798 1439.4 L352.846 1449.35 L358.837 1455.34 Q359.311 1454.38 359.917 1453.54 Q360.506 1452.69 361.227 1451.97 Q365.319 1447.88 369.951 1447.73 Q374.583 1447.58 378.413 1451.42 Q382.358 1455.36 382.096 1460.01 Q381.818 1464.64 377.349 1469.11 Q375.811 1470.65 373.945 1471.99 Q372.095 1473.32 369.869 1474.49 L366.546 1471.17 Q368.821 1470.5 370.786 1469.32 Q372.75 1468.14 374.501 1466.39 Q377.333 1463.56 377.496 1460.42 Q377.66 1457.27 375.107 1454.72 Q372.553 1452.17 369.411 1452.33 Q366.268 1452.5 363.436 1455.33 Q362.11 1456.65 361.079 1458.27 Q360.064 1459.88 359.311 1461.87 L347.035 1449.6 Z" fill="#000000" fill-rule="nonzero" fill-opacity="1"></path><path clip-path="url(#clip870)" d="M377.578 1423.41 Q375.025 1425.96 376.252 1429.78 Q377.48 1433.56 382.521 1438.6 Q387.546 1443.62 391.344 1444.87 Q395.141 1446.08 397.695 1443.53 Q400.265 1440.96 399.037 1437.17 Q397.809 1433.36 392.784 1428.34 Q387.743 1423.29 383.945 1422.08 Q380.148 1420.84 377.578 1423.41 M374.959 1420.79 Q379.068 1416.68 384.486 1417.78 Q389.903 1418.84 396.091 1425.03 Q402.261 1431.2 403.342 1436.63 Q404.422 1442.04 400.314 1446.14 Q396.205 1450.25 390.787 1449.19 Q385.37 1448.09 379.199 1441.92 Q373.012 1435.73 371.931 1430.33 Q370.851 1424.9 374.959 1420.79 Z" fill="#000000" fill-rule="nonzero" fill-opacity="1"></path><path clip-path="url(#clip870)" d="M398.906 1402.08 Q396.353 1404.64 397.58 1408.45 Q398.808 1412.23 403.849 1417.27 Q408.874 1422.3 412.672 1423.54 Q416.469 1424.75 419.022 1422.2 Q421.592 1419.63 420.365 1415.85 Q419.137 1412.03 414.112 1407.01 Q409.071 1401.97 405.273 1400.76 Q401.476 1399.51 398.906 1402.08 M396.287 1399.46 Q400.395 1395.35 405.813 1396.45 Q411.231 1397.51 417.418 1403.7 Q423.589 1409.87 424.669 1415.31 Q425.75 1420.71 421.641 1424.82 Q417.533 1428.93 412.115 1427.86 Q406.697 1426.76 400.526 1420.59 Q394.339 1414.41 393.259 1409.01 Q392.179 1403.57 396.287 1399.46 Z" fill="#000000" fill-rule="nonzero" fill-opacity="1"></path><path clip-path="url(#clip870)" d="M446.676 1492.04 L452.078 1486.64 L433.434 1468 L428.737 1475.05 L425.725 1472.04 L430.39 1465.02 L433.696 1461.71 L455.351 1483.37 L460.753 1477.96 L463.535 1480.75 L449.459 1494.82 L446.676 1492.04 Z" fill="#000000" fill-rule="nonzero" fill-opacity="1"></path><path clip-path="url(#clip870)" d="M455.024 1444.74 Q452.47 1447.29 453.698 1451.1 Q454.926 1454.89 459.967 1459.93 Q464.992 1464.95 468.789 1466.2 Q472.587 1467.41 475.14 1464.85 Q477.71 1462.28 476.482 1458.5 Q475.255 1454.69 470.23 1449.66 Q465.188 1444.62 461.391 1443.41 Q457.594 1442.17 455.024 1444.74 M452.405 1442.12 Q456.513 1438.01 461.931 1439.11 Q467.349 1440.17 473.536 1446.36 Q479.707 1452.53 480.787 1457.96 Q481.868 1463.36 477.759 1467.47 Q473.651 1471.58 468.233 1470.52 Q462.815 1469.42 456.644 1463.25 Q450.457 1457.06 449.377 1451.66 Q448.297 1446.23 452.405 1442.12 Z" fill="#000000" fill-rule="nonzero" fill-opacity="1"></path><path clip-path="url(#clip870)" d="M476.351 1423.41 Q473.798 1425.96 475.026 1429.78 Q476.253 1433.56 481.295 1438.6 Q486.32 1443.62 490.117 1444.87 Q493.914 1446.08 496.468 1443.53 Q499.038 1440.96 497.81 1437.17 Q496.582 1433.36 491.557 1428.34 Q486.516 1423.29 482.719 1422.08 Q478.921 1420.84 476.351 1423.41 M473.733 1420.79 Q477.841 1416.68 483.259 1417.78 Q488.677 1418.84 494.864 1425.03 Q501.035 1431.2 502.115 1436.63 Q503.195 1442.04 499.087 1446.14 Q494.978 1450.25 489.561 1449.19 Q484.143 1448.09 477.972 1441.92 Q471.785 1435.73 470.704 1430.33 Q469.624 1424.9 473.733 1420.79 Z" fill="#000000" fill-rule="nonzero" fill-opacity="1"></path><path clip-path="url(#clip870)" d="M497.679 1402.08 Q495.126 1404.64 496.353 1408.45 Q497.581 1412.23 502.622 1417.27 Q507.647 1422.3 511.445 1423.54 Q515.242 1424.75 517.796 1422.2 Q520.365 1419.63 519.138 1415.85 Q517.91 1412.03 512.885 1407.01 Q507.844 1401.97 504.046 1400.76 Q500.249 1399.51 497.679 1402.08 M495.06 1399.46 Q499.169 1395.35 504.587 1396.45 Q510.004 1397.51 516.192 1403.7 Q522.362 1409.87 523.443 1415.31 Q524.523 1420.71 520.414 1424.82 Q516.306 1428.93 510.888 1427.86 Q505.47 1426.76 499.3 1420.59 Q493.112 1414.41 492.032 1409.01 Q490.952 1403.57 495.06 1399.46 Z" fill="#000000" fill-rule="nonzero" fill-opacity="1"></path><path clip-path="url(#clip870)" d="M545.449 1492.04 L550.851 1486.64 L532.207 1468 L527.51 1475.05 L524.498 1472.04 L529.163 1465.02 L532.469 1461.71 L554.124 1483.37 L559.526 1477.96 L562.308 1480.75 L548.232 1494.82 L545.449 1492.04 Z" fill="#000000" fill-rule="nonzero" fill-opacity="1"></path><path clip-path="url(#clip870)" d="M544.582 1449.6 L557.562 1436.62 L560.344 1439.4 L550.392 1449.35 L556.383 1455.34 Q556.858 1454.38 557.463 1453.54 Q558.053 1452.69 558.773 1451.97 Q562.865 1447.88 567.497 1447.73 Q572.129 1447.58 575.959 1451.42 Q579.904 1455.36 579.642 1460.01 Q579.364 1464.64 574.896 1469.11 Q573.357 1470.65 571.491 1471.99 Q569.641 1473.32 567.415 1474.49 L564.093 1471.17 Q566.368 1470.5 568.332 1469.32 Q570.296 1468.14 572.047 1466.39 Q574.879 1463.56 575.043 1460.42 Q575.207 1457.27 572.653 1454.72 Q570.1 1452.17 566.957 1452.33 Q563.814 1452.5 560.983 1455.33 Q559.657 1456.65 558.626 1458.27 Q557.611 1459.88 556.858 1461.87 L544.582 1449.6 Z" fill="#000000" fill-rule="nonzero" fill-opacity="1"></path><path clip-path="url(#clip870)" d="M575.125 1423.41 Q572.571 1425.96 573.799 1429.78 Q575.026 1433.56 580.068 1438.6 Q585.093 1443.62 588.89 1444.87 Q592.688 1446.08 595.241 1443.53 Q597.811 1440.96 596.583 1437.17 Q595.356 1433.36 590.331 1428.34 Q585.289 1423.29 581.492 1422.08 Q577.694 1420.84 575.125 1423.41 M572.506 1420.79 Q576.614 1416.68 582.032 1417.78 Q587.45 1418.84 593.637 1425.03 Q599.808 1431.2 600.888 1436.63 Q601.968 1442.04 597.86 1446.14 Q593.752 1450.25 588.334 1449.19 Q582.916 1448.09 576.745 1441.92 Q570.558 1435.73 569.478 1430.33 Q568.397 1424.9 572.506 1420.79 Z" fill="#000000" fill-rule="nonzero" fill-opacity="1"></path><path clip-path="url(#clip870)" d="M596.452 1402.08 Q593.899 1404.64 595.127 1408.45 Q596.354 1412.23 601.396 1417.27 Q606.421 1422.3 610.218 1423.54 Q614.015 1424.75 616.569 1422.2 Q619.139 1419.63 617.911 1415.85 Q616.683 1412.03 611.658 1407.01 Q606.617 1401.97 602.82 1400.76 Q599.022 1399.51 596.452 1402.08 M593.833 1399.46 Q597.942 1395.35 603.36 1396.45 Q608.778 1397.51 614.965 1403.7 Q621.135 1409.87 622.216 1415.31 Q623.296 1420.71 619.188 1424.82 Q615.079 1428.93 609.661 1427.86 Q604.244 1426.76 598.073 1420.59 Q591.886 1414.41 590.805 1409.01 Q589.725 1403.57 593.833 1399.46 Z" fill="#000000" fill-rule="nonzero" fill-opacity="1"></path><path clip-path="url(#clip870)" d="M646.498 1489.77 L658.037 1478.23 L660.82 1481.01 L645.303 1496.53 L642.52 1493.74 Q642.455 1489.91 642.422 1483.4 Q642.389 1476.85 642.275 1475.07 Q642.078 1471.7 641.473 1469.85 Q640.867 1467.96 639.672 1466.77 Q637.724 1464.82 635.122 1464.97 Q632.536 1465.1 630.342 1467.29 Q628.787 1468.85 627.592 1471.12 Q626.414 1473.38 625.546 1476.44 L622.207 1473.1 Q623.402 1470.3 624.728 1468.16 Q626.054 1466.02 627.494 1464.58 Q631.292 1460.78 635.449 1460.42 Q639.607 1460.06 642.782 1463.23 Q644.288 1464.74 645.074 1466.67 Q645.859 1468.57 646.203 1471.89 Q646.269 1472.78 646.35 1477.24 Q646.416 1481.7 646.498 1489.77 Z" fill="#000000" fill-rule="nonzero" fill-opacity="1"></path><path clip-path="url(#clip870)" d="M652.57 1444.74 Q650.017 1447.29 651.244 1451.1 Q652.472 1454.89 657.513 1459.93 Q662.538 1464.95 666.336 1466.2 Q670.133 1467.41 672.687 1464.85 Q675.256 1462.28 674.029 1458.5 Q672.801 1454.69 667.776 1449.66 Q662.735 1444.62 658.937 1443.41 Q655.14 1442.17 652.57 1444.74 M649.951 1442.12 Q654.06 1438.01 659.478 1439.11 Q664.895 1440.17 671.083 1446.36 Q677.253 1452.53 678.334 1457.96 Q679.414 1463.36 675.306 1467.47 Q671.197 1471.58 665.779 1470.52 Q660.361 1469.42 654.191 1463.25 Q648.004 1457.06 646.923 1451.66 Q645.843 1446.23 649.951 1442.12 Z" fill="#000000" fill-rule="nonzero" fill-opacity="1"></path><path clip-path="url(#clip870)" d="M673.898 1423.41 Q671.344 1425.96 672.572 1429.78 Q673.8 1433.56 678.841 1438.6 Q683.866 1443.62 687.663 1444.87 Q691.461 1446.08 694.014 1443.53 Q696.584 1440.96 695.357 1437.17 Q694.129 1433.36 689.104 1428.34 Q684.063 1423.29 680.265 1422.08 Q676.468 1420.84 673.898 1423.41 M671.279 1420.79 Q675.387 1416.68 680.805 1417.78 Q686.223 1418.84 692.41 1425.03 Q698.581 1431.2 699.661 1436.63 Q700.742 1442.04 696.633 1446.14 Q692.525 1450.25 687.107 1449.19 Q681.689 1448.09 675.518 1441.92 Q669.331 1435.73 668.251 1430.33 Q667.171 1424.9 671.279 1420.79 Z" fill="#000000" fill-rule="nonzero" fill-opacity="1"></path><path clip-path="url(#clip870)" d="M695.226 1402.08 Q692.672 1404.64 693.9 1408.45 Q695.127 1412.23 700.169 1417.27 Q705.194 1422.3 708.991 1423.54 Q712.789 1424.75 715.342 1422.2 Q717.912 1419.63 716.684 1415.85 Q715.457 1412.03 710.432 1407.01 Q705.39 1401.97 701.593 1400.76 Q697.795 1399.51 695.226 1402.08 M692.607 1399.46 Q696.715 1395.35 702.133 1396.45 Q707.551 1397.51 713.738 1403.7 Q719.909 1409.87 720.989 1415.31 Q722.069 1420.71 717.961 1424.82 Q713.852 1428.93 708.435 1427.86 Q703.017 1426.76 696.846 1420.59 Q690.659 1414.41 689.579 1409.01 Q688.498 1403.57 692.607 1399.46 Z" fill="#000000" fill-rule="nonzero" fill-opacity="1"></path><path clip-path="url(#clip870)" d="M1214.67 1470.93 L1227.65 1457.95 L1230.43 1460.73 L1220.48 1470.68 L1226.47 1476.67 Q1226.94 1475.71 1227.55 1474.87 Q1228.14 1474.02 1228.86 1473.3 Q1232.95 1469.21 1237.58 1469.06 Q1242.21 1468.91 1246.04 1472.74 Q1249.99 1476.69 1249.73 1481.34 Q1249.45 1485.97 1244.98 1490.44 Q1243.44 1491.98 1241.58 1493.32 Q1239.73 1494.64 1237.5 1495.82 L1234.18 1492.5 Q1236.45 1491.83 1238.42 1490.65 Q1240.38 1489.47 1242.13 1487.72 Q1244.96 1484.89 1245.13 1481.75 Q1245.29 1478.6 1242.74 1476.05 Q1240.18 1473.5 1237.04 1473.66 Q1233.9 1473.82 1231.07 1476.65 Q1229.74 1477.98 1228.71 1479.6 Q1227.7 1481.21 1226.94 1483.2 L1214.67 1470.93 Z" fill="#000000" fill-rule="nonzero" fill-opacity="1"></path><path clip-path="url(#clip870)" d="M1245.21 1444.74 Q1242.66 1447.29 1243.88 1451.1 Q1245.11 1454.89 1250.15 1459.93 Q1255.18 1464.95 1258.98 1466.2 Q1262.77 1467.41 1265.33 1464.85 Q1267.9 1462.28 1266.67 1458.5 Q1265.44 1454.69 1260.42 1449.66 Q1255.37 1444.62 1251.58 1443.41 Q1247.78 1442.17 1245.21 1444.74 M1242.59 1442.12 Q1246.7 1438.01 1252.12 1439.11 Q1257.53 1440.17 1263.72 1446.36 Q1269.89 1452.53 1270.97 1457.96 Q1272.05 1463.36 1267.94 1467.47 Q1263.84 1471.58 1258.42 1470.52 Q1253 1469.42 1246.83 1463.25 Q1240.64 1457.06 1239.56 1451.66 Q1238.48 1446.23 1242.59 1442.12 Z" fill="#000000" fill-rule="nonzero" fill-opacity="1"></path><path clip-path="url(#clip870)" d="M1266.54 1423.41 Q1263.98 1425.96 1265.21 1429.78 Q1266.44 1433.56 1271.48 1438.6 Q1276.51 1443.62 1280.3 1444.87 Q1284.1 1446.08 1286.65 1443.53 Q1289.22 1440.96 1288 1437.17 Q1286.77 1433.36 1281.74 1428.34 Q1276.7 1423.29 1272.9 1422.08 Q1269.11 1420.84 1266.54 1423.41 M1263.92 1420.79 Q1268.03 1416.68 1273.44 1417.78 Q1278.86 1418.84 1285.05 1425.03 Q1291.22 1431.2 1292.3 1436.63 Q1293.38 1442.04 1289.27 1446.14 Q1285.16 1450.25 1279.75 1449.19 Q1274.33 1448.09 1268.16 1441.92 Q1261.97 1435.73 1260.89 1430.33 Q1259.81 1424.9 1263.92 1420.79 Z" fill="#000000" fill-rule="nonzero" fill-opacity="1"></path><path clip-path="url(#clip870)" d="M1287.86 1402.08 Q1285.31 1404.64 1286.54 1408.45 Q1287.77 1412.23 1292.81 1417.27 Q1297.83 1422.3 1301.63 1423.54 Q1305.43 1424.75 1307.98 1422.2 Q1310.55 1419.63 1309.32 1415.85 Q1308.1 1412.03 1303.07 1407.01 Q1298.03 1401.97 1294.23 1400.76 Q1290.43 1399.51 1287.86 1402.08 M1285.25 1399.46 Q1289.35 1395.35 1294.77 1396.45 Q1300.19 1397.51 1306.38 1403.7 Q1312.55 1409.87 1313.63 1415.31 Q1314.71 1420.71 1310.6 1424.82 Q1306.49 1428.93 1301.07 1427.86 Q1295.66 1426.76 1289.49 1420.59 Q1283.3 1414.41 1282.22 1409.01 Q1281.14 1403.57 1285.25 1399.46 Z" fill="#000000" fill-rule="nonzero" fill-opacity="1"></path><path clip-path="url(#clip870)" d="M2203.27 1513.37 L2208.67 1507.97 L2190.02 1489.32 L2185.33 1496.38 L2182.31 1493.37 L2186.98 1486.34 L2190.29 1483.04 L2211.94 1504.69 L2217.34 1499.29 L2220.13 1502.07 L2206.05 1516.15 L2203.27 1513.37 Z" fill="#000000" fill-rule="nonzero" fill-opacity="1"></path><path clip-path="url(#clip870)" d="M2211.61 1466.06 Q2209.06 1468.62 2210.29 1472.43 Q2211.52 1476.21 2216.56 1481.25 Q2221.58 1486.28 2225.38 1487.52 Q2229.18 1488.73 2231.73 1486.18 Q2234.3 1483.61 2233.07 1479.83 Q2231.84 1476.02 2226.82 1470.99 Q2221.78 1465.95 2217.98 1464.74 Q2214.18 1463.49 2211.61 1466.06 M2208.99 1463.45 Q2213.1 1459.34 2218.52 1460.43 Q2223.94 1461.5 2230.13 1467.69 Q2236.3 1473.86 2237.38 1479.29 Q2238.46 1484.69 2234.35 1488.8 Q2230.24 1492.91 2224.82 1491.84 Q2219.41 1490.75 2213.23 1484.58 Q2207.05 1478.39 2205.97 1472.99 Q2204.89 1467.55 2208.99 1463.45 Z" fill="#000000" fill-rule="nonzero" fill-opacity="1"></path><path clip-path="url(#clip870)" d="M2232.94 1444.74 Q2230.39 1447.29 2231.62 1451.1 Q2232.84 1454.89 2237.88 1459.93 Q2242.91 1464.95 2246.71 1466.2 Q2250.5 1467.41 2253.06 1464.85 Q2255.63 1462.28 2254.4 1458.5 Q2253.17 1454.69 2248.15 1449.66 Q2243.11 1444.62 2239.31 1443.41 Q2235.51 1442.17 2232.94 1444.74 M2230.32 1442.12 Q2234.43 1438.01 2239.85 1439.11 Q2245.27 1440.17 2251.45 1446.36 Q2257.62 1452.53 2258.7 1457.96 Q2259.79 1463.36 2255.68 1467.47 Q2251.57 1471.58 2246.15 1470.52 Q2240.73 1469.42 2234.56 1463.25 Q2228.37 1457.06 2227.29 1451.66 Q2226.21 1446.23 2230.32 1442.12 Z" fill="#000000" fill-rule="nonzero" fill-opacity="1"></path><path clip-path="url(#clip870)" d="M2254.27 1423.41 Q2251.72 1425.96 2252.94 1429.78 Q2254.17 1433.56 2259.21 1438.6 Q2264.24 1443.62 2268.03 1444.87 Q2271.83 1446.08 2274.39 1443.53 Q2276.96 1440.96 2275.73 1437.17 Q2274.5 1433.36 2269.48 1428.34 Q2264.43 1423.29 2260.64 1422.08 Q2256.84 1420.84 2254.27 1423.41 M2251.65 1420.79 Q2255.76 1416.68 2261.18 1417.78 Q2266.59 1418.84 2272.78 1425.03 Q2278.95 1431.2 2280.03 1436.63 Q2281.11 1442.04 2277 1446.14 Q2272.9 1450.25 2267.48 1449.19 Q2262.06 1448.09 2255.89 1441.92 Q2249.7 1435.73 2248.62 1430.33 Q2247.54 1424.9 2251.65 1420.79 Z" fill="#000000" fill-rule="nonzero" fill-opacity="1"></path><path clip-path="url(#clip870)" d="M2275.6 1402.08 Q2273.04 1404.64 2274.27 1408.45 Q2275.5 1412.23 2280.54 1417.27 Q2285.57 1422.3 2289.36 1423.54 Q2293.16 1424.75 2295.71 1422.2 Q2298.28 1419.63 2297.06 1415.85 Q2295.83 1412.03 2290.8 1407.01 Q2285.76 1401.97 2281.96 1400.76 Q2278.17 1399.51 2275.6 1402.08 M2272.98 1399.46 Q2277.09 1395.35 2282.5 1396.45 Q2287.92 1397.51 2294.11 1403.7 Q2300.28 1409.87 2301.36 1415.31 Q2302.44 1420.71 2298.33 1424.82 Q2294.22 1428.93 2288.81 1427.86 Q2283.39 1426.76 2277.22 1420.59 Q2271.03 1414.41 2269.95 1409.01 Q2268.87 1403.57 2272.98 1399.46 Z" fill="#000000" fill-rule="nonzero" fill-opacity="1"></path><path clip-path="url(#clip870)" d="M1011.09 1549.04 L1019.75 1549.04 L1040.82 1588.79 L1040.82 1549.04 L1047.06 1549.04 L1047.06 1596.56 L1038.4 1596.56 L1017.33 1556.81 L1017.33 1596.56 L1011.09 1596.56 L1011.09 1549.04 Z" fill="#000000" fill-rule="nonzero" fill-opacity="1"></path><path clip-path="url(#clip870)" d="M1058.99 1582.49 L1058.99 1560.91 L1064.85 1560.91 L1064.85 1582.27 Q1064.85 1587.33 1066.82 1589.88 Q1068.79 1592.39 1072.74 1592.39 Q1077.48 1592.39 1080.22 1589.37 Q1082.99 1586.34 1082.99 1581.12 L1082.99 1560.91 L1088.85 1560.91 L1088.85 1596.56 L1082.99 1596.56 L1082.99 1591.08 Q1080.86 1594.33 1078.03 1595.92 Q1075.22 1597.48 1071.5 1597.48 Q1065.36 1597.48 1062.17 1593.66 Q1058.99 1589.84 1058.99 1582.49 M1073.73 1560.05 L1073.73 1560.05 Z" fill="#000000" fill-rule="nonzero" fill-opacity="1"></path><path clip-path="url(#clip870)" d="M1128.66 1567.75 Q1130.86 1563.81 1133.92 1561.93 Q1136.97 1560.05 1141.11 1560.05 Q1146.68 1560.05 1149.7 1563.97 Q1152.73 1567.85 1152.73 1575.04 L1152.73 1596.56 L1146.84 1596.56 L1146.84 1575.23 Q1146.84 1570.11 1145.02 1567.63 Q1143.21 1565.14 1139.49 1565.14 Q1134.93 1565.14 1132.29 1568.17 Q1129.65 1571.19 1129.65 1576.41 L1129.65 1596.56 L1123.76 1596.56 L1123.76 1575.23 Q1123.76 1570.08 1121.95 1567.63 Q1120.13 1565.14 1116.35 1565.14 Q1111.86 1565.14 1109.22 1568.2 Q1106.58 1571.22 1106.58 1576.41 L1106.58 1596.56 L1100.69 1596.56 L1100.69 1560.91 L1106.58 1560.91 L1106.58 1566.45 Q1108.58 1563.17 1111.38 1561.61 Q1114.18 1560.05 1118.03 1560.05 Q1121.92 1560.05 1124.62 1562.03 Q1127.36 1564 1128.66 1567.75 Z" fill="#000000" fill-rule="nonzero" fill-opacity="1"></path><path clip-path="url(#clip870)" d="M1190 1578.77 Q1190 1572.31 1187.32 1568.65 Q1184.68 1564.95 1180.04 1564.95 Q1175.39 1564.95 1172.72 1568.65 Q1170.07 1572.31 1170.07 1578.77 Q1170.07 1585.23 1172.72 1588.92 Q1175.39 1592.58 1180.04 1592.58 Q1184.68 1592.58 1187.32 1588.92 Q1190 1585.23 1190 1578.77 M1170.07 1566.32 Q1171.92 1563.14 1174.72 1561.61 Q1177.55 1560.05 1181.47 1560.05 Q1187.96 1560.05 1192 1565.21 Q1196.08 1570.36 1196.08 1578.77 Q1196.08 1587.17 1192 1592.33 Q1187.96 1597.48 1181.47 1597.48 Q1177.55 1597.48 1174.72 1595.95 Q1171.92 1594.39 1170.07 1591.21 L1170.07 1596.56 L1164.19 1596.56 L1164.19 1547.03 L1170.07 1547.03 L1170.07 1566.32 Z" fill="#000000" fill-rule="nonzero" fill-opacity="1"></path><path clip-path="url(#clip870)" d="M1236.28 1577.27 L1236.28 1580.14 L1209.35 1580.14 Q1209.73 1586.18 1212.98 1589.37 Q1216.26 1592.52 1222.08 1592.52 Q1225.45 1592.52 1228.61 1591.69 Q1231.79 1590.86 1234.91 1589.21 L1234.91 1594.74 Q1231.76 1596.08 1228.45 1596.78 Q1225.14 1597.48 1221.73 1597.48 Q1213.2 1597.48 1208.2 1592.52 Q1203.24 1587.55 1203.24 1579.09 Q1203.24 1570.33 1207.95 1565.21 Q1212.69 1560.05 1220.71 1560.05 Q1227.91 1560.05 1232.08 1564.7 Q1236.28 1569.31 1236.28 1577.27 M1230.42 1575.55 Q1230.36 1570.75 1227.71 1567.88 Q1225.1 1565.02 1220.78 1565.02 Q1215.87 1565.02 1212.91 1567.79 Q1209.99 1570.56 1209.54 1575.58 L1230.42 1575.55 Z" fill="#000000" fill-rule="nonzero" fill-opacity="1"></path><path clip-path="url(#clip870)" d="M1266.55 1566.39 Q1265.56 1565.81 1264.38 1565.56 Q1263.24 1565.27 1261.83 1565.27 Q1256.87 1565.27 1254.2 1568.52 Q1251.55 1571.73 1251.55 1577.78 L1251.55 1596.56 L1245.67 1596.56 L1245.67 1560.91 L1251.55 1560.91 L1251.55 1566.45 Q1253.4 1563.2 1256.36 1561.64 Q1259.32 1560.05 1263.55 1560.05 Q1264.16 1560.05 1264.89 1560.15 Q1265.62 1560.21 1266.51 1560.37 L1266.55 1566.39 Z" fill="#000000" fill-rule="nonzero" fill-opacity="1"></path><path clip-path="url(#clip870)" d="M1307.22 1565.02 Q1302.51 1565.02 1299.77 1568.71 Q1297.04 1572.37 1297.04 1578.77 Q1297.04 1585.16 1299.74 1588.86 Q1302.48 1592.52 1307.22 1592.52 Q1311.9 1592.52 1314.64 1588.82 Q1317.38 1585.13 1317.38 1578.77 Q1317.38 1572.43 1314.64 1568.74 Q1311.9 1565.02 1307.22 1565.02 M1307.22 1560.05 Q1314.86 1560.05 1319.22 1565.02 Q1323.58 1569.98 1323.58 1578.77 Q1323.58 1587.52 1319.22 1592.52 Q1314.86 1597.48 1307.22 1597.48 Q1299.55 1597.48 1295.19 1592.52 Q1290.86 1587.52 1290.86 1578.77 Q1290.86 1569.98 1295.19 1565.02 Q1299.55 1560.05 1307.22 1560.05 Z" fill="#000000" fill-rule="nonzero" fill-opacity="1"></path><path clip-path="url(#clip870)" d="M1351.34 1547.03 L1351.34 1551.9 L1345.73 1551.9 Q1342.58 1551.9 1341.34 1553.18 Q1340.13 1554.45 1340.13 1557.76 L1340.13 1560.91 L1349.78 1560.91 L1349.78 1565.46 L1340.13 1565.46 L1340.13 1596.56 L1334.24 1596.56 L1334.24 1565.46 L1328.64 1565.46 L1328.64 1560.91 L1334.24 1560.91 L1334.24 1558.43 Q1334.24 1552.48 1337.01 1549.77 Q1339.78 1547.03 1345.8 1547.03 L1351.34 1547.03 Z" fill="#000000" fill-rule="nonzero" fill-opacity="1"></path><path clip-path="url(#clip870)" d="M1373.55 1560.91 L1379.41 1560.91 L1386.73 1588.73 L1394.02 1560.91 L1400.93 1560.91 L1408.25 1588.73 L1415.53 1560.91 L1421.39 1560.91 L1412.07 1596.56 L1405.16 1596.56 L1397.49 1567.34 L1389.79 1596.56 L1382.88 1596.56 L1373.55 1560.91 Z" fill="#000000" fill-rule="nonzero" fill-opacity="1"></path><path clip-path="url(#clip870)" d="M1460.76 1577.27 L1460.76 1580.14 L1433.84 1580.14 Q1434.22 1586.18 1437.46 1589.37 Q1440.74 1592.52 1446.57 1592.52 Q1449.94 1592.52 1453.09 1591.69 Q1456.28 1590.86 1459.39 1589.21 L1459.39 1594.74 Q1456.24 1596.08 1452.93 1596.78 Q1449.62 1597.48 1446.22 1597.48 Q1437.69 1597.48 1432.69 1592.52 Q1427.73 1587.55 1427.73 1579.09 Q1427.73 1570.33 1432.44 1565.21 Q1437.18 1560.05 1445.2 1560.05 Q1452.39 1560.05 1456.56 1564.7 Q1460.76 1569.31 1460.76 1577.27 M1454.91 1575.55 Q1454.84 1570.75 1452.2 1567.88 Q1449.59 1565.02 1445.26 1565.02 Q1440.36 1565.02 1437.4 1567.79 Q1434.47 1570.56 1434.03 1575.58 L1454.91 1575.55 Z" fill="#000000" fill-rule="nonzero" fill-opacity="1"></path><path clip-path="url(#clip870)" d="M1470.38 1560.91 L1476.23 1560.91 L1476.23 1596.56 L1470.38 1596.56 L1470.38 1560.91 M1470.38 1547.03 L1476.23 1547.03 L1476.23 1554.45 L1470.38 1554.45 L1470.38 1547.03 Z" fill="#000000" fill-rule="nonzero" fill-opacity="1"></path><path clip-path="url(#clip870)" d="M1511.94 1578.32 Q1511.94 1571.96 1509.3 1568.45 Q1506.69 1564.95 1501.95 1564.95 Q1497.24 1564.95 1494.6 1568.45 Q1491.99 1571.96 1491.99 1578.32 Q1491.99 1584.66 1494.6 1588.16 Q1497.24 1591.66 1501.95 1591.66 Q1506.69 1591.66 1509.3 1588.16 Q1511.94 1584.66 1511.94 1578.32 M1517.8 1592.13 Q1517.8 1601.24 1513.76 1605.66 Q1509.72 1610.12 1501.38 1610.12 Q1498.29 1610.12 1495.55 1609.64 Q1492.81 1609.2 1490.24 1608.24 L1490.24 1602.54 Q1492.81 1603.94 1495.33 1604.61 Q1497.84 1605.28 1500.45 1605.28 Q1506.21 1605.28 1509.08 1602.26 Q1511.94 1599.26 1511.94 1593.19 L1511.94 1590.29 Q1510.13 1593.44 1507.3 1595 Q1504.46 1596.56 1500.52 1596.56 Q1493.96 1596.56 1489.95 1591.56 Q1485.94 1586.56 1485.94 1578.32 Q1485.94 1570.05 1489.95 1565.05 Q1493.96 1560.05 1500.52 1560.05 Q1504.46 1560.05 1507.3 1561.61 Q1510.13 1563.17 1511.94 1566.32 L1511.94 1560.91 L1517.8 1560.91 L1517.8 1592.13 Z" fill="#000000" fill-rule="nonzero" fill-opacity="1"></path><path clip-path="url(#clip870)" d="M1559.5 1575.04 L1559.5 1596.56 L1553.64 1596.56 L1553.64 1575.23 Q1553.64 1570.17 1551.67 1567.66 Q1549.69 1565.14 1545.75 1565.14 Q1541 1565.14 1538.27 1568.17 Q1535.53 1571.19 1535.53 1576.41 L1535.53 1596.56 L1529.64 1596.56 L1529.64 1547.03 L1535.53 1547.03 L1535.53 1566.45 Q1537.63 1563.23 1540.46 1561.64 Q1543.33 1560.05 1547.05 1560.05 Q1553.19 1560.05 1556.34 1563.87 Q1559.5 1567.66 1559.5 1575.04 Z" fill="#000000" fill-rule="nonzero" fill-opacity="1"></path><path clip-path="url(#clip870)" d="M1576.97 1550.79 L1576.97 1560.91 L1589.03 1560.91 L1589.03 1565.46 L1576.97 1565.46 L1576.97 1584.81 Q1576.97 1589.17 1578.15 1590.42 Q1579.36 1591.66 1583.02 1591.66 L1589.03 1591.66 L1589.03 1596.56 L1583.02 1596.56 Q1576.24 1596.56 1573.66 1594.04 Q1571.08 1591.5 1571.08 1584.81 L1571.08 1565.46 L1566.78 1565.46 L1566.78 1560.91 L1571.08 1560.91 L1571.08 1550.79 L1576.97 1550.79 Z" fill="#000000" fill-rule="nonzero" fill-opacity="1"></path><path clip-path="url(#clip870)" d="M1619.46 1561.96 L1619.46 1567.5 Q1616.98 1566.23 1614.3 1565.59 Q1611.63 1564.95 1608.77 1564.95 Q1604.41 1564.95 1602.21 1566.29 Q1600.04 1567.63 1600.04 1570.3 Q1600.04 1572.34 1601.6 1573.52 Q1603.16 1574.66 1607.87 1575.71 L1609.88 1576.16 Q1616.12 1577.49 1618.73 1579.94 Q1621.37 1582.36 1621.37 1586.72 Q1621.37 1591.69 1617.42 1594.59 Q1613.51 1597.48 1606.63 1597.48 Q1603.77 1597.48 1600.65 1596.91 Q1597.56 1596.37 1594.12 1595.25 L1594.12 1589.21 Q1597.37 1590.89 1600.52 1591.75 Q1603.67 1592.58 1606.76 1592.58 Q1610.9 1592.58 1613.13 1591.18 Q1615.35 1589.75 1615.35 1587.17 Q1615.35 1584.78 1613.73 1583.51 Q1612.14 1582.24 1606.7 1581.06 L1604.66 1580.58 Q1599.22 1579.44 1596.8 1577.08 Q1594.38 1574.69 1594.38 1570.56 Q1594.38 1565.53 1597.94 1562.79 Q1601.51 1560.05 1608.07 1560.05 Q1611.31 1560.05 1614.18 1560.53 Q1617.04 1561.01 1619.46 1561.96 Z" fill="#000000" fill-rule="nonzero" fill-opacity="1"></path><polyline clip-path="url(#clip870)" style="stroke:#000000; stroke-linecap:round; stroke-linejoin:round; stroke-width:4; stroke-opacity:1; fill:none" points="279.704,1366.15 279.704,123.472 "></polyline>
<polyline clip-path="url(#clip870)" style="stroke:#000000; stroke-linecap:round; stroke-linejoin:round; stroke-width:4; stroke-opacity:1; fill:none" points="279.704,1327.34 298.602,1327.34 "></polyline>
<polyline clip-path="url(#clip870)" style="stroke:#000000; stroke-linecap:round; stroke-linejoin:round; stroke-width:4; stroke-opacity:1; fill:none" points="279.704,1146.22 298.602,1146.22 "></polyline>
<polyline clip-path="url(#clip870)" style="stroke:#000000; stroke-linecap:round; stroke-linejoin:round; stroke-width:4; stroke-opacity:1; fill:none" points="279.704,965.106 298.602,965.106 "></polyline>
<polyline clip-path="url(#clip870)" style="stroke:#000000; stroke-linecap:round; stroke-linejoin:round; stroke-width:4; stroke-opacity:1; fill:none" points="279.704,783.992 298.602,783.992 "></polyline>
<polyline clip-path="url(#clip870)" style="stroke:#000000; stroke-linecap:round; stroke-linejoin:round; stroke-width:4; stroke-opacity:1; fill:none" points="279.704,602.877 298.602,602.877 "></polyline>
<polyline clip-path="url(#clip870)" style="stroke:#000000; stroke-linecap:round; stroke-linejoin:round; stroke-width:4; stroke-opacity:1; fill:none" points="279.704,421.762 298.602,421.762 "></polyline>
<polyline clip-path="url(#clip870)" style="stroke:#000000; stroke-linecap:round; stroke-linejoin:round; stroke-width:4; stroke-opacity:1; fill:none" points="279.704,240.647 298.602,240.647 "></polyline>
<path clip-path="url(#clip870)" d="M127.2 1313.13 Q123.589 1313.13 121.76 1316.7 Q119.955 1320.24 119.955 1327.37 Q119.955 1334.48 121.76 1338.04 Q123.589 1341.58 127.2 1341.58 Q130.834 1341.58 132.64 1338.04 Q134.468 1334.48 134.468 1327.37 Q134.468 1320.24 132.64 1316.7 Q130.834 1313.13 127.2 1313.13 M127.2 1309.43 Q133.01 1309.43 136.066 1314.04 Q139.144 1318.62 139.144 1327.37 Q139.144 1336.1 136.066 1340.7 Q133.01 1345.29 127.2 1345.29 Q121.39 1345.29 118.311 1340.7 Q115.256 1336.1 115.256 1327.37 Q115.256 1318.62 118.311 1314.04 Q121.39 1309.43 127.2 1309.43 Z" fill="#000000" fill-rule="nonzero" fill-opacity="1"></path><path clip-path="url(#clip870)" d="M147.362 1338.74 L152.246 1338.74 L152.246 1344.62 L147.362 1344.62 L147.362 1338.74 Z" fill="#000000" fill-rule="nonzero" fill-opacity="1"></path><path clip-path="url(#clip870)" d="M172.431 1313.13 Q168.82 1313.13 166.991 1316.7 Q165.186 1320.24 165.186 1327.37 Q165.186 1334.48 166.991 1338.04 Q168.82 1341.58 172.431 1341.58 Q176.065 1341.58 177.871 1338.04 Q179.7 1334.48 179.7 1327.37 Q179.7 1320.24 177.871 1316.7 Q176.065 1313.13 172.431 1313.13 M172.431 1309.43 Q178.241 1309.43 181.297 1314.04 Q184.376 1318.62 184.376 1327.37 Q184.376 1336.1 181.297 1340.7 Q178.241 1345.29 172.431 1345.29 Q166.621 1345.29 163.542 1340.7 Q160.487 1336.1 160.487 1327.37 Q160.487 1318.62 163.542 1314.04 Q166.621 1309.43 172.431 1309.43 Z" fill="#000000" fill-rule="nonzero" fill-opacity="1"></path><path clip-path="url(#clip870)" d="M202.593 1313.13 Q198.982 1313.13 197.153 1316.7 Q195.348 1320.24 195.348 1327.37 Q195.348 1334.48 197.153 1338.04 Q198.982 1341.58 202.593 1341.58 Q206.227 1341.58 208.033 1338.04 Q209.861 1334.48 209.861 1327.37 Q209.861 1320.24 208.033 1316.7 Q206.227 1313.13 202.593 1313.13 M202.593 1309.43 Q208.403 1309.43 211.459 1314.04 Q214.537 1318.62 214.537 1327.37 Q214.537 1336.1 211.459 1340.7 Q208.403 1345.29 202.593 1345.29 Q196.783 1345.29 193.704 1340.7 Q190.649 1336.1 190.649 1327.37 Q190.649 1318.62 193.704 1314.04 Q196.783 1309.43 202.593 1309.43 Z" fill="#000000" fill-rule="nonzero" fill-opacity="1"></path><path clip-path="url(#clip870)" d="M222.801 1310.06 L241.158 1310.06 L241.158 1313.99 L227.084 1313.99 L227.084 1322.46 Q228.102 1322.12 229.121 1321.95 Q230.139 1321.77 231.158 1321.77 Q236.945 1321.77 240.324 1324.94 Q243.704 1328.11 243.704 1333.53 Q243.704 1339.11 240.232 1342.21 Q236.76 1345.29 230.44 1345.29 Q228.264 1345.29 225.996 1344.92 Q223.75 1344.55 221.343 1343.81 L221.343 1339.11 Q223.426 1340.24 225.648 1340.8 Q227.871 1341.35 230.347 1341.35 Q234.352 1341.35 236.69 1339.25 Q239.028 1337.14 239.028 1333.53 Q239.028 1329.92 236.69 1327.81 Q234.352 1325.7 230.347 1325.7 Q228.473 1325.7 226.598 1326.12 Q224.746 1326.54 222.801 1327.42 L222.801 1310.06 Z" fill="#000000" fill-rule="nonzero" fill-opacity="1"></path><path clip-path="url(#clip870)" d="M126.205 1132.02 Q122.593 1132.02 120.765 1135.58 Q118.959 1139.13 118.959 1146.26 Q118.959 1153.36 120.765 1156.93 Q122.593 1160.47 126.205 1160.47 Q129.839 1160.47 131.644 1156.93 Q133.473 1153.36 133.473 1146.26 Q133.473 1139.13 131.644 1135.58 Q129.839 1132.02 126.205 1132.02 M126.205 1128.32 Q132.015 1128.32 135.07 1132.92 Q138.149 1137.51 138.149 1146.26 Q138.149 1154.98 135.07 1159.59 Q132.015 1164.17 126.205 1164.17 Q120.394 1164.17 117.316 1159.59 Q114.26 1154.98 114.26 1146.26 Q114.26 1137.51 117.316 1132.92 Q120.394 1128.32 126.205 1128.32 Z" fill="#000000" fill-rule="nonzero" fill-opacity="1"></path><path clip-path="url(#clip870)" d="M146.366 1157.62 L151.251 1157.62 L151.251 1163.5 L146.366 1163.5 L146.366 1157.62 Z" fill="#000000" fill-rule="nonzero" fill-opacity="1"></path><path clip-path="url(#clip870)" d="M171.436 1132.02 Q167.825 1132.02 165.996 1135.58 Q164.19 1139.13 164.19 1146.26 Q164.19 1153.36 165.996 1156.93 Q167.825 1160.47 171.436 1160.47 Q175.07 1160.47 176.876 1156.93 Q178.704 1153.36 178.704 1146.26 Q178.704 1139.13 176.876 1135.58 Q175.07 1132.02 171.436 1132.02 M171.436 1128.32 Q177.246 1128.32 180.301 1132.92 Q183.38 1137.51 183.38 1146.26 Q183.38 1154.98 180.301 1159.59 Q177.246 1164.17 171.436 1164.17 Q165.626 1164.17 162.547 1159.59 Q159.491 1154.98 159.491 1146.26 Q159.491 1137.51 162.547 1132.92 Q165.626 1128.32 171.436 1128.32 Z" fill="#000000" fill-rule="nonzero" fill-opacity="1"></path><path clip-path="url(#clip870)" d="M192.408 1159.57 L200.047 1159.57 L200.047 1133.2 L191.737 1134.87 L191.737 1130.61 L200 1128.94 L204.676 1128.94 L204.676 1159.57 L212.315 1159.57 L212.315 1163.5 L192.408 1163.5 L192.408 1159.57 Z" fill="#000000" fill-rule="nonzero" fill-opacity="1"></path><path clip-path="url(#clip870)" d="M231.76 1132.02 Q228.148 1132.02 226.32 1135.58 Q224.514 1139.13 224.514 1146.26 Q224.514 1153.36 226.32 1156.93 Q228.148 1160.47 231.76 1160.47 Q235.394 1160.47 237.199 1156.93 Q239.028 1153.36 239.028 1146.26 Q239.028 1139.13 237.199 1135.58 Q235.394 1132.02 231.76 1132.02 M231.76 1128.32 Q237.57 1128.32 240.625 1132.92 Q243.704 1137.51 243.704 1146.26 Q243.704 1154.98 240.625 1159.59 Q237.57 1164.17 231.76 1164.17 Q225.949 1164.17 222.871 1159.59 Q219.815 1154.98 219.815 1146.26 Q219.815 1137.51 222.871 1132.92 Q225.949 1128.32 231.76 1128.32 Z" fill="#000000" fill-rule="nonzero" fill-opacity="1"></path><path clip-path="url(#clip870)" d="M127.2 950.905 Q123.589 950.905 121.76 954.47 Q119.955 958.012 119.955 965.141 Q119.955 972.248 121.76 975.812 Q123.589 979.354 127.2 979.354 Q130.834 979.354 132.64 975.812 Q134.468 972.248 134.468 965.141 Q134.468 958.012 132.64 954.47 Q130.834 950.905 127.2 950.905 M127.2 947.201 Q133.01 947.201 136.066 951.808 Q139.144 956.391 139.144 965.141 Q139.144 973.868 136.066 978.474 Q133.01 983.058 127.2 983.058 Q121.39 983.058 118.311 978.474 Q115.256 973.868 115.256 965.141 Q115.256 956.391 118.311 951.808 Q121.39 947.201 127.2 947.201 Z" fill="#000000" fill-rule="nonzero" fill-opacity="1"></path><path clip-path="url(#clip870)" d="M147.362 976.507 L152.246 976.507 L152.246 982.386 L147.362 982.386 L147.362 976.507 Z" fill="#000000" fill-rule="nonzero" fill-opacity="1"></path><path clip-path="url(#clip870)" d="M172.431 950.905 Q168.82 950.905 166.991 954.47 Q165.186 958.012 165.186 965.141 Q165.186 972.248 166.991 975.812 Q168.82 979.354 172.431 979.354 Q176.065 979.354 177.871 975.812 Q179.7 972.248 179.7 965.141 Q179.7 958.012 177.871 954.47 Q176.065 950.905 172.431 950.905 M172.431 947.201 Q178.241 947.201 181.297 951.808 Q184.376 956.391 184.376 965.141 Q184.376 973.868 181.297 978.474 Q178.241 983.058 172.431 983.058 Q166.621 983.058 163.542 978.474 Q160.487 973.868 160.487 965.141 Q160.487 956.391 163.542 951.808 Q166.621 947.201 172.431 947.201 Z" fill="#000000" fill-rule="nonzero" fill-opacity="1"></path><path clip-path="url(#clip870)" d="M193.403 978.451 L201.042 978.451 L201.042 952.086 L192.732 953.752 L192.732 949.493 L200.996 947.826 L205.672 947.826 L205.672 978.451 L213.311 978.451 L213.311 982.386 L193.403 982.386 L193.403 978.451 Z" fill="#000000" fill-rule="nonzero" fill-opacity="1"></path><path clip-path="url(#clip870)" d="M222.801 947.826 L241.158 947.826 L241.158 951.762 L227.084 951.762 L227.084 960.234 Q228.102 959.887 229.121 959.725 Q230.139 959.539 231.158 959.539 Q236.945 959.539 240.324 962.711 Q243.704 965.882 243.704 971.299 Q243.704 976.877 240.232 979.979 Q236.76 983.058 230.44 983.058 Q228.264 983.058 225.996 982.687 Q223.75 982.317 221.343 981.576 L221.343 976.877 Q223.426 978.011 225.648 978.567 Q227.871 979.123 230.347 979.123 Q234.352 979.123 236.69 977.016 Q239.028 974.91 239.028 971.299 Q239.028 967.687 236.69 965.581 Q234.352 963.474 230.347 963.474 Q228.473 963.474 226.598 963.891 Q224.746 964.308 222.801 965.187 L222.801 947.826 Z" fill="#000000" fill-rule="nonzero" fill-opacity="1"></path><path clip-path="url(#clip870)" d="M126.205 769.79 Q122.593 769.79 120.765 773.355 Q118.959 776.897 118.959 784.026 Q118.959 791.133 120.765 794.698 Q122.593 798.239 126.205 798.239 Q129.839 798.239 131.644 794.698 Q133.473 791.133 133.473 784.026 Q133.473 776.897 131.644 773.355 Q129.839 769.79 126.205 769.79 M126.205 766.087 Q132.015 766.087 135.07 770.693 Q138.149 775.276 138.149 784.026 Q138.149 792.753 135.07 797.36 Q132.015 801.943 126.205 801.943 Q120.394 801.943 117.316 797.36 Q114.26 792.753 114.26 784.026 Q114.26 775.276 117.316 770.693 Q120.394 766.087 126.205 766.087 Z" fill="#000000" fill-rule="nonzero" fill-opacity="1"></path><path clip-path="url(#clip870)" d="M146.366 795.392 L151.251 795.392 L151.251 801.272 L146.366 801.272 L146.366 795.392 Z" fill="#000000" fill-rule="nonzero" fill-opacity="1"></path><path clip-path="url(#clip870)" d="M171.436 769.79 Q167.825 769.79 165.996 773.355 Q164.19 776.897 164.19 784.026 Q164.19 791.133 165.996 794.698 Q167.825 798.239 171.436 798.239 Q175.07 798.239 176.876 794.698 Q178.704 791.133 178.704 784.026 Q178.704 776.897 176.876 773.355 Q175.07 769.79 171.436 769.79 M171.436 766.087 Q177.246 766.087 180.301 770.693 Q183.38 775.276 183.38 784.026 Q183.38 792.753 180.301 797.36 Q177.246 801.943 171.436 801.943 Q165.626 801.943 162.547 797.36 Q159.491 792.753 159.491 784.026 Q159.491 775.276 162.547 770.693 Q165.626 766.087 171.436 766.087 Z" fill="#000000" fill-rule="nonzero" fill-opacity="1"></path><path clip-path="url(#clip870)" d="M195.625 797.336 L211.945 797.336 L211.945 801.272 L190 801.272 L190 797.336 Q192.663 794.582 197.246 789.952 Q201.852 785.3 203.033 783.957 Q205.278 781.434 206.158 779.698 Q207.061 777.938 207.061 776.249 Q207.061 773.494 205.116 771.758 Q203.195 770.022 200.093 770.022 Q197.894 770.022 195.44 770.786 Q193.01 771.55 190.232 773.1 L190.232 768.378 Q193.056 767.244 195.51 766.665 Q197.963 766.087 200 766.087 Q205.371 766.087 208.565 768.772 Q211.76 771.457 211.76 775.948 Q211.76 778.077 210.949 779.999 Q210.162 781.897 208.056 784.489 Q207.477 785.161 204.375 788.378 Q201.274 791.573 195.625 797.336 Z" fill="#000000" fill-rule="nonzero" fill-opacity="1"></path><path clip-path="url(#clip870)" d="M231.76 769.79 Q228.148 769.79 226.32 773.355 Q224.514 776.897 224.514 784.026 Q224.514 791.133 226.32 794.698 Q228.148 798.239 231.76 798.239 Q235.394 798.239 237.199 794.698 Q239.028 791.133 239.028 784.026 Q239.028 776.897 237.199 773.355 Q235.394 769.79 231.76 769.79 M231.76 766.087 Q237.57 766.087 240.625 770.693 Q243.704 775.276 243.704 784.026 Q243.704 792.753 240.625 797.36 Q237.57 801.943 231.76 801.943 Q225.949 801.943 222.871 797.36 Q219.815 792.753 219.815 784.026 Q219.815 775.276 222.871 770.693 Q225.949 766.087 231.76 766.087 Z" fill="#000000" fill-rule="nonzero" fill-opacity="1"></path><path clip-path="url(#clip870)" d="M127.2 588.676 Q123.589 588.676 121.76 592.24 Q119.955 595.782 119.955 602.912 Q119.955 610.018 121.76 613.583 Q123.589 617.124 127.2 617.124 Q130.834 617.124 132.64 613.583 Q134.468 610.018 134.468 602.912 Q134.468 595.782 132.64 592.24 Q130.834 588.676 127.2 588.676 M127.2 584.972 Q133.01 584.972 136.066 589.578 Q139.144 594.162 139.144 602.912 Q139.144 611.638 136.066 616.245 Q133.01 620.828 127.2 620.828 Q121.39 620.828 118.311 616.245 Q115.256 611.638 115.256 602.912 Q115.256 594.162 118.311 589.578 Q121.39 584.972 127.2 584.972 Z" fill="#000000" fill-rule="nonzero" fill-opacity="1"></path><path clip-path="url(#clip870)" d="M147.362 614.277 L152.246 614.277 L152.246 620.157 L147.362 620.157 L147.362 614.277 Z" fill="#000000" fill-rule="nonzero" fill-opacity="1"></path><path clip-path="url(#clip870)" d="M172.431 588.676 Q168.82 588.676 166.991 592.24 Q165.186 595.782 165.186 602.912 Q165.186 610.018 166.991 613.583 Q168.82 617.124 172.431 617.124 Q176.065 617.124 177.871 613.583 Q179.7 610.018 179.7 602.912 Q179.7 595.782 177.871 592.24 Q176.065 588.676 172.431 588.676 M172.431 584.972 Q178.241 584.972 181.297 589.578 Q184.376 594.162 184.376 602.912 Q184.376 611.638 181.297 616.245 Q178.241 620.828 172.431 620.828 Q166.621 620.828 163.542 616.245 Q160.487 611.638 160.487 602.912 Q160.487 594.162 163.542 589.578 Q166.621 584.972 172.431 584.972 Z" fill="#000000" fill-rule="nonzero" fill-opacity="1"></path><path clip-path="url(#clip870)" d="M196.621 616.222 L212.94 616.222 L212.94 620.157 L190.996 620.157 L190.996 616.222 Q193.658 613.467 198.241 608.837 Q202.848 604.185 204.028 602.842 Q206.274 600.319 207.153 598.583 Q208.056 596.824 208.056 595.134 Q208.056 592.379 206.112 590.643 Q204.19 588.907 201.088 588.907 Q198.889 588.907 196.436 589.671 Q194.005 590.435 191.227 591.986 L191.227 587.264 Q194.051 586.129 196.505 585.551 Q198.959 584.972 200.996 584.972 Q206.366 584.972 209.561 587.657 Q212.755 590.342 212.755 594.833 Q212.755 596.963 211.945 598.884 Q211.158 600.782 209.051 603.375 Q208.473 604.046 205.371 607.263 Q202.269 610.458 196.621 616.222 Z" fill="#000000" fill-rule="nonzero" fill-opacity="1"></path><path clip-path="url(#clip870)" d="M222.801 585.597 L241.158 585.597 L241.158 589.532 L227.084 589.532 L227.084 598.004 Q228.102 597.657 229.121 597.495 Q230.139 597.31 231.158 597.31 Q236.945 597.31 240.324 600.481 Q243.704 603.652 243.704 609.069 Q243.704 614.648 240.232 617.749 Q236.76 620.828 230.44 620.828 Q228.264 620.828 225.996 620.458 Q223.75 620.087 221.343 619.347 L221.343 614.648 Q223.426 615.782 225.648 616.337 Q227.871 616.893 230.347 616.893 Q234.352 616.893 236.69 614.787 Q239.028 612.68 239.028 609.069 Q239.028 605.458 236.69 603.351 Q234.352 601.245 230.347 601.245 Q228.473 601.245 226.598 601.662 Q224.746 602.078 222.801 602.958 L222.801 585.597 Z" fill="#000000" fill-rule="nonzero" fill-opacity="1"></path><path clip-path="url(#clip870)" d="M126.205 407.561 Q122.593 407.561 120.765 411.126 Q118.959 414.667 118.959 421.797 Q118.959 428.903 120.765 432.468 Q122.593 436.01 126.205 436.01 Q129.839 436.01 131.644 432.468 Q133.473 428.903 133.473 421.797 Q133.473 414.667 131.644 411.126 Q129.839 407.561 126.205 407.561 M126.205 403.857 Q132.015 403.857 135.07 408.464 Q138.149 413.047 138.149 421.797 Q138.149 430.524 135.07 435.13 Q132.015 439.713 126.205 439.713 Q120.394 439.713 117.316 435.13 Q114.26 430.524 114.26 421.797 Q114.26 413.047 117.316 408.464 Q120.394 403.857 126.205 403.857 Z" fill="#000000" fill-rule="nonzero" fill-opacity="1"></path><path clip-path="url(#clip870)" d="M146.366 433.162 L151.251 433.162 L151.251 439.042 L146.366 439.042 L146.366 433.162 Z" fill="#000000" fill-rule="nonzero" fill-opacity="1"></path><path clip-path="url(#clip870)" d="M171.436 407.561 Q167.825 407.561 165.996 411.126 Q164.19 414.667 164.19 421.797 Q164.19 428.903 165.996 432.468 Q167.825 436.01 171.436 436.01 Q175.07 436.01 176.876 432.468 Q178.704 428.903 178.704 421.797 Q178.704 414.667 176.876 411.126 Q175.07 407.561 171.436 407.561 M171.436 403.857 Q177.246 403.857 180.301 408.464 Q183.38 413.047 183.38 421.797 Q183.38 430.524 180.301 435.13 Q177.246 439.713 171.436 439.713 Q165.626 439.713 162.547 435.13 Q159.491 430.524 159.491 421.797 Q159.491 413.047 162.547 408.464 Q165.626 403.857 171.436 403.857 Z" fill="#000000" fill-rule="nonzero" fill-opacity="1"></path><path clip-path="url(#clip870)" d="M205.764 420.408 Q209.121 421.126 210.996 423.394 Q212.894 425.663 212.894 428.996 Q212.894 434.112 209.375 436.912 Q205.857 439.713 199.375 439.713 Q197.2 439.713 194.885 439.274 Q192.593 438.857 190.139 438 L190.139 433.487 Q192.084 434.621 194.399 435.2 Q196.713 435.778 199.237 435.778 Q203.635 435.778 205.926 434.042 Q208.241 432.306 208.241 428.996 Q208.241 425.94 206.088 424.227 Q203.959 422.491 200.139 422.491 L196.112 422.491 L196.112 418.649 L200.325 418.649 Q203.774 418.649 205.602 417.283 Q207.431 415.894 207.431 413.301 Q207.431 410.639 205.533 409.227 Q203.658 407.792 200.139 407.792 Q198.218 407.792 196.019 408.209 Q193.82 408.626 191.181 409.505 L191.181 405.339 Q193.843 404.598 196.158 404.227 Q198.496 403.857 200.556 403.857 Q205.88 403.857 208.982 406.288 Q212.084 408.695 212.084 412.815 Q212.084 415.686 210.44 417.676 Q208.797 419.644 205.764 420.408 Z" fill="#000000" fill-rule="nonzero" fill-opacity="1"></path><path clip-path="url(#clip870)" d="M231.76 407.561 Q228.148 407.561 226.32 411.126 Q224.514 414.667 224.514 421.797 Q224.514 428.903 226.32 432.468 Q228.148 436.01 231.76 436.01 Q235.394 436.01 237.199 432.468 Q239.028 428.903 239.028 421.797 Q239.028 414.667 237.199 411.126 Q235.394 407.561 231.76 407.561 M231.76 403.857 Q237.57 403.857 240.625 408.464 Q243.704 413.047 243.704 421.797 Q243.704 430.524 240.625 435.13 Q237.57 439.713 231.76 439.713 Q225.949 439.713 222.871 435.13 Q219.815 430.524 219.815 421.797 Q219.815 413.047 222.871 408.464 Q225.949 403.857 231.76 403.857 Z" fill="#000000" fill-rule="nonzero" fill-opacity="1"></path><path clip-path="url(#clip870)" d="M127.2 226.446 Q123.589 226.446 121.76 230.011 Q119.955 233.552 119.955 240.682 Q119.955 247.788 121.76 251.353 Q123.589 254.895 127.2 254.895 Q130.834 254.895 132.64 251.353 Q134.468 247.788 134.468 240.682 Q134.468 233.552 132.64 230.011 Q130.834 226.446 127.2 226.446 M127.2 222.742 Q133.01 222.742 136.066 227.349 Q139.144 231.932 139.144 240.682 Q139.144 249.409 136.066 254.015 Q133.01 258.599 127.2 258.599 Q121.39 258.599 118.311 254.015 Q115.256 249.409 115.256 240.682 Q115.256 231.932 118.311 227.349 Q121.39 222.742 127.2 222.742 Z" fill="#000000" fill-rule="nonzero" fill-opacity="1"></path><path clip-path="url(#clip870)" d="M147.362 252.048 L152.246 252.048 L152.246 257.927 L147.362 257.927 L147.362 252.048 Z" fill="#000000" fill-rule="nonzero" fill-opacity="1"></path><path clip-path="url(#clip870)" d="M172.431 226.446 Q168.82 226.446 166.991 230.011 Q165.186 233.552 165.186 240.682 Q165.186 247.788 166.991 251.353 Q168.82 254.895 172.431 254.895 Q176.065 254.895 177.871 251.353 Q179.7 247.788 179.7 240.682 Q179.7 233.552 177.871 230.011 Q176.065 226.446 172.431 226.446 M172.431 222.742 Q178.241 222.742 181.297 227.349 Q184.376 231.932 184.376 240.682 Q184.376 249.409 181.297 254.015 Q178.241 258.599 172.431 258.599 Q166.621 258.599 163.542 254.015 Q160.487 249.409 160.487 240.682 Q160.487 231.932 163.542 227.349 Q166.621 222.742 172.431 222.742 Z" fill="#000000" fill-rule="nonzero" fill-opacity="1"></path><path clip-path="url(#clip870)" d="M206.76 239.293 Q210.116 240.011 211.991 242.279 Q213.889 244.548 213.889 247.881 Q213.889 252.997 210.371 255.798 Q206.852 258.599 200.371 258.599 Q198.195 258.599 195.88 258.159 Q193.588 257.742 191.135 256.886 L191.135 252.372 Q193.079 253.506 195.394 254.085 Q197.709 254.663 200.232 254.663 Q204.63 254.663 206.922 252.927 Q209.237 251.191 209.237 247.881 Q209.237 244.826 207.084 243.113 Q204.954 241.376 201.135 241.376 L197.107 241.376 L197.107 237.534 L201.32 237.534 Q204.769 237.534 206.598 236.168 Q208.426 234.779 208.426 232.187 Q208.426 229.525 206.528 228.113 Q204.653 226.677 201.135 226.677 Q199.213 226.677 197.014 227.094 Q194.815 227.511 192.176 228.39 L192.176 224.224 Q194.838 223.483 197.153 223.113 Q199.491 222.742 201.551 222.742 Q206.875 222.742 209.977 225.173 Q213.079 227.58 213.079 231.701 Q213.079 234.571 211.436 236.562 Q209.792 238.529 206.76 239.293 Z" fill="#000000" fill-rule="nonzero" fill-opacity="1"></path><path clip-path="url(#clip870)" d="M222.801 223.367 L241.158 223.367 L241.158 227.302 L227.084 227.302 L227.084 235.775 Q228.102 235.427 229.121 235.265 Q230.139 235.08 231.158 235.08 Q236.945 235.08 240.324 238.251 Q243.704 241.423 243.704 246.839 Q243.704 252.418 240.232 255.52 Q236.76 258.599 230.44 258.599 Q228.264 258.599 225.996 258.228 Q223.75 257.858 221.343 257.117 L221.343 252.418 Q223.426 253.552 225.648 254.108 Q227.871 254.663 230.347 254.663 Q234.352 254.663 236.69 252.557 Q239.028 250.45 239.028 246.839 Q239.028 243.228 236.69 241.122 Q234.352 239.015 230.347 239.015 Q228.473 239.015 226.598 239.432 Q224.746 239.849 222.801 240.728 L222.801 223.367 Z" fill="#000000" fill-rule="nonzero" fill-opacity="1"></path><path clip-path="url(#clip870)" d="M46.0847 1080.41 Q46.0847 1087.51 47.7079 1090.25 Q49.3312 1092.98 53.2461 1092.98 Q56.3653 1092.98 58.2114 1090.95 Q60.0256 1088.88 60.0256 1085.34 Q60.0256 1080.47 56.5881 1077.55 Q53.1188 1074.59 47.3897 1074.59 L46.0847 1074.59 L46.0847 1080.41 M43.6657 1068.73 L64.0042 1068.73 L64.0042 1074.59 L58.5933 1074.59 Q61.8398 1076.59 63.3994 1079.58 Q64.9272 1082.58 64.9272 1086.9 Q64.9272 1092.38 61.8716 1095.62 Q58.7843 1098.84 53.6281 1098.84 Q47.6125 1098.84 44.5569 1094.83 Q41.5014 1090.79 41.5014 1082.8 L41.5014 1074.59 L40.9285 1074.59 Q36.8862 1074.59 34.6901 1077.26 Q32.4621 1079.9 32.4621 1084.71 Q32.4621 1087.76 33.1941 1090.66 Q33.9262 1093.56 35.3903 1096.23 L29.9795 1096.23 Q28.7381 1093.01 28.1334 1089.99 Q27.4968 1086.97 27.4968 1084.1 Q27.4968 1076.37 31.5072 1072.55 Q35.5176 1068.73 43.6657 1068.73 Z" fill="#000000" fill-rule="nonzero" fill-opacity="1"></path><path clip-path="url(#clip870)" d="M28.3562 1060.87 L28.3562 1054.66 L58.275 1043.52 L28.3562 1032.38 L28.3562 1026.17 L64.0042 1039.54 L64.0042 1047.5 L28.3562 1060.87 Z" fill="#000000" fill-rule="nonzero" fill-opacity="1"></path><path clip-path="url(#clip870)" d="M44.7161 987.599 L47.5806 987.599 L47.5806 1014.53 Q53.6281 1014.14 56.8109 1010.9 Q59.9619 1007.62 59.9619 1001.79 Q59.9619 998.42 59.1344 995.269 Q58.3069 992.087 56.6518 988.967 L62.1899 988.967 Q63.5267 992.118 64.227 995.429 Q64.9272 998.739 64.9272 1002.14 Q64.9272 1010.67 59.9619 1015.67 Q54.9967 1020.64 46.5303 1020.64 Q37.7774 1020.64 32.6531 1015.93 Q27.4968 1011.18 27.4968 1003.16 Q27.4968 995.97 32.1438 991.8 Q36.7589 987.599 44.7161 987.599 M42.9973 993.455 Q38.1912 993.519 35.3266 996.161 Q32.4621 998.771 32.4621 1003.1 Q32.4621 1008 35.2312 1010.96 Q38.0002 1013.89 43.0292 1014.33 L42.9973 993.455 Z" fill="#000000" fill-rule="nonzero" fill-opacity="1"></path><path clip-path="url(#clip870)" d="M33.8307 957.33 Q33.2578 958.316 33.0032 959.494 Q32.7167 960.64 32.7167 962.04 Q32.7167 967.006 35.9632 969.679 Q39.1779 972.321 45.2253 972.321 L64.0042 972.321 L64.0042 978.209 L28.3562 978.209 L28.3562 972.321 L33.8944 972.321 Q30.6479 970.475 29.0883 967.515 Q27.4968 964.555 27.4968 960.322 Q27.4968 959.717 27.5923 958.985 Q27.656 958.253 27.8151 957.362 L33.8307 957.33 Z" fill="#000000" fill-rule="nonzero" fill-opacity="1"></path><path clip-path="url(#clip870)" d="M46.0847 934.986 Q46.0847 942.084 47.7079 944.821 Q49.3312 947.558 53.2461 947.558 Q56.3653 947.558 58.2114 945.521 Q60.0256 943.453 60.0256 939.92 Q60.0256 935.05 56.5881 932.122 Q53.1188 929.162 47.3897 929.162 L46.0847 929.162 L46.0847 934.986 M43.6657 923.305 L64.0042 923.305 L64.0042 929.162 L58.5933 929.162 Q61.8398 931.167 63.3994 934.159 Q64.9272 937.151 64.9272 941.479 Q64.9272 946.954 61.8716 950.2 Q58.7843 953.415 53.6281 953.415 Q47.6125 953.415 44.5569 949.405 Q41.5014 945.362 41.5014 937.373 L41.5014 929.162 L40.9285 929.162 Q36.8862 929.162 34.6901 931.835 Q32.4621 934.477 32.4621 939.283 Q32.4621 942.339 33.1941 945.235 Q33.9262 948.131 35.3903 950.805 L29.9795 950.805 Q28.7381 947.59 28.1334 944.567 Q27.4968 941.543 27.4968 938.678 Q27.4968 930.944 31.5072 927.125 Q35.5176 923.305 43.6657 923.305 Z" fill="#000000" fill-rule="nonzero" fill-opacity="1"></path><path clip-path="url(#clip870)" d="M45.7664 887.784 Q39.4007 887.784 35.8996 890.426 Q32.3984 893.036 32.3984 897.779 Q32.3984 902.489 35.8996 905.131 Q39.4007 907.741 45.7664 907.741 Q52.1003 907.741 55.6014 905.131 Q59.1026 902.489 59.1026 897.779 Q59.1026 893.036 55.6014 890.426 Q52.1003 887.784 45.7664 887.784 M59.58 881.928 Q68.683 881.928 73.1071 885.97 Q77.5631 890.012 77.5631 898.352 Q77.5631 901.439 77.0857 904.176 Q76.6401 906.913 75.6852 909.492 L69.9879 909.492 Q71.3884 906.913 72.0568 904.399 Q72.7252 901.885 72.7252 899.275 Q72.7252 893.514 69.7015 890.649 Q66.7096 887.784 60.6303 887.784 L57.7339 887.784 Q60.885 889.599 62.4446 892.431 Q64.0042 895.264 64.0042 899.211 Q64.0042 905.768 59.0071 909.778 Q54.01 913.788 45.7664 913.788 Q37.491 913.788 32.4939 909.778 Q27.4968 905.768 27.4968 899.211 Q27.4968 895.264 29.0564 892.431 Q30.616 889.599 33.7671 887.784 L28.3562 887.784 L28.3562 881.928 L59.58 881.928 Z" fill="#000000" fill-rule="nonzero" fill-opacity="1"></path><path clip-path="url(#clip870)" d="M44.7161 839.373 L47.5806 839.373 L47.5806 866.3 Q53.6281 865.918 56.8109 862.672 Q59.9619 859.393 59.9619 853.569 Q59.9619 850.195 59.1344 847.044 Q58.3069 843.861 56.6518 840.742 L62.1899 840.742 Q63.5267 843.893 64.227 847.203 Q64.9272 850.513 64.9272 853.919 Q64.9272 862.449 59.9619 867.446 Q54.9967 872.411 46.5303 872.411 Q37.7774 872.411 32.6531 867.701 Q27.4968 862.958 27.4968 854.937 Q27.4968 847.744 32.1438 843.575 Q36.7589 839.373 44.7161 839.373 M42.9973 845.23 Q38.1912 845.293 35.3266 847.935 Q32.4621 850.545 32.4621 854.874 Q32.4621 859.775 35.2312 862.735 Q38.0002 865.664 43.0292 866.109 L42.9973 845.23 Z" fill="#000000" fill-rule="nonzero" fill-opacity="1"></path><path clip-path="url(#clip870)" d="M33.8307 788.384 Q33.2578 789.371 33.0032 790.548 Q32.7167 791.694 32.7167 793.095 Q32.7167 798.06 35.9632 800.733 Q39.1779 803.375 45.2253 803.375 L64.0042 803.375 L64.0042 809.263 L28.3562 809.263 L28.3562 803.375 L33.8944 803.375 Q30.6479 801.529 29.0883 798.569 Q27.4968 795.609 27.4968 791.376 Q27.4968 790.771 27.5923 790.039 Q27.656 789.307 27.8151 788.416 L33.8307 788.384 Z" fill="#000000" fill-rule="nonzero" fill-opacity="1"></path><path clip-path="url(#clip870)" d="M44.7161 753.182 L47.5806 753.182 L47.5806 780.109 Q53.6281 779.727 56.8109 776.48 Q59.9619 773.202 59.9619 767.377 Q59.9619 764.003 59.1344 760.852 Q58.3069 757.669 56.6518 754.55 L62.1899 754.55 Q63.5267 757.701 64.227 761.011 Q64.9272 764.322 64.9272 767.727 Q64.9272 776.257 59.9619 781.254 Q54.9967 786.22 46.5303 786.22 Q37.7774 786.22 32.6531 781.509 Q27.4968 776.767 27.4968 768.746 Q27.4968 761.553 32.1438 757.383 Q36.7589 753.182 44.7161 753.182 M42.9973 759.038 Q38.1912 759.102 35.3266 761.743 Q32.4621 764.353 32.4621 768.682 Q32.4621 773.584 35.2312 776.544 Q38.0002 779.472 43.0292 779.918 L42.9973 759.038 Z" fill="#000000" fill-rule="nonzero" fill-opacity="1"></path><path clip-path="url(#clip870)" d="M14.479 743.569 L14.479 737.713 L64.0042 737.713 L64.0042 743.569 L14.479 743.569 Z" fill="#000000" fill-rule="nonzero" fill-opacity="1"></path><path clip-path="url(#clip870)" d="M46.0847 709.258 Q46.0847 716.356 47.7079 719.093 Q49.3312 721.83 53.2461 721.83 Q56.3653 721.83 58.2114 719.793 Q60.0256 717.725 60.0256 714.192 Q60.0256 709.322 56.5881 706.394 Q53.1188 703.434 47.3897 703.434 L46.0847 703.434 L46.0847 709.258 M43.6657 697.577 L64.0042 697.577 L64.0042 703.434 L58.5933 703.434 Q61.8398 705.439 63.3994 708.431 Q64.9272 711.423 64.9272 715.751 Q64.9272 721.226 61.8716 724.472 Q58.7843 727.687 53.6281 727.687 Q47.6125 727.687 44.5569 723.677 Q41.5014 719.634 41.5014 711.645 L41.5014 703.434 L40.9285 703.434 Q36.8862 703.434 34.6901 706.107 Q32.4621 708.749 32.4621 713.555 Q32.4621 716.611 33.1941 719.507 Q33.9262 722.403 35.3903 725.077 L29.9795 725.077 Q28.7381 721.862 28.1334 718.839 Q27.4968 715.815 27.4968 712.95 Q27.4968 705.216 31.5072 701.397 Q35.5176 697.577 43.6657 697.577 Z" fill="#000000" fill-rule="nonzero" fill-opacity="1"></path><path clip-path="url(#clip870)" d="M18.2347 679.721 L28.3562 679.721 L28.3562 667.658 L32.9077 667.658 L32.9077 679.721 L52.2594 679.721 Q56.6199 679.721 57.8613 678.544 Q59.1026 677.334 59.1026 673.674 L59.1026 667.658 L64.0042 667.658 L64.0042 673.674 Q64.0042 680.453 61.4897 683.032 Q58.9434 685.61 52.2594 685.61 L32.9077 685.61 L32.9077 689.906 L28.3562 689.906 L28.3562 685.61 L18.2347 685.61 L18.2347 679.721 Z" fill="#000000" fill-rule="nonzero" fill-opacity="1"></path><path clip-path="url(#clip870)" d="M28.3562 659.956 L28.3562 654.099 L64.0042 654.099 L64.0042 659.956 L28.3562 659.956 M14.479 659.956 L14.479 654.099 L21.895 654.099 L21.895 659.956 L14.479 659.956 Z" fill="#000000" fill-rule="nonzero" fill-opacity="1"></path><path clip-path="url(#clip870)" d="M28.3562 646.047 L28.3562 639.84 L58.275 628.7 L28.3562 617.56 L28.3562 611.354 L64.0042 624.722 L64.0042 632.679 L28.3562 646.047 Z" fill="#000000" fill-rule="nonzero" fill-opacity="1"></path><path clip-path="url(#clip870)" d="M44.7161 572.777 L47.5806 572.777 L47.5806 599.704 Q53.6281 599.322 56.8109 596.076 Q59.9619 592.798 59.9619 586.973 Q59.9619 583.599 59.1344 580.448 Q58.3069 577.265 56.6518 574.146 L62.1899 574.146 Q63.5267 577.297 64.227 580.607 Q64.9272 583.917 64.9272 587.323 Q64.9272 595.853 59.9619 600.85 Q54.9967 605.815 46.5303 605.815 Q37.7774 605.815 32.6531 601.105 Q27.4968 596.362 27.4968 588.342 Q27.4968 581.148 32.1438 576.979 Q36.7589 572.777 44.7161 572.777 M42.9973 578.634 Q38.1912 578.698 35.3266 581.339 Q32.4621 583.949 32.4621 588.278 Q32.4621 593.18 35.2312 596.14 Q38.0002 599.068 43.0292 599.513 L42.9973 578.634 Z" fill="#000000" fill-rule="nonzero" fill-opacity="1"></path><path clip-path="url(#clip870)" d="M44.7161 511.953 L47.5806 511.953 L47.5806 538.88 Q53.6281 538.498 56.8109 535.252 Q59.9619 531.973 59.9619 526.149 Q59.9619 522.775 59.1344 519.624 Q58.3069 516.441 56.6518 513.322 L62.1899 513.322 Q63.5267 516.473 64.227 519.783 Q64.9272 523.093 64.9272 526.499 Q64.9272 535.029 59.9619 540.026 Q54.9967 544.991 46.5303 544.991 Q37.7774 544.991 32.6531 540.281 Q27.4968 535.538 27.4968 527.517 Q27.4968 520.324 32.1438 516.155 Q36.7589 511.953 44.7161 511.953 M42.9973 517.81 Q38.1912 517.873 35.3266 520.515 Q32.4621 523.125 32.4621 527.454 Q32.4621 532.355 35.2312 535.315 Q38.0002 538.244 43.0292 538.689 L42.9973 517.81 Z" fill="#000000" fill-rule="nonzero" fill-opacity="1"></path><path clip-path="url(#clip870)" d="M33.8307 481.684 Q33.2578 482.671 33.0032 483.849 Q32.7167 484.994 32.7167 486.395 Q32.7167 491.36 35.9632 494.034 Q39.1779 496.675 45.2253 496.675 L64.0042 496.675 L64.0042 502.564 L28.3562 502.564 L28.3562 496.675 L33.8944 496.675 Q30.6479 494.829 29.0883 491.869 Q27.4968 488.909 27.4968 484.676 Q27.4968 484.071 27.5923 483.339 Q27.656 482.607 27.8151 481.716 L33.8307 481.684 Z" fill="#000000" fill-rule="nonzero" fill-opacity="1"></path><path clip-path="url(#clip870)" d="M33.8307 456.03 Q33.2578 457.017 33.0032 458.195 Q32.7167 459.341 32.7167 460.741 Q32.7167 465.706 35.9632 468.38 Q39.1779 471.022 45.2253 471.022 L64.0042 471.022 L64.0042 476.91 L28.3562 476.91 L28.3562 471.022 L33.8944 471.022 Q30.6479 469.176 29.0883 466.216 Q27.4968 463.255 27.4968 459.022 Q27.4968 458.418 27.5923 457.686 Q27.656 456.953 27.8151 456.062 L33.8307 456.03 Z" fill="#000000" fill-rule="nonzero" fill-opacity="1"></path><path clip-path="url(#clip870)" d="M32.4621 437.506 Q32.4621 442.217 36.1542 444.954 Q39.8145 447.691 46.212 447.691 Q52.6095 447.691 56.3017 444.986 Q59.9619 442.249 59.9619 437.506 Q59.9619 432.827 56.2698 430.09 Q52.5777 427.353 46.212 427.353 Q39.8781 427.353 36.186 430.09 Q32.4621 432.827 32.4621 437.506 M27.4968 437.506 Q27.4968 429.867 32.4621 425.507 Q37.4273 421.146 46.212 421.146 Q54.9649 421.146 59.9619 425.507 Q64.9272 429.867 64.9272 437.506 Q64.9272 445.177 59.9619 449.537 Q54.9649 453.866 46.212 453.866 Q37.4273 453.866 32.4621 449.537 Q27.4968 445.177 27.4968 437.506 Z" fill="#000000" fill-rule="nonzero" fill-opacity="1"></path><path clip-path="url(#clip870)" d="M33.8307 390.782 Q33.2578 391.769 33.0032 392.946 Q32.7167 394.092 32.7167 395.493 Q32.7167 400.458 35.9632 403.131 Q39.1779 405.773 45.2253 405.773 L64.0042 405.773 L64.0042 411.661 L28.3562 411.661 L28.3562 405.773 L33.8944 405.773 Q30.6479 403.927 29.0883 400.967 Q27.4968 398.007 27.4968 393.774 Q27.4968 393.169 27.5923 392.437 Q27.656 391.705 27.8151 390.814 L33.8307 390.782 Z" fill="#000000" fill-rule="nonzero" fill-opacity="1"></path><path clip-path="url(#clip870)" d="M568.413 12.096 L600.536 12.096 L600.536 18.9825 L575.907 18.9825 L575.907 33.8088 Q577.689 33.2012 579.472 32.9176 Q581.254 32.5936 583.036 32.5936 Q593.164 32.5936 599.078 38.1433 Q604.992 43.6931 604.992 53.1722 Q604.992 62.9348 598.916 68.3631 Q592.84 73.7508 581.781 73.7508 Q577.973 73.7508 574.003 73.1026 Q570.074 72.4545 565.861 71.1582 L565.861 62.9348 Q569.506 64.9198 573.395 65.892 Q577.284 66.8642 581.619 66.8642 Q588.627 66.8642 592.718 63.1779 Q596.81 59.4916 596.81 53.1722 Q596.81 46.8528 592.718 43.1664 Q588.627 39.4801 581.619 39.4801 Q578.337 39.4801 575.056 40.2093 Q571.815 40.9384 568.413 42.4778 L568.413 12.096 Z" fill="#000000" fill-rule="nonzero" fill-opacity="1"></path><path clip-path="url(#clip870)" d="M638.615 17.4837 Q632.295 17.4837 629.095 23.7221 Q625.936 29.92 625.936 42.3968 Q625.936 54.833 629.095 61.0714 Q632.295 67.2693 638.615 67.2693 Q644.975 67.2693 648.135 61.0714 Q651.335 54.833 651.335 42.3968 Q651.335 29.92 648.135 23.7221 Q644.975 17.4837 638.615 17.4837 M638.615 11.0023 Q648.783 11.0023 654.13 19.0636 Q659.518 27.0843 659.518 42.3968 Q659.518 57.6687 654.13 65.73 Q648.783 73.7508 638.615 73.7508 Q628.447 73.7508 623.059 65.73 Q617.712 57.6687 617.712 42.3968 Q617.712 27.0843 623.059 19.0636 Q628.447 11.0023 638.615 11.0023 Z" fill="#000000" fill-rule="nonzero" fill-opacity="1"></path><path clip-path="url(#clip870)" d="M693.869 27.2059 L701.769 27.2059 L715.947 65.2844 L730.125 27.2059 L738.024 27.2059 L721.01 72.576 L710.883 72.576 L693.869 27.2059 Z" fill="#000000" fill-rule="nonzero" fill-opacity="1"></path><path clip-path="url(#clip870)" d="M768.932 49.7694 Q759.899 49.7694 756.415 51.8354 Q752.931 53.9013 752.931 58.8839 Q752.931 62.8538 755.524 65.2034 Q758.157 67.5124 762.654 67.5124 Q768.851 67.5124 772.578 63.1374 Q776.346 58.7219 776.346 51.4303 L776.346 49.7694 L768.932 49.7694 M783.799 46.6907 L783.799 72.576 L776.346 72.576 L776.346 65.6895 Q773.794 69.8214 769.986 71.8063 Q766.178 73.7508 760.669 73.7508 Q753.701 73.7508 749.569 69.8619 Q745.478 65.9325 745.478 59.3701 Q745.478 51.7138 750.582 47.825 Q755.727 43.9361 765.894 43.9361 L776.346 43.9361 L776.346 43.2069 Q776.346 38.0623 772.943 35.2672 Q769.581 32.4315 763.464 32.4315 Q759.575 32.4315 755.889 33.3632 Q752.202 34.295 748.799 36.1584 L748.799 29.2718 Q752.891 27.692 756.739 26.9223 Q760.588 26.1121 764.233 26.1121 Q774.077 26.1121 778.938 31.2163 Q783.799 36.3204 783.799 46.6907 Z" fill="#000000" fill-rule="nonzero" fill-opacity="1"></path><path clip-path="url(#clip870)" d="M825.443 34.1734 Q824.187 33.4443 822.688 33.1202 Q821.23 32.7556 819.447 32.7556 Q813.128 32.7556 809.725 36.8875 Q806.363 40.9789 806.363 48.6757 L806.363 72.576 L798.869 72.576 L798.869 27.2059 L806.363 27.2059 L806.363 34.2544 Q808.712 30.1225 812.48 28.1376 Q816.247 26.1121 821.635 26.1121 Q822.404 26.1121 823.336 26.2337 Q824.268 26.3147 825.402 26.5172 L825.443 34.1734 Z" fill="#000000" fill-rule="nonzero" fill-opacity="1"></path><path clip-path="url(#clip870)" d="M833.261 27.2059 L840.715 27.2059 L840.715 72.576 L833.261 72.576 L833.261 27.2059 M833.261 9.54393 L840.715 9.54393 L840.715 18.9825 L833.261 18.9825 L833.261 9.54393 Z" fill="#000000" fill-rule="nonzero" fill-opacity="1"></path><path clip-path="url(#clip870)" d="M876.93 49.7694 Q867.896 49.7694 864.412 51.8354 Q860.929 53.9013 860.929 58.8839 Q860.929 62.8538 863.521 65.2034 Q866.154 67.5124 870.651 67.5124 Q876.849 67.5124 880.575 63.1374 Q884.343 58.7219 884.343 51.4303 L884.343 49.7694 L876.93 49.7694 M891.796 46.6907 L891.796 72.576 L884.343 72.576 L884.343 65.6895 Q881.791 69.8214 877.983 71.8063 Q874.175 73.7508 868.666 73.7508 Q861.698 73.7508 857.566 69.8619 Q853.475 65.9325 853.475 59.3701 Q853.475 51.7138 858.579 47.825 Q863.724 43.9361 873.891 43.9361 L884.343 43.9361 L884.343 43.2069 Q884.343 38.0623 880.94 35.2672 Q877.578 32.4315 871.461 32.4315 Q867.572 32.4315 863.886 33.3632 Q860.199 34.295 856.797 36.1584 L856.797 29.2718 Q860.888 27.692 864.736 26.9223 Q868.585 26.1121 872.231 26.1121 Q882.074 26.1121 886.935 31.2163 Q891.796 36.3204 891.796 46.6907 Z" fill="#000000" fill-rule="nonzero" fill-opacity="1"></path><path clip-path="url(#clip870)" d="M939.719 49.9314 Q939.719 41.7081 936.316 37.0496 Q932.954 32.3505 927.039 32.3505 Q921.125 32.3505 917.722 37.0496 Q914.36 41.7081 914.36 49.9314 Q914.36 58.1548 917.722 62.8538 Q921.125 67.5124 927.039 67.5124 Q932.954 67.5124 936.316 62.8538 Q939.719 58.1548 939.719 49.9314 M914.36 34.0924 Q916.709 30.0415 920.274 28.0971 Q923.88 26.1121 928.862 26.1121 Q937.126 26.1121 942.271 32.6746 Q947.456 39.2371 947.456 49.9314 Q947.456 60.6258 942.271 67.1883 Q937.126 73.7508 928.862 73.7508 Q923.88 73.7508 920.274 71.8063 Q916.709 69.8214 914.36 65.7705 L914.36 72.576 L906.866 72.576 L906.866 9.54393 L914.36 9.54393 L914.36 34.0924 Z" fill="#000000" fill-rule="nonzero" fill-opacity="1"></path><path clip-path="url(#clip870)" d="M959.811 9.54393 L967.265 9.54393 L967.265 72.576 L959.811 72.576 L959.811 9.54393 Z" fill="#000000" fill-rule="nonzero" fill-opacity="1"></path><path clip-path="url(#clip870)" d="M1021.67 48.0275 L1021.67 51.6733 L987.398 51.6733 Q987.884 59.3701 992.016 63.421 Q996.188 67.4314 1003.6 67.4314 Q1007.9 67.4314 1011.91 66.3781 Q1015.96 65.3249 1019.93 63.2184 L1019.93 70.267 Q1015.92 71.9684 1011.7 72.8596 Q1007.49 73.7508 1003.16 73.7508 Q992.299 73.7508 985.939 67.4314 Q979.62 61.1119 979.62 50.3365 Q979.62 39.1965 985.615 32.6746 Q991.651 26.1121 1001.86 26.1121 Q1011.01 26.1121 1016.32 32.0264 Q1021.67 37.9003 1021.67 48.0275 M1014.21 45.84 Q1014.13 39.7232 1010.77 36.0774 Q1007.45 32.4315 1001.94 32.4315 Q995.702 32.4315 991.935 35.9558 Q988.208 39.4801 987.641 45.8805 L1014.21 45.84 Z" fill="#000000" fill-rule="nonzero" fill-opacity="1"></path><path clip-path="url(#clip870)" d="M1062.83 28.5427 L1062.83 35.5912 Q1059.67 33.9709 1056.26 33.1607 Q1052.86 32.3505 1049.21 32.3505 Q1043.66 32.3505 1040.87 34.0519 Q1038.12 35.7533 1038.12 39.156 Q1038.12 41.7486 1040.1 43.2475 Q1042.08 44.7058 1048.08 46.0426 L1050.63 46.6097 Q1058.57 48.3111 1061.89 51.4303 Q1065.26 54.509 1065.26 60.0587 Q1065.26 66.3781 1060.23 70.0644 Q1055.25 73.7508 1046.5 73.7508 Q1042.85 73.7508 1038.88 73.0216 Q1034.96 72.3329 1030.58 70.9151 L1030.58 63.2184 Q1034.71 65.3654 1038.72 66.4591 Q1042.73 67.5124 1046.66 67.5124 Q1051.93 67.5124 1054.76 65.73 Q1057.6 63.9071 1057.6 60.6258 Q1057.6 57.5877 1055.53 55.9673 Q1053.51 54.3469 1046.58 52.8481 L1043.99 52.2405 Q1037.06 50.7821 1033.98 47.7845 Q1030.9 44.7463 1030.9 39.4801 Q1030.9 33.0797 1035.44 29.5959 Q1039.98 26.1121 1048.32 26.1121 Q1052.46 26.1121 1056.1 26.7198 Q1059.75 27.3274 1062.83 28.5427 Z" fill="#000000" fill-rule="nonzero" fill-opacity="1"></path><path clip-path="url(#clip870)" d="M1113.1 9.17935 L1113.1 92.1419 L1106.21 92.1419 L1106.21 9.17935 L1113.1 9.17935 Z" fill="#000000" fill-rule="nonzero" fill-opacity="1"></path><path clip-path="url(#clip870)" d="M1181.36 19.2256 L1160.7 51.5113 L1181.36 51.5113 L1181.36 19.2256 M1179.21 12.096 L1189.5 12.096 L1189.5 51.5113 L1198.13 51.5113 L1198.13 58.3168 L1189.5 58.3168 L1189.5 72.576 L1181.36 72.576 L1181.36 58.3168 L1154.05 58.3168 L1154.05 50.4176 L1179.21 12.096 Z" fill="#000000" fill-rule="nonzero" fill-opacity="1"></path><path clip-path="url(#clip870)" d="M1254.55 32.4315 Q1248.56 32.4315 1245.08 37.1306 Q1241.59 41.7891 1241.59 49.9314 Q1241.59 58.0738 1245.04 62.7728 Q1248.52 67.4314 1254.55 67.4314 Q1260.51 67.4314 1263.99 62.7323 Q1267.48 58.0333 1267.48 49.9314 Q1267.48 41.8701 1263.99 37.1711 Q1260.51 32.4315 1254.55 32.4315 M1254.55 26.1121 Q1264.28 26.1121 1269.83 32.4315 Q1275.38 38.7509 1275.38 49.9314 Q1275.38 61.0714 1269.83 67.4314 Q1264.28 73.7508 1254.55 73.7508 Q1244.79 73.7508 1239.24 67.4314 Q1233.73 61.0714 1233.73 49.9314 Q1233.73 38.7509 1239.24 32.4315 Q1244.79 26.1121 1254.55 26.1121 Z" fill="#000000" fill-rule="nonzero" fill-opacity="1"></path><path clip-path="url(#clip870)" d="M1320.3 49.9314 Q1320.3 41.7081 1316.9 37.0496 Q1313.54 32.3505 1307.62 32.3505 Q1301.71 32.3505 1298.3 37.0496 Q1294.94 41.7081 1294.94 49.9314 Q1294.94 58.1548 1298.3 62.8538 Q1301.71 67.5124 1307.62 67.5124 Q1313.54 67.5124 1316.9 62.8538 Q1320.3 58.1548 1320.3 49.9314 M1294.94 34.0924 Q1297.29 30.0415 1300.86 28.0971 Q1304.46 26.1121 1309.44 26.1121 Q1317.71 26.1121 1322.85 32.6746 Q1328.04 39.2371 1328.04 49.9314 Q1328.04 60.6258 1322.85 67.1883 Q1317.71 73.7508 1309.44 73.7508 Q1304.46 73.7508 1300.86 71.8063 Q1297.29 69.8214 1294.94 65.7705 L1294.94 72.576 L1287.45 72.576 L1287.45 9.54393 L1294.94 9.54393 L1294.94 34.0924 Z" fill="#000000" fill-rule="nonzero" fill-opacity="1"></path><path clip-path="url(#clip870)" d="M1340.39 27.2059 L1347.85 27.2059 L1347.85 73.3862 Q1347.85 82.0551 1344.53 85.944 Q1341.24 89.8329 1333.91 89.8329 L1331.08 89.8329 L1331.08 83.5134 L1333.06 83.5134 Q1337.31 83.5134 1338.85 81.5285 Q1340.39 79.5841 1340.39 73.3862 L1340.39 27.2059 M1340.39 9.54393 L1347.85 9.54393 L1347.85 18.9825 L1340.39 18.9825 L1340.39 9.54393 Z" fill="#000000" fill-rule="nonzero" fill-opacity="1"></path><path clip-path="url(#clip870)" d="M1402.25 48.0275 L1402.25 51.6733 L1367.98 51.6733 Q1368.47 59.3701 1372.6 63.421 Q1376.77 67.4314 1384.18 67.4314 Q1388.48 67.4314 1392.49 66.3781 Q1396.54 65.3249 1400.51 63.2184 L1400.51 70.267 Q1396.5 71.9684 1392.29 72.8596 Q1388.07 73.7508 1383.74 73.7508 Q1372.88 73.7508 1366.52 67.4314 Q1360.2 61.1119 1360.2 50.3365 Q1360.2 39.1965 1366.2 32.6746 Q1372.23 26.1121 1382.44 26.1121 Q1391.6 26.1121 1396.9 32.0264 Q1402.25 37.9003 1402.25 48.0275 M1394.8 45.84 Q1394.72 39.7232 1391.35 36.0774 Q1388.03 32.4315 1382.52 32.4315 Q1376.28 32.4315 1372.52 35.9558 Q1368.79 39.4801 1368.22 45.8805 L1394.8 45.84 Z" fill="#000000" fill-rule="nonzero" fill-opacity="1"></path><path clip-path="url(#clip870)" d="M1447.13 28.9478 L1447.13 35.9153 Q1443.98 34.1734 1440.77 33.3227 Q1437.62 32.4315 1434.37 32.4315 Q1427.12 32.4315 1423.11 37.0496 Q1419.1 41.6271 1419.1 49.9314 Q1419.1 58.2358 1423.11 62.8538 Q1427.12 67.4314 1434.37 67.4314 Q1437.62 67.4314 1440.77 66.5807 Q1443.98 65.6895 1447.13 63.9476 L1447.13 70.8341 Q1444.02 72.2924 1440.65 73.0216 Q1437.33 73.7508 1433.56 73.7508 Q1423.32 73.7508 1417.28 67.3098 Q1411.24 60.8689 1411.24 49.9314 Q1411.24 38.832 1417.32 32.472 Q1423.44 26.1121 1434.05 26.1121 Q1437.49 26.1121 1440.77 26.8413 Q1444.06 27.5299 1447.13 28.9478 Z" fill="#000000" fill-rule="nonzero" fill-opacity="1"></path><path clip-path="url(#clip870)" d="M1467.47 14.324 L1467.47 27.2059 L1482.82 27.2059 L1482.82 32.9987 L1467.47 32.9987 L1467.47 57.6282 Q1467.47 63.1779 1468.97 64.7578 Q1470.51 66.3376 1475.17 66.3376 L1482.82 66.3376 L1482.82 72.576 L1475.17 72.576 Q1466.54 72.576 1463.26 69.3758 Q1459.98 66.1351 1459.98 57.6282 L1459.98 32.9987 L1454.51 32.9987 L1454.51 27.2059 L1459.98 27.2059 L1459.98 14.324 L1467.47 14.324 Z" fill="#000000" fill-rule="nonzero" fill-opacity="1"></path><path clip-path="url(#clip870)" d="M1492.63 27.2059 L1500.08 27.2059 L1500.08 72.576 L1492.63 72.576 L1492.63 27.2059 M1492.63 9.54393 L1500.08 9.54393 L1500.08 18.9825 L1492.63 18.9825 L1492.63 9.54393 Z" fill="#000000" fill-rule="nonzero" fill-opacity="1"></path><path clip-path="url(#clip870)" d="M1510.33 27.2059 L1518.23 27.2059 L1532.41 65.2844 L1546.58 27.2059 L1554.48 27.2059 L1537.47 72.576 L1527.34 72.576 L1510.33 27.2059 Z" fill="#000000" fill-rule="nonzero" fill-opacity="1"></path><path clip-path="url(#clip870)" d="M1603.58 48.0275 L1603.58 51.6733 L1569.31 51.6733 Q1569.8 59.3701 1573.93 63.421 Q1578.1 67.4314 1585.51 67.4314 Q1589.81 67.4314 1593.82 66.3781 Q1597.87 65.3249 1601.84 63.2184 L1601.84 70.267 Q1597.83 71.9684 1593.62 72.8596 Q1589.4 73.7508 1585.07 73.7508 Q1574.21 73.7508 1567.85 67.4314 Q1561.53 61.1119 1561.53 50.3365 Q1561.53 39.1965 1567.53 32.6746 Q1573.56 26.1121 1583.77 26.1121 Q1592.93 26.1121 1598.23 32.0264 Q1603.58 37.9003 1603.58 48.0275 M1596.13 45.84 Q1596.05 39.7232 1592.68 36.0774 Q1589.36 32.4315 1583.85 32.4315 Q1577.61 32.4315 1573.85 35.9558 Q1570.12 39.4801 1569.55 45.8805 L1596.13 45.84 Z" fill="#000000" fill-rule="nonzero" fill-opacity="1"></path><path clip-path="url(#clip870)" d="M1644.74 28.5427 L1644.74 35.5912 Q1641.58 33.9709 1638.18 33.1607 Q1634.77 32.3505 1631.13 32.3505 Q1625.58 32.3505 1622.78 34.0519 Q1620.03 35.7533 1620.03 39.156 Q1620.03 41.7486 1622.01 43.2475 Q1624 44.7058 1629.99 46.0426 L1632.54 46.6097 Q1640.48 48.3111 1643.81 51.4303 Q1647.17 54.509 1647.17 60.0587 Q1647.17 66.3781 1642.15 70.0644 Q1637.16 73.7508 1628.41 73.7508 Q1624.77 73.7508 1620.8 73.0216 Q1616.87 72.3329 1612.49 70.9151 L1612.49 63.2184 Q1616.62 65.3654 1620.64 66.4591 Q1624.65 67.5124 1628.57 67.5124 Q1633.84 67.5124 1636.68 65.73 Q1639.51 63.9071 1639.51 60.6258 Q1639.51 57.5877 1637.45 55.9673 Q1635.42 54.3469 1628.49 52.8481 L1625.9 52.2405 Q1618.97 50.7821 1615.9 47.7845 Q1612.82 44.7463 1612.82 39.4801 Q1612.82 33.0797 1617.35 29.5959 Q1621.89 26.1121 1630.24 26.1121 Q1634.37 26.1121 1638.01 26.7198 Q1641.66 27.3274 1644.74 28.5427 Z" fill="#000000" fill-rule="nonzero" fill-opacity="1"></path><path clip-path="url(#clip870)" d="M1695.01 9.17935 L1695.01 92.1419 L1688.12 92.1419 L1688.12 9.17935 L1695.01 9.17935 Z" fill="#000000" fill-rule="nonzero" fill-opacity="1"></path><path clip-path="url(#clip870)" d="M1747.83 65.6895 L1776.39 65.6895 L1776.39 72.576 L1737.99 72.576 L1737.99 65.6895 Q1742.65 60.8689 1750.67 52.7671 Q1758.73 44.6248 1760.8 42.2752 Q1764.73 37.8598 1766.27 34.8216 Q1767.84 31.7429 1767.84 28.7857 Q1767.84 23.9651 1764.44 20.927 Q1761.08 17.8888 1755.65 17.8888 Q1751.8 17.8888 1747.51 19.2256 Q1743.26 20.5624 1738.39 23.2765 L1738.39 15.0127 Q1743.34 13.0277 1747.63 12.015 Q1751.92 11.0023 1755.49 11.0023 Q1764.89 11.0023 1770.48 15.7013 Q1776.07 20.4004 1776.07 28.2591 Q1776.07 31.9859 1774.65 35.3482 Q1773.27 38.6699 1769.59 43.2069 Q1768.57 44.3817 1763.15 50.0125 Q1757.72 55.6027 1747.83 65.6895 Z" fill="#000000" fill-rule="nonzero" fill-opacity="1"></path><path clip-path="url(#clip870)" d="M1811.07 17.4837 Q1804.75 17.4837 1801.55 23.7221 Q1798.39 29.92 1798.39 42.3968 Q1798.39 54.833 1801.55 61.0714 Q1804.75 67.2693 1811.07 67.2693 Q1817.43 67.2693 1820.59 61.0714 Q1823.79 54.833 1823.79 42.3968 Q1823.79 29.92 1820.59 23.7221 Q1817.43 17.4837 1811.07 17.4837 M1811.07 11.0023 Q1821.24 11.0023 1826.58 19.0636 Q1831.97 27.0843 1831.97 42.3968 Q1831.97 57.6687 1826.58 65.73 Q1821.24 73.7508 1811.07 73.7508 Q1800.9 73.7508 1795.51 65.73 Q1790.17 57.6687 1790.17 42.3968 Q1790.17 27.0843 1795.51 19.0636 Q1800.9 11.0023 1811.07 11.0023 Z" fill="#000000" fill-rule="nonzero" fill-opacity="1"></path><path clip-path="url(#clip870)" d="M1879.04 14.324 L1879.04 27.2059 L1894.4 27.2059 L1894.4 32.9987 L1879.04 32.9987 L1879.04 57.6282 Q1879.04 63.1779 1880.54 64.7578 Q1882.08 66.3376 1886.74 66.3376 L1894.4 66.3376 L1894.4 72.576 L1886.74 72.576 Q1878.11 72.576 1874.83 69.3758 Q1871.55 66.1351 1871.55 57.6282 L1871.55 32.9987 L1866.08 32.9987 L1866.08 27.2059 L1871.55 27.2059 L1871.55 14.324 L1879.04 14.324 Z" fill="#000000" fill-rule="nonzero" fill-opacity="1"></path><path clip-path="url(#clip870)" d="M1930.49 34.1734 Q1929.23 33.4443 1927.73 33.1202 Q1926.28 32.7556 1924.49 32.7556 Q1918.17 32.7556 1914.77 36.8875 Q1911.41 40.9789 1911.41 48.6757 L1911.41 72.576 L1903.91 72.576 L1903.91 27.2059 L1911.41 27.2059 L1911.41 34.2544 Q1913.76 30.1225 1917.53 28.1376 Q1921.29 26.1121 1926.68 26.1121 Q1927.45 26.1121 1928.38 26.2337 Q1929.31 26.3147 1930.45 26.5172 L1930.49 34.1734 Z" fill="#000000" fill-rule="nonzero" fill-opacity="1"></path><path clip-path="url(#clip870)" d="M1938.31 27.2059 L1945.76 27.2059 L1945.76 72.576 L1938.31 72.576 L1938.31 27.2059 M1938.31 9.54393 L1945.76 9.54393 L1945.76 18.9825 L1938.31 18.9825 L1938.31 9.54393 Z" fill="#000000" fill-rule="nonzero" fill-opacity="1"></path><path clip-path="url(#clip870)" d="M1981.98 49.7694 Q1972.94 49.7694 1969.46 51.8354 Q1965.97 53.9013 1965.97 58.8839 Q1965.97 62.8538 1968.57 65.2034 Q1971.2 67.5124 1975.7 67.5124 Q1981.89 67.5124 1985.62 63.1374 Q1989.39 58.7219 1989.39 51.4303 L1989.39 49.7694 L1981.98 49.7694 M1996.84 46.6907 L1996.84 72.576 L1989.39 72.576 L1989.39 65.6895 Q1986.84 69.8214 1983.03 71.8063 Q1979.22 73.7508 1973.71 73.7508 Q1966.74 73.7508 1962.61 69.8619 Q1958.52 65.9325 1958.52 59.3701 Q1958.52 51.7138 1963.63 47.825 Q1968.77 43.9361 1978.94 43.9361 L1989.39 43.9361 L1989.39 43.2069 Q1989.39 38.0623 1985.99 35.2672 Q1982.62 32.4315 1976.51 32.4315 Q1972.62 32.4315 1968.93 33.3632 Q1965.25 34.295 1961.84 36.1584 L1961.84 29.2718 Q1965.93 27.692 1969.78 26.9223 Q1973.63 26.1121 1977.28 26.1121 Q1987.12 26.1121 1991.98 31.2163 Q1996.84 36.3204 1996.84 46.6907 Z" fill="#000000" fill-rule="nonzero" fill-opacity="1"></path><path clip-path="url(#clip870)" d="M2012.2 9.54393 L2019.65 9.54393 L2019.65 72.576 L2012.2 72.576 L2012.2 9.54393 Z" fill="#000000" fill-rule="nonzero" fill-opacity="1"></path><path clip-path="url(#clip870)" d="M2064.17 28.5427 L2064.17 35.5912 Q2061.01 33.9709 2057.61 33.1607 Q2054.2 32.3505 2050.56 32.3505 Q2045.01 32.3505 2042.21 34.0519 Q2039.46 35.7533 2039.46 39.156 Q2039.46 41.7486 2041.44 43.2475 Q2043.43 44.7058 2049.42 46.0426 L2051.98 46.6097 Q2059.92 48.3111 2063.24 51.4303 Q2066.6 54.509 2066.6 60.0587 Q2066.6 66.3781 2061.58 70.0644 Q2056.59 73.7508 2047.84 73.7508 Q2044.2 73.7508 2040.23 73.0216 Q2036.3 72.3329 2031.92 70.9151 L2031.92 63.2184 Q2036.06 65.3654 2040.07 66.4591 Q2044.08 67.5124 2048.01 67.5124 Q2053.27 67.5124 2056.11 65.73 Q2058.94 63.9071 2058.94 60.6258 Q2058.94 57.5877 2056.88 55.9673 Q2054.85 54.3469 2047.92 52.8481 L2045.33 52.2405 Q2038.4 50.7821 2035.33 47.7845 Q2032.25 44.7463 2032.25 39.4801 Q2032.25 33.0797 2036.78 29.5959 Q2041.32 26.1121 2049.67 26.1121 Q2053.8 26.1121 2057.44 26.7198 Q2061.09 27.3274 2064.17 28.5427 Z" fill="#000000" fill-rule="nonzero" fill-opacity="1"></path><polyline clip-path="url(#clip872)" style="stroke:#009af9; stroke-linecap:round; stroke-linejoin:round; stroke-width:8; stroke-opacity:1; fill:none" points="338.375,158.642 417.394,879.019 516.167,1131.58 614.94,1110.47 713.713,1186.14 1306.35,1320.29 2294.08,1330.98 "></polyline>
<circle clip-path="url(#clip872)" cx="338.375" cy="158.642" r="14.4" fill="#009af9" fill-rule="evenodd" fill-opacity="1" stroke="#000000" stroke-opacity="1" stroke-width="3.2"></circle>
<circle clip-path="url(#clip872)" cx="417.394" cy="879.019" r="14.4" fill="#009af9" fill-rule="evenodd" fill-opacity="1" stroke="#000000" stroke-opacity="1" stroke-width="3.2"></circle>
<circle clip-path="url(#clip872)" cx="516.167" cy="1131.58" r="14.4" fill="#009af9" fill-rule="evenodd" fill-opacity="1" stroke="#000000" stroke-opacity="1" stroke-width="3.2"></circle>
<circle clip-path="url(#clip872)" cx="614.94" cy="1110.47" r="14.4" fill="#009af9" fill-rule="evenodd" fill-opacity="1" stroke="#000000" stroke-opacity="1" stroke-width="3.2"></circle>
<circle clip-path="url(#clip872)" cx="713.713" cy="1186.14" r="14.4" fill="#009af9" fill-rule="evenodd" fill-opacity="1" stroke="#000000" stroke-opacity="1" stroke-width="3.2"></circle>
<circle clip-path="url(#clip872)" cx="1306.35" cy="1320.29" r="14.4" fill="#009af9" fill-rule="evenodd" fill-opacity="1" stroke="#000000" stroke-opacity="1" stroke-width="3.2"></circle>
<circle clip-path="url(#clip872)" cx="2294.08" cy="1330.98" r="14.4" fill="#009af9" fill-rule="evenodd" fill-opacity="1" stroke="#000000" stroke-opacity="1" stroke-width="3.2"></circle>
</svg>